<svg width="500" height="474" viewBox="0 0 500 474" fill="none" xmlns="http://www.w3.org/2000/svg">
<path d="M488.891 233.373C483.712 182.465 456.741 131.676 433.475 103.628C334.865 -15.2533 136.945 -15.0211 42.676 134.292C16.086 176.408 -0.598971 270.04 19.148 339.294C44.419 427.925 144.004 462.446 254.745 461.63C358.214 460.867 439.571 418.221 470.033 359.305C489.095 322.439 494.071 284.281 488.891 233.373Z" fill="#4A392D"/>
<path d="M42.676 134.292C16.086 176.408 -0.598971 270.04 19.148 339.294C23.582 354.846 30.312 368.725 38.981 381.046L38.982 381.047L148.932 320.877L242.632 269.6L462.756 149.137C462.756 149.137 462.755 149.136 462.755 149.134C453.59 131.091 443.211 115.365 433.476 103.629C334.865 -15.2533 136.945 -15.0211 42.676 134.292Z" fill="#675446"/>
<path opacity="0.2" d="M305.541 309.305L305.54 297.602L287.722 287.853V276.15L269.904 266.4V254.697L252.086 244.948L175.111 284.765L195.068 295.658L195.072 307.358L212.886 317.11L212.89 328.81L230.704 338.562V350.265L308.769 457.215C386.088 444.829 445.103 407.518 470.031 359.305C472.913 353.732 475.467 348.127 477.719 342.456L305.541 309.305Z" fill="#B9AE96"/>
<path opacity="0.15" d="M195.781 81.2465C143.681 109.671 101.441 185.899 101.441 251.521C101.441 290.517 116.358 316.992 139.396 326.094L148.931 320.876L242.631 269.599L252.4 264.253C275.306 230.08 290.121 187.49 290.121 148.624C290.122 83.0012 247.895 52.8339 195.781 81.2465Z" fill="#B9AE96"/>
<path opacity="0.15" d="M195.781 100.222C152.001 124.107 116.505 188.163 116.505 243.306C116.505 298.449 152.001 323.799 195.781 299.924C239.573 276.048 275.056 211.982 275.056 156.839C275.056 101.696 239.573 76.3462 195.781 100.222Z" fill="#B9AE96"/>
<path opacity="0.15" d="M195.781 113.595C158 134.282 127.369 189.758 127.369 237.516C127.369 285.274 158.001 307.228 195.781 286.55C233.572 265.872 264.193 210.387 264.193 162.629C264.193 114.871 233.572 92.9173 195.781 113.595Z" fill="#B9AE96"/>
<path d="M155.443 239.781C155.443 198.405 181.981 150.342 214.713 132.419C229.136 124.526 242.348 123.803 252.621 128.993C249.393 127.222 241.453 122.872 239.312 121.7C228.907 115.97 215.327 116.485 200.466 124.618C167.725 142.541 141.187 190.604 141.187 231.979C141.187 254.626 149.144 270.569 161.707 277.43C163.857 278.603 171.849 282.986 175.112 284.766C163.031 277.646 155.443 261.911 155.443 239.781Z" fill="#B9AE96"/>
<path opacity="0.3" d="M155.443 239.781C155.443 198.405 181.981 150.342 214.713 132.419C229.136 124.526 242.348 123.803 252.621 128.993C249.393 127.222 241.453 122.872 239.312 121.7C228.907 115.97 215.327 116.485 200.466 124.618C167.725 142.541 141.187 190.604 141.187 231.979C141.187 254.626 149.144 270.569 161.707 277.43C163.857 278.603 171.849 282.986 175.112 284.766C163.031 277.646 155.443 261.911 155.443 239.781Z" fill="white"/>
<path d="M237.97 141.094C243.137 147.631 245.909 158.043 245.295 171.575C243.804 204.783 222.512 244.229 197.746 259.674C190.227 264.365 183.244 266.303 177.217 265.796C184.744 275.301 197.342 276.624 212.002 267.475C236.768 252.032 258.06 212.585 259.551 179.376C260.595 156.264 251.778 142.258 237.97 141.094Z" fill="#B9AE96"/>
<path opacity="0.15" d="M237.97 141.094C243.137 147.631 245.909 158.043 245.295 171.575C243.804 204.783 222.512 244.229 197.746 259.674C190.227 264.365 183.244 266.303 177.217 265.796C184.744 275.301 197.342 276.624 212.002 267.475C236.768 252.032 258.06 212.585 259.551 179.376C260.595 156.264 251.778 142.258 237.97 141.094Z" fill="black"/>
<path d="M170.537 151.256L184.79 159.057C185.168 158.57 185.547 158.084 185.931 157.604L171.678 149.803C171.294 150.283 170.915 150.769 170.537 151.256Z" fill="#B9AE96"/>
<path d="M163.952 196.432L149.697 188.63C149.496 189.159 149.311 189.692 149.117 190.223L163.372 198.025C163.566 197.494 163.752 196.961 163.952 196.432Z" fill="#B9AE96"/>
<path d="M228.995 118.253L243.258 126.059C243.841 126.146 244.419 126.244 244.99 126.362L230.73 118.557C230.158 118.439 229.579 118.34 228.995 118.253Z" fill="#B9AE96"/>
<path d="M157.446 219.347C157.558 218.756 157.68 218.164 157.801 217.573L143.545 209.77C143.424 210.361 143.302 210.953 143.19 211.544L157.446 219.347Z" fill="#B9AE96"/>
<path d="M184.549 136.084L198.801 143.884C199.293 143.442 199.783 142.998 200.28 142.569L186.029 134.769C185.531 135.198 185.041 135.642 184.549 136.084Z" fill="#B9AE96"/>
<path d="M157.516 258.352C157.388 257.828 157.265 257.299 157.148 256.762L157.038 256.528L142.857 248.766C142.986 249.369 143.122 249.964 143.266 250.552L157.516 258.352Z" fill="#B9AE96"/>
<path d="M216.574 118.604C215.967 118.72 215.351 118.867 214.736 119.011L228.988 126.811C229.608 126.666 230.226 126.528 230.838 126.411L216.574 118.604Z" fill="#B9AE96"/>
<path d="M215.599 131.959L201.349 124.16C201.054 124.316 200.761 124.455 200.465 124.617C200.176 124.776 199.892 124.954 199.604 125.116L213.854 132.915C214.141 132.753 214.424 132.576 214.712 132.418C215.01 132.256 215.303 132.115 215.599 131.959Z" fill="#B9AE96"/>
<path d="M158.456 169.675L172.711 177.477C172.986 176.977 173.272 176.487 173.552 175.992L159.297 168.19C159.017 168.686 158.731 169.176 158.456 169.675Z" fill="#B9AE96"/>
<path d="M163.573 273.228C163.254 272.716 162.946 272.188 162.643 271.652L148.4 263.857C148.705 264.396 149.019 264.923 149.341 265.439L163.573 273.228Z" fill="#B9AE96"/>
<path d="M141.188 232.131L155.444 239.934C155.444 239.882 155.442 239.832 155.442 239.781C155.442 239.196 155.466 238.606 155.477 238.019L141.221 230.216C141.21 230.804 141.186 231.394 141.186 231.979C141.186 232.031 141.188 232.08 141.188 232.131Z" fill="#B9AE96"/>
<path d="M214.713 132.418C181.981 150.34 155.443 198.403 155.443 239.779C155.443 281.154 181.981 300.175 214.713 282.26C247.453 264.346 273.983 216.275 273.983 174.899C273.983 133.524 247.453 114.503 214.713 132.418ZM259.551 179.374C258.06 212.582 236.768 252.029 212.002 267.473C187.245 282.917 168.383 268.513 169.874 235.304C171.374 202.096 192.666 162.648 217.423 147.205C242.189 131.761 261.051 146.166 259.551 179.374Z" fill="#B9AE96"/>
<g opacity="0.15">
<path d="M202.579 159.695C203.056 159.186 203.533 158.674 204.016 158.18L200.271 142.565C199.773 142.995 199.279 143.431 198.786 143.874L202.579 159.695Z" fill="black"/>
<path d="M213.836 132.907L213.835 149.647C214.418 149.223 215.002 148.808 215.59 148.41L215.587 131.948C215.295 132.103 215.006 132.258 214.713 132.419C214.418 132.581 214.129 132.741 213.836 132.907Z" fill="black"/>
<path d="M225.891 142.992C226.532 142.755 227.167 142.542 227.796 142.349L230.825 126.404C230.21 126.522 229.589 126.651 228.966 126.798L225.891 142.992Z" fill="black"/>
<path d="M177.574 200.611C177.777 200.082 177.986 199.556 178.196 199.03L163.951 196.429C163.751 196.957 163.553 197.488 163.36 198.018L177.574 200.611Z" fill="black"/>
<path d="M184.302 185.787C184.568 185.283 184.832 184.777 185.104 184.276L173.539 175.988C173.259 176.483 172.983 176.978 172.708 177.477L184.302 185.787Z" fill="black"/>
<path d="M271.572 155.023L258.956 166.201C259.055 166.87 259.149 167.544 259.227 168.237L272.041 156.884C271.893 156.254 271.736 155.635 271.572 155.023Z" fill="black"/>
<path d="M170.297 229.888L155.458 238.009C155.447 238.602 155.442 239.189 155.442 239.78C155.442 239.833 155.443 239.885 155.443 239.938L170.096 231.918C170.154 231.244 170.225 230.566 170.297 229.888Z" fill="black"/>
<path d="M172.701 216.155C172.846 215.555 173.008 214.955 173.163 214.356L157.787 217.563C157.666 218.156 157.549 218.749 157.437 219.341L172.701 216.155Z" fill="black"/>
<path d="M237.701 141.085C238.305 141.129 238.899 141.198 239.484 141.29L244.948 126.34C244.372 126.222 243.79 126.118 243.202 126.032L237.701 141.085Z" fill="black"/>
<path d="M255.135 153.52C255.421 154.083 255.692 154.666 255.953 155.265L266.251 142.114C265.935 141.586 265.611 141.07 265.279 140.566L255.135 153.52Z" fill="black"/>
<path d="M247.856 144.712C248.329 145.052 248.789 145.414 249.236 145.799L257.011 131.715C256.542 131.368 256.068 131.031 255.584 130.713L247.856 144.712Z" fill="black"/>
<path d="M192.668 172.007C193.029 171.489 193.385 170.968 193.752 170.459L185.921 157.6C185.537 158.08 185.157 158.564 184.778 159.052L192.668 172.007Z" fill="black"/>
<path d="M227.154 254.666C226.678 255.179 226.2 255.686 225.718 256.183L229.473 271.843C229.971 271.409 230.46 270.953 230.953 270.506L227.154 254.666Z" fill="black"/>
<path d="M245.738 227.731C245.477 228.24 245.211 228.745 244.944 229.248L256.528 237.551C256.804 237.053 257.067 236.547 257.338 236.045L245.738 227.731Z" fill="black"/>
<path d="M237.282 241.933C236.924 242.455 236.562 242.969 236.198 243.482L244.051 256.376C244.432 255.893 244.816 255.413 245.192 254.922L237.282 241.933Z" fill="black"/>
<path d="M252.418 212.57C252.222 213.1 252.028 213.629 251.825 214.157L266.023 216.747C266.217 216.217 266.414 215.689 266.602 215.158L252.418 212.57Z" fill="black"/>
<path d="M257.111 196.841C256.976 197.437 256.847 198.033 256.702 198.629L271.957 195.446C272.069 194.856 272.175 194.266 272.278 193.676L257.111 196.841Z" fill="black"/>
<path d="M273.965 173.148L259.443 181.096C259.4 181.761 259.354 182.427 259.296 183.097L273.98 175.06C273.98 175.007 273.983 174.953 273.983 174.9C273.982 174.312 273.976 173.728 273.965 173.148Z" fill="black"/>
<path d="M215.59 281.754V265.035C215.007 265.459 214.423 265.874 213.835 266.271V282.729C214.127 282.574 214.419 282.423 214.713 282.262C215.007 282.101 215.296 281.92 215.59 281.754Z" fill="black"/>
<path d="M173.81 260.169C173.539 259.586 173.278 258.99 173.033 258.372L162.638 271.647C162.943 272.187 163.257 272.718 163.579 273.235L173.81 260.169Z" fill="black"/>
<path d="M180.94 269.506C180.478 269.147 180.028 268.766 179.592 268.362L171.789 282.497C172.25 282.856 172.722 283.197 173.199 283.528L180.94 269.506Z" fill="black"/>
<path d="M203.204 271.818C202.564 272.049 201.932 272.25 201.304 272.436L198.284 288.334C198.899 288.221 199.517 288.094 200.14 287.952L203.204 271.818Z" fill="black"/>
<path d="M191.151 273.559C190.553 273.499 189.965 273.414 189.386 273.306L183.934 288.224C184.506 288.351 185.086 288.458 185.671 288.555L191.151 273.559Z" fill="black"/>
<path d="M170.269 247.055C170.185 246.372 170.12 245.67 170.059 244.965L157.084 256.462C157.22 257.101 157.362 257.728 157.514 258.351L170.269 247.055Z" fill="black"/>
</g>
<path d="M230.705 350.265L162.972 313.193V278.089L177.227 285.891L195.069 295.657V307.361L212.887 317.11V328.813L230.705 338.562V350.265Z" fill="#675446"/>
<path d="M177.255 285.905L252.086 244.949L269.904 254.698L195.069 295.657L177.255 285.905Z" fill="#4A392D"/>
<path d="M195.069 295.657V307.361L269.905 266.4L269.904 254.698L195.069 295.657Z" fill="#4A392D"/>
<path d="M195.073 307.358L269.904 266.401L287.722 276.15L212.887 317.11L195.073 307.358Z" fill="#4A392D"/>
<path d="M212.887 317.11V328.813L287.723 287.853L287.722 276.15L212.887 317.11Z" fill="#4A392D"/>
<path d="M212.891 328.81L287.723 287.854L305.541 297.603L230.705 338.562L212.891 328.81Z" fill="#4A392D"/>
<path d="M230.705 338.562V350.265L305.541 309.305V297.603L230.705 338.562Z" fill="#4A392D"/>
<path d="M252.138 175.365C250.647 208.573 229.355 248.02 204.589 263.464C195.386 269.203 187.008 270.825 180.174 268.878C173.121 262.824 169.155 251.222 169.875 235.304C171.375 202.096 192.667 162.648 217.424 147.204C226.636 141.458 235.031 139.844 241.866 141.799C248.901 147.861 252.857 159.455 252.138 175.365Z" fill="#B9AE96"/>
<path opacity="0.9" d="M252.138 175.365C250.647 208.573 229.355 248.02 204.589 263.464C195.386 269.203 187.008 270.825 180.174 268.878C173.121 262.824 169.155 251.222 169.875 235.304C171.375 202.096 192.667 162.648 217.424 147.204C226.636 141.458 235.031 139.844 241.866 141.799C248.901 147.861 252.857 159.455 252.138 175.365Z" fill="white"/>
<path opacity="0.1" d="M204.479 246.476C196.814 247.205 189.594 250.876 184.316 256.196C181.454 259.082 179.171 262.438 177.435 266.043C178.288 267.089 179.197 268.042 180.173 268.879C181.611 269.289 183.121 269.531 184.689 269.619C185.09 268.676 185.389 267.678 185.741 266.717C189.022 257.777 198.5 251.216 208.481 250.974C211.905 250.89 215.308 251.481 218.722 251.73C220.07 250.324 221.394 248.859 222.691 247.333C216.682 247.048 210.451 245.908 204.479 246.476ZM203.011 197.937C210.048 198.797 217.65 199.169 223.773 195.77C230.699 191.924 233.987 184.293 237.334 177.378C240.437 170.967 244.693 164.19 251.483 161.701C250.071 152.725 246.694 145.96 241.866 141.8C238.783 140.918 235.381 140.771 231.732 141.392C228.334 144.952 225.922 149.492 224.515 154.14C222.91 159.441 222.35 165.081 219.777 170.029C217.215 174.954 212.676 178.928 207.292 180.956C203.015 182.567 198.359 182.959 193.81 183.617C190.667 184.071 187.493 184.697 184.418 185.57C182.064 190.018 179.936 194.627 178.079 199.325C179.312 198.738 180.582 198.224 181.906 197.836C188.683 195.849 195.973 197.077 203.011 197.937ZM210.165 164.723C212.41 161.054 213.203 156.778 214.395 152.69C214.838 151.172 215.356 149.676 215.916 148.194C214.314 149.263 212.729 150.427 211.163 151.685C208.896 156.886 206.703 162.127 202.525 166.033C200.414 168.007 197.853 169.541 195.077 170.525C194.639 170.681 194.076 170.789 193.456 170.879C192.442 172.3 191.453 173.754 190.487 175.238C193.262 175.045 196.439 174.387 197.172 174.16C202.478 172.522 207.366 169.298 210.165 164.723ZM252.2 170.478C250.092 171.523 248.206 172.923 246.955 174.224C243.244 178.088 241.236 183.104 239.008 187.882C235.833 194.692 231.682 201.619 224.766 205.144C220.172 207.487 214.817 208.072 209.603 208.207C199.75 208.464 189.75 207.283 180.116 209.261C178.068 209.681 176.026 210.303 174.056 211.093C173.404 213.352 172.821 215.614 172.311 217.872C174.56 216.761 176.903 215.854 179.378 215.26C193.606 211.844 209.342 219.334 223.011 214.263C232.986 210.562 239.102 201.144 243.986 192.107C245.98 188.417 248.132 184.468 251.576 182.074C251.846 179.816 252.039 177.576 252.139 175.365C252.214 173.684 252.227 172.062 252.2 170.478ZM216.695 225.738C209.002 226.003 201.31 225.325 193.612 225.214C189.668 225.157 185.66 225.258 181.888 226.354C178.519 227.332 175.451 229.073 172.568 230.994C171.696 231.575 170.856 232.183 170.031 232.803C169.969 233.639 169.91 234.475 169.873 235.304C169.438 244.924 170.724 252.956 173.359 259.151C175.101 257.811 176.518 256.094 177.86 254.374C183.145 247.598 188.245 240.099 196.267 236.468C204.878 232.57 215.028 233.963 224.385 232.188C228.454 231.416 232.374 230.005 235.983 228.067C237.456 225.445 238.857 222.763 240.164 220.026C239.764 220.257 239.359 220.48 238.95 220.694C232.204 224.208 224.388 225.472 216.695 225.738Z" fill="#B9AE96"/>
<path d="M269.613 116.959C269.613 120.179 268.965 123.038 264.81 123.73C269.07 123.901 269.371 126.602 269.613 130.314C269.745 126.601 270.115 123.905 273.982 123.73C269.983 123.103 269.613 120.179 269.613 116.959Z" fill="#B9AE96"/>
<path d="M172.554 288.555C172.554 291.775 171.906 294.635 167.75 295.327C172.01 295.497 172.311 298.198 172.554 301.91C172.686 298.197 173.056 295.502 176.923 295.327C172.924 294.699 172.554 291.775 172.554 288.555Z" fill="#B9AE96"/>
<path d="M141.281 189.241C141.281 190.648 140.998 191.898 139.182 192.2C141.043 192.275 141.175 193.455 141.281 195.078C141.339 193.455 141.5 192.277 143.19 192.2C141.443 191.925 141.281 190.648 141.281 189.241Z" fill="#B9AE96"/>
<path d="M133.101 194.784C133.101 198.004 132.453 200.863 128.297 201.555C132.557 201.726 132.858 204.427 133.101 208.139C133.233 204.426 133.603 201.731 137.47 201.555C133.47 200.928 133.101 198.004 133.101 194.784Z" fill="#E0E0E0"/>
<path d="M129.202 178.633C129.202 180.286 128.869 181.754 126.736 182.11C128.923 182.197 129.078 183.584 129.202 185.49C129.27 183.584 129.46 182.2 131.445 182.11C129.392 181.788 129.202 180.286 129.202 178.633Z" fill="#E0E0E0"/>
<path d="M258.059 107.265C258.08 109.151 258.009 110.966 255.136 111.39C258.172 111.351 257.942 113.166 258.091 115.437C258.172 113.165 258.383 111.535 260.749 111.428C258.301 111.044 258.365 109.968 258.059 107.265Z" fill="#E0E0E0"/>
<path d="M283.016 195.001C282.811 198.558 282.511 200.098 279.118 200.526C282.575 200.704 282.86 202.868 283.058 205.898C283.166 202.868 283.447 200.669 286.602 200.526C283.339 200.014 283.26 198.605 283.016 195.001Z" fill="#E0E0E0"/>
<path d="M158.773 288.583C158.654 290.654 158.479 291.551 156.503 291.8C158.516 291.903 158.681 293.163 158.797 294.928C158.86 293.163 159.023 291.883 160.86 291.8C158.961 291.501 158.915 290.681 158.773 288.583Z" fill="#E0E0E0"/>
<path d="M275.917 113.658C275.93 114.799 275.887 115.898 274.147 116.154C275.984 116.13 275.846 117.229 275.935 118.603C275.984 117.228 276.112 116.241 277.544 116.176C276.064 115.944 276.103 115.294 275.917 113.658Z" fill="#E0E0E0"/>
<path d="M279.686 205.336C279.699 206.477 279.656 207.576 277.916 207.832C279.754 207.808 279.615 208.907 279.705 210.282C279.754 208.906 279.881 207.919 281.314 207.855C279.832 207.622 279.871 206.971 279.686 205.336Z" fill="#E0E0E0"/>
<path d="M168.024 284.055C168.037 285.196 167.994 286.295 166.254 286.551C168.091 286.527 167.953 287.626 168.042 289.001C168.091 287.625 168.218 286.638 169.651 286.574C168.17 286.342 168.21 285.691 168.024 284.055Z" fill="#E0E0E0"/>
<path d="M205.451 363.081L180.423 349.383L164.987 357.831L137.48 342.776L114.663 355.265L142.169 370.32L83.4719 402.447L101.843 412.501L250.027 450.213L274.557 436.787L135.7 401.258L167.197 384.019L214.73 410.035L237.547 397.546L190.015 371.53L205.451 363.081Z" fill="#675446"/>
<path d="M138.66 269.018L137.478 269.664V233.236L123.224 225.434L105.584 235.09L120.135 183.23L105.881 175.429L81.352 188.855L41.709 329.368V349.477L55.963 357.278L100.406 332.954V347.461L114.66 355.262L137.478 342.773V312.663L152.914 304.214V276.817L138.66 269.018ZM100.407 289.954L88.336 296.561L100.407 253.541V289.954Z" fill="#B9AE96"/>
<path opacity="0.3" d="M138.66 269.018L137.478 269.664V233.236L123.224 225.434L105.584 235.09L120.135 183.23L105.881 175.429L81.352 188.855L41.709 329.368V349.477L55.963 357.278L100.406 332.954V347.461L114.66 355.262L137.478 342.773V312.663L152.914 304.214V276.817L138.66 269.018ZM100.407 289.954L88.336 296.561L100.407 253.541V289.954Z" fill="black"/>
<path d="M137.478 285.267V233.236L114.661 245.724V297.756L83.1629 314.995L120.134 183.23L95.6049 196.656L55.9639 337.169V357.279L114.661 325.153V355.263L137.478 342.775V312.664L152.914 304.215V276.819L137.478 285.267Z" fill="#B9AE96"/>
<path opacity="0.3" d="M137.478 285.267V233.236L114.661 245.724V297.756L83.1629 314.995L120.134 183.23L95.6049 196.656L55.9639 337.169V357.279L114.661 325.153V355.263L137.478 342.775V312.664L152.914 304.215V276.819L137.478 285.267Z" fill="white"/>
<path d="M120.134 183.23L105.88 175.428L81.3511 188.854L95.6051 196.656L120.134 183.23Z" fill="#B9AE96"/>
<path opacity="0.5" d="M120.134 183.23L105.88 175.428L81.3511 188.854L95.6051 196.656L120.134 183.23Z" fill="white"/>
<path d="M123.224 225.434L137.478 233.235L114.661 245.724L104.205 240.002L105.584 235.089L123.224 225.434Z" fill="#B9AE96"/>
<path opacity="0.5" d="M123.224 225.434L137.478 233.235L114.661 245.724L104.205 240.002L105.584 235.089L123.224 225.434Z" fill="white"/>
<path d="M114.661 297.756L100.407 289.954L88.3361 296.561L83.1631 314.995L114.661 297.756Z" fill="#B9AE96"/>
<path opacity="0.5" d="M114.661 297.756L100.407 289.954L88.3361 296.561L83.1631 314.995L114.661 297.756Z" fill="white"/>
<path d="M152.914 276.819L138.66 269.018L137.478 269.664V285.267L152.914 276.819Z" fill="#B9AE96"/>
<path opacity="0.5" d="M137.478 285.267L152.914 276.819L138.66 269.018L137.478 269.664V285.267Z" fill="white"/>
<path d="M55.964 337.169L41.709 329.368L81.351 188.854L95.605 196.656L55.964 337.169Z" fill="#B9AE96"/>
<path opacity="0.15" d="M55.964 337.169L41.709 329.368L81.351 188.854L95.605 196.656L55.964 337.169Z" fill="black"/>
<path d="M367.246 274.526L398.743 257.286L446.276 283.302L469.093 270.813L421.56 244.797L436.996 236.349L411.968 222.65L396.532 231.099L369.025 216.044L346.207 228.532L373.714 243.588L315.017 275.714L333.387 285.769L481.572 323.48L484.45 321.905C485.858 316.514 487.031 311.028 487.959 305.412L367.246 274.526Z" fill="#675446"/>
<path d="M370.207 142.285L369.025 142.932V106.503L354.771 98.702L337.131 108.357L351.682 56.498L337.428 48.6969L312.898 62.1224L273.256 202.637V222.746L287.51 230.547L331.953 206.222V220.729L346.207 228.531L369.025 216.042V185.931L384.461 177.483V150.085L370.207 142.285ZM331.954 163.223L319.883 169.829L331.954 126.808V163.223Z" fill="#B9AE96"/>
<path opacity="0.3" d="M370.207 142.285L369.025 142.932V106.503L354.771 98.702L337.131 108.357L351.682 56.498L337.428 48.6969L312.898 62.1224L273.256 202.637V222.746L287.51 230.547L331.953 206.222V220.729L346.207 228.531L369.025 216.042V185.931L384.461 177.483V150.085L370.207 142.285ZM331.954 163.223L319.883 169.829L331.954 126.808V163.223Z" fill="black"/>
<path d="M369.025 158.535V106.503L346.208 118.992V171.024L314.711 188.263L351.682 56.498L327.152 69.9235L287.511 210.438V230.547L346.208 198.421V228.532L369.025 216.043V185.932L384.461 177.484V150.086L369.025 158.535Z" fill="#B9AE96"/>
<path opacity="0.3" d="M369.025 158.535V106.503L346.208 118.992V171.024L314.711 188.263L351.682 56.498L327.152 69.9235L287.511 210.438V230.547L346.208 198.421V228.532L369.025 216.043V185.932L384.461 177.484V150.086L369.025 158.535Z" fill="white"/>
<path d="M351.682 56.498L337.427 48.6969L312.898 62.1224L327.152 69.9235L351.682 56.498Z" fill="#B9AE96"/>
<path opacity="0.5" d="M351.682 56.498L337.427 48.6969L312.898 62.1224L327.152 69.9235L351.682 56.498Z" fill="white"/>
<path d="M354.771 98.702L369.025 106.503L346.208 118.992L335.752 113.27L337.131 108.357L354.771 98.702Z" fill="#B9AE96"/>
<path opacity="0.5" d="M354.771 98.702L369.025 106.503L346.208 118.992L335.752 113.27L337.131 108.357L354.771 98.702Z" fill="white"/>
<path d="M346.208 171.024L331.954 163.223L319.883 169.829L314.711 188.263L346.208 171.024Z" fill="#B9AE96"/>
<path opacity="0.5" d="M346.208 171.024L331.954 163.223L319.883 169.829L314.711 188.263L346.208 171.024Z" fill="white"/>
<path d="M384.461 150.086L370.207 142.285L369.025 142.933V158.535L384.461 150.086Z" fill="#B9AE96"/>
<path opacity="0.5" d="M369.025 158.535L384.461 150.086L370.207 142.285L369.025 142.933V158.535Z" fill="white"/>
<path d="M287.511 210.438L273.257 202.637L312.898 62.1224L327.152 69.9235L287.511 210.438Z" fill="#B9AE96"/>
<path opacity="0.15" d="M287.511 210.438L273.257 202.637L312.898 62.1224L327.152 69.9235L287.511 210.438Z" fill="black"/>
<path d="M153.367 107.558C153.952 104.963 142.781 111.076 142.196 113.673L145.796 122.858C145.934 123.158 146.148 123.379 146.399 123.526C147.19 123.988 150.1 125.544 150.353 125.691C151.15 126.153 152.322 125.863 152.654 124.88L157.317 109.721C157.606 108.439 153.367 107.558 153.367 107.558Z" fill="#B9AE96"/>
<path opacity="0.25" d="M153.367 107.558C153.952 104.963 142.781 111.076 142.196 113.673L145.796 122.858C145.934 123.158 146.148 123.379 146.399 123.526C147.19 123.988 150.1 125.544 150.353 125.691C151.15 126.153 152.322 125.863 152.654 124.88L157.317 109.721C157.606 108.439 153.367 107.558 153.367 107.558Z" fill="black"/>
<path d="M191.352 56.8383L98.155 107.811C97.327 108.264 96.655 109.366 96.655 110.272V139.103C96.655 140.009 97.328 141.109 98.157 141.559L99.093 142.066C99.923 142.517 101.267 142.514 102.095 142.061L195.293 91.0308C196.121 90.5776 196.792 89.4751 196.792 88.5688V59.797C196.792 58.8907 196.119 57.791 195.289 57.3407L194.353 56.8336C193.524 56.3833 192.18 56.3852 191.352 56.8383Z" fill="#B9AE96"/>
<path opacity="0.25" d="M191.352 56.8383L98.155 107.811C97.327 108.264 96.655 109.366 96.655 110.272V139.103C96.655 140.009 97.328 141.109 98.157 141.559L99.093 142.066C99.923 142.517 101.267 142.514 102.095 142.061L195.293 91.0308C196.121 90.5776 196.792 89.4751 196.792 88.5688V59.797C196.792 58.8907 196.119 57.791 195.289 57.3407L194.353 56.8336C193.524 56.3833 192.18 56.3852 191.352 56.8383Z" fill="black"/>
<path d="M196.793 59.7979V60.3563C196.793 59.3495 195.639 58.721 194.716 59.2244L102.658 109.641C102.017 109.986 101.504 110.484 101.152 111.069C101.14 111.085 101.135 111.096 101.129 111.112L97.0781 108.897C97.3551 108.443 97.7301 108.044 98.1571 107.813L191.352 56.8383C192.183 56.3842 193.527 56.3842 194.352 56.8326L195.287 57.3417C196.118 57.7901 196.793 58.8898 196.793 59.7979Z" fill="#B9AE96"/>
<path opacity="0.45" d="M196.793 59.7979V60.3563C196.793 59.3495 195.639 58.721 194.716 59.2244L102.658 109.641C102.017 109.986 101.504 110.484 101.152 111.069C101.14 111.085 101.135 111.096 101.129 111.112L97.0781 108.897C97.3551 108.443 97.7301 108.044 98.1571 107.813L191.352 56.8383C192.183 56.3842 193.527 56.3842 194.352 56.8326L195.287 57.3417C196.118 57.7901 196.793 58.8898 196.793 59.7979Z" fill="white"/>
<path d="M195.407 59.5572C195.261 59.5572 195.12 59.5941 194.988 59.6662L102.928 110.082C101.823 110.688 101.135 111.815 101.135 113.026V140.603C101.135 140.871 101.194 141.494 101.743 141.494C101.933 141.494 102.159 141.425 102.397 141.295L147.115 116.807L150.101 124.656C150.675 125.903 152.572 125.812 153.009 124.517L157.052 111.365L194.451 90.898C195.696 90.2193 196.252 89.5329 196.252 88.6712V60.3573C196.252 59.8634 195.814 59.5572 195.407 59.5572Z" fill="#675446"/>
<path d="M101.744 142.001C101.05 142.001 100.601 141.452 100.601 140.603V113.026C100.601 111.636 101.391 110.339 102.661 109.643L194.72 59.2273C194.936 59.1097 195.167 59.05 195.407 59.05C196.071 59.05 196.787 59.5505 196.787 60.3582V88.6702C196.787 90.0496 195.606 90.8535 194.718 91.337L157.506 111.702L153.524 124.658C153.252 125.465 152.511 126.004 151.634 126.047C150.761 126.087 149.963 125.623 149.611 124.859L146.829 117.55L102.666 141.735C102.34 141.911 102.031 142.001 101.744 142.001ZM195.407 60.0653C195.356 60.0653 195.306 60.0786 195.255 60.107L103.197 110.522C102.256 111.036 101.672 111.997 101.672 113.026V140.603C101.672 140.837 101.729 140.972 101.754 140.998C101.778 140.987 101.908 140.977 102.13 140.855L147.401 116.064L150.604 124.484C150.799 124.906 151.24 125.046 151.579 125.033C151.92 125.016 152.341 124.831 152.5 124.361L156.598 111.027L156.785 110.925L194.184 90.4572C195.534 89.7216 195.717 89.1405 195.717 88.6702V60.3573C195.716 60.1383 195.504 60.0653 195.407 60.0653Z" fill="#B9AE96"/>
<path opacity="0.3" d="M109.738 130.837C109.146 130.837 108.454 130.444 108.454 129.334V115.577C108.454 114.672 108.865 113.948 109.612 113.539L109.952 113.352C110.235 113.199 110.515 113.122 110.789 113.122C111.008 113.122 111.75 113.189 112.1 114.05L113.803 118.079V112.651C113.803 111.746 114.214 111.021 114.96 110.613L115.151 110.508C115.432 110.354 115.7 110.278 115.968 110.278C116.454 110.278 117.007 110.544 117.193 111.256C117.265 111.007 117.368 110.76 117.499 110.512L118.049 109.514C118.36 108.951 118.765 108.531 119.25 108.264L122.557 106.455C122.869 106.284 123.183 106.197 123.491 106.197C123.849 106.197 124.188 106.313 124.471 106.533L124.493 106.55C124.585 105.5 125.237 104.986 125.638 104.767L131.021 101.823C131.305 101.666 131.574 101.591 131.841 101.591C132.436 101.591 133.13 101.99 133.13 103.113V103.35C133.13 104.227 132.719 104.934 131.973 105.343L130.746 106.014C130.67 106.057 130.541 106.128 130.541 106.489V118.265C130.541 119.169 130.131 119.893 129.387 120.302L129.196 120.406C128.912 120.562 128.645 120.638 128.377 120.638C127.754 120.638 127.089 120.238 127.089 119.114C127.089 119.114 127.088 110.657 127.087 108.02L126.591 108.291C126.303 108.448 126.031 108.526 125.761 108.526C125.742 108.526 125.724 108.526 125.705 108.525V119.601C125.705 120.157 125.555 120.719 125.262 121.27L124.712 122.269C124.401 122.832 123.996 123.252 123.51 123.52L120.222 125.318C119.902 125.493 119.581 125.583 119.268 125.583C118.931 125.583 118.609 125.478 118.337 125.283L117.776 124.882C117.598 124.753 117.401 124.557 117.258 124.262V125.56C117.258 126.451 116.847 127.166 116.1 127.575L115.91 127.679C115.626 127.835 115.35 127.913 115.068 127.913C114.852 127.913 114.121 127.847 113.77 127.013L111.91 122.652V128.487C111.91 129.376 111.5 130.092 110.755 130.503L110.565 130.606C110.279 130.76 110.007 130.837 109.738 130.837ZM120.714 111.505C120.638 111.547 120.51 111.618 120.51 111.959C120.51 111.959 120.511 118.776 120.511 121.116L122.046 120.277C122.123 120.234 122.251 120.164 122.251 119.823C122.251 119.823 122.25 113.005 122.25 110.665L120.714 111.505ZM136.257 116.323C135.665 116.323 134.974 115.93 134.974 114.82V101.084C134.974 100.192 135.386 99.4755 136.134 99.0679L141.497 96.1329C141.784 95.9755 142.054 95.8997 142.321 95.8997C142.751 95.8997 143.235 96.1073 143.466 96.6467C143.526 96.4922 143.595 96.3396 143.677 96.186L144.227 95.1868C144.54 94.6227 144.943 94.2028 145.428 93.9364L148.735 92.1285C149.044 91.9579 149.36 91.8707 149.67 91.8707C150.027 91.8707 150.365 91.9873 150.649 92.2053L151.165 92.576C151.343 92.7049 151.541 92.9012 151.683 93.195V91.8953C151.683 91.0042 152.094 90.2894 152.841 89.8799L153.032 89.7756C153.315 89.6211 153.584 89.5443 153.854 89.5443C154.446 89.5443 155.138 89.9377 155.138 91.0478C155.138 91.0478 155.139 99.5229 155.14 102.165L156.675 101.325C156.752 101.282 156.88 101.212 156.88 100.851V89.0523C156.88 88.1621 157.291 87.4464 158.037 87.0368L158.229 86.9316C158.51 86.7771 158.779 86.7012 159.05 86.7012C159.445 86.7012 159.884 86.8766 160.133 87.3222V87.2928C160.133 86.0708 160.858 85.4925 161.29 85.2555L161.628 85.0697C161.916 84.9133 162.189 84.8375 162.466 84.8375C162.747 84.8375 163.437 84.9285 163.777 85.7656L165.481 89.7955V84.3663C165.481 83.4619 165.892 82.7377 166.638 82.3291L166.825 82.2267C167.109 82.0703 167.378 81.9944 167.645 81.9944C168.042 81.9944 168.483 82.1726 168.733 82.6258V82.6078C168.733 81.7157 169.144 81 169.89 80.5914L174.233 78.2147C174.544 78.0441 174.858 77.9578 175.168 77.9578C175.527 77.9578 175.865 78.0744 176.148 78.2934L176.662 78.6613C176.992 78.8983 177.382 79.3656 177.382 80.2511V91.3161C177.382 91.8726 177.232 92.4347 176.939 92.9865L176.388 93.9857C176.074 94.5516 175.67 94.9725 175.184 95.237L170.843 97.6127C170.555 97.7701 170.284 97.8469 170.018 97.8469C169.623 97.8469 169.184 97.6715 168.935 97.2259V97.2752C168.935 98.1673 168.524 98.883 167.778 99.2916L167.591 99.3931C167.306 99.5504 167.029 99.6282 166.746 99.6282C166.53 99.6282 165.798 99.5637 165.448 98.7314L163.587 94.3687V100.203C163.587 101.095 163.176 101.81 162.43 102.219L162.245 102.32C161.953 102.479 161.684 102.556 161.417 102.556C160.928 102.556 160.372 102.287 160.193 101.571C160.12 101.814 160.019 102.056 159.891 102.298L159.341 103.296C159.035 103.87 158.629 104.3 158.138 104.568L154.85 106.368C154.538 106.539 154.224 106.625 153.916 106.625C153.557 106.625 153.218 106.508 152.935 106.287L152.405 105.909C152.226 105.779 152.029 105.582 151.886 105.287C151.883 105.839 151.734 106.396 151.443 106.943L150.893 107.94C150.583 108.502 150.179 108.923 149.691 109.192L146.403 110.99C146.084 111.165 145.764 111.254 145.449 111.254C145.112 111.254 144.789 111.151 144.518 110.956L143.956 110.552C143.629 110.319 143.239 109.853 143.239 108.965V106.286C143.047 106.575 142.783 106.816 142.453 106.996L138.638 109.084C138.551 109.131 138.433 109.197 138.433 109.538V113.972C138.433 114.863 138.022 115.579 137.276 115.989L137.087 116.091C136.796 116.247 136.526 116.323 136.257 116.323ZM146.893 97.1766C146.807 97.224 146.689 97.2904 146.689 97.6307C146.689 97.6307 146.69 104.448 146.69 106.789L148.225 105.949C148.301 105.907 148.429 105.837 148.429 105.496C148.429 105.496 148.428 98.6783 148.428 96.3377L146.893 97.1766ZM143.235 98.9437C143.043 99.2329 142.779 99.4737 142.449 99.6538L138.634 101.741C138.553 101.786 138.429 101.855 138.429 102.194C138.429 102.194 138.429 104.058 138.43 105.152L141.498 103.473C141.785 103.316 142.055 103.24 142.322 103.24C142.638 103.24 142.983 103.352 143.236 103.626L143.235 98.9437ZM172.391 83.2647C172.304 83.3112 172.186 83.3776 172.186 83.7179C172.186 83.7179 172.187 90.4999 172.187 92.8329L173.722 91.993C173.798 91.9513 173.927 91.8802 173.927 91.5398C173.927 91.5398 173.926 84.7578 173.926 82.4248L172.391 83.2647ZM186.676 90.6383C186.386 90.6373 185.676 90.5388 185.342 89.6495L184.398 87.3317C184.281 87.0634 184.19 86.7022 184.123 86.2396L183.541 81.9195C183.511 81.5631 183.5 81.3678 183.5 81.2853C183.5 81.1735 183.511 80.964 183.537 80.6577L184.119 75.6627C184.181 75.1669 184.266 74.7384 184.37 74.3848L185.32 71.0099C185.538 70.2724 185.95 69.7349 186.548 69.4078L186.89 69.2201C187.18 69.0609 187.451 68.9831 187.717 68.9831H187.781L187.932 68.9992L188.104 69.0438C188.38 69.1443 188.912 69.4287 188.912 70.2354C188.912 70.4611 188.878 70.6933 188.809 70.9256L187.837 74.1308C187.739 74.4569 187.67 74.7982 187.63 75.1442L187.119 79.8965C187.102 80.1117 187.091 80.2738 187.091 80.361C187.091 80.4473 187.102 80.5942 187.121 80.8037L187.63 84.9541C187.663 85.2119 187.719 85.4338 187.798 85.6073L188.767 87.745C188.865 87.9659 188.913 88.2095 188.913 88.4721C188.913 88.8115 188.823 89.1414 188.645 89.4504C188.459 89.7737 188.19 90.0335 187.845 90.224L187.499 90.4127C187.227 90.5625 186.951 90.6392 186.679 90.6392L186.676 90.6383ZM181.348 88.3479C180.761 88.3479 180.076 87.9649 180.076 86.8833V85.9144C180.076 84.6754 180.799 84.0933 181.23 83.8563L181.593 83.6591C181.876 83.5055 182.141 83.4306 182.406 83.4306C183.032 83.4306 183.7 83.8364 183.7 84.973V85.9419C183.7 86.8046 183.289 87.5051 182.543 87.9137L182.183 88.1109C181.892 88.2702 181.619 88.3479 181.348 88.3479ZM181.348 80.4463C180.761 80.4463 180.076 80.0634 180.076 78.9817V78.0128C180.076 76.7747 180.799 76.1927 181.23 75.9557L181.593 75.7585C181.873 75.6049 182.139 75.53 182.406 75.53C183.032 75.53 183.7 75.9348 183.7 77.0724V78.0413C183.7 78.9058 183.288 79.6064 182.541 80.0141L182.182 80.2093C181.892 80.3686 181.619 80.4463 181.348 80.4463Z" fill="#B9AE96"/>
<path opacity="0.3" d="M109.738 130.386C109.548 130.386 108.93 130.31 108.93 129.334V115.577C108.93 114.632 109.43 114.16 109.85 113.93L110.19 113.744C110.397 113.631 110.599 113.573 110.789 113.573C110.971 113.573 111.422 113.636 111.656 114.212L114.271 120.399C114.277 120.346 114.279 120.289 114.279 120.229V112.652C114.279 111.707 114.779 111.234 115.198 111.004L115.387 110.902C115.595 110.787 115.786 110.731 115.968 110.731C116.159 110.731 116.781 110.809 116.781 111.802V125.56C116.781 126.486 116.281 126.954 115.861 127.185L115.672 127.287C115.46 127.405 115.261 127.461 115.066 127.461C114.887 127.461 114.443 127.402 114.21 126.846L111.442 120.357C111.435 120.415 111.432 120.478 111.432 120.543V128.487C111.432 129.412 110.933 129.881 110.514 130.112L110.326 130.214C110.113 130.33 109.921 130.386 109.738 130.386ZM119.267 125.13C119.035 125.13 118.812 125.058 118.623 124.923L118.061 124.521C117.71 124.268 117.532 123.854 117.532 123.291V112.183C117.532 111.697 117.664 111.203 117.923 110.716L118.471 109.723C118.74 109.238 119.082 108.879 119.489 108.655L122.795 106.846C123.033 106.716 123.267 106.649 123.491 106.649C123.737 106.649 123.972 106.731 124.169 106.883L124.699 107.264C125.05 107.516 125.229 107.929 125.229 108.492V119.601C125.229 120.086 125.097 120.58 124.837 121.067L124.29 122.061C124.02 122.548 123.677 122.906 123.271 123.129L119.984 124.927C119.737 125.062 119.497 125.13 119.267 125.13ZM120.477 111.115C120.287 111.219 120.035 111.42 120.035 111.959C120.035 111.959 120.036 121.874 120.037 121.898L122.284 120.667C122.475 120.563 122.727 120.362 122.727 119.824C122.727 119.824 122.726 109.907 122.725 109.885L120.477 111.115ZM128.377 120.186C128.133 120.186 127.565 120.081 127.565 119.113C127.565 119.113 127.564 107.266 127.562 107.238L126.353 107.899C126.138 108.017 125.945 108.074 125.761 108.074C125.573 108.074 124.959 107.999 124.959 107.042V106.805C124.959 105.86 125.458 105.388 125.877 105.159L131.26 102.213C131.47 102.098 131.661 102.042 131.842 102.042C132.033 102.042 132.655 102.12 132.655 103.113V103.35C132.655 104.069 132.337 104.623 131.736 104.953L130.509 105.624C130.318 105.729 130.066 105.931 130.066 106.49V118.266C130.066 119.21 129.567 119.683 129.149 119.913L128.959 120.016C128.749 120.13 128.558 120.186 128.377 120.186ZM136.257 115.872C136.067 115.872 135.449 115.796 135.449 114.82V101.084C135.449 100.155 135.95 99.6879 136.37 99.4585L141.734 96.5225C141.947 96.4059 142.138 96.35 142.321 96.35C142.511 96.35 143.13 96.4258 143.13 97.4023V97.6383C143.13 98.5655 142.63 99.0338 142.211 99.2632L138.396 101.352C138.206 101.457 137.953 101.657 137.953 102.194C137.953 102.194 137.954 105.91 137.955 105.933L141.736 103.865C141.949 103.748 142.14 103.692 142.323 103.692C142.513 103.692 143.132 103.768 143.132 104.745V104.981C143.132 105.908 142.632 106.376 142.213 106.605L138.398 108.694C138.192 108.808 137.955 109.005 137.955 109.538V113.972C137.955 114.9 137.455 115.368 137.036 115.598L136.849 115.7C136.632 115.815 136.44 115.872 136.257 115.872ZM145.446 110.802C145.213 110.802 144.991 110.731 144.802 110.596L144.24 110.192C143.89 109.941 143.711 109.528 143.711 108.964V97.8554C143.711 97.37 143.843 96.8761 144.102 96.3888L144.649 95.3953C144.919 94.9081 145.261 94.5497 145.667 94.326L148.973 92.5182C149.211 92.3873 149.445 92.321 149.67 92.321C149.916 92.321 150.151 92.4025 150.348 92.5542L150.878 92.9343C151.229 93.1874 151.408 93.5998 151.408 94.162V105.271C151.408 105.755 151.276 106.25 151.016 106.738L150.469 107.731C150.202 108.216 149.859 108.576 149.451 108.8L146.163 110.598C145.916 110.733 145.674 110.802 145.446 110.802ZM146.655 96.7861C146.45 96.8998 146.213 97.0979 146.213 97.6298C146.213 97.6298 146.214 107.545 146.215 107.569L148.463 106.338C148.653 106.234 148.905 106.033 148.905 105.494C148.905 105.494 148.904 95.5783 148.903 95.5546L146.655 96.7861ZM153.913 106.172C153.665 106.172 153.431 106.091 153.235 105.937L152.689 105.547C152.338 105.292 152.159 104.88 152.159 104.317V91.8953C152.159 90.9691 152.659 90.5008 153.079 90.2705L153.268 90.1681C153.479 90.0515 153.671 89.9955 153.853 89.9955C154.043 89.9955 154.661 90.0714 154.661 91.0478C154.661 91.0478 154.662 102.918 154.664 102.945L156.911 101.715C157.101 101.61 157.354 101.409 157.354 100.85V89.0523C157.354 88.1261 157.854 87.6578 158.273 87.4274L158.464 87.3241C158.673 87.2084 158.866 87.1525 159.049 87.1525C159.239 87.1525 159.857 87.2283 159.857 88.2048V100.627C159.857 101.111 159.725 101.604 159.465 102.093L158.918 103.086C158.652 103.585 158.308 103.954 157.899 104.178L154.611 105.977C154.371 106.106 154.137 106.172 153.913 106.172ZM161.415 102.102C161.225 102.102 160.607 102.027 160.607 101.05V87.2928C160.607 86.3486 161.107 85.8755 161.526 85.6471L161.865 85.4603C162.077 85.3446 162.272 85.2887 162.465 85.2887C162.692 85.2887 163.106 85.3712 163.332 85.9277L165.948 92.1143C165.954 92.065 165.956 92.0091 165.956 91.9446V84.3673C165.956 83.4231 166.456 82.95 166.875 82.7206L167.062 82.6182C167.272 82.5025 167.463 82.4466 167.644 82.4466C167.835 82.4466 168.457 82.5243 168.457 83.5188V97.2752C168.457 98.2024 167.957 98.6707 167.538 98.9001L167.351 99.0025C167.137 99.121 166.938 99.1769 166.744 99.1769H166.743C166.564 99.1769 166.12 99.1172 165.887 98.5636L163.119 92.0726C163.112 92.1304 163.109 92.193 163.109 92.2584V100.203C163.109 101.13 162.609 101.598 162.19 101.828L162.003 101.931C161.789 102.046 161.598 102.102 161.415 102.102ZM170.016 97.3956C169.826 97.3956 169.208 97.3198 169.208 96.3433V82.6078C169.208 81.6806 169.708 81.2123 170.127 80.9829L174.47 78.6053C174.71 78.4745 174.944 78.4091 175.167 78.4091C175.413 78.4091 175.647 78.4897 175.845 78.6423L176.375 79.0215C176.727 79.2756 176.906 79.6889 176.906 80.251V91.3161C176.906 91.8005 176.774 92.2954 176.514 92.7836L175.966 93.7771C175.695 94.2653 175.352 94.6246 174.946 94.8455L170.604 97.2221C170.39 97.3378 170.199 97.3956 170.016 97.3956ZM172.153 82.8732C171.947 82.987 171.71 83.1851 171.71 83.7169C171.71 83.7169 171.711 93.5894 171.712 93.6122L173.96 92.3826C174.151 92.2774 174.403 92.0773 174.403 91.5389C174.403 91.5389 174.402 81.6664 174.401 81.6437L172.153 82.8732ZM186.678 90.187C186.443 90.1861 186.015 90.097 185.791 89.4988L184.842 87.1695C184.738 86.9306 184.655 86.6026 184.594 86.1779L184.013 81.8617C183.987 81.547 183.976 81.363 183.976 81.2844C183.976 81.1791 183.987 80.981 184.011 80.6928L184.592 75.7111C184.651 75.2437 184.73 74.8389 184.828 74.5062L185.78 71.1256C185.962 70.5084 186.301 70.0638 186.786 69.7974L187.128 69.6107C187.343 69.4931 187.536 69.4334 187.717 69.4334H187.805L187.977 69.478C188.15 69.5424 188.435 69.7235 188.435 70.2345C188.435 70.4193 188.406 70.6108 188.349 70.8033L187.378 74.0056C187.273 74.3554 187.198 74.7223 187.155 75.0949L186.644 79.85C186.624 80.0937 186.613 80.2672 186.613 80.3601C186.613 80.453 186.624 80.6141 186.645 80.8407L187.155 85.0043C187.194 85.3077 187.263 85.5703 187.358 85.7826L188.327 87.9213C188.399 88.0844 188.434 88.2673 188.434 88.4702C188.434 88.7337 188.363 88.9897 188.224 89.2333C188.081 89.4817 187.872 89.6836 187.603 89.8315L187.259 90.0192C187.061 90.1301 186.864 90.187 186.678 90.187ZM181.348 87.8967C181.161 87.8967 180.551 87.8237 180.551 86.8833V85.9144C180.551 84.9531 181.05 84.4763 181.468 84.2469L181.829 84.0506C182.036 83.9378 182.225 83.8819 182.405 83.8819C182.651 83.8819 183.223 83.989 183.223 84.973V85.9419C183.223 86.6472 182.905 87.1942 182.304 87.5231L181.944 87.7194C181.728 87.8388 181.533 87.8967 181.348 87.8967ZM181.348 79.9951C181.161 79.9951 180.551 79.9221 180.551 78.9817V78.0128C180.551 77.0515 181.05 76.5756 181.468 76.3462L181.829 76.15C182.036 76.0362 182.225 75.9822 182.405 75.9822C182.651 75.9822 183.223 76.0884 183.223 77.0733V78.0422C183.223 78.7475 182.905 79.2955 182.303 79.6235L181.944 79.8188C181.728 79.9373 181.533 79.9951 181.348 79.9951Z" fill="#B9AE96"/>
<path d="M110.275 129.721L110.088 129.823C109.633 130.071 109.406 129.909 109.406 129.335V115.577C109.406 114.989 109.633 114.57 110.088 114.321L110.428 114.135C110.803 113.931 111.064 114.01 111.211 114.374L113.953 120.861C114.01 120.988 114.081 121.073 114.166 121.117C114.251 121.161 114.333 121.161 114.413 121.117C114.516 121.061 114.598 120.957 114.66 120.804C114.722 120.651 114.754 120.459 114.754 120.229V112.651C114.754 112.062 114.981 111.644 115.435 111.395L115.622 111.293C116.076 111.045 116.304 111.215 116.304 111.802V125.56C116.304 126.133 116.076 126.545 115.622 126.794L115.435 126.896C115.06 127.102 114.799 127.03 114.651 126.679L111.755 119.89C111.641 119.599 111.494 119.503 111.313 119.602C111.21 119.657 111.125 119.772 111.057 119.942C110.989 120.113 110.954 120.314 110.954 120.542V128.486C110.956 129.061 110.729 129.471 110.275 129.721Z" fill="#B9AE96"/>
<path d="M124.412 120.863L123.867 121.851C123.639 122.263 123.361 122.557 123.032 122.739L119.744 124.538C119.414 124.718 119.136 124.726 118.909 124.564L118.347 124.161C118.12 123.998 118.006 123.709 118.006 123.292V112.183C118.006 111.767 118.12 111.346 118.347 110.92L118.892 109.933C119.119 109.521 119.397 109.226 119.726 109.046L123.031 107.237C123.36 107.057 123.638 107.056 123.866 107.232L124.411 107.624C124.638 107.787 124.752 108.076 124.752 108.492V119.601C124.753 120.017 124.639 120.438 124.412 120.863ZM123.203 119.824V109.964C123.203 109.391 122.976 109.228 122.522 109.476L120.24 110.725C119.785 110.974 119.559 111.385 119.559 111.959V121.819C119.559 122.393 119.786 122.557 120.24 122.307L122.522 121.059C122.975 120.81 123.203 120.399 123.203 119.824Z" fill="#B9AE96"/>
<path d="M126.115 105.549L131.498 102.604C131.952 102.356 132.179 102.526 132.179 103.114V103.351C132.179 103.91 131.952 104.315 131.498 104.563L130.271 105.236C129.817 105.484 129.59 105.903 129.59 106.491V118.267C129.59 118.856 129.363 119.275 128.909 119.523L128.721 119.625C128.266 119.874 128.04 119.704 128.04 119.115V107.339C128.04 106.75 127.813 106.581 127.359 106.829L126.115 107.51C125.661 107.759 125.434 107.603 125.434 107.043V106.806C125.434 106.217 125.661 105.798 126.115 105.549Z" fill="#B9AE96"/>
<path d="M136.607 99.85L141.972 96.9131C142.426 96.6647 142.653 96.8268 142.653 97.4013V97.6383C142.653 98.2128 142.426 98.6242 141.972 98.8726L138.157 100.96C137.702 101.209 137.476 101.62 137.476 102.194V105.854C137.476 106.428 137.703 106.591 138.157 106.342L141.972 104.253C142.426 104.005 142.653 104.168 142.653 104.742V104.978C142.653 105.552 142.426 105.964 141.972 106.212L138.157 108.3C137.702 108.55 137.476 108.961 137.476 109.535V113.969C137.476 114.544 137.249 114.955 136.795 115.204L136.608 115.306C136.153 115.555 135.926 115.392 135.926 114.818V101.082C135.926 100.51 136.153 100.098 136.607 99.85Z" fill="#B9AE96"/>
<path d="M150.59 106.535L150.045 107.522C149.818 107.934 149.539 108.229 149.211 108.409L145.923 110.208C145.594 110.388 145.315 110.397 145.089 110.234L144.527 109.831C144.3 109.669 144.186 109.38 144.186 108.963V97.8544C144.186 97.4373 144.3 97.0174 144.527 96.5908L145.072 95.6039C145.299 95.1925 145.577 94.8967 145.906 94.7166L149.211 92.9087C149.54 92.7286 149.818 92.7277 150.045 92.904L150.59 93.2946C150.817 93.4576 150.931 93.7477 150.931 94.1629V105.272C150.931 105.688 150.817 106.109 150.59 106.535ZM149.381 105.496V95.6361C149.381 95.0626 149.154 94.8986 148.7 95.1469L146.417 96.3955C145.963 96.6448 145.736 97.0562 145.736 97.6298V107.49C145.736 108.065 145.963 108.227 146.417 107.978L148.7 106.73C149.154 106.481 149.381 106.07 149.381 105.496Z" fill="#B9AE96"/>
<path d="M158.511 87.818L158.699 87.7165C159.153 87.4682 159.38 87.6312 159.38 88.2048V100.627C159.38 101.043 159.266 101.464 159.039 101.89L158.494 102.877C158.267 103.304 157.988 103.606 157.659 103.786L154.371 105.586C154.042 105.766 153.763 105.767 153.536 105.591L152.974 105.187C152.747 105.025 152.633 104.736 152.633 104.319V91.8953C152.633 91.3218 152.86 90.9104 153.315 90.661L153.502 90.5596C153.956 90.3103 154.183 90.4743 154.183 91.0478V102.845C154.183 103.433 154.41 103.603 154.864 103.356L157.147 102.106C157.6 101.858 157.828 101.44 157.828 100.851V89.0523C157.829 88.4778 158.057 88.0664 158.511 87.818Z" fill="#B9AE96"/>
<path d="M161.952 101.436L161.765 101.539C161.31 101.788 161.083 101.625 161.083 101.051V87.2928C161.083 86.705 161.31 86.286 161.765 86.0376L162.105 85.8509C162.479 85.6461 162.74 85.7257 162.888 86.0898L165.63 92.576C165.687 92.704 165.758 92.7884 165.843 92.8329C165.928 92.8765 166.01 92.8765 166.09 92.8329C166.192 92.777 166.275 92.6727 166.337 92.5191C166.399 92.3674 166.431 92.175 166.431 91.9446V84.3663C166.431 83.7776 166.658 83.3595 167.112 83.1102L167.299 83.0078C167.753 82.7595 167.98 82.9291 167.98 83.5179V97.2752C167.98 97.8497 167.753 98.2612 167.299 98.5095L167.112 98.6119C166.737 98.8167 166.475 98.7446 166.328 98.3948L163.432 91.6052C163.318 91.3133 163.171 91.2175 162.989 91.3171C162.886 91.373 162.801 91.4867 162.733 91.6574C162.665 91.828 162.631 92.029 162.631 92.2575V100.202C162.633 100.777 162.406 101.188 161.952 101.436Z" fill="#B9AE96"/>
<path d="M176.088 92.5798L175.543 93.5667C175.316 93.9781 175.038 94.2739 174.709 94.454L170.366 96.8316C169.912 97.0799 169.685 96.9169 169.685 96.3434V82.6078C169.685 82.0323 169.912 81.6219 170.366 81.3735L174.709 78.9959C175.038 78.8158 175.316 78.8139 175.543 78.9912L176.088 79.3817C176.315 79.5448 176.429 79.8349 176.429 80.2501V91.3152C176.429 91.7323 176.315 92.1532 176.088 92.5798ZM171.915 94.0236L174.197 92.7751C174.651 92.5267 174.878 92.1153 174.878 91.5417V81.7233C174.878 81.1488 174.651 80.9858 174.197 81.2341L171.915 82.4826C171.46 82.732 171.234 83.1434 171.234 83.7169V93.5344C171.234 94.1099 171.461 94.2729 171.915 94.0236Z" fill="#B9AE96"/>
<path d="M182.067 79.231L181.709 79.4263C181.255 79.6756 181.028 79.5268 181.028 78.9817V78.0128C181.028 77.4099 181.255 76.9842 181.709 76.7359L182.067 76.5406C182.521 76.2922 182.748 76.4695 182.748 77.0715V78.0403C182.748 78.5864 182.521 78.9836 182.067 79.231ZM182.067 87.1326L181.709 87.3279C181.255 87.5762 181.028 87.4284 181.028 86.8833V85.9144C181.028 85.3115 181.255 84.8858 181.709 84.6374L182.067 84.4422C182.521 84.1938 182.748 84.3711 182.748 84.973V85.9419C182.748 86.487 182.521 86.8842 182.067 87.1326Z" fill="#B9AE96"/>
<path d="M187.96 88.4711C187.96 88.6579 187.909 88.8399 187.808 89.0181C187.706 89.1964 187.557 89.3376 187.365 89.4428L187.024 89.6286C186.649 89.8344 186.388 89.7405 186.24 89.348L185.286 87.0074C185.195 86.7979 185.121 86.5012 185.065 86.1163L184.486 81.8048C184.463 81.5308 184.452 81.3573 184.452 81.2844C184.452 81.1848 184.463 80.999 184.486 80.7279L185.065 75.7604C185.121 75.3129 185.195 74.9356 185.286 74.6275L186.24 71.2412C186.388 70.7445 186.649 70.3937 187.024 70.188L187.365 70.0022C187.557 69.897 187.705 69.8629 187.808 69.8998C187.91 69.9377 187.96 70.0496 187.96 70.2354C187.96 70.3786 187.937 70.5274 187.892 70.6819L186.922 73.8824C186.808 74.2606 186.729 74.6484 186.683 75.0465L186.172 79.8045C186.149 80.0747 186.138 80.2615 186.138 80.361C186.138 80.4615 186.149 80.635 186.172 80.8805L186.683 85.0574C186.729 85.4063 186.808 85.7068 186.922 85.9599L187.892 88.0986C187.937 88.2038 187.96 88.328 187.96 88.4711Z" fill="#B9AE96"/>
<path opacity="0.6" d="M141.973 96.9131L136.608 99.849C136.153 100.098 135.926 100.509 135.926 101.083V114.819C135.926 115.393 136.153 115.556 136.608 115.307L136.795 115.205C137.249 114.956 137.476 114.545 137.476 113.97V109.536C137.476 108.962 137.703 108.55 138.157 108.301L141.972 106.214C142.426 105.966 142.653 105.554 142.653 104.98V104.743C142.653 104.169 142.426 104.006 141.972 104.254L138.157 106.343C137.703 106.591 137.476 106.429 137.476 105.855V102.195C137.476 101.621 137.703 101.21 138.157 100.961L141.972 98.8735C142.426 98.6252 142.653 98.2137 142.653 97.6393V97.4032C142.654 96.8268 142.426 96.6647 141.973 96.9131ZM115.623 111.291L115.436 111.394C114.981 111.643 114.755 112.061 114.755 112.65V120.228C114.755 120.458 114.724 120.65 114.661 120.803C114.599 120.956 114.516 121.061 114.414 121.116C114.334 121.16 114.252 121.16 114.167 121.116C114.082 121.073 114.011 120.988 113.954 120.86L111.211 114.373C111.064 114.009 110.803 113.93 110.428 114.134L110.088 114.32C109.634 114.569 109.406 114.988 109.406 115.576V129.334C109.406 129.908 109.633 130.07 110.088 129.822L110.275 129.72C110.729 129.471 110.956 129.06 110.956 128.485V120.541C110.956 120.313 110.991 120.112 111.059 119.941C111.127 119.77 111.211 119.657 111.315 119.6C111.496 119.501 111.643 119.597 111.757 119.888L114.652 126.677C114.8 127.027 115.061 127.099 115.436 126.895L115.623 126.793C116.077 126.544 116.305 126.132 116.305 125.559V111.801C116.305 111.214 116.077 111.043 115.623 111.291ZM150.046 92.904C149.819 92.7267 149.54 92.7286 149.212 92.9087L145.907 94.7166C145.578 94.8967 145.3 95.1934 145.073 95.6039L144.528 96.5908C144.301 97.0174 144.187 97.4373 144.187 97.8544V108.963C144.187 109.38 144.301 109.669 144.528 109.831L145.09 110.234C145.317 110.397 145.595 110.388 145.925 110.208L149.213 108.409C149.542 108.229 149.82 107.934 150.047 107.522L150.592 106.535C150.819 106.11 150.933 105.689 150.933 105.272V94.1629C150.933 93.7477 150.819 93.4576 150.592 93.2946L150.046 92.904ZM149.381 105.496C149.381 106.07 149.154 106.482 148.7 106.73L146.417 107.979C145.963 108.228 145.736 108.065 145.736 107.491V97.6307C145.736 97.0572 145.963 96.6457 146.417 96.3964L148.7 95.1479C149.153 94.8995 149.381 95.0626 149.381 95.6371V105.496ZM123.867 107.232C123.639 107.055 123.361 107.057 123.033 107.237L119.728 109.046C119.399 109.226 119.12 109.522 118.894 109.933L118.349 110.92C118.122 111.346 118.008 111.767 118.008 112.183V123.292C118.008 123.709 118.122 123.998 118.349 124.161L118.911 124.564C119.138 124.727 119.416 124.718 119.746 124.538L123.034 122.738C123.363 122.558 123.641 122.264 123.868 121.851L124.413 120.863C124.639 120.439 124.754 120.017 124.754 119.601V108.492C124.754 108.076 124.64 107.787 124.413 107.624L123.867 107.232ZM123.202 119.824C123.202 120.399 122.975 120.81 122.521 121.059L120.239 122.307C119.785 122.556 119.558 122.393 119.558 121.819V111.959C119.558 111.385 119.785 110.973 120.239 110.724L122.521 109.476C122.975 109.228 123.202 109.391 123.202 109.964V119.824ZM131.498 102.603L126.115 105.548C125.661 105.797 125.434 106.216 125.434 106.805V107.042C125.434 107.601 125.661 107.757 126.115 107.508L127.359 106.827C127.813 106.579 128.04 106.749 128.04 107.337V119.113C128.04 119.702 128.267 119.872 128.721 119.623L128.909 119.521C129.362 119.273 129.589 118.854 129.589 118.265V106.489C129.589 105.901 129.816 105.482 130.27 105.234L131.497 104.562C131.951 104.313 132.178 103.908 132.178 103.349V103.112C132.179 102.525 131.952 102.355 131.498 102.603ZM158.699 87.7156L158.511 87.817C158.057 88.0664 157.83 88.4778 157.83 89.0513V100.85C157.83 101.439 157.603 101.857 157.149 102.105L154.866 103.355C154.411 103.603 154.185 103.433 154.185 102.844V91.0478C154.185 90.4743 153.958 90.3103 153.504 90.5596L153.317 90.661C152.862 90.9094 152.635 91.3218 152.635 91.8953V104.318C152.635 104.735 152.749 105.024 152.976 105.186L153.538 105.59C153.765 105.767 154.043 105.766 154.372 105.585L157.66 103.785C157.988 103.605 158.267 103.303 158.494 102.876L159.039 101.889C159.266 101.463 159.38 101.043 159.38 100.626V88.2038C159.38 87.6303 159.152 87.4672 158.699 87.7156ZM182.067 84.4412L181.709 84.6365C181.255 84.8849 181.028 85.3115 181.028 85.9134V86.8823C181.028 87.4283 181.255 87.5762 181.709 87.3269L182.067 87.1316C182.521 86.8832 182.748 86.486 182.748 85.9409V84.9721C182.748 84.3701 182.521 84.1938 182.067 84.4412ZM186.921 85.9608C186.807 85.7068 186.728 85.4063 186.682 85.0583L186.171 80.8815C186.148 80.6359 186.137 80.4624 186.137 80.361C186.137 80.2615 186.148 80.0757 186.171 79.8045L186.682 75.0465C186.728 74.6484 186.807 74.2606 186.921 73.8824L187.891 70.6819C187.936 70.5274 187.959 70.3786 187.959 70.2354C187.959 70.0496 187.908 69.9377 187.806 69.8998C187.704 69.8629 187.555 69.897 187.363 70.0022L187.022 70.188C186.647 70.3937 186.386 70.7445 186.238 71.2412L185.284 74.6275C185.193 74.9356 185.119 75.3129 185.063 75.7604L184.484 80.7279C184.461 80.9981 184.45 81.1848 184.45 81.2844C184.45 81.3573 184.461 81.5308 184.484 81.8048L185.063 86.1163C185.119 86.5021 185.193 86.7979 185.284 87.0074L186.238 89.348C186.386 89.7405 186.647 89.8344 187.022 89.6287L187.363 89.4428C187.555 89.3376 187.703 89.1954 187.806 89.0181C187.908 88.8399 187.959 88.6579 187.959 88.4711C187.959 88.328 187.936 88.2038 187.891 88.0995L186.921 85.9608ZM182.067 76.5406L181.709 76.7359C181.255 76.9852 181.028 77.4108 181.028 78.0128V78.9817C181.028 79.5277 181.255 79.6756 181.709 79.4263L182.067 79.231C182.521 78.9826 182.748 78.5854 182.748 78.0403V77.0714C182.748 76.4685 182.521 76.2922 182.067 76.5406ZM167.3 83.0078L167.113 83.1102C166.659 83.3586 166.432 83.7776 166.432 84.3663V91.9446C166.432 92.175 166.401 92.3665 166.338 92.5191C166.275 92.6727 166.193 92.777 166.091 92.8329C166.011 92.8765 165.929 92.8765 165.844 92.8329C165.759 92.7893 165.688 92.704 165.631 92.576L162.888 86.0898C162.741 85.7267 162.479 85.6461 162.105 85.8509L161.765 86.0376C161.311 86.286 161.083 86.705 161.083 87.2928V101.05C161.083 101.624 161.31 101.787 161.765 101.538L161.952 101.435C162.406 101.187 162.633 100.776 162.633 100.201V92.2565C162.633 92.028 162.667 91.8271 162.735 91.6564C162.803 91.4858 162.888 91.373 162.991 91.3161C163.173 91.2165 163.32 91.3123 163.434 91.6043L166.33 98.3939C166.477 98.7437 166.739 98.8157 167.114 98.6109L167.301 98.5086C167.755 98.2602 167.982 97.8488 167.982 97.2743V83.5178C167.981 82.9291 167.754 82.7585 167.3 83.0078ZM175.543 78.9911C175.316 78.8139 175.038 78.8158 174.709 78.9959L170.366 81.3735C169.912 81.6218 169.685 82.0323 169.685 82.6078V96.3433C169.685 96.9169 169.912 97.0799 170.366 96.8316L174.709 94.454C175.038 94.2739 175.316 93.9781 175.543 93.5666L176.089 92.5798C176.316 92.1541 176.43 91.7332 176.43 91.3161V80.2501C176.43 79.8349 176.316 79.5448 176.089 79.3817L175.543 78.9911ZM174.879 91.5408C174.879 92.1143 174.652 92.5257 174.198 92.7741L171.916 94.0226C171.461 94.272 171.235 94.1089 171.235 93.5344V83.7179C171.235 83.1443 171.462 82.7329 171.916 82.4836L174.198 81.2351C174.652 80.9867 174.879 81.1488 174.879 81.7242V91.5408Z" fill="white"/>
<path d="M336.763 358.935C331.928 356.976 328.451 355.972 324.216 355.38C321.996 355.07 319.269 354.876 316.247 355.445C314.189 355.832 312.33 356.518 310.826 357.226C304.953 359.992 304.105 363.076 303.911 365.684C303.711 368.362 305.237 371.773 310.099 375.004C313.49 377.258 363.509 410.493 393.479 430.407C409.344 422.311 423.445 412.855 435.512 402.311C399.236 386.326 340.102 360.286 336.763 358.935Z" fill="#675446"/>
<path d="M363.454 242.358C368.571 243.309 370.57 243.635 373.022 247.654C375.473 251.672 379.631 266.619 380.769 269.714C381.906 272.808 382.25 273.939 381.78 277.394C381.29 280.995 379.05 287.399 378.111 290.905C377.676 292.528 377.384 294.106 377.067 295.767C376.736 297.499 375.944 299.083 375.366 300.757C375.099 301.529 374.526 302.253 373.876 302.781C373.449 303.129 372.873 303.165 372.468 303.492C372.048 303.83 371.963 304.382 371.401 304.648C370.776 304.945 370.058 304.758 369.511 305.064C368.939 305.383 368.457 305.847 367.822 306.109C367.25 306.345 366.827 306.439 366.392 306.893C366.035 307.266 365.689 308.095 365.045 308.035C364.323 307.966 364.207 307.304 364.169 306.731C364.103 305.721 364.681 304.445 365.317 303.649C366.054 302.726 366.554 301.652 367.402 300.811C368.17 300.051 368.617 298.926 368.942 297.916C369.17 297.209 369.1 296.303 368.137 296.716C367.002 297.204 365.801 298.229 364.441 298.008C363.5 297.854 363.448 297.152 363.997 296.564C364.917 295.58 365.705 294.588 366.47 293.48C367.231 292.376 367.86 291.207 368.651 290.127C369.062 289.566 369.555 289.032 370.046 288.523C371.419 287.099 371.366 285.157 371.522 283.352C371.741 280.832 371.93 274.387 371.93 274.387L365.733 259.909L363.454 242.358Z" fill="#FFBDA7"/>
<path d="M371.519 283.352C371.58 280.358 371.712 277.373 371.825 274.385C369.787 269.781 367.685 264.709 365.731 259.91C367.892 264.706 369.997 269.526 372.031 274.372C371.871 277.367 371.731 280.363 371.519 283.352Z" fill="white"/>
<path d="M328.882 354.777C330.641 354.191 331.946 354.132 331.928 354.959C331.91 355.785 330.797 357.882 330.797 357.882L329.399 359.705L328.73 361.511C328.73 361.511 327.911 362.478 327.86 362.548C327.81 362.618 327.537 359.191 327.537 359.191C327.537 359.191 326.545 355.204 328.882 354.777Z" fill="#675446"/>
<path d="M347.783 284.386C347.783 284.386 343.813 288.896 341.412 297.334C338.498 307.576 337.37 315.454 336.459 321.17C335.886 324.761 334.967 329.302 333.606 336.387C332.565 341.809 329.26 358.443 329.26 358.443C329.26 358.443 331.159 361.432 333.456 362.342C336.758 363.65 339.944 363.056 340.358 360.261C340.358 360.261 342.541 356.963 345.848 348.448C347.927 343.094 349.075 339.224 349.653 336.426C350.085 334.32 349.981 330.571 349.938 328.68L363.223 306.788C364.678 304.391 366.463 302.196 368.462 300.18C369.537 299.096 370.691 297.65 371.336 295.978C373.536 290.271 370.335 282.635 370.335 282.635L347.783 284.386Z" fill="#675446"/>
<path d="M336.459 321.17C334.32 333.638 331.873 346.057 329.259 358.444C331.562 346.001 334.018 333.589 336.459 321.17Z" fill="white"/>
<path d="M331.284 368.023L330.567 367.892C330.62 367.632 335.94 341.676 339.665 330.78C343.389 319.888 353.133 298.221 353.231 298.003L353.903 298.275C353.805 298.492 344.074 320.13 340.36 330.993C336.648 341.85 331.336 367.763 331.284 368.023Z" fill="black"/>
<path d="M365.264 291.688H343.449C342.729 293.312 342.02 295.196 341.412 297.334C338.806 306.493 337.629 313.757 336.757 319.28C337.288 322.665 337.888 326.137 338.444 328.532C339.909 334.84 340.825 339.297 341.985 341.901C343.143 344.499 345.928 348.188 345.94 348.203C347.957 342.98 349.083 339.18 349.652 336.427C350.084 334.321 349.979 330.572 349.937 328.681L362.91 307.303L363.84 303.938C367.137 298.845 366.771 295.025 365.264 291.688Z" fill="black"/>
<path d="M311.041 363.191C310.65 363.02 310.175 364.472 310.135 364.993C310.095 365.515 311.145 367.636 313.863 369.194C316.58 370.751 321.281 371.632 323.043 372.157C324.804 372.684 326.209 374.013 328.527 375.12C330.587 376.104 333.698 376.569 335.056 375.994C335.722 375.712 335.892 375.061 336.047 374.611C336.416 373.541 336.391 373.292 336.254 373.256L311.041 363.191Z" fill="#4A392D"/>
<path d="M337.191 370.889C337.008 372.003 336.626 373.008 336.061 374.007C335.4 374.672 334.118 374.727 333.254 374.68C330.976 374.557 329.453 373.912 327.344 372.721C326.08 372.008 324.7 371.234 323.037 370.764C321.209 370.247 318.631 369.697 316.906 368.918C315.433 368.254 313.993 367.58 312.801 366.529C311.794 365.642 310.872 364.627 310.97 363.387C311.667 361.298 313.184 360.703 314.669 360.476C316.238 360.236 317.952 360.783 319.499 361.167C321.416 361.642 322.076 361.987 324.13 362.138C325.21 362.218 326.481 363.065 327.323 362.183C328.317 361.14 328.714 358.673 329.383 357.451C329.492 357.251 329.636 357.038 329.867 356.987C330.2 356.913 330.482 357.209 330.691 357.467C331.681 358.688 332.894 359.482 334.346 360.16C338.214 361.97 340.001 361.017 340.001 361.017L340.358 360.261C340.358 360.261 341.128 360.669 340.153 362.372C339.287 363.885 338.907 364.61 338.074 366.76C337.315 368.719 337.372 369.788 337.191 370.889Z" fill="#4A392D"/>
<path d="M310.969 363.388C312.177 359.144 317.263 360.282 320.544 361.349C321.716 361.714 322.897 362.027 324.13 362.139C322.893 362.112 321.671 361.855 320.49 361.524C317.25 360.58 312.378 359.36 310.969 363.388Z" fill="white"/>
<path d="M320.217 361.354C318.566 361.503 318.117 364.032 318.117 364.032C318.117 364.032 320.586 365.319 322.871 365.496C325.781 365.722 327.529 364.366 328.222 362.257C328.915 360.149 328.275 357.187 328.154 356.233C328.061 355.506 328.361 354.912 329.13 354.694C327.579 355.084 327.219 355.839 327.276 356.97C327.333 358.101 327.298 360.357 326.77 361.103C326.242 361.85 323.735 362.186 320.217 361.354Z" fill="#4A392D"/>
<path d="M361.562 284.386C362.599 285.393 365.18 288.767 365.602 293.963C365.78 296.162 365.12 300.308 362.41 303.427C361.581 314.949 359.178 337.141 359.178 337.141C362.39 340.276 363.221 342.298 365.081 347.918C366.21 351.33 370.449 362.298 371.505 365.352C365.878 366.004 362.817 371.303 362.817 371.303C362.817 371.303 352.925 357.444 348.158 349.292C344.634 343.264 342.996 341.066 341.95 337.498C340.646 333.052 340.295 330.755 339.137 323.258C337.979 315.761 336.867 306.261 336.301 298.881C335.734 291.501 335.281 283.678 335.281 283.678L361.562 284.386Z" fill="#675446"/>
<path d="M362.817 371.304C357.048 363.247 351.395 355.092 346.431 346.559C344.929 344.012 343.258 341.511 342.242 338.737C341.288 335.949 340.629 333.08 340.12 330.193C337.439 314.8 336.079 299.249 335.281 283.679L336.124 295.341C336.882 307.006 338.412 318.62 340.366 330.155C341.08 333.963 341.817 337.862 343.635 341.351C349.361 351.701 355.994 361.575 362.817 371.304Z" fill="white"/>
<path d="M348.83 340.769C345.92 333.73 342.434 295.445 342.607 282.212L341.877 282.204C341.819 286.626 342.17 293.841 342.773 301.76C340.396 300.625 338.871 298.535 338.871 288.052H338.141C338.141 298.592 339.592 301.14 342.834 302.553C344.053 318.232 346.227 336.369 348.15 341.021C350.997 347.908 365.865 371.163 366.015 371.397L366.64 371.038C366.49 370.805 351.655 347.601 348.83 340.769Z" fill="black"/>
<path d="M361.988 370.123C361.096 371.32 360.092 372.17 362.623 373.756C364.575 374.979 364.694 375.968 365.302 377.271C365.91 378.573 365.785 381.209 365.785 381.209C365.785 381.209 369.136 376.4 368.156 373.305C367.177 370.21 361.988 370.123 361.988 370.123Z" fill="#4A392D"/>
<path d="M372.773 367.378C373.399 368.242 374.854 368.983 376.061 369.692C376.911 370.19 377.786 370.68 378.039 371.599C378.067 371.701 377.539 372.275 377.553 372.379C377.613 372.826 377.558 373.285 377.502 373.734C377.307 375.296 376.409 376.447 376.214 378.009C376.135 378.647 376.042 379.234 375.858 379.845C375.651 380.531 375.717 381.359 375.669 382.069C375.616 382.847 375.563 383.625 375.518 384.405C375.5 384.71 375.41 385.099 375.479 385.403C375.553 385.729 369.97 388.397 367.719 389.42C367.589 389.481 367.459 389.527 367.313 389.581C365.27 390.23 363.206 389.2 363.206 389.2C358.722 387.657 359 386.117 359 386.117C359 386.117 358.86 384.34 361.134 383.141C361.42 382.99 361.706 382.861 361.989 382.769C362.005 382.763 362.022 382.756 362.03 382.749C363.929 382.094 365.516 382.582 365.516 382.582C365.516 382.582 365.763 382.11 365.823 380.624C365.881 379.214 365.959 379.04 365.874 377.63C365.82 376.739 365.072 375.213 364.523 374.492C363.572 373.244 362.54 371.669 361.89 370.777C361.165 370.004 361.087 367.8 364.825 365.267C368.401 362.844 371.025 363.349 371.533 364.361C371.53 364.36 372.135 366.496 372.773 367.378Z" fill="#4A392D"/>
<path d="M358.999 386.118C358.959 383.188 362.938 381.726 365.515 382.583C362.877 382.123 359.379 383.279 358.999 386.118Z" fill="white"/>
<path opacity="0.1" d="M363.143 384.125C363.46 383.407 363.729 383.071 364.726 382.444C365.211 382.494 365.516 382.582 365.516 382.582C365.065 383.003 363.447 383.598 363.143 384.125Z" fill="black"/>
<path d="M378.581 372.507C379.58 372.906 378.752 374.44 377.548 376.725C376.35 378.997 376.116 380.349 376.353 382.41C376.591 384.472 376.079 385.481 375.138 386.197C374.197 386.914 367.221 389.816 367.221 389.816C367.221 389.816 369.587 387.405 369.97 382.871C370.354 378.336 370.809 375.424 373.189 373.448C375.571 371.47 378.581 372.507 378.581 372.507Z" fill="black"/>
<path d="M358.997 386.116C359.111 386.998 361.78 388.8 364.93 388.768C368.179 388.736 368.352 388.096 368.842 384.593C369.332 381.091 369.67 376.236 371.267 374.153C372.864 372.07 374.968 370.839 378.04 371.598C378.391 371.76 379.345 372.661 378.986 373.504C378.986 373.504 378.995 372.838 377.734 372.492C376.653 372.195 375.362 372.226 373.559 373.701C371.455 375.422 370.984 379.462 370.743 382.933C370.503 386.405 369.358 389.736 366.329 390.044C363.3 390.351 360.957 389.505 359.026 387.899C358.709 386.964 358.997 386.116 358.997 386.116Z" fill="#4A392D"/>
<path d="M340.942 220.587C340.032 219.589 340.031 218.004 340.539 216.775C341.047 215.547 342.106 214.247 345.201 212.729C348.876 210.926 358.982 209.645 363.981 215.91C364.702 216.813 354.757 234.53 355.248 238.206C352.67 235.636 344.157 226.597 344.157 226.597C342.14 225.783 340.921 225.092 340.495 223.288C340.372 222.775 340.398 221.461 340.942 220.587Z" fill="#675446"/>
<path d="M344.156 226.598C341.175 225.853 339.252 223.362 340.942 220.587C339.66 223.476 341.371 225.497 344.156 226.598Z" fill="white"/>
<path d="M340.942 220.587C339.678 219.277 339.985 217.174 340.942 215.773C341.981 214.33 343.594 213.431 345.2 212.729C344.43 213.157 343.679 213.613 342.975 214.12C340.885 215.487 339.327 218.384 340.942 220.587Z" fill="white"/>
<path d="M342.457 225.599C342.457 225.599 339.735 229.819 340.036 230.162C340.337 230.506 342.053 231.427 342.053 231.427L342.457 225.599Z" fill="#F0997A"/>
<path d="M342.457 225.599C341.781 226.953 340.965 228.232 340.286 229.577C340.204 229.791 340.014 230.052 340.145 230.206C340.296 230.391 340.519 230.541 340.74 230.673C340.467 230.532 340.022 230.425 339.957 230.08C340.378 228.438 341.474 226.992 342.457 225.599Z" fill="white"/>
<path d="M345.841 217.91C344.014 218.728 342.43 220.057 341.862 223.859C341.714 224.852 342.532 226.211 342.16 227.532C340.569 233.192 342.457 237.91 343.618 238.952C344.402 239.654 348.502 239.967 350.653 239.399C353.344 238.688 359.191 236.186 361.98 232.197C365.26 227.505 366.027 221.196 362.374 218.663C357.234 215.097 347.791 217.036 345.841 217.91Z" fill="#FFBDA7"/>
<path d="M341.862 223.859C341.825 225.154 342.656 226.416 342.197 227.729C341.349 231.4 341.287 235.755 343.619 238.952C341.057 235.859 341.061 231.357 342.037 227.69C342.499 226.439 341.737 225.161 341.862 223.859Z" fill="white"/>
<path d="M359.826 234.872L360.891 241.862C362.536 242.197 362.693 244.043 361.875 245.441L362.256 247.406L351.01 249.364L349.75 239.589L359.826 234.872Z" fill="#FFBDA7"/>
<path d="M343.836 239.095C344.79 239.597 346.893 239.967 349.749 239.59L349.581 238.207C349.581 238.207 348.37 238.661 346.793 238.964C345.226 239.266 343.853 239.097 343.836 239.095Z" fill="#F0997A"/>
<path d="M343.138 219.939C343.038 222.404 344.669 223.18 345.83 223.665C345.414 224.378 345.188 225.783 345.352 226.57C345.612 227.82 346.113 228.843 347.41 229.256C348.204 229.509 348.438 229.177 348.721 228.584C349.124 227.74 349.629 226.445 351.54 226.694C353.732 226.98 354.309 230.108 353.032 232.157C352.469 233.06 351.537 233.679 350.562 233.732C349.689 233.78 349.071 233.065 349.071 233.065C349.071 233.065 349.216 235.797 352.919 237.413C352.919 237.413 356.656 239.407 360.488 238.335C361.92 236.718 363.613 235.041 365.362 232.646C369.405 227.111 370.21 216.975 363.323 215.158C362.995 215.072 356.759 214.245 353.718 214.871C344.389 216.789 343.155 219.512 343.138 219.939Z" fill="#675446"/>
<path d="M360.052 214.47C359.243 215.041 358.619 215.88 358.459 216.825C358.299 217.769 358.652 218.805 359.448 219.392C361.466 220.879 364.57 219.152 364.938 216.955C365.373 214.354 362.068 213.049 360.052 214.47Z" fill="#B9AE96"/>
<path d="M361.678 215.296C359.628 216.485 358.351 219.298 359.445 221.327C359.743 221.88 360.163 222.374 360.41 222.95C361.204 224.799 360.049 226.834 359.801 228.816C359.641 230.095 359.912 232.297 360.633 233.41C361.31 234.455 362.813 234.723 363.413 235.826C363.825 236.586 363.541 237.511 363.702 238.351C364.049 240.168 366.309 241.039 368.257 241.079C369.909 241.113 371.693 240.716 372.759 239.519C373.296 238.915 373.617 238.147 374.224 237.606C375.382 236.573 377.258 236.628 378.506 235.695C379.496 234.954 379.92 233.688 379.88 232.493C379.84 231.299 379.396 230.152 378.92 229.045C378.089 227.117 378.755 225.929 379.175 224.006C379.626 221.943 378.325 219.662 376.257 218.89C374.841 218.361 373.119 218.451 371.983 217.491C371.364 216.968 371.026 216.209 370.466 215.629C368.314 213.405 364.086 213.897 361.678 215.296Z" fill="#675446"/>
<path d="M369.734 247.578C368.727 244.466 365.391 242.824 364.375 242.544C363.359 242.264 360.891 241.863 360.891 241.863C361.46 243.099 360.497 243.91 358.812 244.282C356.637 244.761 353.333 244.816 351.083 243.398L350.161 242.858C350.161 242.858 344.501 244.227 342.9 244.931C342.411 245.146 339.705 246.012 335.442 255.076C333.619 258.953 334.165 262.893 337.509 265.687C337.698 268.145 336.025 273.671 336.025 273.671C334.633 281.839 335.452 287.648 335.452 287.648C335.452 287.648 337.468 292.668 353.312 292.615C365.584 292.575 371.747 286.941 371.747 286.941C371.601 284.078 366.883 274.111 367.35 270.763C368.083 265.851 372.808 257.081 369.734 247.578Z" fill="#B9AE96"/>
<path d="M342.9 244.93C346.126 247.417 346.378 250.84 345.874 255.458C345.37 260.075 340.498 274.498 339.503 277.637C338.508 280.775 337.068 281.873 334.547 284.409C331.921 287.051 326.142 290.989 323.21 293.305C321.853 294.376 320.64 295.491 319.354 296.66C318.014 297.878 316.392 298.719 314.887 299.753C314.192 300.23 313.28 300.496 312.427 300.563C311.866 300.606 311.378 300.315 310.846 300.355C310.296 300.396 309.886 300.795 309.266 300.697C308.576 300.589 308.11 300.039 307.479 299.981C306.818 299.922 306.141 300.029 305.464 299.888C304.855 299.76 304.454 299.601 303.821 299.726C303.302 299.829 302.508 300.308 302.024 299.901C301.482 299.444 301.798 298.843 302.122 298.358C302.694 297.504 303.952 296.793 304.96 296.502C306.128 296.165 307.198 295.573 308.405 295.365C309.498 295.176 310.555 294.515 311.445 293.878C312.067 293.433 312.571 292.661 311.536 292.459C310.316 292.222 308.708 292.384 307.744 291.447C307.077 290.8 307.47 290.202 308.279 290.031C309.633 289.746 310.885 289.383 312.191 288.911C313.49 288.441 314.724 287.844 316.033 287.41C316.714 287.184 317.443 287.026 318.155 286.888C320.148 286.499 321.308 284.897 322.552 283.522C324.289 281.604 327.277 277.999 329.313 275.402L332.381 261.323C334.316 253.642 335.029 247.237 342.9 244.93Z" fill="#FFBDA7"/>
<path d="M345.878 255.455C345.608 257.872 344.148 262.991 342.668 267.76C342.568 268.092 342.458 268.414 342.358 268.736C341.128 272.689 339.938 276.254 339.498 277.638C338.598 280.491 337.328 281.657 335.218 283.743C334.998 283.961 334.778 284.17 334.548 284.407C331.918 287.052 326.138 290.986 323.208 293.308C321.858 294.38 320.638 295.489 319.358 296.655C318.018 297.878 316.388 298.721 314.888 299.755C314.188 300.229 313.278 300.494 312.428 300.561C311.868 300.608 311.378 300.314 310.848 300.352C310.298 300.39 309.888 300.788 309.268 300.693C308.578 300.589 308.108 300.039 307.478 299.982C306.818 299.916 306.138 300.03 305.468 299.888C304.858 299.755 304.458 299.603 303.818 299.726C303.658 299.764 303.468 299.831 303.268 299.897C303.188 299.925 303.098 299.954 303.018 299.973C302.908 300.011 302.788 300.039 302.668 300.049C302.428 300.077 302.208 300.049 302.028 299.897C301.478 299.442 301.798 298.845 302.118 298.361C302.698 297.508 303.948 296.788 304.958 296.503C306.128 296.162 307.198 295.574 308.408 295.366C309.498 295.176 310.558 294.512 311.448 293.877C312.068 293.432 312.568 292.664 311.538 292.455C310.318 292.218 308.708 292.379 307.748 291.45C307.078 290.796 307.468 290.199 308.278 290.028C309.638 289.744 310.888 289.384 312.188 288.91C313.488 288.436 314.728 287.838 316.028 287.412C316.718 287.184 317.448 287.023 318.158 286.89C320.148 286.502 321.308 284.89 322.548 283.525C324.288 281.601 327.278 277.998 329.318 275.401L332.378 261.323C334.318 253.644 335.028 247.236 342.898 244.932C343.778 245.615 344.448 246.363 344.928 247.188C346.208 249.378 346.238 252.099 345.878 255.455Z" fill="#FFBDA7"/>
<path d="M302.025 299.9C301.557 299.572 301.685 298.95 301.941 298.532C302.692 297.162 304.317 296.572 305.76 296.106C306.706 295.749 307.698 295.342 308.719 295.202C309.703 294.958 310.595 294.428 311.446 293.877C310.649 294.497 309.79 295.089 308.769 295.378C307.025 295.829 304.554 296.606 303.073 297.537C302.407 298.044 301.256 299.091 302.025 299.9Z" fill="white"/>
<path d="M307.745 291.447C306.499 290.097 308.901 289.925 309.805 289.639C312.18 289.065 314.278 287.819 316.625 287.196C317.797 286.873 319.043 286.743 319.985 285.996C321.622 284.773 323.37 282.314 324.717 280.773L329.221 275.335C330.236 270.587 331.81 263.217 333.003 258.394C334.268 252.667 336.216 246.627 342.9 244.929C336.316 246.696 334.401 252.74 333.175 258.431C331.981 263.321 330.545 270.488 329.406 275.465L324.867 280.889C323.484 282.447 321.768 284.858 320.079 286.114C319.1 286.879 317.808 287.011 316.665 287.32C314.332 287.935 312.195 289.149 309.819 289.687C308.908 289.967 306.527 290.09 307.745 291.447Z" fill="white"/>
<path opacity="0.3" d="M365.51 306.596C365.525 306.96 365.598 307.336 365.815 307.634C366.03 307.387 366.208 307.082 366.388 306.894C366.823 306.44 367.246 306.346 367.818 306.11C368.453 305.847 368.935 305.384 369.507 305.064C370.054 304.759 370.772 304.946 371.397 304.649C371.959 304.383 372.044 303.832 372.464 303.493C372.87 303.166 373.445 303.13 373.873 302.782C374.522 302.254 375.096 301.53 375.363 300.758C375.941 299.083 376.734 297.5 377.064 295.768C377.381 294.106 377.674 292.529 378.108 290.906C379.048 287.399 381.288 280.996 381.778 277.395C382.248 273.94 381.905 272.809 380.767 269.714C379.629 266.62 375.472 251.673 373.02 247.654C370.695 243.843 368.771 243.352 364.212 242.5C364.127 242.481 364.037 242.457 363.936 242.43C363.796 242.402 363.636 242.364 363.476 242.335C363.356 242.307 363.236 242.288 363.116 242.259C362.966 242.231 362.806 242.203 362.656 242.174C362.566 242.155 362.476 242.146 362.386 242.127C362.146 242.079 361.926 242.041 361.726 242.003C361.526 241.975 361.356 241.947 361.226 241.918C361.176 241.909 361.136 241.899 361.096 241.899C360.966 241.871 360.886 241.861 360.886 241.861L360.356 238.363C360.396 238.354 360.446 238.344 360.486 238.335C361.296 237.425 362.186 236.486 363.116 235.424C363.226 235.548 363.326 235.68 363.406 235.832C363.826 236.59 363.536 237.51 363.696 238.354C364.046 240.174 366.306 241.036 368.256 241.084C369.906 241.112 371.686 240.714 372.756 239.52C373.296 238.913 373.616 238.145 374.216 237.605C375.376 236.571 377.256 236.628 378.506 235.699C379.496 234.96 379.916 233.689 379.876 232.495C379.836 231.301 379.396 230.153 378.916 229.044C378.086 227.12 378.746 225.925 379.166 224.01C379.616 221.944 378.316 219.659 376.256 218.891C374.836 218.36 373.116 218.455 371.976 217.488C371.356 216.967 371.026 216.208 370.466 215.63C368.866 213.971 366.116 213.829 363.816 214.436C363.266 214.066 362.576 213.876 361.876 213.895C358.756 211.601 354.686 211.061 351.196 211.317C349.886 211.81 348.716 212.625 347.706 213.582C344.566 216.531 342.666 220.863 343.526 224.977C343.686 225.745 343.936 226.485 344.066 227.253C344.396 229.215 343.936 231.215 343.946 233.206C343.956 235.187 344.616 237.396 346.436 238.373C347.816 239.103 349.506 238.96 351.076 239.15C353.656 239.463 353.356 240.97 353.456 243.046C353.476 243.359 353.486 243.681 353.376 243.966C353.336 244.08 353.276 244.174 353.196 244.269C352.526 245.056 350.626 245.369 349.786 245.634C348.226 246.118 346.406 246.431 344.926 247.189C344.216 247.549 343.586 248.014 343.106 248.658C341.196 251.199 340.386 254.223 339.576 257.2C338.826 259.949 338.036 262.698 337.206 265.429C336.456 267.903 335.676 270.368 334.866 272.823C334.136 275.032 333.366 277.25 332.046 279.184C330.496 281.431 328.276 283.175 326.276 285.09C321.746 289.432 317.956 294.987 311.896 297.073C309.566 297.869 307.066 298.087 304.676 298.694C303.846 298.902 302.906 299.32 302.666 300.049C302.786 300.04 302.906 300.012 303.016 299.974C303.106 299.955 303.186 299.926 303.266 299.898C303.466 299.831 303.656 299.765 303.816 299.727C304.456 299.604 304.856 299.756 305.466 299.888C306.136 300.031 306.816 299.917 307.476 299.983C308.106 300.04 308.576 300.59 309.266 300.694C309.886 300.789 310.296 300.391 310.846 300.353C311.376 300.315 311.866 300.609 312.426 300.561C313.276 300.495 314.186 300.23 314.886 299.756C316.386 298.722 318.016 297.879 319.356 296.656C320.636 295.49 321.856 294.38 323.206 293.309C326.136 290.987 331.916 287.052 334.546 284.407C334.776 284.17 334.996 283.962 335.216 283.744L335.226 283.734C337.326 281.658 338.596 280.492 339.496 277.639C339.936 276.255 341.126 272.69 342.356 268.737C342.496 268.291 342.606 267.95 342.666 267.761C343.176 268.197 343.296 268.974 343.346 269.657C343.716 274.264 344.876 278.928 345.666 283.516C346.226 286.787 346.796 290.058 347.056 293.357C347.256 295.746 347.286 298.135 347.326 300.523C347.406 306.221 347.486 311.909 347.566 317.597C347.586 318.564 347.596 319.531 347.616 320.498C347.656 323.446 347.796 325.608 348.196 328.527C348.526 330.869 349.056 333.192 349.806 335.448C349.986 335.998 350.176 336.548 350.386 337.097C352.456 342.548 355.706 347.487 358.836 352.436C362.096 357.612 364.726 363.215 367.326 368.732C367.796 369.727 368.266 370.732 368.446 371.804C368.766 373.643 368.236 375.51 368.086 377.368C367.936 379.179 368.156 381.009 368.106 382.829C368.046 384.64 367.676 386.536 366.506 387.976C365.736 388.934 364.636 389.617 363.416 389.958C364.316 390.109 365.276 390.147 366.326 390.043C366.926 389.986 367.446 389.806 367.896 389.531C369.676 388.782 374.376 386.773 375.136 386.194C376.076 385.483 376.586 384.469 376.356 382.412C376.116 380.345 376.346 378.999 377.546 376.724C378.306 375.283 378.906 374.145 379.006 373.396C379.256 372.59 378.376 371.756 378.036 371.595C377.786 370.675 376.906 370.192 376.056 369.69C374.856 368.979 373.396 368.239 372.776 367.376C372.136 366.495 371.526 364.362 371.526 364.362C371.426 364.153 371.226 363.973 370.956 363.821C369.416 359.622 366.066 350.891 365.076 347.923C363.216 342.302 362.386 340.273 359.176 337.145C359.176 337.145 360.946 320.763 361.976 308.847L363.216 306.79C363.346 306.572 363.476 306.363 363.616 306.155C364.996 304.003 366.636 302.012 368.456 300.182C368.637 300 368.819 299.794 369 299.593C368.726 300.021 368.463 300.454 368.164 300.871C366.906 302.628 365.423 304.474 365.51 306.596ZM371.628 287.043C371.698 286.977 371.748 286.939 371.748 286.939C371.728 286.493 371.588 285.867 371.378 285.118C371.148 284.313 370.828 283.355 370.478 282.322C370.368 282 370.248 281.668 370.128 281.336C369.718 280.179 369.278 278.947 368.878 277.753C368.748 277.383 368.628 277.013 368.518 276.653C368.378 276.255 368.258 275.857 368.148 275.477C368.068 275.202 367.988 274.937 367.918 274.672C367.898 274.586 367.868 274.491 367.848 274.406C367.798 274.226 367.758 274.055 367.718 273.894C367.638 273.581 367.568 273.287 367.518 273.003C367.498 272.899 367.478 272.795 367.458 272.69C367.448 272.614 367.428 272.548 367.428 272.472C367.398 272.33 367.378 272.188 367.368 272.055C367.358 271.96 367.348 271.865 367.338 271.771C367.318 271.591 367.318 271.42 367.318 271.259C367.318 271.079 367.328 270.917 367.348 270.766C367.528 269.543 367.958 268.073 368.458 266.414C368.785 265.321 369.139 264.141 369.471 262.895C370.419 264.565 371.34 266.249 372.259 267.933C372.997 269.287 373.739 270.648 374.226 272.1C375.329 275.387 375.064 278.935 374.637 282.361C374.15 286.267 373.327 290.148 371.917 293.812C372.304 291.483 372.046 289.042 371.628 287.043Z" fill="black"/>
</svg>
