<svg width="1425" height="1426" viewBox="0 0 1425 1426" fill="none" xmlns="http://www.w3.org/2000/svg">
<g clip-path="url(#clip0_3_1247)">
<mask id="mask0_3_1247" style="mask-type:luminance" maskUnits="userSpaceOnUse" x="0" y="-74" width="1465" height="1500">
<path d="M1464.04 -74H0V1426H1464.04V-74Z" fill="white"/>
</mask>
<g mask="url(#mask0_3_1247)">
<mask id="mask1_3_1247" style="mask-type:luminance" maskUnits="userSpaceOnUse" x="0" y="-74" width="1465" height="1500">
<path d="M0 -74H1464.04V1426H0V-74Z" fill="white"/>
</mask>
<g mask="url(#mask1_3_1247)">
<mask id="mask2_3_1247" style="mask-type:luminance" maskUnits="userSpaceOnUse" x="0" y="-74" width="1465" height="1500">
<path d="M0 -74H1464.04V1426H0V-74Z" fill="white"/>
</mask>
<g mask="url(#mask2_3_1247)">
<path d="M1330.02 657.314C1330.02 996.52 1061.62 1271.5 730.546 1271.5C399.471 1271.5 131.082 996.52 131.082 657.314C131.082 318.108 399.471 43.127 730.546 43.127C1061.62 43.127 1330.02 318.108 1330.02 657.314Z" fill="#F7F1E5"/>
</g>
<mask id="mask3_3_1247" style="mask-type:luminance" maskUnits="userSpaceOnUse" x="0" y="-74" width="1465" height="1500">
<path d="M0 -74H1464.04V1426H0V-74Z" fill="white"/>
</mask>
<g mask="url(#mask3_3_1247)">
<path d="M538.713 946.319C577.81 872.29 546.615 750.44 456.88 654.021C367.852 558.36 251.989 520.445 178.263 556.636L179.364 545.558L140.647 586.144C79.4237 659.447 113.438 801.845 215.864 906.593C316.812 1009.83 449.005 1040.1 515.909 976.558L554.97 944.437L538.713 946.319Z" fill="#493628"/>
<path d="M494.05 615.308C599.748 723.602 630.228 867.953 562.131 937.724C494.031 1007.5 353.142 976.267 247.444 867.973C141.746 759.679 111.267 615.328 179.365 545.557C247.465 475.786 388.352 507.014 494.05 615.308Z" fill="#493628"/>
<path d="M483.097 625.556C394.922 535.215 277.403 509.149 220.611 567.335C163.82 625.522 189.262 745.927 277.438 836.268C365.612 926.609 483.129 952.675 539.921 894.487C596.713 836.301 571.272 715.896 483.097 625.556ZM526.089 865.777C480.66 912.322 381.722 886.419 305.105 807.92C228.489 729.422 203.204 628.053 248.633 581.508C294.063 534.963 393.002 560.867 469.619 639.365C546.236 717.864 571.518 819.232 526.089 865.777Z" fill="#F7F1E5"/>
<path d="M457.928 653.294C397.521 591.403 319.515 570.98 283.697 607.677C247.88 644.375 267.813 724.297 328.22 786.188C388.628 848.079 466.635 868.502 502.452 831.805C538.269 795.107 518.336 715.185 457.928 653.294ZM487.739 806.655C461.123 833.924 399.376 814.872 349.823 764.101C300.268 713.331 281.673 650.066 308.289 622.798C334.904 595.528 396.651 614.58 446.205 665.351C495.759 716.122 514.355 779.386 487.739 806.655Z" fill="#F7F1E5"/>
<path d="M436.315 677.39C395.302 635.37 346.128 617.623 326.48 637.753C306.833 657.883 324.152 708.267 365.165 750.288C406.179 792.308 455.354 810.053 475.001 789.924C494.648 769.794 477.328 719.41 436.315 677.39ZM461.75 773.1C447.473 787.727 409.437 772.473 376.791 739.026C344.148 705.58 329.258 666.609 343.534 651.981C357.812 637.354 395.848 652.608 428.493 686.054C461.137 719.5 476.027 758.473 461.75 773.1Z" fill="#F7F1E5"/>
<path d="M421.678 693.035C445.718 717.665 457.213 745.819 447.356 755.918C437.498 766.018 410.02 754.239 385.981 729.61C361.942 704.981 350.446 676.827 360.303 666.727C370.16 656.628 397.638 668.406 421.678 693.035Z" fill="#F7F1E5"/>
<path d="M417.899 696.909C436.847 716.323 446.456 737.954 439.362 745.223C432.266 752.492 411.153 742.647 392.205 723.233C373.256 703.819 363.647 682.188 370.743 674.919C377.838 667.65 398.95 677.495 417.899 696.909Z" fill="#493628"/>
<path d="M221.807 518.272C218.502 519.054 204.44 525.594 187.355 538.029C168.241 557.35 146.554 579.188 132.718 596.811C113.846 628.254 102.993 669.043 115.796 719.984C160.279 896.951 359.25 945.583 357.265 950.142C355.28 954.701 493.563 612.232 493.563 612.232C399.332 520.858 289.77 491.07 221.807 518.272Z" fill="url(#paint0_linear_3_1247)" fill-opacity="0.56"/>
</g>
</g>
<path d="M853.549 870.011C858.169 866.158 869.557 868.041 877.403 869.461L879.015 889.167L850.755 883.552L853.549 870.011ZM1079.52 869.02C1079.52 869.02 1098.75 864.947 1103.06 870.671C1107.35 876.396 1097.03 887.846 1097.03 887.846L1077.58 889.827L1079.52 869.02Z" fill="#777963"/>
<path d="M875.988 572.425C860.515 597.526 818.608 738.223 818.608 738.223C818.608 738.223 771.973 856.461 817.104 867.911C833.866 867.911 873.409 826.076 897.908 754.737C914.33 687.053 944.068 651.803 954.643 604.131C967.537 546.003 890.816 544.682 875.988 572.425Z" fill="#E3DFD4"/>
<path d="M902.308 562.558C876.923 579.046 868.545 617.274 863.976 647.344C860.49 670.276 859.738 693.504 859.063 716.665C858.442 738.029 855.609 759.873 856.834 780.997C858.618 811.785 847 843.214 825.922 865.209C853.536 849 881.597 802.001 898.001 754.833C908.926 702.251 941.867 653.5 952.91 610.266C951.855 597.965 949.689 585.888 945.993 574.963C943.554 567.75 939.695 560.103 932.662 557.586C922.445 553.931 911.12 556.835 902.308 562.558Z" fill="#D9D3C5"/>
<path d="M650.126 701.496C647.14 699.924 639.831 691.86 658.333 669.462C672.106 651.99 678.604 649.643 683.78 654.807C688.295 658.906 690.166 668.534 675.147 687.505C661.317 704.973 653.113 703.067 650.126 701.496Z" fill="#CFC6B4"/>
<path d="M690.16 736.236L653.376 697.967C653.376 697.967 647.204 692.996 640.321 688.587C630.383 682.224 623.968 682.721 616.84 680.824C607 678.855 574.963 663.928 568.693 661.156C562.423 658.386 553.128 652.432 553.128 652.432C553.128 652.432 532.256 645.868 522.309 639.4C512.36 632.931 502.601 625.691 501.695 623.841C500.789 621.99 500.934 617.669 507.258 616.736C513.583 615.802 526.848 625.969 530.615 627.508C534.382 629.046 552.706 635.151 552.706 635.151L552.887 632.281C552.887 632.281 533.498 623.3 529.965 621.838C528.105 621.068 520.452 616.979 511.893 611.331C504.917 606.327 495.472 596.42 493.185 592.667C490.995 586.497 495.778 582.074 500.137 583.176C502.642 583.555 509.256 588.926 515.07 593.831C523.77 599.232 532.647 604.975 533.949 605.549C533.96 605.526 557.242 613.47 557.21 613.425C557.096 613.151 558.045 613.038 557.423 612.614C552.225 610.002 534.423 602.457 534.158 602.302C531.971 601.038 524.578 596.663 517.166 591.607C508.772 585.881 500.408 578.945 499.855 578.521C496.235 575.6 494.032 574.4 493.774 571.794C494.606 565.003 502.033 560.753 509.963 567.378C513.393 569.878 540.606 587.255 542.305 588.046C544.006 588.838 563.332 595.338 562.668 594.875C559.666 593.369 547.107 588.186 543.557 585.795C536.961 581.354 528.026 576.39 525.754 574.88C522.859 572.453 509.367 562.114 508.85 560.866C507.227 556.948 512.72 550.131 521.65 554.673C527.212 557.501 529.048 557.392 536.299 563.048C542.157 566.59 547.175 570.264 553.376 573.752C560.201 575.656 573.375 581.304 578.165 582.586C587.459 585.073 597.289 588.245 606.639 589.679C608.469 589.96 610.173 590.27 611.685 590.527C616.7 591.378 614.931 585.875 613.232 583.814C607.916 577.356 600.472 570.848 598.343 568.788C595.534 566.072 583.867 552.946 589.32 542.004C590.252 539.706 593.822 537.287 596.33 539.187C601.951 543.447 601.057 546.307 613.32 553.819C621.096 558.584 621.471 562.488 624.29 565.76C627.109 569.033 631.507 576.116 639.625 581.581C648.525 587.573 656.245 597.561 659.414 605.21C663.361 614.738 662.863 631.197 663.266 634.521C663.667 637.845 665.24 643.831 676.308 652.887C682.469 657.926 769.922 731.151 769.922 731.151L690.16 736.236Z" fill="#D69280"/>
<path d="M615.158 590.364C609.462 591.67 595.232 588.224 577.64 582.628C571.116 580.553 556.951 574.972 553.964 573.866C550.978 572.759 536.743 562.926 535.565 562.439C524.202 553.319 516.294 551.084 511.83 554.26C511.83 554.26 506.172 557.46 510.263 561.231C514.354 565.003 527.416 575.605 527.416 575.605L545.124 586.963L566.726 595.516M555.097 647.94C550.39 635.49 551.904 627.142 556.744 614.601C561.35 602.666 568.487 591.049 577.865 583.097M624.833 656.944C618.011 647.23 615.689 634.884 615.489 622.918C615.288 610.952 615.712 600.403 616.168 588.445" stroke="#C58075" stroke-width="2" stroke-linecap="round" stroke-linejoin="round"/>
<path d="M645.959 696.938C645.577 695.427 645.426 693.773 645.907 692.367C645.886 692.395 647.295 693.397 647.204 693.401C646.973 694.269 647.132 695.195 647.361 695.88C648.293 698.973 651.721 701.968 658.693 698.935C671.115 692.994 691.115 662.23 680.645 653.867C679.591 652.801 678.206 652.417 677.632 652.934C676.994 652.691 676.711 652.283 676.616 652.032C677.172 650.982 679.482 650.427 680.917 651.776C714.861 683.627 739.163 699.817 788.24 739.022C812.82 755.242 829.531 770.22 839.331 801.479C846.619 824.143 845.834 856.058 829.595 864.197C810.514 873.93 755.794 821.304 743.147 805.994C730.5 790.683 665.644 715.078 663.123 712.586C660.602 710.094 649.137 705.243 645.959 696.938Z" fill="#E3DFD4"/>
<path d="M825.985 865.274C804.392 868.032 755.07 820.428 743.147 805.994C730.5 790.683 665.644 715.078 663.123 712.586C660.602 710.094 649.137 705.243 645.959 696.938C645.577 695.427 645.426 693.773 645.907 692.367C645.886 692.395 647.295 693.397 647.204 693.401C646.973 694.269 647.132 695.195 647.361 695.88C648.293 698.973 651.721 701.968 658.693 698.935C671.115 692.994 691.115 662.23 680.645 653.867C679.591 652.801 678.206 652.417 677.632 652.934C676.994 652.691 676.711 652.283 676.616 652.032C677.172 650.982 679.482 650.427 680.917 651.776C714.861 683.627 739.163 699.817 788.239 739.022C804.402 749.688 817.164 759.817 826.795 774.391" stroke="#CEC6B5" stroke-width="2" stroke-miterlimit="1"/>
<path d="M939.854 245.33C939.854 245.33 936.064 202.234 980.146 191.669C1024.22 181.104 1092.93 207.84 1103.56 307.079C1106.03 341.651 1097.3 373.399 1076.15 411.859C1055.01 450.319 1070.8 497.793 1115.37 473.59C1115.37 473.59 1070.89 526.536 1033.86 503.628C1030.82 502.348 1030.44 490.307 1030.44 490.255C1030.67 507.211 1054.43 524.408 1069.38 514.343C1066.28 524.941 1053.35 535.973 1043.29 539.829C1016.61 550.051 982.362 539.023 972.482 511.582C973.249 513.713 970.516 520.978 970.445 523.726C970.316 528.597 972.432 533.338 972.415 537.962C972.391 545.077 975.021 542.904 968.429 546.742C964.614 548.963 957.2 548.149 952.945 548.218C928.783 548.614 918.936 542.938 908.887 520.023C905.311 511.874 907.2 511.318 897.383 515.789C891.625 518.412 886.288 523.316 879.684 523.549C873.789 523.754 867.882 522.724 862.387 520.526C859.751 519.471 849.958 511.169 848.281 511.413C891.663 505.121 926.326 453.745 929.931 411.699C923.955 410.636 919.02 440.625 902.274 441.581C905.028 434.724 920.379 439.011 929.567 373.644C938.753 308.277 939.854 245.33 939.854 245.33Z" fill="#6D3429"/>
<path d="M968.062 214.932C984.168 201.236 1006.53 196.265 1026.91 200.636C1058.62 207.437 1078.73 236.301 1081.4 268.406C1082.32 277.126 1081.69 286.077 1080.46 294.699C1075.99 329.311 1067.87 363.309 1063.85 397.968C1061.78 421.953 1056.26 453.656 1073.65 472.872C1079.33 479.131 1087.46 483.609 1095.96 483.053C1104.64 482.487 1111.37 476.077 1118.27 471.318C1114.81 473.855 1111.52 476.628 1107.93 479.014C1101.58 483.476 1093.82 484.951 1086.44 482.396C1081.29 480.694 1076.72 477.504 1072.96 473.546C1055.13 454.39 1060.11 421.966 1062.17 397.767C1066.39 358.757 1076.41 320.577 1079.94 281.519C1081.6 251.601 1067.68 219.295 1040.13 206.431C1017.04 195.411 988.102 198.706 968.062 214.932ZM977.678 218.09C985.886 208.385 999.14 207.275 1010.87 206.962C1042.34 204.341 1068.91 228.171 1080.32 256.71C1087.32 273.871 1088.87 292.856 1087.93 311.237C1087.22 323.517 1086.01 335.764 1083.46 347.805C1079.57 365.786 1073.02 383.012 1070.93 401.338C1070.25 407.407 1070.07 413.543 1070.55 419.653C1069.13 407.447 1070.68 395.065 1073.31 383.115C1077.46 365.209 1083.07 347.785 1084.68 329.398C1087.42 305.364 1087.65 280.148 1078.59 257.435C1067.6 229.56 1041.6 205.823 1010.9 207.936C999.238 207.949 986.15 208.742 977.678 218.09ZM1012.11 246.257C1037.11 253.071 1057.86 274.527 1064.04 300.339C1068.88 319.738 1066.39 340.165 1061.95 359.385C1056.08 384.845 1044.95 409.46 1045.25 435.986C1045.48 448.955 1048.71 462.12 1055.63 473.059C1066.1 489.764 1089.33 495.642 1106.45 486.344C1100.81 489.573 1094.39 491.247 1087.92 491.275C1081.47 491.288 1074.93 489.802 1069.14 486.834C1054.13 479.342 1046.95 462.026 1044.37 445.96C1040.18 415.929 1053.36 387.455 1060.14 358.936C1064.64 339.979 1067.08 319.896 1062.58 300.709C1056.76 275.084 1036.65 253.836 1012.11 246.257ZM1012.44 253.784C1024.55 261.017 1036.22 269.781 1044.43 281.621C1055.51 297.767 1059.27 318.408 1056.87 337.82C1052.83 371.871 1032.36 400.763 1025.14 433.837C1023.52 443.71 1023.93 453.992 1025.87 463.812C1026.53 467.087 1027.39 470.339 1028.59 473.422C1031.05 479.568 1035.99 484.406 1041.28 488.132C1057.27 499.156 1079.86 504.598 1096.87 492.812C1085.92 500.932 1071.34 501.766 1058.68 497.74C1049.17 494.732 1039.84 490.044 1032.85 482.605C1025.64 475.139 1023.85 464.036 1022.78 454.015C1022.18 447.205 1022.29 440.313 1023.39 433.523C1026.03 420.129 1031.33 407.514 1036.45 394.985C1045.55 373.415 1055.49 351.419 1055.94 327.567C1056.45 292.978 1040.4 271.241 1012.44 253.784ZM1023.78 231.711C1036.64 230.415 1049.34 236.972 1057.8 246.691C1066.43 256.564 1070.67 269.717 1072.11 282.696C1074.51 308.871 1066.64 334.436 1061.41 359.761C1065.05 334.342 1072.73 308.749 1070.18 282.911C1068.94 270.218 1064.79 257.514 1056.68 247.698C1048.6 237.947 1036.49 231.278 1023.78 231.711Z" fill="#5B2924"/>
<path d="M1024.82 404.021C1019.64 417.173 1015.77 430.879 1014.23 444.914C1011.72 469.079 1012.47 495.508 1027.01 515.79C1032.05 522.751 1038.72 528.839 1046.95 531.355C1049.77 532.24 1052.72 532.688 1055.67 532.679C1055.62 532.68 1054.08 533.644 1054.2 533.509C1050.75 533.476 1047.32 532.838 1044.12 531.632C1029.86 526.113 1020.85 511.976 1015.92 497.795C1011.26 484.219 1010.87 469.577 1011.71 455.365C1012.68 437.568 1017.37 420.081 1024.82 404.021Z" fill="#5B2924"/>
<path d="M850.686 511.684C858.983 515.502 868.59 515.741 877.41 513.465C886.23 511.188 894.327 506.527 901.599 500.927C906.96 496.799 912.049 491.98 914.982 485.8C915.11 485.531 915.223 485.176 915.021 484.96C914.819 484.743 914.391 485.176 914.663 485.284M848.415 512.372C866.738 512.488 885.006 505.102 898.316 492.198" stroke="#5B2924" stroke-miterlimit="10"/>
<path d="M988.111 505.635C1018.99 496.492 1046.05 496.279 1048.56 505.158C1051.06 514.038 1028.06 528.648 997.188 537.792C966.307 546.935 939.248 547.149 936.743 538.269C934.238 529.389 957.238 514.778 988.111 505.635Z" fill="#CFC6B4"/>
<path d="M901.164 561.453C905.231 570.443 900.339 585.723 955.688 604.868C1004.96 621.908 1115.9 571.366 1106.03 561.639C1100.65 556.322 1053.61 552.247 1046.08 531.36C1036.7 505.353 1032.09 457.406 1031.07 414.642C1030.58 393.653 947.187 415.506 944.368 454.511C942.46 471.653 948.497 505.594 951.084 532.198C951.515 536.632 952.845 543.519 947.399 547.141C939.371 552.483 899.859 558.572 901.164 561.453Z" fill="#D69280"/>
<path d="M1031.57 415.425C1031.57 415.425 1034.97 436.649 1025.62 464.776C1016.71 491.572 987.749 532.385 959.8 529.453C956.32 529.089 951.847 526.483 948.872 515.931C944.607 500.793 937.867 479.093 937.936 458.511C939.252 418.279 1020.08 381.858 1031.57 415.425Z" fill="#C58075"/>
<path d="M949.871 524.578C946.794 527.223 939.189 534.511 943.486 538.596C955.635 552.856 1008.18 552.537 1043.25 504.507C1044.99 500.712 1041.87 499.616 1037.58 499.789C1037.58 499.772 1036.99 497.828 1036.99 497.831C1042.68 497.552 1048.61 498.892 1049.98 505.232C1052.94 516.399 1057.46 529.023 1059.97 532.947C1059.97 532.947 1061.06 537.542 1067.78 538.267C1075.38 540.081 1146.68 544.437 1168.14 562.69C1174.27 569.327 1181.58 608.637 1166.7 639.913C1151.82 671.188 1121.13 787.104 1099.54 833.264C1095.97 840.899 1083.4 867.393 1085.83 881.603C1088.26 895.812 1092.82 908.258 1092.82 908.258C1092.82 908.258 956.921 972.33 887.363 929.97C858.863 913.949 863.313 889.521 863.313 889.521L885.517 777.34C885.517 777.34 886.36 769.128 878.361 764.947C867.225 759.761 840.63 740.957 854.897 696.665C872.001 662.641 868.492 658.942 868.035 653.911C867.579 648.881 872.302 615.678 876.835 599.731C881.231 584.264 893.325 560.106 901.395 556.215C909.038 554.381 936.603 548.814 936.603 548.814C936.67 548.158 936.983 540.885 937.724 533.659C938.06 530.394 943.183 525.562 949.4 522.797C949.429 522.807 949.865 524.572 949.871 524.578Z" fill="#E3DFD4"/>
<path d="M1101.66 627.252C1099.42 638.246 1098.21 649.46 1098.09 660.691C1097.78 689.55 1100.79 718.426 1103.77 746.864C1106.96 777.426 1108.51 810.704 1096.62 839.539C1118.53 790.751 1127.07 756.25 1146.7 695.453C1147.28 690.593 1147.83 685.583 1148.37 680.412C1151 655.009 1156.36 629.618 1155.31 603.973C1154.9 593.76 1154.77 574.716 1146.77 566.938C1129.78 550.392 1115.29 585.448 1110.8 596.688C1106.85 606.562 1103.79 616.808 1101.66 627.252Z" fill="#D9D3C5"/>
<path d="M1143.21 710.29C1132.65 743.495 1122.49 776.848 1110.38 809.52C1103.35 829.984 1091.41 848.766 1087.26 870.204C1086.61 873.862 1086.27 877.58 1086.78 881.252C1088.32 890.306 1090.73 899.263 1093.74 907.907L1094.06 908.79L1093.23 909.167C1035.77 934.552 934.502 967.452 879.182 925.87C867.994 917.488 860.058 903.036 862.37 888.578L863.535 882.713C864.457 878.283 883.081 784.119 884.499 777.129C884.654 776.002 884.199 773.416 883.554 771.941C882.339 768.919 879.811 766.689 876.915 765.412L875.59 764.723C866.852 759.975 859.427 752.608 854.921 743.53C847.549 728.859 849.035 711.472 853.99 696.281C857.726 688.815 861.349 681.267 864.279 673.479C866.326 667.696 868.505 661.805 867.312 655.644C866.901 653.531 867.092 651.259 867.277 649.137C867.645 644.922 868.194 640.76 868.776 636.597C870.805 624.18 872.05 611.474 876.834 599.732C874.262 617.296 870.042 634.626 868.974 652.386C868.955 655.515 870.002 658.661 869.427 661.858C867.458 674.169 860.882 686.487 855.829 696.98C851.074 711.635 849.604 728.499 856.72 742.59C861.025 751.248 868.173 758.326 876.551 762.861L877.819 763.519C882.146 765.366 885.594 769.378 886.355 774.187C886.527 775.282 886.655 776.351 886.535 777.552C885.132 784.971 866.643 878.162 865.703 883.147L864.544 889.012C862.999 898.566 866.555 908.487 872.324 915.978C875.308 919.73 878.972 922.981 882.847 925.772C937.671 963.528 1036.29 932.031 1092.42 907.351L1091.91 908.611C1090.44 904.454 1089.18 900.277 1088.04 896.041C1086.68 890.729 1085.27 885.352 1084.68 879.876C1084.37 876.529 1084.78 873.129 1085.34 869.847C1089.52 848.181 1101.45 829.442 1108.55 808.802C1120.65 776.192 1130.81 742.843 1141.36 709.672L1143.21 710.29Z" fill="#CEC6B5"/>
<path d="M937.103 768.582C981.172 763.652 1025.55 790.78 1068.64 780.08C1034.73 786.359 998.545 775.287 965.926 786.667C981.718 784.376 997.95 785.346 1013.37 789.502" stroke="#CEC6B5" stroke-miterlimit="30"/>
<path d="M938.296 558.102C939.594 566.559 941.556 574.909 944.161 583.042C946.324 589.8 948.989 596.517 953.329 602.068C958.016 608.069 964.596 612.493 971.833 614.516C969.603 613.892 966.46 614.649 964.05 614.245C961.267 613.777 958.48 612.935 955.941 611.662C951.306 609.337 947.652 604.224 943.999 600.504C936.445 592.812 928.166 583.247 926.088 572.346C925.218 567.779 924.782 563.102 923.349 558.687C922.768 556.9 922.055 558.62 920.739 557.305C918.45 555.017 915.013 554.558 911.832 554.218C916.828 554.75 929.637 552.359 933.647 549.153C935.372 547.774 935.392 539.36 935.455 537.278C935.626 531.546 936.881 529.552 939.025 528.288C935.135 535.048 936.737 546.124 937.656 553.505C937.849 555.041 938.061 556.573 938.296 558.102Z" fill="#D9D3C5"/>
<path d="M940.648 596.248C940.648 596.248 936.838 593.246 934.693 586.091C932.548 578.934 936.422 536.979 936.422 536.979C936.422 536.979 936.245 526.852 948.734 522.327M1044.1 567.952L1062.72 550.576C1062.72 550.576 1066.1 546.541 1064.83 542.921M922.516 578.731C922.516 578.731 949.297 606.046 956.74 610.668C964.182 615.291 970.171 616.035 981.707 612.948C1004.94 606.73 1027 591.876 1045.12 576.203" stroke="#CEC6B5" stroke-width="2" stroke-linecap="round" stroke-linejoin="round"/>
<path d="M1168.14 562.69C1168.14 562.69 1116.6 534.226 1107.34 618.243C1103.43 653.712 1108.32 646.578 1116.03 716.815C1123.73 787.052 1107.22 916.452 1167.83 932.278C1198.6 935.592 1207.84 883.451 1206.28 860.7C1204.53 820.149 1190.54 710.891 1187.42 614.911C1185.79 580.199 1176.68 567.927 1168.14 562.69Z" fill="#E3DFD4"/>
<path d="M1135.3 775.883C1138.36 784.24 1141.58 792.562 1145.77 800.384C1152.56 813.068 1161.76 824.213 1169.3 836.443C1181.03 855.462 1188.65 877.121 1191.48 899.43C1192.68 908.836 1192.4 916.465 1187.74 924.658C1172.7 937.499 1160.98 932.5 1149.16 922.523C1111.21 888 1118.8 767.974 1118.32 751.712C1117.68 729.614 1116.09 713 1112.48 689.053C1107.3 657.5 1104.65 636.034 1107.37 610.223C1107.06 637.737 1107.24 663.036 1111.89 690.401C1116.85 719.611 1125.18 748.143 1135.3 775.883Z" fill="#D9D3C5"/>
<path d="M1109.08 602.736C1108.63 617.21 1106.83 631.658 1108.02 646.093C1108.64 653.268 1109.8 660.435 1110.83 667.624C1113.84 689.216 1116.95 710.827 1118.44 732.601C1121.79 783.015 1117.51 834.793 1130.15 884.053C1135.51 904.186 1146.87 925.861 1168.11 931.137C1182.92 933.238 1192.57 916.965 1197.44 904.331C1202.65 890.583 1205.87 875.541 1205.32 860.771L1207.26 860.631C1207.88 875.881 1204.7 890.968 1199.41 905.14C1194.27 918.59 1184.06 935.795 1167.65 933.439C1160.57 931.648 1153.89 927.999 1148.49 922.958C1135.07 910.287 1129.15 891.815 1125.27 874.077C1115.92 827.597 1119.02 779.819 1116.24 732.744C1114.81 711.043 1111.76 689.462 1108.82 667.927C1107.82 660.741 1106.67 653.561 1106.06 646.26C1105.49 638.951 1105.64 631.615 1106.04 624.353C1106.46 617.125 1106.77 609.573 1109.08 602.736Z" fill="#CEC6B5"/>
<path d="M992.376 703.689C989.994 706.722 987.115 710.959 990.599 712.596C994.074 714.232 1007.53 709.537 1019.13 699.078C1031.88 687.586 1035.59 677.715 1035.31 674.769C1034.76 668.979 1027.03 671.433 1024.19 673.472C1016.81 678.776 1001.07 692.613 992.376 703.689Z" fill="#CEC6B5"/>
<path d="M973.144 687.99C972.225 687.811 971.31 687.612 970.398 687.412C965.048 686.241 961.838 683.335 958.051 679.454C950.844 672.074 942.816 657.164 942.525 651.467C942.234 645.77 941.798 640.915 935.221 632.345C928.644 623.776 907.164 604.868 905.961 590.585C905.549 579.438 913.671 580.255 917.324 586.125C920.032 590.088 926.32 596.651 926.32 596.651L934.784 620.108C934.784 620.108 957.132 674.946 965.933 680.445C974.733 685.943 981.21 690.153 987.35 686.485C987.789 686.227 988.218 685.968 988.657 685.725C985.505 687.273 982.567 688.658 978.975 688.655C977.014 688.654 975.073 688.367 973.144 687.99Z" fill="#C58075"/>
<path d="M1004.28 721.096L981.328 690.318C981.328 690.318 956.794 681.834 948.232 657.708C939.671 633.582 924.288 589.988 919.548 583.053C914.809 576.118 888.55 558.782 886.277 552.292C884.003 545.803 886.082 543.574 886.082 543.574C886.082 543.574 870.149 530.274 872.782 519.895L873.377 514.792C873.377 514.792 867.873 508.721 867.38 505.314C866.089 496.396 870.958 494.381 870.958 494.381L935.728 564.556L951.204 578.062L1004.72 657.782C1004.72 657.782 1011.17 663 1016.91 670.694C1022.65 678.389 1044.13 696.452 1044.13 696.452L1004.28 721.096Z" fill="#D69280"/>
<path d="M886.108 545.145C886.305 542.414 887.532 540.6 889.658 539.588L935.259 570.845M872.78 519.894C872.78 519.894 873.04 513.126 877.33 514.564C879.211 515.196 887.647 522.482 896.508 529.907C907.861 539.421 924.617 552.765 923.262 551.856" stroke="#BD5F66" stroke-width="2" stroke-linecap="round" stroke-linejoin="round"/>
<path d="M991.185 712.88C991.185 712.88 1012.72 713.292 1032.04 681.687C1039.15 670.204 1024.66 674.346 1024.66 674.346C1024.66 674.346 1033.83 668.175 1040.48 677.915C1045.24 698.694 1160.53 815.565 1175.42 833.907C1190.53 853.711 1217.66 911.258 1182.83 933.422C1158.01 943.166 1106.67 902.589 1085.11 850.317C1050.14 788.404 1019.87 747.278 992.551 718.345C985.192 712.746 989.594 705.953 991.761 706.819C988.101 709.715 991.185 712.88 991.185 712.88Z" fill="#E3DFD4"/>
<path d="M991.185 712.88C991.185 712.88 1012.72 713.292 1032.04 681.687C1039.15 670.204 1024.66 674.346 1024.66 674.346C1024.66 674.346 1033.83 668.175 1040.48 677.915C1045.24 698.694 1160.53 815.565 1175.42 833.907C1190.53 853.711 1217.66 911.258 1182.83 933.422C1158.01 943.166 1106.67 902.589 1085.11 850.317C1050.14 788.404 1019.87 747.278 992.551 718.345C985.192 712.746 989.594 705.953 991.761 706.819C988.101 709.715 991.185 712.88 991.185 712.88Z" stroke="#CEC6B5" stroke-width="2" stroke-miterlimit="30"/>
<path d="M881.186 307.232C881.186 307.232 864.734 335.083 871.075 395.852C874.953 446.06 879.97 459.648 916.188 501.878C925.026 514.166 946.76 517.35 958.377 510.28C986.177 497.965 1019.4 464.757 1027.54 443.034C1030.34 435.352 1032 421.265 1032 421.265C1032 421.265 1036.28 424.634 1041.8 419.096C1044.56 416.899 1054.1 401.976 1052.2 373.104C1053.14 355.783 1054.15 290.412 1002.42 266.377C969.352 251.014 912.448 253.723 881.186 307.232Z" fill="#D69280"/>
<path d="M969.194 383.075C969.665 389.971 967.157 395.767 963.592 396.022C960.029 396.278 956.756 390.896 956.285 384C955.814 377.106 958.321 371.309 961.886 371.053C965.451 370.797 968.722 376.179 969.194 383.075Z" fill="#340C10"/>
<path d="M959.769 373.101C959.769 373.101 956.115 372.316 956.449 366.116" stroke="#340C10" stroke-width="2.285" stroke-linecap="round" stroke-linejoin="round"/>
<path d="M899.433 390.945C899.735 396.924 897.472 401.903 894.382 402.066C891.291 402.229 888.542 397.514 888.242 391.535C887.94 385.557 890.202 380.577 893.293 380.415C896.384 380.251 899.133 384.967 899.433 390.945Z" fill="#340C10"/>
<path d="M892.439 381.945C892.439 381.945 887.324 381.95 887.645 376.078" stroke="#340C10" stroke-width="2.087" stroke-linecap="round" stroke-linejoin="round"/>
<path d="M969.109 396.946C981.317 391.284 995.401 393.988 1000.99 402.755C1006.59 411.497 1001.95 423.488 990.248 429.789C978.038 436.361 962.831 434.301 956.739 424.908C950.627 415.484 956.383 402.849 969.109 396.946Z" fill="url(#paint1_radial_3_1247)" fill-opacity="0.65"/>
<path d="M896.805 415.846C903.278 424.264 902.043 434.028 895.555 437.6C890.024 440.645 881.969 438.332 876.609 432.536C876.116 432.003 875.653 431.448 875.219 430.874C875.009 430.626 872.691 413.124 872.57 413.179C872.839 412.703 873.143 412.247 873.487 411.813C878.695 405.22 889.819 406.759 896.805 415.846Z" fill="url(#paint2_radial_3_1247)" fill-opacity="0.65"/>
<path d="M1047.04 369.476C1046.07 365.851 1043.33 362.439 1039.34 361.745C1035.83 361.131 1032.45 364.04 1031.19 367.466C1029.75 371.406 1027.88 380.876 1029.94 384.728C1031.43 387.51 1033.67 388.707 1034.26 391.915C1034.92 395.478 1033.41 399.994 1031.69 403.021" stroke="#BD5F66" stroke-width="2.041" stroke-linecap="round" stroke-linejoin="round"/>
<path d="M1041 411.954C1041.14 413.67 1040.16 415.456 1038.79 415.997C1037.38 416.553 1036.04 415.615 1035.81 413.843C1035.59 412.019 1036.63 410.087 1038.13 409.589C1039.59 409.106 1040.86 410.191 1041 411.954Z" fill="#340C10"/>
<path d="M936.601 358.869C934.033 359.95 935.363 366.129 937.55 365.66C945.209 364.017 952.422 362.031 960.342 362.062C965.452 362.082 970.797 361.749 975.843 362.419C980.215 363 989.136 363.777 992.552 366.893C979.171 354.686 953.055 350.245 936.601 358.869Z" fill="#6D3429"/>
<path d="M876.792 375.238C884.855 370.488 894.417 370.901 902.432 371.046C904.212 370.432 905.105 365.645 902.93 364.027C899.124 362.335 882.961 363.796 875.486 372.421C872.212 376.199 869.645 380.718 869.569 380.894C870.262 380.911 872.876 377.706 876.792 375.238Z" fill="#6D3429"/>
<path d="M918.717 430.255C913.596 427.381 910.622 421.454 913.552 415.822L914.461 413.75C919.873 402.378 922.413 392.12 918.853 379.786C917.315 374.186 914.625 368.983 912.029 363.533C910.972 361.216 914.244 359.44 915.501 361.703C923.383 375.419 927.012 391.328 920.31 406.462C919.123 409.304 917.765 412.017 916.427 414.714C915.127 417.31 913.68 419.728 914.365 422.644C914.941 425.303 916.978 427.663 919.28 429.23C919.925 429.604 919.386 430.633 918.717 430.255Z" fill="#340C10"/>
<path d="M928.029 429.306C929.862 428.567 931.695 427.828 933.528 427.089C934.684 426.624 936.169 426.225 937.023 427.147C937.432 428.076 932.472 428.434 929.602 428.942" fill="#340C10"/>
<path d="M928.029 429.306C929.862 428.567 931.695 427.828 933.528 427.089C934.684 426.624 936.169 426.225 937.023 427.147C937.432 428.076 932.472 428.434 929.602 428.942" stroke="#340C10" stroke-width="1.02" stroke-miterlimit="10" stroke-linecap="round"/>
<path d="M992.405 347.876C996.729 349.138 1002.11 351.622 1004.2 355.701C1006.59 360.39 1008.13 367.025 1010.61 370.191C1011.53 371.353 1021.95 381.962 1022.65 377.842C1023.51 372.864 1026.64 355.193 1039.21 358.019C1049.49 360.334 1051.71 373.062 1052.16 381.582C1052.44 386.935 1050.05 406.288 1042.35 416.077C1040.69 418.19 1036.6 421.426 1032.94 419.624C1034.71 427.472 1034.35 434.708 1042.12 437.766C1046.04 439.307 1050.92 437.889 1053.16 434.258C1050.58 435.727 1047.62 437.243 1044.8 436.33C1043 435.745 1041.56 434.136 1041.14 432.249C1040.72 430.364 1041.34 428.272 1042.71 426.947C1042.07 428.3 1043.39 429.792 1044.72 430.442C1046.66 431.389 1049 431.655 1050.95 430.735C1053.9 429.336 1054.37 425.199 1054.44 422.218C1053.35 423.82 1051.57 424.915 1049.68 425.154C1044.35 425.828 1042.81 421.109 1043.69 417.837C1044.86 413.483 1047.63 409.323 1050.62 401.65C1052.73 395.188 1055.61 389.621 1058.76 377.185C1080.51 304.186 1034.59 244.497 958.712 250.627C941.945 251.837 926.022 257.496 905.039 265.569C878.675 279.053 863.361 305.938 860.578 337.598C859.243 352.79 868.428 380.921 869.797 381.839C869.825 375.975 868.984 372.302 870.624 365.366C872.12 359.036 877.929 355.444 880.04 354.69C880.239 329.73 889.03 307.173 899.561 297.337C892.348 305.615 888.287 330.514 894.396 352.076C895.479 350.201 927.596 343.652 952.318 342.752C953.087 342.692 952.136 340.374 952.663 339.797C953.116 339.301 953.96 322.759 955.24 316.898C954.564 325.378 960.799 339.03 967.278 343.22C966.212 342.572 981.864 344.796 992.405 347.876Z" fill="#7B3D2D"/>
<path d="M992.405 347.876C996.729 349.138 1002.11 351.622 1004.2 355.701C1006.59 360.39 1008.13 367.025 1010.61 370.191C1011.53 371.353 1021.95 381.962 1022.65 377.842C1023.51 372.864 1026.64 355.193 1039.21 358.019C1049.49 360.334 1051.71 373.062 1052.16 381.582C1052.44 386.935 1050.05 406.288 1042.35 416.077C1040.69 418.19 1036.6 421.426 1032.94 419.624C1034.71 427.472 1034.35 434.708 1042.12 437.766C1046.04 439.307 1050.92 437.889 1053.16 434.258C1050.58 435.727 1047.62 437.243 1044.8 436.33C1043 435.745 1041.56 434.136 1041.14 432.249C1040.72 430.364 1041.34 428.272 1042.71 426.947C1042.07 428.3 1043.39 429.792 1044.72 430.442C1046.66 431.389 1049 431.655 1050.95 430.735C1053.9 429.336 1054.37 425.199 1054.44 422.218C1053.35 423.82 1051.57 424.915 1049.68 425.154C1044.35 425.828 1042.81 421.109 1043.69 417.837C1044.86 413.483 1047.63 409.323 1050.62 401.65C1052.73 395.188 1055.61 389.621 1058.76 377.185C1080.51 304.186 1034.59 244.497 958.712 250.627C941.945 251.837 926.022 257.496 905.039 265.569C878.675 279.053 863.361 305.938 860.578 337.598C859.243 352.79 868.428 380.921 869.797 381.839C869.825 375.975 868.984 372.302 870.624 365.366C872.12 359.036 877.929 355.444 880.04 354.69C880.239 329.73 889.03 307.173 899.561 297.337C892.348 305.615 888.287 330.514 894.396 352.076C895.479 350.201 927.596 343.652 952.318 342.752C953.087 342.692 952.136 340.374 952.663 339.797C953.116 339.301 953.959 322.759 955.24 316.898C954.564 325.378 960.799 339.03 967.278 343.22C966.212 342.572 981.864 344.796 992.405 347.876Z" stroke="#5B2924" stroke-width="2" stroke-miterlimit="10"/>
<path d="M936.464 256.693C910.504 270.295 890.534 295.062 883.876 324.266C881.533 333.891 880.375 343.819 879.698 353.78C879.617 343.8 880.267 333.738 882.392 323.91C888.299 294.184 909.201 268.368 936.464 256.693ZM939.179 254.933C905.407 260.749 876.861 289.038 871.475 323.864C869.533 335.266 869.733 347.102 872.313 358.495C868.993 347.301 868.243 335.268 869.971 323.613C874.51 288.142 904.495 258.488 939.179 254.933ZM1003.08 258.09C998.758 290.677 993.302 325.91 1008.09 356.584C1011.69 364.058 1016.28 371.054 1021.71 377.318C1022.29 377.636 1022.35 378.664 1022.43 378.781C1013.65 370.123 1006.77 359.338 1002.52 347.619C992.18 318.78 997.206 287.359 1003.08 258.09ZM990.755 252.009C988.305 260.069 987.212 268.558 986.46 276.937C985.103 293.662 986.001 310.815 990.071 327.108C992.17 335.249 995.03 343.189 998.719 350.8C985.445 328.941 982.058 302.026 984.957 276.777C985.982 268.374 987.563 259.848 990.755 252.009ZM1020.44 266.839C1039.04 284.485 1049.83 309.908 1050.59 336.032C1051.06 346.214 1050.23 356.412 1048.42 366.373C1049.48 356.299 1049.78 346.167 1049.07 336.125C1047.46 308.723 1036.15 283.253 1016.9 264.535C1016.66 264.543 1020.33 266.896 1020.44 266.839ZM1006.84 259.462C1027.79 282.26 1035.56 315.993 1029.04 346.445C1026.93 357.247 1023.31 367.678 1018.67 377.544C1022.61 367.361 1025.71 356.869 1027.55 346.156C1033.3 315.368 1025.61 282.446 1005.63 258.588C1004.72 257.502 1005.55 258.061 1006.84 259.462ZM966.811 275.542C960.06 296.661 959.879 319.748 965.156 341.226C964.272 340.606 962.71 339.59 962.193 338.721C958.851 334.02 956.803 328.453 955.704 322.79C955.316 320.737 955.121 318.654 955.082 316.577C956.081 324.163 958.855 331.634 963.406 337.715C963.697 338.082 964.061 338.451 964.293 338.593L963.088 339.513C961.7 334.256 960.713 328.885 960.152 323.465C958.47 307.291 960.302 290.464 966.811 275.542ZM895.198 351.214C888.034 331.516 890.586 308.154 901.452 290.285C909.845 276.81 922.073 266.705 934.854 257.925C939.262 255.164 944.036 253.193 948.836 251.424C941.761 254.531 935.153 258.358 929.303 263.463C923.33 268.286 917.533 273.417 912.372 279.129C906.347 285.733 901.238 293.247 897.908 301.63C891.875 317.248 890.515 335.01 895.198 351.214ZM983.571 251.998C967.769 268.557 960.597 292.42 956.097 314.83C954.352 323.986 953.011 333.24 952.328 342.588C952.252 333.211 953.091 323.819 954.598 314.548C958.39 292.1 965.904 267.615 982.419 251.787C982.468 251.916 983.571 251.998 983.571 251.998ZM933.104 343.976C931.073 324.89 933.706 305.322 939.922 287.226C944.738 273.825 951.313 260.078 962.737 251.3C963.196 250.962 963.664 250.634 964.139 250.318C964.308 250.102 965.673 250.109 965.601 250.314C964.814 250.866 964.052 251.455 963.319 252.079C952.601 261.247 946.475 274.709 941.759 287.897C935.539 305.819 932.62 324.95 933.104 343.976ZM946.918 252.658C907.869 267.429 865.874 303.694 870.491 350.301C870.788 354.19 871.993 357.92 872.542 361.756C872.583 362.526 872.612 363.327 873.025 363.999C872.569 363.358 872.484 362.531 872.396 361.77C872.234 360.492 871.565 358.556 871.232 357.272C870.6 355.022 870.142 352.714 869.759 350.404C862.909 303.537 906.7 264.773 946.918 252.658ZM927.619 256.127C922.581 259.253 917.113 261.627 912.137 264.85C907.122 267.973 902.392 271.551 897.985 275.496C875.788 295.209 863.229 325.246 864.326 355.297C864.466 359.769 864.808 364.356 865.619 368.75C866.012 370.183 866.939 371.413 867.93 372.519C866.871 371.482 865.852 370.315 865.338 368.844C864.601 365.941 864.212 362.843 863.801 359.878C859.853 328.005 872.792 294.736 896.998 274.316C901.559 270.412 906.478 266.958 911.658 264.007C916.844 261.03 922.366 258.87 927.619 256.127ZM949.029 251.632C922.795 265.149 908.614 291.995 906.906 321.392C906.437 330.902 907.697 340.623 911.536 349.471C909.255 345.239 907.697 340.603 906.666 335.858C903.704 321.491 906.105 306.459 910.847 292.784C917.277 274.455 931.438 258.962 949.029 251.632Z" fill="#5B2924"/>
<path d="M1043.19 396.731L1051.85 402.279L1055.29 394.892L1045.47 391.106L1043.19 396.731ZM1047 386.016L1056.19 389.689L1057.37 384.089L1048.03 381.284L1047 386.016Z" fill="#EEB657"/>
<path d="M915.431 218.853C900.629 225.706 899.234 249.562 915.184 256.05C919.805 257.93 924.948 257.892 929.901 257.437C935.27 256.946 941.035 255.964 946.151 254.18C951.359 252.364 956.677 251.821 962.225 251.584C969.511 251.273 977.189 251.534 984.49 253.002C988.199 253.746 991.849 254.798 995.372 256.199C998.828 257.575 1001.62 259.862 1004.98 261.306C1009.25 263.148 1014.11 264.08 1018.56 262.303C1021.36 261.187 1023.73 259.114 1025.67 256.772C1032.96 248.03 1034.16 237.956 1029.05 227.726C1023.93 217.498 1011.98 211.204 1000.97 213.392C989.956 215.579 981.044 226.384 981.259 237.874C975.889 222.519 958.572 220.941 959.403 239.831C945.005 230.974 937.163 208.791 915.431 218.853Z" fill="#E65680"/>
<path d="M1187.36 1241.4C1187.36 1241.4 1193.4 1118.38 1154.72 1022.27C1119.99 916.25 1097.19 873.856 1097.19 873.856C1097.19 873.856 1089.61 885.425 1048.34 893.462C976.025 907.547 872.98 897.095 853.961 871.664L840.421 924.177C840.421 924.177 787.34 1023.09 784.438 1276.74C787.34 1274.76 948.841 1276.74 948.841 1276.74C948.841 1276.74 963.827 1175 968.11 1124.31C969.077 1123.32 973.841 1120.36 980.615 1120.36C987.379 1120.36 990.668 1174 1024.89 1277.07C1024.89 1277.07 1193.16 1290.94 1187.36 1241.4Z" fill="#B9AE96"/>
<path d="M799.685 1077.63C799.685 1077.63 799.027 1077.75 807.731 1064.87C816.434 1051.99 841.578 955.882 841.578 955.882L843.513 943.001M1073.17 949.983C1078.95 973.686 1093.64 1032.03 1099.79 1039.11C1107.52 1048.03 1123.96 1065.86 1133.64 1069.83C1143.31 1073.79 1170.41 1072.76 1170.41 1072.76M911.638 965.46L912.497 1038.12C912.497 1038.12 915.506 1081.27 921.953 1086.56C928.4 1091.84 952.899 1091.4 952.899 1091.4C952.899 1091.4 941.294 1058.82 942.154 1030.19C943.015 1001.53 943.443 967.661 943.443 967.661L911.638 965.46Z" stroke="#9A967E" stroke-width="2" stroke-miterlimit="10"/>
<path d="M960.892 1143.94C948.292 1145.21 935.487 1144.29 923.183 1141.24C934.395 1135.08 946.17 1130 958.305 1126.08C941.386 1128.56 924.031 1127.89 907.343 1124.1C926.025 1124.2 932.995 1122.79 951.676 1122.89C947.945 1120.51 944.404 1117.82 941.105 1114.84C943.233 1118.98 948.524 1120.4 953.037 1119.68C957.55 1118.95 961.632 1116.61 965.914 1114.98C972.863 1112.34 980.488 1111.59 987.799 1112.83C980.752 1112.2 973.708 1111.57 966.662 1110.94C985.281 1104.23 1004.15 1097.45 1023.81 1095.76C1010.25 1104.35 995.675 1111.29 980.517 1116.38C984.929 1116.29 989.8 1116.08 994.201 1115.99C989.624 1117.06 985.037 1118.14 980.459 1119.21C976.789 1120.07 973.113 1120.93 969.518 1122.08C967.516 1122.72 965.538 1123.44 963.508 1123.98C959.697 1124.98 955.715 1125.3 951.798 1124.91" stroke="#A8A088" stroke-width="2" stroke-miterlimit="10"/>
<path d="M1127.48 1140.46C1127.48 1140.46 1139.61 1266.87 1141.27 1270.72C1143.36 1275.59 1149.86 1277.89 1149.86 1277.89C1149.86 1277.89 1198.56 1277 1199.62 1248.69C1204.42 1205 1185.98 1115.4 1185.98 1115.4L1127.48 1140.46Z" fill="#BDB29A"/>
<path d="M1127.48 1140.46C1127.48 1140.46 1139.61 1266.87 1141.27 1270.72C1143.36 1275.59 1149.86 1277.89 1149.86 1277.89C1149.86 1277.89 1198.56 1277 1199.62 1248.69C1204.42 1205 1185.98 1115.4 1185.98 1115.4L1127.48 1140.46Z" stroke="#9A967E" stroke-width="2" stroke-miterlimit="10"/>
<path d="M1119.64 1094.99C1127.19 1094.28 1159.52 1090.87 1176.13 1083.3C1178.21 1082.35 1180.61 1083.5 1181.25 1085.74C1183.01 1091.92 1186.34 1102.9 1188.17 1108.91C1189.12 1112.04 1192.83 1127.44 1191.47 1130.41C1186.99 1140.08 1155.62 1149.5 1123.01 1150.38C1119.47 1150.89 1119.04 1106.05 1118.2 1096.77C1118.11 1095.87 1118.76 1095.07 1119.64 1094.99Z" fill="#BDB29A"/>
<path d="M1119.64 1094.99C1127.19 1094.28 1159.52 1090.87 1176.13 1083.3C1178.21 1082.35 1180.61 1083.5 1181.25 1085.74C1183.01 1091.92 1186.34 1102.9 1188.17 1108.91C1189.12 1112.04 1192.83 1127.44 1191.47 1130.41C1186.99 1140.08 1155.62 1149.5 1123.01 1150.38C1119.47 1150.89 1119.04 1106.05 1118.2 1096.77C1118.11 1095.87 1118.76 1095.07 1119.64 1094.99Z" stroke="#9A967E" stroke-width="2" stroke-miterlimit="10"/>
<path d="M800.145 1142.87L798.627 1235.9C798.627 1235.9 793.817 1260.79 787.334 1263.6C780.85 1266.42 785.679 1129.65 785.679 1129.65L800.145 1142.87Z" fill="#BDB29A"/>
<path d="M800.145 1142.87L798.627 1235.9C798.627 1235.9 793.817 1260.79 787.334 1263.6C780.85 1266.42 785.679 1129.65 785.679 1129.65L800.145 1142.87Z" stroke="#9A967E" stroke-width="2" stroke-miterlimit="10"/>
<path d="M793.889 1112.99C790.123 1116.65 787.36 1120.02 785.542 1123.12C783.048 1127.35 779.847 1130.5 782.714 1137.86L787.673 1154.97C788.557 1156.42 791.015 1157.16 792.199 1155.95L800.145 1142.87C800.145 1142.87 794.27 1121.59 793.889 1112.99Z" fill="#BDB29A"/>
<path d="M793.889 1112.99C790.123 1116.65 787.36 1120.02 785.542 1123.12C783.048 1127.35 779.847 1130.5 782.714 1137.86L787.673 1154.97C788.557 1156.42 791.015 1157.16 792.199 1155.95L800.145 1142.87C800.145 1142.87 794.27 1121.59 793.889 1112.99Z" stroke="#9A967E" stroke-width="2" stroke-miterlimit="10"/>
<path d="M933.93 931.115C940.072 932.107 944.493 936.545 943.803 941.026C943.113 945.509 937.575 948.338 931.432 947.346C925.29 946.353 920.869 941.916 921.559 937.434C922.248 932.952 927.787 930.122 933.93 931.115ZM936.841 905.666C942.537 906.586 946.636 910.701 945.997 914.856C945.358 919.013 940.221 921.637 934.525 920.716C928.829 919.796 924.731 915.682 925.37 911.526C926.009 907.369 931.145 904.746 936.841 905.666Z" fill="#9A967E"/>
<g style="mix-blend-mode:multiply">
<path d="M843.967 909.642C848.06 954.794 1002.69 956.491 1110.12 898.287C1110.11 898.501 1121.7 930.875 1121.74 930.947C1087.14 952.618 1002.03 974.38 931.871 966.782C863.605 959.388 842.722 942.269 838.404 927.539C838.528 927.501 840.48 924 840.319 924.176C841.79 917.94 844.141 909.375 843.967 909.642Z" fill="#B9AE96" fill-opacity="0.12"/>
</g>
<path d="M833.134 935.515C833.134 935.515 921.675 1008.18 1122.82 934.634" stroke="#9A967E" stroke-width="2" stroke-miterlimit="10"/>
<path d="M1009.5 974.029C1014.23 974.469 1046.55 969.236 1050.12 966.781C1056.98 962.062 1049.66 898.543 1042.78 894.139C1030.41 895.458 1019.35 895.112 1001.19 897.754C1006.28 918 1009.21 947 1009.5 974.029Z" fill="#BDB29A"/>
<path d="M1009.5 974.029C1014.23 974.469 1046.55 969.236 1050.12 966.781C1056.98 962.062 1049.66 898.543 1042.78 894.139C1030.41 895.458 1019.35 895.112 1001.19 897.754C1006.28 918 1009.21 947 1009.5 974.029Z" stroke="#9A967E" stroke-width="2" stroke-miterlimit="10"/>
<path d="M1079.79 881.765C1093.76 898.279 1100.42 930.646 1104.29 951.123C1113.55 948.673 1125.57 946.5 1130.56 941.68C1126.22 919.123 1122.19 908.625 1097.08 874.227C1091.08 876.625 1087.02 878.662 1079.79 881.765Z" fill="#BDB29A"/>
<path d="M1079.79 881.765C1093.76 898.279 1100.42 930.646 1104.29 951.123C1113.55 948.673 1125.57 946.5 1130.56 941.68C1126.22 919.123 1122.19 908.625 1097.08 874.227C1091.08 876.625 1087.02 878.662 1079.79 881.765Z" stroke="#9A967E" stroke-width="2" stroke-miterlimit="10"/>
<path d="M845.759 957.716C845.759 957.716 835.744 951.26 833.134 947.845C829.787 943.466 852.274 870.841 853.765 871.221C856.218 873.193 853.849 876.427 867.249 882.413C858.288 898.945 850.958 928.844 845.759 957.716Z" fill="#BDB29A"/>
<path d="M845.759 957.716C845.759 957.716 835.744 951.26 833.134 947.845C829.787 943.466 852.274 870.841 853.765 871.221C856.218 873.193 853.849 876.427 867.249 882.413C858.288 898.945 850.958 928.844 845.759 957.716Z" stroke="#9A967E" stroke-width="2" stroke-miterlimit="10"/>
<path d="M961.693 457.285C961.973 458.037 952.671 459.618 942.347 462.676C932.022 465.735 924.394 469.105 923.418 468.534C922.441 467.964 928.953 463.558 940.068 460.292C951.182 457.026 961.507 456.585 961.693 457.285Z" fill="#263238"/>
<g opacity="0.999999">
<path d="M187.7 564.743L539.899 204.98C542.582 202.239 546.958 202.359 549.495 205.242L564.44 222.228C566.871 224.992 566.677 229.246 564.005 231.765L198.571 576.279L187.7 564.743Z" fill="#340C10"/>
<path style="mix-blend-mode:soft-light" d="M203.717 559.283L446.806 303.695L205.153 547.111L203.717 559.283Z" fill="url(#paint3_linear_3_1247)"/>
<path d="M214.393 459.034L148.356 612.376L298.938 563.144L204.008 559.747L214.393 459.034Z" fill="#8B2224"/>
<g style="mix-blend-mode:overlay">
<path style="mix-blend-mode:soft-light" d="M214.563 459.068L148.527 612.41L190.482 573.238L214.563 459.068Z" fill="url(#paint4_linear_3_1247)"/>
</g>
</g>
</g>
<path d="M785.341 452.881L758.571 412.032C775.153 388.754 781.077 360.95 775.178 334.084C769.278 307.218 751.982 283.234 726.69 266.846C701.398 250.459 669.939 242.853 638.497 245.524C607.055 248.195 577.905 260.95 556.776 281.281C535.647 301.612 524.068 328.05 524.316 355.396C524.563 382.742 536.618 409.019 558.112 429.061C579.606 449.103 608.984 461.462 640.47 463.706C671.957 465.951 703.274 457.92 728.267 441.192L785.341 452.881Z" fill="#FAFAFA"/>
<path d="M785.336 452.882L728.142 441.58H727.573L727.933 441.166L728.471 441.658C720.462 447.036 711.748 451.577 702.51 455.188C691.501 459.459 679.845 462.348 667.894 463.768C661.279 464.566 654.595 464.853 647.921 464.623C644.477 464.468 640.974 464.39 637.44 464.131L626.78 462.731C602.125 458.549 579.451 448.147 561.611 432.834C543.771 417.521 531.564 397.982 526.526 376.677C522.883 360.57 523.394 343.966 528.023 328.051C532.755 311.429 541.994 296.022 554.973 283.106L560.124 278.207C561.801 276.548 563.837 275.174 565.663 273.671C567.49 272.167 569.317 270.612 571.413 269.342L577.402 265.428C579.388 264.103 581.48 262.899 583.66 261.825L590.068 258.456L596.776 255.656C598.967 254.671 601.227 253.805 603.543 253.064C621.517 246.914 640.861 244.345 660.138 245.548C678.37 246.622 696.107 251.153 712.092 258.819C740.762 272.676 762.198 295.526 771.981 322.66C775.869 334.206 777.717 346.196 777.461 358.222C776.803 377.412 770.295 396.11 758.596 412.42V412.083L785.037 453.089L758.236 412.213V412.032V411.876C763.405 404.542 767.575 396.713 770.663 388.548C774.322 378.694 776.339 368.439 776.652 358.092C776.863 346.174 774.985 334.298 771.082 322.867C761.321 296.029 740.035 273.456 711.613 259.804C695.794 252.288 678.265 247.864 660.258 246.844C641.23 245.614 622.126 248.094 604.352 254.101C602.047 254.846 599.797 255.712 597.614 256.693L590.996 259.492L584.678 262.81C582.525 263.876 580.454 265.062 578.48 266.361L572.491 270.249C570.455 271.493 568.748 273.1 566.831 274.5C564.915 275.9 563.058 277.429 561.381 278.958L556.291 283.805C543.43 296.557 534.263 311.778 529.55 328.206C524.972 343.925 524.45 360.323 528.023 376.236C531.498 391.288 538.644 405.524 548.984 417.993C567.637 440.507 595.46 456.06 626.84 461.513L637.41 462.913C640.914 463.172 644.387 463.275 647.801 463.431C654.413 463.677 661.038 463.408 667.594 462.628C679.451 461.267 691.026 458.457 701.971 454.281C711.171 450.711 719.862 446.232 727.873 440.932L730.208 439.377L728.412 441.399L728.202 440.881L785.336 452.882Z" fill="#263238"/>
<path d="M567.46 366.101L570.664 359.932C574.631 362.318 579.339 363.61 584.169 363.639C589.769 363.639 592.074 362.006 592.074 359.829C592.074 353.193 568.119 357.755 568.119 344.588C568.119 338.574 573.718 333.572 585.367 333.572C590.339 333.483 595.246 334.567 599.561 336.708L596.566 342.929C593.247 341.226 589.491 340.264 585.636 340.129C580.007 340.129 577.851 341.97 577.851 344.199C577.851 350.731 601.806 346.221 601.806 359.233C601.806 365.142 596.147 370.223 584.439 370.223C578.423 370.4 572.492 368.96 567.46 366.101Z" fill="#263238"/>
<path d="M605.01 355.992C605.01 347.776 612.317 341.97 622.318 341.97C632.32 341.97 639.536 347.776 639.536 355.992C639.536 364.209 632.29 370.015 622.288 370.015C612.287 370.015 605.01 364.183 605.01 355.992ZM630.313 355.992C630.185 354.641 629.605 353.351 628.643 352.281C627.681 351.211 626.379 350.407 624.898 349.967C623.416 349.527 621.818 349.471 620.3 349.805C618.782 350.14 617.409 350.85 616.35 351.849C615.291 352.848 614.591 354.093 614.337 355.431C614.083 356.769 614.285 358.142 614.918 359.382C615.551 360.622 616.589 361.675 617.903 362.413C619.217 363.151 620.752 363.541 622.318 363.535C623.434 363.547 624.541 363.355 625.565 362.972C626.589 362.589 627.509 362.023 628.263 361.311C629.018 360.599 629.591 359.757 629.944 358.841C630.297 357.924 630.423 356.954 630.313 355.992Z" fill="#263238"/>
<path d="M665.169 341.97V349.253C664.42 349.253 663.821 349.253 663.132 349.253C661.971 349.162 660.801 349.299 659.709 349.654C658.617 350.008 657.631 350.571 656.825 351.301C656.019 352.031 655.414 352.909 655.055 353.869C654.695 354.829 654.59 355.848 654.748 356.848V369.808H645.765V342.359H654.508V345.961C655.787 344.607 657.422 343.537 659.277 342.843C661.132 342.148 663.153 341.849 665.169 341.97Z" fill="#263238"/>
<path d="M690.143 341.97V349.253C689.364 349.253 688.795 349.253 688.077 349.253C683.046 349.253 679.722 351.638 679.722 356.848V369.808H670.739V342.359H679.453V345.962C680.739 344.608 682.38 343.54 684.239 342.846C686.099 342.151 688.123 341.851 690.143 341.97Z" fill="#263238"/>
<path d="M727.902 342.359L713.709 371.285C710.714 377.843 706.312 379.839 700.653 379.839C697.472 379.87 694.375 378.955 691.879 377.247L695.203 371.622C696.635 372.701 698.456 373.315 700.353 373.359C702.869 373.359 704.276 372.374 705.504 369.963V369.704L691.879 342.255H701.282L710.265 360.736L719.248 342.255L727.902 342.359Z" fill="#263238"/>
<path d="M730.298 365.401C730.401 364.174 731.038 363.026 732.08 362.187C733.121 361.349 734.49 360.884 735.912 360.884C737.334 360.884 738.704 361.349 739.745 362.187C740.787 363.026 741.423 364.174 741.527 365.401C741.423 366.629 740.787 367.777 739.745 368.615C738.704 369.453 737.334 369.919 735.912 369.919C734.49 369.919 733.121 369.453 732.08 368.615C731.038 367.777 730.401 366.629 730.298 365.401ZM730.478 334.297H741.347L739.521 357.444H732.364L730.478 334.297Z" fill="#263238"/>
</g>
<defs>
<linearGradient id="paint0_linear_3_1247" x1="174.091" y1="516.399" x2="345.038" y2="755.547" gradientUnits="userSpaceOnUse">
<stop stop-color="#BCCED2"/>
<stop offset="0.5" stop-color="#DEE7E9" stop-opacity="0.5"/>
<stop offset="1" stop-color="white" stop-opacity="0"/>
</linearGradient>
<radialGradient id="paint1_radial_3_1247" cx="0" cy="0" r="1" gradientUnits="userSpaceOnUse" gradientTransform="translate(979.17 411.545) rotate(10.2405) scale(25.0896 25.6674)">
<stop stop-color="#E65680"/>
<stop offset="0.46" stop-color="#DE7480"/>
<stop offset="1" stop-color="#D69280"/>
</radialGradient>
<radialGradient id="paint2_radial_3_1247" cx="0" cy="0" r="1" gradientUnits="userSpaceOnUse" gradientTransform="translate(886.35 422.251) rotate(10.2405) scale(17.9203 18.333)">
<stop stop-color="#E65680"/>
<stop offset="0.46" stop-color="#DE7480"/>
<stop offset="1" stop-color="#D69280"/>
</radialGradient>
<linearGradient id="paint3_linear_3_1247" x1="299.686" y1="456.532" x2="408.099" y2="344.768" gradientUnits="userSpaceOnUse">
<stop stop-color="white"/>
<stop offset="0.5" stop-color="white" stop-opacity="0.5"/>
<stop offset="1" stop-color="white" stop-opacity="0"/>
</linearGradient>
<linearGradient id="paint4_linear_3_1247" x1="155.284" y1="534.825" x2="219.02" y2="535.561" gradientUnits="userSpaceOnUse">
<stop stop-color="white"/>
<stop offset="0.5" stop-color="white" stop-opacity="0.5"/>
<stop offset="1" stop-color="white" stop-opacity="0"/>
</linearGradient>
<clipPath id="clip0_3_1247">
<rect width="1425" height="1426" fill="white"/>
</clipPath>
</defs>
</svg>
