<svg width="1425" height="1426" viewBox="0 0 1425 1426" fill="none" xmlns="http://www.w3.org/2000/svg">
<g clip-path="url(#clip0_3_1247)">
<mask id="mask0_3_1247" style="mask-type:luminance" maskUnits="userSpaceOnUse" x="0" y="-74" width="1465" height="1500">
<path d="M1464.04 -74H0V1426H1464.04V-74Z" fill="white"/>
</mask>
<g mask="url(#mask0_3_1247)">
<mask id="mask1_3_1247" style="mask-type:luminance" maskUnits="userSpaceOnUse" x="0" y="-74" width="1465" height="1500">
<path d="M0 -74H1464.04V1426H0V-74Z" fill="white"/>
</mask>
<g mask="url(#mask1_3_1247)">
<mask id="mask2_3_1247" style="mask-type:luminance" maskUnits="userSpaceOnUse" x="0" y="-74" width="1465" height="1500">
<path d="M0 -74H1464.04V1426H0V-74Z" fill="white"/>
</mask>
<g mask="url(#mask2_3_1247)">
<path d="M1330.02 657.314C1330.02 996.52 1061.62 1271.5 730.546 1271.5C399.471 1271.5 131.082 996.52 131.082 657.314C131.082 318.108 399.471 43.127 730.546 43.127C1061.62 43.127 1330.02 318.108 1330.02 657.314Z" fill="#F7F1E5"/>
</g>
<mask id="mask3_3_1247" style="mask-type:luminance" maskUnits="userSpaceOnUse" x="0" y="-74" width="1465" height="1500">
<path d="M0 -74H1464.04V1426H0V-74Z" fill="white"/>
</mask>
<g mask="url(#mask3_3_1247)">
<path d="M538.713 946.319C577.81 872.29 546.615 750.44 456.88 654.021C367.852 558.36 251.989 520.445 178.263 556.636L179.364 545.558L140.647 586.144C79.4237 659.447 113.438 801.845 215.864 906.593C316.812 1009.83 449.005 1040.1 515.909 976.558L554.97 944.437L538.713 946.319Z" fill="#493628"/>
<path d="M494.05 615.308C599.748 723.602 630.228 867.953 562.131 937.724C494.031 1007.5 353.142 976.267 247.444 867.973C141.746 759.679 111.267 615.328 179.365 545.557C247.465 475.786 388.352 507.014 494.05 615.308Z" fill="#493628"/>
<path d="M483.097 625.556C394.922 535.215 277.403 509.149 220.611 567.335C163.82 625.522 189.262 745.927 277.438 836.268C365.612 926.609 483.129 952.675 539.921 894.487C596.713 836.301 571.272 715.896 483.097 625.556ZM526.089 865.777C480.66 912.322 381.722 886.419 305.105 807.92C228.489 729.422 203.204 628.053 248.633 581.508C294.063 534.963 393.002 560.867 469.619 639.365C546.236 717.864 571.518 819.232 526.089 865.777Z" fill="#F7F1E5"/>
<path d="M457.928 653.294C397.521 591.403 319.515 570.98 283.697 607.677C247.88 644.375 267.813 724.297 328.22 786.188C388.628 848.079 466.635 868.502 502.452 831.805C538.269 795.107 518.336 715.185 457.928 653.294ZM487.739 806.655C461.123 833.924 399.376 814.872 349.823 764.101C300.268 713.331 281.673 650.066 308.289 622.798C334.904 595.528 396.651 614.58 446.205 665.351C495.759 716.122 514.355 779.386 487.739 806.655Z" fill="#F7F1E5"/>
<path d="M436.315 677.39C395.302 635.37 346.128 617.623 326.48 637.753C306.833 657.883 324.152 708.267 365.165 750.288C406.179 792.308 455.354 810.053 475.001 789.924C494.648 769.794 477.328 719.41 436.315 677.39ZM461.75 773.1C447.473 787.727 409.437 772.473 376.791 739.026C344.148 705.58 329.258 666.609 343.534 651.981C357.812 637.354 395.848 652.608 428.493 686.054C461.137 719.5 476.027 758.473 461.75 773.1Z" fill="#F7F1E5"/>
<path d="M421.678 693.035C445.718 717.665 457.213 745.819 447.356 755.918C437.498 766.018 410.02 754.239 385.981 729.61C361.942 704.981 350.446 676.827 360.303 666.727C370.16 656.628 397.638 668.406 421.678 693.035Z" fill="#F7F1E5"/>
<path d="M417.899 696.909C436.847 716.323 446.456 737.954 439.362 745.223C432.266 752.492 411.153 742.647 392.205 723.233C373.256 703.819 363.647 682.188 370.743 674.919C377.838 667.65 398.95 677.495 417.899 696.909Z" fill="#493628"/>
<path d="M221.807 518.272C218.502 519.054 204.44 525.594 187.355 538.029C168.241 557.35 146.554 579.188 132.718 596.811C113.846 628.254 102.993 669.043 115.796 719.984C160.279 896.951 359.25 945.583 357.265 950.142C355.28 954.701 493.563 612.232 493.563 612.232C399.332 520.858 289.77 491.07 221.807 518.272Z" fill="url(#paint0_linear_3_1247)" fill-opacity="0.56"/>
</g>
</g>
<path d="M853.549 870.011C858.169 866.158 869.557 868.041 877.403 869.461L879.015 889.167L850.755 883.552L853.549 870.011ZM1079.52 869.02C1079.52 869.02 1098.75 864.947 1103.06 870.671C1107.35 876.396 1097.03 887.846 1097.03 887.846L1077.58 889.827L1079.52 869.02Z" fill="#777963"/>
<path d="M875.988 572.425C860.515 597.526 818.608 738.223 818.608 738.223C818.608 738.223 771.973 856.461 817.104 867.911C833.866 867.911 873.409 826.076 897.908 754.737C914.33 687.053 944.068 651.803 954.643 604.131C967.537 546.003 890.816 544.682 875.988 572.425Z" fill="#E3DFD4"/>
<path d="M902.308 562.558C876.923 579.046 868.545 617.274 863.976 647.344C860.49 670.276 859.738 693.504 859.063 716.665C858.442 738.029 855.609 759.873 856.834 780.997C858.618 811.785 847 843.214 825.922 865.209C853.536 849 881.597 802.001 898.001 754.833C908.926 702.251 941.867 653.5 952.91 610.266C951.855 597.965 949.689 585.888 945.993 574.963C943.554 567.75 939.695 560.103 932.662 557.586C922.445 553.931 911.12 556.835 902.308 562.558Z" fill="#D9D3C5"/>
<path d="M650.126 701.496C647.14 699.924 639.831 691.86 658.333 669.462C672.106 651.99 678.604 649.643 683.78 654.807C688.295 658.906 690.166 668.534 675.147 687.505C661.317 704.973 653.113 703.067 650.126 701.496Z" fill="#CFC6B4"/>
<path d="M690.16 736.236L653.376 697.967C653.376 697.967 647.204 692.996 640.321 688.587C630.383 682.224 623.968 682.721 616.84 680.824C607 678.855 574.963 663.928 568.693 661.156C562.423 658.386 553.128 652.432 553.128 652.432C553.128 652.432 532.256 645.868 522.309 639.4C512.36 632.931 502.601 625.691 501.695 623.841C500.789 621.99 500.934 617.669 507.258 616.736C513.583 615.802 526.848 625.969 530.615 627.508C534.382 629.046 552.706 635.151 552.706 635.151L552.887 632.281C552.887 632.281 533.498 623.3 529.965 621.838C528.105 621.068 520.452 616.979 511.893 611.331C504.917 606.327 495.472 596.42 493.185 592.667C490.995 586.497 495.778 582.074 500.137 583.176C502.642 583.555 509.256 588.926 515.07 593.831C523.77 599.232 532.647 604.975 533.949 605.549C533.96 605.526 557.242 613.47 557.21 613.425C557.096 613.151 558.045 613.038 557.423 612.614C552.225 610.002 534.423 602.457 534.158 602.302C531.971 601.038 524.578 596.663 517.166 591.607C508.772 585.881 500.408 578.945 499.855 578.521C496.235 575.6 494.032 574.4 493.774 571.794C494.606 565.003 502.033 560.753 509.963 567.378C513.393 569.878 540.606 587.255 542.305 588.046C544.006 588.838 563.332 595.338 562.668 594.875C559.666 593.369 547.107 588.186 543.557 585.795C536.961 581.354 528.026 576.39 525.754 574.88C522.859 572.453 509.367 562.114 508.85 560.866C507.227 556.948 512.72 550.131 521.65 554.673C527.212 557.501 529.048 557.392 536.299 563.048C542.157 566.59 547.175 570.264 553.376 573.752C560.201 575.656 573.375 581.304 578.165 582.586C587.459 585.073 597.289 588.245 606.639 589.679C608.469 589.96 610.173 590.27 611.685 590.527C616.7 591.378 614.931 585.875 613.232 583.814C607.916 577.356 600.472 570.848 598.343 568.788C595.534 566.072 583.867 552.946 589.32 542.004C590.252 539.706 593.822 537.287 596.33 539.187C601.951 543.447 601.057 546.307 613.32 553.819C621.096 558.584 621.471 562.488 624.29 565.76C627.109 569.033 631.507 576.116 639.625 581.581C648.525 587.573 656.245 597.561 659.414 605.21C663.361 614.738 662.863 631.197 663.266 634.521C663.667 637.845 665.24 643.831 676.308 652.887C682.469 657.926 769.922 731.151 769.922 731.151L690.16 736.236Z" fill="#D69280"/>
<path d="M615.158 590.364C609.462 591.67 595.232 588.224 577.64 582.628C571.116 580.553 556.951 574.972 553.964 573.866C550.978 572.759 536.743 562.926 535.565 562.439C524.202 553.319 516.294 551.084 511.83 554.26C511.83 554.26 506.172 557.46 510.263 561.231C514.354 565.003 527.416 575.605 527.416 575.605L545.124 586.963L566.726 595.516M555.097 647.94C550.39 635.49 551.904 627.142 556.744 614.601C561.35 602.666 568.487 591.049 577.865 583.097M624.833 656.944C618.011 647.23 615.689 634.884 615.489 622.918C615.288 610.952 615.712 600.403 616.168 588.445" stroke="#C58075" stroke-width="2" stroke-linecap="round" stroke-linejoin="round"/>
<path d="M645.959 696.938C645.577 695.427 645.426 693.773 645.907 692.367C645.886 692.395 647.295 693.397 647.204 693.401C646.973 694.269 647.132 695.195 647.361 695.88C648.293 698.973 651.721 701.968 658.693 698.935C671.115 692.994 691.115 662.23 680.645 653.867C679.591 652.801 678.206 652.417 677.632 652.934C676.994 652.691 676.711 652.283 676.616 652.032C677.172 650.982 679.482 650.427 680.917 651.776C714.861 683.627 739.163 699.817 788.24 739.022C812.82 755.242 829.531 770.22 839.331 801.479C846.619 824.143 845.834 856.058 829.595 864.197C810.514 873.93 755.794 821.304 743.147 805.994C730.5 790.683 665.644 715.078 663.123 712.586C660.602 710.094 649.137 705.243 645.959 696.938Z" fill="#E3DFD4"/>
<path d="M825.985 865.274C804.392 868.032 755.07 820.428 743.147 805.994C730.5 790.683 665.644 715.078 663.123 712.586C660.602 710.094 649.137 705.243 645.959 696.938C645.577 695.427 645.426 693.773 645.907 692.367C645.886 692.395 647.295 693.397 647.204 693.401C646.973 694.269 647.132 695.195 647.361 695.88C648.293 698.973 651.721 701.968 658.693 698.935C671.115 692.994 691.115 662.23 680.645 653.867C679.591 652.801 678.206 652.417 677.632 652.934C676.994 652.691 676.711 652.283 676.616 652.032C677.172 650.982 679.482 650.427 680.917 651.776C714.861 683.627 739.163 699.817 788.239 739.022C804.402 749.688 817.164 759.817 826.795 774.391" stroke="#CEC6B5" stroke-width="2" stroke-miterlimit="1"/>
<path d="M939.854 245.33C939.854 245.33 936.064 202.234 980.146 191.669C1024.22 181.104 1092.93 207.84 1103.56 307.079C1106.03 341.651 1097.3 373.399 1076.15 411.859C1055.01 450.319 1070.8 497.793 1115.37 473.59C1115.37 473.59 1070.89 526.536 1033.86 503.628C1030.82 502.348 1030.44 490.307 1030.44 490.255C1030.67 507.211 1054.43 524.408 1069.38 514.343C1066.28 524.941 1053.35 535.973 1043.29 539.829C1016.61 550.051 982.362 539.023 972.482 511.582C973.249 513.713 970.516 520.978 970.445 523.726C970.316 528.597 972.432 533.338 972.415 537.962C972.391 545.077 975.021 542.904 968.429 546.742C964.614 548.963 957.2 548.149 952.945 548.218C928.783 548.614 918.936 542.938 908.887 520.023C905.311 511.874 907.2 511.318 897.383 515.789C891.625 518.412 886.288 523.316 879.684 523.549C873.789 523.754 867.882 522.724 862.387 520.526C859.751 519.471 849.958 511.169 848.281 511.413C891.663 505.121 926.326 453.745 929.931 411.699C923.955 410.636 919.02 440.625 902.274 441.581C905.028 434.724 920.379 439.011 929.567 373.644C938.753 308.277 939.854 245.33 939.854 245.33Z" fill="#6D3429"/>
<path d="M968.062 214.932C984.168 201.236 1006.53 196.265 1026.91 200.636C1058.62 207.437 1078.73 236.301 1081.4 268.406C1082.32 277.126 1081.69 286.077 1080.46 294.699C1075.99 329.311 1067.87 363.309 1063.85 397.968C1061.78 421.953 1056.26 453.656 1073.65 472.872C1079.33 479.131 1087.46 483.609 1095.96 483.053C1104.64 482.487 1111.37 476.077 1118.27 471.318C1114.81 473.855 1111.52 476.628 1107.93 479.014C1101.58 483.476 1093.82 484.951 1086.44 482.396C1081.29 480.694 1076.72 477.504 1072.96 473.546C1055.13 454.39 1060.11 421.966 1062.17 397.767C1066.39 358.757 1076.41 320.577 1079.94 281.519C1081.6 251.601 1067.68 219.295 1040.13 206.431C1017.04 195.411 988.102 198.706 968.062 214.932ZM977.678 218.09C985.886 208.385 999.14 207.275 1010.87 206.962C1042.34 204.341 1068.91 228.171 1080.32 256.71C1087.32 273.871 1088.87 292.856 1087.93 311.237C1087.22 323.517 1086.01 335.764 1083.46 347.805C1079.57 365.786 1073.02 383.012 1070.93 401.338C1070.25 407.407 1070.07 413.543 1070.55 419.653C1069.13 407.447 1070.68 395.065 1073.31 383.115C1077.46 365.209 1083.07 347.785 1084.68 329.398C1087.42 305.364 1087.65 280.148 1078.59 257.435C1067.6 229.56 1041.6 205.823 1010.9 207.936C999.238 207.949 986.15 208.742 977.678 218.09ZM1012.11 246.257C1037.11 253.071 1057.86 274.527 1064.04 300.339C1068.88 319.738 1066.39 340.165 1061.95 359.385C1056.08 384.845 1044.95 409.46 1045.25 435.986C1045.48 448.955 1048.71 462.12 1055.63 473.059C1066.1 489.764 1089.33 495.642 1106.45 486.344C1100.81 489.573 1094.39 491.247 1087.92 491.275C1081.47 491.288 1074.93 489.802 1069.14 486.834C1054.13 479.342 1046.95 462.026 1044.37 445.96C1040.18 415.929 1053.36 387.455 1060.14 358.936C1064.64 339.979 1067.08 319.896 1062.58 300.709C1056.76 275.084 1036.65 253.836 1012.11 246.257ZM1012.44 253.784C1024.55 261.017 1036.22 269.781 1044.43 281.621C1055.51 297.767 1059.27 318.408 1056.87 337.82C1052.83 371.871 1032.36 400.763 1025.14 433.837C1023.52 443.71 1023.93 453.992 1025.87 463.812C1026.53 467.087 1027.39 470.339 1028.59 473.422C1031.05 479.568 1035.99 484.406 1041.28 488.132C1057.27 499.156 1079.86 504.598 1096.87 492.812C1085.92 500.932 1071.34 501.766 1058.68 497.74C1049.17 494.732 1039.84 490.044 1032.85 482.605C1025.64 475.139 1023.85 464.036 1022.78 454.015C1022.18 447.205 1022.29 440.313 1023.39 433.523C1026.03 420.129 1031.33 407.514 1036.45 394.985C1045.55 373.415 1055.49 351.419 1055.94 327.567C1056.45 292.978 1040.4 271.241 1012.44 253.784ZM1023.78 231.711C1036.64 230.415 1049.34 236.972 1057.8 246.691C1066.43 256.564 1070.67 269.717 1072.11 282.696C1074.51 308.871 1066.64 334.436 1061.41 359.761C1065.05 334.342 1072.73 308.749 1070.18 282.911C1068.94 270.218 1064.79 257.514 1056.68 247.698C1048.6 237.947 1036.49 231.278 1023.78 231.711Z" fill="#5B2924"/>
<path d="M1024.82 404.021C1019.64 417.173 1015.77 430.879 1014.23 444.914C1011.72 469.079 1012.47 495.508 1027.01 515.79C1032.05 522.751 1038.72 528.839 1046.95 531.355C1049.77 532.24 1052.72 532.688 1055.67 532.679C1055.62 532.68 1054.08 533.644 1054.2 533.509C1050.75 533.476 1047.32 532.838 1044.12 531.632C1029.86 526.113 1020.85 511.976 1015.92 497.795C1011.26 484.219 1010.87 469.577 1011.71 455.365C1012.68 437.568 1017.37 420.081 1024.82 404.021Z" fill="#5B2924"/>
<path d="M850.686 511.684C858.983 515.502 868.59 515.741 877.41 513.465C886.23 511.188 894.327 506.527 901.599 500.927C906.96 496.799 912.049 491.98 914.982 485.8C915.11 485.531 915.223 485.176 915.021 484.96C914.819 484.743 914.391 485.176 914.663 485.284M848.415 512.372C866.738 512.488 885.006 505.102 898.316 492.198" stroke="#5B2924" stroke-miterlimit="10"/>
<path d="M988.111 505.635C1018.99 496.492 1046.05 496.279 1048.56 505.158C1051.06 514.038 1028.06 528.648 997.188 537.792C966.307 546.935 939.248 547.149 936.743 538.269C934.238 529.389 957.238 514.778 988.111 505.635Z" fill="#CFC6B4"/>
<path d="M901.164 561.453C905.231 570.443 900.339 585.723 955.688 604.868C1004.96 621.908 1115.9 571.366 1106.03 561.639C1100.65 556.322 1053.61 552.247 1046.08 531.36C1036.7 505.353 1032.09 457.406 1031.07 414.642C1030.58 393.653 947.187 415.506 944.368 454.511C942.46 471.653 948.497 505.594 951.084 532.198C951.515 536.632 952.845 543.519 947.399 547.141C939.371 552.483 899.859 558.572 901.164 561.453Z" fill="#D69280"/>
<path d="M1031.57 415.425C1031.57 415.425 1034.97 436.649 1025.62 464.776C1016.71 491.572 987.749 532.385 959.8 529.453C956.32 529.089 951.847 526.483 948.872 515.931C944.607 500.793 937.867 479.093 937.936 458.511C939.252 418.279 1020.08 381.858 1031.57 415.425Z" fill="#C58075"/>
<path d="M949.871 524.578C946.794 527.223 939.189 534.511 943.486 538.596C955.635 552.856 1008.18 552.537 1043.25 504.507C1044.99 500.712 1041.87 499.616 1037.58 499.789C1037.58 499.772 1036.99 497.828 1036.99 497.831C1042.68 497.552 1048.61 498.892 1049.98 505.232C1052.94 516.399 1057.46 529.023 1059.97 532.947C1059.97 532.947 1061.06 537.542 1067.78 538.267C1075.38 540.081 1146.68 544.437 1168.14 562.69C1174.27 569.327 1181.58 608.637 1166.7 639.913C1151.82 671.188 1121.13 787.104 1099.54 833.264C1095.97 840.899 1083.4 867.393 1085.83 881.603C1088.26 895.812 1092.82 908.258 1092.82 908.258C1092.82 908.258 956.921 972.33 887.363 929.97C858.863 913.949 863.313 889.521 863.313 889.521L885.517 777.34C885.517 777.34 886.36 769.128 878.361 764.947C867.225 759.761 840.63 740.957 854.897 696.665C872.001 662.641 868.492 658.942 868.035 653.911C867.579 648.881 872.302 615.678 876.835 599.731C881.231 584.264 893.325 560.106 901.395 556.215C909.038 554.381 936.603 548.814 936.603 548.814C936.67 548.158 936.983 540.885 937.724 533.659C938.06 530.394 943.183 525.562 949.4 522.797C949.429 522.807 949.865 524.572 949.871 524.578Z" fill="#E3DFD4"/>
<path d="M1101.66 627.252C1099.42 638.246 1098.21 649.46 1098.09 660.691C1097.78 689.55 1100.79 718.426 1103.77 746.864C1106.96 777.426 1108.51 810.704 1096.62 839.539C1118.53 790.751 1127.07 756.25 1146.7 695.453C1147.28 690.593 1147.83 685.583 1148.37 680.412C1151 655.009 1156.36 629.618 1155.31 603.973C1154.9 593.76 1154.77 574.716 1146.77 566.938C1129.78 550.392 1115.29 585.448 1110.8 596.688C1106.85 606.562 1103.79 616.808 1101.66 627.252Z" fill="#D9D3C5"/>
<path d="M1143.21 710.29C1132.65 743.495 1122.49 776.848 1110.38 809.52C1103.35 829.984 1091.41 848.766 1087.26 870.204C1086.61 873.862 1086.27 877.58 1086.78 881.252C1088.32 890.306 1090.73 899.263 1093.74 907.907L1094.06 908.79L1093.23 909.167C1035.77 934.552 934.502 967.452 879.182 925.87C867.994 917.488 860.058 903.036 862.37 888.578L863.535 882.713C864.457 878.283 883.081 784.119 884.499 777.129C884.654 776.002 884.199 773.416 883.554 771.941C882.339 768.919 879.811 766.689 876.915 765.412L875.59 764.723C866.852 759.975 859.427 752.608 854.921 743.53C847.549 728.859 849.035 711.472 853.99 696.281C857.726 688.815 861.349 681.267 864.279 673.479C866.326 667.696 868.505 661.805 867.312 655.644C866.901 653.531 867.092 651.259 867.277 649.137C867.645 644.922 868.194 640.76 868.776 636.597C870.805 624.18 872.05 611.474 876.834 599.732C874.262 617.296 870.042 634.626 868.974 652.386C868.955 655.515 870.002 658.661 869.427 661.858C867.458 674.169 860.882 686.487 855.829 696.98C851.074 711.635 849.604 728.499 856.72 742.59C861.025 751.248 868.173 758.326 876.551 762.861L877.819 763.519C882.146 765.366 885.594 769.378 886.355 774.187C886.527 775.282 886.655 776.351 886.535 777.552C885.132 784.971 866.643 878.162 865.703 883.147L864.544 889.012C862.999 898.566 866.555 908.487 872.324 915.978C875.308 919.73 878.972 922.981 882.847 925.772C937.671 963.528 1036.29 932.031 1092.42 907.351L1091.91 908.611C1090.44 904.454 1089.18 900.277 1088.04 896.041C1086.68 890.729 1085.27 885.352 1084.68 879.876C1084.37 876.529 1084.78 873.129 1085.34 869.847C1089.52 848.181 1101.45 829.442 1108.55 808.802C1120.65 776.192 1130.81 742.843 1141.36 709.672L1143.21 710.29Z" fill="#CEC6B5"/>
<path d="M937.103 768.582C981.172 763.652 1025.55 790.78 1068.64 780.08C1034.73 786.359 998.545 775.287 965.926 786.667C981.718 784.376 997.95 785.346 1013.37 789.502" stroke="#CEC6B5" stroke-miterlimit="30"/>
<path d="M938.296 558.102C939.594 566.559 941.556 574.909 944.161 583.042C946.324 589.8 948.989 596.517 953.329 602.068C958.016 608.069 964.596 612.493 971.833 614.516C969.603 613.892 966.46 614.649 964.05 614.245C961.267 613.777 958.48 612.935 955.941 611.662C951.306 609.337 947.652 604.224 943.999 600.504C936.445 592.812 928.166 583.247 926.088 572.346C925.218 567.779 924.782 563.102 923.349 558.687C922.768 556.9 922.055 558.62 920.739 557.305C918.45 555.017 915.013 554.558 911.832 554.218C916.828 554.75 929.637 552.359 933.647 549.153C935.372 547.774 935.392 539.36 935.455 537.278C935.626 531.546 936.881 529.552 939.025 528.288C935.135 535.048 936.737 546.124 937.656 553.505C937.849 555.041 938.061 556.573 938.296 558.102Z" fill="#D9D3C5"/>
<path d="M940.648 596.248C940.648 596.248 936.838 593.246 934.693 586.091C932.548 578.934 936.422 536.979 936.422 536.979C936.422 536.979 936.245 526.852 948.734 522.327M1044.1 567.952L1062.72 550.576C1062.72 550.576 1066.1 546.541 1064.83 542.921M922.516 578.731C922.516 578.731 949.297 606.046 956.74 610.668C964.182 615.291 970.171 616.035 981.707 612.948C1004.94 606.73 1027 591.876 1045.12 576.203" stroke="#CEC6B5" stroke-width="2" stroke-linecap="round" stroke-linejoin="round"/>
<path d="M1168.14 562.69C1168.14 562.69 1116.6 534.226 1107.34 618.243C1103.43 653.712 1108.32 646.578 1116.03 716.815C1123.73 787.052 1107.22 916.452 1167.83 932.278C1198.6 935.592 1207.84 883.451 1206.28 860.7C1204.53 820.149 1190.54 710.891 1187.42 614.911C1185.79 580.199 1176.68 567.927 1168.14 562.69Z" fill="#E3DFD4"/>
<path d="M1135.3 775.883C1138.36 784.24 1141.58 792.562 1145.77 800.384C1152.56 813.068 1161.76 824.213 1169.3 836.443C1181.03 855.462 1188.65 877.121 1191.48 899.43C1192.68 908.836 1192.4 916.465 1187.74 924.658C1172.7 937.499 1160.98 932.5 1149.16 922.523C1111.21 888 1118.8 767.974 1118.32 751.712C1117.68 729.614 1116.09 713 1112.48 689.053C1107.3 657.5 1104.65 636.034 1107.37 610.223C1107.06 637.737 1107.24 663.036 1111.89 690.401C1116.85 719.611 1125.18 748.143 1135.3 775.883Z" fill="#D9D3C5"/>
<path d="M1109.08 602.736C1108.63 617.21 1106.83 631.658 1108.02 646.093C1108.64 653.268 1109.8 660.435 1110.83 667.624C1113.84 689.216 1116.95 710.827 1118.44 732.601C1121.79 783.015 1117.51 834.793 1130.15 884.053C1135.51 904.186 1146.87 925.861 1168.11 931.137C1182.92 933.238 1192.57 916.965 1197.44 904.331C1202.65 890.583 1205.87 875.541 1205.32 860.771L1207.26 860.631C1207.88 875.881 1204.7 890.968 1199.41 905.14C1194.27 918.59 1184.06 935.795 1167.65 933.439C1160.57 931.648 1153.89 927.999 1148.49 922.958C1135.07 910.287 1129.15 891.815 1125.27 874.077C1115.92 827.597 1119.02 779.819 1116.24 732.744C1114.81 711.043 1111.76 689.462 1108.82 667.927C1107.82 660.741 1106.67 653.561 1106.06 646.26C1105.49 638.951 1105.64 631.615 1106.04 624.353C1106.46 617.125 1106.77 609.573 1109.08 602.736Z" fill="#CEC6B5"/>
<path d="M992.376 703.689C989.994 706.722 987.115 710.959 990.599 712.596C994.074 714.232 1007.53 709.537 1019.13 699.078C1031.88 687.586 1035.59 677.715 1035.31 674.769C1034.76 668.979 1027.03 671.433 1024.19 673.472C1016.81 678.776 1001.07 692.613 992.376 703.689Z" fill="#CEC6B5"/>
<path d="M973.144 687.99C972.225 687.811 971.31 687.612 970.398 687.412C965.048 686.241 961.838 683.335 958.051 679.454C950.844 672.074 942.816 657.164 942.525 651.467C942.234 645.77 941.798 640.915 935.221 632.345C928.644 623.776 907.164 604.868 905.961 590.585C905.549 579.438 913.671 580.255 917.324 586.125C920.032 590.088 926.32 596.651 926.32 596.651L934.784 620.108C934.784 620.108 957.132 674.946 965.933 680.445C974.733 685.943 981.21 690.153 987.35 686.485C987.789 686.227 988.218 685.968 988.657 685.725C985.505 687.273 982.567 688.658 978.975 688.655C977.014 688.654 975.073 688.367 973.144 687.99Z" fill="#C58075"/>
<path d="M1004.28 721.096L981.328 690.318C981.328 690.318 956.794 681.834 948.232 657.708C939.671 633.582 924.288 589.988 919.548 583.053C914.809 576.118 888.55 558.782 886.277 552.292C884.003 545.803 886.082 543.574 886.082 543.574C886.082 543.574 870.149 530.274 872.782 519.895L873.377 514.792C873.377 514.792 867.873 508.721 867.38 505.314C866.089 496.396 870.958 494.381 870.958 494.381L935.728 564.556L951.204 578.062L1004.72 657.782C1004.72 657.782 1011.17 663 1016.91 670.694C1022.65 678.389 1044.13 696.452 1044.13 696.452L1004.28 721.096Z" fill="#D69280"/>
<path d="M886.108 545.145C886.305 542.414 887.532 540.6 889.658 539.588L935.259 570.845M872.78 519.894C872.78 519.894 873.04 513.126 877.33 514.564C879.211 515.196 887.647 522.482 896.508 529.907C907.861 539.421 924.617 552.765 923.262 551.856" stroke="#BD5F66" stroke-width="2" stroke-linecap="round" stroke-linejoin="round"/>
<path d="M991.185 712.88C991.185 712.88 1012.72 713.292 1032.04 681.687C1039.15 670.204 1024.66 674.346 1024.66 674.346C1024.66 674.346 1033.83 668.175 1040.48 677.915C1045.24 698.694 1160.53 815.565 1175.42 833.907C1190.53 853.711 1217.66 911.258 1182.83 933.422C1158.01 943.166 1106.67 902.589 1085.11 850.317C1050.14 788.404 1019.87 747.278 992.551 718.345C985.192 712.746 989.594 705.953 991.761 706.819C988.101 709.715 991.185 712.88 991.185 712.88Z" fill="#E3DFD4"/>
<path d="M991.185 712.88C991.185 712.88 1012.72 713.292 1032.04 681.687C1039.15 670.204 1024.66 674.346 1024.66 674.346C1024.66 674.346 1033.83 668.175 1040.48 677.915C1045.24 698.694 1160.53 815.565 1175.42 833.907C1190.53 853.711 1217.66 911.258 1182.83 933.422C1158.01 943.166 1106.67 902.589 1085.11 850.317C1050.14 788.404 1019.87 747.278 992.551 718.345C985.192 712.746 989.594 705.953 991.761 706.819C988.101 709.715 991.185 712.88 991.185 712.88Z" stroke="#CEC6B5" stroke-width="2" stroke-miterlimit="30"/>
<path d="M881.186 307.232C881.186 307.232 864.734 335.083 871.075 395.852C874.953 446.06 879.97 459.648 916.188 501.878C925.026 514.166 946.76 517.35 958.377 510.28C986.177 497.965 1019.4 464.757 1027.54 443.034C1030.34 435.352 1032 421.265 1032 421.265C1032 421.265 1036.28 424.634 1041.8 419.096C1044.56 416.899 1054.1 401.976 1052.2 373.104C1053.14 355.783 1054.15 290.412 1002.42 266.377C969.352 251.014 912.448 253.723 881.186 307.232Z" fill="#D69280"/>
<path d="M969.194 383.075C969.665 389.971 967.157 395.767 963.592 396.022C960.029 396.278 956.756 390.896 956.285 384C955.814 377.106 958.321 371.309 961.886 371.053C965.451 370.797 968.722 376.179 969.194 383.075Z" fill="#340C10"/>
<path d="M959.769 373.101C959.769 373.101 956.115 372.316 956.449 366.116" stroke="#340C10" stroke-width="2.285" stroke-linecap="round" stroke-linejoin="round"/>
<path d="M899.433 390.945C899.735 396.924 897.472 401.903 894.382 402.066C891.291 402.229 888.542 397.514 888.242 391.535C887.94 385.557 890.202 380.577 893.293 380.415C896.384 380.251 899.133 384.967 899.433 390.945Z" fill="#340C10"/>
<path d="M892.439 381.945C892.439 381.945 887.324 381.95 887.645 376.078" stroke="#340C10" stroke-width="2.087" stroke-linecap="round" stroke-linejoin="round"/>
<path d="M969.109 396.946C981.317 391.284 995.401 393.988 1000.99 402.755C1006.59 411.497 1001.95 423.488 990.248 429.789C978.038 436.361 962.831 434.301 956.739 424.908C950.627 415.484 956.383 402.849 969.109 396.946Z" fill="url(#paint1_radial_3_1247)" fill-opacity="0.65"/>
<path d="M896.805 415.846C903.278 424.264 902.043 434.028 895.555 437.6C890.024 440.645 881.969 438.332 876.609 432.536C876.116 432.003 875.653 431.448 875.219 430.874C875.009 430.626 872.691 413.124 872.57 413.179C872.839 412.703 873.143 412.247 873.487 411.813C878.695 405.22 889.819 406.759 896.805 415.846Z" fill="url(#paint2_radial_3_1247)" fill-opacity="0.65"/>
<path d="M1047.04 369.476C1046.07 365.851 1043.33 362.439 1039.34 361.745C1035.83 361.131 1032.45 364.04 1031.19 367.466C1029.75 371.406 1027.88 380.876 1029.94 384.728C1031.43 387.51 1033.67 388.707 1034.26 391.915C1034.92 395.478 1033.41 399.994 1031.69 403.021" stroke="#BD5F66" stroke-width="2.041" stroke-linecap="round" stroke-linejoin="round"/>
<path d="M1041 411.954C1041.14 413.67 1040.16 415.456 1038.79 415.997C1037.38 416.553 1036.04 415.615 1035.81 413.843C1035.59 412.019 1036.63 410.087 1038.13 409.589C1039.59 409.106 1040.86 410.191 1041 411.954Z" fill="#340C10"/>
<path d="M936.601 358.869C934.033 359.95 935.363 366.129 937.55 365.66C945.209 364.017 952.422 362.031 960.342 362.062C965.452 362.082 970.797 361.749 975.843 362.419C980.215 363 989.136 363.777 992.552 366.893C979.171 354.686 953.055 350.245 936.601 358.869Z" fill="#6D3429"/>
<path d="M876.792 375.238C884.855 370.488 894.417 370.901 902.432 371.046C904.212 370.432 905.105 365.645 902.93 364.027C899.124 362.335 882.961 363.796 875.486 372.421C872.212 376.199 869.645 380.718 869.569 380.894C870.262 380.911 872.876 377.706 876.792 375.238Z" fill="#6D3429"/>
<path d="M918.717 430.255C913.596 427.381 910.622 421.454 913.552 415.822L914.461 413.75C919.873 402.378 922.413 392.12 918.853 379.786C917.315 374.186 914.625 368.983 912.029 363.533C910.972 361.216 914.244 359.44 915.501 361.703C923.383 375.419 927.012 391.328 920.31 406.462C919.123 409.304 917.765 412.017 916.427 414.714C915.127 417.31 913.68 419.728 914.365 422.644C914.941 425.303 916.978 427.663 919.28 429.23C919.925 429.604 919.386 430.633 918.717 430.255Z" fill="#340C10"/>
<path d="M928.029 429.306C929.862 428.567 931.695 427.828 933.528 427.089C934.684 426.624 936.169 426.225 937.023 427.147C937.432 428.076 932.472 428.434 929.602 428.942" fill="#340C10"/>
<path d="M928.029 429.306C929.862 428.567 931.695 427.828 933.528 427.089C934.684 426.624 936.169 426.225 937.023 427.147C937.432 428.076 932.472 428.434 929.602 428.942" stroke="#340C10" stroke-width="1.02" stroke-miterlimit="10" stroke-linecap="round"/>
<path d="M992.405 347.876C996.729 349.138 1002.11 351.622 1004.2 355.701C1006.59 360.39 1008.13 367.025 1010.61 370.191C1011.53 371.353 1021.95 381.962 1022.65 377.842C1023.51 372.864 1026.64 355.193 1039.21 358.019C1049.49 360.334 1051.71 373.062 1052.16 381.582C1052.44 386.935 1050.05 406.288 1042.35 416.077C1040.69 418.19 1036.6 421.426 1032.94 419.624C1034.71 427.472 1034.35 434.708 1042.12 437.766C1046.04 439.307 1050.92 437.889 1053.16 434.258C1050.58 435.727 1047.62 437.243 1044.8 436.33C1043 435.745 1041.56 434.136 1041.14 432.249C1040.72 430.364 1041.34 428.272 1042.71 426.947C1042.07 428.3 1043.39 429.792 1044.72 430.442C1046.66 431.389 1049 431.655 1050.95 430.735C1053.9 429.336 1054.37 425.199 1054.44 422.218C1053.35 423.82 1051.57 424.915 1049.68 425.154C1044.35 425.828 1042.81 421.109 1043.69 417.837C1044.86 413.483 1047.63 409.323 1050.62 401.65C1052.73 395.188 1055.61 389.621 1058.76 377.185C1080.51 304.186 1034.59 244.497 958.712 250.627C941.945 251.837 926.022 257.496 905.039 265.569C878.675 279.053 863.361 305.938 860.578 337.598C859.243 352.79 868.428 380.921 869.797 381.839C869.825 375.975 868.984 372.302 870.624 365.366C872.12 359.036 877.929 355.444 880.04 354.69C880.239 329.73 889.03 307.173 899.561 297.337C892.348 305.615 888.287 330.514 894.396 352.076C895.479 350.201 927.596 343.652 952.318 342.752C953.087 342.692 952.136 340.374 952.663 339.797C953.116 339.301 953.96 322.759 955.24 316.898C954.564 325.378 960.799 339.03 967.278 343.22C966.212 342.572 981.864 344.796 992.405 347.876Z" fill="#7B3D2D"/>
<path d="M992.405 347.876C996.729 349.138 1002.11 351.622 1004.2 355.701C1006.59 360.39 1008.13 367.025 1010.61 370.191C1011.53 371.353 1021.95 381.962 1022.65 377.842C1023.51 372.864 1026.64 355.193 1039.21 358.019C1049.49 360.334 1051.71 373.062 1052.16 381.582C1052.44 386.935 1050.05 406.288 1042.35 416.077C1040.69 418.19 1036.6 421.426 1032.94 419.624C1034.71 427.472 1034.35 434.708 1042.12 437.766C1046.04 439.307 1050.92 437.889 1053.16 434.258C1050.58 435.727 1047.62 437.243 1044.8 436.33C1043 435.745 1041.56 434.136 1041.14 432.249C1040.72 430.364 1041.34 428.272 1042.71 426.947C1042.07 428.3 1043.39 429.792 1044.72 430.442C1046.66 431.389 1049 431.655 1050.95 430.735C1053.9 429.336 1054.37 425.199 1054.44 422.218C1053.35 423.82 1051.57 424.915 1049.68 425.154C1044.35 425.828 1042.81 421.109 1043.69 417.837C1044.86 413.483 1047.63 409.323 1050.62 401.65C1052.73 395.188 1055.61 389.621 1058.76 377.185C1080.51 304.186 1034.59 244.497 958.712 250.627C941.945 251.837 926.022 257.496 905.039 265.569C878.675 279.053 863.361 305.938 860.578 337.598C859.243 352.79 868.428 380.921 869.797 381.839C869.825 375.975 868.984 372.302 870.624 365.366C872.12 359.036 877.929 355.444 880.04 354.69C880.239 329.73 889.03 307.173 899.561 297.337C892.348 305.615 888.287 330.514 894.396 352.076C895.479 350.201 927.596 343.652 952.318 342.752C953.087 342.692 952.136 340.374 952.663 339.797C953.116 339.301 953.959 322.759 955.24 316.898C954.564 325.378 960.799 339.03 967.278 343.22C966.212 342.572 981.864 344.796 992.405 347.876Z" stroke="#5B2924" stroke-width="2" stroke-miterlimit="10"/>
<path d="M936.464 256.693C910.504 270.295 890.534 295.062 883.876 324.266C881.533 333.891 880.375 343.819 879.698 353.78C879.617 343.8 880.267 333.738 882.392 323.91C888.299 294.184 909.201 268.368 936.464 256.693ZM939.179 254.933C905.407 260.749 876.861 289.038 871.475 323.864C869.533 335.266 869.733 347.102 872.313 358.495C868.993 347.301 868.243 335.268 869.971 323.613C874.51 288.142 904.495 258.488 939.179 254.933ZM1003.08 258.09C998.758 290.677 993.302 325.91 1008.09 356.584C1011.69 364.058 1016.28 371.054 1021.71 377.318C1022.29 377.636 1022.35 378.664 1022.43 378.781C1013.65 370.123 1006.77 359.338 1002.52 347.619C992.18 318.78 997.206 287.359 1003.08 258.09ZM990.755 252.009C988.305 260.069 987.212 268.558 986.46 276.937C985.103 293.662 986.001 310.815 990.071 327.108C992.17 335.249 995.03 343.189 998.719 350.8C985.445 328.941 982.058 302.026 984.957 276.777C985.982 268.374 987.563 259.848 990.755 252.009ZM1020.44 266.839C1039.04 284.485 1049.83 309.908 1050.59 336.032C1051.06 346.214 1050.23 356.412 1048.42 366.373C1049.48 356.299 1049.78 346.167 1049.07 336.125C1047.46 308.723 1036.15 283.253 1016.9 264.535C1016.66 264.543 1020.33 266.896 1020.44 266.839ZM1006.84 259.462C1027.79 282.26 1035.56 315.993 1029.04 346.445C1026.93 357.247 1023.31 367.678 1018.67 377.544C1022.61 367.361 1025.71 356.869 1027.55 346.156C1033.3 315.368 1025.61 282.446 1005.63 258.588C1004.72 257.502 1005.55 258.061 1006.84 259.462ZM966.811 275.542C960.06 296.661 959.879 319.748 965.156 341.226C964.272 340.606 962.71 339.59 962.193 338.721C958.851 334.02 956.803 328.453 955.704 322.79C955.316 320.737 955.121 318.654 955.082 316.577C956.081 324.163 958.855 331.634 963.406 337.715C963.697 338.082 964.061 338.451 964.293 338.593L963.088 339.513C961.7 334.256 960.713 328.885 960.152 323.465C958.47 307.291 960.302 290.464 966.811 275.542ZM895.198 351.214C888.034 331.516 890.586 308.154 901.452 290.285C909.845 276.81 922.073 266.705 934.854 257.925C939.262 255.164 944.036 253.193 948.836 251.424C941.761 254.531 935.153 258.358 929.303 263.463C923.33 268.286 917.533 273.417 912.372 279.129C906.347 285.733 901.238 293.247 897.908 301.63C891.875 317.248 890.515 335.01 895.198 351.214ZM983.571 251.998C967.769 268.557 960.597 292.42 956.097 314.83C954.352 323.986 953.011 333.24 952.328 342.588C952.252 333.211 953.091 323.819 954.598 314.548C958.39 292.1 965.904 267.615 982.419 251.787C982.468 251.916 983.571 251.998 983.571 251.998ZM933.104 343.976C931.073 324.89 933.706 305.322 939.922 287.226C944.738 273.825 951.313 260.078 962.737 251.3C963.196 250.962 963.664 250.634 964.139 250.318C964.308 250.102 965.673 250.109 965.601 250.314C964.814 250.866 964.052 251.455 963.319 252.079C952.601 261.247 946.475 274.709 941.759 287.897C935.539 305.819 932.62 324.95 933.104 343.976ZM946.918 252.658C907.869 267.429 865.874 303.694 870.491 350.301C870.788 354.19 871.993 357.92 872.542 361.756C872.583 362.526 872.612 363.327 873.025 363.999C872.569 363.358 872.484 362.531 872.396 361.77C872.234 360.492 871.565 358.556 871.232 357.272C870.6 355.022 870.142 352.714 869.759 350.404C862.909 303.537 906.7 264.773 946.918 252.658ZM927.619 256.127C922.581 259.253 917.113 261.627 912.137 264.85C907.122 267.973 902.392 271.551 897.985 275.496C875.788 295.209 863.229 325.246 864.326 355.297C864.466 359.769 864.808 364.356 865.619 368.75C866.012 370.183 866.939 371.413 867.93 372.519C866.871 371.482 865.852 370.315 865.338 368.844C864.601 365.941 864.212 362.843 863.801 359.878C859.853 328.005 872.792 294.736 896.998 274.316C901.559 270.412 906.478 266.958 911.658 264.007C916.844 261.03 922.366 258.87 927.619 256.127ZM949.029 251.632C922.795 265.149 908.614 291.995 906.906 321.392C906.437 330.902 907.697 340.623 911.536 349.471C909.255 345.239 907.697 340.603 906.666 335.858C903.704 321.491 906.105 306.459 910.847 292.784C917.277 274.455 931.438 258.962 949.029 251.632Z" fill="#5B2924"/>
<path d="M1043.19 396.731L1051.85 402.279L1055.29 394.892L1045.47 391.106L1043.19 396.731ZM1047 386.016L1056.19 389.689L1057.37 384.089L1048.03 381.284L1047 386.016Z" fill="#EEB657"/>
<path d="M915.431 218.853C900.629 225.706 899.234 249.562 915.184 256.05C919.805 257.93 924.948 257.892 929.901 257.437C935.27 256.946 941.035 255.964 946.151 254.18C951.359 252.364 956.677 251.821 962.225 251.584C969.511 251.273 977.189 251.534 984.49 253.002C988.199 253.746 991.849 254.798 995.372 256.199C998.828 257.575 1001.62 259.862 1004.98 261.306C1009.25 263.148 1014.11 264.08 1018.56 262.303C1021.36 261.187 1023.73 259.114 1025.67 256.772C1032.96 248.03 1034.16 237.956 1029.05 227.726C1023.93 217.498 1011.98 211.204 1000.97 213.392C989.956 215.579 981.044 226.384 981.259 237.874C975.889 222.519 958.572 220.941 959.403 239.831C945.005 230.974 937.163 208.791 915.431 218.853Z" fill="#E65680"/>
<path d="M1187.36 1241.4C1187.36 1241.4 1193.4 1118.38 1154.72 1022.27C1119.99 916.25 1097.19 873.856 1097.19 873.856C1097.19 873.856 1089.61 885.425 1048.34 893.462C976.025 907.547 872.98 897.095 853.961 871.664L840.421 924.177C840.421 924.177 787.34 1023.09 784.438 1276.74C787.34 1274.76 948.841 1276.74 948.841 1276.74C948.841 1276.74 963.827 1175 968.11 1124.31C969.077 1123.32 973.841 1120.36 980.615 1120.36C987.379 1120.36 990.668 1174 1024.89 1277.07C1024.89 1277.07 1193.16 1290.94 1187.36 1241.4Z" fill="#B9AE96"/>
<path d="M799.685 1077.63C799.685 1077.63 799.027 1077.75 807.731 1064.87C816.434 1051.99 841.578 955.882 841.578 955.882L843.513 943.001M1073.17 949.983C1078.95 973.686 1093.64 1032.03 1099.79 1039.11C1107.52 1048.03 1123.96 1065.86 1133.64 1069.83C1143.31 1073.79 1170.41 1072.76 1170.41 1072.76M911.638 965.46L912.497 1038.12C912.497 1038.12 915.506 1081.27 921.953 1086.56C928.4 1091.84 952.899 1091.4 952.899 1091.4C952.899 1091.4 941.294 1058.82 942.154 1030.19C943.015 1001.53 943.443 967.661 943.443 967.661L911.638 965.46Z" stroke="#9A967E" stroke-width="2" stroke-miterlimit="10"/>
<path d="M960.892 1143.94C948.292 1145.21 935.487 1144.29 923.183 1141.24C934.395 1135.08 946.17 1130 958.305 1126.08C941.386 1128.56 924.031 1127.89 907.343 1124.1C926.025 1124.2 932.995 1122.79 951.676 1122.89C947.945 1120.51 944.404 1117.82 941.105 1114.84C943.233 1118.98 948.524 1120.4 953.037 1119.68C957.55 1118.95 961.632 1116.61 965.914 1114.98C972.863 1112.34 980.488 1111.59 987.799 1112.83C980.752 1112.2 973.708 1111.57 966.662 1110.94C985.281 1104.23 1004.15 1097.45 1023.81 1095.76C1010.25 1104.35 995.675 1111.29 980.517 1116.38C984.929 1116.29 989.8 1116.08 994.201 1115.99C989.624 1117.06 985.037 1118.14 980.459 1119.21C976.789 1120.07 973.113 1120.93 969.518 1122.08C967.516 1122.72 965.538 1123.44 963.508 1123.98C959.697 1124.98 955.715 1125.3 951.798 1124.91" stroke="#A8A088" stroke-width="2" stroke-miterlimit="10"/>
<path d="M1127.48 1140.46C1127.48 1140.46 1139.61 1266.87 1141.27 1270.72C1143.36 1275.59 1149.86 1277.89 1149.86 1277.89C1149.86 1277.89 1198.56 1277 1199.62 1248.69C1204.42 1205 1185.98 1115.4 1185.98 1115.4L1127.48 1140.46Z" fill="#BDB29A"/>
<path d="M1127.48 1140.46C1127.48 1140.46 1139.61 1266.87 1141.27 1270.72C1143.36 1275.59 1149.86 1277.89 1149.86 1277.89C1149.86 1277.89 1198.56 1277 1199.62 1248.69C1204.42 1205 1185.98 1115.4 1185.98 1115.4L1127.48 1140.46Z" stroke="#9A967E" stroke-width="2" stroke-miterlimit="10"/>
<path d="M1119.64 1094.99C1127.19 1094.28 1159.52 1090.87 1176.13 1083.3C1178.21 1082.35 1180.61 1083.5 1181.25 1085.74C1183.01 1091.92 1186.34 1102.9 1188.17 1108.91C1189.12 1112.04 1192.83 1127.44 1191.47 1130.41C1186.99 1140.08 1155.62 1149.5 1123.01 1150.38C1119.47 1150.89 1119.04 1106.05 1118.2 1096.77C1118.11 1095.87 1118.76 1095.07 1119.64 1094.99Z" fill="#BDB29A"/>
<path d="M1119.64 1094.99C1127.19 1094.28 1159.52 1090.87 1176.13 1083.3C1178.21 1082.35 1180.61 1083.5 1181.25 1085.74C1183.01 1091.92 1186.34 1102.9 1188.17 1108.91C1189.12 1112.04 1192.83 1127.44 1191.47 1130.41C1186.99 1140.08 1155.62 1149.5 1123.01 1150.38C1119.47 1150.89 1119.04 1106.05 1118.2 1096.77C1118.11 1095.87 1118.76 1095.07 1119.64 1094.99Z" stroke="#9A967E" stroke-width="2" stroke-miterlimit="10"/>
<path d="M800.145 1142.87L798.627 1235.9C798.627 1235.9 793.817 1260.79 787.334 1263.6C780.85 1266.42 785.679 1129.65 785.679 1129.65L800.145 1142.87Z" fill="#BDB29A"/>
<path d="M800.145 1142.87L798.627 1235.9C798.627 1235.9 793.817 1260.79 787.334 1263.6C780.85 1266.42 785.679 1129.65 785.679 1129.65L800.145 1142.87Z" stroke="#9A967E" stroke-width="2" stroke-miterlimit="10"/>
<path d="M793.889 1112.99C790.123 1116.65 787.36 1120.02 785.542 1123.12C783.048 1127.35 779.847 1130.5 782.714 1137.86L787.673 1154.97C788.557 1156.42 791.015 1157.16 792.199 1155.95L800.145 1142.87C800.145 1142.87 794.27 1121.59 793.889 1112.99Z" fill="#BDB29A"/>
<path d="M793.889 1112.99C790.123 1116.65 787.36 1120.02 785.542 1123.12C783.048 1127.35 779.847 1130.5 782.714 1137.86L787.673 1154.97C788.557 1156.42 791.015 1157.16 792.199 1155.95L800.145 1142.87C800.145 1142.87 794.27 1121.59 793.889 1112.99Z" stroke="#9A967E" stroke-width="2" stroke-miterlimit="10"/>
<path d="M933.93 931.115C940.072 932.107 944.493 936.545 943.803 941.026C943.113 945.509 937.575 948.338 931.432 947.346C925.29 946.353 920.869 941.916 921.559 937.434C922.248 932.952 927.787 930.122 933.93 931.115ZM936.841 905.666C942.537 906.586 946.636 910.701 945.997 914.856C945.358 919.013 940.221 921.637 934.525 920.716C928.829 919.796 924.731 915.682 925.37 911.526C926.009 907.369 931.145 904.746 936.841 905.666Z" fill="#9A967E"/>
<g style="mix-blend-mode:multiply">
<path d="M843.967 909.642C848.06 954.794 1002.69 956.491 1110.12 898.287C1110.11 898.501 1121.7 930.875 1121.74 930.947C1087.14 952.618 1002.03 974.38 931.871 966.782C863.605 959.388 842.722 942.269 838.404 927.539C838.528 927.501 840.48 924 840.319 924.176C841.79 917.94 844.141 909.375 843.967 909.642Z" fill="#B9AE96" fill-opacity="0.12"/>
</g>
<path d="M833.134 935.515C833.134 935.515 921.675 1008.18 1122.82 934.634" stroke="#9A967E" stroke-width="2" stroke-miterlimit="10"/>
<path d="M1009.5 974.029C1014.23 974.469 1046.55 969.236 1050.12 966.781C1056.98 962.062 1049.66 898.543 1042.78 894.139C1030.41 895.458 1019.35 895.112 1001.19 897.754C1006.28 918 1009.21 947 1009.5 974.029Z" fill="#BDB29A"/>
<path d="M1009.5 974.029C1014.23 974.469 1046.55 969.236 1050.12 966.781C1056.98 962.062 1049.66 898.543 1042.78 894.139C1030.41 895.458 1019.35 895.112 1001.19 897.754C1006.28 918 1009.21 947 1009.5 974.029Z" stroke="#9A967E" stroke-width="2" stroke-miterlimit="10"/>
<path d="M1079.79 881.765C1093.76 898.279 1100.42 930.646 1104.29 951.123C1113.55 948.673 1125.57 946.5 1130.56 941.68C1126.22 919.123 1122.19 908.625 1097.08 874.227C1091.08 876.625 1087.02 878.662 1079.79 881.765Z" fill="#BDB29A"/>
<path d="M1079.79 881.765C1093.76 898.279 1100.42 930.646 1104.29 951.123C1113.55 948.673 1125.57 946.5 1130.56 941.68C1126.22 919.123 1122.19 908.625 1097.08 874.227C1091.08 876.625 1087.02 878.662 1079.79 881.765Z" stroke="#9A967E" stroke-width="2" stroke-miterlimit="10"/>
<path d="M845.759 957.716C845.759 957.716 835.744 951.26 833.134 947.845C829.787 943.466 852.274 870.841 853.765 871.221C856.218 873.193 853.849 876.427 867.249 882.413C858.288 898.945 850.958 928.844 845.759 957.716Z" fill="#BDB29A"/>
<path d="M845.759 957.716C845.759 957.716 835.744 951.26 833.134 947.845C829.787 943.466 852.274 870.841 853.765 871.221C856.218 873.193 853.849 876.427 867.249 882.413C858.288 898.945 850.958 928.844 845.759 957.716Z" stroke="#9A967E" stroke-width="2" stroke-miterlimit="10"/>
<path d="M961.693 457.285C961.973 458.037 952.671 459.618 942.347 462.676C932.022 465.735 924.394 469.105 923.418 468.534C922.441 467.964 928.953 463.558 940.068 460.292C951.182 457.026 961.507 456.585 961.693 457.285Z" fill="#263238"/>
<g opacity="0.999999">
<path d="M187.7 564.743L539.899 204.98C542.582 202.239 546.958 202.359 549.495 205.242L564.44 222.228C566.871 224.992 566.677 229.246 564.005 231.765L198.571 576.279L187.7 564.743Z" fill="#340C10"/>
<path style="mix-blend-mode:soft-light" d="M203.717 559.283L446.806 303.695L205.153 547.111L203.717 559.283Z" fill="url(#paint3_linear_3_1247)"/>
<path d="M214.393 459.034L148.356 612.376L298.938 563.144L204.008 559.747L214.393 459.034Z" fill="#8B2224"/>
<g style="mix-blend-mode:overlay">
<path style="mix-blend-mode:soft-light" d="M214.563 459.068L148.527 612.41L190.482 573.238L214.563 459.068Z" fill="url(#paint4_linear_3_1247)"/>
</g>
</g>
</g>
<path d="M789.214 456.881L762.444 416.032C779.026 392.754 784.95 364.95 779.051 338.084C773.151 311.218 755.856 287.234 730.563 270.846C705.271 254.459 673.812 246.853 642.37 249.524C610.928 252.195 581.778 264.95 560.649 285.281C539.52 305.612 527.941 332.05 528.189 359.396C528.436 386.742 540.491 413.019 561.985 433.061C583.479 453.103 612.857 465.462 644.343 467.706C675.83 469.951 707.147 461.92 732.14 445.192L789.214 456.881Z" fill="#FAFAFA"/>
<path d="M789.209 456.882L732.015 445.58H731.446L731.806 445.166L732.345 445.658C724.335 451.036 715.621 455.577 706.383 459.188C695.374 463.459 683.718 466.348 671.767 467.768C665.152 468.566 658.468 468.853 651.794 468.623C648.35 468.468 644.847 468.39 641.313 468.131L630.653 466.731C605.998 462.549 583.324 452.147 565.484 436.834C547.644 421.521 535.437 401.982 530.399 380.677C526.756 364.57 527.267 347.966 531.896 332.051C536.628 315.429 545.867 300.022 558.846 287.106L563.997 282.207C565.674 280.548 567.71 279.174 569.537 277.671C571.363 276.167 573.19 274.612 575.286 273.342L581.275 269.428C583.261 268.103 585.353 266.899 587.533 265.825L593.941 262.456L600.649 259.656C602.84 258.671 605.1 257.805 607.416 257.064C625.39 250.914 644.734 248.345 664.011 249.548C682.243 250.622 699.98 255.153 715.965 262.819C744.635 276.676 766.071 299.526 775.854 326.66C779.742 338.206 781.59 350.196 781.334 362.222C780.676 381.412 774.168 400.11 762.469 416.42V416.083L788.91 457.089L762.109 416.213V416.032V415.876C767.278 408.542 771.449 400.713 774.536 392.548C778.195 382.694 780.212 372.439 780.525 362.092C780.736 350.174 778.858 338.298 774.956 326.867C765.194 300.029 743.908 277.456 715.486 263.804C699.667 256.288 682.138 251.864 664.131 250.844C645.103 249.614 625.999 252.094 608.225 258.101C605.92 258.846 603.67 259.712 601.487 260.693L594.87 263.492L588.551 266.81C586.398 267.876 584.327 269.062 582.353 270.361L576.364 274.249C574.328 275.493 572.621 277.1 570.704 278.5C568.788 279.9 566.931 281.429 565.254 282.958L560.164 287.805C547.303 300.557 538.136 315.778 533.423 332.206C528.845 347.925 528.323 364.323 531.896 380.236C535.371 395.288 542.517 409.524 552.857 421.993C571.51 444.507 599.333 460.06 630.713 465.513L641.283 466.913C644.787 467.172 648.261 467.275 651.674 467.431C658.286 467.677 664.911 467.408 671.467 466.627C683.325 465.267 694.899 462.457 705.844 458.281C715.044 454.711 723.735 450.232 731.746 444.932L734.081 443.377L732.285 445.399L732.075 444.881L789.209 456.882Z" fill="#263238"/>
<path d="M632.484 313.034C631.972 312.906 631.439 312.789 630.884 312.682C630.393 312.575 629.828 312.49 629.188 312.426C628.569 312.341 627.919 312.298 627.236 312.298C625.657 312.298 624.527 312.543 623.844 313.034C623.161 313.503 622.82 314.239 622.82 315.242C622.841 316.031 623.129 316.703 623.684 317.258C624.239 317.791 624.932 318.293 625.764 318.762C626.596 319.21 627.503 319.658 628.484 320.106C629.487 320.533 630.404 321.034 631.236 321.61C632.068 322.165 632.761 322.826 633.316 323.594C633.892 324.341 634.18 325.258 634.18 326.346C634.18 327.605 633.903 328.618 633.348 329.386C632.815 330.154 632.132 330.751 631.3 331.178C630.468 331.605 629.551 331.893 628.548 332.042C627.567 332.191 626.628 332.266 625.732 332.266C624.879 332.266 624.1 332.213 623.396 332.106C622.692 331.999 622.084 331.882 621.572 331.754C620.975 331.605 620.431 331.434 619.94 331.242L620.58 328.65C621.071 328.863 621.593 329.045 622.148 329.194C622.639 329.322 623.183 329.439 623.78 329.546C624.399 329.653 625.049 329.706 625.732 329.706C626.564 329.706 627.321 329.653 628.004 329.546C628.708 329.439 629.316 329.269 629.828 329.034C630.34 328.799 630.735 328.49 631.012 328.106C631.311 327.722 631.46 327.253 631.46 326.698C631.439 325.866 631.161 325.194 630.628 324.682C630.116 324.149 629.423 323.647 628.548 323.178C627.695 322.687 626.767 322.218 625.764 321.77C624.783 321.322 623.876 320.81 623.044 320.234C622.212 319.658 621.508 318.975 620.932 318.186C620.377 317.397 620.1 316.415 620.1 315.242C620.1 314.559 620.217 313.887 620.452 313.226C620.687 312.565 621.081 311.978 621.636 311.466C622.212 310.954 622.948 310.538 623.844 310.218C624.761 309.898 625.892 309.738 627.236 309.738C628.004 309.738 628.729 309.781 629.412 309.866C630.116 309.93 630.724 310.005 631.236 310.09C631.833 310.197 632.399 310.314 632.932 310.442L632.484 313.034ZM639.472 323.882C639.472 325.951 639.93 327.498 640.848 328.522C641.786 329.525 643.045 330.026 644.624 330.026C646.181 330.026 647.397 329.525 648.272 328.522C649.146 327.519 649.584 326.015 649.584 324.01C649.584 321.877 649.114 320.287 648.176 319.242C647.258 318.197 646 317.674 644.4 317.674C642.8 317.674 641.573 318.197 640.72 319.242C639.888 320.266 639.472 321.813 639.472 323.882ZM636.752 323.85C636.752 322.229 637.008 320.885 637.52 319.818C638.032 318.73 638.682 317.866 639.472 317.226C640.261 316.565 641.104 316.106 642 315.85C642.917 315.573 643.781 315.434 644.592 315.434C645.36 315.434 646.192 315.562 647.088 315.818C648.005 316.053 648.848 316.49 649.616 317.13C650.384 317.749 651.024 318.591 651.536 319.658C652.048 320.703 652.304 322.037 652.304 323.658C652.304 325.343 652.037 326.741 651.504 327.85C650.992 328.959 650.341 329.845 649.552 330.506C648.762 331.146 647.909 331.594 646.992 331.85C646.074 332.127 645.221 332.266 644.432 332.266C643.621 332.266 642.768 332.138 641.872 331.882C640.976 331.626 640.144 331.189 639.376 330.57C638.629 329.93 638 329.066 637.488 327.978C636.997 326.89 636.752 325.514 636.752 323.85ZM656.055 318.346C656.055 317.855 656.001 317.087 655.895 316.042L658.263 315.722L658.519 318.058H658.551C658.935 317.567 659.308 317.141 659.671 316.778C660.033 316.415 660.407 316.106 660.791 315.85C661.196 315.573 661.58 315.434 661.943 315.434C662.433 315.413 663.116 315.466 663.991 315.594L663.415 318.058C662.711 317.93 662.22 317.877 661.943 317.898C661.58 317.898 661.196 318.069 660.791 318.41C660.385 318.751 660.033 319.114 659.735 319.498C659.351 319.967 658.977 320.501 658.615 321.098V331.85H656.055V318.346ZM666.836 318.346C666.836 317.855 666.783 317.087 666.676 316.042L669.044 315.722L669.3 318.058H669.332C669.716 317.567 670.089 317.141 670.452 316.778C670.815 316.415 671.188 316.106 671.572 315.85C671.977 315.573 672.361 315.434 672.724 315.434C673.215 315.413 673.897 315.466 674.772 315.594L674.196 318.058C673.492 317.93 673.001 317.877 672.724 317.898C672.361 317.898 671.977 318.069 671.572 318.41C671.167 318.751 670.815 319.114 670.516 319.498C670.132 319.967 669.759 320.501 669.396 321.098V331.85H666.836V318.346ZM675.505 315.754H678.225L681.233 323.018C681.532 323.722 681.799 324.426 682.033 325.13C682.289 325.834 682.513 326.463 682.705 327.018C682.94 327.679 683.143 328.319 683.313 328.938H683.345C683.537 328.319 683.751 327.679 683.985 327.018C684.177 326.463 684.401 325.834 684.657 325.13C684.913 324.426 685.18 323.722 685.457 323.018L688.241 315.754H690.929L683.313 334.954C683.015 335.743 682.62 336.426 682.129 337.002C681.66 337.578 681.201 338.058 680.753 338.442C680.22 338.89 679.665 339.274 679.089 339.594L677.841 337.386C678.289 337.173 678.705 336.906 679.089 336.586C679.431 336.309 679.772 335.957 680.113 335.53C680.455 335.125 680.732 334.634 680.945 334.058L681.937 331.434L675.505 315.754ZM541.63 353.754H544.35L547.358 361.018C547.657 361.722 547.924 362.426 548.158 363.13C548.414 363.834 548.638 364.463 548.83 365.018C549.065 365.679 549.268 366.319 549.438 366.938H549.47C549.662 366.319 549.876 365.679 550.11 365.018C550.302 364.463 550.526 363.834 550.782 363.13C551.038 362.426 551.305 361.722 551.582 361.018L554.366 353.754H557.054L549.438 372.954C549.14 373.743 548.745 374.426 548.254 375.002C547.785 375.578 547.326 376.058 546.878 376.442C546.345 376.89 545.79 377.274 545.214 377.594L543.966 375.386C544.414 375.173 544.83 374.906 545.214 374.586C545.556 374.309 545.897 373.957 546.238 373.53C546.58 373.125 546.857 372.634 547.07 372.058L548.062 369.434L541.63 353.754ZM561.284 361.882C561.284 363.951 561.743 365.498 562.66 366.522C563.599 367.525 564.858 368.026 566.436 368.026C567.994 368.026 569.21 367.525 570.084 366.522C570.959 365.519 571.396 364.015 571.396 362.01C571.396 359.877 570.927 358.287 569.988 357.242C569.071 356.197 567.812 355.674 566.212 355.674C564.612 355.674 563.386 356.197 562.532 357.242C561.7 358.266 561.284 359.813 561.284 361.882ZM558.564 361.85C558.564 360.229 558.82 358.885 559.332 357.818C559.844 356.73 560.495 355.866 561.284 355.226C562.074 354.565 562.916 354.106 563.812 353.85C564.73 353.573 565.594 353.434 566.404 353.434C567.172 353.434 568.004 353.562 568.9 353.818C569.818 354.053 570.66 354.49 571.428 355.13C572.196 355.749 572.836 356.591 573.348 357.658C573.86 358.703 574.116 360.037 574.116 361.658C574.116 363.343 573.85 364.741 573.316 365.85C572.804 366.959 572.154 367.845 571.364 368.506C570.575 369.146 569.722 369.594 568.804 369.85C567.887 370.127 567.034 370.266 566.244 370.266C565.434 370.266 564.58 370.138 563.684 369.882C562.788 369.626 561.956 369.189 561.188 368.57C560.442 367.93 559.812 367.066 559.3 365.978C558.81 364.89 558.564 363.514 558.564 361.85ZM587.467 368.09H587.403C587.211 368.239 586.934 368.442 586.571 368.698C586.209 368.933 585.793 369.167 585.323 369.402C584.854 369.637 584.331 369.839 583.755 370.01C583.201 370.181 582.635 370.266 582.059 370.266C581.27 370.266 580.598 370.159 580.043 369.946C579.489 369.754 579.041 369.423 578.699 368.954C578.358 368.485 578.113 367.866 577.963 367.098C577.814 366.33 577.739 365.37 577.739 364.218V353.754H580.299V363.834C580.299 364.474 580.31 365.05 580.331 365.562C580.353 366.074 580.427 366.511 580.555 366.874C580.683 367.237 580.886 367.525 581.163 367.738C581.462 367.93 581.878 368.026 582.411 368.026C582.966 368.026 583.542 367.909 584.139 367.674C584.737 367.439 585.281 367.173 585.771 366.874C586.347 366.533 586.913 366.149 587.467 365.722V353.754H590.027V367.77C590.049 368.538 590.102 369.231 590.187 369.85L587.659 370.106L587.467 368.09ZM603.368 355.834H600.392V353.754H603.368C603.368 352.261 603.464 351.002 603.656 349.978C603.869 348.933 604.2 348.09 604.648 347.45C605.096 346.789 605.672 346.319 606.376 346.042C607.08 345.743 607.933 345.594 608.936 345.594C609.746 345.594 610.504 345.733 611.208 346.01C611.912 346.266 612.477 346.586 612.904 346.97L611.784 348.89C611.357 348.57 610.909 348.314 610.44 348.122C609.992 347.93 609.501 347.834 608.968 347.834C608.264 347.834 607.709 347.994 607.304 348.314C606.898 348.613 606.589 349.029 606.376 349.562C606.184 350.095 606.056 350.725 605.992 351.45C605.949 352.154 605.928 352.922 605.928 353.754H609.928V355.834H605.928V369.85H603.368V355.834ZM621.639 362.458C621.212 362.479 620.807 362.501 620.423 362.522C620.039 362.543 619.655 362.575 619.271 362.618C618.908 362.639 618.578 362.671 618.279 362.714C616.743 362.906 615.655 363.247 615.015 363.738C614.375 364.207 614.055 364.89 614.055 365.786C614.055 366.533 614.279 367.098 614.727 367.482C615.196 367.845 615.804 368.026 616.551 368.026C617.575 368.026 618.482 367.855 619.271 367.514C620.082 367.151 620.871 366.682 621.639 366.106V362.458ZM621.607 368.346C620.604 368.922 619.666 369.391 618.791 369.754C617.938 370.095 617.01 370.266 616.007 370.266C614.578 370.266 613.436 369.925 612.583 369.242C611.751 368.538 611.335 367.386 611.335 365.786C611.335 364.954 611.548 364.229 611.975 363.61C612.402 362.991 612.956 362.479 613.639 362.074C614.343 361.647 615.132 361.317 616.007 361.082C616.882 360.847 617.778 360.698 618.695 360.634C619.079 360.591 619.58 360.559 620.199 360.538C620.818 360.495 621.298 360.463 621.639 360.442C621.639 359.695 621.618 359.034 621.575 358.458C621.532 357.861 621.404 357.359 621.191 356.954C620.978 356.527 620.658 356.207 620.231 355.994C619.826 355.781 619.239 355.674 618.471 355.674C617.852 355.674 617.255 355.717 616.679 355.802C616.103 355.866 615.591 355.941 615.143 356.026C614.61 356.133 614.119 356.25 613.671 356.378L613.159 354.17C613.692 354.042 614.268 353.925 614.887 353.818C615.42 353.711 616.039 353.626 616.743 353.562C617.447 353.477 618.204 353.434 619.015 353.434C620.103 353.434 620.978 353.594 621.639 353.914C622.322 354.234 622.844 354.671 623.207 355.226C623.591 355.759 623.847 356.378 623.975 357.082C624.124 357.765 624.199 358.49 624.199 359.258V366.938C624.199 367.237 624.199 367.557 624.199 367.898C624.22 368.218 624.242 368.538 624.263 368.858C624.306 369.178 624.348 369.509 624.391 369.85L621.927 370.106L621.607 368.346ZM628.71 353.722L631.27 353.434V369.85H628.71V353.722ZM628.294 349.146C628.294 348.655 628.454 348.25 628.774 347.93C629.116 347.589 629.532 347.418 630.022 347.418C630.534 347.418 630.961 347.589 631.302 347.93C631.665 348.25 631.846 348.655 631.846 349.146C631.846 349.637 631.665 350.053 631.302 350.394C630.961 350.714 630.534 350.874 630.022 350.874C629.532 350.874 629.116 350.714 628.774 350.394C628.454 350.053 628.294 349.637 628.294 349.146ZM635.867 345.882L638.427 345.594V369.85H635.867V345.882ZM654.079 348.954V353.754H658.719V355.834H654.079V364.378C654.079 365.082 654.09 365.669 654.111 366.138C654.154 366.607 654.229 366.981 654.335 367.258C654.442 367.535 654.591 367.738 654.783 367.866C654.975 367.973 655.221 368.026 655.519 368.026C656.33 368.005 657.269 367.706 658.335 367.13L659.103 369.082C658.399 369.551 657.738 369.861 657.119 370.01C656.522 370.181 655.925 370.266 655.327 370.266C653.919 370.266 652.927 369.871 652.351 369.082C651.797 368.271 651.519 366.938 651.519 365.082V355.834H648.575V353.754H651.519V349.274L654.079 348.954ZM661.992 345.882L664.552 345.594V355.77C665.192 355.343 665.821 354.97 666.44 354.65C667.08 354.33 667.73 354.053 668.392 353.818C669.053 353.562 669.693 353.434 670.312 353.434C671.186 353.434 671.912 353.541 672.488 353.754C673.085 353.946 673.565 354.277 673.928 354.746C674.29 355.215 674.546 355.834 674.696 356.602C674.866 357.37 674.952 358.33 674.952 359.482V369.85H672.392V359.77C672.392 359.13 672.381 358.565 672.36 358.074C672.338 357.562 672.242 357.135 672.072 356.794C671.922 356.431 671.677 356.154 671.336 355.962C671.016 355.77 670.557 355.674 669.96 355.674C669.405 355.674 668.808 355.802 668.168 356.058C667.528 356.293 666.92 356.57 666.344 356.89C665.768 357.21 665.17 357.583 664.552 358.01V369.85H661.992V345.882ZM691.364 369.466C690.874 369.615 690.362 369.743 689.828 369.85C689.316 369.957 688.74 370.053 688.1 370.138C687.482 370.223 686.831 370.266 686.148 370.266C685.082 370.266 684.09 370.117 683.172 369.818C682.255 369.519 681.455 369.039 680.772 368.378C680.09 367.717 679.546 366.863 679.14 365.818C678.756 364.751 678.564 363.45 678.564 361.914C678.564 360.527 678.756 359.311 679.14 358.266C679.524 357.199 680.047 356.314 680.708 355.61C681.391 354.885 682.18 354.341 683.076 353.978C683.994 353.615 684.986 353.434 686.052 353.434C687.098 353.434 688.004 353.637 688.772 354.042C689.54 354.447 690.17 355.002 690.66 355.706C691.172 356.389 691.546 357.199 691.78 358.138C692.036 359.055 692.164 360.026 692.164 361.05L691.684 362.458H681.348C681.348 363.119 681.434 363.781 681.604 364.442C681.775 365.103 682.063 365.701 682.468 366.234C682.895 366.767 683.439 367.205 684.1 367.546C684.783 367.866 685.626 368.026 686.628 368.026C687.268 368.026 687.855 367.994 688.388 367.93C688.922 367.845 689.38 367.759 689.764 367.674C690.17 367.567 690.543 367.45 690.884 367.322L691.364 369.466ZM689.508 360.41C689.508 360.261 689.476 359.93 689.412 359.418C689.348 358.906 689.199 358.373 688.964 357.818C688.73 357.263 688.367 356.773 687.876 356.346C687.386 355.898 686.735 355.674 685.924 355.674C685.028 355.674 684.292 355.866 683.716 356.25C683.14 356.613 682.682 357.05 682.34 357.562C681.999 358.074 681.764 358.597 681.636 359.13C681.508 359.663 681.444 360.09 681.444 360.41H689.508ZM714.864 369.466C714.374 369.615 713.862 369.743 713.328 369.85C712.816 369.957 712.24 370.053 711.6 370.138C710.982 370.223 710.331 370.266 709.648 370.266C708.582 370.266 707.59 370.117 706.672 369.818C705.755 369.519 704.955 369.039 704.272 368.378C703.59 367.717 703.046 366.863 702.64 365.818C702.256 364.751 702.064 363.45 702.064 361.914C702.064 360.527 702.256 359.311 702.64 358.266C703.024 357.199 703.547 356.314 704.208 355.61C704.891 354.885 705.68 354.341 706.576 353.978C707.494 353.615 708.486 353.434 709.552 353.434C710.598 353.434 711.504 353.637 712.272 354.042C713.04 354.447 713.67 355.002 714.16 355.706C714.672 356.389 715.046 357.199 715.28 358.138C715.536 359.055 715.664 360.026 715.664 361.05L715.184 362.458H704.848C704.848 363.119 704.934 363.781 705.104 364.442C705.275 365.103 705.563 365.701 705.968 366.234C706.395 366.767 706.939 367.205 707.6 367.546C708.283 367.866 709.126 368.026 710.128 368.026C710.768 368.026 711.355 367.994 711.888 367.93C712.422 367.845 712.88 367.759 713.264 367.674C713.67 367.567 714.043 367.45 714.384 367.322L714.864 369.466ZM713.008 360.41C713.008 360.261 712.976 359.93 712.912 359.418C712.848 358.906 712.699 358.373 712.464 357.818C712.23 357.263 711.867 356.773 711.376 356.346C710.886 355.898 710.235 355.674 709.424 355.674C708.528 355.674 707.792 355.866 707.216 356.25C706.64 356.613 706.182 357.05 705.84 357.562C705.499 358.074 705.264 358.597 705.136 359.13C705.008 359.663 704.944 360.09 704.944 360.41H713.008ZM723.184 361.402L717.232 353.754H720.24L724.944 359.706L729.392 353.754H732.272L726.672 361.306L732.816 369.85H729.808L724.912 363.034L719.952 369.85H717.072L723.184 361.402ZM744.358 362.458C743.931 362.479 743.526 362.501 743.142 362.522C742.758 362.543 742.374 362.575 741.99 362.618C741.627 362.639 741.296 362.671 740.998 362.714C739.462 362.906 738.374 363.247 737.734 363.738C737.094 364.207 736.774 364.89 736.774 365.786C736.774 366.533 736.998 367.098 737.446 367.482C737.915 367.845 738.523 368.026 739.27 368.026C740.294 368.026 741.2 367.855 741.99 367.514C742.8 367.151 743.59 366.682 744.358 366.106V362.458ZM744.326 368.346C743.323 368.922 742.384 369.391 741.51 369.754C740.656 370.095 739.728 370.266 738.726 370.266C737.296 370.266 736.155 369.925 735.302 369.242C734.47 368.538 734.054 367.386 734.054 365.786C734.054 364.954 734.267 364.229 734.694 363.61C735.12 362.991 735.675 362.479 736.358 362.074C737.062 361.647 737.851 361.317 738.726 361.082C739.6 360.847 740.496 360.698 741.414 360.634C741.798 360.591 742.299 360.559 742.918 360.538C743.536 360.495 744.016 360.463 744.358 360.442C744.358 359.695 744.336 359.034 744.294 358.458C744.251 357.861 744.123 357.359 743.91 356.954C743.696 356.527 743.376 356.207 742.95 355.994C742.544 355.781 741.958 355.674 741.19 355.674C740.571 355.674 739.974 355.717 739.398 355.802C738.822 355.866 738.31 355.941 737.862 356.026C737.328 356.133 736.838 356.25 736.39 356.378L735.878 354.17C736.411 354.042 736.987 353.925 737.606 353.818C738.139 353.711 738.758 353.626 739.462 353.562C740.166 353.477 740.923 353.434 741.734 353.434C742.822 353.434 743.696 353.594 744.358 353.914C745.04 354.234 745.563 354.671 745.926 355.226C746.31 355.759 746.566 356.378 746.694 357.082C746.843 357.765 746.918 358.49 746.918 359.258V366.938C746.918 367.237 746.918 367.557 746.918 367.898C746.939 368.218 746.96 368.538 746.982 368.858C747.024 369.178 747.067 369.509 747.11 369.85L744.646 370.106L744.326 368.346ZM751.461 356.666C751.461 355.941 751.397 355.066 751.269 354.042L753.669 353.722L754.021 355.738C754.597 355.311 755.162 354.938 755.717 354.618C756.272 354.298 756.869 354.021 757.509 353.786C758.149 353.551 758.8 353.434 759.461 353.434C760.528 353.434 761.37 353.626 761.989 354.01C762.608 354.373 763.066 355.002 763.365 355.898C764.24 355.279 765.146 354.714 766.085 354.202C767.045 353.69 768.037 353.434 769.061 353.434C769.85 353.434 770.522 353.541 771.077 353.754C771.632 353.946 772.08 354.277 772.421 354.746C772.762 355.215 773.008 355.834 773.157 356.602C773.306 357.37 773.381 358.33 773.381 359.482V369.85H770.821V359.77C770.821 359.13 770.81 358.565 770.789 358.074C770.768 357.562 770.693 357.135 770.565 356.794C770.437 356.431 770.224 356.154 769.925 355.962C769.648 355.77 769.242 355.674 768.709 355.674C768.218 355.674 767.749 355.749 767.301 355.898C766.874 356.026 766.426 356.218 765.957 356.474C765.488 356.73 764.762 357.253 763.781 358.042V369.85H761.221V359.77C761.221 359.13 761.21 358.565 761.189 358.074C761.168 357.562 761.093 357.135 760.965 356.794C760.837 356.431 760.624 356.154 760.325 355.962C760.048 355.77 759.642 355.674 759.109 355.674C758.554 355.674 757.978 355.791 757.381 356.026C756.784 356.261 756.218 356.538 755.685 356.858C755.152 357.178 754.597 357.551 754.021 357.978V369.85H751.461V356.666ZM599.506 409.386C599.506 410.175 599.42 410.943 599.25 411.69C599.079 412.437 598.748 413.098 598.258 413.674C597.788 414.271 597.116 414.741 596.242 415.082C595.388 415.445 594.258 415.626 592.85 415.626C591.954 415.605 591.175 415.551 590.514 415.466C589.852 415.381 589.223 415.253 588.626 415.082C588.028 414.933 587.484 414.751 586.994 414.538L587.666 412.298C588.498 412.661 589.34 412.938 590.194 413.13C591.068 413.322 591.847 413.418 592.53 413.418C593.276 413.418 593.927 413.343 594.482 413.194C595.036 413.045 595.495 412.789 595.858 412.426C596.242 412.085 596.519 411.626 596.69 411.05C596.882 410.474 596.978 409.759 596.978 408.906V406.57C596.53 406.869 596.06 407.146 595.57 407.402C595.1 407.637 594.588 407.839 594.034 408.01C593.5 408.181 592.978 408.266 592.466 408.266C590.482 408.266 588.914 407.573 587.762 406.186C586.61 404.778 586.034 402.687 586.034 399.914C586.034 398.314 586.279 396.981 586.77 395.914C587.282 394.826 587.922 393.951 588.69 393.29C589.458 392.629 590.3 392.159 591.218 391.882C592.135 391.583 593.01 391.434 593.842 391.434C594.93 391.434 595.922 391.53 596.818 391.722C597.735 391.893 598.631 392.031 599.506 392.138V409.386ZM592.754 406.026C593.223 406.026 593.703 405.941 594.194 405.77C594.684 405.599 595.154 405.397 595.602 405.162C596.071 404.927 596.53 404.65 596.978 404.33V394.122C596.722 394.058 596.423 393.983 596.082 393.898C595.783 393.855 595.442 393.813 595.058 393.77C594.674 393.706 594.268 393.674 593.842 393.674C592.946 393.674 592.178 393.834 591.538 394.154C590.898 394.474 590.364 394.911 589.938 395.466C589.532 396.021 589.234 396.671 589.042 397.418C588.85 398.165 588.754 398.954 588.754 399.786C588.754 400.533 588.828 401.279 588.978 402.026C589.148 402.773 589.404 403.445 589.746 404.042C590.087 404.639 590.503 405.119 590.994 405.482C591.484 405.845 592.071 406.026 592.754 406.026ZM605.941 399.882C605.941 401.951 606.399 403.498 607.317 404.522C608.255 405.525 609.514 406.026 611.093 406.026C612.65 406.026 613.866 405.525 614.741 404.522C615.615 403.519 616.053 402.015 616.053 400.01C616.053 397.877 615.583 396.287 614.645 395.242C613.727 394.197 612.469 393.674 610.869 393.674C609.269 393.674 608.042 394.197 607.189 395.242C606.357 396.266 605.941 397.813 605.941 399.882ZM603.221 399.85C603.221 398.229 603.477 396.885 603.989 395.818C604.501 394.73 605.151 393.866 605.941 393.226C606.73 392.565 607.573 392.106 608.469 391.85C609.386 391.573 610.25 391.434 611.061 391.434C611.829 391.434 612.661 391.562 613.557 391.818C614.474 392.053 615.317 392.49 616.085 393.13C616.853 393.749 617.493 394.591 618.005 395.658C618.517 396.703 618.773 398.037 618.773 399.658C618.773 401.343 618.506 402.741 617.972 403.85C617.461 404.959 616.81 405.845 616.021 406.506C615.231 407.146 614.378 407.594 613.461 407.85C612.543 408.127 611.69 408.266 610.901 408.266C610.09 408.266 609.237 408.138 608.341 407.882C607.445 407.626 606.613 407.189 605.845 406.57C605.098 405.93 604.469 405.066 603.957 403.978C603.466 402.89 603.221 401.514 603.221 399.85ZM624.316 399.882C624.316 401.951 624.774 403.498 625.692 404.522C626.63 405.525 627.889 406.026 629.468 406.026C631.025 406.026 632.241 405.525 633.116 404.522C633.99 403.519 634.428 402.015 634.428 400.01C634.428 397.877 633.958 396.287 633.02 395.242C632.102 394.197 630.844 393.674 629.244 393.674C627.644 393.674 626.417 394.197 625.564 395.242C624.732 396.266 624.316 397.813 624.316 399.882ZM621.596 399.85C621.596 398.229 621.852 396.885 622.364 395.818C622.876 394.73 623.526 393.866 624.316 393.226C625.105 392.565 625.948 392.106 626.844 391.85C627.761 391.573 628.625 391.434 629.436 391.434C630.204 391.434 631.036 391.562 631.932 391.818C632.849 392.053 633.692 392.49 634.46 393.13C635.228 393.749 635.868 394.591 636.38 395.658C636.892 396.703 637.148 398.037 637.148 399.658C637.148 401.343 636.881 402.741 636.347 403.85C635.836 404.959 635.185 405.845 634.396 406.506C633.606 407.146 632.753 407.594 631.836 407.85C630.918 408.127 630.065 408.266 629.276 408.266C628.465 408.266 627.612 408.138 626.716 407.882C625.82 407.626 624.988 407.189 624.22 406.57C623.473 405.93 622.844 405.066 622.332 403.978C621.841 402.89 621.596 401.514 621.596 399.85ZM650.915 394.154C650.147 393.941 649.549 393.813 649.123 393.77C648.696 393.706 648.259 393.674 647.811 393.674C646.915 393.674 646.147 393.834 645.507 394.154C644.867 394.474 644.333 394.922 643.907 395.498C643.501 396.053 643.203 396.703 643.011 397.45C642.819 398.175 642.723 398.954 642.723 399.786C642.723 400.533 642.797 401.279 642.947 402.026C643.117 402.773 643.373 403.445 643.715 404.042C644.056 404.639 644.472 405.119 644.963 405.482C645.453 405.845 646.04 406.026 646.723 406.026C647.192 406.026 647.672 405.941 648.163 405.77C648.675 405.599 649.144 405.407 649.571 405.194C649.997 404.959 650.445 404.671 650.915 404.33V394.154ZM650.947 406.57C650.456 406.911 649.976 407.199 649.507 407.434C649.059 407.647 648.557 407.839 648.003 408.01C647.469 408.181 646.947 408.266 646.435 408.266C644.429 408.266 642.851 407.562 641.699 406.154C640.568 404.725 640.003 402.645 640.003 399.914C640.003 398.293 640.259 396.938 640.771 395.85C641.304 394.762 641.965 393.898 642.755 393.258C643.544 392.597 644.387 392.127 645.283 391.85C646.2 391.573 647.043 391.434 647.811 391.434C648.195 391.434 648.6 391.466 649.027 391.53C649.453 391.573 650.083 391.701 650.915 391.914V383.882L653.475 383.594V404.938C653.475 405.237 653.475 405.557 653.475 405.898C653.496 406.218 653.517 406.538 653.539 406.858C653.581 407.178 653.624 407.509 653.667 407.85L651.203 408.106L650.947 406.57ZM665.429 383.882L667.989 383.594V407.85H665.429V383.882ZM682.217 406.09H682.153C681.961 406.239 681.684 406.442 681.321 406.698C680.959 406.933 680.543 407.167 680.073 407.402C679.604 407.637 679.081 407.839 678.505 408.01C677.951 408.181 677.385 408.266 676.809 408.266C676.02 408.266 675.348 408.159 674.793 407.946C674.239 407.754 673.791 407.423 673.449 406.954C673.108 406.485 672.863 405.866 672.713 405.098C672.564 404.33 672.489 403.37 672.489 402.218V391.754H675.049V401.834C675.049 402.474 675.06 403.05 675.081 403.562C675.103 404.074 675.177 404.511 675.305 404.874C675.433 405.237 675.636 405.525 675.913 405.738C676.212 405.93 676.628 406.026 677.161 406.026C677.716 406.026 678.292 405.909 678.889 405.674C679.487 405.439 680.031 405.173 680.521 404.874C681.097 404.533 681.663 404.149 682.217 403.722V391.754H684.777V405.77C684.799 406.538 684.852 407.231 684.937 407.85L682.409 408.106L682.217 406.09ZM699.413 394.09C699.05 394.005 698.549 393.919 697.909 393.834C697.269 393.727 696.618 393.674 695.957 393.674C694.997 393.674 694.208 393.866 693.589 394.25C692.992 394.634 692.522 395.135 692.181 395.754C691.84 396.351 691.605 397.023 691.477 397.77C691.349 398.495 691.285 399.21 691.285 399.914C691.285 401.002 691.424 401.941 691.701 402.73C691.978 403.498 692.341 404.127 692.789 404.618C693.258 405.109 693.792 405.471 694.389 405.706C694.986 405.919 695.616 406.026 696.277 406.026C696.725 406.026 697.152 406.005 697.557 405.962C697.984 405.898 698.368 405.834 698.709 405.77C699.072 405.685 699.413 405.589 699.733 405.482L700.245 407.626C699.797 407.754 699.381 407.861 698.997 407.946C698.613 408.031 698.154 408.106 697.621 408.17C697.109 408.234 696.554 408.266 695.957 408.266C694.784 408.266 693.738 408.117 692.821 407.818C691.904 407.519 691.125 407.039 690.485 406.378C689.866 405.717 689.386 404.853 689.045 403.786C688.725 402.719 688.565 401.418 688.565 399.882C688.565 398.389 688.768 397.109 689.173 396.042C689.6 394.954 690.154 394.079 690.837 393.418C691.52 392.735 692.298 392.234 693.173 391.914C694.069 391.594 694.997 391.434 695.957 391.434C696.469 391.434 696.96 391.466 697.429 391.53C697.92 391.573 698.346 391.626 698.709 391.69C699.136 391.775 699.541 391.861 699.925 391.946L699.413 394.09ZM703.398 383.882L705.958 383.594V398.026L713.094 391.754H716.614L709.638 397.866L716.87 407.85H713.638L707.75 399.498L705.958 401.066V407.85H703.398V383.882ZM726.774 384.554L730.038 384.202L729.494 402.026H727.414L726.774 384.554ZM726.486 405.962C726.486 405.45 726.667 405.013 727.03 404.65C727.392 404.266 727.84 404.074 728.374 404.074C728.928 404.074 729.398 404.266 729.782 404.65C730.166 405.013 730.358 405.45 730.358 405.962C730.358 406.495 730.166 406.943 729.782 407.306C729.398 407.669 728.928 407.85 728.374 407.85C727.84 407.85 727.392 407.669 727.03 407.306C726.667 406.943 726.486 406.495 726.486 405.962Z" fill="black"/>
</g>
<defs>
<linearGradient id="paint0_linear_3_1247" x1="174.091" y1="516.399" x2="345.038" y2="755.547" gradientUnits="userSpaceOnUse">
<stop stop-color="#BCCED2"/>
<stop offset="0.5" stop-color="#DEE7E9" stop-opacity="0.5"/>
<stop offset="1" stop-color="white" stop-opacity="0"/>
</linearGradient>
<radialGradient id="paint1_radial_3_1247" cx="0" cy="0" r="1" gradientUnits="userSpaceOnUse" gradientTransform="translate(979.17 411.545) rotate(10.2405) scale(25.0896 25.6674)">
<stop stop-color="#E65680"/>
<stop offset="0.46" stop-color="#DE7480"/>
<stop offset="1" stop-color="#D69280"/>
</radialGradient>
<radialGradient id="paint2_radial_3_1247" cx="0" cy="0" r="1" gradientUnits="userSpaceOnUse" gradientTransform="translate(886.35 422.251) rotate(10.2405) scale(17.9203 18.333)">
<stop stop-color="#E65680"/>
<stop offset="0.46" stop-color="#DE7480"/>
<stop offset="1" stop-color="#D69280"/>
</radialGradient>
<linearGradient id="paint3_linear_3_1247" x1="299.686" y1="456.532" x2="408.099" y2="344.768" gradientUnits="userSpaceOnUse">
<stop stop-color="white"/>
<stop offset="0.5" stop-color="white" stop-opacity="0.5"/>
<stop offset="1" stop-color="white" stop-opacity="0"/>
</linearGradient>
<linearGradient id="paint4_linear_3_1247" x1="155.284" y1="534.825" x2="219.02" y2="535.561" gradientUnits="userSpaceOnUse">
<stop stop-color="white"/>
<stop offset="0.5" stop-color="white" stop-opacity="0.5"/>
<stop offset="1" stop-color="white" stop-opacity="0"/>
</linearGradient>
<clipPath id="clip0_3_1247">
<rect width="1425" height="1426" fill="white"/>
</clipPath>
</defs>
</svg>
