<svg width="829" height="1114" viewBox="0 0 829 1114" fill="none" xmlns="http://www.w3.org/2000/svg">
<path d="M360.406 703.429C365.14 699.576 376.807 701.459 384.846 702.879L386.498 722.585L357.544 716.97L360.406 703.429ZM591.928 702.438C591.928 702.438 611.634 698.365 616.038 704.089C620.442 709.814 609.873 721.264 609.873 721.264L589.946 723.245L591.928 702.438Z" fill="#777963"/>
<path d="M365.332 409.26C350.447 434.947 312.906 577.178 312.906 577.178C312.906 577.178 269.668 697.152 316.31 706.831C333.471 706.176 372.361 662.827 394.724 590.583C408.957 522.307 438.059 485.921 447.069 437.871C458.055 379.281 379.456 380.958 365.332 409.26Z" fill="#E3DFD4"/>
<path d="M391.904 398.372C366.543 415.839 359.423 454.367 355.891 484.593C353.197 507.645 353.312 530.885 353.504 554.056C353.682 575.429 351.615 597.367 353.674 618.428C356.674 649.124 345.977 680.984 325.236 703.786C352.89 686.511 379.827 638.45 394.824 590.675C404.004 537.705 435.871 487.703 445.53 444.069C443.981 431.818 441.302 419.835 437.103 409.062C434.33 401.949 430.088 394.459 422.791 392.218C412.191 388.965 400.708 392.309 391.904 398.372Z" fill="#D9D3C5"/>
<path d="M177.549 505.886C174.929 503.658 169.474 494.1 193.035 476.61C210.756 462.812 217.774 462.044 221.76 468.28C225.331 473.325 225.004 483.137 205.698 498.103C187.921 511.884 180.17 508.113 177.549 505.886Z" fill="#CFC6B4"/>
<path d="M208.006 548.098L180.072 499.658C180.072 499.658 176.091 492.668 171.224 485.925C164.196 476.19 157.921 474.171 151.874 469.658C143.281 464.031 118.516 437.82 113.613 432.83C108.709 427.84 102.136 418.733 102.136 418.733C102.136 418.733 84.8095 404.584 77.8122 394.749C70.8138 384.912 64.2852 374.434 64.1243 372.37C63.9633 370.306 65.7313 366.361 72.0839 367.942C78.4375 369.522 87.1873 384.066 90.1804 386.947C93.1744 389.828 108.257 402.566 108.257 402.566L109.511 399.978C109.511 399.978 94.5035 384.165 91.7037 381.445C90.2298 380.013 84.5114 373.267 78.521 364.728C73.7902 357.397 68.5667 344.571 67.8134 340.211C68.0633 333.651 74.2714 331.404 77.991 334.11C80.2243 335.429 84.474 342.96 88.1388 349.75C94.3558 358.115 100.611 366.865 101.629 367.901C101.649 367.883 120.741 384.241 120.729 384.188C120.724 383.89 121.666 384.152 121.237 383.519C117.29 379.09 103.247 365.22 103.053 364.975C101.456 362.959 96.091 356.049 90.967 348.501C85.1634 339.953 79.8449 330.296 79.48 329.69C77.1473 325.585 75.5097 323.622 76.2493 321.109C79.6001 315.142 88.2506 314.077 93.2755 323.278C95.5866 326.92 114.849 353.533 116.164 354.923C117.478 356.313 133.362 369.805 132.907 369.119C130.627 366.564 120.667 356.909 118.2 353.321C113.618 346.659 107.013 338.608 105.427 336.33C103.596 332.964 94.6967 318.173 94.677 316.817C94.6153 312.562 102.399 308.372 109.158 316.031C113.369 320.801 115.152 321.409 119.898 329.45C124.119 334.995 127.493 340.338 132.061 345.965C137.818 350.367 148.187 360.691 152.247 363.729C160.129 369.626 168.258 376.364 176.589 381.307C178.219 382.275 179.718 383.22 181.057 384.043C185.494 386.77 185.891 380.989 185.058 378.424C182.45 370.388 177.842 361.483 176.6 358.753C174.959 355.151 168.842 338.485 178.145 330.46C179.896 328.693 184.197 327.832 185.859 330.562C189.585 336.68 187.658 338.983 196.459 350.681C202.039 358.1 200.921 361.86 202.361 365.98C203.801 370.101 205.301 378.361 210.941 386.56C217.124 395.55 220.681 407.784 220.802 416.092C220.952 426.442 214.268 441.492 213.395 444.726C212.522 447.959 211.756 454.111 218.84 466.777C222.784 473.825 285.953 564.525 285.953 564.525L208.006 548.098Z" fill="#D69280"/>
<path d="M184.412 385.235C178.516 384.243 166.314 375.549 151.735 363.566C146.328 359.122 134.993 348.477 132.576 346.298C130.161 344.119 120.365 329.509 119.431 328.603C112.091 315.764 105.431 310.637 99.9976 311.852C99.9976 311.852 93.4221 312.628 95.88 317.702C98.3388 322.777 106.73 337.645 106.73 337.645L119.246 355.009L136.516 371.282M105.7 415.334C105.932 401.985 110.519 394.84 119.844 385.097C128.717 375.825 139.872 367.826 151.77 364.087M168.469 450.634C165.663 439 168.118 426.669 172.443 415.51C176.768 404.351 181.151 394.746 186.096 383.848" stroke="#C58075" stroke-width="2" stroke-linecap="round" stroke-linejoin="round"/>
<path d="M176.135 500.054C176.097 498.493 176.324 496.847 177.124 495.59C177.097 495.613 178.274 496.917 178.181 496.9C177.754 497.691 177.702 498.63 177.774 499.35C177.999 502.58 180.736 506.296 188.383 504.971C202.129 502.085 229.09 476.799 220.551 466.212C219.742 464.927 218.448 464.23 217.758 464.6C217.176 464.214 216.986 463.751 216.949 463.484C217.744 462.592 220.174 462.59 221.298 464.239C247.905 503.176 266.757 525.035 306.785 574.664C327.611 596.195 340.871 614.68 343.525 647.404C345.633 671.174 337.578 702.066 319.524 706.201C298.27 711.224 255.67 647.209 246.541 629.349C237.413 611.489 189.937 522.733 187.989 519.718C186.043 516.703 177.413 508.882 176.135 500.054Z" fill="#E3DFD4"/>
<path d="M315.788 706.418C293.634 704.244 255.162 646.215 246.541 629.349C237.413 611.489 189.937 522.733 187.989 519.718C186.043 516.703 177.413 508.882 176.135 500.054C176.097 498.493 176.324 496.847 177.124 495.59C177.097 495.613 178.274 496.917 178.181 496.9C177.754 497.691 177.702 498.63 177.774 499.35C177.999 502.58 180.736 506.296 188.383 504.971C202.129 502.085 229.09 476.799 220.551 466.212C219.742 464.927 218.448 464.23 217.758 464.6C217.176 464.214 216.986 463.751 216.949 463.484C217.744 462.592 220.174 462.59 221.298 464.239C247.905 503.176 266.757 525.035 306.785 574.664C320.509 588.852 330.947 601.718 337.23 618.206" stroke="#CEC6B5" stroke-width="2" stroke-miterlimit="1"/>
<path d="M376.391 91.4793C376.391 91.4793 362.006 50.6696 403.173 29.2986C444.34 7.92769 519.142 16.4912 554.169 109.981C565.146 142.861 564.289 175.838 552.775 218.451C541.262 261.064 568.64 303.086 606.942 268.371C606.942 268.371 575.816 330.918 533.393 318.071C530.065 317.597 526.719 306.023 526.705 305.973C531.113 322.348 558.953 333.011 571.316 319.482C570.846 330.537 560.725 344.494 551.684 350.772C527.714 367.416 490.991 365.376 474.415 341.277C475.702 343.148 474.779 350.88 475.385 353.561C476.458 358.315 479.727 362.375 480.851 366.861C482.58 373.762 484.657 370.992 479.058 376.376C475.816 379.492 468.253 380.575 464.046 381.717C440.152 388.202 428.975 385.188 413.348 365.518C407.79 358.523 409.529 357.507 400.882 364.32C395.811 368.316 391.721 374.416 385.22 376.309C379.417 377.997 373.299 378.491 367.3 377.748C364.423 377.392 352.653 371.819 351.048 372.478C392.573 355.425 414.33 296.88 407.545 255.221C401.349 255.701 403.84 286.011 387.448 291.166C388.493 283.825 404.792 284.103 397.803 218.433C390.814 152.762 376.391 91.4793 376.391 91.4793Z" fill="#6D3429"/>
<path d="M396.908 54.8963C409.521 37.5566 430.503 27.0904 451.818 26.1798C484.984 24.7623 512.054 47.661 522.627 78.0993C525.687 86.3184 527.278 95.1492 528.18 103.817C532.267 138.491 532.59 173.489 537.136 208.095C540.997 231.862 543.32 263.983 565.333 278.212C572.515 282.845 581.684 285.133 589.991 282.447C598.466 279.707 603.574 271.794 609.253 265.439C606.439 268.773 603.853 272.292 600.884 275.509C595.677 281.437 588.338 284.825 580.37 284.215C574.843 283.865 569.509 281.93 564.81 279.041C542.378 264.981 539.337 232.298 535.421 208.324C529.991 169.453 530.536 129.919 524.401 91.1777C518.677 61.7636 496.895 33.9683 466.373 28.4578C440.731 23.6087 412.803 34.111 396.908 54.8963ZM407.235 55.5281C412.992 44.0503 425.878 39.6272 437.456 36.3601C468.048 25.8757 500.305 42.2601 518.665 67.038C529.857 81.8991 536.07 99.9085 539.669 117.96C541.985 130.041 543.808 142.214 544.246 154.527C544.804 172.939 542.549 191.287 544.991 209.575C545.816 215.627 547.152 221.619 549.133 227.42C544.712 215.949 543.205 203.556 542.865 191.312C542.574 172.91 543.852 154.606 540.917 136.381C537.713 112.397 531.727 87.9 517.134 68.1754C499.347 43.9374 467.679 27.498 437.717 37.2986C426.138 40.2563 413.342 44.3293 407.235 55.5281ZM448.371 74.13C474.871 74.4209 500.764 89.9752 513.256 113.432C522.846 131.009 525.411 151.434 525.74 171.182C526.185 197.339 521.2 224.006 528.035 249.638C531.461 262.148 537.921 274.09 547.487 282.944C561.988 296.494 586.502 296.323 601.216 282.987C596.417 287.54 590.448 290.785 584.038 292.444C577.629 294.088 570.774 294.298 564.295 292.883C547.542 289.413 536.138 274.446 529.621 259.527C518.066 231.478 524.129 200.556 523.832 171.204C523.626 151.696 521.099 131.616 511.906 114.156C499.806 90.7935 474.604 75.2782 448.371 74.13ZM450.548 81.343C464.357 85.2943 478.102 90.8415 489.17 100.243C504.157 113.092 512.983 132.145 515.38 151.565C519.765 185.586 506.558 218.756 507.542 252.633C508.367 262.61 511.307 272.472 515.653 281.499C517.117 284.506 518.764 287.443 520.721 290.126C524.671 295.463 530.773 298.903 536.941 301.18C555.547 307.823 579.311 307.393 593.299 291.675C584.424 302.31 570.15 306.801 556.59 306.096C546.412 305.581 535.986 303.395 527.222 297.948C518.213 292.536 513.704 282.226 510.169 272.785C507.902 266.335 506.305 259.63 505.728 252.771C505.042 239.124 507.198 225.56 509.197 212.123C512.914 188.921 517.354 165.096 511.921 141.866C503.913 108.213 482.61 91.2017 450.548 81.343ZM456.366 57.0876C468.814 52.5845 483.04 55.7319 493.841 63.0137C504.845 70.4024 512.303 82.0769 516.927 94.2931C525.76 119.055 524.245 145.819 525.298 171.683C522.65 146.128 523.96 119.387 515.055 94.9908C510.696 83.0034 503.451 71.7375 492.971 64.2737C482.548 56.8637 468.882 53.4578 456.366 57.0876Z" fill="#5B2924"/>
<path d="M499.876 223.817C497.968 237.873 497.508 252.132 499.432 266.125C502.905 290.176 510.159 315.601 529.592 331.587C536.317 337.059 544.434 341.276 553.228 341.636C556.242 341.782 559.29 341.47 562.22 340.715C562.173 340.728 560.872 342.054 560.959 341.892C557.535 342.729 553.963 342.979 550.49 342.618C534.967 340.872 522.541 329.445 514.149 316.947C506.175 304.966 502.183 290.873 499.513 276.888C496.087 259.396 496.431 241.265 499.876 223.817Z" fill="#5B2924"/>
<path d="M353.504 372.134C362.684 373.739 372.282 371.545 380.478 367.111C388.675 362.677 395.566 356.114 401.406 348.851C405.712 343.496 409.578 337.541 410.967 330.811C411.027 330.518 411.052 330.146 410.798 329.987C410.544 329.828 410.226 330.356 410.523 330.392M351.418 373.374C369.641 368.859 385.96 357.088 395.995 341.221" stroke="#5B2924" stroke-miterlimit="10"/>
<path d="M468.753 338.35C499.814 327.417 527.483 325.623 530.551 334.342C533.62 343.061 510.926 358.991 479.865 369.924C448.803 380.856 421.136 382.651 418.067 373.932C414.999 365.213 437.691 349.282 468.753 338.35Z" fill="#CFC6B4"/>
<path d="M386.011 398.011C391.572 406.213 408.957 434.837 448.284 439.337C500.846 448.024 604.892 379.833 593.352 371.86C587.044 367.502 538.823 371.243 527.843 351.872C514.172 327.752 501.787 281.193 493.873 239.154C489.989 218.521 409.187 253.851 412.618 292.812C413.45 310.045 425.022 342.546 431.922 368.376C433.072 372.681 435.255 374.49 430.332 378.963C423.074 385.561 384.228 395.382 386.011 398.011Z" fill="#D69280"/>
<path d="M494.501 239.845C494.501 239.845 501.353 260.231 496.43 289.534C491.737 317.45 469.031 362.51 440.293 364.228C436.717 364.443 431.774 362.61 427.066 352.686C420.315 338.45 410.003 318.146 406.758 297.821C401.609 257.898 477.474 208.613 494.501 239.845Z" fill="#C58075"/>
<path d="M429.373 359.316C426.377 362.136 419.013 369.856 423.641 373.684C436.883 387.211 490.61 383.823 523.745 333.822C525.313 329.931 522.055 329.019 517.675 329.443C517.672 329.426 516.964 327.519 516.96 327.522C522.767 326.91 528.916 327.903 530.673 334.152C534.338 345.128 546.663 357.068 549.46 360.839C549.46 360.839 552.271 364.279 559.199 364.609C567.07 365.977 640.244 366.16 663.242 383.129C669.887 389.398 679.609 428.216 666.174 460.31C652.74 492.404 627.957 609.924 608.505 657.271C605.287 665.102 593.939 692.287 597.237 706.332C600.534 720.376 605.906 732.536 605.906 732.536C605.906 732.536 470.548 804.444 396.982 766.217C366.916 751.887 370.075 727.239 370.075 727.239L386.39 613.943C386.39 613.943 386.783 605.696 378.363 601.989C366.676 597.463 338.4 580.242 350.468 535.188C366.024 500.221 362.223 496.733 361.469 491.737C360.715 486.741 363.653 453.316 367.38 437.131C370.994 421.432 381.988 396.606 390.021 392.25C397.734 389.973 417.183 384.287 417.183 384.287C417.215 383.628 417.121 376.349 417.467 369.092C417.623 365.812 422.589 360.689 428.791 357.565C428.82 357.573 429.367 359.309 429.373 359.316Z" fill="#E3DFD4"/>
<path d="M598.92 451.471C597.254 462.577 596.657 473.844 597.174 485.064C598.504 513.894 603.234 542.547 607.897 570.765C612.909 601.091 616.391 634.224 605.866 663.707C625.499 613.718 632.268 578.775 648.88 516.929C649.195 512.043 649.477 507.009 649.73 501.815C650.973 476.299 655.002 450.637 652.471 425.095C651.464 414.923 650.249 395.918 641.632 388.619C623.302 373.093 610.474 408.938 606.522 420.423C603.05 430.511 600.503 440.92 598.92 451.471Z" fill="#D9D3C5"/>
<path d="M646.163 531.945C637.25 565.714 628.763 599.606 618.232 632.933C612.214 653.774 601.078 673.222 598.047 694.869C597.594 698.558 597.452 702.291 598.183 705.927C600.274 714.875 603.256 723.678 606.821 732.132L607.199 732.995L606.377 733.419C549.047 762.12 447.338 800.884 388.38 762.601C376.458 754.887 367.516 740.922 369.057 726.353L369.914 720.429C370.604 715.953 384.285 620.853 385.337 613.791C385.43 612.658 384.818 610.103 384.074 608.667C382.659 605.722 379.945 603.643 376.911 602.537L375.516 601.926C366.307 597.697 358.293 590.776 353.165 581.976C344.788 567.759 345.317 550.314 349.518 534.858C352.914 527.185 356.19 519.439 358.743 511.492C360.506 505.599 362.4 499.59 360.829 493.508C360.287 491.423 360.353 489.144 360.422 487.014C360.557 482.785 360.881 478.598 361.24 474.407C362.606 461.892 363.156 449.134 367.379 437.131C365.75 454.817 362.422 472.365 362.342 490.158C362.501 493.284 363.752 496.364 363.346 499.589C362.033 511.995 356.01 524.677 351.44 535.449C347.412 550.358 346.87 567.28 354.952 580.932C359.849 589.324 367.565 595.973 376.392 600.012L377.728 600.594C382.259 602.186 386.016 605.989 387.067 610.746C387.305 611.829 387.498 612.889 387.444 614.095C386.431 621.584 372.833 715.703 372.156 720.736L371.306 726.659C370.27 736.288 374.473 745.985 380.802 753.127C384.067 756.698 388.001 759.729 392.124 762.289C450.357 796.781 549.429 759.573 605.439 731.654L604.993 732.941C603.248 728.877 601.725 724.78 600.316 720.618C598.629 715.394 596.878 710.107 595.954 704.676C595.453 701.351 595.671 697.934 596.062 694.624C599.102 672.749 610.237 653.343 616.326 632.322C626.838 599.059 635.324 565.17 644.228 531.437L646.163 531.945Z" fill="#CEC6B5"/>
<path d="M438.657 602.185C483.453 594.688 530.4 619.179 573.859 605.979C539.528 614.229 501.891 605.289 469.171 618.557C485.192 615.347 501.854 615.367 517.868 618.614" stroke="#CEC6B5" stroke-miterlimit="30"/>
<path d="M423.354 394.507C425.886 402.685 429.076 410.659 432.887 418.324C436.052 424.693 439.721 430.947 444.919 435.801C450.535 441.049 457.842 444.458 465.471 445.392C463.12 445.104 460.042 446.317 457.541 446.272C454.651 446.219 451.705 445.796 448.948 444.911C443.914 443.293 439.473 438.771 435.234 435.628C426.47 429.129 416.699 420.884 413.025 410.402C411.485 406.011 410.37 401.446 408.283 397.289C407.437 395.606 406.399 393.958 404.877 392.85C402.227 390.923 398.676 390.975 395.402 391.107C400.544 390.898 413.188 386.645 416.792 382.881C418.342 381.262 417.713 376.388 417.478 374.318C416.827 368.621 417.812 366.463 419.804 364.896C416.834 372.159 420.051 382.883 422.044 390.053C422.46 391.544 422.895 393.028 423.354 394.507Z" fill="#D9D3C5"/>
<path d="M431.224 431.911C431.224 431.911 426.93 429.501 423.726 422.736C420.522 415.97 417.467 369.092 417.467 369.092C417.467 369.092 416.78 363.884 428.792 357.566M532.04 388.665L548.422 368.726C548.422 368.726 551.281 364.233 549.459 360.839M410.321 417.247C410.321 417.247 441.404 440.332 449.614 443.809C457.825 447.288 464.004 447.142 475.253 442.387C497.911 432.811 518.149 414.86 534.269 396.679" stroke="#CEC6B5" stroke-width="2" stroke-linecap="round" stroke-linejoin="round"/>
<path d="M660.222 381.575C660.222 381.575 603.906 360.922 606.475 445.436C607.56 481.113 611.509 473.338 629.327 541.734C647.145 610.13 648.828 740.621 712.548 747.44C744.231 746.229 746.174 693.271 741.355 670.98C733.805 631.097 704.045 524.997 687.21 430.451C680.618 396.33 669.627 385.513 660.222 381.575Z" fill="#E3DFD4"/>
<path d="M657.295 597.386C661.579 605.212 666.032 612.979 671.392 620.11C680.084 631.674 691.005 641.363 700.395 652.367C714.998 669.481 725.818 689.805 731.865 711.474C734.413 720.61 735.221 728.202 731.656 736.993C718.232 751.897 705.643 748.659 692.239 740.508C648.823 711.878 639.425 591.967 636.628 575.94C632.826 554.162 628.845 537.95 621.77 514.774C612.031 484.297 606.285 463.437 605.371 437.491C608.968 464.772 612.765 489.785 621.374 516.192C630.563 544.381 643.072 571.407 657.295 597.386Z" fill="#D9D3C5"/>
<path d="M606.029 429.833C607.643 444.223 607.864 458.789 611.132 472.902C612.781 479.914 614.982 486.838 617.044 493.804C623.181 514.735 629.407 535.673 634.025 557.007C644.595 606.419 647.641 658.293 667.476 705.205C675.775 724.351 690.379 744.148 712.674 746.27C727.99 746.189 735.457 728.674 738.598 715.457C741.924 701.088 743.048 685.73 740.378 671.192L742.332 670.77C745.137 685.772 744.055 701.171 740.713 715.969C737.412 730.034 729.508 748.553 712.537 748.616C705.091 747.878 697.808 745.239 691.614 741.037C676.195 730.455 667.559 713.035 661.108 696.043C645.005 651.401 641.329 603.66 631.807 557.471C627.268 536.199 621.112 515.282 615.055 494.397C613.015 487.43 610.829 480.491 609.171 473.353C607.544 466.203 606.655 458.92 606.021 451.674C605.423 444.457 604.663 436.937 606.029 429.833Z" fill="#CEC6B5"/>
<path d="M684.307 448.69C680.525 449.609 675.602 451.17 677.432 454.64C679.262 458.109 693.063 462.789 708.855 461.732C726.207 460.57 735.242 455.064 736.811 452.554C739.894 447.621 732.119 444.743 728.568 444.586C719.329 444.178 698.12 445.333 684.307 448.69Z" fill="#CEC6B5"/>
<path d="M678.243 424.235C677.606 423.519 676.983 422.79 676.364 422.062C672.731 417.795 671.893 413.487 671.18 408.045C669.82 397.694 672.38 380.86 675.614 376.16C678.849 371.46 681.452 367.338 681.328 356.437C681.205 345.536 675.271 317.135 682.995 305.057C689.45 295.961 695.552 301.679 694.943 308.613C694.73 313.446 695.841 322.575 695.841 322.575L688.428 346.46C688.428 346.46 673.179 403.896 676.98 413.75C680.782 423.603 683.481 430.986 690.704 431.91C691.214 431.975 691.726 432.042 692.231 432.123C688.727 431.384 685.493 430.646 682.575 428.401C680.983 427.177 679.581 425.737 678.243 424.235Z" fill="#C58075"/>
<path d="M683.375 469.924L683.473 431.188C683.473 431.188 668.709 409.147 676.449 384.671C684.19 360.195 698.248 316.023 698.622 307.565C698.996 299.108 688.222 268.97 690.328 262.405C692.434 255.84 695.481 255.37 695.481 255.37C695.481 255.37 690.637 234.877 699.099 228.29L702.692 224.615C702.692 224.615 701.919 216.365 703.593 213.355C707.977 205.478 713.16 206.918 713.16 206.918L723.037 302.995L727.383 323.365L722.305 419.991C722.305 419.991 724.366 428.154 724.341 437.837C724.316 447.521 730.758 475.247 730.758 475.247L683.375 469.924Z" fill="#D69280"/>
<path d="M694.546 256.633C696.369 254.589 698.472 253.917 700.815 254.441L718.825 307.69M699.099 228.289C699.099 228.289 703.434 223.084 706.043 226.902C707.186 228.576 709.602 239.62 712.279 251.039C715.708 265.67 721.192 286.711 720.645 285.144" stroke="#BD5F66" stroke-width="2" stroke-linecap="round" stroke-linejoin="round"/>
<path d="M677.737 455.232C677.737 455.232 694.981 468.998 729.937 455.997C742.706 451.326 728.415 445.57 728.415 445.57C728.415 445.57 739.618 446.396 739.093 458.274C730.3 477.722 752.776 642.361 753.706 666.204C753.917 691.339 740.903 753.909 699.102 749.747C672.997 741.98 656 677.755 670.328 622.847C679.633 551.924 680.089 500.414 675.523 460.423C672.948 451.384 680.668 448.749 681.9 450.788C677.161 450.798 677.737 455.232 677.737 455.232Z" fill="#E3DFD4"/>
<path d="M677.737 455.232C677.737 455.232 694.981 468.998 729.937 455.997C742.706 451.326 728.415 445.57 728.415 445.57C728.415 445.57 739.618 446.396 739.093 458.274C730.3 477.722 752.776 642.361 753.706 666.204C753.917 691.339 740.903 753.909 699.102 749.747C672.997 741.98 656 677.755 670.328 622.847C679.633 551.924 680.089 500.414 675.523 460.423C672.948 451.384 680.668 448.749 681.9 450.788C677.161 450.798 677.737 455.232 677.737 455.232Z" stroke="#CEC6B5" stroke-width="2" stroke-miterlimit="30"/>
<path d="M322.105 173.438C322.105 173.438 312.09 204.414 332.362 262.069C347.753 310.025 355.875 322.07 401.686 354.656C413.319 364.537 435.724 362.525 445.685 352.912C470.583 334.388 496.087 294.255 499.22 271.197C500.247 263.061 498.676 248.959 498.676 248.959C498.676 248.959 503.713 251.232 507.946 244.544C510.196 241.757 516.276 224.99 507.761 197.334C504.723 180.254 490.725 116.391 433.62 105.164C397.12 97.9874 340.997 114.005 322.105 173.438Z" fill="#D69280"/>
<path d="M427.544 227.33C429.482 233.966 428.202 240.176 424.688 241.201C421.174 242.227 416.755 237.681 414.817 231.045C412.881 224.411 414.158 218.2 417.673 217.174C421.188 216.148 425.607 220.695 427.544 227.33Z" fill="#340C10"/>
<path d="M415.991 219.636C415.991 219.636 412.167 219.664 411.183 213.533" stroke="#340C10" stroke-width="2.285" stroke-linecap="round" stroke-linejoin="round"/>
<path d="M408.446 247.203C408.446 247.203 417.97 235.351 440.174 235.211C441.43 238.863 431.95 251.824 431.95 251.824L408.446 247.203Z" fill="#D69280"/>
<path d="M435.449 234.967C424.939 237.505 420.855 239.771 418.327 240.991C415.798 242.21 414.087 243.523 413.644 243.449C416.284 238.173 424.051 235.341 429.519 234.457C431.027 234.213 435.808 234.274 435.449 234.967Z" fill="#320B0F"/>
<path d="M359.376 250.209C360.948 255.985 359.741 261.343 356.681 262.176C353.622 263.008 349.867 258.999 348.296 253.222C346.724 247.446 347.93 242.088 350.99 241.256C354.05 240.423 357.804 244.433 359.376 250.209Z" fill="#340C10"/>
<path d="M350.462 242.937C350.462 242.937 345.342 244.056 344.415 238.248" stroke="#340C10" stroke-width="2.087" stroke-linecap="round" stroke-linejoin="round"/>
<path d="M344.25 266.436C344.25 266.436 353.977 254.84 371.939 262.165C372.4 263.57 356.472 271.912 356.472 271.912L344.25 266.436Z" fill="#D69280"/>
<path d="M365.27 259.798C365.35 259.841 365.428 259.885 365.505 259.93C364.98 259.622 362.685 260.262 362.029 260.332C360.957 260.446 359.94 260.623 358.881 260.814C356.377 261.267 353.905 261.665 351.48 262.473C350.105 262.931 348.73 263.39 347.354 263.849C349.998 260.154 356.448 258.801 360.711 258.788C362.285 258.783 363.888 259.056 365.27 259.798Z" fill="#320B0F"/>
<path d="M430.408 240.902C441.423 232.713 456.098 232.288 463.569 239.635C471.019 246.962 468.932 259.687 458.55 268.394C447.726 277.472 432.062 278.772 423.965 270.919C415.844 263.041 418.921 249.442 430.408 240.902Z" fill="url(#paint0_radial_53_420)" fill-opacity="0.65"/>
<path d="M362.036 275.114C370.305 281.93 371.143 291.74 365.407 296.643C360.517 300.823 351.961 300.316 345.363 295.82C344.756 295.407 344.174 294.964 343.618 294.498C343.355 294.301 337.315 277.704 337.206 277.784C337.374 277.261 337.582 276.749 337.833 276.25C341.646 268.674 353.11 267.755 362.036 275.114Z" fill="url(#paint1_radial_53_420)" fill-opacity="0.65"/>
<path d="M502.592 197.093C500.847 193.762 497.388 191.023 493.245 191.213C489.589 191.38 486.831 194.957 486.3 198.578C485.689 202.744 485.831 212.404 488.719 215.718C490.807 218.111 493.291 218.796 494.565 221.802C495.98 225.14 495.429 229.881 494.35 233.215" stroke="#BD5F66" stroke-width="2.041" stroke-linecap="round" stroke-linejoin="round"/>
<path d="M505.574 239.916C506.079 241.561 505.479 243.519 504.218 244.348C502.924 245.198 501.376 244.574 500.777 242.892C500.161 241.159 500.803 239.042 502.195 238.23C503.55 237.441 505.054 238.224 505.574 239.916Z" fill="#340C10"/>
<path d="M389.484 204.744C386.987 206.106 389.016 212.099 391.193 211.388C398.813 208.898 405.942 206.117 414.011 205.262C419.218 204.709 424.625 203.78 429.837 203.882C434.356 203.97 443.524 203.745 447.342 206.46C432.383 195.823 405.299 194.33 389.484 204.744Z" fill="#6D3429"/>
<path d="M332.558 238.869C338.27 231.242 347.432 227.752 355.034 224.641C356.467 223.357 355.416 218.597 352.729 217.991C348.479 217.978 333.844 225.861 330.215 236.811C328.626 241.606 327.995 246.797 327.993 246.99C328.652 246.724 329.846 242.723 332.558 238.869Z" fill="#6D3429"/>
<path d="M387.036 284.423C381.299 282.729 377.062 277.584 378.799 271.444L379.268 269.22C382.27 256.93 382.632 246.353 376.447 235.076C373.717 229.939 369.918 225.44 366.161 220.68C364.61 218.646 367.509 216.198 369.249 218.136C380.055 229.822 387.069 244.578 383.575 260.826C382.99 263.862 382.207 266.808 381.44 269.735C380.691 272.555 379.757 275.233 381.063 277.932C382.203 280.406 384.744 282.268 387.382 283.298C388.107 283.523 387.787 284.646 387.036 284.423Z" fill="#340C10"/>
<path d="M396.157 281.467C397.835 280.346 399.513 279.226 401.191 278.104C402.249 277.398 403.652 276.685 404.703 277.4C405.31 278.218 400.42 279.648 397.654 280.77" fill="#340C10"/>
<path d="M396.157 281.467C397.835 280.346 399.513 279.226 401.191 278.104C402.249 277.398 403.652 276.685 404.703 277.4C405.31 278.218 400.42 279.648 397.654 280.77" stroke="#340C10" stroke-width="1.02" stroke-miterlimit="10" stroke-linecap="round"/>
<path d="M378.353 304.954C390.102 306.361 416.197 297.736 441.984 282.641C443.606 281.295 445.999 279.4 445.999 279.4L443.484 285.182C443.484 285.182 433.252 330.812 405.419 325.887C398.18 324.812 389.083 315.568 380.76 308.793C378.381 306.857 377.198 305.526 375.636 304.125L378.353 304.954Z" fill="#340C10"/>
<path d="M403.733 321.54C405.463 317.783 415.247 314.471 417.86 313.672C422.593 312.224 431.828 312.307 432.979 315.824C426.656 324.11 418.025 329.885 407.654 326.594C406.195 326.132 404.709 325.383 403.886 324.059C403.355 323.205 403.356 322.36 403.733 321.54Z" fill="#930041"/>
<path d="M381.999 306.267C381.999 306.267 386.347 312.348 388.893 313.431C406.513 320.927 434.61 302.825 438.289 296.269C439.407 294.278 439.282 292.098 440.354 285.775C426.242 293.995 405.209 305.077 381.999 306.267Z" fill="white"/>
<path d="M381.999 306.267C381.999 306.267 386.347 312.348 388.893 313.431C406.513 320.927 434.61 302.825 438.289 296.269C439.407 294.278 439.282 292.098 440.354 285.775C426.242 293.995 405.209 305.077 381.999 306.267Z" stroke="#340C10" stroke-width="2.081" stroke-miterlimit="10"/>
<path d="M392.582 318.904C394.954 321.976 401.84 328.649 405.752 330.116C410.002 331.71 416.69 332.272 423.133 328.05C436.469 318.432 437.445 304.125 440.392 295.084C433.981 312.636 425.575 320.343 421.701 322.488C413.936 326.787 410.074 326.584 407.078 326.042C400.614 324.872 396.563 322.052 392.582 318.904Z" fill="#E6637F"/>
<path d="M379.808 305.197C379.539 305.198 383.254 304.565 384.706 303.681C388.808 301.535 390.588 299.88 399.419 296.818C413.765 291.842 422.929 292.438 437.092 285.52C429.702 289.902 411.888 298.175 399.582 301.787C393.135 303.677 385.843 305.176 379.808 305.197Z" fill="#E6637F"/>
<path d="M443.303 187.881C447.896 188.173 453.816 189.428 456.765 192.961C460.156 197.023 463.111 203.17 466.273 205.723C467.432 206.659 480.122 214.757 479.956 210.577C479.756 205.526 479.138 187.576 492.311 187.603C503.104 187.625 508.032 199.579 510.292 207.806C511.713 212.976 513.424 232.41 507.798 243.65C506.583 246.077 503.183 250.128 499.135 249.164C502.572 256.448 503.754 263.596 512.178 264.893C516.424 265.548 521.015 263.098 522.487 259.062C520.215 261.059 517.569 263.187 514.556 262.907C512.63 262.728 510.84 261.47 510.019 259.718C509.199 257.967 509.378 255.787 510.473 254.192C510.109 255.657 511.758 256.825 513.228 257.171C515.366 257.674 517.764 257.425 519.518 256.102C522.18 254.092 521.772 249.947 521.21 247.018C520.456 248.822 518.912 250.278 517.067 250.924C511.87 252.744 509.325 248.467 509.512 245.078C509.762 240.569 511.65 235.9 513.013 227.752C513.756 220.977 515.458 214.91 515.962 202.074C518.973 125.25 452.354 81.6364 388.905 100.189C372.375 105.023 357.637 114.019 338.345 126.476C314.815 145.392 305.197 174.997 309.139 206.54C311.031 221.676 326.204 247.164 327.77 247.764C326.552 242.027 324.929 238.621 325.098 231.487C325.251 224.976 330.303 220.201 332.256 219.005C327.15 194.572 331.159 170.615 339.611 158.711C334.148 168.371 335.375 193.585 346.073 213.324C346.758 211.256 377.521 197.865 402.081 191.602C402.837 191.376 401.394 189.318 401.798 188.639C402.146 188.056 399.475 171.709 399.512 165.703C400.637 174.136 409.78 186.119 417.158 188.802C415.952 188.402 432.093 187.167 443.303 187.881Z" fill="#7B3D2D"/>
<path d="M443.303 187.881C447.896 188.173 453.816 189.428 456.765 192.961C460.156 197.023 463.111 203.17 466.273 205.723C467.432 206.659 480.122 214.757 479.956 210.577C479.756 205.526 479.138 187.576 492.311 187.603C503.104 187.625 508.032 199.579 510.292 207.806C511.713 212.976 513.424 232.41 507.798 243.65C506.583 246.077 503.183 250.128 499.135 249.164C502.572 256.448 503.754 263.596 512.178 264.893C516.424 265.548 521.015 263.098 522.487 259.062C520.215 261.059 517.569 263.187 514.556 262.907C512.63 262.728 510.84 261.47 510.019 259.718C509.199 257.967 509.378 255.787 510.473 254.192C510.109 255.657 511.758 256.825 513.228 257.171C515.366 257.674 517.764 257.425 519.518 256.102C522.18 254.092 521.772 249.947 521.21 247.018C520.456 248.822 518.912 250.278 517.067 250.924C511.87 252.744 509.325 248.467 509.512 245.078C509.762 240.569 511.65 235.9 513.013 227.752C513.756 220.977 515.458 214.91 515.962 202.074C518.973 125.25 452.354 81.6364 388.905 100.189C372.375 105.023 357.637 114.019 338.345 126.476C314.815 145.392 305.197 174.997 309.139 206.54C311.031 221.676 326.204 247.164 327.77 247.764C326.552 242.027 324.929 238.621 325.098 231.487C325.251 224.976 330.303 220.201 332.256 219.005C327.15 194.572 331.159 170.615 339.611 158.711C334.148 168.371 335.375 193.585 346.073 213.324C346.758 211.256 377.521 197.865 402.081 191.602C402.837 191.376 401.394 189.318 401.798 188.639C402.146 188.056 399.475 171.709 399.512 165.703C400.637 174.136 409.78 186.119 417.158 188.802C415.952 188.402 432.093 187.167 443.303 187.881Z" stroke="#5B2924" stroke-width="2" stroke-miterlimit="10"/>
<path d="M367.922 110.961C344.822 129.904 330.092 158.454 329.632 188.44C329.332 198.355 330.282 208.308 331.721 218.189C329.519 208.455 328.032 198.482 328.07 188.415C327.668 158.082 343.107 128.305 367.922 110.961ZM370.266 108.65C337.69 121.686 315.123 155.544 317.131 190.747C317.61 202.311 320.326 213.834 325.329 224.405C319.627 214.189 316.319 202.595 315.572 190.829C312.578 155.181 336.297 119.675 370.266 108.65ZM434.909 97.8219C437.511 130.605 439.531 166.223 460.859 192.975C466.047 199.496 472.126 205.333 478.907 210.269C479.545 210.455 479.824 211.447 479.925 211.545C469.302 204.994 460.125 195.952 453.369 185.43C436.897 159.499 435.247 127.702 434.909 97.8219ZM421.28 94.563C420.542 102.972 421.247 111.506 422.28 119.856C424.473 136.495 429.016 153.062 436.55 168.097C440.386 175.594 444.932 182.731 450.25 189.363C432.308 170.895 423.202 145.331 420.734 120.029C419.984 111.593 419.748 102.918 421.28 94.563ZM454.142 102.593C476.522 115.784 492.732 138.276 499.044 163.638C501.673 173.487 503.009 183.633 503.309 193.761C502.233 183.685 500.389 173.718 497.542 164.06C490.106 137.635 473.366 115.21 450.117 101.11C449.878 101.171 454.05 102.672 454.142 102.593ZM438.968 98.3436C464.794 116.058 479.74 147.33 479.682 178.505C479.856 189.522 478.447 200.503 475.903 211.154C477.686 200.344 478.552 189.419 478.122 178.549C477.335 147.213 462.646 116.715 437.573 97.7523C436.431 96.8889 437.38 97.2546 438.968 98.3436ZM402.308 122.772C400.038 144.879 404.763 167.477 414.611 187.316C413.594 186.903 411.813 186.25 411.112 185.513C406.767 181.647 403.533 176.653 401.229 171.359C400.405 169.437 399.767 167.444 399.287 165.423C401.899 172.619 406.264 179.315 412.113 184.266C412.482 184.561 412.924 184.843 413.186 184.931L412.176 186.092C409.67 181.258 407.539 176.224 405.827 171.05C400.704 155.612 398.963 138.77 402.308 122.772ZM346.693 212.308C335.335 194.62 332.926 171.235 340.007 151.409C345.546 136.414 355.641 123.877 366.571 112.515C370.398 108.857 374.758 105.892 379.188 103.118C372.765 107.694 366.963 112.873 362.191 119.135C357.235 125.149 352.522 131.424 348.569 138.129C343.94 145.895 340.423 154.35 338.87 163.266C336.149 179.841 338.561 197.493 346.693 212.308ZM414.085 96.1161C401.784 115.738 399.675 140.617 399.931 163.495C400.129 172.822 400.754 182.156 402.057 191.439C399.988 182.293 398.832 172.933 398.371 163.546C397.397 140.785 399.716 115.223 412.892 96.1604C412.966 96.2756 414.085 96.1161 414.085 96.1161ZM383.106 196.982C377.016 178.774 375.494 159.08 377.872 140.043C379.846 125.9 383.507 111.036 393.078 99.9709C393.467 99.5402 393.865 99.1181 394.274 98.7056C394.397 98.4575 395.765 98.1671 395.737 98.3834C395.066 99.0945 394.429 99.8353 393.826 100.605C385.044 111.897 381.772 126.385 379.854 140.299C377.435 159.166 378.577 178.496 383.106 196.982ZM377.53 104.741C341.575 127.677 307.237 172.258 321.763 216.794C322.888 220.53 324.886 223.912 326.252 227.541C326.457 228.285 326.656 229.061 327.213 229.628C326.618 229.101 326.358 228.311 326.108 227.587C325.675 226.373 324.594 224.627 323.987 223.446C322.876 221.384 321.928 219.229 321.054 217.055C304.235 172.75 339.84 125.337 377.53 104.741ZM358.946 112.333C354.566 116.485 349.597 119.995 345.299 124.228C340.942 128.372 336.967 132.898 333.394 137.712C315.36 161.808 309.169 193.893 316.654 223.019C317.743 227.358 319.062 231.766 320.807 235.883C321.505 237.198 322.694 238.197 323.922 239.062C322.642 238.279 321.372 237.362 320.546 236.036C319.191 233.36 318.143 230.417 317.102 227.609C306.375 197.324 312.26 161.998 332.155 136.774C335.891 131.965 340.082 127.52 344.641 123.508C349.2 119.471 354.27 116.157 358.946 112.333ZM379.425 103.279C356.033 122.199 347.541 151.519 352.078 180.618C353.629 190.013 356.957 199.237 362.68 207.047C359.498 203.408 356.952 199.217 354.911 194.806C348.893 181.411 348.102 166.2 349.944 151.805C352.487 132.495 363.371 114.272 379.425 103.279Z" fill="#5B2924"/>
<path d="M504.53 224.562L514.377 228.099L516.254 220.132L505.615 218.571L504.53 224.562ZM506.066 213.264L516.045 214.852L516.038 209.123L506.094 208.415L506.066 213.264Z" fill="#EEB657"/>
<path d="M335.967 79.3652C322.78 89.5162 326.864 113.063 344.258 115.627C349.298 116.37 354.418 115.124 359.252 113.517C364.493 111.776 370.017 109.465 374.711 106.524C379.486 103.533 384.664 101.754 390.143 100.218C397.337 98.202 405.051 96.6513 412.669 96.3625C416.538 96.2151 420.421 96.3805 424.257 96.9151C428.022 97.4404 431.322 99.0119 435.004 99.6277C439.698 100.413 444.749 100.179 448.787 97.4012C451.324 95.6563 453.197 93.0852 454.605 90.3473C459.86 80.1262 458.75 70.0372 451.302 61.2833C443.855 52.5303 430.492 49.2158 420.013 53.9344C409.533 58.653 403.131 71.2645 405.976 82.3985C397.098 68.7153 379.468 71.2524 384.631 89.4422C368.24 84.2081 355.329 64.4608 335.967 79.3652Z" fill="#E65680"/>
<path d="M729.413 1074.66C729.413 1074.66 708.606 951.797 668.973 855.687C629.34 750.66 615.028 708.274 615.028 708.274C615.028 708.274 602.257 718.843 559.982 726.88C485.889 740.965 380.313 730.513 360.827 705.082L346.955 757.595C346.955 757.595 280.57 856.678 277.597 1110.33C280.57 1108.35 446.037 1110.33 446.037 1110.33C446.037 1110.33 471.799 1003.32 473.78 959.723C474.771 958.733 487.652 953.779 494.588 953.779C501.524 953.779 518.368 1047.91 562.955 1110.33C562.955 1110.33 735.358 1124.2 729.413 1074.66Z" fill="#B9AE96"/>
<path d="M293.718 922.552C293.718 922.552 309.544 911.171 318.461 898.291C327.378 885.41 353.14 789.3 353.14 789.3L355.122 776.419M590.422 783.401C596.346 807.104 611.394 865.446 617.69 872.529C625.616 881.446 642.46 899.281 652.369 903.244C662.277 907.208 687.047 910.18 687.047 910.18M424.92 798.878L425.801 871.537C425.801 871.537 428.883 914.693 435.489 919.978C442.094 925.262 467.195 924.823 467.195 924.823C467.195 924.823 455.305 892.236 456.186 863.612C457.068 834.947 457.507 801.079 457.507 801.079L424.92 798.878Z" stroke="#9A967E" stroke-width="2" stroke-miterlimit="10"/>
<path d="M458.384 975.861C445.475 977.13 432.355 976.213 419.749 973.159C431.237 967 443.301 961.917 455.734 957.997C438.399 960.476 420.618 959.804 403.52 956.022C422.661 956.117 441.802 956.21 460.942 956.304C457.119 953.928 453.492 951.235 450.112 948.262C452.292 952.403 457.713 953.818 462.337 953.095C466.96 952.372 471.143 950.026 475.53 948.398C482.649 945.756 490.461 945.006 497.952 946.247C490.733 945.617 483.515 944.988 476.296 944.359C495.371 937.644 514.702 930.871 534.854 929.182C520.949 937.77 506.025 944.709 490.495 949.802C495.009 949.713 499.998 949.499 504.512 949.41C499.818 950.483 495.125 951.556 490.432 952.63C486.671 953.491 482.906 954.353 479.222 955.499C477.171 956.136 475.145 956.862 473.065 957.396C469.16 958.398 465.08 958.714 461.067 958.325" stroke="#A8A088" stroke-width="2" stroke-miterlimit="10"/>
<path d="M651.378 977.556C651.378 977.556 670.1 1103.7 672.185 1107.35C674.827 1111.98 684.075 1112.31 684.075 1112.31C684.075 1112.31 736.589 1112.31 734.607 1076.64C732.625 1040.97 703.893 946.84 703.893 946.84L651.378 977.556Z" fill="#BDB29A"/>
<path d="M651.378 977.556C651.378 977.556 670.1 1103.7 672.185 1107.35C674.827 1111.98 684.075 1112.31 684.075 1112.31C684.075 1112.31 736.589 1112.31 734.607 1076.64C732.625 1040.97 703.893 946.84 703.893 946.84L651.378 977.556Z" stroke="#9A967E" stroke-width="2" stroke-miterlimit="10"/>
<path d="M634.166 933.646C641.774 932.132 674.367 925.278 690.501 915.969C692.52 914.804 695.092 915.691 695.975 917.847C698.417 923.806 703.094 939.374 705.585 945.151C706.885 948.167 707.044 951.565 705.955 954.664C702.405 964.767 678.892 979.418 647.416 988.456C643.858 989.345 634.708 944.713 632.875 935.579C632.696 934.686 633.273 933.824 634.166 933.646Z" fill="#BDB29A"/>
<path d="M634.166 933.646C641.774 932.132 674.367 925.278 690.501 915.969C692.52 914.804 695.092 915.691 695.975 917.847C698.417 923.806 703.094 939.374 705.585 945.151C706.885 948.167 707.044 951.565 705.955 954.664C702.405 964.767 678.892 979.418 647.416 988.456C643.858 989.345 634.708 944.713 632.875 935.579C632.696 934.686 633.273 933.824 634.166 933.646Z" stroke="#9A967E" stroke-width="2" stroke-miterlimit="10"/>
<path d="M305.581 976.566L292.7 1068.71C292.7 1068.71 284.774 1092.82 277.838 1094.8C270.902 1096.79 283.122 964.016 283.122 964.016L305.581 976.566Z" fill="#BDB29A"/>
<path d="M305.581 976.566L292.7 1068.71C292.7 1068.71 284.774 1092.82 277.838 1094.8C270.902 1096.79 283.122 964.016 283.122 964.016L305.581 976.566Z" stroke="#9A967E" stroke-width="2" stroke-miterlimit="10"/>
<path d="M288.406 944.859C284.13 948.027 280.909 951.027 278.683 953.868C275.631 957.764 275.025 963.039 277.109 967.527L286.338 987.404C287.059 988.956 289.034 989.435 290.385 988.384L305.58 976.565C305.58 976.565 287.745 953.446 288.406 944.859Z" fill="#BDB29A"/>
<path d="M288.406 944.859C284.13 948.027 280.909 951.027 278.683 953.868C275.631 957.764 275.025 963.039 277.109 967.527L286.338 987.404C287.059 988.956 289.034 989.435 290.385 988.384L305.58 976.565C305.58 976.565 287.745 953.446 288.406 944.859Z" stroke="#9A967E" stroke-width="2" stroke-miterlimit="10"/>
<path d="M449.187 763.977C455.543 764.417 460.442 768.443 460.129 772.969C459.815 777.497 454.409 780.809 448.053 780.369C441.697 779.929 436.798 775.903 437.111 771.377C437.424 766.851 442.831 763.537 449.187 763.977ZM449.941 738.365C455.835 738.773 460.377 742.506 460.087 746.703C459.797 750.901 454.783 753.973 448.889 753.565C442.995 753.157 438.453 749.424 438.743 745.227C439.034 741.029 444.047 737.958 449.941 738.365Z" fill="#9A967E"/>
<g style="mix-blend-mode:multiply">
<path d="M350.589 743.06C354.782 788.212 513.216 789.909 623.286 731.705C623.267 731.919 635.141 764.293 635.185 764.365C599.734 786.036 512.527 807.798 440.652 800.2C370.709 792.806 349.313 775.687 344.889 760.957C345.016 760.919 347.016 757.418 346.851 757.594C348.358 751.358 350.767 742.793 350.589 743.06Z" fill="#B9AE96" fill-opacity="0.12"/>
</g>
<path d="M339.489 768.933C339.489 768.933 430.204 841.593 636.296 768.052" stroke="#9A967E" stroke-width="2" stroke-miterlimit="10"/>
<path d="M528.186 809.447C533.03 809.887 566.143 802.654 569.8 800.199C576.83 795.48 560.332 729.961 553.286 725.557C540.609 726.876 530.277 728.53 511.671 731.172C523.494 754.448 526.892 785.918 528.186 809.447Z" fill="#BDB29A"/>
<path d="M528.186 809.447C533.03 809.887 566.143 802.654 569.8 800.199C576.83 795.48 560.332 729.961 553.286 725.557C540.609 726.876 530.277 728.53 511.671 731.172C523.494 754.448 526.892 785.918 528.186 809.447Z" stroke="#9A967E" stroke-width="2" stroke-miterlimit="10"/>
<path d="M598.204 714.988C612.516 731.502 619.342 763.869 623.305 784.346C632.79 781.896 639.101 779.918 644.222 775.098C639.775 752.541 628.809 726.658 616.039 705.52C609.203 709.737 605.613 711.885 598.204 714.988Z" fill="#BDB29A"/>
<path d="M598.204 714.988C612.516 731.502 619.342 763.869 623.305 784.346C632.79 781.896 639.101 779.918 644.222 775.098C639.775 752.541 628.809 726.658 616.039 705.52C609.203 709.737 605.613 711.885 598.204 714.988Z" stroke="#9A967E" stroke-width="2" stroke-miterlimit="10"/>
<path d="M358.424 790.951C358.424 790.951 341.892 783.918 338.489 777.763C335.06 773.384 359.099 704.259 360.627 704.639C363.14 706.611 366.713 709.662 380.442 715.648C371.261 732.18 363.751 762.079 358.424 790.951Z" fill="#BDB29A"/>
<path d="M358.424 790.951C358.424 790.951 341.892 783.918 338.489 777.763C335.06 773.384 359.099 704.259 360.627 704.639C363.14 706.611 366.713 709.662 380.442 715.648C371.261 732.18 363.751 762.079 358.424 790.951Z" stroke="#9A967E" stroke-width="2" stroke-miterlimit="10"/>
<defs>
<radialGradient id="paint0_radial_53_420" cx="0" cy="0" r="1" gradientUnits="userSpaceOnUse" gradientTransform="translate(443.58 252.978) rotate(-2.2693) scale(25.6866 25.6866)">
<stop stop-color="#E65680"/>
<stop offset="0.46" stop-color="#DE7480"/>
<stop offset="1" stop-color="#D69280"/>
</radialGradient>
<radialGradient id="paint1_radial_53_420" cx="0" cy="0" r="1" gradientUnits="userSpaceOnUse" gradientTransform="translate(352.93 283.649) rotate(-2.2693) scale(18.3467)">
<stop stop-color="#E65680"/>
<stop offset="0.46" stop-color="#DE7480"/>
<stop offset="1" stop-color="#D69280"/>
</radialGradient>
</defs>
</svg>
