<svg width="500" height="500" viewBox="0 0 500 500" fill="none" xmlns="http://www.w3.org/2000/svg">
<path d="M500 382.4H0V382.65H500V382.4Z" fill="#EBEBEB"/>
<path d="M449.9 398.49H416.78V398.74H449.9V398.49Z" fill="#EBEBEB"/>
<path d="M331.22 401.21H322.53V401.46H331.22V401.21Z" fill="#EBEBEB"/>
<path d="M415.78 389.21H396.59V389.46H415.78V389.21Z" fill="#EBEBEB"/>
<path d="M95.65 390.89H52.46V391.14H95.65V390.89Z" fill="#EBEBEB"/>
<path d="M110.89 390.89H104.56V391.14H110.89V390.89Z" fill="#EBEBEB"/>
<path d="M225.15 395.11H131.47V395.36H225.15V395.11Z" fill="#EBEBEB"/>
<path d="M237 337.8H43.91C42.3973 337.797 40.9475 337.195 39.8788 336.124C38.8102 335.054 38.21 333.603 38.21 332.09V60.66C38.2231 59.156 38.8292 57.718 39.8964 56.6582C40.9637 55.5985 42.4059 55.0026 43.91 55H237C238.514 55 239.967 55.6016 241.038 56.6724C242.108 57.7433 242.71 59.1956 242.71 60.71V332.09C242.71 333.604 242.108 335.057 241.038 336.128C239.967 337.198 238.514 337.8 237 337.8ZM43.91 55.2C42.4636 55.2026 41.0774 55.7791 40.0556 56.8027C39.0338 57.8264 38.46 59.2136 38.46 60.66V332.09C38.46 333.536 39.0338 334.924 40.0556 335.947C41.0774 336.971 42.4636 337.547 43.91 337.55H237C238.447 337.547 239.834 336.971 240.858 335.948C241.881 334.924 242.457 333.537 242.46 332.09V60.66C242.457 59.2127 241.881 57.8255 240.858 56.8021C239.834 55.7787 238.447 55.2026 237 55.2H43.91Z" fill="#EBEBEB"/>
<path d="M453.31 337.8H260.21C258.696 337.797 257.246 337.195 256.175 336.125C255.105 335.054 254.503 333.604 254.5 332.09V60.66C254.516 59.1551 255.124 57.7171 256.193 56.6576C257.262 55.5981 258.705 55.0025 260.21 55H453.31C454.812 55.0052 456.252 55.6022 457.317 56.6617C458.382 57.7212 458.987 59.1578 459 60.66V332.09C459 333.601 458.401 335.05 457.335 336.121C456.268 337.191 454.821 337.795 453.31 337.8ZM260.21 55.2C258.763 55.2026 257.375 55.7787 256.352 56.8021C255.329 57.8255 254.753 59.2127 254.75 60.66V332.09C254.753 333.537 255.329 334.924 256.352 335.948C257.375 336.971 258.763 337.547 260.21 337.55H453.31C454.757 337.547 456.145 336.971 457.168 335.948C458.191 334.924 458.767 333.537 458.77 332.09V60.66C458.767 59.2127 458.191 57.8255 457.168 56.8021C456.145 55.7787 454.757 55.2026 453.31 55.2H260.21Z" fill="#EBEBEB"/>
<path d="M280.02 259.3H63.53V374.08H280.02V259.3Z" fill="#F0F0F0"/>
<path d="M223.92 213.7H119.64V419.69H223.92V213.7Z" fill="#E6E6E6"/>
<path d="M132.44 305.17H28.1599V328.21H132.44V305.17Z" fill="#E0E0E0"/>
<path d="M343.95 310.16H229.17V323.22H343.95V310.16Z" fill="#E6E6E6"/>
<path d="M174.58 213.7H168.98V419.69H174.58V213.7Z" fill="#F0F0F0"/>
<path d="M77.72 382.4H73.2L70.97 374.08H77.72V382.4Z" fill="#F0F0F0"/>
<path d="M265.83 382.4H270.35L272.58 374.08H265.83V382.4Z" fill="#F0F0F0"/>
<path d="M95.3301 382.4H90.8201L88.5801 374.08H95.3301V382.4Z" fill="#E6E6E6"/>
<path d="M283.45 382.4H287.96L290.2 374.08H283.45V382.4Z" fill="#E6E6E6"/>
<path d="M98.3699 268.37H87.4099V313.9H98.3699V268.37Z" fill="#F0F0F0"/>
<path d="M127.68 268.37H98.3701V313.9H127.68V268.37Z" fill="#E0E0E0"/>
<path d="M108.11 273.58H101.93V313.9H108.11V273.58Z" fill="#FAFAFA"/>
<path d="M124.62 273.58H108.11V313.9H124.62V273.58Z" fill="#EBEBEB"/>
<path d="M126.9 313.89H117.75L112.48 275.9H121.63L126.9 313.89Z" fill="#FAFAFA"/>
<path d="M126.9 313.89H151.36L146.09 275.9H121.63L126.9 313.89Z" fill="#EBEBEB"/>
<path d="M169.12 335.58H158.16V368.83H169.12V335.58Z" fill="#F0F0F0"/>
<path d="M185.39 335.58H169.12V368.83H185.39V335.58Z" fill="#E0E0E0"/>
<path d="M181.16 328.52H174.98V368.84H181.16V328.52Z" fill="#FAFAFA"/>
<path d="M197.67 328.52H181.16V368.84H197.67V328.52Z" fill="#EBEBEB"/>
<path d="M90.12 368.83H80.97L75.7 330.84H84.85L90.12 368.83Z" fill="#F0F0F0"/>
<path d="M90.1201 368.83H114.58L109.31 330.84H84.8501L90.1201 368.83Z" fill="#E0E0E0"/>
<path d="M163.57 285.65H152.61V331.18H163.57V285.65Z" fill="#E6E6E6"/>
<path d="M194.74 300.01H183.78V316.82H194.74V300.01Z" fill="#E0E0E0"/>
<path d="M194.24 300.74H185.77V316.08H194.24V300.74Z" fill="#F0F0F0"/>
<path d="M165.17 275.89H156.62V321.42H165.17V275.89Z" fill="#F0F0F0"/>
<path d="M196.34 290.25H187.79V307.06H196.34V290.25Z" fill="#E6E6E6"/>
<path d="M196.1 290.99H189.5V306.33H196.1V290.99Z" fill="#F0F0F0"/>
<path d="M224.01 338.41H212.2V387.44H224.01V338.41Z" fill="#F5F5F5"/>
<path d="M257.58 353.87H245.77V371.98H257.58V353.87Z" fill="#E0E0E0"/>
<path d="M257.03 354.67H247.91V371.19H257.03V354.67Z" fill="#F0F0F0"/>
<path d="M225 323.22H215.45V362.86H225V323.22Z" fill="#FAFAFA"/>
<path d="M252.15 335.72H242.6V350.36H252.15V335.72Z" fill="#E0E0E0"/>
<path d="M251.7 336.36H244.33V349.72H251.7V336.36Z" fill="#F5F5F5"/>
<path d="M122.08 344.19H112.53V383.83H122.08V344.19Z" fill="#FAFAFA"/>
<path d="M149.22 356.7H139.67V371.34H149.22V356.7Z" fill="#E0E0E0"/>
<path d="M148.77 357.34H141.4V370.7H148.77V357.34Z" fill="#F5F5F5"/>
<path d="M225.73 327.9H216.52V376.93H225.73V327.9Z" fill="#F0F0F0"/>
<path d="M259.3 343.37H250.09V361.48H259.3V343.37Z" fill="#E6E6E6"/>
<path d="M259.04 344.16H251.93V360.68H259.04V344.16Z" fill="#F0F0F0"/>
<path d="M211.68 278.78H202.8V315.66H211.68V278.78Z" fill="#F0F0F0"/>
<path d="M235.44 278.78H211.69V315.66H235.44V278.78Z" fill="#E0E0E0"/>
<path d="M231.33 283H222.8V315.67H231.33V283Z" fill="#FAFAFA"/>
<path d="M245.91 283H231.33V315.67H245.91V283Z" fill="#EBEBEB"/>
<path d="M326.72 315.87H355.66C358.976 315.87 362.185 314.699 364.723 312.564C367.26 310.429 368.963 307.467 369.53 304.2L377.19 260.2C378.052 255.257 380.632 250.778 384.473 247.551C388.315 244.323 393.173 242.556 398.19 242.56H427.27C429.236 242.558 431.179 242.987 432.962 243.816C434.745 244.646 436.325 245.855 437.59 247.36C438.856 248.865 439.777 250.628 440.288 252.527C440.799 254.426 440.889 256.413 440.55 258.35L432.55 304.42C431.69 309.363 429.11 313.842 425.268 317.068C421.426 320.294 416.567 322.058 411.55 322.05H319.37C319.673 320.32 320.576 318.753 321.921 317.623C323.265 316.492 324.964 315.872 326.72 315.87Z" fill="#E0E0E0"/>
<path d="M407 322.05H410.33L416.36 382.4H413.03L407 322.05Z" fill="#EBEBEB"/>
<path d="M380.33 322.05H383.66L389.68 382.4H386.35L380.33 322.05Z" fill="#EBEBEB"/>
<path d="M408.73 322.05H382.65V325.17H408.73V322.05Z" fill="#EBEBEB"/>
<path d="M331.26 322.05H327.93L321.91 382.4H325.24L331.26 322.05Z" fill="#EBEBEB"/>
<path d="M357.94 322.05H354.61L348.58 382.4H351.92L357.94 322.05Z" fill="#EBEBEB"/>
<path d="M355.63 322.05H329.55V325.17H355.63V322.05Z" fill="#EBEBEB"/>
<path d="M114.21 243.15C114.21 247.436 115.913 251.546 118.943 254.577C121.974 257.607 126.084 259.31 130.37 259.31C134.656 259.31 138.766 257.607 141.797 254.577C144.827 251.546 146.53 247.436 146.53 243.15H114.21Z" fill="#E0E0E0"/>
<path d="M139.23 246.85C139.322 250.092 140.674 253.171 143 255.431C145.326 257.692 148.442 258.957 151.685 258.957C154.928 258.957 158.044 257.692 160.37 255.431C162.696 253.171 164.048 250.092 164.14 246.85H139.23Z" fill="#EBEBEB"/>
<path d="M369.66 98.09H135.33V210.98H369.66V98.09Z" fill="#F5F5F5"/>
<path d="M199.33 201.13C222.266 201.13 240.86 182.536 240.86 159.6C240.86 136.664 222.266 118.07 199.33 118.07C176.394 118.07 157.8 136.664 157.8 159.6C157.8 182.536 176.394 201.13 199.33 201.13Z" fill="#FAFAFA"/>
<path d="M371.16 208.09H133.83V215.7H371.16V208.09Z" fill="#EBEBEB"/>
<path d="M293.58 106.76H211.42C211.059 106.76 210.713 106.903 210.458 107.158C210.203 107.413 210.06 107.759 210.06 108.12C210.06 108.481 210.203 108.827 210.458 109.082C210.713 109.337 211.059 109.48 211.42 109.48H293.58C293.941 109.48 294.287 109.337 294.542 109.082C294.797 108.827 294.94 108.481 294.94 108.12C294.94 107.759 294.797 107.413 294.542 107.158C294.287 106.903 293.941 106.76 293.58 106.76Z" fill="#EBEBEB"/>
<path d="M161 125.7C161 125.7 161.28 135.81 160 138.82C164.78 140.16 173.89 140.14 173.89 140.14C173.89 140.14 175.44 130.43 174.89 126.58C172.23 126 161 125.7 161 125.7Z" fill="#E6E6E6"/>
<path d="M161 125.7C161 125.7 160.32 135.79 159 138.8C163.28 139.804 167.623 140.515 172 140.93C172 140.93 175.54 130.44 174.9 126.58C172.23 126 161 125.7 161 125.7Z" fill="white"/>
<path d="M188.8 148.55C188.8 148.55 190.26 163.61 188.65 168.22C195.92 169.74 208.72 168.45 208.72 168.45C208.72 168.45 210.82 154.1 209.66 148.45C205.52 147.81 188.8 148.55 188.8 148.55Z" fill="#E6E6E6"/>
<path d="M187.38 147C187.38 147 186.95 165.57 185.38 170.19C192.66 171.7 207.8 170.64 207.8 170.64C207.8 170.64 210.85 152.51 209.5 146.82C205.31 146.21 187.38 147 187.38 147Z" fill="white"/>
<path d="M264.58 179.56C264.58 179.56 266.97 189.39 266.33 192.56C271.33 192.88 280.02 190.97 280.02 190.97C280.02 190.97 279.68 181.12 278.38 177.47C275.58 177.5 264.58 179.56 264.58 179.56Z" fill="#E6E6E6"/>
<path d="M264.58 179.56C264.58 179.56 266.02 189.56 265.39 192.78C270.39 193.1 279.5 191.94 279.5 191.94C279.5 191.94 279.81 181.14 278.38 177.51C275.58 177.5 264.58 179.56 264.58 179.56Z" fill="white"/>
<path d="M311.28 142.81C311.28 142.81 317.38 156.66 317.28 161.55C324.66 160.71 337.38 156.45 337.38 156.45C337.38 156.45 333.93 141.21 331.06 136.17C326.94 136.89 311.28 142.81 311.28 142.81Z" fill="#E6E6E6"/>
<path d="M309.45 141.77C309.45 141.77 314.84 159.55 314.75 164.44C322.14 163.61 336.19 157.87 336.19 157.87C336.19 157.87 333.42 139.69 330.36 134.71C326.24 135.43 309.45 141.77 309.45 141.77Z" fill="white"/>
<path d="M329 140.98C329.878 140.98 330.59 140.268 330.59 139.39C330.59 138.512 329.878 137.8 329 137.8C328.122 137.8 327.41 138.512 327.41 139.39C327.41 140.268 328.122 140.98 329 140.98Z" fill="#E6E6E6"/>
<path d="M214.8 139.86C214.719 139.86 214.64 139.84 214.57 139.8C214.452 139.74 214.363 139.636 214.322 139.51C214.281 139.385 214.291 139.248 214.35 139.13C215.54 136.85 217.82 135.45 219.9 134.39C230.73 128.84 243.4 127.75 253.23 127.39C260.248 127.037 267.283 127.389 274.23 128.44C281.248 129.515 287.961 132.057 293.93 135.9C294.041 135.974 294.119 136.09 294.145 136.221C294.171 136.352 294.144 136.489 294.07 136.6C293.996 136.711 293.88 136.789 293.749 136.815C293.618 136.841 293.481 136.814 293.37 136.74C287.522 132.967 280.941 130.476 274.06 129.43C267.161 128.401 260.176 128.066 253.21 128.43C243.49 128.76 230.96 129.84 220.3 135.3C218.37 136.3 216.24 137.58 215.19 139.61C215.15 139.68 215.094 139.739 215.026 139.783C214.958 139.826 214.88 139.853 214.8 139.86Z" fill="#E6E6E6"/>
<path d="M282.58 140.65C282.495 140.65 282.412 140.627 282.338 140.585C282.265 140.543 282.203 140.483 282.16 140.41C282.089 140.299 282.064 140.163 282.092 140.034C282.121 139.905 282.199 139.792 282.31 139.72C283.448 139.086 284.711 138.71 286.01 138.62C289.971 138.126 293.979 138.163 297.93 138.73C296.815 137.412 295.811 136.004 294.93 134.52C294.427 133.761 294.065 132.917 293.86 132.03C293.756 131.538 293.764 131.029 293.884 130.541C294.003 130.053 294.231 129.598 294.55 129.21C294.595 129.161 294.649 129.122 294.708 129.094C294.768 129.066 294.833 129.051 294.899 129.048C294.965 129.045 295.031 129.055 295.093 129.078C295.155 129.101 295.212 129.135 295.26 129.18C295.309 129.225 295.348 129.278 295.376 129.338C295.404 129.398 295.419 129.463 295.422 129.529C295.425 129.595 295.415 129.661 295.392 129.722C295.369 129.784 295.335 129.841 295.29 129.89C295.067 130.166 294.91 130.491 294.834 130.838C294.758 131.185 294.763 131.545 294.85 131.89C295.031 132.661 295.349 133.392 295.79 134.05C296.886 135.879 298.169 137.588 299.62 139.15C299.69 139.228 299.734 139.325 299.746 139.429C299.759 139.533 299.739 139.638 299.69 139.73C299.639 139.822 299.561 139.896 299.466 139.941C299.37 139.986 299.264 139.999 299.16 139.98C294.868 139.22 290.485 139.112 286.16 139.66C285.011 139.733 283.891 140.058 282.88 140.61C282.786 140.651 282.682 140.664 282.58 140.65Z" fill="#E6E6E6"/>
<path d="M296.75 177.87C296.618 177.878 296.487 177.833 296.388 177.745C296.288 177.657 296.228 177.533 296.22 177.4C296.212 177.267 296.257 177.137 296.345 177.038C296.434 176.938 296.558 176.878 296.69 176.87C299.441 176.544 302.083 175.602 304.42 174.115C306.757 172.628 308.729 170.633 310.19 168.28C310.224 168.223 310.269 168.174 310.322 168.135C310.375 168.095 310.436 168.067 310.5 168.051C310.564 168.035 310.631 168.032 310.696 168.043C310.761 168.053 310.824 168.076 310.88 168.11C310.993 168.18 311.073 168.292 311.105 168.421C311.137 168.549 311.117 168.686 311.05 168.8C309.506 171.282 307.424 173.385 304.957 174.953C302.491 176.522 299.703 177.515 296.8 177.86L296.75 177.87Z" fill="#E6E6E6"/>
<path d="M301.29 182.19C297.194 181.85 293.188 180.801 289.45 179.09C289.375 179.052 289.311 178.997 289.262 178.929C289.214 178.861 289.182 178.783 289.17 178.7C289.156 178.619 289.163 178.536 289.191 178.459C289.219 178.381 289.267 178.313 289.33 178.26C290.95 176.81 292.56 175.31 294.11 173.8C294.157 173.753 294.212 173.716 294.273 173.691C294.334 173.665 294.399 173.652 294.465 173.652C294.531 173.652 294.596 173.665 294.657 173.691C294.718 173.716 294.774 173.753 294.82 173.8C294.912 173.895 294.964 174.022 294.964 174.155C294.964 174.288 294.912 174.415 294.82 174.51C293.44 175.85 292.02 177.18 290.58 178.51C294.009 179.991 297.657 180.903 301.38 181.21C301.511 181.225 301.631 181.289 301.716 181.389C301.802 181.49 301.846 181.618 301.84 181.75C301.823 181.88 301.756 181.998 301.653 182.08C301.551 182.162 301.421 182.201 301.29 182.19Z" fill="#E6E6E6"/>
<path d="M245 190.43C232.05 190.43 219.35 184.65 213.39 178.83C213.307 178.735 213.264 178.612 213.268 178.486C213.272 178.36 213.323 178.241 213.411 178.151C213.5 178.061 213.619 178.008 213.745 178.002C213.87 177.997 213.994 178.039 214.09 178.12C221.58 185.44 241.19 193 257.09 187.5C257.153 187.471 257.222 187.456 257.291 187.456C257.36 187.455 257.429 187.469 257.493 187.496C257.556 187.523 257.614 187.563 257.661 187.614C257.708 187.665 257.745 187.725 257.768 187.79C257.791 187.855 257.8 187.925 257.794 187.994C257.789 188.063 257.769 188.13 257.737 188.191C257.704 188.253 257.659 188.306 257.604 188.349C257.55 188.392 257.487 188.423 257.42 188.44C253.42 189.793 249.222 190.466 245 190.43Z" fill="#E6E6E6"/>
<path d="M215.4 186.78C215.318 186.779 215.236 186.759 215.163 186.721C215.09 186.682 215.028 186.627 214.98 186.56C212.681 183.16 210.99 179.388 209.98 175.41C209.961 175.328 209.962 175.242 209.983 175.16C210.004 175.079 210.044 175.003 210.1 174.94C210.157 174.88 210.227 174.834 210.306 174.808C210.385 174.782 210.468 174.776 210.55 174.79C212.69 175.14 214.87 175.45 217.02 175.71C217.084 175.717 217.147 175.738 217.204 175.769C217.26 175.801 217.31 175.844 217.35 175.895C217.39 175.946 217.42 176.005 217.437 176.067C217.454 176.13 217.458 176.196 217.45 176.26C217.435 176.391 217.369 176.511 217.266 176.593C217.163 176.676 217.031 176.714 216.9 176.7C214.99 176.47 213.06 176.2 211.15 175.9C212.151 179.498 213.732 182.91 215.83 186C215.868 186.054 215.894 186.114 215.908 186.178C215.922 186.242 215.923 186.308 215.911 186.372C215.898 186.437 215.874 186.498 215.837 186.553C215.801 186.607 215.754 186.654 215.7 186.69C215.612 186.751 215.507 186.782 215.4 186.78Z" fill="#E6E6E6"/>
<path d="M250 427.56C357.083 427.56 443.89 422.492 443.89 416.24C443.89 409.988 357.083 404.92 250 404.92C142.918 404.92 56.1101 409.988 56.1101 416.24C56.1101 422.492 142.918 427.56 250 427.56Z" fill="#F5F5F5"/>
<path d="M216.28 182.36C222.493 182.36 227.53 177.323 227.53 171.11C227.53 164.897 222.493 159.86 216.28 159.86C210.067 159.86 205.03 164.897 205.03 171.11C205.03 177.323 210.067 182.36 216.28 182.36Z" fill="#44372E"/>
<path d="M217.46 172.5C214.46 175.25 210.13 175.42 207.8 172.87C205.47 170.32 206 166 209 163.29C212 160.58 216.33 160.37 218.66 162.92C220.99 165.47 220.46 169.75 217.46 172.5Z" fill="#B9AE96"/>
<path d="M198.71 179.03C204.481 179.03 209.16 174.351 209.16 168.58C209.16 162.809 204.481 158.13 198.71 158.13C192.939 158.13 188.26 162.809 188.26 168.58C188.26 174.351 192.939 179.03 198.71 179.03Z" fill="#44372E"/>
<path d="M187.35 193.9C186.23 196.9 184.97 199.51 183.63 202.24C182.29 204.97 180.77 207.57 179.16 210.15C177.547 212.768 175.763 215.277 173.82 217.66C172.84 218.86 171.803 220.03 170.71 221.17C170.17 221.75 169.6 222.3 169.02 222.85C168.74 223.13 168.43 223.39 168.14 223.66L167.69 224.07C167.392 224.324 167.078 224.558 166.75 224.77C166.004 225.249 165.166 225.565 164.29 225.7C163.508 225.817 162.712 225.79 161.94 225.62C160.812 225.372 159.745 224.903 158.8 224.24C157.41 223.244 156.154 222.074 155.06 220.76C153.128 218.453 151.389 215.992 149.86 213.4C146.904 208.396 144.327 203.178 142.15 197.79L145.82 195.92C147.27 198.29 148.76 200.7 150.3 203.03C151.84 205.36 153.38 207.69 155.02 209.89C156.567 212.068 158.275 214.127 160.13 216.05C160.911 216.871 161.795 217.587 162.76 218.18C162.988 218.334 163.248 218.433 163.52 218.47C163.52 218.47 163.47 218.47 163.31 218.47C163.155 218.486 163.005 218.534 162.87 218.61H162.8L163.15 218.26C163.38 218.03 163.62 217.81 163.84 217.56C164.3 217.087 164.75 216.597 165.19 216.09C166.07 215.09 166.92 214.03 167.72 212.93C169.34 210.74 170.84 208.42 172.27 206.04C173.7 203.66 174.99 201.17 176.27 198.67C177.55 196.17 178.7 193.55 179.71 191.12L187.35 193.9Z" fill="#F8B7AE"/>
<path d="M192.91 196.55C191.73 198.9 188.25 202.96 185.52 205.96C183.52 208.11 181.99 209.72 181.99 209.72L180.78 208.72L170.78 200.1C173.66 194 177.27 187.51 185.18 186.44C190.12 185.73 195 192.37 192.91 196.55Z" fill="#44372E"/>
<path opacity="0.3" d="M185.52 206C183.52 208.15 181.99 209.76 181.99 209.76L180.78 208.76C181.78 206.3 183.49 202.49 185.4 201.1C185.791 202.706 185.832 204.377 185.52 206Z" fill="#493628"/>
<path d="M146.33 197.75L147.58 190.86L139.17 191.18C139.17 191.18 140.81 196.73 142.99 199.18L146.33 197.75Z" fill="#F8B7AE"/>
<path d="M145.28 187.7L139.04 189.1L139.17 191.18L147.58 190.86L145.28 187.7Z" fill="#F8B7AE"/>
<path d="M198.42 408.47L190.31 409.23L190.45 390.73L198.56 389.97L198.42 408.47Z" fill="#F8B7AE"/>
<path d="M241.36 404.61L233.37 405.83L228.48 387.81L236.47 386.58L241.36 404.61Z" fill="#F8B7AE"/>
<path d="M232 402.87L240.91 401.05C241.06 401.013 241.218 401.035 241.352 401.111C241.486 401.187 241.586 401.312 241.63 401.46L243.89 408.26C243.939 408.435 243.952 408.618 243.928 408.798C243.903 408.978 243.842 409.151 243.749 409.306C243.655 409.462 243.531 409.596 243.383 409.702C243.235 409.808 243.067 409.882 242.89 409.92C239.77 410.5 238.25 410.62 234.33 411.42C231.92 411.92 226.65 413.36 223.33 414.04C220.01 414.72 219.25 411.48 220.58 410.9C226.58 408.3 229.01 405.8 230.79 403.62C231.095 403.239 231.522 402.974 232 402.87Z" fill="#44372E"/>
<path d="M189.43 406.83H199C199.17 406.83 199.336 406.887 199.47 406.992C199.605 407.097 199.7 407.244 199.74 407.41L201.6 414.96C201.646 415.141 201.65 415.33 201.611 415.513C201.572 415.696 201.491 415.867 201.375 416.013C201.259 416.159 201.11 416.277 200.941 416.356C200.772 416.435 200.587 416.474 200.4 416.47C197.03 416.47 195.4 416.24 191.24 416.24C188.66 416.24 181.97 416.49 178.41 416.49C174.85 416.49 174.29 412.96 175.74 412.64C182.25 411.21 186.04 409.24 188.09 407.35C188.457 407.017 188.934 406.831 189.43 406.83Z" fill="#44372E"/>
<path opacity="0.2" d="M190.45 390.73L190.37 400.27H198.48L198.56 389.97L190.45 390.73Z" fill="#493628"/>
<path opacity="0.2" d="M236.48 386.59L228.48 387.81L231 397.1L239 395.88L236.48 386.59Z" fill="#493628"/>
<path d="M219.68 234.32L186.99 235.23C179.31 188.23 182.93 186.91 182.93 186.91C182.93 186.91 188.54 185.55 194.19 184.7C195.05 184.57 195.91 184.45 196.75 184.35C201.684 183.856 206.646 183.716 211.6 183.93C212.33 183.93 213.06 183.93 213.79 184C217.714 184.225 221.621 184.682 225.49 185.37C224.15 191.18 223.08 196.12 222.25 200.44C221.17 206.07 220.47 210.62 220.05 214.61C219.398 221.159 219.274 227.751 219.68 234.32Z" fill="#44372E"/>
<path opacity="0.3" d="M220.05 214.61C218.47 209.7 218.71 199.47 220.53 196.12L222.25 200.44C221.17 206.07 220.47 210.62 220.05 214.61Z" fill="#493628"/>
<path d="M209.31 173.82C209.1 177.82 209.52 182 211.61 183.93C211.61 183.93 209.51 193.84 197.61 199.67C189.96 190.17 196.78 184.34 196.78 184.34C202.11 182.92 202.21 179.34 200.78 173.54L205 171.8C205.375 171.454 205.845 171.227 206.35 171.149C206.855 171.07 207.371 171.144 207.834 171.361C208.296 171.578 208.684 171.928 208.947 172.366C209.21 172.804 209.336 173.31 209.31 173.82Z" fill="#F8B7AE"/>
<path opacity="0.2" d="M205 171.8C205.351 171.472 205.787 171.249 206.258 171.157C206.73 171.065 207.218 171.107 207.667 171.279C208.115 171.451 208.506 171.746 208.795 172.13C209.084 172.514 209.259 172.971 209.3 173.45C207.41 176.353 204.668 178.599 201.45 179.88C201.616 177.742 201.382 175.592 200.76 173.54L205 171.8Z" fill="#493628"/>
<path d="M217.08 161.94C214.08 169.44 213.03 172.67 207.93 175.44C200.25 179.61 191.78 174.6 192.46 166.44C193.07 159.09 197.8 148.06 206.21 147.24C208.047 147.045 209.904 147.333 211.595 148.077C213.287 148.82 214.755 149.993 215.853 151.478C216.952 152.964 217.643 154.711 217.858 156.546C218.073 158.381 217.805 160.241 217.08 161.94Z" fill="#F8B7AE"/>
<path d="M212.85 155.24C205.14 156.49 193.95 151.43 196.11 145.67C197.6 141.67 202.78 144.51 202.78 144.51C202.78 144.51 211.07 142.2 216.94 146.75C222.81 151.3 224.35 161.75 213.44 168.58C210 164.72 209.69 158.16 212.85 155.24Z" fill="#44372E"/>
<path d="M216.48 169.56C215.661 170.888 214.36 171.848 212.85 172.24C210.85 172.74 209.96 170.95 210.61 169.11C211.19 167.45 212.94 165.19 214.9 165.51C216.86 165.83 217.47 167.92 216.48 169.56Z" fill="#F8B7AE"/>
<path d="M187 235.23C187 235.23 183.46 283.94 183.46 315.43C183.46 340.43 188.88 396.53 188.88 396.53L200.59 395.37C200.59 395.37 202.52 335.19 200.25 317.37C207.48 282.15 220.7 248.65 213.25 234.37L187 235.23Z" fill="#44372E"/>
<path d="M202.49 392.52L187.05 392.99L187.89 398.26L202.33 398.04L202.49 392.52Z" fill="#B9AE96"/>
<path opacity="0.3" d="M205.49 253.27L201.65 257.55C197.98 268.47 200.41 283.63 204.79 297.7C209.26 279.97 213.98 263.61 215.17 251.11C215.17 250.38 215.17 250 215.17 250L205.49 253.27Z" fill="#493628"/>
<path d="M194.13 235.13C194.13 235.13 205.98 288.84 210.82 319.83C218.6 344.83 228.34 393.03 228.34 393.03L239.15 390.45C239.15 390.45 234.15 333.28 228.06 315.45C227.71 280.22 230.16 248.63 219.68 234.34L194.13 235.13Z" fill="#44372E"/>
<path d="M227.41 395.58L241.13 392.83L240.95 387.26L225.64 390.79L227.41 395.58Z" fill="#B9AE96"/>
<path d="M220.17 232.39L221.65 235.27C221.76 235.5 221.49 235.74 221.12 235.75L186.82 236.7C186.53 236.7 186.28 236.57 186.27 236.39L185.97 233.47C185.97 233.27 186.21 233.09 186.53 233.08L219.64 232.16C219.741 232.147 219.844 232.161 219.937 232.201C220.03 232.242 220.111 232.307 220.17 232.39Z" fill="#B9AE96"/>
<path d="M215.73 236.21H216.61C216.79 236.21 216.92 236.11 216.91 236L216.5 232.21C216.5 232.1 216.33 232.01 216.15 232.02H215.27C215.09 232.02 214.96 232.12 214.97 232.23L215.38 236.02C215.4 236.13 215.55 236.22 215.73 236.21Z" fill="#44372E"/>
<path d="M189.32 237H190.2C190.38 237 190.51 236.9 190.5 236.79L190.09 233C190.09 232.89 189.92 232.81 189.74 232.81H188.86C188.68 232.81 188.55 232.91 188.56 233.02L188.97 236.81C189 236.87 189.14 237 189.32 237Z" fill="#44372E"/>
<path d="M202.52 236.58H203.41C203.58 236.58 203.72 236.48 203.71 236.36L203.29 232.58C203.29 232.47 203.13 232.38 202.95 232.38H202.06C201.89 232.38 201.75 232.48 201.76 232.59L202.18 236.38C202.19 236.5 202.34 236.59 202.52 236.58Z" fill="#44372E"/>
<path d="M205.22 160.76C205.02 161.38 204.53 161.76 204.12 161.67C203.71 161.58 203.56 160.94 203.76 160.32C203.96 159.7 204.45 159.32 204.86 159.41C205.27 159.5 205.42 160.14 205.22 160.76Z" fill="#44372E"/>
<path d="M198.25 158.66C198.04 159.29 197.55 159.66 197.15 159.57C196.75 159.48 196.58 158.85 196.79 158.22C197 157.59 197.48 157.22 197.88 157.32C198.28 157.42 198.45 158 198.25 158.66Z" fill="#44372E"/>
<path d="M198.05 157.41L196.71 156.53C196.71 156.53 197.09 157.93 198.05 157.41Z" fill="#44372E"/>
<path d="M198.71 159.81C197.696 161.064 196.519 162.178 195.21 163.12C195.454 163.441 195.766 163.704 196.124 163.889C196.482 164.074 196.877 164.177 197.28 164.19L198.71 159.81Z" fill="#FF5652"/>
<path d="M199.29 167.6C199.261 167.576 199.241 167.545 199.23 167.509C199.219 167.474 199.219 167.436 199.23 167.4C199.248 167.351 199.284 167.311 199.33 167.287C199.376 167.263 199.43 167.257 199.48 167.27C200.252 167.514 201.071 167.576 201.871 167.449C202.671 167.322 203.431 167.011 204.09 166.54C204.108 166.52 204.131 166.504 204.156 166.494C204.181 166.483 204.208 166.478 204.235 166.479C204.262 166.479 204.289 166.486 204.313 166.498C204.337 166.51 204.359 166.526 204.376 166.547C204.394 166.568 204.406 166.593 204.413 166.619C204.42 166.645 204.422 166.672 204.417 166.699C204.413 166.726 204.403 166.752 204.388 166.774C204.373 166.797 204.353 166.816 204.33 166.83C203.621 167.353 202.797 167.699 201.928 167.84C201.058 167.981 200.168 167.912 199.33 167.64L199.29 167.6Z" fill="#44372E"/>
<path d="M206.68 158.58C206.63 158.537 206.592 158.482 206.57 158.42C206.429 157.969 206.181 157.56 205.846 157.227C205.512 156.894 205.101 156.648 204.65 156.51C204.601 156.498 204.555 156.477 204.515 156.448C204.475 156.418 204.44 156.381 204.414 156.338C204.388 156.295 204.371 156.248 204.363 156.199C204.356 156.149 204.358 156.099 204.37 156.05C204.396 155.951 204.459 155.865 204.547 155.811C204.634 155.757 204.739 155.739 204.84 155.76C205.415 155.929 205.939 156.236 206.368 156.654C206.797 157.073 207.117 157.59 207.3 158.16C207.329 158.257 207.321 158.361 207.276 158.452C207.232 158.543 207.154 158.614 207.06 158.65C206.996 158.675 206.927 158.681 206.86 158.669C206.793 158.656 206.731 158.626 206.68 158.58Z" fill="#44372E"/>
<path d="M195 154.21C195 154.21 195 154.16 195 154.14C194.982 154.039 195.005 153.936 195.063 153.852C195.121 153.768 195.21 153.71 195.31 153.69C195.899 153.56 196.51 153.574 197.092 153.733C197.674 153.891 198.209 154.189 198.65 154.6C198.686 154.635 198.714 154.677 198.733 154.724C198.753 154.77 198.763 154.82 198.763 154.87C198.763 154.92 198.753 154.97 198.733 155.016C198.714 155.063 198.686 155.105 198.65 155.14C198.577 155.21 198.481 155.249 198.38 155.249C198.279 155.249 198.183 155.21 198.11 155.14C197.758 154.818 197.332 154.587 196.871 154.466C196.409 154.346 195.924 154.341 195.46 154.45C195.367 154.473 195.269 154.462 195.184 154.418C195.099 154.373 195.034 154.3 195 154.21Z" fill="#44372E"/>
<path d="M228.1 404.76L227.99 404.7C227.83 404.606 227.699 404.469 227.613 404.305C227.526 404.14 227.487 403.955 227.5 403.77C227.488 403.654 227.507 403.537 227.556 403.431C227.606 403.325 227.683 403.235 227.78 403.17C228.63 402.56 231.31 403.62 231.61 403.74C231.645 403.752 231.676 403.776 231.697 403.806C231.719 403.836 231.73 403.873 231.73 403.91C231.729 403.948 231.718 403.986 231.696 404.018C231.675 404.05 231.645 404.075 231.61 404.09C230.67 404.52 229 405.16 228.1 404.76ZM231.03 403.93C229.95 403.54 228.44 403.16 228.03 403.47C227.989 403.501 227.958 403.543 227.939 403.59C227.919 403.638 227.913 403.689 227.92 403.74C227.912 403.863 227.936 403.986 227.99 404.097C228.045 404.207 228.127 404.302 228.23 404.37C228.65 404.65 229.7 404.49 231 403.93H231.03Z" fill="#B9AE96"/>
<path d="M231.28 404C230.4 403.6 228.9 402.33 228.92 401.47C228.925 401.317 228.981 401.17 229.079 401.053C229.176 400.935 229.311 400.853 229.46 400.82C229.598 400.773 229.745 400.756 229.89 400.772C230.035 400.788 230.175 400.835 230.3 400.91C231.3 401.49 231.71 403.76 231.73 403.86C231.733 403.893 231.728 403.927 231.716 403.958C231.704 403.989 231.684 404.017 231.66 404.04C231.63 404.055 231.598 404.063 231.565 404.063C231.532 404.063 231.499 404.055 231.47 404.04L231.28 404ZM230.03 401.2C229.882 401.145 229.718 401.145 229.57 401.2C229.34 401.28 229.3 401.4 229.3 401.49C229.3 402.05 230.41 403.15 231.3 403.59C231.166 402.709 230.757 401.893 230.13 401.26L230.03 401.2Z" fill="#B9AE96"/>
<path d="M185.16 408.41C184.508 408.457 183.858 408.299 183.3 407.96C183.159 407.851 183.046 407.712 182.968 407.552C182.89 407.393 182.849 407.218 182.85 407.04C182.841 406.939 182.86 406.838 182.904 406.746C182.948 406.655 183.016 406.577 183.1 406.52C183.98 405.94 187.19 407.41 187.83 407.72C187.863 407.739 187.89 407.767 187.906 407.802C187.923 407.836 187.929 407.874 187.924 407.912C187.919 407.95 187.902 407.985 187.876 408.013C187.851 408.042 187.817 408.061 187.78 408.07C186.921 408.276 186.043 408.39 185.16 408.41ZM183.68 406.76C183.548 406.75 183.416 406.778 183.3 406.84C183.271 406.859 183.249 406.887 183.237 406.919C183.224 406.951 183.222 406.987 183.23 407.02C183.229 407.143 183.257 407.265 183.311 407.376C183.365 407.487 183.443 407.584 183.54 407.66C184.09 408.08 185.41 408.13 187.13 407.82C186.042 407.289 184.878 406.931 183.68 406.76Z" fill="#B9AE96"/>
<path d="M187.74 408.08H187.66C186.6 407.64 184.47 405.9 184.66 405C184.66 404.8 184.84 404.56 185.33 404.5C187.23 404.27 187.94 407.72 187.97 407.87C187.975 407.904 187.972 407.938 187.959 407.97C187.947 408.001 187.927 408.029 187.9 408.05C187.877 408.065 187.85 408.076 187.823 408.081C187.795 408.086 187.767 408.086 187.74 408.08ZM185.45 404.85H185.32C185.12 404.85 185.01 404.93 185 405.02C184.91 405.54 186.38 406.92 187.46 407.52C187.23 406.7 186.59 404.85 185.45 404.85Z" fill="#B9AE96"/>
<path d="M205 159.5L203.66 158.63C203.66 158.63 204.06 160 205 159.5Z" fill="#44372E"/>
<path d="M226.71 190.59C227.57 191.89 228.26 193.06 228.96 194.31C229.66 195.56 230.32 196.8 230.96 198.07C232.21 200.61 233.35 203.21 234.36 205.88C235.387 208.567 236.246 211.316 236.93 214.11C237.12 214.8 237.24 215.53 237.4 216.24C237.56 216.95 237.7 217.66 237.81 218.39C237.92 219.12 238.05 219.79 238.15 220.6L238.27 221.89V223.16C238.137 226.327 237.478 229.45 236.32 232.4C235.246 235.173 233.938 237.849 232.41 240.4C230.927 242.88 229.318 245.283 227.59 247.6C225.853 249.899 223.998 252.105 222.03 254.21L218.93 251.65C220.42 249.45 221.93 247.13 223.28 244.79C224.63 242.45 225.95 240.08 227.07 237.67C228.193 235.324 229.139 232.897 229.9 230.41C230.247 229.23 230.528 228.032 230.74 226.82C230.915 225.696 230.989 224.558 230.96 223.42V222.63L230.84 221.88C230.75 221.33 230.58 220.65 230.46 220.05C230.34 219.45 230.17 218.81 230 218.19C229.83 217.57 229.68 216.96 229.48 216.34C228.75 213.88 227.8 211.47 226.84 209.06C225.88 206.65 224.74 204.3 223.54 201.98C222.96 200.82 222.35 199.67 221.72 198.53C221.09 197.39 220.41 196.24 219.81 195.25L226.71 190.59Z" fill="#F8B7AE"/>
<path d="M225.49 185.37C229.41 186.31 233.99 198.07 233.99 198.07L222.58 207.07C222.58 207.07 215.96 197.42 216.83 192.25C217.57 187.83 220.5 184.18 225.49 185.37Z" fill="#44372E"/>
<path d="M144.24 220.11H129.68V221.11H144.24V220.11Z" fill="#B9AE96"/>
<path d="M139.21 233.97H134.26V234.97H139.21V233.97Z" fill="#B9AE96"/>
<path d="M140.44 191.18L138.96 282.3L174.04 297.31L211.31 289.06L226.74 199.25L140.44 191.18Z" fill="#B9AE96"/>
<path opacity="0.2" d="M182.84 203.18L174.83 288.94L204.33 282.41L217.39 206.41L182.84 203.18Z" fill="white"/>
<path d="M209.15 217.85L154.28 212.72L153.2 246.97L194.73 250.85L192.7 263.85L177.02 265.48L161.92 260.97H161.91L162.2 252.01L153.07 251.16L152.48 269.82L175.96 276.83L200.33 274.29L205.62 240.42L162.69 236.41L163.05 224.99L207.39 229.14L209.15 217.85Z" fill="white"/>
<path d="M209.91 257.67L214.96 261.39L219.63 257.87L214 251.78L209.91 257.67Z" fill="#F8B7AE"/>
<path d="M220.91 249.6L214 251.78L219.64 257.87C219.64 257.87 223.06 254.87 223.52 251.53L220.91 249.6Z" fill="#F8B7AE"/>
<path d="M335.02 405.68L342.07 403.39L337.69 386.76L330.64 389.05L335.02 405.68Z" fill="#FFB573"/>
<path d="M342.18 402.45L334.25 405C334.117 405.04 334.004 405.13 333.937 405.251C333.87 405.373 333.853 405.516 333.89 405.65L335.54 412.05C335.646 412.38 335.877 412.654 336.185 412.813C336.492 412.973 336.85 413.004 337.18 412.9C339.92 411.96 341.18 411.37 344.67 410.24C346.81 409.54 351.99 407.97 354.95 407.01C357.91 406.05 356.88 403.15 355.54 403.29C349.54 403.93 346.03 403.39 343.54 402.47C343.101 402.317 342.624 402.31 342.18 402.45Z" fill="#493628"/>
<path opacity="0.2" d="M330.64 389.06L337.69 386.76L339.95 395.34L332.89 397.63L330.64 389.06Z" fill="#9A967E"/>
<path d="M313.45 220.72C313.45 220.72 323.45 281.07 326.45 302.12C329.7 325.17 342.45 392.59 342.45 392.59L329.36 396.21C329.36 396.21 310.66 330.88 305.36 308.47C299.61 284.14 286.96 220.72 286.96 220.72H313.45Z" fill="#493628"/>
<path opacity="0.3" d="M297.38 245.47C302.5 258.26 303.08 280 301 288.91C297.86 274.28 294.26 256.78 291.49 243.17C292.48 239.68 294.27 237.69 297.38 245.47Z" fill="#9A967E"/>
<path d="M329.03 396.47L343.05 392.61L342.77 386.9L326.99 392.35L329.03 396.47Z" fill="#B9AE96"/>
<path d="M345.08 402.87C344.428 403.06 343.757 403.18 343.08 403.23C343.048 403.231 343.016 403.223 342.988 403.207C342.96 403.191 342.936 403.168 342.92 403.14C342.903 403.111 342.895 403.078 342.895 403.045C342.895 403.012 342.903 402.979 342.92 402.95C343.1 402.72 344.65 400.71 345.62 400.77C345.731 400.774 345.838 400.808 345.931 400.868C346.025 400.928 346.1 401.011 346.15 401.11C346.258 401.251 346.324 401.42 346.34 401.597C346.356 401.774 346.321 401.952 346.24 402.11C345.956 402.494 345.545 402.763 345.08 402.87ZM343.49 402.87C344.83 402.71 345.75 402.37 345.97 401.94C346.014 401.838 346.031 401.726 346.018 401.616C346.006 401.505 345.965 401.4 345.9 401.31C345.875 401.262 345.838 401.221 345.792 401.191C345.747 401.162 345.694 401.144 345.64 401.14C345.12 401.08 344.14 402.06 343.49 402.84V402.87Z" fill="#B9AE96"/>
<path d="M343.15 403.22H343.07C343.04 403.216 343.012 403.203 342.989 403.184C342.966 403.164 342.949 403.139 342.94 403.11C342.94 403.03 342.09 401.05 342.58 400.11C342.641 399.992 342.729 399.889 342.836 399.811C342.944 399.733 343.069 399.681 343.2 399.66C343.342 399.617 343.494 399.624 343.632 399.678C343.77 399.733 343.885 399.832 343.96 399.96C344.37 400.68 343.8 402.49 343.23 403.14L343.15 403.22ZM343.15 400.05C343.083 400.069 343.021 400.103 342.967 400.147C342.914 400.192 342.871 400.247 342.84 400.31C342.672 401.115 342.767 401.953 343.11 402.7C343.594 401.952 343.776 401.048 343.62 400.17C343.57 400.08 343.48 399.98 343.23 400.03L343.15 400.05Z" fill="#B9AE96"/>
<path d="M311.9 159.93C312.13 160.42 312.48 161.12 312.79 161.73L313.79 163.62C314.45 164.89 315.14 166.14 315.85 167.37C317.27 169.85 318.77 172.26 320.34 174.56C321.88 176.809 323.567 178.954 325.39 180.98C327.049 182.841 328.933 184.487 331 185.88L329.48 185.29C329.94 185.458 330.438 185.5 330.92 185.41C331.778 185.267 332.608 184.99 333.38 184.59C335.461 183.51 337.393 182.165 339.13 180.59C341.091 178.869 342.953 177.039 344.71 175.11C346.51 173.17 348.3 171.05 349.95 169.04L350.05 168.92C350.547 168.32 351.244 167.919 352.014 167.791C352.783 167.664 353.572 167.817 354.237 168.224C354.901 168.632 355.397 169.265 355.633 170.008C355.869 170.751 355.828 171.554 355.52 172.27C354.322 174.979 352.939 177.602 351.38 180.12C349.812 182.685 348.054 185.128 346.12 187.43C344.03 189.949 341.592 192.158 338.88 193.99C337.258 195.055 335.489 195.877 333.63 196.43C331.397 197.081 329.037 197.174 326.76 196.7C326.324 196.611 325.903 196.459 325.51 196.25L325.24 196.11C322.059 194.388 319.137 192.227 316.56 189.69C314.135 187.35 311.911 184.811 309.91 182.1C307.946 179.483 306.14 176.751 304.5 173.92C303.69 172.51 302.92 171.1 302.17 169.65C301.8 168.93 301.43 168.21 301.08 167.47C300.73 166.73 300.41 166.03 300.03 165.13C299.388 163.571 299.377 161.824 299.999 160.257C300.621 158.69 301.827 157.426 303.364 156.731C304.9 156.037 306.646 155.967 308.233 156.536C309.82 157.105 311.124 158.268 311.87 159.78L311.9 159.93Z" fill="#B9AE96"/>
<path opacity="0.3" d="M316.33 178.71C313.19 170.37 306.52 170.23 303.63 172.44C303.84 172.83 304.06 173.22 304.28 173.61C305.849 176.34 307.568 178.981 309.43 181.52C311.334 184.132 313.43 186.598 315.7 188.9C316.42 189.61 317.16 190.31 317.93 190.99C318.201 186.832 317.658 182.66 316.33 178.71Z" fill="#9A967E"/>
<path d="M355.57 173.54L361.99 174.54L361.22 167.45C361.22 167.45 352.09 166.7 351.59 169.19L352.65 171.36C352.929 171.929 353.34 172.423 353.847 172.802C354.355 173.181 354.945 173.434 355.57 173.54Z" fill="#FFB573"/>
<path d="M367.31 170.42L366.09 165.34L361.22 167.48L361.99 174.56L367.31 170.42Z" fill="#FFB573"/>
<path d="M279.51 408.92H286.92L287.88 391.75H280.47L279.51 408.92Z" fill="#FFB573"/>
<path d="M287.31 408.06H279C278.93 408.057 278.861 408.068 278.795 408.093C278.73 408.117 278.67 408.154 278.619 408.201C278.568 408.248 278.527 408.305 278.498 408.369C278.469 408.432 278.452 408.5 278.45 408.57L278.05 415.16C278.047 415.506 278.181 415.838 278.423 416.086C278.665 416.333 278.994 416.475 279.34 416.48C282.24 416.43 283.63 416.26 287.29 416.26C289.54 416.26 297.08 416.49 300.19 416.49C303.3 416.49 303.19 413.41 301.89 413.13C295.98 411.89 290.7 410.13 288.6 408.52C288.237 408.22 287.781 408.057 287.31 408.06Z" fill="#493628"/>
<path opacity="0.2" d="M280.47 391.76H287.88L287.38 400.61H279.97L280.47 391.76Z" fill="#9A967E"/>
<path d="M299 220.34C299 220.34 298.36 285.13 297.16 306.34C295.84 329.58 290.59 398.45 290.59 398.45H277C277 398.45 276.07 331.45 275.25 308.45C274.36 283.45 273.4 220.32 273.4 220.32L299 220.34Z" fill="#493628"/>
<path d="M276.44 398.47H291.11L291.93 393.32L275.73 394.12L276.44 398.47Z" fill="#B9AE96"/>
<path d="M289.94 409.35C289.266 409.335 288.595 409.247 287.94 409.09C287.907 409.082 287.877 409.065 287.853 409.04C287.83 409.015 287.815 408.984 287.81 408.95C287.806 408.918 287.811 408.886 287.823 408.856C287.835 408.826 287.855 408.8 287.88 408.78C288.12 408.61 290.22 407.18 291.12 407.54C291.222 407.579 291.312 407.644 291.382 407.728C291.452 407.812 291.5 407.913 291.52 408.02C291.567 408.182 291.572 408.353 291.535 408.517C291.499 408.681 291.421 408.834 291.31 408.96C290.917 409.254 290.429 409.393 289.94 409.35ZM288.44 408.84C289.76 409.1 290.74 409.06 291.08 408.72C291.155 408.638 291.207 408.537 291.23 408.428C291.253 408.319 291.246 408.206 291.21 408.1C291.203 408.047 291.181 407.996 291.148 407.954C291.114 407.912 291.07 407.879 291.02 407.86C290.53 407.67 289.3 408.29 288.44 408.84Z" fill="#B9AE96"/>
<path d="M288 409.09C287.974 409.099 287.946 409.099 287.92 409.09C287.894 409.077 287.871 409.057 287.855 409.033C287.839 409.008 287.831 408.979 287.83 408.95C287.83 408.86 287.65 406.73 288.4 406.01C288.496 405.918 288.611 405.849 288.738 405.807C288.864 405.766 288.998 405.753 289.13 405.77C289.278 405.773 289.421 405.827 289.535 405.921C289.649 406.015 289.729 406.145 289.76 406.29C289.93 407.1 288.83 408.65 288.09 409.09C288.061 409.099 288.029 409.099 288 409.09ZM289 406.09C288.862 406.09 288.729 406.144 288.63 406.24C288.218 406.95 288.047 407.774 288.14 408.59C288.79 408.05 289.52 406.87 289.41 406.34C289.41 406.24 289.33 406.12 289.08 406.09H289Z" fill="#B9AE96"/>
<path d="M270.08 160.94C269.97 160.315 269.988 159.674 270.131 159.056C270.274 158.438 270.54 157.855 270.914 157.342C271.287 156.829 271.76 156.396 272.304 156.069C272.847 155.742 273.452 155.528 274.08 155.44H274.17C276.56 155.09 279.56 154.73 282.5 154.59C288.112 154.27 293.738 154.27 299.35 154.59C301.94 154.83 304.47 155.26 306.49 155.65H306.57C307.832 155.907 309 156.503 309.95 157.373C310.899 158.243 311.594 159.355 311.96 160.59C314.38 168.74 317.26 185.38 313.49 220.71H273.8C273.52 217.17 274.31 205.65 273.73 190.98C273.166 180.898 271.947 170.864 270.08 160.94Z" fill="#B9AE96"/>
<path opacity="0.3" d="M270.46 163.12C271.29 167.86 272.3 174.31 273 181.12C273 181.12 276.62 174.02 277.28 167.95C277.94 161.88 272.76 161.42 270.46 163.12Z" fill="#9A967E"/>
<path d="M281.81 154.62C281.81 154.62 284.96 160.17 293.23 162.53C300.53 158.53 298.51 154.53 298.51 154.53" fill="#F5F5F5"/>
<path d="M298.51 154.52C293.61 153.36 292.75 150.33 293.08 147C293.158 146.166 293.288 145.338 293.47 144.52L287.33 139.42L282.82 135.68C284.07 141.11 285.48 151 281.82 154.62C281.82 154.62 284.82 159.62 293.24 159.18C300.32 158.79 298.51 154.52 298.51 154.52Z" fill="#FFB573"/>
<path d="M292.86 159.21L291.46 157.42L288.21 159.98L292.86 159.21Z" fill="#F5F5F5"/>
<path d="M290 163.13C290.081 161.149 290.568 159.206 291.43 157.42C288.95 156.72 282.65 153.09 282.65 153.09L280.3 154.52C281.226 156.553 282.568 158.369 284.238 159.852C285.909 161.335 287.872 162.452 290 163.13Z" fill="white"/>
<path d="M292.86 159.21L294.48 157.42L297.5 159.98L292.86 159.21Z" fill="#F5F5F5"/>
<path d="M296.73 162.53C296.134 160.763 295.381 159.053 294.48 157.42C296.96 156.72 296.13 153.23 296.13 153.23L298.77 154.34C298.77 154.34 302.93 160.53 296.73 162.53Z" fill="white"/>
<path d="M293.51 160.86C293.62 161.29 293.51 161.68 293.26 161.74C293.01 161.8 292.73 161.51 292.62 161.08C292.51 160.65 292.62 160.26 292.88 160.2C293.14 160.14 293.41 160.43 293.51 160.86Z" fill="#B9AE96"/>
<path opacity="0.2" d="M293.47 144.52C293.288 145.338 293.158 146.166 293.08 147C290.79 146.54 287.73 144.1 287.41 141.76C287.297 140.985 287.271 140.201 287.33 139.42L293.47 144.52Z" fill="#9A967E"/>
<path d="M299.46 131.11C302.51 131.83 303.05 124.58 301.17 120.99C299.66 118.1 295.48 119.15 294.39 120.36C293.3 121.57 296.78 129.74 296.78 129.74L299.46 131.11Z" fill="#493628"/>
<path d="M281 127.87C282.57 135.08 283.12 139.37 287.38 142.66C288.753 143.743 290.395 144.43 292.13 144.647C293.865 144.864 295.626 144.603 297.223 143.891C298.82 143.18 300.192 142.045 301.191 140.61C302.19 139.175 302.777 137.495 302.89 135.75C303.45 129.04 300.79 118.38 293.21 116.34C291.579 115.854 289.85 115.805 288.194 116.199C286.539 116.593 285.017 117.415 283.78 118.583C282.542 119.752 281.634 121.225 281.147 122.855C280.659 124.485 280.608 126.214 281 127.87Z" fill="#FFB573"/>
<path d="M283.4 134.17C285.67 133.98 288.4 129.22 285.11 124.05C283.35 121.3 279.43 122.22 278.33 123.42C275.33 126.68 280.72 132.79 280.72 132.79L283.4 134.17Z" fill="#493628"/>
<path d="M282.61 125.33C287.1 125.11 296.48 121.87 297.83 117.5C300.46 109.02 291.09 108.78 285.97 113.34C282.6 116.34 279.45 120.68 273.33 121.78C274.15 123.32 277.62 125.58 282.61 125.33Z" fill="#493628"/>
<path d="M281 126.53C284.16 125.99 287.69 123.04 288.27 119.83C289.42 113.62 285.16 115.16 281.42 118.83C279.1 121.07 278.42 123.55 274.14 124.83C274.81 125.81 277.45 127.12 281 126.53Z" fill="#493628"/>
<path d="M293.62 118C296.46 121 300.97 123.84 302.34 122C303.71 120.16 301.07 113.43 297.58 113.14C294.09 112.85 291.56 115.81 293.62 118Z" fill="#493628"/>
<path d="M279.3 135.4C280.469 136.801 282.081 137.761 283.87 138.12C286.15 138.5 286.66 136.4 285.5 134.36C284.5 132.53 282.03 130.12 280 130.66C277.97 131.2 277.83 133.62 279.3 135.4Z" fill="#FFB573"/>
<path d="M293.04 129.58C293.432 129.58 293.75 129.097 293.75 128.5C293.75 127.904 293.432 127.42 293.04 127.42C292.648 127.42 292.33 127.904 292.33 128.5C292.33 129.097 292.648 129.58 293.04 129.58Z" fill="#493628"/>
<path d="M299.05 127.79C299.14 128.38 299.53 128.79 299.91 128.79C300.29 128.79 300.54 128.22 300.45 127.63C300.36 127.04 299.97 126.63 299.58 126.63C299.19 126.63 299 127.2 299.05 127.79Z" fill="#493628"/>
<path d="M297 128.34C297.987 130.068 299.201 131.655 300.61 133.06C300.243 133.397 299.807 133.649 299.331 133.798C298.856 133.946 298.353 133.988 297.86 133.92L297 128.34Z" fill="#ED893E"/>
<path d="M295.64 135.81C294.946 135.819 294.258 135.688 293.617 135.423C292.976 135.158 292.395 134.766 291.91 134.27C291.88 134.236 291.864 134.19 291.867 134.144C291.87 134.098 291.891 134.055 291.925 134.025C291.959 133.994 292.005 133.979 292.051 133.982C292.097 133.985 292.14 134.006 292.17 134.04C292.709 134.565 293.359 134.962 294.072 135.201C294.786 135.44 295.544 135.515 296.29 135.42C296.313 135.416 296.337 135.416 296.36 135.422C296.383 135.427 296.404 135.437 296.423 135.451C296.442 135.465 296.457 135.483 296.469 135.504C296.48 135.524 296.488 135.547 296.49 135.57C296.493 135.593 296.491 135.617 296.484 135.639C296.477 135.661 296.466 135.682 296.451 135.7C296.436 135.718 296.418 135.732 296.397 135.742C296.376 135.753 296.353 135.759 296.33 135.76C296.101 135.791 295.871 135.808 295.64 135.81Z" fill="#493628"/>
<path d="M289.93 126.68C289.87 126.679 289.811 126.661 289.76 126.63C289.719 126.608 289.683 126.578 289.653 126.542C289.624 126.506 289.602 126.464 289.589 126.419C289.576 126.375 289.572 126.328 289.577 126.282C289.583 126.235 289.597 126.191 289.62 126.15C289.88 125.662 290.255 125.245 290.714 124.936C291.173 124.628 291.7 124.437 292.25 124.38C292.296 124.377 292.341 124.384 292.384 124.399C292.427 124.414 292.466 124.438 292.5 124.469C292.534 124.5 292.561 124.537 292.579 124.578C292.598 124.62 292.609 124.664 292.61 124.71C292.613 124.756 292.606 124.802 292.591 124.846C292.576 124.889 292.553 124.929 292.522 124.963C292.491 124.998 292.454 125.026 292.413 125.046C292.371 125.066 292.326 125.077 292.28 125.08C291.857 125.139 291.455 125.299 291.107 125.546C290.759 125.793 290.475 126.12 290.28 126.5C290.246 126.562 290.195 126.612 290.133 126.644C290.07 126.676 290 126.689 289.93 126.68Z" fill="#493628"/>
<path d="M301.83 125.15C301.772 125.149 301.716 125.133 301.665 125.105C301.615 125.078 301.572 125.038 301.54 124.99C301.297 124.612 300.971 124.294 300.586 124.062C300.201 123.83 299.768 123.689 299.32 123.65C299.227 123.65 299.138 123.613 299.072 123.548C299.007 123.482 298.97 123.393 298.97 123.3C298.97 123.207 299.007 123.118 299.072 123.053C299.138 122.987 299.227 122.95 299.32 122.95C299.883 122.989 300.428 123.159 300.914 123.445C301.4 123.732 301.813 124.127 302.12 124.6C302.147 124.638 302.165 124.681 302.175 124.726C302.185 124.772 302.186 124.818 302.177 124.864C302.169 124.909 302.152 124.953 302.126 124.992C302.101 125.031 302.068 125.064 302.03 125.09C301.97 125.128 301.901 125.149 301.83 125.15Z" fill="#493628"/>
<path d="M278.82 167.16L278.72 167.25L278.48 167.47L278 168C277.65 168.36 277.28 168.75 276.93 169.14C276.22 169.94 275.51 170.78 274.85 171.67C273.506 173.464 272.309 175.364 271.27 177.35C269.146 181.444 267.62 185.822 266.74 190.35C266.519 191.296 266.382 192.26 266.33 193.23C266.279 194.216 266.326 195.204 266.47 196.18C266.803 198.406 267.366 200.591 268.15 202.7C269.866 207.314 271.991 211.765 274.5 216L274.59 216.16C274.974 216.831 275.106 217.617 274.962 218.376C274.818 219.136 274.407 219.819 273.803 220.301C273.199 220.784 272.443 221.036 271.67 221.01C270.898 220.984 270.16 220.682 269.59 220.16C267.524 218.246 265.615 216.169 263.88 213.95C262.116 211.713 260.528 209.343 259.13 206.86C257.637 204.223 256.475 201.412 255.67 198.49C255.227 196.898 254.939 195.267 254.81 193.62C254.711 191.952 254.764 190.278 254.97 188.62C255.26 185.696 255.798 182.802 256.58 179.97C257.356 177.094 258.386 174.293 259.66 171.6C260.947 168.865 262.494 166.259 264.28 163.82C265.189 162.577 266.171 161.388 267.22 160.26C267.75 159.69 268.29 159.12 268.88 158.57L269.81 157.73L270.31 157.31L270.98 156.78C271.657 156.23 272.438 155.821 273.276 155.579C274.115 155.337 274.993 155.266 275.86 155.37C276.726 155.475 277.562 155.753 278.319 156.188C279.076 156.623 279.737 157.205 280.264 157.901C280.79 158.597 281.171 159.392 281.384 160.238C281.597 161.084 281.637 161.965 281.502 162.827C281.368 163.689 281.061 164.515 280.6 165.256C280.139 165.997 279.534 166.638 278.82 167.14V167.16Z" fill="#B9AE96"/>
<path d="M275.56 214.15L279.63 213.44L275.84 222C275.84 222 269.11 222 269.42 218.49L270.22 217.42C271.522 215.693 273.43 214.525 275.56 214.15Z" fill="#FFB573"/>
<path d="M285.14 217.73L281.67 224.63L275.84 221.98L279.63 213.44L285.14 217.73Z" fill="#FFB573"/>
<path d="M327.25 86.74L341.24 152.76L369.05 157.8L394.58 145.69L390.88 78.3L327.25 86.74Z" fill="#B9AE96"/>
<path opacity="0.3" d="M327.25 86.74L341.24 152.76L369.05 157.8L394.58 145.69L390.88 78.3L327.25 86.74Z" fill="white"/>
<path opacity="0.2" d="M359.84 88.4L368.23 151.63L388.45 142.04L385.31 85.02L359.84 88.4Z" fill="white"/>
<path d="M381.25 94.64L340.79 100.01L342.42 108.3L375.12 103.97L376.98 130.56L365.93 134.33L354.28 133.57L353.01 127.06L346.27 127.95L348.93 141.52L367.04 142.7L384.22 136.84L381.25 94.64Z" fill="white"/>
<g clip-path="url(#clip0_10_609)">
<path d="M382.351 405.068L407.631 321L476.265 347.492L438.506 426.744L406.789 425.108" fill="#B9AE96"/>
<path d="M409.682 418.066L435.167 419.54L467.49 351.652L439.489 340.844" fill="#CEC6B5"/>
<path d="M427.772 371.2L407.684 363.446L404.539 373.859L423.866 381.319L427.772 371.2ZM435.583 350.962L413.973 342.621L410.897 352.856L431.746 360.904L435.583 350.962ZM417.699 397.296L401.09 384.154L398.044 395.216L413.656 407.769L417.699 397.296Z" fill="#ECEDEE"/>
<path d="M423.866 381.319L434.367 385.372L428.299 397.92L417.699 397.296L413.656 407.769L433.35 408.844L457.041 359.245L435.583 350.962L431.746 360.904L443.92 365.603L439.033 375.547L427.772 371.2L423.866 381.319Z" fill="white"/>
</g>
<defs>
<clipPath id="clip0_10_609">
<rect width="73.7327" height="98.9493" fill="white" transform="translate(407.631 321) rotate(21.1059)"/>
</clipPath>
</defs>
</svg>
