<svg width="79" height="108" viewBox="0 0 79 108" fill="none" xmlns="http://www.w3.org/2000/svg">
<g clip-path="url(#clip0_9_602)">
<path d="M79 21.1637H0L7.40606 99.1609L39.496 108L71.5859 99.1609L79 21.1637Z" fill="#B9AE96"/>
<path d="M39.4961 27.5183V101.39L65.4963 94.2369L71.8213 27.5183H39.4961Z" fill="#CEC6B5"/>
<path d="M60.1808 37.0869H20.2041L17.4197 66.2869L17.477 66.1053H51.4393L50.3332 78.4601L39.4971 81.4875L28.5011 78.4113L27.8425 70.9335H17.8611L19.285 85.8753L39.4971 91.4478L59.7182 85.8753L62.5026 56.5464H26.4588L26.9214 46.7747H51.929L52.3031 52.3735H62.3689L60.1808 37.0869Z" fill="white"/>
<path d="M39.5051 37.0869H20.2041L17.4197 66.2869L17.477 66.1053H39.5041V56.5796H27.8646L28.3272 46.8079H39.5051V37.0869ZM27.8646 70.9384H17.8601L19.284 85.8724L39.4961 91.439V81.5012L28.5001 78.4171L27.8646 70.9384Z" fill="#EBEBEB"/>
</g>
<defs>
<clipPath id="clip0_9_602">
<rect width="79" height="108" fill="white"/>
</clipPath>
</defs>
</svg>
