<svg width="913" height="1150" viewBox="0 0 913 1150" fill="none" xmlns="http://www.w3.org/2000/svg">
<path d="M180.646 852.259C180.646 852.259 181.7 893.184 184.689 940.54C186.11 963.058 179.998 996.468 180.781 1015.01C183.754 1085.35 185.735 1132.91 187.717 1147.78L370.689 1149.76L373.331 1052L372.01 1072.47L397.771 1146.78L586.028 1141.83C586.028 1141.83 580.083 1087.33 576.12 1058.6C576.269 1053.8 582.308 1049.11 582.065 1044.73C580.933 1024.4 573.147 1019.96 569.184 998.161C568.4 993.85 571.35 985.525 571.166 981.317C569.197 936.436 566.966 908.344 563.523 904.9C555.676 897.053 557.637 832.314 557.637 832.314L180.646 852.259Z" fill="#B9AE96"/>
<g style="mix-blend-mode:multiply" opacity="0.21">
<path d="M409.241 1064.73C405.029 1066.68 400.21 1069.82 400.545 1074.45C400.832 1078.42 404.803 1080.93 408.252 1082.93C415.472 1087.11 469.015 1129.39 468.844 1145.07C468.811 1144.82 453.437 1145.32 453.424 1145.34C435.922 1132.26 410.145 1096.33 402.214 1091.52C398.922 1089.52 394.695 1087.9 391.355 1089.82C386.368 1092.68 387.807 1100.2 390.255 1105.4C395.163 1115.83 401.496 1125.59 409.022 1134.32C412.59 1138.46 416.436 1142.32 417.559 1146.26C417.686 1146.19 398.936 1146.94 398.657 1146.77C393.131 1130.54 388.355 1115.95 382.829 1099.72C380.066 1091.61 377.303 1083.5 374.54 1075.39C373.284 1071.7 372.082 1068.68 372.19 1064.81C372.31 1060.47 371.994 1056.06 371.897 1051.71C371.876 1050.79 371.861 1049.84 372.216 1048.98C372.869 1047.42 374.568 1046.6 376.143 1045.97C388.16 1041.14 401.594 1041.62 414.25 1038.98C429.588 1035.78 445.216 1033.97 460.879 1033.57C469.426 1033.35 515.804 1031.7 516.163 1041.69C480.125 1050.83 444.041 1048.65 409.241 1064.73Z" fill="#B9AE96"/>
</g>
<g style="mix-blend-mode:multiply" opacity="0.21">
<path d="M225.49 1047.84C231.669 1074.86 240.736 1101.97 258.273 1123.44C264.7 1131.3 272.512 1138.97 274.841 1148.69C274.687 1148.69 187.937 1147.57 187.778 1147.85C187.312 1142.94 184.719 1107.73 184.267 1094.03C183.187 1053.19 177.187 1012.69 183.945 969.971C186.897 942.306 182.285 908.953 178.799 881.243C209.708 891.202 214.539 917.156 214.298 944.421C213.991 979.172 217.741 1013.96 225.49 1047.84Z" fill="#B9AE96"/>
</g>
<path d="M557.27 1034.87C565.308 1038.5 573.346 1042.12 581.385 1045.74C584.858 1037.11 579.623 1026.89 571.794 1021.85C563.964 1016.82 554.267 1015.81 544.966 1015.44C512.914 1014.14 480.64 1016.03 449.166 1022.41C441.422 1023.98 409.229 1032.65 388.744 1041.43C382.579 1044.07 372.67 1046.71 372.67 1046.93C372.45 1047.15 370.909 1060.36 374.863 1064.87C376.238 1066.53 378.128 1067.68 379.995 1068.76C388.09 1073.46 396.487 1077.63 404.577 1082.35C434.742 1099.91 452.406 1114.57 469.291 1145.12" stroke="#9A967E" stroke-width="2" stroke-miterlimit="10"/>
<path d="M371.736 1070.22C381.521 1096.03 387.987 1121.31 397.772 1147.11" stroke="#9A967E" stroke-width="2" stroke-miterlimit="10"/>
<path d="M183.626 932.913C199.608 937.334 214.501 940.796 231.026 939.416C251.209 937.73 269.572 927.522 286.99 917.186" stroke="#9A967E" stroke-width="2" stroke-miterlimit="10"/>
<path d="M569.172 995.234C551.686 990.536 532.788 991.24 515.7 997.228" stroke="#9A967E" stroke-width="2" stroke-miterlimit="10"/>
<path d="M371.493 1070.43C383.68 1097.11 399.184 1122.28 417.535 1145.18" stroke="#9A967E" stroke-width="2" stroke-miterlimit="10"/>
<path d="M366.369 1048.8C417.981 1034.54 472.581 1031.18 525.551 1039.03" stroke="#9A967E" stroke-width="2" stroke-miterlimit="10"/>
<path d="M370.689 1148.44L372.254 1047.01C372.254 1047.01 386.873 1042.84 388.209 1041.78C416.248 1019.55 410.305 970.72 413.072 939.002C413.703 931.775 414.21 923.985 410.438 917.79C403.394 918.391 378.599 916.468 373.685 921.144C368.288 926.278 370.235 952.125 369.609 959.781C367.406 986.756 365.413 1013.75 364.082 1040.78C369.367 1040.97 374.694 1039.01 378.599 1035.44" stroke="#9A967E" stroke-width="2" stroke-miterlimit="10"/>
<g style="mix-blend-mode:multiply" opacity="0.21">
<path d="M180.359 852.496C180.359 852.496 184.312 933.819 184.372 933.902C256.872 983.89 516.862 987.659 566.481 915.552C566.562 912.694 564.812 905.694 562.371 903.516C557.187 892.944 556.687 832.355 556.687 832.355L180.359 852.496Z" fill="#B9AE96"/>
</g>
<path d="M284.944 365.235C285.134 363.294 285.231 361.306 285.195 359.252C285.049 350.972 282.17 342.812 277.435 335.91C268.902 322.358 253.985 313.172 236.772 312.693C236.249 312.678 235.729 312.687 235.208 312.689C233.091 312.506 231.074 312.529 229.234 312.824C205.226 316.672 191.283 319.509 170.69 352.141C162.446 366.305 149.371 413.042 141.78 450.772C134.187 488.503 133.132 526.417 99.2844 567.343C65.4359 608.269 71.08 716.909 71.3868 723.571C73.0195 758.943 101.314 795.183 124.73 781.316C155.327 763.196 174.369 741.355 187.465 710.504C202.999 667.929 208.808 640.888 222.4 601.25C229.354 576.741 236.191 553.691 244.445 526.729C257.688 482.538 265.686 460.629 274.941 425.69C278.617 411.806 284.492 373.001 284.944 365.235Z" fill="#493628"/>
<path d="M265.127 462.233C256.482 453.546 225.791 437.744 223.222 422.12C225.428 435.535 220.355 498.934 218.432 514.733C209.34 574.882 190.645 618.016 176.39 639.436C153.1 682.284 120.129 705.282 93.7772 739.936C88.822 746.453 84.1345 753.595 83.0165 761.705C92.4838 778.506 111.006 790.291 124.901 781.282C152.061 765.991 178.317 736.567 187.617 710.282C196.525 684.284 206.296 654.166 221.771 601.473C234.404 556.76 251.655 503.437 265.127 462.233Z" fill="#493628"/>
<path d="M111.222 509.401C130.358 512.25 145.041 520.132 144.018 527.008C142.993 533.883 126.651 537.147 107.514 534.297C88.3784 531.448 73.6952 523.565 74.7195 516.69C75.7428 509.815 92.0855 506.551 111.222 509.401Z" fill="#493628"/>
<path d="M68.9115 658.274L88.3044 471.734C88.3044 471.734 58.9311 417.487 57.5939 415.705C56.2578 413.924 41.0433 396.213 41.0433 396.213L38.0927 365.447C38.0927 365.447 27.847 348.079 27.0926 345.647C26.3381 343.214 14.4744 274.592 14.4744 274.592C14.4744 274.592 23.1119 269.811 29.8228 272.499C36.1496 275.034 41.647 303.389 41.647 303.389L51.5828 307.784L53.5199 275.922C53.5199 275.922 52.7216 272.667 56.4266 272.563C61.4046 272.425 69.6352 276.469 69.6708 288.22C69.6845 292.727 69.2498 301.126 69.1359 308.251C68.9208 321.723 68.9112 333.831 70.0083 335.007L81.3273 353.141C81.3273 353.141 88.7838 342.621 90.7959 360.243C90.8646 361.476 96.628 366.826 96.628 366.826C97.1362 363.111 97.9287 360.113 96.2324 354.167C96.2324 354.167 93.9358 346.254 91.7078 339.573C89.4798 332.893 87.6596 311.344 94.7853 305.998C95.7736 305.256 101.371 301.847 108.132 312.368C113.888 321.326 114.815 332.408 115.519 339.483C115.537 350.926 111.255 362.918 118.794 376.107C123.215 383.84 140.057 396.884 143.244 404.13C146.431 411.375 149.843 422.63 146.642 442.912C146.95 442.895 141.573 457.421 141.608 469.173C141.62 473.03 139.127 507.447 141.626 538.228C139.568 543.603 144.392 603.087 160.706 670.32C159.913 703.332 153.132 745.268 122.648 756.228C63.8754 746.27 68.9115 658.274 68.9115 658.274Z" fill="#D69280"/>
<path d="M89.6978 472.979L58.2578 416.493L41.0443 396.212C41.0443 396.212 36.8965 363.552 36.1257 341.226C37.8135 319.687 36.9662 304.475 37.765 304.018C41.7136 301.761 52.8853 305.238 53.7546 313.437C54.0033 315.781 55.4971 332.782 55.7803 342.399C57.7691 355.897 58.2738 372.365 58.2738 372.365L64.2363 379.456M40.791 302.819C40.791 302.819 39.3253 298.712 38.2199 293.683C36.842 287.412 35.52 279.626 32.4733 275.652C29.1382 271.301 21.646 270.069 15.1144 274.969L27.5497 346.446L37.6366 364.648M55.3003 341.188L72.3887 366.631M125.81 429.844C132.064 436.61 140.797 443.732 142.009 454.082C142.859 461.338 139.984 471.739 134.621 476.985M81.3283 353.141L69.3226 333.809C69.4149 334.099 68.8602 322.936 69.0457 310.317C69.1589 302.55 70.2121 293.066 69.9108 288.825C69.428 282.045 67.5555 271.532 54.8108 273.169C53.5863 273.393 53.3381 276.345 53.1562 284.191C53.0673 288.043 52.4296 291.609 52.2473 295.366C51.9197 302.126 51.5725 307.58 51.5725 307.58M81.3283 353.141L60.5594 383.785L57.5949 415.704M81.3283 353.141C81.3283 353.141 85.7623 347.318 88.0088 350.913C90.4992 354.898 92.3498 358.507 88.9705 368.181C87.4226 372.613 77.7816 389.424 77.7816 389.424L81.4633 418.499L84.48 428.228M112.727 387.477L90.8542 361.271" stroke="#BD5F66" stroke-width="1.87" stroke-linecap="round" stroke-linejoin="round"/>
<path d="M76.4846 514.898C76.0134 515.338 75.3865 515.952 74.8098 520.45C74.5626 523.313 75.2355 545.57 71.9928 547.069C65.7575 549.953 60.0214 554.12 59.261 563.987C55.1636 622.193 42.5382 707.156 80.0653 760.975C109.251 802.831 131.228 782.491 150.488 756.716C179.118 718.404 172.061 678.239 162.207 636.544C159.274 624.133 158.85 573.066 156.383 564.035C153.915 555.002 145.787 553.544 145.787 553.544C144.412 546.675 143.81 533.588 143 527.236C140.428 528.592 110.615 535.766 81.9909 520.215C80.0489 519.371 75.3643 516.559 76.4846 514.898Z" fill="#493628"/>
<path d="M76.4846 514.898C76.0134 515.338 75.3865 515.952 74.8098 520.45C74.5626 523.313 75.2355 545.57 71.9928 547.069C65.7575 549.953 60.0214 554.12 59.261 563.987C55.1636 622.193 42.5382 707.156 80.0653 760.975C109.251 802.831 131.228 782.491 150.488 756.716C179.118 718.404 172.061 678.239 162.207 636.544C159.274 624.133 158.85 573.066 156.383 564.035C153.915 555.002 145.787 553.544 145.787 553.544C144.412 546.675 143.81 533.588 143 527.236C140.428 528.592 110.615 535.766 81.9909 520.215C80.0489 519.371 75.3643 516.559 76.4846 514.898Z" stroke="#493628" stroke-width="2" stroke-linejoin="bevel"/>
<path d="M631.499 778.124C620.373 779.683 595.221 774.466 589.065 757.343C584.287 743.071 586.94 718.59 585.849 703.621C583.212 667.423 581.143 631.042 579.063 594.729C579.063 594.729 560.056 484.521 541.913 419.015C520.893 343.128 628.429 315.315 654.391 415.112C659.36 434.208 661.544 454.306 665.17 473.691C667.241 484.765 668.446 496.358 670.649 507.248C673.039 519.063 678.75 530.623 681.813 542.416C693.257 586.495 696.805 632.959 689.077 677.985C683.443 710.809 681.578 769.085 631.499 778.124Z" fill="#493628"/>
<path d="M610.892 547.264C611.111 585.508 620.726 625.927 634.923 661.356C645.049 686.624 658.269 710.534 672.257 733.886C677.388 736.557 671.911 775.397 625.232 778.184C603.217 773.485 580.01 779.706 585.479 704.893C583.246 678.898 582.441 644.394 579.328 594.906C574.108 561.715 564.632 524.158 563.542 505.607C564.882 488.737 610.561 465.15 611.119 447.953C611.017 451.085 610.752 522.925 610.892 547.264Z" fill="#493628"/>
<path d="M764.682 619.996C764.993 621.437 765.047 622.743 764.667 623.738C764.326 624.634 763.598 625.335 762.828 625.924C759.685 628.323 755.518 629.263 751.572 628.824C747.827 628.406 744.19 626.857 741.357 624.451C738.673 622.171 735.564 620.456 732.861 618.133C722.587 609.303 715.83 596.06 716.826 582.666C716.995 580.394 717.562 576.361 720.06 575.322C721.955 574.534 726.021 575.547 727.824 576.184C736.816 579.366 743.661 586.256 749.44 593.463C753.356 598.347 757.222 603.354 760.002 608.968C761.165 611.321 763.848 616.138 764.682 619.996Z" fill="#493628"/>
<path d="M771.935 483.24L807.224 442.75C807.224 442.75 811.789 436.928 813.354 411.709C814.198 398.099 814.981 381.499 817.224 378.307C822.283 371.109 826.162 369.866 830.074 370.168C833.398 370.425 832.134 381.776 832.134 381.776C832.134 381.776 834.283 372.295 840.953 367.537C847.625 362.779 855.729 364.434 855.729 364.434L853.401 377.89C853.401 377.89 857.226 375.012 864.524 375.448L863.973 403.619L863.636 413.54C863.636 413.54 871.555 407.612 871.27 411.3C871.427 412.599 871.709 442.206 871.709 442.206C871.709 442.206 872.719 472.384 873.211 471.007C873.704 469.63 856.536 502.003 856.536 502.003C856.536 502.003 829.346 535.917 805.473 561.854C799.639 568.193 791.799 569.686 786.944 580.231C785.108 584.219 779.798 590.441 772.878 599.26C751.358 633.907 746.209 648.391 727.319 679.284C720.603 690.266 708.855 712.496 691.392 728.867C659.738 758.542 620.763 787.323 601.664 751.682C597.776 740.747 595.97 725.285 600.696 707.727C606.998 684.31 624.92 657.165 665.024 632.06C693.137 606.756 723.369 578.497 733.31 565.192C739.181 557.334 740.096 552.296 739.547 547.752C738.67 540.494 732.964 531.42 734.641 518.045C735.471 511.427 738.781 497.784 743.269 491.314C747.757 484.843 752.031 471.152 750.306 456.87C752.219 445.441 758.42 436.788 763.265 422.37C767.753 415.9 776.485 422.749 776.911 437.19C777.338 451.629 773.577 458.671 771.529 463.528C769.481 468.387 769.673 480.878 771.935 483.24Z" fill="#D69280"/>
<path d="M752.359 557.272C762.852 565.557 777.1 568.88 790.175 566.095M817.57 444.794C817.57 444.794 849.017 450.656 850.782 494.355M767.973 499.527C767.973 499.527 777.297 533.092 772.992 541.078M852.884 457.215L856.495 447.118M870.489 410.297C870.489 410.297 862.371 412.157 859.431 416.902C859.431 416.902 855.469 420.454 856.029 428.73C856.59 437.005 856.92 461.557 856.92 461.557L847.654 479.363M839.457 447.858L846.418 425.5L849.168 401.016C849.168 401.016 848.19 389.278 848.913 384.36C850.569 376.255 862.845 376.09 862.845 376.09L863.989 400.104L863.636 413.54M855.728 364.434C855.728 364.434 843.545 361.734 837.562 370.362C835.973 372.652 832.944 381.902 832.28 392.077C831.356 406.241 829.395 422.725 829.395 422.725L823.972 439.629M761.667 494.58L808.443 441.944C808.443 441.944 812.889 426.072 813.083 418.548C813.469 403.572 814.999 378.635 821.272 373.647C826.481 369.504 830.073 370.168 830.073 370.168" stroke="#BD5F66" stroke-width="1.98" stroke-linecap="round" stroke-linejoin="round"/>
<path d="M590.102 714.243C587.12 732.143 586.485 750.319 594.433 767.369C603.39 786.585 626.615 779.629 642.662 774.461C663.303 767.816 683.33 744.072 697.846 728.621C717.451 707.755 723.968 687.34 733.092 680.249C742.216 673.159 758.496 659.216 751.908 644.154C750.425 638.625 760.101 631.188 763.243 624.155C750.592 625.905 720.73 607.8 719.195 577.134C714.318 580.828 708.233 592.874 705.809 591.171C701.701 588.284 693.876 595.84 691.157 597.487C678.606 605.094 665.534 618.361 654.347 627.661C647.55 633.31 635.85 642.364 628.275 647.001C611.941 656.997 597.441 679.029 593.358 697.754C592.172 703.197 591.024 708.706 590.102 714.243Z" fill="#493628"/>
<path d="M590.102 714.243C587.12 732.143 586.485 750.319 594.433 767.369C603.39 786.585 626.615 779.629 642.662 774.461C663.303 767.816 683.33 744.072 697.846 728.621C717.451 707.755 723.968 687.34 733.092 680.249C742.216 673.159 758.496 659.216 751.908 644.154C750.425 638.625 760.101 631.188 763.243 624.155C750.592 625.905 720.73 607.8 719.195 577.134C714.318 580.828 708.233 592.874 705.809 591.171C701.701 588.284 693.876 595.84 691.157 597.487C678.606 605.094 665.534 618.361 654.347 627.661C647.55 633.31 635.85 642.364 628.275 647.001C611.941 656.997 597.441 679.029 593.358 697.754C592.172 703.197 591.024 708.706 590.102 714.243Z" stroke="#493628" stroke-width="2" stroke-linejoin="bevel"/>
<path d="M376.44 206.865L365.679 288.69L364.049 297.343C364.049 297.343 333.153 309.228 333.504 322.318C333.855 335.409 359.983 402.265 435.013 397.152C510.045 392.039 532.767 329.296 505.834 311.691C504.329 309.183 491.241 305.271 491.241 305.271L498.47 276.517C498.47 276.517 537.385 193.178 462.706 177.276C395.473 162.96 379.5 186.953 376.44 206.865Z" fill="#D69280"/>
<path d="M378.429 200.568C375.922 209.445 375.613 219.657 375.473 230.92C375.271 247.831 385.546 263.08 395.588 275.837C409.672 293.729 415.775 311.839 448.743 314.113C462.904 315.09 469.808 309.434 481.834 298.212C508.698 273.145 512.29 237.525 502.714 203.794C497.696 186.12 479.985 176.72 463.296 170.855C443.305 163.83 420.597 165.401 401.419 174.412C387.917 180.757 381.511 189.653 378.429 200.568Z" fill="#C58075"/>
<path d="M565.484 869.588L571.369 907.516C571.369 907.516 556.983 936.289 476.549 938.251C396.116 940.213 346.248 940.693 332.376 937.72C323.071 934.618 434.698 927.788 565.484 869.588Z" fill="#493628"/>
<path d="M332.376 935.971L335.163 936.352L338.409 935.935L341.683 936.84L344.904 935.761L348.208 936.981L351.395 935.482L354.734 936.954L357.884 935.109L361.271 936.974L364.363 934.646L367.831 937.092L370.836 934.097L374.406 937.22L377.301 933.462L381.014 937.437L383.758 932.742L387.659 937.747L390.205 931.934L394.339 938.069L396.641 931.039L401.041 938.305L403.062 930.054L407.757 938.393L409.47 928.977L414.489 938.348L415.859 927.806L421.233 938.16L422.232 926.537L427.993 937.846L428.583 925.168L434.785 937.479L434.91 923.694L441.634 937.132L441.211 922.111L448.555 936.831L447.483 920.416L455.544 936.515L453.721 918.602L462.725 936.54C461.932 929.896 460.991 923.271 459.923 916.666L469.915 936.249C468.706 928.756 467.582 922.04 466.083 914.6L477.359 936.543C475.699 928.314 473.603 920.759 471.739 912.579L483.378 935.325L477.86 910.366L490.484 935.784L483.98 908.158L496.868 934.545L490.099 905.955L503.266 933.583L496.221 903.752L510.414 933.572L502.342 901.548L517.028 932.662L508.46 899.34L523.585 931.495L514.578 897.121L530.067 929.989L520.687 894.885L536.481 928.098L526.786 892.621L542.866 925.841L532.867 890.313L549.286 923.253L538.923 887.935C544.421 898.74 550.025 909.491 555.763 920.17L544.934 885.448C550.452 895.653 556.138 905.769 562.075 915.737C558.503 904.698 554.804 893.697 550.867 882.782C556.338 891.911 562.064 900.894 568.192 909.597C564.604 899.574 560.816 889.619 556.658 879.818C560.416 885.104 564.33 891.333 569.948 894.863C568.336 891.204 566.732 887.541 565.123 883.88C564.05 881.438 562.802 878.944 562.152 876.344C563.63 877.252 564.843 876.981 565.971 875.771C565.935 874.689 566.264 872.879 567.018 872.043" stroke="#BDB29A" stroke-miterlimit="10"/>
<path d="M365.49 293.149C352.411 302.086 362.111 345.464 416.388 353.638C475.241 360.177 493.552 336.635 488.974 319.633L491.263 310.477L510.621 311.028C510.621 311.028 534.748 409.875 414.425 403.336C301.557 397.201 329.759 301.306 359.595 293.493C361.566 292.977 363.545 292.845 365.49 293.149Z" fill="white"/>
<path d="M570.053 869.335C574.075 860.595 566.208 853.567 568.64 843.473C571.401 832.018 577.12 824.104 576.716 811.384C576.321 798.969 572.997 786.862 569.951 774.82C565.425 756.928 558.889 734.801 562.019 716.191C564.49 701.495 570.06 687.16 572.637 672.038C578.912 635.226 583.832 598.182 587.396 561.009C590.072 533.087 597.631 496.336 602.758 471.345C607.989 445.841 611.695 356.252 598.18 350.366C569.357 337.814 494.042 301.595 494.042 301.595C494.042 301.595 493.279 303.666 493.279 303.829C496.149 307.945 503.914 317.241 505.322 328.788C507.502 346.662 486.14 381.538 432.517 380.23C388.044 379.145 354.918 348.406 352.302 323.556C348.378 290.86 366.688 285.628 366.688 285.628C366.688 285.628 249.635 309.17 231.325 312.439C166.686 324.945 174.186 409.945 220.727 419.475C218.838 477.406 219.972 548.997 214.322 599.841C210.399 635.153 200.364 653.257 197.32 679.949C192.678 720.66 188.819 734.225 166.258 797.002C158.242 819.31 156.122 831.3 156.122 846.046C156.122 870.896 186.836 899.976 186.857 899.997C214.272 926.557 270.588 932.951 305.674 936.13C387.207 943.518 477.514 917.084 551.185 883.856C556.928 881.265 562.794 878.469 567.018 873.793C568.415 872.247 569.394 870.768 570.053 869.335Z" fill="#493628"/>
<path d="M224.282 612.657C222.506 654.199 214.184 687.169 211.145 728.607C208.711 761.789 215.623 802.431 184.489 824.964C179.42 828.632 173.574 831.393 169.454 836.102C163.82 842.541 162.303 851.783 163.472 860.259C164.597 868.421 168.357 875.666 170.745 883.37C158.908 865.527 156.183 854.405 155.179 841.182C157.56 821.366 161.884 816.116 165.971 796.398C182.431 757.746 193.97 715.864 197.217 680.283C202.37 651.252 211.15 630.243 213.376 600.947C223.116 556.328 214.949 434.116 223.016 414.147C231.299 462.538 229.035 509.916 228.844 560.467C229.534 578.666 224.445 608.854 224.282 612.657Z" fill="#493628"/>
<path d="M354.591 292.822C354.591 292.822 340.967 304.157 340.531 328.134C340.054 354.418 357.425 390.367 416.823 398.541C518.292 406.497 527.12 334.892 503.033 310.478C499.11 306.119 496.658 303.939 493.606 302.74C493.17 304.157 491.208 310.424 491.208 310.424C491.208 310.424 505.649 324.102 499.764 342.848C493.224 365.081 465.991 380.413 419.003 375.217C373.664 370.204 355.354 336.635 357.316 317.017C357.97 297.618 365.49 293.04 365.49 293.04L367.016 285.301C367.016 285.301 361.021 286.61 354.591 292.822Z" fill="#493628"/>
<path d="M354.591 292.822C354.591 292.822 340.967 304.157 340.531 328.134C340.054 354.418 357.425 390.367 416.823 398.541C518.292 406.497 527.12 334.892 503.033 310.478C499.11 306.119 496.658 303.939 493.606 302.74C493.17 304.157 491.208 310.424 491.208 310.424C491.208 310.424 505.649 324.102 499.764 342.848C493.224 365.081 465.991 380.413 419.003 375.217C373.664 370.204 355.354 336.635 357.316 317.017C357.97 297.618 365.49 293.04 365.49 293.04L367.016 285.301C367.016 285.301 361.021 286.61 354.591 292.822Z" stroke="#BDB29A" stroke-width="2" stroke-miterlimit="10"/>
<path d="M366.285 287.521C365.89 287.9 365.481 288.272 365.061 288.624C364.324 289.24 363.002 289.841 362.167 289.037C361.544 288.438 362.056 287.738 362.757 287.57C363.225 287.458 364.524 287.297 364.901 287.733C365.242 288.128 363.954 289.717 363.736 289.983C363.352 290.453 362.965 290.922 362.584 291.396C362.21 291.863 361.837 292.338 361.515 292.843C360.834 293.909 361.05 295.329 362.093 296.079C362.684 296.503 363.663 296.669 364.025 295.87C364.351 295.152 364.003 294.21 363.408 293.743C362.442 292.982 361.115 293.54 360.353 294.314C359.921 294.752 359.53 295.219 359.188 295.73C358.854 296.23 358.464 296.703 358.042 297.131C357.032 298.156 355.392 298.168 354.22 297.412C353.526 296.964 352.709 295.91 353.478 295.149C354.181 294.453 355.428 294.707 356.153 295.221C357.265 296.011 357.602 297.519 357.019 298.729C356.754 299.279 356.468 299.817 356.189 300.359C355.916 300.891 355.644 301.435 355.449 302.001C354.911 303.568 356.418 305.001 357.692 305.612C358.26 305.884 360.054 306.534 360.296 305.491C360.525 304.508 359.232 303.513 358.509 303.124C357.237 302.438 355.514 302.433 354.564 303.653C354.182 304.142 353.87 304.662 353.634 305.236C353.405 305.792 353.082 306.326 352.713 306.801C351.638 308.186 349.377 307.977 347.935 307.413C347.175 307.115 345.295 306.073 346.022 304.98C346.708 303.948 348.563 304.422 349.455 304.824C350.839 305.449 352.379 306.903 352.021 308.572C351.893 309.17 351.729 309.758 351.574 310.35C351.422 310.929 351.274 311.523 351.227 312.122C351.081 314.023 353.745 315.091 355.198 315.448C355.717 315.575 358.436 316.159 358.459 315.057C358.482 313.945 356.261 313.173 355.47 312.931C353.966 312.472 351.596 312.3 350.69 313.914C350.382 314.46 350.172 315.027 350.069 315.645C349.97 316.24 349.742 316.834 349.453 317.362C348.507 319.088 345.63 319.136 343.971 318.89C343.151 318.768 340.379 318.15 340.869 316.769C341.344 315.433 343.876 315.732 344.885 315.942C346.47 316.271 349.081 317.306 349.173 319.245C349.203 319.859 349.185 320.471 349.176 321.085C349.168 321.684 349.169 322.302 349.284 322.892C349.68 324.923 353.192 325.202 354.756 325.215C355.736 325.223 356.776 325.162 357.71 324.84C357.981 324.747 358.553 324.54 358.477 324.154C358.256 323.028 355.273 322.836 354.469 322.781C352.803 322.667 349.817 322.807 349.165 324.756C348.964 325.356 348.879 325.953 348.929 326.583C348.978 327.186 348.876 327.824 348.694 328.399C348.055 330.415 344.793 331.092 343.02 331.256C342.178 331.335 338.834 331.49 338.949 329.942C339.063 328.415 342.123 328.162 343.169 328.126C344.861 328.068 348.227 328.303 348.875 330.295C349.065 330.881 349.201 331.481 349.345 332.079C349.486 332.662 349.639 333.266 349.907 333.805C350.871 335.75 354.755 335.024 356.339 334.659C357.403 334.414 358.502 334.088 359.451 333.537C359.693 333.397 360.32 333.048 360.164 332.675C360.017 332.322 359.391 332.262 359.076 332.22C357.909 332.068 356.692 332.176 355.537 332.373C353.816 332.666 350.479 333.474 350.222 335.646C350.147 336.278 350.194 336.879 350.394 337.482C350.585 338.057 350.621 338.712 350.557 339.311C350.322 341.509 346.998 342.925 345.241 343.504C344.437 343.769 340.913 344.812 340.63 343.263C340.347 341.716 343.645 340.715 344.637 340.445C346.312 339.988 350.009 339.257 351.167 341.116C351.493 341.64 351.764 342.192 352.04 342.743C352.309 343.281 352.595 343.836 352.98 344.302C354.392 346.016 358.256 344.365 359.763 343.665C360.833 343.169 361.929 342.579 362.808 341.78C363.017 341.589 363.552 341.124 363.337 340.785C363.115 340.435 362.395 340.543 362.065 340.577C360.85 340.702 359.647 341.092 358.522 341.549C356.855 342.225 353.507 343.78 353.672 346.036C353.718 346.674 353.884 347.255 354.205 347.807C354.51 348.33 354.668 348.97 354.714 349.57C354.887 351.825 351.722 353.884 350.077 354.799C349.028 355.382 347.837 355.933 346.622 356.023C346.201 356.054 345.535 356.041 345.342 355.572C345.154 355.115 345.526 354.581 345.798 354.245C346.602 353.256 347.765 352.543 348.89 351.978C350.462 351.189 354.121 349.589 355.662 351.223C356.086 351.672 356.457 352.163 356.831 352.653C357.196 353.131 357.578 353.625 358.042 354.012C359.819 355.499 363.31 353.032 364.723 352.066C365.712 351.39 366.804 350.663 367.544 349.707C367.725 349.472 368.183 348.901 367.911 348.588C367.631 348.266 366.918 348.495 366.59 348.587C365.381 348.929 364.234 349.549 363.177 350.217C361.551 351.244 358.588 353.319 359.023 355.608C359.112 356.075 359.197 356.448 359.519 356.813C359.863 357.203 360.06 357.818 360.173 358.315C360.686 360.547 357.804 363.13 356.305 364.309C355.339 365.068 354.225 365.816 353.015 366.11C352.596 366.212 351.922 366.311 351.649 365.87C351.385 365.442 351.681 364.846 351.902 364.469C352.56 363.344 353.622 362.44 354.669 361.69C356.116 360.653 359.561 358.424 361.371 359.799C361.865 360.173 362.311 360.6 362.761 361.025C363.199 361.438 363.659 361.864 364.182 362.167C364.808 362.53 365.645 362.313 366.275 362.081C367.918 361.477 369.366 360.307 370.606 359.099C371.496 358.233 372.378 357.272 372.986 356.181C373.124 355.932 373.513 355.28 373.195 355.021C372.868 354.754 372.191 355.123 371.892 355.269C370.739 355.832 369.691 356.645 368.736 357.494C367.355 358.723 364.517 361.428 365.413 363.578C365.661 364.171 366.005 364.667 366.495 365.082C366.958 365.476 367.316 366.037 367.55 366.594C368.446 368.73 365.992 371.832 364.712 373.271C363.879 374.207 362.9 375.157 361.744 375.681C361.354 375.858 360.696 376.094 360.348 375.707C360.011 375.333 360.211 374.683 360.364 374.275C360.83 373.031 361.732 371.935 362.646 370.992C363.892 369.706 366.942 366.806 368.992 367.841C369.546 368.12 370.061 368.461 370.579 368.8C371.083 369.129 371.611 369.468 372.181 369.675C372.866 369.923 373.662 369.552 374.246 369.211C375.783 368.314 377.03 366.894 378.066 365.471C378.81 364.449 379.53 363.334 379.953 362.136C380.049 361.862 380.327 361.139 379.965 360.933C379.593 360.72 378.978 361.209 378.705 361.407C377.648 362.174 376.742 363.174 375.934 364.193C374.773 365.656 372.386 368.863 373.634 370.856C373.976 371.401 374.398 371.834 374.95 372.162C375.474 372.472 375.918 372.969 376.237 373.483C377.471 375.468 375.493 378.971 374.452 380.607C373.77 381.68 372.949 382.789 371.885 383.514C371.536 383.753 370.92 384.114 370.514 383.79C370.121 383.477 370.227 382.793 370.314 382.372C370.586 381.052 371.309 379.81 372.065 378.713C373.086 377.233 375.652 373.787 377.862 374.478C378.454 374.663 379.018 374.916 379.583 375.169C380.134 375.414 380.709 375.666 381.305 375.78C382.025 375.918 382.76 375.419 383.286 374.99C384.682 373.854 385.713 372.247 386.533 370.666C387.122 369.53 387.675 368.304 387.911 367.039C387.966 366.745 388.129 365.98 387.734 365.825C387.327 365.665 386.787 366.247 386.543 366.488C385.603 367.417 384.853 368.561 384.205 369.706C383.278 371.346 381.385 374.927 382.922 376.727C383.34 377.217 383.821 377.583 384.416 377.825C384.98 378.054 385.492 378.484 385.88 378.948C387.388 380.751 385.891 384.529 385.086 386.303C384.556 387.472 383.897 388.694 382.947 389.579C382.642 389.863 382.084 390.327 381.638 390.067C381.183 389.802 381.222 389.046 381.26 388.606C381.375 387.279 381.898 385.973 382.481 384.79C383.279 383.174 385.33 379.332 387.63 379.7C388.242 379.798 388.835 379.971 389.43 380.142C390.01 380.309 390.615 380.48 391.22 380.512C391.955 380.55 392.619 379.953 393.086 379.457C394.325 378.137 395.145 376.401 395.755 374.716C396.194 373.505 396.583 372.207 396.647 370.912C396.662 370.605 396.72 369.823 396.3 369.716C395.87 369.606 395.405 370.254 395.192 370.529C394.375 371.58 393.783 372.825 393.292 374.055C392.592 375.814 391.186 379.644 392.95 381.237C393.428 381.669 393.951 381.97 394.574 382.134C395.162 382.289 395.724 382.652 396.166 383.064C397.889 384.67 396.849 388.621 396.266 390.48C395.88 391.71 395.374 393.006 394.544 394.011C394.283 394.327 393.789 394.868 393.318 394.669C392.837 394.465 392.79 393.705 392.775 393.27C392.731 391.934 393.088 390.57 393.52 389.317C394.107 387.614 395.661 383.511 397.995 383.594C398.615 383.616 399.225 383.715 399.836 383.814C400.432 383.911 401.052 384.008 401.658 383.969C402.393 383.922 402.984 383.251 403.391 382.704C404.473 381.25 405.094 379.432 405.51 377.686C405.809 376.431 406.048 375.093 405.958 373.797C405.936 373.482 405.898 372.702 405.464 372.639C405.019 372.576 404.628 373.269 404.444 373.57C403.749 374.708 403.305 376.018 402.962 377.299C402.471 379.133 401.526 383.109 403.46 384.491C403.984 384.866 404.538 385.107 405.175 385.2C405.777 385.288 406.376 385.587 406.86 385.948C408.748 387.356 408.13 391.395 407.749 393.302C407.496 394.565 407.133 395.905 406.42 396.996C406.198 397.335 405.77 397.932 405.283 397.788C404.788 397.64 404.664 396.888 404.604 396.463C404.418 395.14 404.625 393.747 404.917 392.455C405.313 390.7 406.403 386.444 408.735 386.277C409.354 386.233 409.97 386.267 410.588 386.302C411.191 386.336 411.818 386.369 412.417 386.268C413.142 386.147 413.663 385.422 414.013 384.838C414.942 383.289 415.378 381.424 415.616 379.651C415.787 378.376 415.889 377.022 415.664 375.746C415.608 375.429 415.486 374.662 415.044 374.641C414.592 374.62 414.27 375.342 414.116 375.662C413.537 376.86 413.23 378.207 413.022 379.513C412.723 381.388 412.201 385.427 414.263 386.604C414.823 386.924 415.398 387.107 416.041 387.138C416.648 387.166 417.274 387.404 417.791 387.715C419.802 388.925 419.578 392.979 419.381 394.905C419.251 396.181 419.018 397.541 418.419 398.691C418.233 399.047 417.867 399.682 417.372 399.588C416.869 399.493 416.675 398.76 416.575 398.347C416.265 397.055 416.334 395.657 416.497 394.35C416.719 392.569 417.387 388.247 419.688 387.861C420.3 387.759 420.917 387.735 421.535 387.711C422.138 387.689 422.766 387.664 423.352 387.51C424.061 387.323 424.513 386.563 424.81 385.952C425.591 384.34 425.857 382.46 425.93 380.688C425.983 379.412 425.959 378.064 425.614 376.825C425.527 376.51 425.332 375.769 424.888 375.785C424.435 375.801 424.178 376.539 424.052 376.873C423.584 378.107 423.405 379.468 423.321 380.777C423.199 382.665 423.067 386.701 425.223 387.673C425.809 387.938 426.4 388.067 427.042 388.04C427.649 388.013 428.293 388.192 428.837 388.453C430.938 389.462 431.083 393.469 431.058 395.39C431.042 396.659 430.93 398.019 430.438 399.204C430.285 399.573 429.979 400.231 429.482 400.185C428.976 400.139 428.718 399.436 428.583 399.039C428.159 397.794 428.103 396.41 428.147 395.108C428.208 393.323 428.49 389.01 430.739 388.43C431.34 388.275 431.952 388.197 432.566 388.121C433.165 388.046 433.787 387.967 434.358 387.765C435.044 387.522 435.431 386.739 435.676 386.11C436.315 384.464 436.419 382.594 436.339 380.848C436.282 379.59 436.14 378.267 435.689 377.081C435.572 376.773 435.312 376.067 434.871 376.117C434.423 376.168 434.227 376.911 434.129 377.253C433.768 378.503 433.709 379.857 433.739 381.15C433.783 383.03 434.017 386.999 436.236 387.765C436.844 387.974 437.443 388.05 438.08 387.968C438.682 387.89 439.338 388.009 439.904 388.219C442.066 389.021 442.563 392.919 442.702 394.816C442.792 396.06 442.795 397.403 442.408 398.603C442.285 398.984 442.036 399.651 441.54 399.652C441.038 399.653 440.72 398.992 440.55 398.611C440.024 397.431 439.85 396.078 439.784 394.8C439.691 393.026 439.619 388.789 441.797 388.033C442.382 387.829 442.985 387.702 443.59 387.574C444.181 387.449 444.793 387.319 445.347 387.072C447.407 386.151 446.967 381.852 446.742 380.154C446.58 378.93 446.327 377.649 445.78 376.532C445.634 376.234 445.316 375.573 444.884 375.656C444.444 375.741 444.308 376.477 444.237 376.825C443.983 378.074 444.037 379.403 444.175 380.663C444.379 382.514 444.96 386.358 447.217 386.91C447.84 387.062 448.445 387.083 449.071 386.948C449.664 386.819 450.325 386.877 450.908 387.032C453.104 387.615 453.947 391.346 454.246 393.199C454.441 394.404 454.552 395.713 454.268 396.913C454.175 397.303 453.982 397.968 453.492 398.016C452.997 398.063 452.622 397.457 452.418 397.095C451.797 395.996 451.51 394.691 451.337 393.453C451.094 391.709 450.692 387.603 452.778 386.683C453.344 386.433 453.935 386.254 454.526 386.075C455.103 385.901 455.701 385.719 456.233 385.428C458.185 384.359 457.41 380.237 457.037 378.589C456.772 377.416 456.41 376.194 455.774 375.163C455.6 374.881 455.229 374.274 454.81 374.391C454.386 374.509 454.31 375.231 454.268 375.579C454.119 376.812 454.285 378.1 454.528 379.31C454.89 381.112 455.813 384.778 458.081 385.098C458.715 385.188 459.318 385.151 459.929 384.96C460.508 384.78 461.169 384.772 461.765 384.866C463.971 385.214 465.154 388.714 465.62 390.503C465.919 391.65 466.144 392.911 465.965 394.097C465.904 394.497 465.761 395.151 465.282 395.247C464.799 395.344 464.373 394.804 464.131 394.465C463.419 393.466 463.019 392.227 462.741 391.045C462.341 389.344 461.625 385.43 463.594 384.344C464.135 384.046 464.706 383.814 465.277 383.581C465.836 383.354 466.412 383.117 466.915 382.781C468.735 381.562 467.618 377.675 467.088 376.097C466.717 374.993 466.244 373.85 465.525 372.922C465.324 372.663 464.904 372.12 464.507 372.272C464.103 372.425 464.09 373.125 464.08 373.47C464.046 374.672 464.328 375.902 464.677 377.044C465.206 378.774 466.468 382.203 468.721 382.267C469.36 382.285 469.956 382.184 470.543 381.933C471.1 381.695 471.753 381.613 472.355 381.635C474.54 381.717 476.084 384.912 476.733 386.61C477.143 387.681 477.488 388.876 477.421 390.035C477.398 390.445 477.307 391.082 476.844 391.232C476.378 391.382 475.901 390.926 475.618 390.619C474.814 389.744 474.296 388.591 473.909 387.483C473.337 385.849 472.301 382.18 474.118 380.92C474.625 380.568 475.167 380.276 475.709 379.983C476.239 379.695 476.784 379.396 477.248 379.007C478.897 377.623 477.399 374.043 476.69 372.57C476.203 371.557 475.612 370.521 474.811 369.72C474.585 369.494 474.117 369.027 473.752 369.217C473.381 369.409 473.445 370.08 473.473 370.413C473.572 371.57 473.977 372.716 474.44 373.771C475.155 375.4 476.776 378.512 478.977 378.279C479.611 378.212 480.188 378.033 480.737 377.711C481.259 377.405 481.889 377.235 482.488 377.168C484.61 376.932 486.552 379.705 487.422 381.268C487.844 382.027 489.399 385.052 488.063 385.707C486.723 386.364 485.113 383.373 484.7 382.558C483.925 381.028 482.536 377.676 484.14 376.217C484.597 375.801 485.093 375.437 485.586 375.068C486.067 374.708 486.561 374.333 486.961 373.881C488.364 372.297 486.404 369.15 485.475 367.842C484.85 366.961 484.123 366.079 483.241 365.443C482.996 365.266 482.48 364.891 482.166 365.123C481.847 365.36 482.01 365.987 482.088 366.294C482.36 367.375 482.91 368.403 483.507 369.336C484.444 370.802 486.464 373.492 488.548 372.883C489.158 372.705 489.694 372.426 490.178 372.015C490.639 371.622 491.222 371.337 491.795 371.149C493.77 370.503 496.162 372.648 497.313 373.979C497.922 374.683 499.869 377.187 498.656 378.123C497.447 379.056 495.4 376.611 494.818 375.853C493.78 374.499 491.972 371.596 493.233 369.894C493.6 369.398 494.01 368.94 494.414 368.475C494.807 368.022 495.207 367.547 495.495 367.018C496.49 365.192 493.916 362.748 492.715 361.75C491.92 361.088 491.039 360.453 490.078 360.054C489.831 359.952 489.264 359.697 489.038 359.972C488.807 360.253 489.126 360.795 489.262 361.044C489.772 361.981 490.504 362.814 491.265 363.554C492.477 364.734 494.973 366.785 496.786 365.668C497.325 365.335 497.767 364.923 498.12 364.397C498.458 363.895 498.928 363.453 499.416 363.097C501.041 361.909 503.865 362.981 505.371 363.856C506.265 364.375 508.63 366.067 507.73 367.396C506.834 368.721 504.319 367.196 503.472 366.587C502.091 365.592 499.75 363.408 500.4 361.455C500.569 360.948 500.744 360.438 500.952 359.945C501.187 359.392 501.43 358.825 501.566 358.237C502.023 356.275 499.207 354.557 497.796 353.876C497.175 353.577 494.357 352.263 493.854 353.345C493.34 354.45 496.074 355.917 496.73 356.257C498.231 357.033 501.047 358.087 502.458 356.588C502.891 356.128 503.222 355.622 503.455 355.036C503.678 354.475 504.044 353.947 504.45 353.503C505.78 352.05 508.6 352.677 510.158 353.304C510.989 353.639 513.545 354.869 512.957 356.17C512.37 357.469 509.7 356.418 508.876 356.04C507.374 355.352 504.783 353.724 505.144 351.731C505.254 351.126 505.416 350.534 505.57 349.94C505.72 349.359 505.868 348.761 505.905 348.161C506.028 346.195 503.094 345.123 501.62 344.76C501.021 344.613 498.129 343.924 497.861 344.95C497.589 345.996 500.435 346.919 501.052 347.115C502.618 347.61 505.43 348.109 506.464 346.377C506.787 345.836 506.998 345.269 507.095 344.647C507.188 344.051 507.413 343.455 507.689 342.92C508.556 341.241 511.2 340.989 512.836 341.179C513.798 341.291 516.286 341.851 516.068 343.282C515.848 344.721 513.244 344.461 512.305 344.28C510.696 343.97 508.059 342.976 507.915 341.026C507.87 340.414 507.869 339.8 507.855 339.187C507.842 338.588 507.816 337.975 507.687 337.388C507.28 335.542 504.456 335.338 502.986 335.442C502.375 335.485 499.694 335.708 499.702 336.708C499.709 337.716 502.498 337.785 503.089 337.793C504.684 337.814 507.282 337.427 507.686 335.521C507.816 334.907 507.834 334.301 507.735 333.683C507.64 333.088 507.652 332.457 507.726 331.859C507.944 330.102 509.997 328.993 511.542 328.658C512.5 328.45 514.698 328.312 514.983 329.651C515.274 331.018 513.038 331.615 512.107 331.74C510.522 331.952 508.032 331.715 507.332 329.994C507.101 329.426 506.907 328.845 506.701 328.268C506.499 327.704 506.283 327.133 505.987 326.612C505.128 325.098 502.803 325.464 501.488 326.009C500.855 326.272 498.879 327.207 499.151 328.179C499.426 329.161 501.713 328.501 502.282 328.315C503.749 327.834 505.65 326.639 505.387 324.841C505.296 324.224 505.114 323.645 504.835 323.088C504.565 322.55 504.375 321.957 504.241 321.37C503.889 319.836 505.022 318.309 506.309 317.607C507.128 317.16 508.805 316.692 509.434 317.706C510.093 318.766 508.568 319.857 507.778 320.226C506.395 320.873 504.351 321.058 503.323 319.704C502.953 319.218 502.612 318.711 502.263 318.209C501.922 317.716 501.569 317.222 501.165 316.779C500.169 315.685 498.442 315.962 497.366 316.768C496.758 317.224 495.717 318.349 496.159 319.204C496.623 320.103 498.164 319.336 498.715 318.969C499.934 318.158 500.807 316.653 500.13 315.217C499.866 314.657 499.537 314.145 499.145 313.668C498.763 313.203 498.432 312.687 498.14 312.162C497.533 311.067 497.633 309.574 498.629 308.738C499.287 308.185 500.459 307.897 501.156 308.549C501.908 309.252 501.262 310.332 500.613 310.833C499.496 311.697 497.936 311.7 496.896 310.727C496.451 310.311 496.024 309.875 495.595 309.444C495.172 309.019 494.743 308.596 494.285 308.208C493.922 307.9 492.398 306.885 491.916 307.42C491.41 307.983 491.129 309.308 491.254 310.028C491.421 310.991 492.542 310.582 493.012 310.117C493.939 309.202 493.769 307.784 493.003 306.836C492.635 306.381 492.214 305.977 491.789 305.576" stroke="#BDB29A" stroke-miterlimit="10"/>
<path d="M349.166 172.949C351.604 185.612 358.299 195.95 366.571 206.641C367.492 207.83 370.076 210.57 372.06 210.704C373.533 210.805 374.575 210.949 375.739 209.687C375.777 212.312 374.342 226.938 374.519 230.832C374.839 237.859 375.068 243.738 379.292 249.42C389.099 262.609 398.754 273.752 410.997 284.76C414.157 287.602 416.124 290.173 421.324 292.95C429.441 297.287 445.709 301.588 454.946 300.835C462.06 300.256 469.296 296.244 475.498 293.155C482.923 289.456 489.563 283.809 496.085 278.753C505.192 271.693 513.819 264.533 518.171 252.499C520.569 245.869 522.691 237.58 524.405 230.81C524.202 231.628 526.359 233.344 528.207 232.095C530.988 230.541 531.691 229.121 533.507 226.504C537.595 220.613 540.702 218.864 544.631 212.882C549.547 205.399 557.508 193.758 551.764 182.076C543.494 173.212 535.515 190.513 533.892 194.238C551.57 153.675 566.06 96.125 529.637 63.2452C510.249 45.7423 469.558 38.2115 443.406 41.4453C414.967 44.9618 392.483 62.6505 380.095 89.0077C377.532 94.4617 375.859 100.305 374.775 106.233C372.12 120.762 373.349 136.204 376.03 150.629C374.825 144.143 368.489 138.098 361.547 140.845C356.181 142.97 353.147 147.531 351.068 152.781C348.592 159.032 347.894 166.344 349.166 172.949Z" fill="#D69280"/>
<path d="M450.991 124.531C451.843 124.572 452.754 124.609 453.484 124.167C454.004 123.853 454.361 123.335 454.702 122.833C456.694 119.898 458.515 116.297 460.505 113.364C455.515 112.414 450.551 114.042 445.562 115.001C437.208 116.607 428.804 118.228 420.861 121.273C412.788 124.369 410.541 128.267 404.281 134.186C420.369 126.537 433.174 123.681 450.991 124.531Z" fill="#7B3D2D"/>
<path d="M486.058 133.635C486.383 130.302 492.89 127.619 495.148 127.621C499.461 127.628 508.457 131.989 514.625 135.081C517.723 136.633 520.846 138.211 523.521 140.413C530.747 146.362 530.432 152.086 532.231 161.543C530.25 151.129 511.72 142.773 503.279 139.738C500.913 138.888 487.441 137.143 486.514 135.534C486.133 134.873 486 134.238 486.058 133.635Z" fill="#7B3D2D"/>
<path d="M464.39 121.311C464.425 124.665 464.459 128.019 464.493 131.374" stroke="#3D2122" stroke-width="0.99" stroke-miterlimit="10"/>
<path d="M433.951 154.11C433.094 160.564 429.76 165.446 426.504 165.014C423.247 164.582 421.3 158.999 422.157 152.546C423.012 146.092 426.348 141.209 429.605 141.642C432.862 142.074 434.807 147.657 433.951 154.11Z" fill="#340C10"/>
<path d="M418.637 163.412C423.014 163.91 429.587 163.887 431.768 164.907" stroke="#3D2122" stroke-width="2" stroke-linecap="round" stroke-linejoin="round"/>
<path d="M507.072 168.65C505.374 174.647 501.544 178.812 498.518 177.955C495.493 177.098 494.417 171.542 496.115 165.547C497.814 159.55 501.643 155.385 504.669 156.242C507.695 157.099 508.77 162.655 507.072 168.65Z" fill="#340C10"/>
<path d="M492.513 176.644C496.89 177.141 503.463 177.118 505.645 178.138" stroke="#3D2122" stroke-width="2" stroke-linecap="round" stroke-linejoin="round"/>
<path d="M482.425 157.514C476.199 163.478 472.901 176.004 474.791 184.407C476.407 193.063 482.215 199.253 475.601 207.767C475.206 208.263 474.42 207.692 474.815 207.162C477.885 203.834 477.924 198.735 476.1 194.785C475.216 192.731 474.101 190.702 473.193 188.491C469.985 181.866 470.686 174.138 472.42 167.266C473.71 162.471 475.507 157.866 478.928 154.01C481.31 151.484 484.969 155.118 482.425 157.514ZM441.415 200.425C441.415 200.425 445.061 199.631 448.876 200.572C453.342 201.45 452.707 203.922 452.707 203.922C452.707 203.922 451.792 205.762 447.611 203.324C446.302 202.247 444.818 201.626 441.415 200.425ZM472.655 206.353C470.052 206.607 464.433 207.375 463.761 207.222C463.089 207.068 463.195 204.068 467.174 204.041C469.58 204.025 475.259 206.098 472.655 206.353Z" fill="#340C10"/>
<path d="M456.488 157.977C456.491 161.939 455.506 167.416 454.386 171.781" stroke="#3D2122" stroke-width="0.99" stroke-linecap="round" stroke-linejoin="round"/>
<path d="M353.337 162.411C353.854 156.431 358.369 142.064 365.122 152.15C366.601 154.358 367.421 156.929 368.222 159.463C369.046 162.067 369.87 164.67 370.694 167.273C372.802 173.936 367.694 174.1 367.327 180.018C367.178 182.437 368.268 184.939 370.252 186.333C373.208 188.409 373.873 193.14 369.422 194.2" stroke="#BD5F66" stroke-width="1.98" stroke-linecap="round" stroke-linejoin="round"/>
<path d="M548.585 195.842C549.166 194.376 549.527 190.574 548.659 189.018C547.687 187.279 546.205 187.296 544.517 188.077C542.443 189.036 540.665 191.131 539.352 192.95C536.958 196.267 534.887 199.817 533.174 203.531C532.507 204.977 531.344 206.802 531.597 208.436C531.888 210.325 533.049 211.34 532.607 213.477C532.177 215.56 531.329 216.729 529.721 218.002C528.414 219.036 526.526 220.029 527.586 221.958" stroke="#BD5F66" stroke-width="1.98" stroke-linecap="round" stroke-linejoin="round"/>
<g opacity="0.56">
<mask id="mask0_87_322" style="mask-type:luminance" maskUnits="userSpaceOnUse" x="484" y="184" width="40" height="39">
<path d="M523.059 201.879C524.09 212.436 516.367 221.832 505.809 222.863C495.252 223.894 485.858 216.171 484.827 205.613C483.796 195.055 491.517 185.66 502.075 184.629C512.632 183.598 522.028 191.321 523.059 201.879Z" fill="url(#paint0_radial_87_322)"/>
</mask>
<g mask="url(#mask0_87_322)">
<path d="M523.059 201.879C524.09 212.436 516.367 221.832 505.809 222.863C495.252 223.894 485.858 216.171 484.827 205.613C483.796 195.055 491.517 185.66 502.075 184.629C512.632 183.598 522.028 191.321 523.059 201.879Z" fill="url(#paint1_radial_87_322)" fill-opacity="0.56"/>
</g>
</g>
<g opacity="0.56">
<mask id="mask1_87_322" style="mask-type:luminance" maskUnits="userSpaceOnUse" x="392" y="166" width="40" height="40">
<path d="M431.883 184.244C432.942 195.087 425.01 204.736 414.167 205.795C403.324 206.855 393.675 198.923 392.616 188.08C391.556 177.236 399.488 167.587 410.331 166.528C421.175 165.469 430.824 173.401 431.883 184.244Z" fill="url(#paint2_radial_87_322)"/>
</mask>
<g mask="url(#mask1_87_322)">
<path d="M431.883 184.244C432.942 195.087 425.01 204.736 414.167 205.795C403.324 206.855 393.675 198.923 392.616 188.08C391.556 177.236 399.488 167.587 410.331 166.528C421.175 165.469 430.824 173.401 431.883 184.244Z" fill="url(#paint3_radial_87_322)" fill-opacity="0.56"/>
</g>
</g>
<path d="M536.945 188.212C538.278 186.102 539.627 183.893 542.046 181.905C544.468 179.785 546.276 178.777 550.746 181.015C551.346 177.043 551.966 176.536 553 172.71C553.955 169.17 553.643 165.388 554.108 161.707C555.652 149.462 560.157 137.878 562.808 125.874C565.332 114.445 565.757 103.985 561.542 92.8257C557.668 82.5688 549.719 73.8624 541.828 66.4293C538.115 62.9337 534.047 59.6215 529.217 57.9873C527.566 57.4292 525.827 57.0755 524.087 57.1551C518.56 57.4066 513.956 62.1788 512.599 67.5421C509.867 78.3419 517.968 84.6885 520.149 94.1924C520.853 97.2595 519.812 100.422 520.717 103.463C522.204 108.459 526.821 111.567 530.222 115.189C544.272 130.152 538.659 157.757 536.577 176.268C535.524 185.631 532.51 193.552 530.146 202.982C530.648 202.987 530.842 202.844 531.075 202.399C533.426 197.899 533.957 192.941 536.945 188.212ZM373.77 166.455C374.058 167.153 374.449 167.91 375.175 168.088C381.229 169.578 384.005 141.776 384.18 138.12C384.272 136.188 384.272 134.221 384.838 132.372C385.392 130.559 386.463 128.955 387.519 127.38C393.2 118.909 399.397 110.79 406.129 103.126C416.061 91.8195 424.52 81.013 440.019 77.5286C449.794 75.3319 459.94 75.7033 469.952 76.0868C473.424 76.2198 476.957 76.364 480.236 77.5137C485.344 79.3046 486.869 84.3724 491.048 86.5584C495.911 89.0987 500.7 85.9964 505.566 86.7841C510.087 87.516 511.814 89.7507 515.428 92.8159C521.776 98.2002 528.636 103.624 537.212 99.362C544.858 95.5637 547.612 88.0695 544.899 80.5567C538.451 62.7039 519.721 50.2448 504.809 40.0413C497.444 35.0024 489.847 29.8586 481.142 27.8936C474.914 26.4874 468.461 26.8023 462.183 27.6788C456.293 28.5003 450.341 29.0737 444.469 30.1004C432.071 32.27 419.977 36.4626 409.155 42.9304C394.531 51.6705 382.291 64.6811 375.537 80.3218C372.82 86.6158 368.276 91.4253 365.37 97.6653C366.071 97.9968 366.896 98.0569 367.638 97.8326C367.993 98.5285 366.765 101.204 366.733 102.063C366.671 103.763 367.332 106.294 367.332 108.252C367.334 113.317 367.065 118.38 367.145 123.445C367.375 137.949 369.741 152.436 373.735 166.37C373.743 166.399 373.758 166.427 373.77 166.455Z" fill="#7B3D2D"/>
<path d="M457.074 77.8329C448.501 83.8499 438.968 88.5007 428.941 91.5289C447.185 99.2156 467.271 98.3739 485.699 91.9771C480.731 93.6439 475.817 96.249 470.758 97.9509C484.195 98.8055 498.012 94.8224 509.376 87.6447C505.569 92.7137 500.752 97.0214 495.29 100.24C501.52 99.1489 507.507 96.6972 512.712 93.1071C509.675 96.5879 506.046 99.5497 502.029 101.829C511.259 98.9853 519.856 94.1004 527.022 87.625C523.812 90.5258 523.147 99.0549 524.389 102.867C525.256 105.532 526.917 107.858 528.618 110.085C531.929 114.42 535.491 118.564 539.279 122.492C539.908 120.845 540.79 119.295 541.887 117.915C542.844 121.687 543.801 125.459 544.758 129.231C545.082 127.711 545.406 126.191 545.729 124.672C545.897 131.094 548.822 139.963 554.362 143.852C557.596 146.123 561.663 145.883 565.246 144.753C567.212 144.132 569.099 143.105 570.426 141.527C568.003 144.408 563.126 144.521 562.114 140.632C560.886 135.922 562.508 131.137 564.339 126.835C568.851 116.235 572.426 110.348 570.436 98.1602C566.248 72.5009 545.608 49.9998 529.966 29.6673C522.656 20.1669 511.692 14.9581 500.175 12.5434C487.533 9.89286 473.316 8.9034 460.491 10.1722C454.524 10.7621 448.83 13.2485 442.829 12.4953C444.164 12.6633 446.671 14.7454 446.828 15.974C439.788 16.1733 430.493 18.5593 420.892 21.9769C411.23 25.4166 403.098 30.454 395.02 36.5482C387.051 42.5594 380.341 49.7649 370.092 51.7386C370.999 53.6063 373.688 53.4743 375.682 52.8937C378.328 52.1227 380.893 51.0664 383.314 49.7488C374.671 54.4503 368.666 74.6156 356.349 64.8006C358.197 68.5477 358.77 72.8544 361.211 76.3698C363.285 79.3583 366.597 81.6863 370.234 81.762C366.164 81.6773 364.029 85.5342 358.718 83.4104C360.595 88.6639 364.79 94.2424 370.194 96.2395C372.663 97.1508 375.338 97.3095 377.969 97.3981C409.834 98.4773 436.474 82.3058 465.473 71.227C462.797 73.5804 459.991 75.7857 457.074 77.8329Z" fill="#7B3D2D"/>
<path d="M562.832 143.682C558.295 135.461 562.812 126.546 566.165 118.877C571.037 107.213 570.676 93.4736 565.064 82.1324C559.538 70.5006 551.56 60.2858 545.195 49.0845C550.119 56.1413 555.462 62.8687 560.214 70.0879C564.955 77.3293 569.506 85.0715 570.89 93.7662C572.307 102.427 571.285 111.528 567.591 119.491C563.99 127.111 559.139 135.206 562.832 143.682ZM569.964 141.96C566.418 144.992 560.92 143.673 557.746 140.658C551.523 134.046 552.289 123.393 554.016 115.132C555.465 108.712 557.702 102.652 558.709 96.2059C560.582 81.2379 555.812 65.8468 546.977 53.6691C556.085 63.892 561.08 77.7811 561.073 91.5008C560.906 99.7682 557.771 107.671 555.856 115.556C554.089 123.284 552.992 133.499 558.44 139.974C561.23 143.019 566.339 144.521 569.964 141.96ZM442.252 11.6804C446.776 13.1676 451.438 11.9114 455.931 10.92C460.522 9.91794 465.204 9.52689 469.883 9.26977C491.923 8.51149 520.954 12.283 532.4 33.8021C534.5 38.0199 535.87 42.6245 536.021 47.297C534.848 38.017 529.741 29.6098 522.551 24.0202C507.689 12.8512 487.999 10.86 469.933 10.8232C465.319 10.9394 460.666 11.1247 456.11 11.8781C451.58 12.5698 446.638 13.5992 442.252 11.6804ZM443.789 12.4808C449.614 14.4488 455.24 13.7947 461.185 13.3025C472.046 12.7821 479.363 22.8997 482.445 32.1338C478.473 25.6965 474.038 18.6673 466.656 16.0877C463.188 14.7325 459.343 15.3081 455.332 15.3352C451.293 15.3659 447.251 14.3963 443.789 12.4808ZM356.534 64.1655C356.74 67.0251 360.179 67.3743 362.436 67.0423C370.279 65.6583 373.841 57.9425 378.948 52.5333C398.946 30.4686 431.795 13.8674 461.21 26.1881C451.559 23.1027 441.285 22.3571 431.435 24.1601C416.578 26.7991 402.98 34.183 391.229 43.4765C387.283 46.5808 383.564 49.9685 380.089 53.5894C376.587 57.1236 373.8 61.5053 369.623 64.6633C366.543 66.9084 362.424 68.4512 358.664 67.1034C357.432 66.6711 356.487 65.4913 356.534 64.1655ZM368.086 49.5069C369.822 57.0038 390.449 38.9519 394.016 36.9296C402.535 30.8385 411.461 25.1146 421.242 21.0233C435.747 14.7504 453.159 13.4384 467.499 20.8554C472.177 23.3203 476.447 26.5565 479.887 30.5128C476.121 26.8737 471.798 23.8607 467.072 21.7381C452.796 15.2081 436.169 16.7237 422.006 22.8697C412.429 26.8316 403.567 32.4005 394.899 38.2087C391.175 40.3238 369.654 57.4582 368.086 49.5069ZM525.515 78.8569C523.678 84.5003 523.223 90.4828 521.642 96.1875C518.254 108.298 527.472 112.121 537.602 114.356C526.16 114.296 515.853 108.716 519.817 95.7057C521.645 90.0532 522.52 84.0858 525.515 78.8569ZM531.361 111.799C533.727 116.214 536.781 120.234 540.407 123.664L539.367 124.176C538.62 119.466 539.736 114.484 542.422 110.524L543.963 108.255L544.047 111.021C544.148 114.337 545.231 117.622 547.114 120.332L545.463 120.395L546.551 118.519L548.258 119.518C546.213 123.163 547.533 127.603 548.128 131.571C549.92 143.048 563.122 150.224 571.43 139.938C564.902 150.043 552.032 146.324 547.63 136.225C546.777 134.44 546.309 132.424 545.997 130.473C545.285 126.612 544.366 122.217 546.551 118.519L548.258 119.518C547.797 120.302 546.825 121.94 546.372 122.709L545.503 121.448C543.402 118.401 542.259 114.73 542.263 111.045L543.887 111.542C540.921 115.615 539.996 120.865 540.752 125.806C536.756 121.804 533.45 117.052 531.361 111.799ZM471.575 97.7303C492.64 96.3377 512.462 87.3531 527.879 73.0124C514.469 89.459 492.81 99.2219 471.575 97.7303ZM429.815 91.3821C458.521 103.637 500.547 95.0741 509.724 61.8535C511.7 54.7055 511.661 47.0079 509.358 39.9262C511.298 44.5334 512.136 49.611 511.981 54.656C509.636 94.4696 461.146 107.767 429.815 91.3821ZM426.859 91.8748C440.34 90.2234 450.785 80.7099 460.913 72.5034C470.936 64.0277 479.937 53.332 481.881 39.9255C481.565 53.6784 472.319 65.4922 462.213 74.0222C451.988 82.2683 440.674 91.8114 426.859 91.8748ZM356.285 82.1469C363.991 90.8921 389.19 67.5367 395.892 62.1717C399.966 58.8077 404.175 55.5581 408.609 52.6292C421.77 43.8491 437.713 37.7974 453.762 39.6238C459.04 40.2506 464.239 41.6619 468.948 44.0514C459.16 40.0078 448.292 39.6588 438.136 41.7611C427.918 43.9077 418.381 48.5398 409.709 54.2981C396.524 62.7621 385.515 74.9913 371.088 81.7368C366.727 83.6649 359.958 86.7688 356.285 82.1469ZM370.316 96.9982C389.332 92.8167 406.657 82.205 419.422 67.5838C413.883 81.4409 403.784 92.5795 390.156 98.827C386.212 100.637 382.055 102.02 377.774 102.808L377.335 100.875C401.298 94.5555 425.389 88.2205 448.145 78.268C455.734 74.9936 463.115 71.2343 470.26 67.0417C442.362 85.3316 409.725 94.1945 377.845 102.791L377.406 100.859C393.942 97.7628 408.642 86.4502 415.963 71.3097L417.252 72.1996C404.629 85.0316 388.047 93.9127 370.316 96.9982Z" fill="#5B2924"/>
<path d="M470.371 240.285C470.65 241.037 461.349 242.618 451.025 245.676C440.7 248.735 433.072 252.105 432.096 251.534C431.119 250.964 437.63 246.558 448.745 243.292C459.86 240.026 470.185 239.585 470.371 240.285Z" fill="#263238"/>
<defs>
<radialGradient id="paint0_radial_87_322" cx="0" cy="0" r="1" gradientUnits="userSpaceOnUse" gradientTransform="translate(503.856 201.721) rotate(-5.57907) scale(21.7525)">
<stop stop-color="white"/>
<stop offset="0.56" stop-color="white" stop-opacity="0.5"/>
<stop offset="1" stop-color="white" stop-opacity="0"/>
</radialGradient>
<radialGradient id="paint1_radial_87_322" cx="0" cy="0" r="1" gradientUnits="userSpaceOnUse" gradientTransform="translate(503.856 201.721) rotate(-5.57907) scale(21.7525)">
<stop stop-color="#E65680"/>
<stop offset="0.77" stop-color="#E65680"/>
<stop offset="1" stop-color="#E65680"/>
</radialGradient>
<radialGradient id="paint2_radial_87_322" cx="0" cy="0" r="1" gradientUnits="userSpaceOnUse" gradientTransform="translate(412.162 184.138) rotate(-5.57907) scale(21.7525)">
<stop stop-color="white"/>
<stop offset="0.56" stop-color="white" stop-opacity="0.5"/>
<stop offset="1" stop-color="white" stop-opacity="0"/>
</radialGradient>
<radialGradient id="paint3_radial_87_322" cx="0" cy="0" r="1" gradientUnits="userSpaceOnUse" gradientTransform="translate(412.162 184.138) rotate(-5.57907) scale(21.7525)">
<stop stop-color="#E65680"/>
<stop offset="0.77" stop-color="#E65680"/>
<stop offset="1" stop-color="#E65680"/>
</radialGradient>
</defs>
</svg>
