<svg width="1500" height="1500" viewBox="0 0 1500 1500" fill="none" xmlns="http://www.w3.org/2000/svg">
<g clip-path="url(#clip0_2_2)">
<mask id="mask0_2_2" style="mask-type:luminance" maskUnits="userSpaceOnUse" x="0" y="0" width="1500" height="1500">
<path d="M1500 0H0V1500H1500V0Z" fill="white"/>
</mask>
<g mask="url(#mask0_2_2)">
<mask id="mask1_2_2" style="mask-type:luminance" maskUnits="userSpaceOnUse" x="0" y="0" width="1500" height="1500">
<path d="M0 0H1500V1500H0V0Z" fill="white"/>
</mask>
<g mask="url(#mask1_2_2)">
<mask id="mask2_2_2" style="mask-type:luminance" maskUnits="userSpaceOnUse" x="0" y="0" width="1500" height="1500">
<path d="M0 0H1500V1500H0V0Z" fill="white"/>
</mask>
<g mask="url(#mask2_2_2)">
<path d="M1362.67 731.314C1362.67 1070.52 1087.69 1345.5 748.488 1345.5C409.282 1345.5 134.301 1070.52 134.301 731.314C134.301 392.108 409.282 117.127 748.488 117.127C1087.69 117.127 1362.67 392.108 1362.67 731.314Z" fill="#F7F1E5"/>
</g>
<path d="M720.152 491.211L589.94 946.952L1273.55 1003.62L1372.42 463.481L720.152 491.211Z" fill="#E0E5E5"/>
<path d="M720.152 491.211L589.94 946.952L1273.55 1003.62L1372.42 463.481L720.152 491.211Z" stroke="#B8C2BD" stroke-width="3.85259" stroke-miterlimit="30"/>
<path d="M1226.57 947.056L651.412 898.67L755.384 540.155L1307.24 521.005L1226.57 947.056Z" fill="#F1F3F1"/>
<path d="M650.141 898.563L1227.66 947.148M672.306 822.193L1245 855.476M693.895 747.806L1261.8 766.63M714.93 675.327L1278.1 680.482M735.434 604.682L1293.91 596.912" stroke="#B8C2BD" stroke-width="1.43605" stroke-miterlimit="10"/>
<g style="mix-blend-mode:multiply" opacity="0.7">
<path d="M1012 928.454L821.236 912.929L820.921 912.753L1010.86 928.145L1012 928.454Z" fill="#493628"/>
</g>
<g style="mix-blend-mode:multiply" opacity="0.4">
<path d="M821.26 912.812L651.45 898.534L656.824 880.868L826.329 894.218L821.26 912.812Z" fill="#493628"/>
</g>
</g>
<path d="M329.959 1153.81C329.959 1153.81 331.013 1194.74 334.002 1242.1C335.423 1264.61 329.311 1298.02 330.094 1316.56C333.067 1386.91 335.048 1434.47 337.03 1449.33L520.002 1451.31L522.644 1353.55L521.323 1374.03L547.084 1448.34L735.341 1443.39C735.341 1443.39 729.396 1388.89 725.433 1360.16C725.582 1355.35 731.621 1350.67 731.378 1346.28C730.246 1325.96 722.46 1321.51 718.497 1299.72C717.713 1295.41 720.663 1287.08 720.479 1282.87C718.51 1237.99 716.279 1209.9 712.836 1206.46C704.989 1198.61 706.95 1133.87 706.95 1133.87L329.959 1153.81Z" fill="#B9AE96"/>
<g style="mix-blend-mode:multiply" opacity="0.21">
<path d="M558.554 1366.29C554.342 1368.23 549.523 1371.38 549.858 1376C550.145 1379.98 554.116 1382.48 557.565 1384.48C564.785 1388.67 618.328 1430.94 618.157 1446.62C618.124 1446.37 602.75 1446.87 602.737 1446.89C585.235 1433.82 559.458 1397.88 551.527 1393.07C548.235 1391.07 544.008 1389.46 540.668 1391.37C535.681 1394.23 537.12 1401.75 539.568 1406.95C544.476 1417.38 550.809 1427.14 558.335 1435.87C561.903 1440.01 565.749 1443.87 566.872 1447.81C566.999 1447.75 548.249 1448.5 547.97 1448.32C542.444 1432.1 537.668 1417.5 532.142 1401.28C529.379 1393.17 526.616 1385.06 523.853 1376.95C522.597 1373.26 521.395 1370.23 521.503 1366.37C521.623 1362.02 521.307 1357.62 521.21 1353.27C521.189 1352.35 521.174 1351.39 521.529 1350.54C522.182 1348.97 523.881 1348.15 525.456 1347.52C537.473 1342.7 550.907 1343.17 563.563 1340.53C578.901 1337.33 594.529 1335.53 610.192 1335.12C618.739 1334.9 665.117 1333.26 665.476 1343.25C629.438 1352.38 593.354 1350.2 558.554 1366.29Z" fill="#B9AE96"/>
</g>
<g style="mix-blend-mode:multiply" opacity="0.21">
<path d="M374.803 1349.4C380.982 1376.41 390.049 1403.53 407.586 1424.99C414.013 1432.86 421.825 1440.53 424.154 1450.24C424 1450.25 337.25 1449.13 337.091 1449.41C336.625 1444.5 334.032 1409.28 333.58 1395.59C332.5 1354.75 326.5 1314.25 333.258 1271.53C336.21 1243.86 331.598 1210.51 328.112 1182.8C359.021 1192.76 363.852 1218.71 363.611 1245.98C363.304 1280.73 367.054 1315.52 374.803 1349.4Z" fill="#B9AE96"/>
</g>
<path d="M706.583 1336.43C714.621 1340.05 722.659 1343.68 730.698 1347.3C734.171 1338.66 728.936 1328.44 721.107 1323.41C713.277 1318.37 703.58 1317.37 694.279 1316.99C662.227 1315.7 629.953 1317.59 598.479 1323.96C590.735 1325.53 558.542 1334.2 538.057 1342.98C531.892 1345.62 521.983 1348.27 521.983 1348.49C521.763 1348.71 520.222 1361.92 524.176 1366.42C525.551 1368.09 527.441 1369.23 529.308 1370.32C537.403 1375.02 545.8 1379.19 553.89 1383.9C584.055 1401.47 601.719 1416.12 618.604 1446.67" stroke="#9A967E" stroke-width="2" stroke-miterlimit="10"/>
<path d="M521.049 1371.77C530.834 1397.58 537.3 1422.86 547.085 1448.67" stroke="#9A967E" stroke-width="2" stroke-miterlimit="10"/>
<path d="M332.939 1234.47C348.921 1238.89 363.814 1242.35 380.339 1240.97C400.522 1239.28 418.885 1229.08 436.303 1218.74" stroke="#9A967E" stroke-width="2" stroke-miterlimit="10"/>
<path d="M718.485 1296.79C700.999 1292.09 682.101 1292.79 665.013 1298.78" stroke="#9A967E" stroke-width="2" stroke-miterlimit="10"/>
<path d="M520.806 1371.98C532.993 1398.67 548.497 1423.84 566.848 1446.73" stroke="#9A967E" stroke-width="2" stroke-miterlimit="10"/>
<path d="M515.682 1350.35C567.294 1336.09 621.894 1332.74 674.864 1340.58" stroke="#9A967E" stroke-width="2" stroke-miterlimit="10"/>
<path d="M520.002 1449.99L521.567 1348.57C521.567 1348.57 536.186 1344.4 537.522 1343.34C565.561 1321.11 559.618 1272.27 562.385 1240.56C563.016 1233.33 563.523 1225.54 559.751 1219.34C552.707 1219.95 527.912 1218.02 522.998 1222.7C517.601 1227.83 519.548 1253.68 518.922 1261.34C516.719 1288.31 514.726 1315.31 513.395 1342.34C518.68 1342.52 524.007 1340.56 527.912 1337" stroke="#9A967E" stroke-width="2" stroke-miterlimit="10"/>
<g style="mix-blend-mode:multiply" opacity="0.21">
<path d="M329.672 1154.05C329.672 1154.05 333.625 1235.38 333.685 1235.46C406.185 1285.45 666.175 1289.22 715.794 1217.11C715.875 1214.25 714.125 1207.25 711.684 1205.07C706.5 1194.5 706 1133.91 706 1133.91L329.672 1154.05Z" fill="#B9AE96"/>
</g>
<path d="M394.1 677.669C394.266 675.765 394.339 673.815 394.282 671.802C394.052 663.689 391.144 655.721 386.43 649.007C377.924 635.815 363.206 626.97 346.332 626.683C345.818 626.674 345.309 626.688 344.798 626.695C342.722 626.538 340.745 626.583 338.944 626.891C315.456 630.916 301.821 633.844 281.983 666.044C274.052 680.014 261.732 725.958 254.691 763.017C247.648 800.077 247.015 837.247 214.275 877.716C181.533 918.186 190.715 1001.2 191.086 1007.73C190.172 1064.73 232.559 1083.69 257.721 1070.32C277.327 1062.23 289.777 1043.36 302.214 1017.09C316.988 975.202 322.395 948.638 335.297 909.646C341.854 885.551 348.311 862.888 356.116 836.376C368.627 792.924 376.234 771.367 384.935 737.025C388.392 723.38 393.739 685.285 394.1 677.669Z" fill="#493628"/>
<path d="M375.704 772.945C367.138 764.522 336.892 749.36 334.208 734.075C336.512 747.199 332.211 809.389 330.493 824.894C322.219 883.941 304.352 926.414 290.607 947.558C268.234 989.799 236.164 1012.69 210.703 1046.93C205.915 1053.37 207.349 1048 206.339 1055.96C215.795 1072.33 244.001 1079.71 257.524 1070.73C275.715 1060.62 289.296 1044.52 302.361 1016.87C310.816 991.3 320.073 961.679 334.684 909.871C346.592 865.914 362.935 813.471 375.704 772.945Z" fill="#493628"/>
<path d="M201.454 822.994C220.408 823.561 235.609 829.54 235.406 836.35C235.202 843.16 219.671 848.221 200.717 847.655C181.762 847.088 166.561 841.108 166.766 834.299C166.969 827.489 182.499 822.428 201.454 822.994Z" fill="#493628"/>
<path d="M177.439 972.778L174.804 788.975C174.804 788.975 139.958 739.561 138.451 737.981C136.945 736.401 120.094 720.918 120.094 720.918L113.674 691.312C113.674 691.312 101.699 675.588 100.684 673.308C99.6694 671.027 80.2087 605.603 80.2087 605.603C80.2087 605.603 88.0646 599.953 94.9065 601.796C101.357 603.534 109.978 630.499 109.978 630.499L120.155 633.631L118.367 602.395C118.367 602.395 117.214 599.318 120.808 598.791C125.638 598.082 134.115 601.069 135.505 612.503C136.038 616.888 136.583 625.112 137.294 632.061C138.638 645.198 140.025 656.985 141.229 658.003L154.337 674.349C154.337 674.349 160.382 663.249 164.372 680.169C164.581 681.361 170.808 685.904 170.808 685.904C170.874 682.229 171.3 679.22 168.963 673.628C168.963 673.628 165.815 666.191 162.876 659.945C159.937 653.7 155.681 632.935 162 626.91C162.876 626.074 167.931 622.111 175.726 631.571C182.361 639.627 184.541 650.306 186.042 657.111C187.379 668.248 184.595 680.414 193.454 692.382C198.649 699.399 216.545 710.152 220.483 716.838C224.42 723.522 229.039 734.083 228.262 754.194C228.561 754.142 225.002 768.901 226.391 780.335C226.847 784.088 228.39 817.875 234.372 847.547C232.988 853.016 244.544 910.358 268.176 973.916C271.211 1006.14 269.446 1047.74 241.039 1061.92C182.685 1059.01 177.439 972.778 177.439 972.778Z" fill="#D69280"/>
<path d="M176.304 790.026L139.188 738.671L120.095 720.917C120.095 720.917 112.291 689.605 108.967 667.963C108.126 646.804 105.547 632.096 106.272 631.559C109.855 628.906 121.129 631.002 122.921 638.883C123.433 641.135 126.848 657.51 128.233 666.838C131.725 679.747 134.115 695.718 134.115 695.718L140.736 701.932M109.079 630.042C109.079 630.042 107.178 626.214 105.523 621.446C103.458 615.501 101.274 608.076 97.8498 604.558C94.102 600.709 86.6675 600.373 80.8751 605.896L101.221 674.033L113.138 690.587M127.626 665.716L147.192 688.509M206.479 743.877C213.346 749.741 222.668 755.666 225.041 765.6C226.705 772.565 225.106 783.02 220.491 788.745M154.338 674.349L140.423 656.916C140.546 657.187 138.719 646.386 137.445 634.083C136.659 626.509 136.591 617.156 135.808 613.063C134.557 606.52 131.522 596.503 119.306 599.567C118.139 599.925 118.238 602.828 118.966 610.485C119.324 614.245 119.114 617.79 119.37 621.467C119.831 628.085 120.122 633.433 120.122 633.433M154.338 674.349L137.657 706.57L138.452 737.98M154.338 674.349C154.338 674.349 157.982 668.169 160.584 671.41C163.467 675.001 165.684 678.3 163.511 688.106C162.515 692.598 155.07 710.073 155.07 710.073L162.006 737.948L166.065 747.07M188.86 704.148L164.548 681.163" stroke="#BD5F66" stroke-width="1.83287" stroke-linecap="round" stroke-linejoin="round"/>
<path d="M168.277 832.351C167.869 832.833 167.33 833.503 167.287 837.948C167.377 840.763 170.29 857.483 167.307 859.316C161.57 862.842 156.776 872.426 157.173 882.117C159.897 939.244 160.262 1006.86 202.994 1054.91C236.229 1092.29 255.274 1069.96 271.049 1042.65C285.947 1012.08 282.582 971.561 268.182 932.113C263.895 920.371 255.155 873.632 251.712 865.125C248.268 856.618 240.19 856.136 240.19 856.136C238.059 849.608 235.963 842.779 234.441 836.69C232.095 838.306 203.904 848.727 174.249 836.891C172.262 836.293 167.378 834.097 168.277 832.351Z" fill="#493628"/>
<path d="M168.277 832.351C167.869 832.833 167.33 833.503 167.287 837.948C167.377 840.763 170.29 857.483 167.307 859.316C161.57 862.842 156.776 872.426 157.173 882.117C159.897 939.244 160.262 1006.86 202.994 1054.91C236.229 1092.29 255.274 1069.96 271.049 1042.65C285.947 1012.08 282.582 971.561 268.182 932.113C263.895 920.371 255.155 873.632 251.712 865.125C248.268 856.618 240.19 856.136 240.19 856.136C238.059 849.608 235.963 842.779 234.441 836.69C232.095 838.306 203.904 848.727 174.249 836.891C172.262 836.293 167.378 834.097 168.277 832.351Z" stroke="#493628" stroke-width="1.96029" stroke-linejoin="bevel"/>
<path d="M776.999 1079.66C765.941 1082.2 742.091 1080.83 731.49 1057.45C725.435 1043.5 717.94 1022.64 715.533 1007.68C709.715 971.489 713.487 921.037 708.22 884.684C708.22 884.684 679.459 775.463 655.477 711.143C627.693 636.628 733.456 599.242 768.304 697.38C774.972 716.159 778.927 736.189 784.27 755.376C787.323 766.337 789.548 777.896 792.717 788.659C796.155 800.338 799.883 835.529 803.996 847.127C818.014 922.05 822.074 928.404 826.17 979.886C823.371 1013.4 826.595 1066.18 776.999 1079.66Z" fill="#493628"/>
<path d="M736.093 834.145C739.658 872.605 752.866 912.431 770.247 946.836C782.644 971.373 803.493 998.249 819.609 1020.52C825.005 1022.76 815.294 1073.99 776.159 1079.63C765.649 1081.92 728.747 1089.39 715.858 1007.36C711.338 981.405 713.918 935.021 708.502 884.839C700.347 851.902 687.529 814.942 684.81 796.374C684.683 779.283 728.58 751.557 727.638 734.206C727.81 737.366 733.824 809.67 736.093 834.145Z" fill="#493628"/>
<path d="M900.849 877.505C901.436 878.873 901.742 880.157 901.558 881.217C901.393 882.171 900.806 883.007 900.157 883.739C897.505 886.725 893.555 888.461 889.558 888.788C885.766 889.097 881.862 888.264 878.589 886.426C875.487 884.684 872.074 883.585 868.947 881.804C857.057 875.036 847.801 863.213 846.201 849.744C845.93 847.459 845.712 843.352 847.988 841.839C849.715 840.692 853.941 840.911 855.85 841.194C865.379 842.611 873.495 848.119 880.615 854.147C885.44 858.232 890.24 862.449 894.08 867.478C895.688 869.585 899.278 873.842 900.849 877.505Z" fill="#493628"/>
<path d="M881.625 740.541L908.786 693.588C908.786 693.588 912.187 686.935 908.867 661.634C907.075 647.979 904.645 631.373 906.252 627.776C909.876 619.664 913.481 617.682 917.418 617.226C920.763 616.839 921.702 628.335 921.702 628.335C921.702 628.335 922.001 618.521 927.694 612.516C933.389 606.511 941.742 606.587 941.742 606.587L942.033 620.375C942.033 620.375 945.269 616.783 952.588 615.806L957.483 643.837L959.064 653.737C959.064 653.737 965.769 646.332 966.199 650.042C966.606 651.299 972.603 680.594 972.603 680.594C972.603 680.594 979.433 710.313 979.655 708.853C979.878 707.393 969.112 742.8 969.112 742.8C969.112 742.8 948.71 781.67 930.055 811.992C925.496 819.402 918.012 822.396 915.237 833.787C914.187 838.095 910.125 845.288 904.969 855.367C890.328 893.868 888.022 909.22 875.264 943.492C870.727 955.676 863.375 979.981 849.227 999.582C823.58 1035.11 790.504 1071.17 764.687 1039.53C758.722 1029.44 753.945 1014.46 755.238 996.144C756.963 971.714 769.486 941.344 804.391 908.712C827.371 878.199 851.881 844.348 859.166 829.238C863.468 820.315 863.402 815.144 861.98 810.746C859.709 803.72 852.3 795.828 851.379 782.245C850.924 775.525 851.57 761.361 854.769 754.081C857.968 746.8 859.561 732.403 855.092 718.579C854.781 706.88 859.256 697.105 861.274 681.876C864.473 674.596 874.452 679.699 877.664 693.931C880.875 708.162 878.508 715.869 877.416 721.08C876.324 726.291 878.927 738.637 881.625 740.541Z" fill="#D69280"/>
<path d="M876.519 817.709C888.521 823.894 903.286 824.437 915.71 819.151M919.436 693.616C919.436 693.616 951.742 693.353 961.932 736.33M880.844 757.451C880.844 757.451 896.569 788.923 893.844 797.67M956.841 699.108L958.471 688.401M965.231 649.198C965.231 649.198 957.543 652.61 955.545 657.883C955.545 657.883 952.304 662.169 954.458 670.264C956.612 678.359 961.681 702.633 961.681 702.633L955.935 722.073M941.725 692.426L944.306 668.919L942.304 644.117C942.304 644.117 939.067 632.67 938.834 627.655C938.91 619.302 951.047 616.767 951.047 616.767L956.819 640.351L959.064 653.737M941.741 606.587C941.741 606.587 929.142 606.263 924.877 615.972C923.745 618.549 922.529 628.303 923.837 638.518C925.656 652.737 926.896 669.456 926.896 669.456L924.785 687.259M873.638 753.765L909.839 692.553C909.839 692.553 911.18 675.961 909.92 668.466C907.409 653.546 904.109 628.531 909.364 622.375C913.728 617.262 917.417 617.226 917.417 617.226" stroke="#BD5F66" stroke-width="1.99966" stroke-linecap="round" stroke-linejoin="round"/>
<path d="M729.964 1020.2C730.465 1038.52 731.342 1055.15 742.514 1070.52C756.183 1086.93 779.786 1080.47 794.696 1072.25C817.285 1060.73 843.523 1020.97 855.577 998.092C870.981 973.621 873.498 952.125 881.173 943.334C888.847 934.544 899.52 911.587 894.866 898.91C892.327 893.716 898.47 889.484 900.226 881.906C888.023 886.084 854.925 873.905 847.481 843.802C843.36 848.407 837.649 861.52 834.917 860.3C829.644 859.89 824.578 864.46 821.613 869.39C810.641 879.355 802.251 895.035 792.957 906.414C787.311 913.327 777.462 924.561 770.848 930.621C756.588 943.685 733.095 977.849 731.014 999.717C730.038 1007.6 729.808 1014.53 729.964 1020.2Z" fill="#493628"/>
<path d="M729.964 1020.2C730.465 1038.52 731.342 1055.15 742.514 1070.52C756.183 1086.93 779.786 1080.47 794.696 1072.25C817.285 1060.73 843.523 1020.97 855.577 998.092C870.981 973.621 873.498 952.125 881.173 943.334C888.847 934.544 899.52 911.587 894.866 898.91C892.327 893.716 898.47 889.484 900.226 881.906C888.023 886.084 854.925 873.905 847.481 843.802C843.36 848.407 837.649 861.52 834.917 860.3C829.644 859.89 824.578 864.46 821.613 869.39C810.641 879.355 802.251 895.035 792.957 906.414C787.311 913.327 777.462 924.561 770.848 930.621C756.588 943.685 733.095 977.849 731.014 999.717C730.038 1007.6 729.808 1014.53 729.964 1020.2Z" stroke="#493628" stroke-width="2.01986" stroke-linejoin="bevel"/>
<path d="M470.056 514.911L471.546 597.428C471.546 597.428 465.872 595.611 464.276 600.26C462.68 604.909 442.424 622.561 444.712 635.454C447 648.348 482.751 710.592 556.194 694.411C629.639 678.23 642.305 617.279 613.06 603.861C605.176 597.091 595.692 597.689 595.692 597.689C595.692 597.689 595.971 584.175 596.104 563.709C596.237 543.243 608.926 473.624 550.982 472.859C482.369 468.67 470.131 494.766 470.056 514.911Z" fill="#D69280"/>
<path d="M471.09 508.389C469.927 517.539 468.157 527.68 469.688 538.839C471.996 555.593 480.442 573.117 492.264 584.244C508.845 599.85 515.58 616.852 548.521 614.214C562.671 613.08 568.662 604.477 578.891 591.596C601.742 562.824 611.928 526.088 597.456 494.149C589.874 477.414 567.988 469.747 550.613 466.422C529.802 462.438 507.578 467.359 489.948 479.114C477.536 487.39 472.52 497.138 471.09 508.389Z" fill="#C58075"/>
<path d="M714.386 1169.55L720.938 1207.37C720.938 1207.37 707.061 1236.39 626.675 1239.77C546.289 1243.15 496.437 1244.51 482.515 1241.78C473.156 1238.84 584.646 1230.05 714.386 1169.55Z" fill="#493628"/>
<path d="M482.484 1240.03L485.277 1240.36L488.515 1239.89L491.805 1240.74L495.006 1239.6L498.331 1240.76L501.491 1239.21L504.856 1240.62L507.973 1238.72L511.392 1240.52L514.442 1238.14L517.953 1240.53L520.905 1237.48L524.529 1240.54L527.358 1236.73L531.14 1240.64L533.801 1235.9L537.789 1240.83L540.233 1234.98L544.474 1241.04L546.652 1233.97L551.179 1241.15L553.054 1232.87L557.896 1241.12L559.442 1231.68L564.626 1240.96L565.81 1230.4L571.365 1240.65L572.159 1229.01L578.119 1240.22L578.485 1227.53L584.903 1239.73L584.785 1225.95L591.745 1239.27L591.058 1224.25L598.66 1238.84L597.299 1222.45L605.642 1238.4L603.504 1220.53L612.822 1238.3C611.913 1231.67 610.855 1225.07 609.671 1218.48L620.006 1237.88C618.665 1230.41 617.423 1223.72 615.793 1216.31L627.454 1238.05C625.65 1229.85 623.421 1222.33 621.413 1214.19L633.451 1236.72L627.494 1211.87L640.564 1237.06L633.574 1209.55L646.925 1235.71L639.653 1207.24L653.305 1234.63L645.735 1204.93L660.452 1234.49L651.817 1202.62L667.049 1233.47L657.895 1200.3L673.584 1232.19L663.973 1197.98L680.039 1230.57L670.041 1195.63L686.418 1228.56L676.1 1193.26L692.762 1226.19L682.139 1190.85L699.136 1223.49L688.152 1188.36C693.84 1199.07 699.632 1209.72 705.558 1220.3L694.118 1185.77C699.815 1195.88 705.679 1205.89 711.79 1215.75C708.024 1204.78 704.132 1193.84 700.003 1183C705.634 1192.03 711.518 1200.91 717.798 1209.5C714.034 1199.55 710.071 1189.66 705.741 1179.93C709.592 1185.15 713.615 1191.31 719.294 1194.74C717.618 1191.11 715.95 1187.48 714.277 1183.85C713.161 1181.42 711.869 1178.95 711.173 1176.36C712.667 1177.25 713.875 1176.95 714.981 1175.72C714.926 1174.64 715.223 1172.83 715.963 1171.98" stroke="#F7F1E5" stroke-miterlimit="10"/>
<path d="M470.839 596.684C458.413 606.509 471.106 649.107 525.821 653.486C584.986 655.916 602.114 614.777 596.365 598.135L596.025 593.806L616.862 604.426C616.862 604.426 647.805 701.355 527.319 703.201C420.216 704.84 425.454 605.494 471.149 588.025C471.598 588.054 471.363 595.994 470.839 596.684Z" fill="white"/>
<path d="M717.46 1164.69C719.013 1146.06 710.047 1141.78 711.772 1131.55C713.729 1119.93 718.884 1111.63 717.596 1098.97C716.339 1086.62 712.181 1074.77 708.305 1062.97C702.545 1045.43 694.486 1023.82 696.314 1005.03C697.757 990.201 702.317 975.513 703.836 960.248C707.535 923.089 709.867 885.792 710.837 848.462C711.564 820.421 716.549 783.232 719.926 757.945C723.37 732.139 720.836 642.51 706.945 637.579C677.318 627.062 595.945 593.934 595.945 593.934C595.945 593.934 599.05 598.288 599.061 598.45C602.21 602.357 610.603 611.09 612.811 622.511C616.229 640.19 597.344 676.468 543.76 678.892C499.319 680.903 464.135 652.542 459.797 627.934C453.609 595.59 471.511 589.098 471.511 589.098C471.511 589.098 356.379 620.724 338.34 625.258C274.728 642.229 288.121 726.502 335.212 732.772C337.357 790.694 343.467 862.033 341.367 913.147C339.909 948.646 331.158 967.404 329.978 994.243C328.178 1035.18 325.272 1048.98 307.132 1113.17C300.687 1135.98 299.406 1148.09 300.431 1162.8C302.16 1187.59 334.822 1214.47 334.844 1214.49C364.04 1239.08 420.664 1241.54 455.887 1242.27C535.512 1241.02 650.325 1216.98 694.186 1190.42C705.488 1185.43 711.35 1178.28 715.239 1173.32C716.525 1171.68 716.903 1166.17 717.46 1164.69Z" fill="#493628"/>
<path d="M352.194 925.239C353.312 966.804 347.303 1000.27 347.153 1041.82C347.033 1075.09 356.755 1115.16 327.264 1139.8C322.462 1143.81 316.822 1146.97 313.04 1151.96C307.867 1158.77 306.996 1168.1 308.752 1176.47C310.442 1184.53 314.697 1191.5 317.615 1199.02C304.566 1182.04 301.074 1171.14 299.152 1158.02C300.149 1138.08 304.098 1132.55 306.804 1112.59C320.536 1072.89 329.134 1030.3 329.898 994.584C333.02 965.264 340.317 943.696 340.5 914.316C347.113 869.127 330.466 747.779 337.125 727.298C348.754 774.995 349.79 822.416 353.115 872.858C355.07 890.965 352.092 921.434 352.194 925.239Z" fill="#493628"/>
<path d="M459.943 597.116C459.943 597.116 447.141 609.371 448.373 633.32C449.726 659.573 469.555 694.227 529.377 698.25C631.154 699.13 634.981 627.084 609.254 604.405C605.037 600.329 599.213 595.345 596.085 594.362C595.749 595.805 594.302 602.846 597.454 605.173C600.606 607.5 612.811 617.814 608.244 636.924C603.266 659.558 577.166 676.747 529.93 674.831C484.352 672.984 463.752 640.769 464.345 621.062C463.648 601.665 471.824 596.574 471.824 596.574L471.815 588.749C471.815 588.749 465.926 590.471 459.943 597.116Z" fill="#493628"/>
<path d="M459.943 597.116C459.943 597.116 447.141 609.371 448.373 633.32C449.726 659.573 469.555 694.227 529.377 698.25C631.154 699.13 634.981 627.084 609.254 604.405C605.037 600.329 599.213 595.345 596.085 594.362C594.884 596.454 597.404 605.453 597.454 605.173C597.504 604.893 612.811 617.814 608.244 636.924C603.266 659.558 577.166 676.747 529.93 674.831C484.352 672.984 463.752 640.769 464.345 621.062C463.648 601.665 470.831 596.575 470.831 596.575L471.815 588.749C471.815 588.749 465.926 590.471 459.943 597.116Z" stroke="#F7F1E5" stroke-width="2" stroke-miterlimit="10"/>
<path d="M471.24 591.014C470.873 591.42 470.491 591.819 470.096 592.2C469.404 592.865 468.127 593.557 467.238 592.813C466.575 592.259 467.037 591.525 467.724 591.308C468.183 591.164 469.468 590.913 469.875 591.322C470.242 591.692 469.068 593.367 468.869 593.647C468.518 594.143 468.165 594.638 467.818 595.137C467.477 595.629 467.138 596.129 466.852 596.655C466.247 597.766 466.561 599.167 467.654 599.843C468.273 600.225 469.261 600.322 469.567 599.5C469.842 598.761 469.429 597.846 468.803 597.421C467.787 596.729 466.502 597.378 465.795 598.203C465.395 598.67 465.037 599.163 464.732 599.697C464.433 600.219 464.077 600.718 463.686 601.174C462.749 602.267 461.114 602.393 459.893 601.72C459.169 601.322 458.281 600.327 458.995 599.514C459.648 598.771 460.91 598.938 461.669 599.4C462.833 600.111 463.274 601.592 462.776 602.839C462.55 603.406 462.302 603.963 462.062 604.523C461.826 605.073 461.593 605.634 461.438 606.213C461.01 607.813 462.613 609.138 463.926 609.659C464.512 609.891 466.347 610.414 466.516 609.357C466.676 608.361 465.317 607.458 464.568 607.12C463.252 606.524 461.533 606.639 460.67 607.922C460.323 608.437 460.048 608.977 459.852 609.566C459.662 610.137 459.377 610.692 459.042 611.191C458.066 612.648 455.796 612.596 454.318 612.134C453.539 611.89 451.592 610.981 452.241 609.84C452.853 608.763 454.737 609.107 455.655 609.446C457.079 609.973 458.716 611.316 458.475 613.006C458.389 613.612 458.266 614.21 458.153 614.811C458.041 615.399 457.935 616.002 457.93 616.603C457.916 618.509 460.648 619.389 462.123 619.645C462.649 619.735 465.402 620.129 465.349 619.028C465.294 617.917 463.025 617.301 462.219 617.115C460.687 616.761 458.31 616.755 457.519 618.428C457.25 618.994 457.079 619.574 457.02 620.198C456.962 620.798 456.776 621.407 456.525 621.953C455.701 623.741 452.834 623.989 451.162 623.859C450.336 623.794 447.527 623.371 447.92 621.959C448.301 620.593 450.848 620.715 451.869 620.855C453.473 621.073 456.15 621.923 456.376 623.851C456.449 624.462 456.473 625.074 456.507 625.687C456.541 626.285 456.585 626.901 456.741 627.482C457.277 629.48 460.8 629.514 462.361 629.419C463.339 629.358 464.372 629.225 465.282 628.839C465.546 628.727 466.102 628.481 465.999 628.101C465.7 626.993 462.711 627.009 461.905 627.01C460.235 627.013 457.266 627.36 456.752 629.35C456.593 629.962 456.55 630.564 456.643 631.189C456.734 631.787 456.677 632.43 456.535 633.017C456.038 635.072 452.831 635.974 451.074 636.261C450.239 636.399 446.914 636.786 446.921 635.234C446.929 633.702 449.964 633.237 451.004 633.128C452.688 632.953 456.063 632.953 456.848 634.895C457.078 635.467 457.255 636.056 457.44 636.642C457.622 637.214 457.816 637.806 458.121 638.325C459.218 640.198 463.042 639.204 464.597 638.73C465.641 638.411 466.715 638.01 467.623 637.394C467.855 637.237 468.456 636.846 468.275 636.484C468.103 636.143 467.475 636.126 467.158 636.106C465.983 636.036 464.776 636.228 463.638 636.505C461.941 636.917 458.669 637.955 458.563 640.14C458.533 640.775 458.621 641.372 458.863 641.959C459.093 642.52 459.175 643.171 459.152 643.773C459.071 645.982 455.853 647.625 454.141 648.325C453.357 648.645 449.914 649.931 449.524 648.405C449.134 646.882 452.355 645.654 453.326 645.316C454.965 644.743 458.602 643.757 459.887 645.531C460.248 646.031 460.557 646.563 460.871 647.093C461.176 647.611 461.5 648.145 461.917 648.583C463.445 650.195 467.184 648.279 468.639 647.476C469.672 646.906 470.724 646.242 471.546 645.383C471.741 645.178 472.242 644.677 472.004 644.354C471.758 644.02 471.048 644.178 470.721 644.235C469.517 644.444 468.344 644.917 467.254 645.451C465.638 646.241 462.406 648.026 462.728 650.265C462.818 650.898 463.024 651.466 463.383 651.994C463.723 652.495 463.925 653.122 464.013 653.718C464.342 655.955 461.328 658.229 459.751 659.256C458.745 659.911 457.595 660.543 456.389 660.718C455.971 660.778 455.306 660.811 455.081 660.357C454.862 659.914 455.196 659.355 455.444 659.001C456.177 657.959 457.288 657.167 458.371 656.525C459.884 655.628 463.423 653.778 465.074 655.301C465.528 655.719 465.932 656.183 466.339 656.646C466.737 657.097 467.152 657.564 467.642 657.917C469.518 659.277 472.829 656.573 474.171 655.511C475.111 654.768 476.15 653.967 476.821 652.962C476.986 652.715 477.403 652.113 477.11 651.82C476.808 651.518 476.113 651.796 475.792 651.911C474.61 652.336 473.508 653.034 472.5 653.774C470.95 654.912 468.138 657.188 468.731 659.441C468.853 659.901 468.963 660.267 469.31 660.609C469.68 660.974 469.92 661.574 470.067 662.062C470.734 664.253 468.039 667.03 466.625 668.31C465.714 669.135 464.655 669.958 463.468 670.336C463.058 670.467 462.392 670.612 462.089 670.191C461.796 669.783 462.05 669.168 462.244 668.776C462.822 667.608 463.819 666.632 464.811 665.811C466.182 664.676 469.464 662.213 471.365 663.459C471.884 663.798 472.359 664.192 472.837 664.585C473.303 664.967 473.791 665.36 474.334 665.626C474.984 665.944 475.804 665.669 476.416 665.394C478.013 664.677 479.376 663.41 480.529 662.118C481.357 661.192 482.17 660.172 482.7 659.042C482.821 658.784 483.164 658.106 482.828 657.87C482.484 657.626 481.834 658.042 481.546 658.208C480.435 658.85 479.446 659.734 478.552 660.647C477.26 661.969 474.617 664.865 475.66 666.948C475.949 667.522 476.327 667.993 476.844 668.373C477.334 668.733 477.73 669.268 478.002 669.808C479.044 671.876 476.812 675.141 475.635 676.666C474.869 677.657 473.959 678.673 472.842 679.276C472.465 679.48 471.825 679.761 471.451 679.399C471.089 679.05 471.243 678.387 471.367 677.97C471.746 676.696 472.569 675.54 473.416 674.536C474.569 673.166 477.41 670.061 479.527 670.951C480.099 671.191 480.637 671.495 481.177 671.798C481.703 672.091 482.253 672.392 482.836 672.559C483.537 672.759 484.305 672.333 484.864 671.953C486.335 670.951 487.48 669.448 488.414 667.956C489.085 666.885 489.726 665.722 490.065 664.498C490.141 664.218 490.369 663.477 489.993 663.297C489.607 663.11 489.028 663.641 488.769 663.857C487.768 664.696 486.934 665.757 486.199 666.829C485.142 668.37 482.984 671.735 484.368 673.636C484.747 674.156 485.198 674.559 485.771 674.847C486.315 675.12 486.793 675.585 487.147 676.076C488.516 677.97 486.786 681.602 485.862 683.307C485.256 684.424 484.514 685.588 483.503 686.385C483.172 686.648 482.582 687.051 482.155 686.756C481.741 686.471 481.799 685.781 481.857 685.355C482.036 684.019 482.671 682.73 483.349 681.583C484.264 680.036 486.585 676.42 488.837 676.955C489.441 677.099 490.021 677.312 490.602 677.525C491.169 677.731 491.76 677.942 492.362 678.015C493.09 678.102 493.789 677.553 494.284 677.089C495.597 675.858 496.514 674.184 497.222 672.549C497.731 671.375 498.197 670.114 498.345 668.835C498.379 668.538 498.488 667.764 498.083 667.637C497.666 667.505 497.168 668.124 496.941 668.381C496.068 669.373 495.4 670.566 494.833 671.754C494.022 673.454 492.383 677.158 494.041 678.847C494.492 679.307 494.998 679.638 495.608 679.838C496.187 680.028 496.727 680.421 497.147 680.857C498.776 682.551 497.546 686.424 496.866 688.249C496.419 689.452 495.846 690.717 494.96 691.666C494.676 691.971 494.151 692.472 493.688 692.244C493.216 692.011 493.202 691.254 493.21 690.813C493.232 689.481 493.663 688.142 494.162 686.921C494.846 685.254 496.625 681.278 498.945 681.485C499.562 681.541 500.166 681.672 500.771 681.801C501.361 681.927 501.977 682.056 502.583 682.046C503.318 682.032 503.939 681.391 504.371 680.863C505.515 679.46 506.212 677.672 506.703 675.948C507.057 674.71 507.355 673.388 507.329 672.091C507.322 671.784 507.326 671 506.899 670.922C506.463 670.843 506.044 671.521 505.851 671.811C505.109 672.916 504.605 674.199 504.2 675.46C503.624 677.264 502.488 681.182 504.359 682.649C504.866 683.046 505.408 683.31 506.041 683.43C506.639 683.544 507.224 683.867 507.694 684.247C509.525 685.73 508.762 689.744 508.31 691.639C508.01 692.892 507.595 694.22 506.837 695.281C506.599 695.614 506.144 696.188 505.66 696.022C505.166 695.852 505.066 695.098 505.021 694.665C504.884 693.335 505.146 691.949 505.489 690.669C505.956 688.93 507.221 684.729 509.555 684.649C510.176 684.628 510.791 684.684 511.407 684.74C512.009 684.796 512.634 684.849 513.236 684.768C513.966 684.67 514.509 683.96 514.877 683.386C515.855 681.86 516.348 680.003 516.641 678.233C516.852 676.96 516.998 675.608 516.818 674.322C516.774 674.009 516.682 673.234 516.244 673.201C515.796 673.169 515.454 673.888 515.292 674.201C514.678 675.384 514.326 676.722 514.073 678.024C513.71 679.887 513.044 683.92 515.07 685.164C515.618 685.501 516.188 685.703 516.83 685.752C517.436 685.798 518.055 686.054 518.563 686.381C520.544 687.654 520.208 691.726 519.961 693.655C519.796 694.933 519.528 696.295 518.892 697.433C518.694 697.786 518.309 698.412 517.813 698.302C517.309 698.189 517.133 697.447 517.044 697.027C516.766 695.72 516.876 694.316 517.077 693.007C517.35 691.229 518.141 686.907 520.456 686.579C521.071 686.492 521.687 686.483 522.306 686.475C522.91 686.467 523.538 686.456 524.129 686.313C524.843 686.142 525.313 685.383 525.621 684.776C526.44 683.166 526.745 681.275 526.86 679.49C526.941 678.206 526.949 676.848 526.636 675.591C526.558 675.279 526.383 674.522 525.941 674.532C525.488 674.542 525.217 675.285 525.086 675.615C524.591 676.85 524.379 678.215 524.262 679.533C524.094 681.424 523.855 685.49 525.993 686.52C526.574 686.801 527.161 686.943 527.804 686.929C528.412 686.915 529.053 687.109 529.59 687.383C531.68 688.45 531.739 692.51 531.676 694.445C531.635 695.727 531.498 697.1 530.98 698.289C530.819 698.657 530.498 699.316 529.998 699.257C529.49 699.197 529.245 698.479 529.117 698.074C528.717 696.807 528.689 695.407 528.761 694.092C528.858 692.3 529.224 687.942 531.493 687.397C532.096 687.253 532.71 687.186 533.325 687.119C533.925 687.055 534.55 686.986 535.123 686.792C535.818 686.556 536.216 685.766 536.47 685.136C537.137 683.474 537.271 681.58 537.221 679.807C537.185 678.531 537.067 677.188 536.637 675.976C536.528 675.667 536.282 674.942 535.84 674.989C535.389 675.036 535.184 675.79 535.082 676.132C534.701 677.396 534.617 678.766 534.624 680.077C534.634 681.969 534.783 686.005 537.001 686.824C537.604 687.048 538.203 687.136 538.841 687.064C539.445 686.995 540.1 687.129 540.661 687.351C542.827 688.212 543.25 692.199 543.359 694.117C543.431 695.384 543.414 696.748 543.006 697.965C542.879 698.344 542.619 699.021 542.12 699.01C541.612 698.999 541.306 698.316 541.144 697.929C540.634 696.717 540.482 695.34 540.435 694.038C540.372 692.253 540.353 687.931 542.557 687.196C543.145 687 543.75 686.879 544.358 686.761C544.95 686.644 545.565 686.522 546.121 686.281C546.788 685.991 547.12 685.183 547.32 684.538C547.843 682.852 547.817 680.979 547.616 679.243C547.471 677.992 547.238 676.682 546.705 675.53C546.567 675.231 546.259 674.545 545.822 674.625C545.379 674.707 545.235 675.462 545.161 675.81C544.888 677.082 544.923 678.437 545.043 679.725C545.218 681.597 545.727 685.54 547.994 686.15C548.615 686.316 549.218 686.351 549.848 686.225C550.443 686.105 551.105 686.178 551.685 686.348C553.897 686.998 554.664 690.852 554.935 692.734C555.111 693.969 555.207 695.309 554.905 696.533C554.809 696.921 554.607 697.604 554.112 697.64C553.611 697.675 553.248 697.038 553.052 696.67C552.445 695.529 552.177 694.192 552.023 692.921C551.806 691.158 551.44 686.936 553.56 686.031C554.13 685.787 554.722 685.618 555.317 685.448C555.898 685.282 556.499 685.11 557.035 684.825C559.026 683.763 558.288 679.505 557.945 677.827C557.698 676.617 557.357 675.357 556.734 674.281C556.567 673.994 556.204 673.356 555.779 673.469C555.346 673.585 555.261 674.328 555.215 674.68C555.048 675.944 555.195 677.266 555.42 678.513C555.752 680.346 556.599 684.14 558.889 684.534C559.521 684.642 560.126 684.621 560.741 684.443C561.324 684.273 561.987 684.285 562.579 684.399C564.811 684.827 565.911 688.491 566.338 690.319C566.617 691.507 566.818 692.805 566.619 694.022C566.553 694.418 566.407 695.094 565.921 695.176C565.431 695.258 565.014 694.679 564.786 694.332C564.09 693.279 563.713 691.997 563.454 690.774C563.09 689.051 562.404 684.983 564.421 683.92C564.968 683.632 565.545 683.412 566.122 683.192C566.686 682.979 567.27 682.755 567.78 682.428C569.653 681.226 568.593 677.168 568.106 675.55C567.76 674.398 567.314 673.204 566.608 672.22C566.415 671.951 566.003 671.371 565.593 671.517C565.178 671.664 565.152 672.39 565.135 672.74C565.072 673.98 565.327 675.253 565.654 676.444C566.14 678.216 567.316 681.809 569.601 681.97C570.239 682.016 570.838 681.937 571.435 681.704C572 681.484 572.658 681.43 573.26 681.483C575.484 681.676 576.908 685.086 577.497 686.838C577.875 687.961 578.187 689.204 578.091 690.399C578.058 690.803 577.961 691.465 577.49 691.594C577.015 691.724 576.552 691.215 576.287 690.894C575.508 689.947 575.022 688.739 574.663 687.579C574.146 685.91 573.159 682.055 575.048 680.835C575.567 680.5 576.12 680.229 576.674 679.957C577.216 679.691 577.774 679.415 578.252 679.045C579.983 677.702 578.598 673.902 577.96 672.365C577.513 671.289 576.962 670.182 576.18 669.306C575.961 669.062 575.504 668.549 575.119 668.729C574.727 668.909 574.762 669.608 574.776 669.953C574.826 671.155 575.193 672.362 575.62 673.477C576.268 675.166 577.766 678.499 580.018 678.406C580.657 678.38 581.244 678.238 581.812 677.946C582.351 677.67 582.997 677.543 583.599 677.523C585.785 677.453 587.547 680.533 588.313 682.182C588.796 683.221 589.223 684.39 589.237 685.55C589.243 685.961 589.196 686.603 588.745 686.785C588.29 686.967 587.783 686.545 587.479 686.258C586.616 685.441 586.019 684.327 585.556 683.249C584.872 681.659 583.583 678.07 585.308 676.687C585.789 676.301 586.31 675.972 586.83 675.642C587.339 675.318 587.862 674.981 588.298 674.561C589.846 673.066 588.103 669.599 587.293 668.179C586.737 667.202 586.075 666.209 585.221 665.466C584.979 665.256 584.48 664.823 584.129 665.038C583.772 665.255 583.883 665.92 583.934 666.25C584.113 667.398 584.597 668.513 585.132 669.533C585.959 671.108 587.792 674.1 589.972 673.715C590.6 673.604 591.163 673.385 591.688 673.026C592.187 672.684 592.804 672.471 593.397 672.362C595.497 671.979 597.628 674.61 598.604 676.109C599.078 676.837 600.84 679.746 599.552 680.493C598.261 681.241 596.447 678.37 595.978 677.585C595.099 676.113 593.48 672.866 594.979 671.299C595.406 670.852 595.875 670.454 596.341 670.052C596.796 669.659 597.263 669.251 597.631 668.772C598.92 667.094 596.746 664.091 595.728 662.851C595.043 662.016 594.257 661.186 593.333 660.613C593.076 660.454 592.535 660.115 592.238 660.369C591.936 660.627 592.142 661.241 592.242 661.542C592.588 662.602 593.208 663.589 593.869 664.478C594.905 665.875 597.108 668.418 599.144 667.666C599.74 667.446 600.256 667.13 600.71 666.687C601.142 666.263 601.704 665.938 602.263 665.71C604.188 664.929 606.723 666.902 607.964 668.15C608.621 668.81 610.737 671.172 609.592 672.19C608.451 673.205 606.239 670.908 605.606 670.193C604.476 668.914 602.47 666.144 603.61 664.358C603.942 663.838 604.319 663.353 604.689 662.861C605.05 662.381 605.416 661.88 605.667 661.332C606.532 659.441 603.794 657.182 602.527 656.27C601.688 655.665 600.765 655.093 599.778 654.762C599.525 654.677 598.941 654.462 598.735 654.752C598.524 655.049 598.88 655.567 599.033 655.806C599.607 656.705 600.395 657.485 601.206 658.171C602.497 659.263 605.13 661.136 606.861 659.896C607.375 659.526 607.787 659.084 608.103 658.535C608.405 658.011 608.843 657.537 609.305 657.148C610.844 655.85 613.735 656.723 615.299 657.491C616.227 657.946 618.704 659.47 617.898 660.858C617.097 662.242 614.482 660.896 613.594 660.347C612.147 659.451 609.66 657.435 610.173 655.441C610.306 654.924 610.445 654.403 610.618 653.897C610.814 653.329 611.017 652.746 611.112 652.15C611.432 650.161 608.503 648.643 607.048 648.062C606.408 647.807 603.505 646.692 603.079 647.806C602.643 648.944 605.472 650.218 606.15 650.511C607.701 651.181 610.584 652.037 611.887 650.443C612.287 649.954 612.582 649.426 612.774 648.825C612.957 648.25 613.286 647.698 613.66 647.227C614.886 645.685 617.742 646.114 619.34 646.631C620.193 646.908 622.828 647.957 622.332 649.296C621.837 650.633 619.1 649.77 618.252 649.45C616.705 648.868 614.007 647.424 614.229 645.411C614.297 644.8 614.417 644.198 614.529 643.595C614.639 643.005 614.745 642.398 614.74 641.797C614.726 639.827 611.724 638.962 610.229 638.702C609.621 638.597 606.688 638.111 606.492 639.153C606.293 640.215 609.197 640.938 609.826 641.091C611.422 641.476 614.262 641.778 615.173 639.978C615.458 639.416 615.629 638.836 615.683 638.208C615.734 637.607 615.917 636.997 616.155 636.444C616.903 634.709 619.523 634.274 621.168 634.35C622.136 634.394 624.657 634.78 624.539 636.223C624.42 637.674 621.804 637.595 620.854 637.48C619.228 637.283 616.528 636.474 616.249 634.539C616.161 633.932 616.118 633.319 616.061 632.709C616.006 632.112 615.938 631.502 615.768 630.926C615.234 629.113 612.403 629.106 610.943 629.312C610.337 629.397 607.678 629.806 607.755 630.803C607.832 631.808 610.619 631.683 611.21 631.65C612.802 631.56 615.367 630.993 615.637 629.063C615.724 628.442 615.7 627.836 615.558 627.227C615.422 626.64 615.39 626.009 615.423 625.408C615.518 623.64 617.489 622.391 619.007 621.949C619.948 621.675 622.131 621.384 622.508 622.7C622.894 624.044 620.705 624.795 619.785 624.984C618.218 625.306 615.718 625.243 614.9 623.574C614.63 623.024 614.396 622.458 614.15 621.897C613.91 621.348 613.654 620.793 613.323 620.294C612.361 618.844 610.067 619.37 608.793 620.006C608.18 620.312 606.273 621.382 606.612 622.333C606.955 623.293 609.191 622.476 609.745 622.251C611.175 621.669 612.989 620.345 612.601 618.569C612.467 617.96 612.246 617.395 611.929 616.859C611.622 616.341 611.391 615.763 611.217 615.186C610.759 613.681 611.783 612.078 613.018 611.289C613.804 610.786 615.444 610.202 616.142 611.17C616.873 612.182 615.428 613.376 614.665 613.799C613.331 614.541 611.305 614.867 610.185 613.588C609.782 613.129 609.407 612.647 609.023 612.171C608.649 611.702 608.263 611.234 607.829 610.82C606.759 609.798 605.055 610.195 604.038 611.074C603.463 611.571 602.503 612.765 603.003 613.588C603.529 614.452 605.013 613.58 605.537 613.175C606.697 612.282 607.463 610.72 606.688 609.334C606.385 608.794 606.021 608.306 605.597 607.857C605.184 607.42 604.818 606.928 604.49 606.425C603.808 605.375 603.804 603.878 604.74 602.975C605.358 602.378 606.507 602.009 607.247 602.611C608.046 603.26 607.477 604.382 606.865 604.927C605.81 605.867 604.254 605.978 603.149 605.08C602.676 604.696 602.22 604.291 601.762 603.891C601.311 603.496 600.853 603.104 600.369 602.749C599.986 602.467 598.395 601.56 597.951 602.127C597.486 602.724 597.297 604.065 597.472 604.775C597.706 605.724 598.796 605.238 599.232 604.742C600.093 603.764 599.825 602.362 598.995 601.469C598.596 601.041 598.148 600.667 597.696 600.297" stroke="#F7F1E5" stroke-miterlimit="10"/>
<path d="M428.423 484.469C432.882 496.569 441.164 505.686 451.059 514.894C452.161 515.918 455.155 518.202 457.134 518.014C458.605 517.874 459.656 517.847 460.6 516.413C461.063 518.997 462.018 533.663 462.824 537.476C464.279 544.358 465.458 550.123 470.547 555.045C482.362 566.469 493.696 575.9 507.562 584.777C511.141 587.07 513.499 589.288 519.08 591.186C527.793 594.149 544.543 595.756 553.535 593.516C560.462 591.791 566.951 586.659 572.57 582.605C579.298 577.752 584.934 571.103 590.55 565.056C598.392 556.614 605.745 548.149 608.089 535.57C609.38 528.638 610.13 520.115 610.724 513.156C610.656 513.997 614.086 515.068 616.247 513.583C619.829 512.072 620.08 512.311 622.574 508.378C626.334 501.581 627.349 500.822 630.751 494.178C636.108 485.342 645.857 468.139 636.53 455.431C629.386 447.135 617.181 451.964 615.671 459.401C626.54 416.508 629.994 373.5 588.723 346.96C566.753 332.832 525.38 331.997 500.099 339.427C472.605 347.508 453.286 368.607 445.334 396.624C443.69 402.422 442.986 408.459 442.878 414.485C442.613 429.252 446.329 444.29 451.313 458.089C449.073 451.885 441.841 446.946 435.436 450.783C430.486 453.75 428.231 458.742 427.03 464.259C425.6 470.829 426.096 478.157 428.423 484.469Z" fill="#D69280"/>
<path d="M515.663 434.068C516.512 434.147 517.42 434.226 518.17 433.817C518.703 433.527 519.083 433.025 519.447 432.538C521.568 429.697 520.527 427.486 521.145 424.019C515.25 424.352 515.166 424.029 510.139 424.763C500.72 423.95 491.797 425.777 483.724 428.461C475.52 431.19 475.581 433.495 469.062 439.126C485.478 432.21 497.902 432.415 515.663 434.068Z" fill="#7B3D2D"/>
<path d="M551.365 433.707C550.328 431.521 552.54 425.475 554.615 424.587C558.003 423.798 565.769 423.827 573.223 423.698C576.682 423.903 580.174 424.121 583.5 425.089C592.487 427.706 597.965 431.203 601.577 440.58C595.65 431.792 583.173 430.649 567.864 431.346C563.726 431.83 560.155 432.465 555.02 433.544C552.566 433.918 551.548 434.284 551.365 433.707Z" fill="#7B3D2D"/>
<g opacity="0.01">
<path d="M524.801 416.318C525.55 419.588 524.33 413.919 525.079 417.19" stroke="#3D2122" stroke-width="0.99" stroke-miterlimit="10"/>
</g>
<path d="M502.053 454.853C502.592 461.341 500.375 466.822 497.101 467.093C493.828 467.365 490.735 462.326 490.197 455.838C489.657 449.35 491.875 443.869 495.149 443.597C498.423 443.325 501.514 448.365 502.053 454.853Z" fill="#340C10"/>
<path d="M489.074 467.205C493.456 466.759 499.873 465.335 502.222 465.866" stroke="#3D2122" stroke-width="2" stroke-linecap="round" stroke-linejoin="round"/>
<path d="M576.593 453.472C576.212 459.693 573.358 464.578 570.219 464.386C567.081 464.194 564.845 458.995 565.227 452.775C565.608 446.554 568.462 441.669 571.6 441.861C574.739 442.053 576.974 447.252 576.593 453.472Z" fill="#340C10"/>
<path d="M564.073 464.385C568.455 463.938 574.872 462.514 577.221 463.046" stroke="#3D2122" stroke-width="2" stroke-linecap="round" stroke-linejoin="round"/>
<path d="M550.139 447.845C545.327 455 544.775 467.941 548.413 475.748C551.837 483.86 558.831 488.67 554.183 498.398C553.903 498.967 553.013 498.576 553.287 497.974C555.577 494.069 554.527 489.078 551.904 485.608C550.603 483.79 549.08 482.045 547.722 480.078C543.176 474.29 542.213 466.589 542.443 459.506C542.681 454.547 543.455 449.664 545.975 445.167C547.764 442.192 552.113 444.962 550.139 447.845ZM519.218 498.512C519.218 498.512 522.611 496.959 526.539 497.066C531.09 496.971 530.997 499.521 530.997 499.521C530.997 499.521 530.495 501.515 525.89 500.024C524.382 499.251 522.799 498.96 519.218 498.512ZM551.004 497.644C548.515 498.448 543.188 500.396 542.499 500.389C541.81 500.383 541.274 497.428 545.156 496.554C547.504 496.025 553.494 496.841 551.004 497.644Z" fill="#340C10"/>
<path d="M524.896 453.827C525.744 457.697 525.949 463.258 525.785 467.762" stroke="#3D2122" stroke-width="0.99" stroke-linecap="round" stroke-linejoin="round"/>
<path d="M430.73 478.317C429.961 472.364 431.309 457.365 440.057 465.78C441.973 467.622 443.322 469.959 444.645 472.264C446.005 474.632 447.365 477 448.725 479.368C452.204 485.428 447.249 486.677 448.152 492.537C448.521 494.933 450.12 497.144 452.355 498.083C455.686 499.482 457.344 503.962 453.222 505.947" stroke="#BD5F66" stroke-width="1.98" stroke-linecap="round" stroke-linejoin="round"/>
<path d="M633.333 469.37C633.588 467.813 634.303 462.6 631.458 460.699C630.138 459.208 626.587 459.588 622.987 462.641C621.166 464.02 619.874 466.446 618.98 468.503C617.348 472.254 616.081 476.163 615.199 480.157C614.856 481.713 615.101 483.746 615.697 485.288C616.788 486.311 618.041 485.078 618.756 488.014C619.022 491.316 617.451 493.2 616.152 494.787C615.096 496.075 612.221 497.694 613.667 499.353" stroke="#BD5F66" stroke-width="1.98" stroke-linecap="round" stroke-linejoin="round"/>
<g opacity="0.56">
<mask id="mask3_2_2" style="mask-type:luminance" maskUnits="userSpaceOnUse" x="565" y="470" width="39" height="39">
<path d="M602.74 483.503C605.998 493.599 600.455 504.424 590.36 507.682C580.265 510.94 569.441 505.397 566.183 495.302C562.924 485.206 568.465 474.381 578.561 471.123C588.656 467.865 599.482 473.408 602.74 483.503Z" fill="url(#paint0_radial_2_2)"/>
</mask>
<g mask="url(#mask3_2_2)">
<path d="M602.74 483.503C605.998 493.599 600.455 504.424 590.36 507.682C580.265 510.94 569.441 505.397 566.183 495.302C562.924 485.206 568.465 474.381 578.561 471.123C588.656 467.865 599.482 473.408 602.74 483.503Z" fill="url(#paint1_radial_2_2)" fill-opacity="0.56"/>
</g>
</g>
<g opacity="0.56">
<mask id="mask4_2_2" style="mask-type:luminance" maskUnits="userSpaceOnUse" x="467" y="471" width="41" height="40">
<path d="M506.456 484.735C509.802 495.103 504.11 506.221 493.741 509.567C483.373 512.913 472.255 507.221 468.909 496.853C465.563 486.484 471.255 475.366 481.624 472.02C491.992 468.674 503.11 474.366 506.456 484.735Z" fill="url(#paint2_radial_2_2)"/>
</mask>
<g mask="url(#mask4_2_2)">
<path d="M506.456 484.735C509.802 495.103 504.11 506.221 493.741 509.567C483.373 512.913 472.255 507.221 468.909 496.853C465.563 486.484 471.255 475.366 481.624 472.02C491.992 468.674 503.11 474.366 506.456 484.735Z" fill="url(#paint3_radial_2_2)" fill-opacity="0.56"/>
</g>
</g>
<path d="M616.448 464.126C617.422 461.828 616.163 457.936 618.228 455.583C620.274 453.098 625.621 449.83 630.394 451.314C630.343 447.297 630.621 448.93 631.021 444.986C631.39 441.339 629.976 435.92 629.837 432.212C629.377 419.878 630.937 415.658 631.608 403.383C632.245 391.696 630.969 381.305 625.001 370.977C619.515 361.484 610.26 354.181 601.268 348.126C597.038 345.278 592.487 342.669 587.456 341.84C585.736 341.557 583.963 341.489 582.259 341.85C576.846 342.994 573.076 348.45 572.607 353.962C571.662 365.062 580.684 370.011 584.377 379.036C585.568 381.948 585.054 385.237 586.44 388.092C588.717 392.781 593.777 395.099 597.72 398.121C614.01 410.609 612.947 438.76 613.893 457.364C614.372 466.773 613.437 468.626 612.633 478.314C613.129 478.238 613.297 478.065 613.455 477.588C615.652 472.617 615.157 470.098 616.448 464.126ZM451.649 474.072C452.046 474.714 452.554 475.398 453.3 475.456C455.919 474.903 458.241 450.046 457.821 446.411C457.599 444.489 458.281 436.593 458.54 434.677C458.793 432.798 460.6 420.619 461.387 418.894C465.981 407.035 468.496 407.469 476.798 399.887C484.766 387.12 487.876 381.533 502.606 375.582C511.895 371.83 521.967 370.552 531.909 369.307C535.357 368.876 538.866 368.445 542.288 369.048C547.619 369.987 549.945 374.741 554.423 376.221C559.634 377.939 563.857 374.101 568.786 374.09C573.366 374.079 575.432 376.004 579.495 378.443C586.632 382.727 594.281 386.967 602.053 381.371C608.982 376.383 610.484 368.542 606.589 361.568C597.333 344.997 576.831 335.739 560.461 328.088C552.377 324.31 544.046 320.465 535.138 319.938C528.765 319.559 522.447 320.916 516.395 322.799C510.716 324.564 504.935 326.095 499.307 328.06C487.425 332.211 476.171 338.309 466.54 346.445C453.527 357.441 443.558 372.263 439.43 388.792C437.768 395.443 434.064 400.926 432.209 407.554C432.954 407.768 433.777 407.693 434.474 407.352C434.936 407.981 434.158 410.82 434.266 411.672C434.481 413.36 435.543 415.75 435.86 417.683C436.684 422.68 437.239 427.72 438.139 432.705C440.718 446.98 445.4 460.892 451.601 473.994C451.613 474.021 451.632 474.046 451.649 474.072Z" fill="#7B3D2D"/>
<path d="M523.212 374.02C516.255 381.849 508.049 388.57 498.988 393.826C518.512 397.105 537.865 391.661 554.324 381.193C549.874 383.959 545.692 387.626 541.16 390.447C554.433 388.184 566.962 381.127 576.367 371.526C573.83 377.335 570.135 382.636 565.56 387.025C571.371 384.529 576.633 380.765 580.872 376.073C578.718 380.159 575.868 383.877 572.484 387.02C580.811 382.128 588.052 375.395 593.535 367.443C591.079 371.005 592.396 379.458 594.482 382.882C595.939 385.275 598.091 387.157 600.26 388.932C604.48 392.388 608.901 395.601 613.491 398.551C613.724 396.803 614.226 395.092 614.975 393.497C616.774 396.947 618.574 400.397 620.374 403.847C620.34 402.294 620.305 400.74 620.27 399.187C621.911 405.398 626.8 413.355 633.087 415.864C636.757 417.329 640.66 416.16 643.886 414.235C645.656 413.178 647.256 411.744 648.184 409.902C646.489 413.264 641.769 414.497 639.889 410.946C637.61 406.645 638.086 401.615 638.877 397.007C640.827 385.653 642.952 379.101 638.208 367.699C628.224 343.693 602.958 326.549 583.054 310.365C573.754 302.803 561.885 300.259 550.121 300.561C537.209 300.892 523.145 303.203 510.958 307.391C505.287 309.339 500.318 313.069 494.305 313.718C495.643 313.574 498.562 315.023 498.998 316.183C492.193 317.998 483.697 322.46 475.141 327.996C466.53 333.568 459.777 340.343 453.319 348.133C446.948 355.818 442.077 364.375 432.559 368.655C433.871 370.264 436.457 369.516 438.264 368.492C440.662 367.133 442.914 365.514 444.967 363.674C437.639 370.24 436.439 391.246 422.192 384.531C424.853 387.752 426.403 391.811 429.587 394.67C432.294 397.1 436.053 398.603 439.61 397.839C435.63 398.694 434.44 402.939 428.783 402.095C431.819 406.775 437.186 411.238 442.904 411.937C445.517 412.255 448.157 411.794 450.738 411.274C481.995 404.987 504.195 383.116 529.864 365.658C527.801 368.564 525.579 371.356 523.212 374.02Z" fill="#7B3D2D"/>
<path d="M641.29 413.749C634.982 406.793 637.325 397.077 638.822 388.842C640.877 376.37 637.362 363.083 629.29 353.339C621.235 343.292 611.119 335.188 602.346 325.754C608.762 331.487 615.511 336.804 621.797 342.735C628.078 348.69 634.29 355.176 637.638 363.318C641.011 371.421 642.112 380.512 640.351 389.111C638.602 397.356 635.745 406.35 641.29 413.749ZM647.834 410.431C645.081 414.197 639.427 414.18 635.644 411.977C628.067 406.975 626.359 396.432 626.138 387.995C626.069 381.414 626.851 375.002 626.347 368.497C624.723 353.5 616.537 339.621 605.135 329.805C616.352 337.656 624.412 350.022 627.564 363.374C629.305 371.458 628.073 379.871 628.026 387.984C628.086 395.912 629.37 406.105 636.163 411.152C639.578 413.472 644.896 413.758 647.834 410.431ZM493.556 313.058C498.301 313.464 502.549 311.168 506.693 309.168C510.929 307.136 515.395 305.678 519.889 304.35C541.162 298.537 570.282 295.523 586.375 313.828C589.39 317.449 591.784 321.615 593.006 326.127C589.728 317.366 582.822 310.361 574.539 306.577C557.504 299.13 537.885 301.726 520.296 305.85C515.832 307.026 511.347 308.278 507.087 310.06C502.838 311.776 498.266 313.916 493.556 313.058ZM495.236 313.483C501.358 314.057 506.682 312.125 512.353 310.277C522.803 307.27 532.253 315.431 537.379 323.707C532.031 318.358 526.097 312.538 518.319 311.728C514.632 311.208 511.023 312.653 507.126 313.603C503.203 314.563 499.046 314.55 495.236 313.483ZM422.226 383.87C423.085 386.605 426.512 386.153 428.633 385.311C435.946 382.158 437.635 373.829 441.36 367.39C455.74 341.313 483.884 317.594 515.345 322.811C505.243 322.031 495.073 323.671 485.904 327.693C472.053 333.682 460.521 343.999 451.225 355.748C448.1 359.678 445.261 363.831 442.713 368.154C440.119 372.4 438.416 377.306 435.078 381.341C432.598 384.235 428.945 386.684 424.975 386.239C423.677 386.102 422.486 385.171 422.226 383.87ZM430.093 366.945C433.508 373.841 449.425 351.525 452.429 348.736C459.317 340.847 466.685 333.221 475.262 326.988C487.933 317.544 504.575 312.258 520.237 316.173C525.357 317.495 530.257 319.661 534.516 322.719C530.013 320.045 525.113 318.108 520.025 317.131C504.629 314.063 488.798 319.367 476.431 328.609C468.023 334.669 460.682 342.129 453.584 349.777C450.447 352.693 433.449 374.322 430.093 366.945ZM590.049 359.258C589.561 365.173 590.496 371.099 590.271 377.014C589.763 389.58 599.613 391.178 609.986 391.02C598.837 393.596 587.522 390.539 588.384 376.966C588.861 371.044 588.339 365.036 590.049 359.258ZM603.323 389.968C606.643 393.721 610.54 396.929 614.859 399.432L613.964 400.169C612.153 395.758 612.091 390.653 613.794 386.181L614.771 383.618L615.49 386.29C616.352 389.494 618.161 392.441 620.618 394.646L619.026 395.087L619.653 393.01L621.544 393.59C620.393 397.608 622.7 401.624 624.192 405.349C628.579 416.105 643.079 420.048 648.796 408.126C644.769 419.462 631.389 418.807 624.779 409.992C623.539 408.452 622.619 406.598 621.866 404.771C620.284 401.178 618.378 397.112 619.653 393.01L621.544 393.59C621.276 394.458 620.707 396.277 620.443 397.129L619.307 396.102C616.561 393.621 614.604 390.311 613.759 386.725L615.454 386.834C613.506 391.481 613.814 396.803 615.688 401.437C610.878 398.463 606.566 394.6 603.323 389.968ZM541.905 390.044C562.083 383.838 579.303 370.531 591.004 353.026C581.742 372.118 562.912 386.606 541.905 390.044ZM499.805 393.482C530.562 398.798 569.487 380.788 570.767 346.347C571.045 338.936 569.234 331.455 565.363 325.093C568.312 329.13 570.296 333.878 571.307 338.824C578.192 378.107 534.067 402.212 499.805 393.482ZM497.042 394.642C509.781 389.931 517.754 378.268 525.72 367.95C533.523 357.394 539.819 344.913 538.624 331.419C541.483 344.876 535.206 358.501 527.335 369.129C519.284 379.508 510.471 391.399 497.042 394.642ZM426.124 401.426C435.637 408.161 454.781 379.631 460.068 372.867C463.257 368.656 466.605 364.524 470.246 360.653C481.031 349.079 495.152 339.519 511.191 337.6C516.472 336.995 521.856 337.171 526.988 338.412C516.533 336.731 505.876 338.894 496.477 343.278C487.027 347.72 478.813 354.424 471.701 362.024C460.818 373.297 452.921 387.732 440.435 397.618C436.635 400.499 430.762 405.078 426.124 401.426ZM443.198 412.647C460.74 404.2 475.156 389.884 484.212 372.716C482.012 387.476 474.749 400.641 462.926 409.859C459.505 412.528 455.778 414.831 451.793 416.583L450.921 414.804C472.785 403.136 494.77 391.425 514.623 376.5C521.254 371.566 527.571 366.208 533.559 360.483C510.622 384.705 480.903 400.845 451.858 416.55L450.986 414.772C466.366 407.951 478.066 393.558 481.703 377.138L483.162 377.708C473.834 393.101 459.742 405.562 443.198 412.647Z" fill="#5B2924"/>
</g>
<path d="M560.314 530.285C560.6 531.037 551.07 532.618 540.492 535.676C529.914 538.735 522.099 542.105 521.099 541.534C520.098 540.964 526.769 536.558 538.157 533.292C549.545 530.026 560.123 529.585 560.314 530.285Z" fill="#263238"/>
<g style="mix-blend-mode:multiply" opacity="0.5">
<path d="M1222.91 945.579L1015 928.09L1069.39 719L1273.23 723.716L1222.91 945.579Z" fill="#C80909"/>
</g>
<path d="M365.214 446.881L338.444 406.032C355.026 382.754 360.95 354.95 355.051 328.084C349.151 301.218 331.856 277.234 306.564 260.846C281.271 244.459 249.812 236.853 218.37 239.524C186.928 242.195 157.778 254.95 136.649 275.281C115.52 295.612 103.941 322.05 104.189 349.396C104.436 376.742 116.492 403.019 137.985 423.061C159.479 443.103 188.857 455.462 220.343 457.706C251.83 459.951 283.147 451.92 308.14 435.192L365.214 446.881Z" fill="#FAFAFA"/>
<path d="M365.209 446.881L308.015 435.58H307.446L307.806 435.166L308.345 435.658C300.335 441.036 291.621 445.577 282.383 449.188C271.374 453.458 259.718 456.347 247.767 457.768C241.152 458.566 234.468 458.853 227.794 458.623C224.35 458.468 220.847 458.39 217.313 458.131L206.653 456.731C181.998 452.549 159.324 442.147 141.484 426.834C123.644 411.521 111.437 391.982 106.399 370.677C102.756 354.57 103.267 337.966 107.896 322.051C112.628 305.429 121.867 290.022 134.846 277.105L139.997 272.207C141.674 270.548 143.71 269.174 145.537 267.671C147.363 266.167 149.19 264.612 151.286 263.342L157.275 259.428C159.261 258.102 161.353 256.899 163.533 255.825L169.941 252.456L176.649 249.656C178.84 248.671 181.1 247.805 183.416 247.064C201.39 240.914 220.734 238.345 240.011 239.547C258.243 240.622 275.98 245.153 291.965 252.818C320.635 266.676 342.071 289.526 351.854 316.659C355.742 328.206 357.59 340.196 357.334 352.222C356.676 371.412 350.168 390.11 338.469 406.42V406.083L364.91 447.089L338.109 406.213V406.032V405.876C343.278 398.541 347.449 390.713 350.536 382.548C354.195 372.694 356.212 362.439 356.525 352.092C356.736 340.174 354.858 328.297 350.956 316.867C341.194 290.029 319.908 267.456 291.486 253.803C275.667 246.287 258.138 241.864 240.131 240.843C221.103 239.614 201.999 242.094 184.225 248.101C181.92 248.846 179.67 249.712 177.487 250.693L170.87 253.492L164.551 256.81C162.398 257.876 160.327 259.062 158.353 260.361L152.364 264.249C150.328 265.493 148.621 267.1 146.704 268.5C144.788 269.9 142.931 271.429 141.254 272.958L136.164 277.805C123.303 290.557 114.136 305.778 109.423 322.206C104.845 337.925 104.323 354.323 107.896 370.236C111.371 385.288 118.517 399.524 128.857 411.993C147.51 434.507 175.333 450.06 206.713 455.513L217.283 456.912C220.787 457.172 224.261 457.275 227.674 457.431C234.286 457.677 240.911 457.408 247.467 456.627C259.325 455.267 270.899 452.456 281.844 448.281C291.044 444.711 299.735 440.232 307.746 434.932L310.081 433.377L308.285 435.399L308.075 434.88L365.209 446.881Z" fill="#263238"/>
<path d="M208.484 303.034C207.972 302.906 207.439 302.789 206.884 302.682C206.393 302.575 205.828 302.49 205.188 302.426C204.569 302.341 203.919 302.298 203.236 302.298C201.657 302.298 200.527 302.543 199.844 303.034C199.161 303.503 198.82 304.239 198.82 305.242C198.841 306.031 199.129 306.703 199.684 307.258C200.239 307.791 200.932 308.293 201.764 308.762C202.596 309.21 203.503 309.658 204.484 310.106C205.487 310.533 206.404 311.034 207.236 311.61C208.068 312.165 208.761 312.826 209.316 313.594C209.892 314.341 210.18 315.258 210.18 316.346C210.18 317.605 209.903 318.618 209.348 319.386C208.815 320.154 208.132 320.751 207.3 321.178C206.468 321.605 205.551 321.893 204.548 322.042C203.567 322.191 202.628 322.266 201.732 322.266C200.879 322.266 200.1 322.213 199.396 322.106C198.692 321.999 198.084 321.882 197.572 321.754C196.975 321.605 196.431 321.434 195.94 321.242L196.58 318.65C197.071 318.863 197.593 319.045 198.148 319.194C198.639 319.322 199.183 319.439 199.78 319.546C200.399 319.653 201.049 319.706 201.732 319.706C202.564 319.706 203.321 319.653 204.004 319.546C204.708 319.439 205.316 319.269 205.828 319.034C206.34 318.799 206.735 318.49 207.012 318.106C207.311 317.722 207.46 317.253 207.46 316.698C207.439 315.866 207.161 315.194 206.628 314.682C206.116 314.149 205.423 313.647 204.548 313.178C203.695 312.687 202.767 312.218 201.764 311.77C200.783 311.322 199.876 310.81 199.044 310.234C198.212 309.658 197.508 308.975 196.932 308.186C196.377 307.397 196.1 306.415 196.1 305.242C196.1 304.559 196.217 303.887 196.452 303.226C196.687 302.565 197.081 301.978 197.636 301.466C198.212 300.954 198.948 300.538 199.844 300.218C200.761 299.898 201.892 299.738 203.236 299.738C204.004 299.738 204.729 299.781 205.412 299.866C206.116 299.93 206.724 300.005 207.236 300.09C207.833 300.197 208.399 300.314 208.932 300.442L208.484 303.034ZM215.472 313.882C215.472 315.951 215.93 317.498 216.848 318.522C217.786 319.525 219.045 320.026 220.624 320.026C222.181 320.026 223.397 319.525 224.272 318.522C225.146 317.519 225.584 316.015 225.584 314.01C225.584 311.877 225.114 310.287 224.176 309.242C223.258 308.197 222 307.674 220.4 307.674C218.8 307.674 217.573 308.197 216.72 309.242C215.888 310.266 215.472 311.813 215.472 313.882ZM212.752 313.85C212.752 312.229 213.008 310.885 213.52 309.818C214.032 308.73 214.682 307.866 215.472 307.226C216.261 306.565 217.104 306.106 218 305.85C218.917 305.573 219.781 305.434 220.592 305.434C221.36 305.434 222.192 305.562 223.088 305.818C224.005 306.053 224.848 306.49 225.616 307.13C226.384 307.749 227.024 308.591 227.536 309.658C228.048 310.703 228.304 312.037 228.304 313.658C228.304 315.343 228.037 316.741 227.504 317.85C226.992 318.959 226.341 319.845 225.552 320.506C224.762 321.146 223.909 321.594 222.992 321.85C222.074 322.127 221.221 322.266 220.432 322.266C219.621 322.266 218.768 322.138 217.872 321.882C216.976 321.626 216.144 321.189 215.376 320.57C214.629 319.93 214 319.066 213.488 317.978C212.997 316.89 212.752 315.514 212.752 313.85ZM232.055 308.346C232.055 307.855 232.001 307.087 231.895 306.042L234.263 305.722L234.519 308.058H234.551C234.935 307.567 235.308 307.141 235.671 306.778C236.033 306.415 236.407 306.106 236.791 305.85C237.196 305.573 237.58 305.434 237.943 305.434C238.433 305.413 239.116 305.466 239.991 305.594L239.415 308.058C238.711 307.93 238.22 307.877 237.943 307.898C237.58 307.898 237.196 308.069 236.791 308.41C236.385 308.751 236.033 309.114 235.735 309.498C235.351 309.967 234.977 310.501 234.615 311.098V321.85H232.055V308.346ZM242.836 308.346C242.836 307.855 242.783 307.087 242.676 306.042L245.044 305.722L245.3 308.058H245.332C245.716 307.567 246.089 307.141 246.452 306.778C246.815 306.415 247.188 306.106 247.572 305.85C247.977 305.573 248.361 305.434 248.724 305.434C249.215 305.413 249.897 305.466 250.772 305.594L250.196 308.058C249.492 307.93 249.001 307.877 248.724 307.898C248.361 307.898 247.977 308.069 247.572 308.41C247.167 308.751 246.815 309.114 246.516 309.498C246.132 309.967 245.759 310.501 245.396 311.098V321.85H242.836V308.346ZM251.505 305.754H254.225L257.233 313.018C257.532 313.722 257.799 314.426 258.033 315.13C258.289 315.834 258.513 316.463 258.705 317.018C258.94 317.679 259.143 318.319 259.313 318.938H259.345C259.537 318.319 259.751 317.679 259.985 317.018C260.177 316.463 260.401 315.834 260.657 315.13C260.913 314.426 261.18 313.722 261.457 313.018L264.241 305.754H266.929L259.313 324.954C259.015 325.743 258.62 326.426 258.129 327.002C257.66 327.578 257.201 328.058 256.753 328.442C256.22 328.89 255.665 329.274 255.089 329.594L253.841 327.386C254.289 327.173 254.705 326.906 255.089 326.586C255.431 326.309 255.772 325.957 256.113 325.53C256.455 325.125 256.732 324.634 256.945 324.058L257.937 321.434L251.505 305.754ZM117.63 343.754H120.35L123.358 351.018C123.657 351.722 123.924 352.426 124.158 353.13C124.414 353.834 124.638 354.463 124.83 355.018C125.065 355.679 125.268 356.319 125.438 356.938H125.47C125.662 356.319 125.876 355.679 126.11 355.018C126.302 354.463 126.526 353.834 126.782 353.13C127.038 352.426 127.305 351.722 127.582 351.018L130.366 343.754H133.054L125.438 362.954C125.14 363.743 124.745 364.426 124.254 365.002C123.785 365.578 123.326 366.058 122.878 366.442C122.345 366.89 121.79 367.274 121.214 367.594L119.966 365.386C120.414 365.173 120.83 364.906 121.214 364.586C121.556 364.309 121.897 363.957 122.238 363.53C122.58 363.125 122.857 362.634 123.07 362.058L124.062 359.434L117.63 343.754ZM137.284 351.882C137.284 353.951 137.743 355.498 138.66 356.522C139.599 357.525 140.858 358.026 142.436 358.026C143.994 358.026 145.21 357.525 146.084 356.522C146.959 355.519 147.396 354.015 147.396 352.01C147.396 349.877 146.927 348.287 145.988 347.242C145.071 346.197 143.812 345.674 142.212 345.674C140.612 345.674 139.386 346.197 138.532 347.242C137.7 348.266 137.284 349.813 137.284 351.882ZM134.564 351.85C134.564 350.229 134.82 348.885 135.332 347.818C135.844 346.73 136.495 345.866 137.284 345.226C138.074 344.565 138.916 344.106 139.812 343.85C140.73 343.573 141.594 343.434 142.404 343.434C143.172 343.434 144.004 343.562 144.9 343.818C145.818 344.053 146.66 344.49 147.428 345.13C148.196 345.749 148.836 346.591 149.348 347.658C149.86 348.703 150.116 350.037 150.116 351.658C150.116 353.343 149.85 354.741 149.316 355.85C148.804 356.959 148.154 357.845 147.364 358.506C146.575 359.146 145.722 359.594 144.804 359.85C143.887 360.127 143.034 360.266 142.244 360.266C141.434 360.266 140.58 360.138 139.684 359.882C138.788 359.626 137.956 359.189 137.188 358.57C136.442 357.93 135.812 357.066 135.3 355.978C134.81 354.89 134.564 353.514 134.564 351.85ZM163.467 358.09H163.403C163.211 358.239 162.934 358.442 162.571 358.698C162.209 358.933 161.793 359.167 161.323 359.402C160.854 359.637 160.331 359.839 159.755 360.01C159.201 360.181 158.635 360.266 158.059 360.266C157.27 360.266 156.598 360.159 156.043 359.946C155.489 359.754 155.041 359.423 154.699 358.954C154.358 358.485 154.113 357.866 153.963 357.098C153.814 356.33 153.739 355.37 153.739 354.218V343.754H156.299V353.834C156.299 354.474 156.31 355.05 156.331 355.562C156.353 356.074 156.427 356.511 156.555 356.874C156.683 357.237 156.886 357.525 157.163 357.738C157.462 357.93 157.878 358.026 158.411 358.026C158.966 358.026 159.542 357.909 160.139 357.674C160.737 357.439 161.281 357.173 161.771 356.874C162.347 356.533 162.913 356.149 163.467 355.722V343.754H166.027V357.77C166.049 358.538 166.102 359.231 166.187 359.85L163.659 360.106L163.467 358.09ZM179.368 345.834H176.392V343.754H179.368C179.368 342.261 179.464 341.002 179.656 339.978C179.869 338.933 180.2 338.09 180.648 337.45C181.096 336.789 181.672 336.319 182.376 336.042C183.08 335.743 183.933 335.594 184.936 335.594C185.746 335.594 186.504 335.733 187.208 336.01C187.912 336.266 188.477 336.586 188.904 336.97L187.784 338.89C187.357 338.57 186.909 338.314 186.44 338.122C185.992 337.93 185.501 337.834 184.968 337.834C184.264 337.834 183.709 337.994 183.304 338.314C182.898 338.613 182.589 339.029 182.376 339.562C182.184 340.095 182.056 340.725 181.992 341.45C181.949 342.154 181.928 342.922 181.928 343.754H185.928V345.834H181.928V359.85H179.368V345.834ZM197.639 352.458C197.212 352.479 196.807 352.501 196.423 352.522C196.039 352.543 195.655 352.575 195.271 352.618C194.908 352.639 194.578 352.671 194.279 352.714C192.743 352.906 191.655 353.247 191.015 353.738C190.375 354.207 190.055 354.89 190.055 355.786C190.055 356.533 190.279 357.098 190.727 357.482C191.196 357.845 191.804 358.026 192.551 358.026C193.575 358.026 194.482 357.855 195.271 357.514C196.082 357.151 196.871 356.682 197.639 356.106V352.458ZM197.607 358.346C196.604 358.922 195.666 359.391 194.791 359.754C193.938 360.095 193.01 360.266 192.007 360.266C190.578 360.266 189.436 359.925 188.583 359.242C187.751 358.538 187.335 357.386 187.335 355.786C187.335 354.954 187.548 354.229 187.975 353.61C188.402 352.991 188.956 352.479 189.639 352.074C190.343 351.647 191.132 351.317 192.007 351.082C192.882 350.847 193.778 350.698 194.695 350.634C195.079 350.591 195.58 350.559 196.199 350.538C196.818 350.495 197.298 350.463 197.639 350.442C197.639 349.695 197.618 349.034 197.575 348.458C197.532 347.861 197.404 347.359 197.191 346.954C196.978 346.527 196.658 346.207 196.231 345.994C195.826 345.781 195.239 345.674 194.471 345.674C193.852 345.674 193.255 345.717 192.679 345.802C192.103 345.866 191.591 345.941 191.143 346.026C190.61 346.133 190.119 346.25 189.671 346.378L189.159 344.17C189.692 344.042 190.268 343.925 190.887 343.818C191.42 343.711 192.039 343.626 192.743 343.562C193.447 343.477 194.204 343.434 195.015 343.434C196.103 343.434 196.978 343.594 197.639 343.914C198.322 344.234 198.844 344.671 199.207 345.226C199.591 345.759 199.847 346.378 199.975 347.082C200.124 347.765 200.199 348.49 200.199 349.258V356.938C200.199 357.237 200.199 357.557 200.199 357.898C200.22 358.218 200.242 358.538 200.263 358.858C200.306 359.178 200.348 359.509 200.391 359.85L197.927 360.106L197.607 358.346ZM204.71 343.722L207.27 343.434V359.85H204.71V343.722ZM204.294 339.146C204.294 338.655 204.454 338.25 204.774 337.93C205.116 337.589 205.532 337.418 206.022 337.418C206.534 337.418 206.961 337.589 207.302 337.93C207.665 338.25 207.846 338.655 207.846 339.146C207.846 339.637 207.665 340.053 207.302 340.394C206.961 340.714 206.534 340.874 206.022 340.874C205.532 340.874 205.116 340.714 204.774 340.394C204.454 340.053 204.294 339.637 204.294 339.146ZM211.867 335.882L214.427 335.594V359.85H211.867V335.882ZM230.079 338.954V343.754H234.719V345.834H230.079V354.378C230.079 355.082 230.09 355.669 230.111 356.138C230.154 356.607 230.229 356.981 230.335 357.258C230.442 357.535 230.591 357.738 230.783 357.866C230.975 357.973 231.221 358.026 231.519 358.026C232.33 358.005 233.269 357.706 234.335 357.13L235.103 359.082C234.399 359.551 233.738 359.861 233.119 360.01C232.522 360.181 231.925 360.266 231.327 360.266C229.919 360.266 228.927 359.871 228.351 359.082C227.797 358.271 227.519 356.938 227.519 355.082V345.834H224.575V343.754H227.519V339.274L230.079 338.954ZM237.992 335.882L240.552 335.594V345.77C241.192 345.343 241.821 344.97 242.44 344.65C243.08 344.33 243.73 344.053 244.392 343.818C245.053 343.562 245.693 343.434 246.312 343.434C247.186 343.434 247.912 343.541 248.488 343.754C249.085 343.946 249.565 344.277 249.928 344.746C250.29 345.215 250.546 345.834 250.696 346.602C250.866 347.37 250.952 348.33 250.952 349.482V359.85H248.392V349.77C248.392 349.13 248.381 348.565 248.36 348.074C248.338 347.562 248.242 347.135 248.072 346.794C247.922 346.431 247.677 346.154 247.336 345.962C247.016 345.77 246.557 345.674 245.96 345.674C245.405 345.674 244.808 345.802 244.168 346.058C243.528 346.293 242.92 346.57 242.344 346.89C241.768 347.21 241.17 347.583 240.552 348.01V359.85H237.992V335.882ZM267.364 359.466C266.874 359.615 266.362 359.743 265.828 359.85C265.316 359.957 264.74 360.053 264.1 360.138C263.482 360.223 262.831 360.266 262.148 360.266C261.082 360.266 260.09 360.117 259.172 359.818C258.255 359.519 257.455 359.039 256.772 358.378C256.09 357.717 255.546 356.863 255.14 355.818C254.756 354.751 254.564 353.45 254.564 351.914C254.564 350.527 254.756 349.311 255.14 348.266C255.524 347.199 256.047 346.314 256.708 345.61C257.391 344.885 258.18 344.341 259.076 343.978C259.994 343.615 260.986 343.434 262.052 343.434C263.098 343.434 264.004 343.637 264.772 344.042C265.54 344.447 266.17 345.002 266.66 345.706C267.172 346.389 267.546 347.199 267.78 348.138C268.036 349.055 268.164 350.026 268.164 351.05L267.684 352.458H257.348C257.348 353.119 257.434 353.781 257.604 354.442C257.775 355.103 258.063 355.701 258.468 356.234C258.895 356.767 259.439 357.205 260.1 357.546C260.783 357.866 261.626 358.026 262.628 358.026C263.268 358.026 263.855 357.994 264.388 357.93C264.922 357.845 265.38 357.759 265.764 357.674C266.17 357.567 266.543 357.45 266.884 357.322L267.364 359.466ZM265.508 350.41C265.508 350.261 265.476 349.93 265.412 349.418C265.348 348.906 265.199 348.373 264.964 347.818C264.73 347.263 264.367 346.773 263.876 346.346C263.386 345.898 262.735 345.674 261.924 345.674C261.028 345.674 260.292 345.866 259.716 346.25C259.14 346.613 258.682 347.05 258.34 347.562C257.999 348.074 257.764 348.597 257.636 349.13C257.508 349.663 257.444 350.09 257.444 350.41H265.508ZM290.864 359.466C290.374 359.615 289.862 359.743 289.328 359.85C288.816 359.957 288.24 360.053 287.6 360.138C286.982 360.223 286.331 360.266 285.648 360.266C284.582 360.266 283.59 360.117 282.672 359.818C281.755 359.519 280.955 359.039 280.272 358.378C279.59 357.717 279.046 356.863 278.64 355.818C278.256 354.751 278.064 353.45 278.064 351.914C278.064 350.527 278.256 349.311 278.64 348.266C279.024 347.199 279.547 346.314 280.208 345.61C280.891 344.885 281.68 344.341 282.576 343.978C283.494 343.615 284.486 343.434 285.552 343.434C286.598 343.434 287.504 343.637 288.272 344.042C289.04 344.447 289.67 345.002 290.16 345.706C290.672 346.389 291.046 347.199 291.28 348.138C291.536 349.055 291.664 350.026 291.664 351.05L291.184 352.458H280.848C280.848 353.119 280.934 353.781 281.104 354.442C281.275 355.103 281.563 355.701 281.968 356.234C282.395 356.767 282.939 357.205 283.6 357.546C284.283 357.866 285.126 358.026 286.128 358.026C286.768 358.026 287.355 357.994 287.888 357.93C288.422 357.845 288.88 357.759 289.264 357.674C289.67 357.567 290.043 357.45 290.384 357.322L290.864 359.466ZM289.008 350.41C289.008 350.261 288.976 349.93 288.912 349.418C288.848 348.906 288.699 348.373 288.464 347.818C288.23 347.263 287.867 346.773 287.376 346.346C286.886 345.898 286.235 345.674 285.424 345.674C284.528 345.674 283.792 345.866 283.216 346.25C282.64 346.613 282.182 347.05 281.84 347.562C281.499 348.074 281.264 348.597 281.136 349.13C281.008 349.663 280.944 350.09 280.944 350.41H289.008ZM299.184 351.402L293.232 343.754H296.24L300.944 349.706L305.392 343.754H308.272L302.672 351.306L308.816 359.85H305.808L300.912 353.034L295.952 359.85H293.072L299.184 351.402ZM320.358 352.458C319.931 352.479 319.526 352.501 319.142 352.522C318.758 352.543 318.374 352.575 317.99 352.618C317.627 352.639 317.296 352.671 316.998 352.714C315.462 352.906 314.374 353.247 313.734 353.738C313.094 354.207 312.774 354.89 312.774 355.786C312.774 356.533 312.998 357.098 313.446 357.482C313.915 357.845 314.523 358.026 315.27 358.026C316.294 358.026 317.2 357.855 317.99 357.514C318.8 357.151 319.59 356.682 320.358 356.106V352.458ZM320.326 358.346C319.323 358.922 318.384 359.391 317.51 359.754C316.656 360.095 315.728 360.266 314.726 360.266C313.296 360.266 312.155 359.925 311.302 359.242C310.47 358.538 310.054 357.386 310.054 355.786C310.054 354.954 310.267 354.229 310.694 353.61C311.12 352.991 311.675 352.479 312.358 352.074C313.062 351.647 313.851 351.317 314.726 351.082C315.6 350.847 316.496 350.698 317.414 350.634C317.798 350.591 318.299 350.559 318.918 350.538C319.536 350.495 320.016 350.463 320.358 350.442C320.358 349.695 320.336 349.034 320.294 348.458C320.251 347.861 320.123 347.359 319.91 346.954C319.696 346.527 319.376 346.207 318.95 345.994C318.544 345.781 317.958 345.674 317.19 345.674C316.571 345.674 315.974 345.717 315.398 345.802C314.822 345.866 314.31 345.941 313.862 346.026C313.328 346.133 312.838 346.25 312.39 346.378L311.878 344.17C312.411 344.042 312.987 343.925 313.606 343.818C314.139 343.711 314.758 343.626 315.462 343.562C316.166 343.477 316.923 343.434 317.734 343.434C318.822 343.434 319.696 343.594 320.358 343.914C321.04 344.234 321.563 344.671 321.926 345.226C322.31 345.759 322.566 346.378 322.694 347.082C322.843 347.765 322.918 348.49 322.918 349.258V356.938C322.918 357.237 322.918 357.557 322.918 357.898C322.939 358.218 322.96 358.538 322.982 358.858C323.024 359.178 323.067 359.509 323.11 359.85L320.646 360.106L320.326 358.346ZM327.461 346.666C327.461 345.941 327.397 345.066 327.269 344.042L329.669 343.722L330.021 345.738C330.597 345.311 331.162 344.938 331.717 344.618C332.272 344.298 332.869 344.021 333.509 343.786C334.149 343.551 334.8 343.434 335.461 343.434C336.528 343.434 337.37 343.626 337.989 344.01C338.608 344.373 339.066 345.002 339.365 345.898C340.24 345.279 341.146 344.714 342.085 344.202C343.045 343.69 344.037 343.434 345.061 343.434C345.85 343.434 346.522 343.541 347.077 343.754C347.632 343.946 348.08 344.277 348.421 344.746C348.762 345.215 349.008 345.834 349.157 346.602C349.306 347.37 349.381 348.33 349.381 349.482V359.85H346.821V349.77C346.821 349.13 346.81 348.565 346.789 348.074C346.768 347.562 346.693 347.135 346.565 346.794C346.437 346.431 346.224 346.154 345.925 345.962C345.648 345.77 345.242 345.674 344.709 345.674C344.218 345.674 343.749 345.749 343.301 345.898C342.874 346.026 342.426 346.218 341.957 346.474C341.488 346.73 340.762 347.253 339.781 348.042V359.85H337.221V349.77C337.221 349.13 337.21 348.565 337.189 348.074C337.168 347.562 337.093 347.135 336.965 346.794C336.837 346.431 336.624 346.154 336.325 345.962C336.048 345.77 335.642 345.674 335.109 345.674C334.554 345.674 333.978 345.791 333.381 346.026C332.784 346.261 332.218 346.538 331.685 346.858C331.152 347.178 330.597 347.551 330.021 347.978V359.85H327.461V346.666ZM175.506 399.386C175.506 400.175 175.42 400.943 175.25 401.69C175.079 402.437 174.748 403.098 174.258 403.674C173.788 404.271 173.116 404.741 172.242 405.082C171.388 405.445 170.258 405.626 168.85 405.626C167.954 405.605 167.175 405.551 166.514 405.466C165.852 405.381 165.223 405.253 164.626 405.082C164.028 404.933 163.484 404.751 162.994 404.538L163.666 402.298C164.498 402.661 165.34 402.938 166.194 403.13C167.068 403.322 167.847 403.418 168.53 403.418C169.276 403.418 169.927 403.343 170.482 403.194C171.036 403.045 171.495 402.789 171.858 402.426C172.242 402.085 172.519 401.626 172.69 401.05C172.882 400.474 172.978 399.759 172.978 398.906V396.57C172.53 396.869 172.06 397.146 171.57 397.402C171.1 397.637 170.588 397.839 170.034 398.01C169.5 398.181 168.978 398.266 168.466 398.266C166.482 398.266 164.914 397.573 163.762 396.186C162.61 394.778 162.034 392.687 162.034 389.914C162.034 388.314 162.279 386.981 162.77 385.914C163.282 384.826 163.922 383.951 164.69 383.29C165.458 382.629 166.3 382.159 167.218 381.882C168.135 381.583 169.01 381.434 169.842 381.434C170.93 381.434 171.922 381.53 172.818 381.722C173.735 381.893 174.631 382.031 175.506 382.138V399.386ZM168.754 396.026C169.223 396.026 169.703 395.941 170.194 395.77C170.684 395.599 171.154 395.397 171.602 395.162C172.071 394.927 172.53 394.65 172.978 394.33V384.122C172.722 384.058 172.423 383.983 172.082 383.898C171.783 383.855 171.442 383.813 171.058 383.77C170.674 383.706 170.268 383.674 169.842 383.674C168.946 383.674 168.178 383.834 167.538 384.154C166.898 384.474 166.364 384.911 165.938 385.466C165.532 386.021 165.234 386.671 165.042 387.418C164.85 388.165 164.754 388.954 164.754 389.786C164.754 390.533 164.828 391.279 164.978 392.026C165.148 392.773 165.404 393.445 165.746 394.042C166.087 394.639 166.503 395.119 166.994 395.482C167.484 395.845 168.071 396.026 168.754 396.026ZM181.941 389.882C181.941 391.951 182.399 393.498 183.317 394.522C184.255 395.525 185.514 396.026 187.093 396.026C188.65 396.026 189.866 395.525 190.741 394.522C191.615 393.519 192.053 392.015 192.053 390.01C192.053 387.877 191.583 386.287 190.645 385.242C189.727 384.197 188.469 383.674 186.869 383.674C185.269 383.674 184.042 384.197 183.189 385.242C182.357 386.266 181.941 387.813 181.941 389.882ZM179.221 389.85C179.221 388.229 179.477 386.885 179.989 385.818C180.501 384.73 181.151 383.866 181.941 383.226C182.73 382.565 183.573 382.106 184.469 381.85C185.386 381.573 186.25 381.434 187.061 381.434C187.829 381.434 188.661 381.562 189.557 381.818C190.474 382.053 191.317 382.49 192.085 383.13C192.853 383.749 193.493 384.591 194.005 385.658C194.517 386.703 194.773 388.037 194.773 389.658C194.773 391.343 194.506 392.741 193.972 393.85C193.461 394.959 192.81 395.845 192.021 396.506C191.231 397.146 190.378 397.594 189.461 397.85C188.543 398.127 187.69 398.266 186.901 398.266C186.09 398.266 185.237 398.138 184.341 397.882C183.445 397.626 182.613 397.189 181.845 396.57C181.098 395.93 180.469 395.066 179.957 393.978C179.466 392.89 179.221 391.514 179.221 389.85ZM200.316 389.882C200.316 391.951 200.774 393.498 201.692 394.522C202.63 395.525 203.889 396.026 205.468 396.026C207.025 396.026 208.241 395.525 209.116 394.522C209.99 393.519 210.428 392.015 210.428 390.01C210.428 387.877 209.958 386.287 209.02 385.242C208.102 384.197 206.844 383.674 205.244 383.674C203.644 383.674 202.417 384.197 201.564 385.242C200.732 386.266 200.316 387.813 200.316 389.882ZM197.596 389.85C197.596 388.229 197.852 386.885 198.364 385.818C198.876 384.73 199.526 383.866 200.316 383.226C201.105 382.565 201.948 382.106 202.844 381.85C203.761 381.573 204.625 381.434 205.436 381.434C206.204 381.434 207.036 381.562 207.932 381.818C208.849 382.053 209.692 382.49 210.46 383.13C211.228 383.749 211.868 384.591 212.38 385.658C212.892 386.703 213.148 388.037 213.148 389.658C213.148 391.343 212.881 392.741 212.347 393.85C211.836 394.959 211.185 395.845 210.396 396.506C209.606 397.146 208.753 397.594 207.836 397.85C206.918 398.127 206.065 398.266 205.276 398.266C204.465 398.266 203.612 398.138 202.716 397.882C201.82 397.626 200.988 397.189 200.22 396.57C199.473 395.93 198.844 395.066 198.332 393.978C197.841 392.89 197.596 391.514 197.596 389.85ZM226.915 384.154C226.147 383.941 225.549 383.813 225.123 383.77C224.696 383.706 224.259 383.674 223.811 383.674C222.915 383.674 222.147 383.834 221.507 384.154C220.867 384.474 220.333 384.922 219.907 385.498C219.501 386.053 219.203 386.703 219.011 387.45C218.819 388.175 218.723 388.954 218.723 389.786C218.723 390.533 218.797 391.279 218.947 392.026C219.117 392.773 219.373 393.445 219.715 394.042C220.056 394.639 220.472 395.119 220.963 395.482C221.453 395.845 222.04 396.026 222.723 396.026C223.192 396.026 223.672 395.941 224.163 395.77C224.675 395.599 225.144 395.407 225.571 395.194C225.997 394.959 226.445 394.671 226.915 394.33V384.154ZM226.947 396.57C226.456 396.911 225.976 397.199 225.507 397.434C225.059 397.647 224.557 397.839 224.003 398.01C223.469 398.181 222.947 398.266 222.435 398.266C220.429 398.266 218.851 397.562 217.699 396.154C216.568 394.725 216.003 392.645 216.003 389.914C216.003 388.293 216.259 386.938 216.771 385.85C217.304 384.762 217.965 383.898 218.755 383.258C219.544 382.597 220.387 382.127 221.283 381.85C222.2 381.573 223.043 381.434 223.811 381.434C224.195 381.434 224.6 381.466 225.027 381.53C225.453 381.573 226.083 381.701 226.915 381.914V373.882L229.475 373.594V394.938C229.475 395.237 229.475 395.557 229.475 395.898C229.496 396.218 229.517 396.538 229.539 396.858C229.581 397.178 229.624 397.509 229.667 397.85L227.203 398.106L226.947 396.57ZM241.429 373.882L243.989 373.594V397.85H241.429V373.882ZM258.217 396.09H258.153C257.961 396.239 257.684 396.442 257.321 396.698C256.959 396.933 256.543 397.167 256.073 397.402C255.604 397.637 255.081 397.839 254.505 398.01C253.951 398.181 253.385 398.266 252.809 398.266C252.02 398.266 251.348 398.159 250.793 397.946C250.239 397.754 249.791 397.423 249.449 396.954C249.108 396.485 248.863 395.866 248.713 395.098C248.564 394.33 248.489 393.37 248.489 392.218V381.754H251.049V391.834C251.049 392.474 251.06 393.05 251.081 393.562C251.103 394.074 251.177 394.511 251.305 394.874C251.433 395.237 251.636 395.525 251.913 395.738C252.212 395.93 252.628 396.026 253.161 396.026C253.716 396.026 254.292 395.909 254.889 395.674C255.487 395.439 256.031 395.173 256.521 394.874C257.097 394.533 257.663 394.149 258.217 393.722V381.754H260.777V395.77C260.799 396.538 260.852 397.231 260.937 397.85L258.409 398.106L258.217 396.09ZM275.413 384.09C275.05 384.005 274.549 383.919 273.909 383.834C273.269 383.727 272.618 383.674 271.957 383.674C270.997 383.674 270.208 383.866 269.589 384.25C268.992 384.634 268.522 385.135 268.181 385.754C267.84 386.351 267.605 387.023 267.477 387.77C267.349 388.495 267.285 389.21 267.285 389.914C267.285 391.002 267.424 391.941 267.701 392.73C267.978 393.498 268.341 394.127 268.789 394.618C269.258 395.109 269.792 395.471 270.389 395.706C270.986 395.919 271.616 396.026 272.277 396.026C272.725 396.026 273.152 396.005 273.557 395.962C273.984 395.898 274.368 395.834 274.709 395.77C275.072 395.685 275.413 395.589 275.733 395.482L276.245 397.626C275.797 397.754 275.381 397.861 274.997 397.946C274.613 398.031 274.154 398.106 273.621 398.17C273.109 398.234 272.554 398.266 271.957 398.266C270.784 398.266 269.738 398.117 268.821 397.818C267.904 397.519 267.125 397.039 266.485 396.378C265.866 395.717 265.386 394.853 265.045 393.786C264.725 392.719 264.565 391.418 264.565 389.882C264.565 388.389 264.768 387.109 265.173 386.042C265.6 384.954 266.154 384.079 266.837 383.418C267.52 382.735 268.298 382.234 269.173 381.914C270.069 381.594 270.997 381.434 271.957 381.434C272.469 381.434 272.96 381.466 273.429 381.53C273.92 381.573 274.346 381.626 274.709 381.69C275.136 381.775 275.541 381.861 275.925 381.946L275.413 384.09ZM279.398 373.882L281.958 373.594V388.026L289.094 381.754H292.614L285.638 387.866L292.87 397.85H289.638L283.75 389.498L281.958 391.066V397.85H279.398V373.882ZM302.774 374.554L306.038 374.202L305.494 392.026H303.414L302.774 374.554ZM302.486 395.962C302.486 395.45 302.667 395.013 303.03 394.65C303.392 394.266 303.84 394.074 304.374 394.074C304.928 394.074 305.398 394.266 305.782 394.65C306.166 395.013 306.358 395.45 306.358 395.962C306.358 396.495 306.166 396.943 305.782 397.306C305.398 397.669 304.928 397.85 304.374 397.85C303.84 397.85 303.392 397.669 303.03 397.306C302.667 396.943 302.486 396.495 302.486 395.962Z" fill="black"/>
</g>
<defs>
<radialGradient id="paint0_radial_2_2" cx="0" cy="0" r="1" gradientUnits="userSpaceOnUse" gradientTransform="translate(583.944 487.443) rotate(-17.8868) scale(21.7525)">
<stop stop-color="white"/>
<stop offset="0.56" stop-color="white" stop-opacity="0.5"/>
<stop offset="1" stop-color="white" stop-opacity="0"/>
</radialGradient>
<radialGradient id="paint1_radial_2_2" cx="0" cy="0" r="1" gradientUnits="userSpaceOnUse" gradientTransform="translate(583.944 487.443) rotate(-17.8868) scale(21.7525)">
<stop stop-color="#E65680"/>
<stop offset="0.77" stop-color="#E65680"/>
<stop offset="1" stop-color="#E65680"/>
</radialGradient>
<radialGradient id="paint2_radial_2_2" cx="0" cy="0" r="1" gradientUnits="userSpaceOnUse" gradientTransform="translate(487.166 488.835) rotate(-17.8868) scale(21.7525)">
<stop stop-color="white"/>
<stop offset="0.56" stop-color="white" stop-opacity="0.5"/>
<stop offset="1" stop-color="white" stop-opacity="0"/>
</radialGradient>
<radialGradient id="paint3_radial_2_2" cx="0" cy="0" r="1" gradientUnits="userSpaceOnUse" gradientTransform="translate(487.166 488.835) rotate(-17.8868) scale(21.7525)">
<stop stop-color="#E65680"/>
<stop offset="0.77" stop-color="#E65680"/>
<stop offset="1" stop-color="#E65680"/>
</radialGradient>
<clipPath id="clip0_2_2">
<rect width="1500" height="1500" fill="white"/>
</clipPath>
</defs>
</svg>
