<svg width="360" height="360" viewBox="0 0 360 360" fill="none" xmlns="http://www.w3.org/2000/svg">
<path fill-rule="evenodd" clip-rule="evenodd" d="M141.3 276.69C93.6704 279.933 42.7578 241.434 42.7578 194.58C42.7578 147.723 118.252 167.692 142.742 130.504C201.419 41.4632 319.877 184.746 278.233 200.738C194.79 232.758 255.554 268.905 141.3 276.69Z" fill="#F8F2E8"/>
<path d="M271.443 192.696C271.469 192.821 271.533 192.938 271.56 193.063C271.77 194.234 271.905 195.03 271.765 196.053C271.432 198.24 269.904 200.359 270.787 203.129C271.739 207.055 276.547 209.441 277.841 205.55C278.582 202.98 277.32 199.851 275.908 197.012C275.121 195.49 274.216 194.033 273.2 192.653C274.312 192.58 275.406 192.335 276.444 191.928C276.663 191.841 276.841 191.763 277.06 191.676C277.122 191.707 277.224 191.73 277.286 191.761C279.192 190.953 280.756 190.169 282.695 189.657C286.031 188.698 290.255 187.736 290.571 184.167C290.604 183.035 289.567 181.897 288.481 181.071C287.015 180.088 285.224 179.711 283.486 180.02C280.49 180.393 278.422 182.186 277.302 184.398C276.612 185.789 276.294 187.367 276.078 188.968C276.03 189.757 275.844 190.616 276.04 191.444C274.768 191.954 273.361 192.144 271.867 192.179C271.794 192.159 271.717 192.159 271.644 192.179C271.11 192.192 270.575 192.167 270.045 192.104C269.923 189.66 270.919 187.386 271.792 185.05C272.077 184.128 272.463 183.229 272.563 182.213C273.33 182.447 274.123 182.581 274.924 182.615C276.403 182.713 277.661 181.859 277.097 180.455C276.089 178.575 272.595 177.661 270.7 177.298C269.087 177.052 267.448 177.011 265.824 177.176C265.601 177.183 265.379 177.212 265.161 177.263C266.113 176.34 267.025 175.424 267.915 174.47C268.71 173.664 269.461 172.78 270.235 171.935C272.763 172.476 275.066 173.884 277.408 175.285C280.252 177.106 283.225 179.075 286.138 178.155C288.587 177.283 288.458 174.192 285.672 172.316C282.846 170.448 279.457 169.643 276.458 169.454C275.239 169.375 274.017 169.399 272.802 169.524C272.682 169.548 272.54 169.532 272.38 169.564L274.469 167.334C275.651 166.106 276.855 164.916 278.036 163.688C278.178 163.703 278.36 163.711 278.543 163.718C279.315 163.826 279.64 163.848 280.434 163.995C282.412 164.428 284.42 165.072 286.395 165.419C288.288 165.733 290.213 165.805 292.123 165.633C293.512 165.489 294.981 165.331 296.129 164.758C298.207 163.7 298.409 161.279 295.448 159.567C292.86 158.23 289.929 157.706 287.038 158.063C286.276 158.212 285.369 158.261 284.694 158.567L284.126 158.029L284.206 158.013C285.847 157.127 287.659 156.468 289.51 155.799C291.941 154.974 294.537 154.203 297.168 153.339C298.265 153.946 299.216 154.451 300.345 155.355C303.375 157.746 305.537 161.606 308.483 164.403C310.504 166.343 315.801 169.759 318.348 169.301C323.604 168.353 313.61 160.839 311.231 159.056C308.499 157.04 305.56 155.367 302.587 153.874C301.603 153.371 300.585 152.935 299.541 152.569C303.03 151.406 306.474 150.165 309.668 148.714C310.244 148.47 310.798 148.188 311.312 147.914L311.374 147.945C311.764 148.085 312.216 148.256 312.627 148.434C313.283 148.651 314.627 149.383 314.897 149.546C320.139 152.627 323.415 158 329.112 160.861C331.509 162.121 334.533 162.911 336.447 161.798C339.609 159.098 332.608 154.068 329.388 151.975C326.339 150.107 323.034 148.897 319.745 148.029C318.097 147.57 316.414 147.25 314.713 147.071C314.182 147.004 313.647 146.979 313.113 146.996C317.064 144.926 320.758 142.397 324.117 139.461C324.281 139.515 324.463 139.523 324.627 139.578C325.569 139.843 326.494 140.167 327.396 140.548C329.72 141.519 331.483 142.6 333.588 144.134C336.192 146.003 338.811 148.214 341.915 148.989C342.993 149.166 344.232 149.312 344.958 148.779C345.582 148.224 345.721 147.2 345.076 146.288C344.188 144.861 342.607 143.786 341.11 142.783C339.746 141.869 338.321 141.05 336.844 140.332C335.053 139.429 333.175 138.711 331.238 138.189C329.69 137.752 328.116 137.411 326.526 137.169C327.106 136.535 327.686 135.901 328.244 135.229L328.284 135.221C330.694 133.88 333.522 132.89 335.131 130.755C335.781 129.848 336.346 128.871 336.274 127.63C336.301 125.849 333.729 124.278 331.882 124.079C329.951 123.809 328.642 124.89 328.174 126.28C327.681 128.023 328.128 130.013 328.003 131.856C327.975 132.724 327.862 133.587 327.666 134.433C327.647 134.474 327.639 134.519 327.641 134.563C327.642 134.608 327.655 134.652 327.676 134.691C327.002 135.473 326.326 136.256 325.572 137.053C325.019 137.633 324.434 138.181 323.821 138.697C324.158 137.548 324.042 136.229 323.361 134.935C322.939 134.022 321.901 133.361 320.877 133.043C318.567 132.415 317.928 134.056 318.871 135.819C319.577 137.239 321.125 138.969 321.065 139.977C321.077 140.253 321.068 140.53 321.039 140.805C321.013 140.851 320.998 140.903 320.997 140.956C320.996 141.009 321.008 141.062 321.032 141.109C319.394 142.395 317.675 143.572 315.884 144.634C316.533 143.251 317.016 141.727 316.58 139.995C316.191 138.426 314.585 136.751 312.69 136.864C310.915 136.954 309.723 137.924 308.756 138.981C306.798 140.968 306.47 144.279 305.722 146.678C305.386 147.827 304.824 148.89 304.24 149.914C304.186 150.054 303.97 150.227 303.999 150.438C299.421 152.118 294.729 153.518 289.944 155.066C287.892 155.774 285.861 156.52 284.002 157.492C284.812 156.553 285.581 155.622 286.329 154.653C287.283 154.768 288.147 154.641 288.695 154.187C289.3 153.678 289.035 152.648 288.259 151.978C288.656 151.337 289.094 150.688 289.47 150.008C291.561 151.198 293.576 152.013 295.165 151.354C296.51 150.656 295.48 148.738 294.067 147.804C293.471 147.397 292.841 147.043 292.184 146.746C292.878 146.222 293.616 145.758 294.389 145.36C297.831 143.557 301.931 142.534 304.885 140.176C306.373 139.017 308.039 137.78 308.445 135.881C308.577 135.163 308.621 134.288 307.984 133.548C305.562 131.211 302.27 132.725 300.407 133.611C298.805 134.406 297.435 135.6 296.429 137.078C295.437 138.486 294.798 140.127 294.035 141.706C293.711 142.358 293.353 142.992 292.963 143.606C293.057 143.457 293.131 143.27 293.225 143.121C293.93 141.597 294.51 140.01 295.091 138.424C295.171 138.408 295.189 138.362 295.269 138.346C295.302 138.324 295.329 138.295 295.349 138.261C295.368 138.227 295.38 138.189 295.383 138.15C295.372 138.064 295.341 137.981 295.292 137.908C295.31 137.862 295.328 137.815 295.368 137.807C295.424 137.819 295.481 137.811 295.532 137.785C295.582 137.76 295.622 137.717 295.645 137.666C296.689 135.079 299.954 130.496 297.41 127.144C297.066 126.833 296.62 126.659 296.156 126.655C294.943 126.634 294.312 127.494 293.921 128.307C293.038 130.386 292.978 132.823 293.588 135.343C293.746 136.051 293.944 136.749 294.181 137.435C294.268 137.591 294.275 137.762 294.403 137.91C294.005 138.075 293.63 138.279 293.233 138.444C292.846 137.212 292.57 135.948 292.408 134.666C292.176 132.98 291.923 130.303 289.927 128.964C289.62 128.791 289.259 128.741 288.917 128.824C288.575 128.908 288.278 129.119 288.086 129.414C287.247 130.618 287.643 132.359 288.254 133.926C288.795 135.29 289.514 136.575 290.394 137.748C290.76 138.253 291.172 138.722 291.625 139.151L291.647 139.19C291.035 139.527 290.423 139.864 289.871 140.232C287.786 141.595 286.017 143.286 284.267 144.929C284.092 145.093 283.935 145.211 283.76 145.375C283.523 145.032 283.327 144.681 283.13 144.33C282.492 143.182 281.943 141.988 281.485 140.758C280.693 138.706 279.58 135.288 276.921 133.56C276.068 132.992 275.128 133.221 274.767 133.768C274.179 134.706 274.783 136.103 275.256 137.265C276.108 139.262 277.462 141.203 278.973 143.027C279.865 144.064 280.735 145.061 281.726 146.035C281.955 146.207 282.148 146.472 282.396 146.596C281.229 147.692 280.022 148.795 278.815 149.899C277.735 147.731 277.047 145.788 276.185 143.533C275.352 141.489 274.493 139.321 272.661 137.559C271.172 136.251 269.506 136.535 269.075 137.833C268.275 139.982 269.283 142.814 270.637 145.23C271.523 146.704 272.584 148.065 273.797 149.284C274.522 150.026 275.287 150.728 276.088 151.387C276.296 151.52 276.485 151.699 276.692 151.831C276.127 152.332 275.544 152.88 274.979 153.381L273.283 154.884C273.243 154.891 273.203 154.899 273.225 154.938C273.184 154.945 273.207 154.985 273.207 154.985C272.776 155.329 272.328 155.72 271.897 156.065L271.857 156.072C270.413 152.936 268.684 149.77 266.059 146.91C264.85 145.546 263.499 144.167 261.841 143.195C259.998 142.129 257.171 141.214 256.914 143.299C256.818 145.353 258.372 147.255 260.259 148.875C258.999 148.214 257.647 147.787 256.371 147.735C255.614 147.696 254.87 147.949 254.293 148.441C253.716 148.933 253.35 149.627 253.268 150.381C253.149 153.349 256.183 156.301 258.335 158.952C259.504 160.323 260.578 161.844 260.569 163.101C260.551 163.495 260.486 163.886 260.375 164.265C260.321 164.405 260.204 164.515 260.291 164.671C260.316 164.722 260.351 164.767 260.394 164.804C260.438 164.84 260.489 164.866 260.543 164.881C260.444 164.977 260.354 165.082 260.273 165.194C259.479 165.524 258.811 166.001 258.705 166.845C258.715 166.934 258.705 167.025 258.676 167.11C258.631 167.202 258.573 167.286 258.504 167.361C258.134 167.871 257.792 168.401 257.479 168.948C257.634 166.839 257.869 164.715 256.985 162.421C255.592 158.583 251.651 154.726 250.491 151.145C249.906 149.225 250.086 147.718 249.93 145.93C250.134 145.976 250.313 145.898 250.346 145.718C250.448 145.265 250.532 144.859 250.657 144.445C251.037 142.898 251.351 141.71 251.833 140.187C252.1 139.312 252.406 138.429 252.713 137.546L252.753 137.538C253.317 137.427 253.889 137.357 254.463 137.331C255.549 137.204 258.159 137.253 259.401 137.485C261.981 137.799 265.213 139.198 267.076 137.835C268.465 136.739 267.297 134.415 265.468 133.216C263.323 131.691 260.644 130.962 258.411 131.186C256.76 131.338 255.52 132.144 254.361 132.935C254.155 133.069 253.945 133.198 253.731 133.319C253.968 132.234 254.166 131.156 254.433 130.281C255.153 127.671 256.306 125.279 257.335 122.825C257.539 122.872 257.718 122.793 257.9 122.801C258.385 122.792 258.87 122.783 259.336 122.821C260.744 122.931 262.14 123.163 263.508 123.515C265.163 123.925 266.846 124.546 268.511 124.739C270.869 125.054 273.198 124.682 274.536 123.336C275.772 121.967 274.17 119.901 272.207 118.859C270.2 117.739 267.977 117.267 265.933 117.194C262.937 117.091 261.187 118.258 260.081 120.337C259.779 120.83 259.038 121.495 258.437 121.614C258.223 121.692 258.002 121.75 257.777 121.787C257.963 121.404 258.087 120.99 258.252 120.568C259.176 118.005 259.371 115.412 260.954 113.152C261.797 112.033 263.594 110.554 264.484 109.123C264.922 108.474 265.36 107.825 265.736 107.145C268.506 106.686 272.007 107.295 275.083 106.906C276.228 106.724 277.365 106.371 277.978 105.556C279.222 103.882 278.053 102.035 275.448 101.119C272.676 100.063 270.397 101.161 268.604 102.25C268.028 102.637 267.51 103.104 267.065 103.636C267.212 103.099 267.392 102.572 267.605 102.057C268.046 101.018 268.586 100.392 269.505 99.6486C270.529 98.9531 271.49 98.1702 272.379 97.3086C273.058 96.9288 273.716 96.5102 274.347 96.055C275.171 95.4599 275.995 94.8647 276.444 93.9971C277.083 92.8323 277.39 90.9967 275.718 89.6807C274.797 88.9098 273.412 88.6628 272.537 89.0082C270.441 90.1136 270.195 93.4092 270.78 95.805C270.921 96.297 271.063 96.7886 271.205 97.2799L271.227 97.3188C270.837 97.6554 270.447 97.992 270.035 98.2895C269.304 98.763 268.629 99.3171 268.022 99.9414C267.986 98.6063 268.494 97.2076 268.393 95.7555C268.318 93.4756 266.614 90.9105 264.145 89.3617C261.059 87.5882 258.609 88.9364 259.271 91.7068C259.547 92.9947 260.347 94.2657 261.127 95.4978C262.051 96.8308 263.038 98.1952 264.261 99.4262C264.873 100.042 265.543 100.603 266.235 101.202C266.443 101.38 266.666 101.539 266.901 101.677C266.474 102.584 266.255 103.623 265.952 104.592C265.468 106.034 264.753 107.388 263.835 108.602C263.022 109.931 261.242 111.364 260.17 112.787C259.964 113.063 259.787 113.359 259.641 113.671C259.599 113.585 259.541 113.508 259.469 113.444C259.008 111.587 259.013 109.768 258.796 107.949C258.456 104.639 257.099 101.183 253.051 99.1222C251.233 98.1814 248.869 97.6945 247.662 98.7982C246.302 100.105 246.522 102.486 247.756 104.45C249.492 107.312 252.541 109.656 255.572 111.57C256.796 112.325 257.903 112.713 258.704 113.508L258.747 113.586C258.805 113.836 258.883 114.081 258.98 114.319C259.009 114.366 259.049 114.405 259.096 114.433C259.143 114.461 259.195 114.478 259.25 114.483C258.458 116.327 258.121 118.428 257.468 120.202C256.486 122.82 255.256 125.314 254.274 127.931C254.161 127.65 254.019 127.159 253.906 126.878C253.453 125.473 253.083 124.042 252.798 122.594C251.995 118.855 250.872 114.227 246.224 111.809C240.144 108.98 235.255 112.41 239.204 117.953C241.37 120.947 244.794 123.087 248.204 124.883C249.924 125.887 251.796 126.687 252.976 127.84C253.172 128.091 253.34 128.363 253.475 128.651C253.562 128.807 253.547 128.939 253.693 129.041L253.879 129.135C253.81 129.408 253.7 129.689 253.631 129.963C253.061 131.806 252.761 133.815 252.315 135.72C252.207 136.191 252.064 136.653 251.887 137.103C251.847 137.111 251.869 137.15 251.851 137.197C251.742 137.478 251.672 137.751 251.563 138.033C249.612 135.819 248.546 133.042 246.645 130.602C244.777 128.459 241.875 126.216 239.043 126.168C234.881 126.208 237.712 131.581 240.007 133.771C241.882 135.609 244.283 136.955 246.746 137.856C247.029 138.839 247.394 139.806 247.779 140.813C247.502 140.478 247.185 140.15 246.908 139.815C246.125 138.974 244.25 136.658 243.098 137.145C242.016 137.834 243.782 139.955 244.863 140.694C245.889 141.461 247.042 142.04 248.27 142.404L248.309 142.396C248.601 143.272 248.807 144.173 248.927 145.089C249.018 145.811 249.069 146.538 249.079 147.267C248.995 147.197 248.889 147.087 248.806 147.018C248.405 146.62 248.044 146.215 247.684 145.81C246.857 144.89 246.111 143.956 245.069 143.207C243.128 141.728 241.425 142.583 242.74 144.532C243.752 146.021 245.661 146.728 247.297 147.185C247.625 147.293 248.444 147.565 248.823 147.923L248.845 147.962C248.929 148.032 248.972 148.11 249.056 148.18C249.146 149.851 249.4 151.576 250.463 153.315C252.472 156.902 255.731 160.417 256.443 163.913C256.893 166.465 256.271 169.012 256.404 171.714C256.453 174.821 257.176 178.099 257.327 181.23C257.388 181.737 257.45 182.245 257.53 182.706C256.448 181.49 255.308 180.329 254.11 179.223C251.633 177.027 249.117 174.837 246.779 172.57C246.791 172.354 246.836 172.14 246.914 171.937C247.131 171.152 247.461 170.402 247.892 169.71C248.972 167.982 251.484 166.189 251.949 163.759C252.687 160.627 248.731 158.332 245.808 159.47C243.252 160.709 243.268 163.996 243.522 166.674C243.655 167.772 243.876 168.858 244.182 169.921L243.866 169.594C242.216 167.84 240.644 165.985 239.012 164.185C239.005 164.013 238.834 163.787 238.764 163.584C238.534 163.179 238.34 162.753 238.186 162.313C237.622 160.909 237.142 158.622 237.165 157.232C237.117 154.124 239.021 151.801 238.232 148.406C237.844 146.361 235.441 143.501 233.188 144.724C232.477 145.124 232.144 145.882 231.849 146.546C231.371 147.68 231.202 148.968 231.237 150.303C231.31 152.242 231.718 154.154 232.443 155.954C232.887 157.097 233.406 158.209 233.997 159.284C231.065 156.83 227.863 154.69 224.957 152.362C224.976 152.313 224.983 152.261 224.977 152.209C224.972 152.157 224.953 152.108 224.924 152.065C224.866 151.816 224.829 151.563 224.812 151.308C224.761 150.582 224.864 149.176 225.218 148.457C226.525 145.862 228.013 143.274 227.859 140.057C227.763 136.31 226.693 130.026 221.465 127.765C217.887 126.305 216.263 129.049 216.247 131.563C215.985 135.944 218.405 140.663 220.392 145.164C221.196 146.997 221.804 148.479 222.44 150.173C221.688 149.473 220.976 148.731 220.306 147.952C218.456 145.762 217.153 143.594 215.595 141.13C214.249 138.884 212.741 136.67 211.395 134.424C211.133 133.956 210.889 133.441 210.627 132.973C210.653 132.947 210.673 132.916 210.686 132.881C210.698 132.847 210.703 132.81 210.699 132.773C210.696 132.736 210.684 132.701 210.666 132.67C210.647 132.638 210.621 132.611 210.591 132.59C208.686 130.541 207.514 128.607 205.807 126.432C203.203 123.135 200.174 119.791 196.339 117.473C194.638 116.422 192.79 116.223 192.163 117.646C191.787 118.802 192.453 120.23 193.093 121.532C193.77 122.741 194.509 123.98 195.485 125.088C197.076 126.896 199.021 128.461 201.042 129.925C203.376 131.573 205.851 133.012 208.437 134.227L210.973 135.416C211.036 135.447 211.106 135.463 211.177 135.462C212.046 136.936 213.059 138.425 213.969 139.892C213.706 139.843 213.447 139.778 213.193 139.698C211.939 139.385 210.722 138.943 209.56 138.378C205.374 136.388 201.47 133.39 196.886 132.042C196.008 131.826 195.094 131.703 194.419 132.009C194.039 132.203 193.744 132.53 193.589 132.927C193.434 133.325 193.431 133.765 193.58 134.165C194.179 135.952 196.081 137.44 197.866 138.56C202.015 141.12 206.816 142.859 211.157 142.74C212.611 142.714 214.04 142.562 215.253 142.107L215.293 142.099C216.615 144.22 217.975 146.333 219.655 148.297C221.1 150.004 222.841 151.523 224.637 152.901C224.913 153.131 225.198 153.349 225.493 153.555C223.412 153.099 221.479 152.268 219.295 151.312C217.051 150.325 214.811 149.424 212.494 148.625C209.728 147.741 206.69 146.607 204.12 147.026C202.557 147.334 202.235 148.826 203.345 150.253C204.353 151.657 206.033 152.668 207.548 153.625C210.11 155.135 212.89 156.238 215.789 156.894C218.708 157.575 221.612 157.913 224.375 157.758C226.27 157.645 228.223 157.477 229.896 156.888C229.936 156.88 229.914 156.841 229.914 156.841C232.169 158.562 234.383 160.291 236.28 162.169C237.442 163.369 238.564 164.577 239.645 165.793C236.785 165.627 233.948 165.17 231.18 164.429C227.264 163.555 222.403 161.871 219.767 164.078C218.141 165.308 218.788 167.734 220.937 169.346C223.002 170.888 225.513 171.476 227.805 171.674C231.358 172.057 234.303 170.957 236.873 169.586C237.981 169.021 239.385 168.269 240.344 167.993C240.614 167.897 240.898 167.841 241.185 167.828L241.426 167.78C242.147 168.59 242.93 169.433 243.691 170.235C243.986 170.523 244.241 170.82 244.514 171.069L244.558 171.147C244.601 171.225 244.663 171.256 244.787 171.318L245.989 172.51C245.984 172.555 245.99 172.6 246.006 172.642C246.021 172.684 246.046 172.721 246.079 172.752C246.17 172.826 246.275 172.879 246.388 172.908C248.326 174.778 250.362 176.585 252.438 178.384C254.214 179.918 255.883 181.571 257.434 183.331C257.518 183.401 257.583 183.518 257.689 183.628C257.706 183.729 257.704 183.832 257.681 183.932C257.428 186.58 257.867 189.35 258.328 192.161C256.64 193.359 253.673 192.99 251.377 193.659C249.781 194.147 248.497 195.351 248.587 197.022C248.644 198.873 250.104 200.923 252.173 202.074C255.011 203.724 257.741 202.32 258.239 200.188C258.699 198.625 258.814 197.001 258.946 195.329C259.367 197.195 259.77 199.107 259.948 200.933C260.231 202.869 259.948 204.83 259.995 206.899C260.049 207.235 259.961 207.555 260.096 207.875C260.311 208.179 260.854 208.115 260.799 207.78C260.669 206.593 260.823 204.961 260.846 203.571C260.819 202.2 260.721 200.832 260.554 199.472C260.282 197.318 259.664 195.101 259.228 192.893L259.272 192.494C259.278 192.473 259.279 192.451 259.275 192.429C259.27 192.407 259.261 192.387 259.247 192.369C259.607 192.298 259.604 192.212 259.845 192.165C261.182 191.772 262.575 191.715 264.054 191.813C264 191.953 264.046 192.117 263.97 192.219C263.922 192.531 263.849 192.719 263.816 192.898C263.48 194.047 262.937 195.063 262.415 196.118C261.444 198.041 260.349 200.378 261.973 202.958C264.684 207.403 269.889 206.682 268.777 202.312C268.25 199.861 266.2 197.234 265.422 195.049C265.16 194.105 265.095 193.512 265.321 192.644C265.359 192.419 265.432 192.2 265.537 191.996C266.838 192.173 268.121 192.397 269.461 192.566C270.119 192.652 270.781 192.695 271.443 192.696ZM247.955 139.307C247.795 138.862 247.675 138.409 247.537 138.004C247.864 138.112 248.232 138.213 248.538 138.283C249.296 138.523 249.806 138.639 250.41 139.083L250.432 139.122L250.494 139.153C250.662 139.293 250.771 139.488 250.957 139.581C250.939 139.628 250.96 139.667 250.921 139.675C250.401 141.225 249.961 142.8 249.602 144.394C249.584 144.441 249.605 144.48 249.566 144.488C249.333 142.802 248.613 141.039 247.955 139.307ZM262.772 180.073C263.213 179.986 264.893 180.045 265.301 180.138C265.693 180.196 266.081 180.279 266.463 180.385C265.875 181.364 265.532 182.472 265.466 183.612C265.041 183.19 264.556 182.834 264.027 182.553C263.055 181.966 261.983 181.561 260.865 181.358L260.843 181.319C261.172 180.951 261.5 180.583 261.85 180.255L261.89 180.247C262.174 180.147 262.471 180.089 262.772 180.073ZM274.724 165.727C274.436 163.995 273.938 162.305 273.241 160.694C272.786 159.628 272.277 158.587 271.716 157.574C271.616 157.385 271.5 157.205 271.37 157.036L272.016 156.519C273.542 157.257 274.893 158.16 276.416 159.289C277.25 159.904 278.15 160.637 279.107 161.314C277.675 162.809 276.18 164.272 274.724 165.727L274.724 165.727ZM289.538 140.99C290.673 140.192 291.874 139.492 293.129 138.898C293.388 138.804 293.585 138.678 293.843 138.584C293.387 139.756 292.953 140.967 292.434 142.108C291.916 143.249 291.336 144.359 290.755 145.47C290.723 145.491 290.696 145.52 290.676 145.554C290.657 145.588 290.645 145.626 290.642 145.665C290.606 145.759 290.548 145.814 290.511 145.907C289.213 145.521 287.874 145.29 286.521 145.221C285.873 145.175 285.264 145.122 284.637 145.116C286.274 143.668 287.871 142.228 289.538 140.991V140.99ZM283.353 146.322C284.833 146.897 286.687 148.22 288.613 149.356C288.216 149.997 287.857 150.63 287.439 151.232C286.728 150.843 285.959 150.57 285.162 150.425C283.228 150.049 281.248 149.972 279.291 150.196C280.633 148.935 282.033 147.62 283.353 146.322ZM276.738 152.473C276.882 152.354 277.018 152.226 277.147 152.09C277.413 152.168 277.715 152.151 277.981 152.229C279.001 152.461 280.065 152.771 281.089 153.089C282.215 153.43 283.774 153.989 285.221 154.267C284.473 155.237 283.663 156.175 282.854 157.114C281.834 156.406 280.682 155.94 279.535 155.559C278.489 155.197 277.408 154.946 276.31 154.809C275.6 154.732 274.911 154.695 274.222 154.657C275.101 153.921 275.94 153.193 276.738 152.472V152.473ZM262.716 161.772C263.399 160.685 264.077 159.512 264.45 158.27C264.821 158.933 265.192 159.596 265.625 160.29C264.339 161.198 263.105 162.179 261.928 163.226C262.191 162.74 262.453 162.255 262.716 161.771L262.716 161.772ZM261.54 164.6C262.955 163.26 264.463 162.022 266.054 160.897C267.361 162.835 268.851 164.644 270.504 166.298C271.072 166.836 271.702 167.405 272.289 167.895C272.359 167.96 272.436 168.017 272.518 168.067C271.57 169.076 270.643 170.124 269.717 171.172C269.676 171.159 269.633 171.156 269.591 171.165C269.548 171.173 269.509 171.192 269.476 171.22C269.448 171.233 269.422 171.252 269.401 171.276C269.381 171.3 269.366 171.329 269.357 171.359C269.349 171.39 269.348 171.422 269.353 171.453C269.358 171.485 269.371 171.514 269.389 171.54C268.867 172.119 268.386 172.69 267.842 173.23C267.45 171.575 267.138 169.905 266.341 168.244C265.344 166.145 263.694 164.392 261.54 164.6ZM258.106 181.121C257.897 177.569 257.087 174.135 257.17 170.785C257.181 170.567 257.17 170.309 257.182 170.09C257.608 170.136 257.663 169.519 257.875 169.261C258.119 168.823 258.385 168.425 258.652 168.026C259.019 169.079 259.773 170.186 260.599 171.106C261.742 172.353 263.364 172.942 264.81 173.697C265.087 173.855 265.351 174.035 265.6 174.234C265.622 174.273 265.706 174.343 265.728 174.382C265.79 174.413 265.899 174.608 265.961 174.639C266.043 174.746 266.109 174.865 266.158 174.99C264.684 176.493 263.087 177.933 261.573 179.443C261.707 178.336 261.708 177.216 261.576 176.109C261.463 175.352 261.285 174.478 260.648 173.737C260.182 173.223 259.308 173.092 258.939 173.467C258.549 173.804 258.552 174.366 258.534 174.889C258.595 175.873 258.9 176.895 259.264 177.863C259.571 178.675 259.815 179.51 259.995 180.36C260.044 180.567 260.073 180.779 260.082 180.992C259.484 181.673 258.908 182.392 258.354 183.151C258.284 182.472 258.175 181.8 258.107 181.121H258.106ZM259.772 191.487C259.499 191.547 259.233 191.629 258.973 191.731L258.933 191.739C258.636 189.936 258.389 187.906 258.288 186.454C258.259 186.166 258.26 185.875 258.292 185.587C258.314 185.624 258.345 185.655 258.381 185.678C258.417 185.701 258.458 185.715 258.5 185.72C258.828 185.828 259.061 185.609 258.887 185.297C258.818 185.094 258.789 184.883 258.72 184.681C258.88 184.649 258.997 184.539 258.949 184.376C258.989 184.368 258.989 184.368 259.051 184.399C259.451 184.421 259.847 184.488 260.232 184.599C260.99 184.84 262.352 185.524 263.416 185.834C264.134 186.082 264.946 186.182 265.526 186.025C265.58 186.518 265.675 187.006 265.809 187.484C266.211 188.951 266.878 190.331 267.778 191.556C267.821 191.634 267.905 191.704 267.949 191.782C265.344 191.343 262.13 190.85 259.772 191.487H259.772Z" fill="#C6B6A2"/>
<path fill-rule="evenodd" clip-rule="evenodd" d="M100.797 144.227C84.3763 148.106 59.7112 162.201 54.0288 136.098C50.136 118.213 96.3648 119.74 105.966 109.831C127.087 88.0315 159.596 107.753 145.695 114.761C117.84 128.796 140.188 134.922 100.797 144.227Z" fill="#F8F2E8"/>
<path fill-rule="evenodd" clip-rule="evenodd" d="M226.209 173.376C220.017 182.654 157.657 187.741 149.552 176.341C137.024 158.737 173.104 108.427 173.104 108.427C172.638 106.022 172.552 100.209 174.446 97.9409C177.315 94.493 173.047 91.2184 175.702 90.4747C179.115 89.5223 181.85 92.7463 187.795 94.3585C191.318 95.3039 190.826 104.55 187.496 109.725C186.31 111.561 184.046 111.729 184.046 111.729C184.046 111.729 170.128 145.976 173.084 152.535C176.751 160.648 194.205 151.307 221.025 147.521C233.851 145.708 229.621 168.262 226.209 173.376Z" fill="#F6CDB3"/>
<mask id="mask0_1_91" style="mask-type:luminance" maskUnits="userSpaceOnUse" x="146" y="90" width="84" height="93">
<path d="M226.209 173.376C220.017 182.654 157.657 187.741 149.552 176.341C137.024 158.737 173.104 108.427 173.104 108.427C172.638 106.022 172.552 100.209 174.446 97.9409C177.315 94.493 173.047 91.2184 175.702 90.4747C179.115 89.5223 181.85 92.7463 187.795 94.3585C191.318 95.3039 190.826 104.55 187.496 109.725C186.31 111.561 184.046 111.729 184.046 111.729C184.046 111.729 170.128 145.976 173.084 152.535C176.751 160.648 194.205 151.307 221.025 147.521C233.851 145.708 229.621 168.262 226.209 173.376Z" fill="white"/>
</mask>
<g mask="url(#mask0_1_91)">
<path fill-rule="evenodd" clip-rule="evenodd" d="M191.709 148.311C194.057 150.111 194.611 154.374 195.009 157.041C195.432 159.86 195.303 162.753 194.361 165.47C192.945 169.56 190.007 172.904 188.8 177.068C187.904 180.166 188.118 183.657 189.168 186.698C189.658 188.119 190.399 189.442 191.356 190.601C197.029 197.439 208.711 194.887 215.875 192.483C223.937 189.777 231.9 184.621 236.061 176.976C242.515 165.122 236.66 150.5 225.541 143.927C221.131 141.35 216.165 139.875 211.064 139.627C205.005 139.309 198.784 140.459 193.548 143.593L191.709 148.311Z" fill="#493628"/>
<path fill-rule="evenodd" clip-rule="evenodd" d="M168.122 110.639C164.094 118.24 158.898 134.861 156.187 142.973C152.728 153.388 151.35 161.283 156.667 170.609C162.956 181.674 183.951 177.349 194.224 174.507C196.491 173.878 198.729 173.151 200.933 172.327C204.041 171.19 207.059 169.822 209.962 168.233C215.953 164.885 220.954 160.284 225.431 155.125C226.719 153.646 227.872 152.029 229.235 150.622C229.64 150.201 230.254 149.581 230.912 149.658C232.021 149.785 232.275 151.829 232.424 152.624C232.994 155.918 232.949 159.36 232.724 162.683C231.841 175.816 227.573 188.936 215.832 196.109C208.584 200.54 199.555 201.918 191.288 203.131C183.037 204.341 174.352 205.435 165.996 204.673C151.08 203.313 135.342 196.832 127.181 183.605C117.747 168.282 122.089 147.804 129.831 132.732C131.763 128.975 133.995 125.361 136.645 122.068C141.811 115.651 148.73 109.81 156.891 107.851L168.122 110.639Z" fill="black" fill-opacity="0.1"/>
</g>
<path fill-rule="evenodd" clip-rule="evenodd" d="M92.4736 92.329C91.7386 91.1723 90.342 90.342 88.74 90.108C87.1619 89.8544 85.5466 90.218 84.2294 91.1234L16.2447 140.06C14.4823 141.329 13.997 143.389 15.0669 145.073L100.625 279.749C101.37 280.923 102.755 281.736 104.369 281.987C105.947 282.241 107.562 281.877 108.879 280.972L176.864 232.035C178.626 230.767 179.111 228.706 178.041 227.022L92.4736 92.329ZM91.4519 92.743L177.02 227.437C177.852 228.747 177.477 230.356 176.09 231.354L108.106 280.291C107.074 280.997 105.812 281.285 104.576 281.096C103.31 280.916 102.23 280.256 101.646 279.338L16.0888 144.66C15.2457 143.333 15.6208 141.724 17.0068 140.726L84.9908 91.789C86.023 91.0833 87.2846 90.7955 88.5208 90.9839C89.7986 91.1803 90.8683 91.8236 91.4519 92.7421V92.743Z" fill="#AB886D"/>
<path fill-rule="evenodd" clip-rule="evenodd" d="M105.63 91.1002C105.506 90.9014 105.341 90.7308 105.147 90.5994C104.953 90.468 104.734 90.3786 104.503 90.337C104.277 90.2939 104.044 90.2964 103.818 90.3442C103.593 90.392 103.379 90.4842 103.189 90.6154L30.733 142.771C30.3782 143.028 30.1355 143.412 30.0545 143.843C29.9735 144.274 30.0605 144.719 30.2976 145.088L115.018 278.447C115.141 278.643 115.304 278.811 115.496 278.94C115.688 279.069 115.906 279.155 116.134 279.194C116.36 279.242 116.594 279.242 116.821 279.194C117.047 279.146 117.261 279.051 117.449 278.916L189.904 226.76C190.26 226.508 190.504 226.128 190.587 225.699C190.67 225.271 190.585 224.827 190.35 224.46L105.63 91.1002Z" fill="#E3D6C5"/>
<path fill-rule="evenodd" clip-rule="evenodd" d="M160.578 195.969C159.372 194.072 157.13 192.725 154.501 192.339C151.872 191.952 149.174 192.559 147.187 193.989L109.331 221.238C104.507 224.71 103.207 230.314 106.139 234.93C107.345 236.828 109.586 238.173 112.215 238.559C114.844 238.945 117.542 238.339 119.52 236.916L157.385 209.659C162.199 206.195 163.51 200.585 160.578 195.969ZM159.762 196.295L159.763 196.297C162.508 200.619 161.28 205.871 156.771 209.117L118.906 236.374C117.142 237.644 114.726 238.189 112.379 237.843C110.042 237.491 108.031 236.297 106.955 234.603C104.209 230.282 105.437 225.029 109.946 221.783L147.811 194.526C149.575 193.256 151.991 192.711 154.327 193.062C156.674 193.407 158.685 194.601 159.761 196.295H159.762Z" fill="white"/>
<path fill-rule="evenodd" clip-rule="evenodd" d="M191.03 183.874C190.269 182.676 189.271 181.647 188.098 180.848C186.925 180.05 185.601 179.5 184.207 179.232C182.814 178.963 181.38 178.983 179.994 179.288C178.608 179.593 177.3 180.179 176.148 181.008L127.704 215.879C125.257 217.639 123.576 220.268 123.006 223.228C122.436 226.187 123.02 229.253 124.637 231.796C125.398 232.994 126.396 234.024 127.569 234.823C128.742 235.622 130.066 236.172 131.46 236.44C132.854 236.709 134.288 236.69 135.674 236.384C137.06 236.078 138.368 235.492 139.52 234.662L187.964 199.791C190.408 198.03 192.087 195.401 192.658 192.442C193.228 189.484 192.646 186.42 191.032 183.876L191.03 183.874Z" fill="#AB886D"/>
<path fill-rule="evenodd" clip-rule="evenodd" d="M135.041 157.069C134.733 156.585 134.33 156.169 133.856 155.847C133.382 155.525 132.847 155.302 132.284 155.194C131.721 155.086 131.142 155.094 130.582 155.218C130.022 155.342 129.494 155.579 129.029 155.915L81.6674 190.007C80.685 190.713 80.01 191.768 79.7806 192.956C79.5513 194.144 79.785 195.374 80.4339 196.395C80.7409 196.878 81.1432 197.294 81.6163 197.616C82.0893 197.938 82.6231 198.16 83.185 198.269C83.7469 198.377 84.3251 198.37 84.8841 198.248C85.4431 198.125 85.9712 197.89 86.4361 197.556L133.807 163.458C134.79 162.752 135.465 161.697 135.694 160.509C135.924 159.322 135.69 158.091 135.041 157.07L135.041 157.069ZM145.118 172.928C144.811 172.444 144.408 172.028 143.933 171.706C143.459 171.383 142.924 171.161 142.361 171.053C141.798 170.945 141.219 170.953 140.659 171.077C140.1 171.201 139.571 171.438 139.106 171.773L91.7447 205.866C90.7623 206.572 90.0873 207.627 89.8579 208.815C89.6286 210.003 89.8623 211.234 90.5112 212.255C90.8182 212.738 91.2205 213.153 91.6936 213.475C92.1666 213.797 92.7004 214.019 93.2623 214.128C93.8242 214.237 94.4023 214.23 94.9613 214.107C95.5204 213.985 96.0485 213.749 96.5134 213.416L143.884 179.317C144.866 178.611 145.542 177.556 145.771 176.368C146.001 175.181 145.767 173.95 145.118 172.929V172.928Z" fill="white"/>
<path d="M101.514 161.914C110.565 153.415 112.189 140.44 105.141 132.936C98.0939 125.431 85.0434 126.237 75.9922 134.737C66.9411 143.236 65.3168 156.21 72.3643 163.715C79.4118 171.22 92.4624 170.414 101.514 161.914Z" fill="white"/>
<path fill-rule="evenodd" clip-rule="evenodd" d="M86.8714 157.666C84.245 157.626 81.8775 156.474 80.4857 154.283C77.9627 150.311 79.6099 144.421 84.1725 141.136C88.7351 137.852 94.5045 138.407 97.027 142.378C98.6589 144.947 98.5255 148.324 97.0191 151.27C103.204 149.189 108.739 150.22 110.135 154.063C111.768 158.575 107.065 165.269 99.648 168.998C92.2306 172.727 84.8597 172.098 83.2268 167.586C82.208 164.718 83.718 160.974 86.8714 157.666Z" fill="#D6C0B3"/>
<path fill-rule="evenodd" clip-rule="evenodd" d="M220.6 248.965C222.188 219.015 211.66 192.949 212.619 175.827C213.233 164.965 208.53 148.845 226.381 146.233C241.685 143.994 260.599 148.039 264.327 152.157C271.875 160.465 269.134 205.513 261.961 211.657C247.585 220.836 231.832 239.794 220.6 248.965Z" fill="#493628"/>
<mask id="mask1_1_91" style="mask-type:luminance" maskUnits="userSpaceOnUse" x="212" y="145" width="57" height="104">
<path d="M220.6 248.965C222.188 219.015 211.66 192.949 212.619 175.827C213.233 164.965 208.53 148.845 226.381 146.233C241.685 143.994 260.599 148.039 264.327 152.157C271.875 160.465 269.134 205.513 261.961 211.657C247.585 220.836 231.832 239.794 220.6 248.965Z" fill="white"/>
</mask>
<g mask="url(#mask1_1_91)">
<path fill-rule="evenodd" clip-rule="evenodd" d="M251.552 168.615C250.309 170.274 249.605 172.327 249.021 174.292C247.478 179.358 247.419 184.413 248.122 189.626C248.811 194.774 250.174 200.107 249.245 205.314C248.542 209.166 246.475 212.351 244.454 215.621C239.378 223.847 236.382 226.549 229.508 232.648C225.6 236.104 217.978 250.311 219.131 255.84C219.925 259.696 226.019 255.952 228.311 254.773C234.526 251.57 240.081 247.067 246.146 243.55C254.802 238.517 264.535 234.169 271.02 226.247C279.63 215.717 280.663 199.796 277.354 187.03C275.781 180.953 273.011 174.593 267.545 171.107L251.552 168.615Z" fill="black" fill-opacity="0.1"/>
</g>
<path fill-rule="evenodd" clip-rule="evenodd" d="M262.558 152.7C272.847 157.043 293.799 216.158 281.755 227.171C269.712 238.184 190.312 218.783 190.312 218.783C188.037 219.691 182.358 220.868 179.76 219.432C175.85 217.262 178.256 212.417 177.027 209.949C175.452 206.776 164.197 213.916 164.65 207.77C164.933 204.135 183.179 202.101 188.887 204.404C190.928 205.224 191.517 207.418 191.517 207.418C191.517 207.418 248.07 212.656 253.958 208.521C261.239 203.398 242.988 184.927 245.828 164.048C247.576 151.215 256.909 150.31 262.558 152.7Z" fill="#F6CDB3"/>
<mask id="mask2_1_91" style="mask-type:luminance" maskUnits="userSpaceOnUse" x="164" y="151" width="122" height="80">
<path d="M262.558 152.7C272.847 157.043 293.799 216.158 281.755 227.171C269.712 238.184 190.312 218.783 190.312 218.783C188.037 219.691 182.358 220.868 179.76 219.432C175.85 217.262 178.256 212.417 177.027 209.949C175.452 206.776 164.197 213.916 164.65 207.77C164.933 204.135 183.179 202.101 188.887 204.404C190.928 205.224 191.517 207.418 191.517 207.418C191.517 207.418 248.07 212.656 253.958 208.521C261.239 203.398 242.988 184.927 245.828 164.048C247.576 151.215 256.909 150.31 262.558 152.7Z" fill="white"/>
</mask>
<g mask="url(#mask2_1_91)">
<path fill-rule="evenodd" clip-rule="evenodd" d="M246.314 191.02C247.642 188.377 251.725 187.032 254.27 186.141C256.959 185.197 259.825 184.781 262.67 185.195C266.953 185.819 270.789 188.077 275.105 188.482C278.317 188.782 281.706 187.916 284.495 186.314C285.8 185.566 286.96 184.59 287.92 183.433C293.572 176.578 288.874 165.582 285.168 158.996C280.998 151.585 274.44 144.73 266.15 142.078C253.296 137.962 240.032 146.456 235.661 158.61C233.957 163.425 233.44 168.58 234.154 173.637C234.978 179.648 237.274 185.543 241.336 190.098L246.314 191.02Z" fill="#493628"/>
</g>
<path fill-rule="evenodd" clip-rule="evenodd" d="M228.811 145.829C228.811 145.829 234.846 141.365 233.439 136.665C233.079 135.431 230.354 138.909 227.898 137.403C224.544 135.333 223.735 123.403 227.524 117.196C229.875 113.349 238.141 111.041 240.836 113.662C243.532 116.283 244.595 127.453 243.667 132.922C242.199 141.647 250.151 146.895 250.151 146.895C250.151 146.895 236.943 157.466 233.618 166.24C232.645 168.817 228.811 145.829 228.811 145.829Z" fill="#F6CDB3"/>
<mask id="mask3_1_91" style="mask-type:luminance" maskUnits="userSpaceOnUse" x="225" y="112" width="26" height="55">
<path d="M228.811 145.829C228.811 145.829 234.846 141.365 233.439 136.665C233.079 135.431 230.354 138.909 227.898 137.403C224.544 135.333 223.735 123.403 227.524 117.196C229.875 113.349 238.141 111.041 240.836 113.662C243.532 116.283 244.595 127.453 243.667 132.922C242.199 141.647 250.151 146.895 250.151 146.895C250.151 146.895 236.943 157.466 233.618 166.24C232.645 168.817 228.811 145.829 228.811 145.829Z" fill="white"/>
</mask>
<g mask="url(#mask3_1_91)">
<path fill-rule="evenodd" clip-rule="evenodd" d="M231.864 137.308C232.344 137.049 232.733 136.52 233.092 136.125C233.918 135.24 234.679 134.296 235.369 133.302C235.623 132.906 235.878 132.502 236.162 132.111C236.222 132.012 236.387 131.725 236.537 131.725C236.687 131.725 236.597 132.219 236.582 132.283C236.482 132.974 236.321 133.656 236.102 134.319C235.279 137.036 233.587 139.069 231.775 141.182L231.864 137.308Z" fill="black" fill-opacity="0.1"/>
</g>
<path fill-rule="evenodd" clip-rule="evenodd" d="M229.366 122.237C228.242 122.17 227.194 121.514 226.326 120.843C222.986 118.27 223.211 113.794 226.116 110.973C227.868 109.279 231.462 108.148 233.139 110.533C233.678 109.769 234.801 109.445 235.655 109.246C236.348 109.062 237.067 108.999 237.781 109.06C242.663 109.718 241.525 115.853 245.239 117.815C246.452 117.035 247.785 119.585 248.024 120.362C248.848 123.065 248.489 127.685 245.374 128.763C245.104 129.489 244.415 130 243.801 130.419C242.109 131.583 239.384 132.415 237.497 131.213C237.27 131.066 237.063 130.89 236.883 130.689C235.535 129.19 236.958 127.481 237.407 125.924C237.647 125.103 237.841 124.076 237.123 123.43C236.539 122.924 235.954 123.212 235.49 123.7C234.786 124.445 234.397 125.617 233.274 125.827C231.657 126.126 230.084 124.572 229.575 123.482C229.47 123.251 229.366 122.237 229.366 122.237Z" fill="black"/>
<path fill-rule="evenodd" clip-rule="evenodd" d="M219.04 110.337C219.041 109.811 218.894 109.295 218.616 108.848C218.337 108.401 217.94 108.04 217.467 107.808L157.32 78.228C156.89 78.0181 156.414 77.9209 155.936 77.9455C155.458 77.97 154.995 78.1155 154.588 78.3683C154.182 78.6212 153.847 78.973 153.614 79.3909C153.381 79.8088 153.258 80.279 153.257 80.7574V90.7114C153.258 91.2374 153.406 91.7527 153.684 92.1994C153.962 92.646 154.358 93.0064 154.83 93.24L214.989 122.826C215.418 123.037 215.894 123.134 216.372 123.11C216.85 123.085 217.314 122.939 217.72 122.685C218.125 122.431 218.459 122.078 218.69 121.659C218.921 121.24 219.042 120.768 219.04 120.29L219.04 110.337Z" fill="#AB886D"/>
<path fill-rule="evenodd" clip-rule="evenodd" d="M161.742 92.9678L160.462 91.5198L162.127 89.8278L159.183 87.6003L159.576 86.346L162.521 88.5732L162.365 85.5025L163.887 86.1746L164.043 89.2453L166.891 89.5749L167.433 91.242L164.585 90.9123L166.502 94.1863L165.314 94.545L163.406 91.2741L161.742 92.9678ZM172.336 98.172L171.056 96.7237L172.721 95.0317L169.777 92.8048L170.171 91.5505L173.115 93.7775L172.959 90.7071L174.482 91.3792L174.637 94.4496L177.485 94.7794L178.027 96.4463L175.179 96.1168L177.097 99.3908L175.909 99.7494L174.001 96.4786L172.336 98.172ZM183.688 103.235L182.408 101.787L184.073 100.095L181.129 97.868L181.523 96.6137L184.467 98.8409L184.311 95.7703L185.834 96.4424L185.989 99.513L188.837 99.8426L189.379 101.51L186.531 101.18L188.448 104.454L187.26 104.813L185.352 101.542L183.688 103.235ZM194.773 109.207L193.493 107.759L195.158 106.067L192.214 103.839L192.608 102.585L195.552 104.812L195.396 101.742L196.918 102.414L197.074 105.485L199.922 105.814L200.464 107.481L197.616 107.152L199.533 110.426L198.345 110.784L196.437 107.513L194.773 109.207ZM206.47 114.96L205.19 113.511L206.855 111.819L203.911 109.592L204.305 108.338L207.249 110.565L207.093 107.495L208.616 108.167L208.772 111.237L211.619 111.567L212.161 113.234L209.313 112.904L211.231 116.178L210.043 116.537L208.135 113.266L206.47 114.96Z" fill="white"/>
<path fill-rule="evenodd" clip-rule="evenodd" d="M181.226 110.185C182.162 109.123 187.782 106.564 189.258 106.359C191.61 106.013 193.825 107.554 193.01 109.792C192.686 110.652 185.567 112.63 183.608 112.7C182.807 112.726 180.852 110.605 181.226 110.185Z" fill="#F6CDB3"/>
<path d="M146.133 219.979C145.8 220.223 145.5 220.396 145.235 220.497C144.973 220.596 144.742 220.65 144.543 220.658C144.344 220.662 144.177 220.646 144.041 220.608C143.992 220.592 143.947 220.574 143.905 220.556C143.864 220.538 143.825 220.512 143.788 220.478C143.739 220.434 143.679 220.373 143.607 220.297C143.533 220.218 143.458 220.119 143.384 220C143.352 219.951 143.337 219.911 143.339 219.881C143.342 219.847 143.361 219.809 143.395 219.768C143.458 219.694 143.545 219.606 143.656 219.504C143.768 219.398 143.85 219.326 143.903 219.287C143.958 219.247 144.011 219.225 144.06 219.221C144.11 219.217 144.176 219.223 144.26 219.238C144.353 219.255 144.495 219.259 144.688 219.252C144.878 219.242 145.107 219.139 145.375 218.943C145.632 218.754 145.787 218.558 145.84 218.354C145.893 218.15 145.849 217.953 145.708 217.761C145.633 217.658 145.532 217.586 145.403 217.542C145.276 217.495 145.098 217.486 144.869 217.516C144.639 217.543 144.337 217.617 143.961 217.738C143.339 217.935 142.827 217.99 142.423 217.901C142.02 217.813 141.656 217.547 141.331 217.103C141.062 216.735 140.926 216.363 140.924 215.985C140.922 215.607 141.033 215.24 141.256 214.883C141.479 214.527 141.797 214.197 142.209 213.896C142.527 213.663 142.818 213.509 143.081 213.433C143.345 213.353 143.569 213.318 143.754 213.328C143.937 213.336 144.067 213.356 144.143 213.388C144.189 213.407 144.221 213.424 144.24 213.438C144.26 213.448 144.281 213.467 144.305 213.494C144.372 213.57 144.441 213.658 144.512 213.76C144.582 213.862 144.656 213.981 144.732 214.119C144.755 214.167 144.762 214.206 144.752 214.238C144.743 214.264 144.719 214.292 144.68 214.321C144.429 214.512 144.222 214.643 144.06 214.714C143.995 214.741 143.949 214.755 143.921 214.755C143.893 214.755 143.854 214.752 143.804 214.744C143.725 214.725 143.616 214.716 143.476 214.717C143.337 214.715 143.167 214.786 142.967 214.932C142.692 215.134 142.542 215.34 142.519 215.551C142.493 215.759 142.537 215.94 142.651 216.095C142.785 216.279 142.976 216.361 143.224 216.342C143.47 216.319 143.825 216.239 144.289 216.101C144.675 215.984 145.024 215.908 145.337 215.873C145.65 215.837 145.937 215.876 146.196 215.988C146.459 216.099 146.708 216.316 146.944 216.639C147.239 217.041 147.389 217.443 147.397 217.844C147.407 218.244 147.3 218.627 147.076 218.993C146.852 219.354 146.538 219.683 146.133 219.979ZM144.969 212.458C144.944 212.424 144.932 212.386 144.934 212.344C144.936 212.302 144.938 212.248 144.942 212.181C144.954 212.043 144.975 211.893 145.005 211.73C145.033 211.564 145.065 211.401 145.101 211.241C145.128 211.145 145.157 211.086 145.188 211.063C145.22 211.04 145.287 211.029 145.389 211.031C145.736 211.059 146.048 211.105 146.325 211.169C146.388 211.184 146.44 211.197 146.483 211.211C146.525 211.22 146.559 211.242 146.584 211.276C146.609 211.31 146.62 211.349 146.615 211.392C146.613 211.434 146.61 211.491 146.606 211.562C146.595 211.695 146.577 211.844 146.551 212.008C146.524 212.169 146.491 212.328 146.453 212.485C146.439 212.544 146.426 212.586 146.412 212.612C146.397 212.635 146.38 212.653 146.362 212.667C146.343 212.68 146.321 212.691 146.294 212.698C146.268 212.701 146.222 212.702 146.157 212.701C145.991 212.694 145.828 212.678 145.669 212.654C145.507 212.626 145.358 212.596 145.221 212.563C145.156 212.546 145.105 212.534 145.066 212.525C145.026 212.514 144.994 212.492 144.969 212.458ZM150.163 216.565C150.221 216.644 150.244 216.711 150.233 216.768C150.223 216.82 150.178 216.875 150.099 216.932L149.288 217.526C149.209 217.584 149.142 217.611 149.086 217.607C149.032 217.598 148.976 217.555 148.918 217.476L146.271 213.858C146.214 213.779 146.19 213.714 146.201 213.662C146.212 213.605 146.257 213.548 146.335 213.491L147.147 212.897C147.226 212.839 147.293 212.815 147.347 212.823C147.403 212.827 147.459 212.868 147.517 212.947L150.163 216.565ZM152.614 209.478L154.952 212.674C155.513 213.441 155.722 214.186 155.577 214.909C155.435 215.63 154.983 216.269 154.221 216.827C153.906 217.058 153.639 217.216 153.42 217.304C153.204 217.394 153.033 217.452 152.908 217.479C152.826 217.495 152.764 217.493 152.723 217.475C152.666 217.452 152.591 217.413 152.497 217.356C152.406 217.298 152.31 217.231 152.21 217.155C152.175 217.124 152.154 217.097 152.146 217.075C152.137 217.041 152.137 216.999 152.144 216.949C152.157 216.867 152.184 216.763 152.224 216.636C152.267 216.508 152.306 216.417 152.34 216.364C152.376 216.309 152.424 216.278 152.483 216.271C152.579 216.258 152.706 216.227 152.864 216.18C153.028 216.133 153.225 216.025 153.456 215.856C153.824 215.587 154.054 215.273 154.147 214.915C154.24 214.556 154.142 214.18 153.854 213.786L153.75 213.644L153.734 213.656C153.73 213.772 153.71 213.901 153.674 214.045C153.638 214.188 153.565 214.34 153.457 214.5C153.351 214.658 153.183 214.821 152.955 214.988C152.558 215.279 152.17 215.432 151.79 215.447C151.411 215.458 151.05 215.357 150.709 215.143C150.369 214.928 150.058 214.627 149.776 214.241C149.466 213.818 149.258 213.387 149.152 212.949C149.045 212.511 149.085 212.074 149.271 211.64C149.455 211.202 149.832 210.775 150.402 210.358C150.744 210.108 151.048 209.924 151.316 209.805C151.586 209.683 151.827 209.602 152.039 209.56C152.25 209.518 152.442 209.491 152.614 209.478ZM151.057 211.344C150.752 211.566 150.594 211.839 150.584 212.161C150.574 212.483 150.726 212.86 151.041 213.291C151.535 213.966 152.061 214.1 152.618 213.692C152.836 213.533 152.97 213.366 153.02 213.192C153.07 213.018 153.074 212.842 153.032 212.663L151.842 211.035C151.753 211.036 151.643 211.056 151.511 211.096C151.379 211.136 151.227 211.219 151.057 211.344ZM158.418 206.992L160.102 209.294C160.16 209.373 160.183 209.44 160.172 209.497C160.162 209.549 160.117 209.604 160.038 209.661L159.226 210.255C159.148 210.313 159.08 210.34 159.025 210.336C158.971 210.327 158.914 210.284 158.857 210.205L157.323 208.108C157.114 207.822 156.9 207.657 156.683 207.614C156.466 207.571 156.254 207.626 156.047 207.778C155.839 207.929 155.711 208.091 155.664 208.263C155.619 208.433 155.616 208.609 155.656 208.79L157.446 211.237C157.504 211.316 157.527 211.383 157.516 211.44C157.505 211.492 157.461 211.547 157.382 211.604L156.57 212.198C156.491 212.256 156.424 212.283 156.369 212.279C156.314 212.27 156.258 212.227 156.201 212.148L153.785 208.846C153.739 208.782 153.716 208.724 153.717 208.671C153.719 208.557 153.73 208.434 153.75 208.302C153.773 208.168 153.81 208.017 153.859 207.847C153.874 207.796 153.897 207.759 153.929 207.736C153.958 207.715 154 207.704 154.056 207.703C154.23 207.709 154.385 207.723 154.521 207.744C154.658 207.765 154.787 207.796 154.909 207.835L154.929 207.821C154.931 207.731 154.949 207.615 154.983 207.473C155.014 207.329 155.088 207.168 155.204 206.99C155.323 206.811 155.508 206.629 155.761 206.444C156.008 206.263 156.279 206.141 156.576 206.078C156.872 206.014 157.178 206.049 157.492 206.181C157.81 206.312 158.119 206.582 158.418 206.992ZM164.768 205.88C164.826 205.959 164.849 206.027 164.838 206.083C164.827 206.135 164.783 206.19 164.704 206.248L163.865 206.862C163.786 206.919 163.719 206.946 163.663 206.942C163.609 206.934 163.553 206.89 163.495 206.811L159.975 202C159.919 201.924 159.89 201.856 159.887 201.797C159.879 201.538 159.911 201.234 159.983 200.886C160 200.826 160.022 200.785 160.051 200.764C160.083 200.741 160.127 200.733 160.184 200.739C160.373 200.755 160.54 200.779 160.686 200.814C160.831 200.845 160.962 200.882 161.082 200.924C161.139 200.947 161.194 200.995 161.248 201.068L164.768 205.88ZM168.034 199.958L169.718 202.259C169.775 202.338 169.799 202.406 169.788 202.462C169.777 202.514 169.733 202.569 169.654 202.627L168.842 203.22C168.763 203.278 168.696 203.305 168.641 203.301C168.586 203.293 168.53 203.249 168.472 203.17L166.939 201.074C166.729 200.787 166.516 200.623 166.299 200.58C166.082 200.537 165.87 200.591 165.662 200.743C165.455 200.895 165.327 201.057 165.279 201.229C165.234 201.399 165.232 201.574 165.271 201.755L167.062 204.202C167.119 204.281 167.142 204.349 167.131 204.405C167.121 204.457 167.076 204.512 166.998 204.57L166.186 205.164C166.107 205.221 166.04 205.248 165.985 205.244C165.93 205.236 165.874 205.192 165.816 205.113L163.4 201.811C163.354 201.748 163.332 201.69 163.333 201.636C163.334 201.522 163.345 201.399 163.366 201.268C163.389 201.134 163.425 200.982 163.475 200.813C163.49 200.761 163.513 200.724 163.544 200.701C163.573 200.68 163.616 200.669 163.672 200.669C163.845 200.675 164.001 200.688 164.137 200.709C164.274 200.73 164.403 200.761 164.525 200.801L164.544 200.786C164.547 200.696 164.565 200.58 164.598 200.438C164.63 200.294 164.704 200.133 164.82 199.956C164.939 199.776 165.124 199.594 165.376 199.409C165.623 199.229 165.895 199.107 166.191 199.043C166.488 198.98 166.793 199.014 167.108 199.147C167.425 199.278 167.734 199.548 168.034 199.958Z" fill="#FFFBFB"/>
<path d="M146.133 219.979C145.8 220.223 145.5 220.396 145.235 220.497C144.973 220.596 144.742 220.65 144.543 220.658C144.344 220.662 144.177 220.646 144.041 220.608C143.992 220.592 143.947 220.574 143.905 220.556C143.864 220.538 143.825 220.512 143.788 220.478C143.739 220.434 143.679 220.373 143.607 220.297C143.533 220.218 143.458 220.119 143.384 220C143.352 219.951 143.337 219.911 143.339 219.881C143.342 219.847 143.361 219.809 143.395 219.768C143.458 219.694 143.545 219.606 143.656 219.504C143.768 219.398 143.85 219.326 143.903 219.287C143.958 219.247 144.011 219.225 144.06 219.221C144.11 219.217 144.176 219.223 144.26 219.238C144.353 219.255 144.495 219.259 144.688 219.252C144.878 219.242 145.107 219.139 145.375 218.943C145.632 218.754 145.787 218.558 145.84 218.354C145.893 218.15 145.849 217.953 145.708 217.761C145.633 217.658 145.532 217.586 145.403 217.542C145.276 217.495 145.098 217.486 144.869 217.516C144.639 217.543 144.337 217.617 143.961 217.738C143.339 217.935 142.827 217.99 142.423 217.901C142.02 217.813 141.656 217.547 141.331 217.103C141.062 216.735 140.926 216.363 140.924 215.985C140.922 215.607 141.033 215.24 141.256 214.883C141.479 214.527 141.797 214.197 142.209 213.896C142.527 213.663 142.818 213.509 143.081 213.433C143.345 213.353 143.569 213.318 143.754 213.328C143.937 213.336 144.067 213.356 144.143 213.388C144.189 213.407 144.221 213.424 144.24 213.438C144.26 213.448 144.281 213.467 144.305 213.494C144.372 213.57 144.441 213.658 144.512 213.76C144.582 213.862 144.656 213.981 144.732 214.119C144.755 214.167 144.762 214.206 144.752 214.238C144.743 214.264 144.719 214.292 144.68 214.321C144.429 214.512 144.222 214.643 144.06 214.714C143.995 214.741 143.949 214.755 143.921 214.755C143.893 214.755 143.854 214.752 143.804 214.744C143.725 214.725 143.616 214.716 143.476 214.717C143.337 214.715 143.167 214.786 142.967 214.932C142.692 215.134 142.542 215.34 142.519 215.551C142.493 215.759 142.537 215.94 142.651 216.095C142.785 216.279 142.976 216.361 143.224 216.342C143.47 216.319 143.825 216.239 144.289 216.101C144.675 215.984 145.024 215.908 145.337 215.873C145.65 215.837 145.937 215.876 146.196 215.988C146.459 216.099 146.708 216.316 146.944 216.639C147.239 217.041 147.389 217.443 147.397 217.844C147.407 218.244 147.3 218.627 147.076 218.993C146.852 219.354 146.538 219.683 146.133 219.979ZM144.969 212.458C144.944 212.424 144.932 212.386 144.934 212.344C144.936 212.302 144.938 212.248 144.942 212.181C144.954 212.043 144.975 211.893 145.005 211.73C145.033 211.564 145.065 211.401 145.101 211.241C145.128 211.145 145.157 211.086 145.188 211.063C145.22 211.04 145.287 211.029 145.389 211.031C145.736 211.059 146.048 211.105 146.325 211.169C146.388 211.184 146.44 211.197 146.483 211.211C146.525 211.22 146.559 211.242 146.584 211.276C146.609 211.31 146.62 211.349 146.615 211.392C146.613 211.434 146.61 211.491 146.606 211.562C146.595 211.695 146.577 211.844 146.551 212.008C146.524 212.169 146.491 212.328 146.453 212.485C146.439 212.544 146.426 212.586 146.412 212.612C146.397 212.635 146.38 212.653 146.362 212.667C146.343 212.68 146.321 212.691 146.294 212.698C146.268 212.701 146.222 212.702 146.157 212.701C145.991 212.694 145.828 212.678 145.669 212.654C145.507 212.626 145.358 212.596 145.221 212.563C145.156 212.546 145.105 212.534 145.066 212.525C145.026 212.514 144.994 212.492 144.969 212.458ZM150.163 216.565C150.221 216.644 150.244 216.711 150.233 216.768C150.223 216.82 150.178 216.875 150.099 216.932L149.288 217.526C149.209 217.584 149.142 217.611 149.086 217.607C149.032 217.598 148.976 217.555 148.918 217.476L146.271 213.858C146.214 213.779 146.19 213.714 146.201 213.662C146.212 213.605 146.257 213.548 146.335 213.491L147.147 212.897C147.226 212.839 147.293 212.815 147.347 212.823C147.403 212.827 147.459 212.868 147.517 212.947L150.163 216.565ZM152.614 209.478L154.952 212.674C155.513 213.441 155.722 214.186 155.577 214.909C155.435 215.63 154.983 216.269 154.221 216.827C153.906 217.058 153.639 217.216 153.42 217.304C153.204 217.394 153.033 217.452 152.908 217.479C152.826 217.495 152.764 217.493 152.723 217.475C152.666 217.452 152.591 217.413 152.497 217.356C152.406 217.298 152.31 217.231 152.21 217.155C152.175 217.124 152.154 217.097 152.146 217.075C152.137 217.041 152.137 216.999 152.144 216.949C152.157 216.867 152.184 216.763 152.224 216.636C152.267 216.508 152.306 216.417 152.34 216.364C152.376 216.309 152.424 216.278 152.483 216.271C152.579 216.258 152.706 216.227 152.864 216.18C153.028 216.133 153.225 216.025 153.456 215.856C153.824 215.587 154.054 215.273 154.147 214.915C154.24 214.556 154.142 214.18 153.854 213.786L153.75 213.644L153.734 213.656C153.73 213.772 153.71 213.901 153.674 214.045C153.638 214.188 153.565 214.34 153.457 214.5C153.351 214.658 153.183 214.821 152.955 214.988C152.558 215.279 152.17 215.432 151.79 215.447C151.411 215.458 151.05 215.357 150.709 215.143C150.369 214.928 150.058 214.627 149.776 214.241C149.466 213.818 149.258 213.387 149.152 212.949C149.045 212.511 149.085 212.074 149.271 211.64C149.455 211.202 149.832 210.775 150.402 210.358C150.744 210.108 151.048 209.924 151.316 209.805C151.586 209.683 151.827 209.602 152.039 209.56C152.25 209.518 152.442 209.491 152.614 209.478ZM151.057 211.344C150.752 211.566 150.594 211.839 150.584 212.161C150.574 212.483 150.726 212.86 151.041 213.291C151.535 213.966 152.061 214.1 152.618 213.692C152.836 213.533 152.97 213.366 153.02 213.192C153.07 213.018 153.074 212.842 153.032 212.663L151.842 211.035C151.753 211.036 151.643 211.056 151.511 211.096C151.379 211.136 151.227 211.219 151.057 211.344ZM158.418 206.992L160.102 209.294C160.16 209.373 160.183 209.44 160.172 209.497C160.162 209.549 160.117 209.604 160.038 209.661L159.226 210.255C159.148 210.313 159.08 210.34 159.025 210.336C158.971 210.327 158.914 210.284 158.857 210.205L157.323 208.108C157.114 207.822 156.9 207.657 156.683 207.614C156.466 207.571 156.254 207.626 156.047 207.778C155.839 207.929 155.711 208.091 155.664 208.263C155.619 208.433 155.616 208.609 155.656 208.79L157.446 211.237C157.504 211.316 157.527 211.383 157.516 211.44C157.505 211.492 157.461 211.547 157.382 211.604L156.57 212.198C156.491 212.256 156.424 212.283 156.369 212.279C156.314 212.27 156.258 212.227 156.201 212.148L153.785 208.846C153.739 208.782 153.716 208.724 153.717 208.671C153.719 208.557 153.73 208.434 153.75 208.302C153.773 208.168 153.81 208.017 153.859 207.847C153.874 207.796 153.897 207.759 153.929 207.736C153.958 207.715 154 207.704 154.056 207.703C154.23 207.709 154.385 207.723 154.521 207.744C154.658 207.765 154.787 207.796 154.909 207.835L154.929 207.821C154.931 207.731 154.949 207.615 154.983 207.473C155.014 207.329 155.088 207.168 155.204 206.99C155.323 206.811 155.508 206.629 155.761 206.444C156.008 206.263 156.279 206.141 156.576 206.078C156.872 206.014 157.178 206.049 157.492 206.181C157.81 206.312 158.119 206.582 158.418 206.992ZM164.768 205.88C164.826 205.959 164.849 206.027 164.838 206.083C164.827 206.135 164.783 206.19 164.704 206.248L163.865 206.862C163.786 206.919 163.719 206.946 163.663 206.942C163.609 206.934 163.553 206.89 163.495 206.811L159.975 202C159.919 201.924 159.89 201.856 159.887 201.797C159.879 201.538 159.911 201.234 159.983 200.886C160 200.826 160.022 200.785 160.051 200.764C160.083 200.741 160.127 200.733 160.184 200.739C160.373 200.755 160.54 200.779 160.686 200.814C160.831 200.845 160.962 200.882 161.082 200.924C161.139 200.947 161.194 200.995 161.248 201.068L164.768 205.88ZM168.034 199.958L169.718 202.259C169.775 202.338 169.799 202.406 169.788 202.462C169.777 202.514 169.733 202.569 169.654 202.627L168.842 203.22C168.763 203.278 168.696 203.305 168.641 203.301C168.586 203.293 168.53 203.249 168.472 203.17L166.939 201.074C166.729 200.787 166.516 200.623 166.299 200.58C166.082 200.537 165.87 200.591 165.662 200.743C165.455 200.895 165.327 201.057 165.279 201.229C165.234 201.399 165.232 201.574 165.271 201.755L167.062 204.202C167.119 204.281 167.142 204.349 167.131 204.405C167.121 204.457 167.076 204.512 166.998 204.57L166.186 205.164C166.107 205.221 166.04 205.248 165.985 205.244C165.93 205.236 165.874 205.192 165.816 205.113L163.4 201.811C163.354 201.748 163.332 201.69 163.333 201.636C163.334 201.522 163.345 201.399 163.366 201.268C163.389 201.134 163.425 200.982 163.475 200.813C163.49 200.761 163.513 200.724 163.544 200.701C163.573 200.68 163.616 200.669 163.672 200.669C163.845 200.675 164.001 200.688 164.137 200.709C164.274 200.73 164.403 200.761 164.525 200.801L164.544 200.786C164.547 200.696 164.565 200.58 164.598 200.438C164.63 200.294 164.704 200.133 164.82 199.956C164.939 199.776 165.124 199.594 165.376 199.409C165.623 199.229 165.895 199.107 166.191 199.043C166.488 198.98 166.793 199.014 167.108 199.147C167.425 199.278 167.734 199.548 168.034 199.958Z" fill="#FFFBFB"/>
</svg>
