<svg width="360" height="360" viewBox="0 0 360 360" fill="none" xmlns="http://www.w3.org/2000/svg">
<g clip-path="url(#clip0_1_46)">
<path fill-rule="evenodd" clip-rule="evenodd" d="M141.3 276.69C93.6704 279.933 42.7578 241.434 42.7578 194.58C42.7578 147.723 118.252 167.692 142.742 130.504C201.419 41.4632 319.877 184.746 278.233 200.738C194.79 232.758 255.554 268.905 141.3 276.69Z" fill="#F8F2E8"/>
<path d="M271.443 192.696C271.469 192.821 271.533 192.938 271.56 193.063C271.77 194.234 271.905 195.03 271.765 196.053C271.432 198.24 269.904 200.359 270.787 203.129C271.739 207.055 276.547 209.441 277.841 205.55C278.582 202.98 277.32 199.851 275.908 197.012C275.121 195.49 274.216 194.033 273.2 192.653C274.312 192.58 275.406 192.335 276.444 191.928C276.663 191.841 276.841 191.763 277.06 191.676C277.122 191.707 277.224 191.73 277.286 191.761C279.192 190.953 280.756 190.169 282.695 189.657C286.031 188.698 290.255 187.736 290.571 184.167C290.604 183.035 289.567 181.897 288.481 181.071C287.015 180.088 285.224 179.711 283.486 180.02C280.49 180.393 278.422 182.186 277.302 184.398C276.612 185.789 276.294 187.367 276.078 188.968C276.03 189.757 275.844 190.616 276.04 191.444C274.768 191.954 273.361 192.144 271.867 192.179C271.794 192.159 271.717 192.159 271.644 192.179C271.11 192.192 270.575 192.167 270.045 192.104C269.923 189.66 270.919 187.386 271.792 185.05C272.077 184.128 272.463 183.229 272.563 182.213C273.33 182.447 274.123 182.581 274.924 182.615C276.403 182.713 277.661 181.859 277.097 180.455C276.089 178.575 272.595 177.661 270.7 177.298C269.087 177.052 267.448 177.011 265.824 177.176C265.601 177.183 265.379 177.212 265.161 177.263C266.113 176.34 267.025 175.424 267.915 174.47C268.71 173.664 269.461 172.78 270.235 171.935C272.763 172.476 275.066 173.884 277.408 175.285C280.252 177.106 283.225 179.075 286.138 178.155C288.587 177.283 288.458 174.192 285.672 172.316C282.846 170.448 279.457 169.643 276.458 169.454C275.239 169.375 274.017 169.399 272.802 169.524C272.682 169.548 272.54 169.532 272.38 169.564L274.469 167.334C275.651 166.106 276.855 164.916 278.036 163.688C278.178 163.703 278.36 163.711 278.543 163.718C279.315 163.826 279.64 163.848 280.434 163.995C282.412 164.428 284.42 165.072 286.395 165.419C288.288 165.733 290.213 165.805 292.123 165.633C293.512 165.489 294.981 165.331 296.129 164.758C298.207 163.7 298.409 161.279 295.448 159.567C292.86 158.23 289.929 157.706 287.038 158.063C286.276 158.212 285.369 158.261 284.694 158.567L284.126 158.029L284.206 158.013C285.847 157.127 287.659 156.468 289.51 155.799C291.941 154.974 294.537 154.203 297.168 153.339C298.265 153.946 299.216 154.451 300.345 155.355C303.375 157.746 305.537 161.606 308.483 164.403C310.504 166.343 315.801 169.759 318.348 169.301C323.604 168.353 313.61 160.839 311.231 159.056C308.499 157.04 305.56 155.367 302.587 153.874C301.603 153.371 300.585 152.935 299.541 152.569C303.03 151.406 306.474 150.165 309.668 148.714C310.244 148.47 310.798 148.188 311.312 147.914L311.374 147.945C311.764 148.085 312.216 148.256 312.627 148.434C313.283 148.651 314.627 149.383 314.897 149.546C320.139 152.627 323.415 158 329.112 160.861C331.509 162.121 334.533 162.911 336.447 161.798C339.609 159.098 332.608 154.068 329.388 151.975C326.339 150.107 323.034 148.897 319.745 148.029C318.097 147.57 316.414 147.25 314.713 147.071C314.182 147.004 313.647 146.979 313.113 146.996C317.064 144.926 320.758 142.397 324.117 139.461C324.281 139.515 324.463 139.523 324.627 139.578C325.569 139.843 326.494 140.167 327.396 140.548C329.72 141.519 331.483 142.6 333.588 144.134C336.192 146.003 338.811 148.214 341.915 148.989C342.993 149.166 344.232 149.312 344.958 148.779C345.582 148.224 345.721 147.2 345.076 146.288C344.188 144.861 342.607 143.786 341.11 142.783C339.746 141.869 338.321 141.05 336.844 140.332C335.053 139.429 333.175 138.711 331.238 138.189C329.69 137.752 328.116 137.411 326.526 137.169C327.106 136.535 327.686 135.901 328.244 135.229L328.284 135.221C330.694 133.88 333.522 132.89 335.131 130.755C335.781 129.848 336.346 128.871 336.274 127.63C336.301 125.849 333.729 124.278 331.882 124.079C329.951 123.809 328.642 124.89 328.174 126.28C327.681 128.023 328.128 130.013 328.003 131.856C327.975 132.724 327.862 133.587 327.666 134.433C327.647 134.474 327.639 134.519 327.641 134.563C327.642 134.608 327.655 134.652 327.676 134.691C327.002 135.473 326.326 136.256 325.572 137.053C325.019 137.633 324.434 138.181 323.821 138.697C324.158 137.548 324.042 136.229 323.361 134.935C322.939 134.022 321.901 133.361 320.877 133.043C318.567 132.415 317.928 134.056 318.871 135.819C319.577 137.239 321.125 138.969 321.065 139.977C321.077 140.253 321.068 140.53 321.039 140.805C321.013 140.851 320.998 140.903 320.997 140.956C320.996 141.009 321.008 141.062 321.032 141.109C319.394 142.395 317.675 143.572 315.884 144.634C316.533 143.251 317.016 141.727 316.58 139.995C316.191 138.426 314.585 136.751 312.69 136.864C310.915 136.954 309.723 137.924 308.756 138.981C306.798 140.968 306.47 144.279 305.722 146.678C305.386 147.827 304.824 148.89 304.24 149.914C304.186 150.054 303.97 150.227 303.999 150.438C299.421 152.118 294.729 153.518 289.944 155.066C287.892 155.774 285.861 156.52 284.002 157.492C284.812 156.553 285.581 155.622 286.329 154.653C287.283 154.768 288.147 154.641 288.695 154.187C289.3 153.678 289.035 152.648 288.259 151.978C288.656 151.337 289.094 150.688 289.47 150.008C291.561 151.198 293.576 152.013 295.165 151.354C296.51 150.656 295.48 148.738 294.067 147.804C293.471 147.397 292.841 147.043 292.184 146.746C292.878 146.222 293.616 145.758 294.389 145.36C297.831 143.557 301.931 142.534 304.885 140.176C306.373 139.017 308.039 137.78 308.445 135.881C308.577 135.163 308.621 134.288 307.984 133.548C305.562 131.211 302.27 132.725 300.407 133.611C298.805 134.406 297.435 135.6 296.429 137.078C295.437 138.486 294.798 140.127 294.035 141.706C293.711 142.358 293.353 142.992 292.963 143.606C293.057 143.457 293.131 143.27 293.225 143.121C293.93 141.597 294.51 140.01 295.091 138.424C295.171 138.408 295.189 138.362 295.269 138.346C295.302 138.324 295.329 138.295 295.349 138.261C295.368 138.227 295.38 138.189 295.383 138.15C295.372 138.064 295.341 137.981 295.292 137.908C295.31 137.862 295.328 137.815 295.368 137.807C295.424 137.819 295.481 137.811 295.532 137.785C295.582 137.76 295.622 137.717 295.645 137.666C296.689 135.079 299.954 130.496 297.41 127.144C297.066 126.833 296.62 126.659 296.156 126.655C294.943 126.634 294.312 127.494 293.921 128.307C293.038 130.386 292.978 132.823 293.588 135.343C293.746 136.051 293.944 136.749 294.181 137.435C294.268 137.591 294.275 137.762 294.403 137.91C294.005 138.075 293.63 138.279 293.233 138.444C292.846 137.212 292.57 135.948 292.408 134.666C292.176 132.98 291.923 130.303 289.927 128.964C289.62 128.791 289.259 128.741 288.917 128.824C288.575 128.908 288.278 129.119 288.086 129.414C287.247 130.618 287.643 132.359 288.254 133.926C288.795 135.29 289.514 136.575 290.394 137.748C290.76 138.253 291.172 138.722 291.625 139.151L291.647 139.19C291.035 139.527 290.423 139.864 289.871 140.232C287.786 141.595 286.017 143.286 284.267 144.929C284.092 145.093 283.935 145.211 283.76 145.375C283.523 145.032 283.327 144.681 283.13 144.33C282.492 143.182 281.943 141.988 281.485 140.758C280.693 138.706 279.58 135.288 276.921 133.56C276.068 132.992 275.128 133.221 274.767 133.768C274.179 134.706 274.783 136.103 275.256 137.265C276.108 139.262 277.462 141.203 278.973 143.027C279.865 144.064 280.735 145.061 281.726 146.035C281.955 146.207 282.148 146.472 282.396 146.596C281.229 147.692 280.022 148.795 278.815 149.899C277.735 147.731 277.047 145.788 276.185 143.533C275.352 141.489 274.493 139.321 272.661 137.559C271.172 136.251 269.506 136.535 269.075 137.833C268.275 139.982 269.283 142.814 270.637 145.23C271.523 146.704 272.584 148.065 273.797 149.284C274.522 150.026 275.287 150.728 276.088 151.387C276.296 151.52 276.485 151.699 276.692 151.831C276.127 152.332 275.544 152.88 274.979 153.381L273.283 154.884C273.243 154.891 273.203 154.899 273.225 154.938C273.184 154.945 273.207 154.985 273.207 154.985C272.776 155.329 272.328 155.72 271.897 156.065L271.857 156.072C270.413 152.936 268.684 149.77 266.059 146.91C264.85 145.546 263.499 144.167 261.841 143.195C259.998 142.129 257.171 141.214 256.914 143.299C256.818 145.353 258.372 147.255 260.259 148.875C258.999 148.214 257.647 147.787 256.371 147.735C255.614 147.696 254.87 147.949 254.293 148.441C253.716 148.933 253.35 149.627 253.268 150.381C253.149 153.349 256.183 156.301 258.335 158.952C259.504 160.323 260.578 161.844 260.569 163.101C260.551 163.495 260.486 163.886 260.375 164.265C260.321 164.405 260.204 164.515 260.291 164.671C260.316 164.722 260.351 164.767 260.394 164.804C260.438 164.84 260.489 164.866 260.543 164.881C260.444 164.977 260.354 165.082 260.273 165.194C259.479 165.524 258.811 166.001 258.705 166.845C258.715 166.934 258.705 167.025 258.676 167.11C258.631 167.202 258.573 167.286 258.504 167.361C258.134 167.871 257.792 168.401 257.479 168.948C257.634 166.839 257.869 164.715 256.985 162.421C255.592 158.583 251.651 154.726 250.491 151.145C249.906 149.225 250.086 147.718 249.93 145.93C250.134 145.976 250.313 145.898 250.346 145.718C250.448 145.265 250.532 144.859 250.657 144.445C251.037 142.898 251.351 141.71 251.833 140.187C252.1 139.312 252.406 138.429 252.713 137.546L252.753 137.538C253.317 137.427 253.889 137.357 254.463 137.331C255.549 137.204 258.159 137.253 259.401 137.485C261.981 137.799 265.213 139.198 267.076 137.835C268.465 136.739 267.297 134.415 265.468 133.216C263.323 131.691 260.644 130.962 258.411 131.186C256.76 131.338 255.52 132.144 254.361 132.935C254.155 133.069 253.945 133.198 253.731 133.319C253.968 132.234 254.166 131.156 254.433 130.281C255.153 127.671 256.306 125.279 257.335 122.825C257.539 122.872 257.718 122.793 257.9 122.801C258.385 122.792 258.87 122.783 259.336 122.821C260.744 122.931 262.14 123.163 263.508 123.515C265.163 123.925 266.846 124.546 268.511 124.739C270.869 125.054 273.198 124.682 274.536 123.336C275.772 121.967 274.17 119.901 272.207 118.859C270.2 117.739 267.977 117.267 265.933 117.194C262.937 117.091 261.187 118.258 260.081 120.337C259.779 120.83 259.038 121.495 258.437 121.614C258.223 121.692 258.002 121.75 257.777 121.787C257.963 121.404 258.087 120.99 258.252 120.568C259.176 118.005 259.371 115.412 260.954 113.152C261.797 112.033 263.594 110.554 264.484 109.123C264.922 108.474 265.36 107.825 265.736 107.145C268.506 106.686 272.007 107.295 275.083 106.906C276.228 106.724 277.365 106.371 277.978 105.556C279.222 103.882 278.053 102.035 275.448 101.119C272.676 100.063 270.397 101.161 268.604 102.25C268.028 102.637 267.51 103.104 267.065 103.636C267.212 103.099 267.392 102.572 267.605 102.057C268.046 101.018 268.586 100.392 269.505 99.6486C270.529 98.9531 271.49 98.1702 272.379 97.3086C273.058 96.9288 273.716 96.5102 274.347 96.055C275.171 95.4599 275.995 94.8647 276.444 93.9971C277.083 92.8323 277.39 90.9967 275.718 89.6807C274.797 88.9098 273.412 88.6628 272.537 89.0082C270.441 90.1136 270.195 93.4092 270.78 95.805C270.921 96.297 271.063 96.7886 271.205 97.2799L271.227 97.3188C270.837 97.6554 270.447 97.992 270.035 98.2895C269.304 98.763 268.629 99.3171 268.022 99.9414C267.986 98.6063 268.494 97.2076 268.393 95.7555C268.318 93.4756 266.614 90.9105 264.145 89.3617C261.059 87.5882 258.609 88.9364 259.271 91.7068C259.547 92.9947 260.347 94.2657 261.127 95.4978C262.051 96.8308 263.038 98.1952 264.261 99.4262C264.873 100.042 265.543 100.603 266.235 101.202C266.443 101.38 266.666 101.539 266.901 101.677C266.474 102.584 266.255 103.623 265.952 104.592C265.468 106.034 264.753 107.388 263.835 108.602C263.022 109.931 261.242 111.364 260.17 112.787C259.964 113.063 259.787 113.359 259.641 113.671C259.599 113.585 259.541 113.508 259.469 113.444C259.008 111.587 259.013 109.768 258.796 107.949C258.456 104.639 257.099 101.183 253.051 99.1222C251.233 98.1814 248.869 97.6945 247.662 98.7982C246.302 100.105 246.522 102.486 247.756 104.45C249.492 107.312 252.541 109.656 255.572 111.57C256.796 112.325 257.903 112.713 258.704 113.508L258.747 113.586C258.805 113.836 258.883 114.081 258.98 114.319C259.009 114.366 259.049 114.405 259.096 114.433C259.143 114.461 259.195 114.478 259.25 114.483C258.458 116.327 258.121 118.428 257.468 120.202C256.486 122.82 255.256 125.314 254.274 127.931C254.161 127.65 254.019 127.159 253.906 126.878C253.453 125.473 253.083 124.042 252.798 122.594C251.995 118.855 250.872 114.227 246.224 111.809C240.144 108.98 235.255 112.41 239.204 117.953C241.37 120.947 244.794 123.087 248.204 124.883C249.924 125.887 251.796 126.687 252.976 127.84C253.172 128.091 253.34 128.363 253.475 128.651C253.562 128.807 253.547 128.939 253.693 129.041L253.879 129.135C253.81 129.408 253.7 129.689 253.631 129.963C253.061 131.806 252.761 133.815 252.315 135.72C252.207 136.191 252.064 136.653 251.887 137.103C251.847 137.111 251.869 137.15 251.851 137.197C251.742 137.478 251.672 137.751 251.563 138.033C249.612 135.819 248.546 133.042 246.645 130.602C244.777 128.459 241.875 126.216 239.043 126.168C234.881 126.208 237.712 131.581 240.007 133.771C241.882 135.609 244.283 136.955 246.746 137.856C247.029 138.839 247.394 139.806 247.779 140.813C247.502 140.478 247.185 140.15 246.908 139.815C246.125 138.974 244.25 136.658 243.098 137.145C242.016 137.834 243.782 139.955 244.863 140.694C245.889 141.461 247.042 142.04 248.27 142.404L248.309 142.396C248.601 143.272 248.807 144.173 248.927 145.089C249.018 145.811 249.069 146.538 249.079 147.267C248.995 147.197 248.889 147.087 248.806 147.018C248.405 146.62 248.044 146.215 247.684 145.81C246.857 144.89 246.111 143.956 245.069 143.207C243.128 141.728 241.425 142.583 242.74 144.532C243.752 146.021 245.661 146.728 247.297 147.185C247.625 147.293 248.444 147.565 248.823 147.923L248.845 147.962C248.929 148.032 248.972 148.11 249.056 148.18C249.146 149.851 249.4 151.576 250.463 153.315C252.472 156.902 255.731 160.417 256.443 163.913C256.893 166.465 256.271 169.012 256.404 171.714C256.453 174.821 257.176 178.099 257.327 181.23C257.388 181.737 257.45 182.245 257.53 182.706C256.448 181.49 255.308 180.329 254.11 179.223C251.633 177.027 249.117 174.837 246.779 172.57C246.791 172.354 246.836 172.14 246.914 171.937C247.131 171.152 247.461 170.402 247.892 169.71C248.972 167.982 251.484 166.189 251.949 163.759C252.687 160.627 248.731 158.332 245.808 159.47C243.252 160.709 243.268 163.996 243.522 166.674C243.655 167.772 243.876 168.858 244.182 169.921L243.866 169.594C242.216 167.84 240.644 165.985 239.012 164.185C239.005 164.013 238.834 163.787 238.764 163.584C238.534 163.179 238.34 162.753 238.186 162.313C237.622 160.909 237.142 158.622 237.165 157.232C237.117 154.124 239.021 151.801 238.232 148.406C237.844 146.361 235.441 143.501 233.188 144.724C232.477 145.124 232.144 145.882 231.849 146.546C231.371 147.68 231.202 148.968 231.237 150.303C231.31 152.242 231.718 154.154 232.443 155.954C232.887 157.097 233.406 158.209 233.997 159.284C231.065 156.83 227.863 154.69 224.957 152.362C224.976 152.313 224.983 152.261 224.977 152.209C224.972 152.157 224.953 152.108 224.924 152.065C224.866 151.816 224.829 151.563 224.812 151.308C224.761 150.582 224.864 149.176 225.218 148.457C226.525 145.862 228.013 143.274 227.859 140.057C227.763 136.31 226.693 130.026 221.465 127.765C217.887 126.305 216.263 129.049 216.247 131.563C215.985 135.944 218.405 140.663 220.392 145.164C221.196 146.997 221.804 148.479 222.44 150.173C221.688 149.473 220.976 148.731 220.306 147.952C218.456 145.762 217.153 143.594 215.595 141.13C214.249 138.884 212.741 136.67 211.395 134.424C211.133 133.956 210.889 133.441 210.627 132.973C210.653 132.947 210.673 132.916 210.686 132.881C210.698 132.847 210.703 132.81 210.699 132.773C210.696 132.736 210.684 132.701 210.666 132.67C210.647 132.638 210.621 132.611 210.591 132.59C208.686 130.541 207.514 128.607 205.807 126.432C203.203 123.135 200.174 119.791 196.339 117.473C194.638 116.422 192.79 116.223 192.163 117.646C191.787 118.802 192.453 120.23 193.093 121.532C193.77 122.741 194.509 123.98 195.485 125.088C197.076 126.896 199.021 128.461 201.042 129.925C203.376 131.573 205.851 133.012 208.437 134.227L210.973 135.416C211.036 135.447 211.106 135.463 211.177 135.462C212.046 136.936 213.059 138.425 213.969 139.892C213.706 139.843 213.447 139.778 213.193 139.698C211.939 139.385 210.722 138.943 209.56 138.378C205.374 136.388 201.47 133.39 196.886 132.042C196.008 131.826 195.094 131.703 194.419 132.009C194.039 132.203 193.744 132.53 193.589 132.927C193.434 133.325 193.431 133.765 193.58 134.165C194.179 135.952 196.081 137.44 197.866 138.56C202.015 141.12 206.816 142.859 211.157 142.74C212.611 142.714 214.04 142.562 215.253 142.107L215.293 142.099C216.615 144.22 217.975 146.333 219.655 148.297C221.1 150.004 222.841 151.523 224.637 152.901C224.913 153.131 225.198 153.349 225.493 153.555C223.412 153.099 221.479 152.268 219.295 151.312C217.051 150.325 214.811 149.424 212.494 148.625C209.728 147.741 206.69 146.607 204.12 147.026C202.557 147.334 202.235 148.826 203.345 150.253C204.353 151.657 206.033 152.668 207.548 153.625C210.11 155.135 212.89 156.238 215.789 156.894C218.708 157.575 221.612 157.913 224.375 157.758C226.27 157.645 228.223 157.477 229.896 156.888C229.936 156.88 229.914 156.841 229.914 156.841C232.169 158.562 234.383 160.291 236.28 162.169C237.442 163.369 238.564 164.577 239.645 165.793C236.785 165.627 233.948 165.17 231.18 164.429C227.264 163.555 222.403 161.871 219.767 164.078C218.141 165.308 218.788 167.734 220.937 169.346C223.002 170.888 225.513 171.476 227.805 171.674C231.358 172.057 234.303 170.957 236.873 169.586C237.981 169.021 239.385 168.269 240.344 167.993C240.614 167.897 240.898 167.841 241.185 167.828L241.426 167.78C242.147 168.59 242.93 169.433 243.691 170.235C243.986 170.523 244.241 170.82 244.514 171.069L244.558 171.147C244.601 171.225 244.663 171.256 244.787 171.318L245.989 172.51C245.984 172.555 245.99 172.6 246.006 172.642C246.021 172.684 246.046 172.721 246.079 172.752C246.17 172.826 246.275 172.879 246.388 172.908C248.326 174.778 250.362 176.585 252.438 178.384C254.214 179.918 255.883 181.571 257.434 183.331C257.518 183.401 257.583 183.518 257.689 183.628C257.706 183.729 257.704 183.832 257.681 183.932C257.428 186.58 257.867 189.35 258.328 192.161C256.64 193.359 253.673 192.99 251.377 193.659C249.781 194.147 248.497 195.351 248.587 197.022C248.644 198.873 250.104 200.923 252.173 202.074C255.011 203.724 257.741 202.32 258.239 200.188C258.699 198.625 258.814 197.001 258.946 195.329C259.367 197.195 259.77 199.107 259.948 200.933C260.231 202.869 259.948 204.83 259.995 206.899C260.049 207.235 259.961 207.555 260.096 207.875C260.311 208.179 260.854 208.115 260.799 207.78C260.669 206.593 260.823 204.961 260.846 203.571C260.819 202.2 260.721 200.832 260.554 199.472C260.282 197.318 259.664 195.101 259.228 192.893L259.272 192.494C259.278 192.473 259.279 192.451 259.275 192.429C259.27 192.407 259.261 192.387 259.247 192.369C259.607 192.298 259.604 192.212 259.845 192.165C261.182 191.772 262.575 191.715 264.054 191.813C264 191.953 264.046 192.117 263.97 192.219C263.922 192.531 263.849 192.719 263.816 192.898C263.48 194.047 262.937 195.063 262.415 196.118C261.444 198.041 260.349 200.378 261.973 202.958C264.684 207.403 269.889 206.682 268.777 202.312C268.25 199.861 266.2 197.234 265.422 195.049C265.16 194.105 265.095 193.512 265.321 192.644C265.359 192.419 265.432 192.2 265.537 191.996C266.838 192.173 268.121 192.397 269.461 192.566C270.119 192.652 270.781 192.695 271.443 192.696ZM247.955 139.307C247.795 138.862 247.675 138.409 247.537 138.004C247.864 138.112 248.232 138.213 248.538 138.283C249.296 138.523 249.806 138.639 250.41 139.083L250.432 139.122L250.494 139.153C250.662 139.293 250.771 139.488 250.957 139.581C250.939 139.628 250.96 139.667 250.921 139.675C250.401 141.225 249.961 142.8 249.602 144.394C249.584 144.441 249.605 144.48 249.566 144.488C249.333 142.802 248.613 141.039 247.955 139.307ZM262.772 180.073C263.213 179.986 264.893 180.045 265.301 180.138C265.693 180.196 266.081 180.279 266.463 180.385C265.875 181.364 265.532 182.472 265.466 183.612C265.041 183.19 264.556 182.834 264.027 182.553C263.055 181.966 261.983 181.561 260.865 181.358L260.843 181.319C261.172 180.951 261.5 180.583 261.85 180.255L261.89 180.247C262.174 180.147 262.471 180.089 262.772 180.073ZM274.724 165.727C274.436 163.995 273.938 162.305 273.241 160.694C272.786 159.628 272.277 158.587 271.716 157.574C271.616 157.385 271.5 157.205 271.37 157.036L272.016 156.519C273.542 157.257 274.893 158.16 276.416 159.289C277.25 159.904 278.15 160.637 279.107 161.314C277.675 162.809 276.18 164.272 274.724 165.727L274.724 165.727ZM289.538 140.99C290.673 140.192 291.874 139.492 293.129 138.898C293.388 138.804 293.585 138.678 293.843 138.584C293.387 139.756 292.953 140.967 292.434 142.108C291.916 143.249 291.336 144.359 290.755 145.47C290.723 145.491 290.696 145.52 290.676 145.554C290.657 145.588 290.645 145.626 290.642 145.665C290.606 145.759 290.548 145.814 290.511 145.907C289.213 145.521 287.874 145.29 286.521 145.221C285.873 145.175 285.264 145.122 284.637 145.116C286.274 143.668 287.871 142.228 289.538 140.991V140.99ZM283.353 146.322C284.833 146.897 286.687 148.22 288.613 149.356C288.216 149.997 287.857 150.63 287.439 151.232C286.728 150.843 285.959 150.57 285.162 150.425C283.228 150.049 281.248 149.972 279.291 150.196C280.633 148.935 282.033 147.62 283.353 146.322ZM276.738 152.473C276.882 152.354 277.018 152.226 277.147 152.09C277.413 152.168 277.715 152.151 277.981 152.229C279.001 152.461 280.065 152.771 281.089 153.089C282.215 153.43 283.774 153.989 285.221 154.267C284.473 155.237 283.663 156.175 282.854 157.114C281.834 156.406 280.682 155.94 279.535 155.559C278.489 155.197 277.408 154.946 276.31 154.809C275.6 154.732 274.911 154.695 274.222 154.657C275.101 153.921 275.94 153.193 276.738 152.472V152.473ZM262.716 161.772C263.399 160.685 264.077 159.512 264.45 158.27C264.821 158.933 265.192 159.596 265.625 160.29C264.339 161.198 263.105 162.179 261.928 163.226C262.191 162.74 262.453 162.255 262.716 161.771L262.716 161.772ZM261.54 164.6C262.955 163.26 264.463 162.022 266.054 160.897C267.361 162.835 268.851 164.644 270.504 166.298C271.072 166.836 271.702 167.405 272.289 167.895C272.359 167.96 272.436 168.017 272.518 168.067C271.57 169.076 270.643 170.124 269.717 171.172C269.676 171.159 269.633 171.156 269.591 171.165C269.548 171.173 269.509 171.192 269.476 171.22C269.448 171.233 269.422 171.252 269.401 171.276C269.381 171.3 269.366 171.329 269.357 171.359C269.349 171.39 269.348 171.422 269.353 171.453C269.358 171.485 269.371 171.514 269.389 171.54C268.867 172.119 268.386 172.69 267.842 173.23C267.45 171.575 267.138 169.905 266.341 168.244C265.344 166.145 263.694 164.392 261.54 164.6ZM258.106 181.121C257.897 177.569 257.087 174.135 257.17 170.785C257.181 170.567 257.17 170.309 257.182 170.09C257.608 170.136 257.663 169.519 257.875 169.261C258.119 168.823 258.385 168.425 258.652 168.026C259.019 169.079 259.773 170.186 260.599 171.106C261.742 172.353 263.364 172.942 264.81 173.697C265.087 173.855 265.351 174.035 265.6 174.234C265.622 174.273 265.706 174.343 265.728 174.382C265.79 174.413 265.899 174.608 265.961 174.639C266.043 174.746 266.109 174.865 266.158 174.99C264.684 176.493 263.087 177.933 261.573 179.443C261.707 178.336 261.708 177.216 261.576 176.109C261.463 175.352 261.285 174.478 260.648 173.737C260.182 173.223 259.308 173.092 258.939 173.467C258.549 173.804 258.552 174.366 258.534 174.889C258.595 175.873 258.9 176.895 259.264 177.863C259.571 178.675 259.815 179.51 259.995 180.36C260.044 180.567 260.073 180.779 260.082 180.992C259.484 181.673 258.908 182.392 258.354 183.151C258.284 182.472 258.175 181.8 258.107 181.121H258.106ZM259.772 191.487C259.499 191.547 259.233 191.629 258.973 191.731L258.933 191.739C258.636 189.936 258.389 187.906 258.288 186.454C258.259 186.166 258.26 185.875 258.292 185.587C258.314 185.624 258.345 185.655 258.381 185.678C258.417 185.701 258.458 185.715 258.5 185.72C258.828 185.828 259.061 185.609 258.887 185.297C258.818 185.094 258.789 184.883 258.72 184.681C258.88 184.649 258.997 184.539 258.949 184.376C258.989 184.368 258.989 184.368 259.051 184.399C259.451 184.421 259.847 184.488 260.232 184.599C260.99 184.84 262.352 185.524 263.416 185.834C264.134 186.082 264.946 186.182 265.526 186.025C265.58 186.518 265.675 187.006 265.809 187.484C266.211 188.951 266.878 190.331 267.778 191.556C267.821 191.634 267.905 191.704 267.949 191.782C265.344 191.343 262.13 190.85 259.772 191.487H259.772Z" fill="#C6B6A2"/>
<path fill-rule="evenodd" clip-rule="evenodd" d="M100.797 144.227C84.3763 148.106 59.7112 162.201 54.0288 136.098C50.136 118.213 96.3648 119.74 105.966 109.831C127.087 88.0315 159.596 107.753 145.695 114.761C117.84 128.796 140.188 134.922 100.797 144.227Z" fill="#F8F2E8"/>
<path fill-rule="evenodd" clip-rule="evenodd" d="M226.209 173.376C220.017 182.654 157.657 187.741 149.552 176.341C137.024 158.737 173.104 108.427 173.104 108.427C172.638 106.022 172.552 100.209 174.446 97.9409C177.315 94.493 173.047 91.2184 175.702 90.4747C179.115 89.5223 181.85 92.7463 187.795 94.3585C191.318 95.3039 190.826 104.55 187.496 109.725C186.31 111.561 184.046 111.729 184.046 111.729C184.046 111.729 170.128 145.976 173.084 152.535C176.751 160.648 194.205 151.307 221.025 147.521C233.851 145.708 229.621 168.262 226.209 173.376Z" fill="#F6CDB3"/>
<mask id="mask0_1_46" style="mask-type:luminance" maskUnits="userSpaceOnUse" x="146" y="90" width="84" height="93">
<path d="M226.209 173.376C220.017 182.654 157.657 187.741 149.552 176.341C137.024 158.737 173.104 108.427 173.104 108.427C172.638 106.022 172.552 100.209 174.446 97.9409C177.315 94.493 173.047 91.2184 175.702 90.4747C179.115 89.5223 181.85 92.7463 187.795 94.3585C191.318 95.3039 190.826 104.55 187.496 109.725C186.31 111.561 184.046 111.729 184.046 111.729C184.046 111.729 170.128 145.976 173.084 152.535C176.751 160.648 194.205 151.307 221.025 147.521C233.851 145.708 229.621 168.262 226.209 173.376Z" fill="white"/>
</mask>
<g mask="url(#mask0_1_46)">
<path fill-rule="evenodd" clip-rule="evenodd" d="M191.709 148.311C194.057 150.111 194.611 154.374 195.009 157.041C195.432 159.86 195.303 162.753 194.361 165.47C192.945 169.56 190.007 172.904 188.8 177.068C187.904 180.166 188.118 183.657 189.168 186.698C189.658 188.119 190.399 189.442 191.356 190.601C197.029 197.439 208.711 194.887 215.875 192.483C223.937 189.777 231.9 184.621 236.061 176.976C242.515 165.122 236.66 150.5 225.541 143.927C221.131 141.35 216.165 139.875 211.063 139.627C205.004 139.309 198.784 140.459 193.548 143.593L191.709 148.311Z" fill="#493628"/>
<path fill-rule="evenodd" clip-rule="evenodd" d="M168.122 110.639C164.094 118.24 158.898 134.861 156.187 142.973C152.728 153.388 151.35 161.283 156.667 170.609C162.956 181.674 183.951 177.349 194.224 174.507C196.491 173.878 198.729 173.151 200.933 172.327C204.041 171.19 207.059 169.822 209.962 168.233C215.952 164.885 220.954 160.284 225.431 155.125C226.719 153.646 227.872 152.029 229.235 150.622C229.639 150.201 230.253 149.581 230.912 149.658C232.021 149.785 232.275 151.829 232.424 152.624C232.994 155.918 232.949 159.36 232.724 162.683C231.841 175.816 227.573 188.936 215.832 196.109C208.584 200.54 199.554 201.918 191.288 203.131C183.037 204.341 174.352 205.435 165.996 204.673C151.08 203.313 135.342 196.832 127.181 183.605C117.747 168.282 122.089 147.804 129.831 132.732C131.763 128.975 133.995 125.361 136.645 122.068C141.811 115.651 148.73 109.81 156.891 107.851L168.122 110.639Z" fill="black" fill-opacity="0.1"/>
</g>
<path fill-rule="evenodd" clip-rule="evenodd" d="M92.4735 92.329C91.7386 91.1723 90.342 90.342 88.74 90.108C87.1618 89.8544 85.5466 90.218 84.2294 91.1234L16.2446 140.06C14.4822 141.329 13.997 143.389 15.0669 145.073L100.624 279.749C101.37 280.923 102.755 281.736 104.368 281.987C105.947 282.241 107.562 281.877 108.879 280.972L176.863 232.035C178.626 230.767 179.111 228.706 178.041 227.022L92.4735 92.329ZM91.4519 92.743L177.02 227.437C177.852 228.747 177.477 230.356 176.09 231.354L108.106 280.291C107.074 280.997 105.812 281.285 104.576 281.096C103.31 280.916 102.23 280.256 101.646 279.338L16.0887 144.66C15.2456 143.333 15.6207 141.724 17.0067 140.726L84.9908 91.789C86.023 91.0833 87.2846 90.7955 88.5208 90.9839C89.7986 91.1803 90.8683 91.8236 91.4519 92.7421V92.743Z" fill="#AB886D"/>
<path fill-rule="evenodd" clip-rule="evenodd" d="M105.63 91.1002C105.506 90.9014 105.341 90.7308 105.147 90.5994C104.953 90.468 104.734 90.3786 104.503 90.337C104.277 90.2939 104.044 90.2964 103.818 90.3442C103.593 90.392 103.379 90.4842 103.189 90.6154L30.733 142.771C30.3782 143.028 30.1355 143.412 30.0545 143.843C29.9736 144.274 30.0605 144.719 30.2976 145.088L115.018 278.447C115.141 278.643 115.304 278.811 115.496 278.94C115.688 279.069 115.906 279.155 116.134 279.194C116.361 279.242 116.594 279.242 116.821 279.194C117.047 279.146 117.261 279.051 117.449 278.916L189.904 226.76C190.26 226.508 190.504 226.128 190.587 225.699C190.67 225.271 190.585 224.827 190.35 224.46L105.63 91.1002Z" fill="#E3D6C5"/>
<path fill-rule="evenodd" clip-rule="evenodd" d="M160.578 195.969C159.372 194.072 157.13 192.725 154.501 192.339C151.872 191.952 149.174 192.559 147.187 193.989L109.331 221.238C104.507 224.71 103.207 230.314 106.139 234.93C107.345 236.828 109.586 238.173 112.215 238.559C114.844 238.945 117.542 238.339 119.52 236.916L157.385 209.659C162.199 206.195 163.51 200.585 160.578 195.969ZM159.762 196.295L159.763 196.297C162.508 200.619 161.28 205.871 156.771 209.117L118.906 236.374C117.142 237.644 114.726 238.189 112.379 237.843C110.042 237.491 108.031 236.297 106.955 234.603C104.209 230.282 105.437 225.029 109.946 221.783L147.812 194.526C149.576 193.256 151.991 192.711 154.328 193.062C156.674 193.407 158.685 194.601 159.761 196.295H159.762Z" fill="white"/>
<path fill-rule="evenodd" clip-rule="evenodd" d="M191.03 183.874C190.269 182.676 189.271 181.647 188.098 180.848C186.925 180.05 185.601 179.5 184.207 179.232C182.814 178.963 181.38 178.983 179.994 179.288C178.608 179.593 177.3 180.179 176.148 181.008L127.704 215.879C125.257 217.639 123.576 220.268 123.006 223.228C122.436 226.187 123.02 229.253 124.637 231.796C125.398 232.994 126.396 234.024 127.569 234.823C128.742 235.622 130.066 236.172 131.46 236.44C132.854 236.709 134.288 236.69 135.674 236.384C137.06 236.078 138.368 235.492 139.52 234.662L187.964 199.791C190.408 198.03 192.087 195.401 192.658 192.442C193.228 189.484 192.646 186.42 191.032 183.876L191.03 183.874Z" fill="#AB886D"/>
<path fill-rule="evenodd" clip-rule="evenodd" d="M135.041 157.069C134.733 156.585 134.33 156.169 133.856 155.847C133.382 155.525 132.847 155.302 132.284 155.194C131.721 155.086 131.142 155.094 130.582 155.218C130.022 155.342 129.494 155.579 129.029 155.915L81.6674 190.007C80.6851 190.713 80.01 191.768 79.7807 192.956C79.5513 194.144 79.785 195.374 80.4339 196.395C80.7409 196.878 81.1433 197.294 81.6163 197.616C82.0894 197.938 82.6232 198.16 83.1851 198.269C83.747 198.377 84.3251 198.37 84.8841 198.248C85.4431 198.125 85.9713 197.89 86.4362 197.556L133.807 163.458C134.79 162.752 135.465 161.697 135.694 160.509C135.924 159.322 135.69 158.091 135.041 157.07L135.041 157.069ZM145.118 172.928C144.811 172.444 144.408 172.028 143.933 171.706C143.459 171.383 142.924 171.161 142.361 171.053C141.798 170.945 141.219 170.953 140.659 171.077C140.1 171.201 139.571 171.438 139.106 171.773L91.7447 205.866C90.7624 206.572 90.0873 207.627 89.858 208.815C89.6286 210.003 89.8623 211.234 90.5112 212.255C90.8182 212.738 91.2206 213.153 91.6936 213.475C92.1667 213.797 92.7005 214.019 93.2623 214.128C93.8242 214.237 94.4024 214.23 94.9614 214.107C95.5204 213.985 96.0485 213.749 96.5135 213.416L143.884 179.317C144.867 178.611 145.542 177.556 145.771 176.368C146.001 175.181 145.767 173.95 145.118 172.929V172.928Z" fill="white"/>
<path d="M101.513 161.914C110.565 153.415 112.189 140.44 105.141 132.936C98.0939 125.431 85.0434 126.237 75.9922 134.737C66.9411 143.236 65.3168 156.21 72.3643 163.715C79.4118 171.22 92.4623 170.414 101.513 161.914Z" fill="white"/>
<path fill-rule="evenodd" clip-rule="evenodd" d="M86.8714 157.666C84.245 157.626 81.8775 156.474 80.4857 154.283C77.9627 150.311 79.6099 144.421 84.1725 141.136C88.7351 137.852 94.5045 138.407 97.027 142.378C98.6589 144.947 98.5255 148.324 97.0191 151.27C103.204 149.189 108.739 150.22 110.135 154.063C111.768 158.575 107.065 165.269 99.648 168.998C92.2306 172.727 84.8597 172.098 83.2268 167.586C82.208 164.718 83.718 160.974 86.8714 157.666Z" fill="#D6C0B3"/>
<path fill-rule="evenodd" clip-rule="evenodd" d="M220.6 248.965C222.188 219.015 211.66 192.949 212.619 175.827C213.233 164.965 208.53 148.845 226.381 146.233C241.685 143.994 260.599 148.039 264.327 152.157C271.875 160.465 269.134 205.513 261.961 211.657C247.585 220.836 231.832 239.794 220.6 248.965Z" fill="#493628"/>
<mask id="mask1_1_46" style="mask-type:luminance" maskUnits="userSpaceOnUse" x="212" y="145" width="57" height="104">
<path d="M220.6 248.965C222.188 219.015 211.66 192.949 212.619 175.827C213.233 164.965 208.53 148.845 226.381 146.233C241.685 143.994 260.599 148.039 264.327 152.157C271.875 160.465 269.134 205.513 261.961 211.657C247.585 220.836 231.832 239.794 220.6 248.965Z" fill="white"/>
</mask>
<g mask="url(#mask1_1_46)">
<path fill-rule="evenodd" clip-rule="evenodd" d="M251.552 168.615C250.309 170.274 249.605 172.327 249.021 174.292C247.478 179.358 247.419 184.413 248.122 189.626C248.811 194.774 250.174 200.107 249.245 205.314C248.542 209.166 246.475 212.351 244.454 215.621C239.378 223.847 236.382 226.549 229.508 232.648C225.6 236.104 217.978 250.311 219.131 255.84C219.925 259.696 226.019 255.952 228.311 254.773C234.526 251.57 240.081 247.067 246.146 243.55C254.802 238.517 264.535 234.169 271.02 226.247C279.63 215.717 280.663 199.796 277.354 187.03C275.781 180.953 273.011 174.593 267.545 171.107L251.552 168.615Z" fill="black" fill-opacity="0.1"/>
</g>
<path fill-rule="evenodd" clip-rule="evenodd" d="M262.558 152.7C272.847 157.043 293.799 216.158 281.755 227.171C269.712 238.184 190.312 218.783 190.312 218.783C188.037 219.691 182.358 220.868 179.76 219.432C175.85 217.262 178.256 212.417 177.027 209.949C175.452 206.776 164.197 213.916 164.65 207.77C164.933 204.135 183.179 202.101 188.887 204.404C190.928 205.224 191.517 207.418 191.517 207.418C191.517 207.418 248.07 212.656 253.958 208.521C261.239 203.398 242.988 184.927 245.828 164.048C247.576 151.215 256.909 150.31 262.558 152.7Z" fill="#F6CDB3"/>
<mask id="mask2_1_46" style="mask-type:luminance" maskUnits="userSpaceOnUse" x="164" y="151" width="122" height="80">
<path d="M262.558 152.7C272.847 157.043 293.799 216.158 281.755 227.171C269.712 238.184 190.312 218.783 190.312 218.783C188.037 219.691 182.358 220.868 179.76 219.432C175.85 217.262 178.256 212.417 177.027 209.949C175.452 206.776 164.197 213.916 164.65 207.77C164.933 204.135 183.179 202.101 188.887 204.404C190.928 205.224 191.517 207.418 191.517 207.418C191.517 207.418 248.07 212.656 253.958 208.521C261.239 203.398 242.988 184.927 245.828 164.048C247.576 151.215 256.909 150.31 262.558 152.7Z" fill="white"/>
</mask>
<g mask="url(#mask2_1_46)">
<path fill-rule="evenodd" clip-rule="evenodd" d="M246.314 191.02C247.642 188.377 251.725 187.032 254.27 186.141C256.959 185.197 259.825 184.781 262.67 185.195C266.953 185.819 270.789 188.077 275.105 188.482C278.317 188.782 281.706 187.916 284.495 186.314C285.8 185.566 286.96 184.59 287.92 183.433C293.572 176.578 288.874 165.582 285.168 158.996C280.998 151.585 274.44 144.73 266.15 142.078C253.296 137.962 240.032 146.456 235.661 158.61C233.957 163.425 233.44 168.58 234.154 173.637C234.978 179.648 237.274 185.543 241.336 190.098L246.314 191.02Z" fill="#493628"/>
</g>
<path fill-rule="evenodd" clip-rule="evenodd" d="M228.811 145.829C228.811 145.829 234.846 141.365 233.439 136.665C233.079 135.431 230.354 138.909 227.898 137.403C224.544 135.333 223.735 123.403 227.524 117.196C229.875 113.349 238.141 111.041 240.836 113.662C243.532 116.283 244.595 127.453 243.667 132.922C242.199 141.647 250.151 146.895 250.151 146.895C250.151 146.895 236.943 157.466 233.618 166.24C232.645 168.817 228.811 145.829 228.811 145.829Z" fill="#F6CDB3"/>
<mask id="mask3_1_46" style="mask-type:luminance" maskUnits="userSpaceOnUse" x="225" y="112" width="26" height="55">
<path d="M228.811 145.829C228.811 145.829 234.846 141.365 233.439 136.665C233.079 135.431 230.354 138.909 227.898 137.403C224.544 135.333 223.735 123.403 227.524 117.196C229.875 113.349 238.141 111.041 240.836 113.662C243.532 116.283 244.595 127.453 243.667 132.922C242.199 141.647 250.151 146.895 250.151 146.895C250.151 146.895 236.943 157.466 233.618 166.24C232.645 168.817 228.811 145.829 228.811 145.829Z" fill="white"/>
</mask>
<g mask="url(#mask3_1_46)">
<path fill-rule="evenodd" clip-rule="evenodd" d="M231.864 137.308C232.344 137.049 232.733 136.52 233.092 136.125C233.918 135.24 234.679 134.296 235.369 133.302C235.623 132.906 235.878 132.502 236.162 132.111C236.222 132.012 236.387 131.725 236.537 131.725C236.687 131.725 236.597 132.219 236.582 132.283C236.482 132.974 236.321 133.656 236.102 134.319C235.279 137.036 233.587 139.069 231.775 141.182L231.864 137.308Z" fill="black" fill-opacity="0.1"/>
</g>
<path fill-rule="evenodd" clip-rule="evenodd" d="M229.366 122.237C228.242 122.17 227.194 121.514 226.326 120.843C222.986 118.27 223.211 113.794 226.116 110.973C227.868 109.279 231.462 108.148 233.139 110.533C233.678 109.769 234.801 109.445 235.655 109.246C236.348 109.062 237.067 108.999 237.781 109.06C242.663 109.718 241.525 115.853 245.239 117.815C246.452 117.035 247.785 119.585 248.024 120.362C248.848 123.065 248.489 127.685 245.374 128.763C245.104 129.489 244.415 130 243.801 130.419C242.109 131.583 239.384 132.415 237.497 131.213C237.27 131.066 237.063 130.89 236.883 130.689C235.535 129.19 236.958 127.481 237.407 125.924C237.647 125.103 237.841 124.076 237.123 123.43C236.539 122.924 235.954 123.212 235.49 123.7C234.786 124.445 234.397 125.617 233.274 125.827C231.657 126.126 230.084 124.572 229.575 123.482C229.47 123.251 229.366 122.237 229.366 122.237Z" fill="black"/>
<path fill-rule="evenodd" clip-rule="evenodd" d="M219.04 110.337C219.041 109.811 218.894 109.295 218.616 108.848C218.338 108.401 217.94 108.04 217.467 107.808L157.32 78.228C156.89 78.0181 156.414 77.9209 155.936 77.9455C155.458 77.97 154.995 78.1155 154.589 78.3683C154.182 78.6212 153.847 78.973 153.614 79.3909C153.381 79.8088 153.258 80.279 153.257 80.7574V90.7114C153.258 91.2374 153.406 91.7527 153.684 92.1994C153.962 92.646 154.358 93.0064 154.83 93.24L214.989 122.826C215.418 123.037 215.895 123.134 216.372 123.11C216.85 123.085 217.314 122.939 217.72 122.685C218.125 122.431 218.459 122.078 218.69 121.659C218.921 121.24 219.042 120.768 219.04 120.29L219.04 110.337Z" fill="#AB886D"/>
<path fill-rule="evenodd" clip-rule="evenodd" d="M161.742 92.9678L160.462 91.5198L162.127 89.8278L159.183 87.6003L159.576 86.346L162.521 88.5732L162.365 85.5025L163.887 86.1746L164.043 89.2453L166.891 89.5749L167.433 91.242L164.585 90.9123L166.502 94.1863L165.314 94.545L163.406 91.2741L161.742 92.9678ZM172.336 98.172L171.056 96.7237L172.721 95.0317L169.777 92.8048L170.171 91.5505L173.115 93.7775L172.959 90.7071L174.482 91.3792L174.637 94.4496L177.485 94.7794L178.027 96.4463L175.179 96.1168L177.097 99.3908L175.909 99.7494L174.001 96.4786L172.336 98.172ZM183.688 103.235L182.408 101.787L184.073 100.095L181.129 97.868L181.523 96.6137L184.467 98.8409L184.311 95.7703L185.834 96.4424L185.989 99.513L188.837 99.8426L189.379 101.51L186.531 101.18L188.448 104.454L187.26 104.813L185.352 101.542L183.688 103.235ZM194.773 109.207L193.493 107.759L195.158 106.067L192.214 103.839L192.608 102.585L195.552 104.812L195.396 101.742L196.918 102.414L197.074 105.485L199.922 105.814L200.464 107.481L197.616 107.152L199.533 110.426L198.345 110.784L196.437 107.513L194.773 109.207ZM206.47 114.96L205.19 113.511L206.855 111.819L203.911 109.592L204.305 108.338L207.249 110.565L207.093 107.495L208.616 108.167L208.772 111.237L211.619 111.567L212.161 113.234L209.313 112.904L211.231 116.178L210.043 116.537L208.135 113.266L206.47 114.96Z" fill="white"/>
<path fill-rule="evenodd" clip-rule="evenodd" d="M181.226 110.185C182.162 109.123 187.782 106.564 189.258 106.359C191.61 106.013 193.825 107.554 193.01 109.792C192.686 110.652 185.567 112.63 183.608 112.7C182.807 112.726 180.852 110.605 181.226 110.185Z" fill="#F6CDB3"/>
<path d="M147.133 218.264C146.8 218.508 146.5 218.68 146.235 218.781C145.973 218.88 145.742 218.934 145.543 218.943C145.344 218.947 145.177 218.931 145.041 218.893C144.992 218.876 144.947 218.859 144.905 218.841C144.864 218.823 144.825 218.797 144.788 218.763C144.739 218.718 144.679 218.658 144.607 218.581C144.533 218.502 144.458 218.403 144.384 218.285C144.352 218.235 144.337 218.196 144.339 218.166C144.342 218.132 144.361 218.094 144.395 218.052C144.458 217.978 144.545 217.89 144.656 217.789C144.768 217.683 144.85 217.611 144.903 217.572C144.958 217.532 145.011 217.51 145.06 217.506C145.11 217.502 145.176 217.507 145.26 217.523C145.353 217.539 145.495 217.544 145.688 217.536C145.878 217.526 146.107 217.423 146.375 217.227C146.632 217.039 146.787 216.843 146.84 216.639C146.893 216.435 146.849 216.237 146.708 216.046C146.633 215.943 146.532 215.87 146.403 215.827C146.276 215.779 146.098 215.77 145.869 215.8C145.639 215.827 145.337 215.902 144.961 216.023C144.339 216.22 143.827 216.274 143.423 216.186C143.02 216.098 142.656 215.832 142.331 215.388C142.062 215.02 141.926 214.647 141.924 214.27C141.922 213.892 142.033 213.525 142.256 213.168C142.479 212.811 142.797 212.482 143.209 212.18C143.527 211.948 143.818 211.794 144.081 211.718C144.345 211.638 144.569 211.603 144.754 211.613C144.937 211.62 145.067 211.64 145.143 211.673C145.189 211.692 145.221 211.709 145.24 211.723C145.26 211.733 145.281 211.752 145.305 211.779C145.372 211.854 145.441 211.943 145.512 212.045C145.582 212.147 145.656 212.266 145.732 212.404C145.755 212.452 145.762 212.491 145.752 212.522C145.743 212.549 145.719 212.577 145.68 212.605C145.429 212.797 145.222 212.928 145.06 212.998C144.995 213.026 144.949 213.039 144.921 213.04C144.893 213.04 144.854 213.036 144.804 213.029C144.725 213.009 144.616 213.001 144.476 213.002C144.337 212.999 144.167 213.071 143.967 213.217C143.692 213.419 143.542 213.625 143.519 213.836C143.493 214.044 143.537 214.225 143.651 214.38C143.785 214.564 143.976 214.646 144.224 214.626C144.47 214.604 144.825 214.524 145.289 214.386C145.675 214.269 146.024 214.193 146.337 214.157C146.65 214.122 146.937 214.16 147.196 214.273C147.459 214.383 147.708 214.6 147.944 214.923C148.239 215.325 148.389 215.727 148.397 216.129C148.407 216.529 148.3 216.912 148.076 217.278C147.852 217.639 147.538 217.968 147.133 218.264ZM145.969 210.742C145.944 210.708 145.932 210.67 145.934 210.629C145.936 210.587 145.938 210.533 145.942 210.466C145.954 210.328 145.975 210.177 146.005 210.014C146.033 209.849 146.065 209.686 146.101 209.526C146.128 209.43 146.157 209.371 146.188 209.348C146.22 209.324 146.287 209.314 146.389 209.316C146.736 209.344 147.048 209.39 147.325 209.454C147.388 209.468 147.44 209.482 147.483 209.496C147.525 209.505 147.559 209.526 147.584 209.56C147.609 209.595 147.62 209.633 147.615 209.677C147.613 209.719 147.61 209.775 147.606 209.847C147.595 209.98 147.577 210.129 147.551 210.293C147.524 210.454 147.491 210.613 147.453 210.77C147.439 210.828 147.426 210.87 147.412 210.896C147.397 210.92 147.38 210.938 147.362 210.951C147.343 210.965 147.321 210.975 147.294 210.983C147.268 210.986 147.222 210.987 147.157 210.986C146.991 210.979 146.828 210.963 146.669 210.938C146.507 210.911 146.358 210.881 146.221 210.848C146.156 210.831 146.105 210.818 146.066 210.81C146.026 210.799 145.994 210.777 145.969 210.742ZM151.163 214.849C151.221 214.928 151.244 214.996 151.233 215.052C151.223 215.104 151.178 215.159 151.099 215.217L150.288 215.811C150.209 215.868 150.142 215.895 150.086 215.891C150.032 215.883 149.976 215.839 149.918 215.76L147.271 212.143C147.214 212.064 147.19 211.999 147.201 211.947C147.212 211.89 147.257 211.833 147.335 211.775L148.147 211.181C148.226 211.124 148.293 211.099 148.347 211.108C148.403 211.112 148.459 211.153 148.517 211.232L151.163 214.849ZM153.614 207.763L155.952 210.959C156.513 211.726 156.722 212.471 156.577 213.194C156.435 213.915 155.983 214.554 155.221 215.112C154.906 215.342 154.639 215.501 154.42 215.588C154.204 215.678 154.033 215.737 153.908 215.764C153.826 215.779 153.764 215.778 153.723 215.76C153.666 215.737 153.591 215.697 153.497 215.641C153.406 215.583 153.31 215.515 153.21 215.439C153.175 215.408 153.154 215.382 153.146 215.359C153.137 215.325 153.137 215.283 153.144 215.233C153.157 215.152 153.184 215.047 153.224 214.921C153.267 214.792 153.306 214.702 153.34 214.649C153.376 214.594 153.424 214.563 153.483 214.556C153.579 214.543 153.706 214.512 153.864 214.465C154.028 214.418 154.225 214.31 154.456 214.141C154.824 213.871 155.054 213.558 155.147 213.199C155.24 212.841 155.142 212.465 154.854 212.071L154.75 211.929L154.734 211.941C154.73 212.056 154.71 212.186 154.674 212.33C154.638 212.473 154.565 212.625 154.457 212.785C154.351 212.943 154.183 213.106 153.955 213.273C153.558 213.563 153.17 213.716 152.79 213.732C152.411 213.743 152.05 213.642 151.709 213.428C151.369 213.212 151.058 212.912 150.776 212.525C150.466 212.102 150.258 211.672 150.152 211.234C150.045 210.796 150.085 210.359 150.271 209.924C150.455 209.487 150.832 209.06 151.402 208.643C151.744 208.393 152.048 208.208 152.316 208.089C152.586 207.968 152.827 207.887 153.039 207.845C153.25 207.803 153.442 207.776 153.614 207.763ZM152.057 209.628C151.752 209.851 151.594 210.124 151.584 210.446C151.574 210.768 151.726 211.145 152.041 211.575C152.535 212.251 153.061 212.385 153.618 211.977C153.836 211.818 153.97 211.651 154.02 211.477C154.07 211.303 154.074 211.127 154.032 210.948L152.842 209.32C152.753 209.32 152.643 209.341 152.511 209.381C152.379 209.421 152.227 209.503 152.057 209.628ZM159.418 205.277L161.102 207.578C161.16 207.657 161.183 207.725 161.172 207.781C161.162 207.833 161.117 207.888 161.038 207.946L160.226 208.54C160.148 208.597 160.08 208.624 160.025 208.62C159.971 208.612 159.914 208.568 159.857 208.49L158.323 206.393C158.114 206.107 157.9 205.942 157.683 205.899C157.466 205.856 157.254 205.911 157.047 206.062C156.839 206.214 156.711 206.376 156.664 206.548C156.619 206.718 156.616 206.894 156.656 207.074L158.446 209.522C158.504 209.6 158.527 209.668 158.516 209.725C158.505 209.777 158.461 209.831 158.382 209.889L157.57 210.483C157.491 210.541 157.424 210.567 157.369 210.564C157.314 210.555 157.258 210.511 157.201 210.433L154.785 207.13C154.739 207.067 154.716 207.009 154.717 206.956C154.719 206.842 154.73 206.719 154.75 206.587C154.773 206.453 154.81 206.301 154.859 206.132C154.874 206.081 154.897 206.044 154.929 206.021C154.958 205.999 155 205.989 155.056 205.988C155.23 205.994 155.385 206.007 155.521 206.029C155.658 206.05 155.787 206.08 155.909 206.12L155.929 206.106C155.931 206.015 155.949 205.899 155.983 205.758C156.014 205.614 156.088 205.453 156.204 205.275C156.323 205.095 156.508 204.913 156.761 204.729C157.008 204.548 157.279 204.426 157.576 204.362C157.872 204.299 158.178 204.333 158.492 204.466C158.81 204.597 159.119 204.867 159.418 205.277ZM167.003 203.727C166.509 204.089 166.04 204.333 165.597 204.46C165.156 204.585 164.725 204.553 164.305 204.364C163.887 204.174 163.465 203.787 163.038 203.204L160.928 200.319C160.872 200.243 160.843 200.175 160.84 200.117C160.832 199.857 160.864 199.553 160.936 199.206C160.952 199.145 160.975 199.105 161.004 199.084C161.035 199.06 161.08 199.052 161.137 199.059C161.326 199.074 161.493 199.099 161.639 199.133C161.783 199.165 161.915 199.201 162.034 199.243C162.091 199.266 162.147 199.314 162.201 199.388L164.167 202.075C164.442 202.451 164.691 202.709 164.913 202.848C165.137 202.983 165.354 203.028 165.563 202.984C165.773 202.939 165.993 202.833 166.224 202.663C166.461 202.49 166.632 202.311 166.738 202.125C166.843 201.938 166.865 201.719 166.801 201.467C166.736 201.212 166.566 200.897 166.291 200.522L164.325 197.834C164.269 197.758 164.24 197.69 164.237 197.632C164.229 197.372 164.26 197.068 164.333 196.721C164.349 196.66 164.372 196.62 164.401 196.598C164.432 196.575 164.477 196.567 164.534 196.574C164.723 196.589 164.89 196.614 165.036 196.648C165.18 196.68 165.312 196.716 165.431 196.758C165.488 196.781 165.544 196.829 165.598 196.903L167.708 199.787C168.135 200.371 168.366 200.897 168.403 201.366C168.44 201.835 168.329 202.263 168.071 202.649C167.816 203.034 167.46 203.393 167.003 203.727ZM169.757 195.221C170.141 194.94 170.52 194.796 170.894 194.789C171.268 194.777 171.626 194.878 171.968 195.092C172.311 195.301 172.624 195.6 172.909 195.989C173.216 196.409 173.421 196.84 173.522 197.282C173.626 197.722 173.611 198.143 173.477 198.543C173.343 198.944 173.069 199.295 172.657 199.597C172.444 199.753 172.25 199.857 172.074 199.909C171.903 199.961 171.751 199.985 171.619 199.981C171.488 199.973 171.378 199.958 171.29 199.937L171.275 199.949L172.503 201.628C172.549 201.691 172.571 201.749 172.57 201.802C172.565 202.028 172.518 202.302 172.428 202.626C172.411 202.679 172.388 202.716 172.359 202.737C172.327 202.76 172.285 202.771 172.231 202.77C172.055 202.766 171.899 202.755 171.765 202.736C171.633 202.716 171.513 202.689 171.404 202.656C171.352 202.641 171.304 202.602 171.257 202.539L167.703 197.68C167.657 197.617 167.634 197.558 167.635 197.505C167.637 197.391 167.648 197.268 167.668 197.136C167.691 197.002 167.728 196.851 167.777 196.681C167.792 196.63 167.818 196.591 167.855 196.564C167.889 196.539 167.934 196.526 167.99 196.526C168.164 196.532 168.319 196.545 168.455 196.566C168.592 196.588 168.721 196.618 168.843 196.658L168.863 196.644C168.867 196.556 168.886 196.439 168.92 196.293C168.955 196.147 169.034 195.982 169.158 195.798C169.284 195.613 169.484 195.42 169.757 195.221ZM171.634 198.803C171.918 198.595 172.065 198.336 172.076 198.026C172.087 197.711 171.956 197.365 171.681 196.99C171.162 196.28 170.611 196.139 170.028 196.566C169.781 196.746 169.636 196.931 169.592 197.12C169.547 197.306 169.541 197.474 169.574 197.624L170.199 198.479C170.386 198.734 170.607 198.899 170.863 198.973C171.12 199.048 171.376 198.991 171.634 198.803Z" fill="#FFFBFB"/>
</g>
<defs>
<clipPath id="clip0_1_46">
<rect width="360" height="360" fill="white"/>
</clipPath>
</defs>
</svg>
