<svg width="500" height="500" viewBox="0 0 500 500" fill="none" xmlns="http://www.w3.org/2000/svg">
<path d="M415.33 259.88C415.28 183.39 426.78 163.14 385.33 98.52C343.88 33.9 242.27 19.59 165.43 67.52C88.59 115.45 67.93 177.09 67.93 177.09C67.93 177.09 40.05 249.09 79.23 321.59C115.06 387.91 185.62 425.59 246.82 456.59H403.31C412.822 448.573 420.91 439.005 427.23 428.29C459.1 374.66 415.39 336.37 415.33 259.88Z" fill="#AFA299"/>
<path opacity="0.7" d="M415.33 259.88C415.28 183.39 426.78 163.14 385.33 98.52C343.88 33.9 242.27 19.59 165.43 67.52C88.59 115.45 67.93 177.09 67.93 177.09C67.93 177.09 40.05 249.09 79.23 321.59C115.06 387.91 185.62 425.59 246.82 456.59H403.31C412.822 448.573 420.91 439.005 427.23 428.29C459.1 374.66 415.39 336.37 415.33 259.88Z" fill="white"/>
<path d="M71.3101 292.42C71.3101 292.42 57.3801 292.22 57.3101 304.24" stroke="#263238" stroke-linecap="round" stroke-linejoin="round"/>
<path d="M70.1499 300C69.8599 298.23 63.7999 296 62.7499 300.62C61.6999 305.24 69.2299 302.47 71.5599 300.31C71.5599 300.31 67.2399 304.51 68.5599 305.69" stroke="#263238" stroke-linecap="round" stroke-linejoin="round"/>
<path d="M70.9999 307C70.9999 307 69.1699 309.29 67.1899 308.2" stroke="#263238" stroke-linecap="round" stroke-linejoin="round"/>
<path d="M83.19 299L72.74 309.61C72.74 309.61 78 304.28 81.05 306C84.85 308.08 79.92 313.78 75.86 309.7" stroke="#263238" stroke-linecap="round" stroke-linejoin="round"/>
<path d="M88.4699 301.86C88.4699 301.86 91.2399 314.55 76.9399 315" stroke="#263238" stroke-linecap="round" stroke-linejoin="round"/>
<path d="M143.58 414.01L155.85 377.49L170.73 394.1L143.58 414.01Z" stroke="#263238" stroke-linecap="round" stroke-linejoin="round"/>
<path d="M167.08 396.77L163.94 393.18L167.29 390.28" stroke="#263238" stroke-linecap="round" stroke-linejoin="round"/>
<path d="M71.054 208.827C77.427 206.187 80.4533 198.881 77.8135 192.508C75.1738 186.135 67.8675 183.109 61.4946 185.749C55.1216 188.388 52.0953 195.695 54.735 202.068C57.3748 208.441 64.6811 211.467 71.054 208.827Z" stroke="#263238" stroke-linecap="round" stroke-linejoin="round"/>
<path d="M80.13 200.21C87.7847 200.21 93.99 194.005 93.99 186.35C93.99 178.695 87.7847 172.49 80.13 172.49C72.4754 172.49 66.27 178.695 66.27 186.35C66.27 194.005 72.4754 200.21 80.13 200.21Z" stroke="#263238" stroke-linecap="round" stroke-linejoin="round"/>
<path d="M68.73 185.04L67.04 190.91" stroke="#263238" stroke-linecap="round" stroke-linejoin="round"/>
<path d="M71.12 185.77L68.73 194.23" stroke="#263238" stroke-linecap="round" stroke-linejoin="round"/>
<path d="M73.6299 187.19L71.1199 196.76" stroke="#263238" stroke-linecap="round" stroke-linejoin="round"/>
<path d="M76.4199 190L74.6299 199.08" stroke="#263238" stroke-linecap="round" stroke-linejoin="round"/>
<path d="M77.9899 192.96L76.4199 199.71" stroke="#263238" stroke-linecap="round" stroke-linejoin="round"/>
<path d="M54.3299 181.28C53.2399 180.95 50.2499 183.79 52.5699 185.7C54.8899 187.61 55.4799 182.52 54.9099 180.57C54.9099 180.57 56.0799 184.24 57.1399 183.8" stroke="#263238" stroke-linecap="round" stroke-linejoin="round"/>
<path d="M70.45 165.25L74.45 172.53C74.45 172.53 72.45 168.89 73.86 167.53C75.58 165.85 77.86 169.4 74.98 170.89" stroke="#263238" stroke-linecap="round" stroke-linejoin="round"/>
<path d="M401.52 345.17L411.34 338.41L424.34 339.32L425.15 355.8L415.61 362.63L403.83 361.77L401.52 345.17Z" stroke="#263238" stroke-linecap="round" stroke-linejoin="round"/>
<path d="M403.83 361.77L413.33 354.93L425.15 355.8" stroke="#263238" stroke-linecap="round" stroke-linejoin="round"/>
<path d="M413.34 354.93L411.34 338.41" stroke="#263238" stroke-linecap="round" stroke-linejoin="round"/>
<path d="M401.52 345.17L414.49 346.67L424.34 339.32" stroke="#263238" stroke-linecap="round" stroke-linejoin="round"/>
<path d="M414.49 346.67L415.61 362.63" stroke="#263238" stroke-linecap="round" stroke-linejoin="round"/>
<path d="M403.31 221.39L402.89 243.36L422.14 234.62L403.31 221.39Z" stroke="#263238" stroke-linecap="round" stroke-linejoin="round"/>
<path d="M403.31 221.39L412.48 238.88" stroke="#263238" stroke-linecap="round" stroke-linejoin="round"/>
<path d="M411.01 236.07L413.24 234.99L414.74 237.98" stroke="#263238" stroke-linecap="round" stroke-linejoin="round"/>
<path d="M111.54 91.5C111.921 86.6546 113.517 81.9835 116.181 77.918C118.845 73.8526 122.49 70.5241 126.78 68.24" stroke="#263238" stroke-linecap="round" stroke-linejoin="round"/>
<path d="M133.65 122C126.357 120.251 120.028 115.737 116 109.41" stroke="#263238" stroke-linecap="round" stroke-linejoin="round"/>
<path d="M169.3 96.11C168.683 103.768 165.051 110.869 159.204 115.852C153.356 120.836 145.769 123.295 138.11 122.69" stroke="#263238" stroke-linecap="round" stroke-linejoin="round"/>
<path d="M142.72 64.93C149.304 65.4578 155.511 68.2176 160.314 72.7528C165.116 77.2879 168.226 83.3267 169.13 89.87" stroke="#263238" stroke-linecap="round" stroke-linejoin="round"/>
<path d="M152.92 116.11C148.878 118.378 144.295 119.505 139.662 119.369C135.029 119.234 130.52 117.842 126.617 115.342C122.714 112.842 119.564 109.328 117.503 105.176C115.443 101.024 114.55 96.3903 114.92 91.77" stroke="#263238" stroke-linecap="round" stroke-linejoin="round"/>
<path d="M116.56 84.61C117.906 81.1119 120.004 77.9524 122.706 75.3551C125.408 72.7579 128.648 70.7864 132.197 69.5802C135.745 68.3741 139.515 67.9628 143.241 68.3754C146.966 68.7881 150.555 70.0146 153.753 71.9682C156.952 73.9217 159.682 76.5545 161.75 79.6802C163.818 82.8059 165.174 86.348 165.721 90.0558C166.269 93.7636 165.994 97.5464 164.917 101.136C163.841 104.726 161.988 108.036 159.49 110.83" stroke="#263238" stroke-linecap="round" stroke-linejoin="round"/>
<path d="M137.91 75.41L140.42 93.81L154.56 89.41" stroke="#263238" stroke-linecap="round" stroke-linejoin="round"/>
<path d="M360.9 129.57C356.835 129.609 352.854 128.413 349.485 126.139C346.115 123.865 343.516 120.621 342.032 116.836C340.547 113.052 340.247 108.906 341.172 104.948C342.097 100.989 344.202 97.4049 347.21 94.67" stroke="#263238" stroke-linecap="round" stroke-linejoin="round"/>
<path d="M379.69 116C378.715 118.874 377.1 121.488 374.965 123.645C372.831 125.802 370.233 127.445 367.37 128.45" stroke="#263238" stroke-linecap="round" stroke-linejoin="round"/>
<path d="M354.05 90.59C359.068 88.8242 364.582 89.1238 369.379 91.423C374.176 93.7221 377.863 97.8324 379.63 102.85" stroke="#263238" stroke-linecap="round" stroke-linejoin="round"/>
<path d="M370.61 94.84C372.683 96.2408 374.435 98.0651 375.751 100.193C377.067 102.32 377.918 104.703 378.246 107.183C378.574 109.663 378.373 112.184 377.655 114.581C376.938 116.978 375.721 119.195 374.084 121.087C372.447 122.979 370.427 124.502 368.158 125.556C365.89 126.611 363.423 127.172 360.922 127.204C358.42 127.235 355.94 126.736 353.646 125.739C351.351 124.742 349.294 123.27 347.61 121.42" stroke="#263238" stroke-linecap="round" stroke-linejoin="round"/>
<path d="M344 115.38C342.936 112.352 342.715 109.091 343.361 105.947C344.008 102.802 345.497 99.8932 347.67 97.5303C349.843 95.1675 352.617 93.44 355.696 92.5328C358.775 91.6256 362.043 91.5728 365.15 92.38" stroke="#263238" stroke-linecap="round" stroke-linejoin="round"/>
<path d="M353.95 98.58L360.71 109.51L354.55 117.5" stroke="#263238" stroke-linecap="round" stroke-linejoin="round"/>
<path d="M219 408.43C218.99 405.807 219.623 403.221 220.843 400.899C222.064 398.577 223.834 396.59 226 395.11" stroke="#263238" stroke-linecap="round" stroke-linejoin="round"/>
<path d="M246.71 419.51C244.803 421.516 242.41 422.995 239.763 423.806C237.117 424.617 234.306 424.731 231.602 424.138C228.899 423.545 226.394 422.264 224.33 420.42C222.266 418.576 220.713 416.23 219.82 413.61" stroke="#263238" stroke-linecap="round" stroke-linejoin="round"/>
<path d="M235.05 392.34C239.317 392.34 243.41 394.035 246.427 397.053C249.445 400.07 251.14 404.163 251.14 408.43" stroke="#263238" stroke-linecap="round" stroke-linejoin="round"/>
<path d="M235.05 422.62C231.286 422.62 227.677 421.125 225.016 418.464C222.355 415.803 220.86 412.193 220.86 408.43" stroke="#263238" stroke-linecap="round" stroke-linejoin="round"/>
<path d="M224 399.52C225.315 397.895 226.974 396.58 228.856 395.67C230.738 394.76 232.798 394.277 234.889 394.255C236.979 394.233 239.049 394.673 240.95 395.544C242.851 396.414 244.536 397.694 245.885 399.291C247.234 400.888 248.214 402.764 248.755 404.784C249.295 406.803 249.383 408.917 249.012 410.975C248.641 413.033 247.82 414.983 246.608 416.686C245.395 418.39 243.822 419.805 242 420.83" stroke="#263238" stroke-linecap="round" stroke-linejoin="round"/>
<path d="M232.85 418.07L235.05 408.43L231.98 400.55" stroke="#263238" stroke-linecap="round" stroke-linejoin="round"/>
<path d="M47.71 456.95H452.29" stroke="#263238" stroke-linecap="round" stroke-linejoin="round"/>
<path d="M252.99 246.08L246.4 371.55L162.91 367.17L163.61 353.87L169.5 241.69L222.07 244.45L252.99 246.08Z" fill="white"/>
<mask id="mask0_7_3" style="mask-type:luminance" maskUnits="userSpaceOnUse" x="162" y="241" width="91" height="131">
<path d="M252.99 246.08L246.4 371.55L162.91 367.17L163.61 353.87L169.5 241.69L222.07 244.45L252.99 246.08Z" fill="white"/>
</mask>
<g mask="url(#mask0_7_3)">
<path opacity="0.2" d="M226.93 319.59L208.12 321.14L213.61 344.83L163.61 353.87L169.5 241.69L222.07 244.45L226.93 319.59Z" fill="black" fill-opacity="0.7"/>
</g>
<path d="M252.99 246.08L246.4 371.55L162.91 367.17L163.61 353.87L169.5 241.69L222.07 244.45L252.99 246.08Z" stroke="#263238" stroke-linecap="round" stroke-linejoin="round"/>
<path d="M175.39 250.27L197.12 251.41" stroke="#263238" stroke-width="2" stroke-linecap="round" stroke-linejoin="round"/>
<path d="M175.17 254.44L189.95 255.22" stroke="#263238" stroke-width="2" stroke-linecap="round" stroke-linejoin="round"/>
<path d="M179.95 264.57L242.45 267.85" stroke="#263238" stroke-width="2" stroke-linecap="round" stroke-linejoin="round"/>
<path d="M179.73 268.74L242.23 272.02" stroke="#263238" stroke-width="2" stroke-linecap="round" stroke-linejoin="round"/>
<path d="M179.48 273.61L232.78 276.4" stroke="#263238" stroke-width="2" stroke-linecap="round" stroke-linejoin="round"/>
<path d="M179.502 278.052L179.235 283.135L184.318 283.403L184.585 278.32L179.502 278.052Z" stroke="#263238" stroke-linecap="round" stroke-linejoin="round"/>
<path d="M188.715 278.54L188.448 283.623L193.531 283.89L193.798 278.807L188.715 278.54Z" stroke="#263238" stroke-linecap="round" stroke-linejoin="round"/>
<path d="M197.918 279.029L197.65 284.112L202.733 284.379L203.001 279.296L197.918 279.029Z" stroke="#263238" stroke-linecap="round" stroke-linejoin="round"/>
<path d="M207.131 279.517L206.863 284.599L211.946 284.867L212.214 279.784L207.131 279.517Z" stroke="#263238" stroke-linecap="round" stroke-linejoin="round"/>
<path d="M176.62 264.39C176.614 264.555 176.575 264.718 176.505 264.868C176.436 265.019 176.338 265.154 176.216 265.266C176.094 265.379 175.952 265.466 175.796 265.523C175.641 265.581 175.476 265.607 175.31 265.6C174.973 265.583 174.657 265.432 174.431 265.182C174.205 264.932 174.088 264.602 174.105 264.265C174.122 263.928 174.273 263.612 174.523 263.386C174.773 263.16 175.103 263.043 175.44 263.06C175.606 263.068 175.768 263.108 175.918 263.178C176.068 263.249 176.203 263.348 176.314 263.471C176.425 263.594 176.512 263.737 176.568 263.893C176.624 264.049 176.648 264.214 176.64 264.38L176.62 264.39Z" fill="#263238"/>
<path d="M178.67 288.9L241.17 292.18" stroke="#263238" stroke-width="2" stroke-linecap="round" stroke-linejoin="round"/>
<path d="M178.45 293.07L240.95 296.35" stroke="#263238" stroke-width="2" stroke-linecap="round" stroke-linejoin="round"/>
<path d="M178.2 297.94L231.5 300.73" stroke="#263238" stroke-width="2" stroke-linecap="round" stroke-linejoin="round"/>
<path d="M178.211 302.398L177.944 307.481L183.027 307.748L183.294 302.665L178.211 302.398Z" stroke="#263238" stroke-linecap="round" stroke-linejoin="round"/>
<path d="M187.434 302.876L187.167 307.959L192.25 308.226L192.517 303.143L187.434 302.876Z" stroke="#263238" stroke-linecap="round" stroke-linejoin="round"/>
<path d="M196.637 303.354L196.37 308.437L201.453 308.705L201.72 303.622L196.637 303.354Z" stroke="#263238" stroke-linecap="round" stroke-linejoin="round"/>
<path d="M205.84 303.842L205.573 308.925L210.655 309.193L210.923 304.11L205.84 303.842Z" stroke="#263238" stroke-linecap="round" stroke-linejoin="round"/>
<path d="M175.35 288.72C175.342 288.887 175.302 289.051 175.231 289.202C175.16 289.353 175.06 289.488 174.936 289.601C174.813 289.713 174.668 289.8 174.511 289.857C174.354 289.913 174.187 289.938 174.02 289.93C173.767 289.918 173.524 289.831 173.32 289.681C173.117 289.53 172.963 289.323 172.877 289.085C172.791 288.847 172.778 288.588 172.839 288.343C172.9 288.097 173.033 287.875 173.22 287.705C173.407 287.535 173.64 287.424 173.891 287.386C174.141 287.348 174.396 287.385 174.626 287.493C174.855 287.6 175.047 287.773 175.177 287.99C175.308 288.207 175.372 288.457 175.36 288.71L175.35 288.72Z" fill="#263238"/>
<path d="M177.4 313.23L239.89 316.51" stroke="#263238" stroke-width="2" stroke-linecap="round" stroke-linejoin="round"/>
<path d="M177.18 317.4L239.67 320.68" stroke="#263238" stroke-width="2" stroke-linecap="round" stroke-linejoin="round"/>
<path d="M176.92 322.26L230.22 325.06" stroke="#263238" stroke-width="2" stroke-linecap="round" stroke-linejoin="round"/>
<path d="M176.941 326.713L176.674 331.796L181.757 332.064L182.024 326.981L176.941 326.713Z" stroke="#263238" stroke-linecap="round" stroke-linejoin="round"/>
<path d="M187.232 327.171L186.978 332.264L192.071 332.519L192.326 327.425L187.232 327.171Z" stroke="#263238" stroke-width="1.00125" stroke-linecap="round" stroke-linejoin="round"/>
<path d="M195.356 327.69L195.089 332.773L200.172 333.04L200.439 327.957L195.356 327.69Z" stroke="#263238" stroke-linecap="round" stroke-linejoin="round"/>
<path d="M204.58 328.168L204.312 333.251L209.395 333.518L209.663 328.435L204.58 328.168Z" stroke="#263238" stroke-linecap="round" stroke-linejoin="round"/>
<path d="M174.07 313.05C174.062 313.217 174.022 313.38 173.951 313.532C173.88 313.683 173.779 313.818 173.656 313.931C173.532 314.043 173.388 314.13 173.231 314.187C173.074 314.243 172.907 314.268 172.74 314.26C172.4 314.26 172.075 314.125 171.835 313.885C171.595 313.645 171.46 313.319 171.46 312.98C171.46 312.64 171.595 312.315 171.835 312.075C172.075 311.835 172.4 311.7 172.74 311.7H172.92C173.087 311.708 173.25 311.748 173.402 311.819C173.553 311.89 173.688 311.99 173.801 312.114C173.913 312.237 174 312.382 174.057 312.539C174.113 312.696 174.138 312.863 174.13 313.03L174.07 313.05Z" fill="#263238"/>
<path d="M176.08 338.25L238.57 341.54" stroke="#263238" stroke-width="2" stroke-linecap="round" stroke-linejoin="round"/>
<path d="M175.86 342.42L238.36 345.71" stroke="#263238" stroke-width="2" stroke-linecap="round" stroke-linejoin="round"/>
<path d="M175.61 347.29L228.91 350.09" stroke="#263238" stroke-width="2" stroke-linecap="round" stroke-linejoin="round"/>
<path d="M175.616 351.746L175.349 356.829L180.432 357.096L180.699 352.013L175.616 351.746Z" stroke="#263238" stroke-linecap="round" stroke-linejoin="round"/>
<path d="M184.841 352.224L184.573 357.307L189.656 357.574L189.923 352.491L184.841 352.224Z" stroke="#263238" stroke-linecap="round" stroke-linejoin="round"/>
<path d="M194.063 352.702L193.796 357.785L198.879 358.052L199.146 352.969L194.063 352.702Z" stroke="#263238" stroke-linecap="round" stroke-linejoin="round"/>
<path d="M203.266 353.201L202.999 358.284L208.082 358.551L208.349 353.468L203.266 353.201Z" stroke="#263238" stroke-linecap="round" stroke-linejoin="round"/>
<path d="M172.75 338.08C172.736 338.331 172.648 338.571 172.497 338.772C172.346 338.972 172.139 339.124 171.902 339.207C171.665 339.29 171.409 339.301 171.166 339.238C170.923 339.176 170.704 339.042 170.536 338.855C170.369 338.668 170.26 338.436 170.225 338.187C170.189 337.939 170.228 337.686 170.337 337.459C170.445 337.233 170.619 337.044 170.835 336.916C171.05 336.788 171.299 336.727 171.55 336.74C171.717 336.749 171.88 336.791 172.031 336.863C172.182 336.935 172.317 337.036 172.428 337.161C172.54 337.285 172.626 337.431 172.681 337.588C172.736 337.746 172.76 337.913 172.75 338.08Z" fill="#263238"/>
<path d="M181.23 280.17L181.89 281.31L184.6 278.32" stroke="#263238" stroke-width="2" stroke-linecap="round" stroke-linejoin="round"/>
<path d="M198.39 305.16L199.05 306.3L201.76 303.31" stroke="#263238" stroke-width="2" stroke-linecap="round" stroke-linejoin="round"/>
<path d="M207 330.84L207.66 331.98L210.37 328.98" stroke="#263238" stroke-width="2" stroke-linecap="round" stroke-linejoin="round"/>
<path d="M186.6 353.76L187.26 354.89L189.97 351.9" stroke="#263238" stroke-width="2" stroke-linecap="round" stroke-linejoin="round"/>
<path d="M197.51 336.04L116.96 358.43L83.3201 237.36L116.67 228.09L163.87 214.98L194.39 324.82L197.51 336.04Z" fill="white"/>
<mask id="mask1_7_3" style="mask-type:luminance" maskUnits="userSpaceOnUse" x="83" y="214" width="115" height="145">
<path d="M197.51 336.04L116.96 358.43L83.3201 237.36L116.67 228.09L163.87 214.98L194.39 324.82L197.51 336.04Z" fill="white"/>
</mask>
<g mask="url(#mask1_7_3)">
<path opacity="0.2" d="M194.39 324.82L132.11 328.85L116.67 228.09L163.87 214.98L194.39 324.82Z" fill="black" fill-opacity="0.7"/>
</g>
<path d="M197.51 336.04L116.96 358.43L83.3201 237.36L116.67 228.09L163.87 214.98L194.39 324.82L197.51 336.04Z" stroke="#263238" stroke-linecap="round" stroke-linejoin="round"/>
<path d="M91.6401 243.62L112.6 237.8" stroke="#263238" stroke-width="2" stroke-linecap="round" stroke-linejoin="round"/>
<path d="M92.75 247.65L107.01 243.69" stroke="#263238" stroke-width="2" stroke-linecap="round" stroke-linejoin="round"/>
<path d="M100.5 255.73L160.8 238.98" stroke="#263238" stroke-width="2" stroke-linecap="round" stroke-linejoin="round"/>
<path d="M101.62 259.75L161.92 243" stroke="#263238" stroke-width="2" stroke-linecap="round" stroke-linejoin="round"/>
<path d="M102.92 264.45L154.35 250.16" stroke="#263238" stroke-width="2" stroke-linecap="round" stroke-linejoin="round"/>
<path d="M109.275 267.295L104.371 268.657L105.734 273.562L110.638 272.199L109.275 267.295Z" stroke="#263238" stroke-linecap="round" stroke-linejoin="round"/>
<path d="M118.167 264.815L113.262 266.178L114.625 271.082L119.529 269.719L118.167 264.815Z" stroke="#263238" stroke-linecap="round" stroke-linejoin="round"/>
<path d="M127.06 262.342L122.156 263.705L123.519 268.609L128.423 267.246L127.06 262.342Z" stroke="#263238" stroke-linecap="round" stroke-linejoin="round"/>
<path d="M135.938 259.877L131.034 261.24L132.397 266.144L137.301 264.781L135.938 259.877Z" stroke="#263238" stroke-linecap="round" stroke-linejoin="round"/>
<path d="M97.29 256.62C97.3802 256.945 97.3376 257.292 97.1716 257.586C97.0057 257.879 96.7299 258.095 96.405 258.185C96.0801 258.275 95.7327 258.232 95.4392 258.067C95.1457 257.901 94.9302 257.625 94.84 257.3C94.7498 256.975 94.7924 256.628 94.9584 256.334C95.1244 256.041 95.4001 255.825 95.725 255.735C96.0499 255.645 96.3973 255.687 96.6908 255.853C96.9843 256.019 97.1998 256.295 97.29 256.62Z" fill="#263238"/>
<path d="M107.02 279.2L167.32 262.45" stroke="#263238" stroke-width="2" stroke-linecap="round" stroke-linejoin="round"/>
<path d="M108.14 283.23L168.44 266.47" stroke="#263238" stroke-width="2" stroke-linecap="round" stroke-linejoin="round"/>
<path d="M109.45 287.92L160.87 273.63" stroke="#263238" stroke-width="2" stroke-linecap="round" stroke-linejoin="round"/>
<path d="M115.801 290.759L110.896 292.122L112.259 297.026L117.163 295.664L115.801 290.759Z" stroke="#263238" stroke-linecap="round" stroke-linejoin="round"/>
<path d="M124.685 288.292L119.781 289.655L121.144 294.559L126.048 293.196L124.685 288.292Z" stroke="#263238" stroke-linecap="round" stroke-linejoin="round"/>
<path d="M133.579 285.822L128.675 287.185L130.038 292.089L134.942 290.726L133.579 285.822Z" stroke="#263238" stroke-linecap="round" stroke-linejoin="round"/>
<path d="M142.48 283.34L137.576 284.702L138.939 289.607L143.843 288.244L142.48 283.34Z" stroke="#263238" stroke-linecap="round" stroke-linejoin="round"/>
<path d="M103.82 280.1C103.888 280.344 103.882 280.602 103.802 280.842C103.723 281.083 103.575 281.294 103.376 281.45C103.177 281.606 102.936 281.699 102.683 281.718C102.431 281.738 102.179 281.681 101.958 281.557C101.738 281.433 101.559 281.247 101.445 281.021C101.331 280.795 101.286 280.541 101.316 280.29C101.346 280.038 101.45 279.802 101.614 279.61C101.779 279.418 101.997 279.278 102.24 279.21C102.401 279.164 102.569 279.151 102.735 279.17C102.901 279.19 103.062 279.242 103.208 279.324C103.354 279.406 103.482 279.515 103.585 279.647C103.689 279.778 103.765 279.929 103.81 280.09L103.82 280.1Z" fill="#263238"/>
<path d="M113.55 302.68L173.84 285.92" stroke="#263238" stroke-width="2" stroke-linecap="round" stroke-linejoin="round"/>
<path d="M114.67 306.7L174.96 289.95" stroke="#263238" stroke-width="2" stroke-linecap="round" stroke-linejoin="round"/>
<path d="M115.97 311.4L167.4 297.11" stroke="#263238" stroke-width="2" stroke-linecap="round" stroke-linejoin="round"/>
<path d="M122.317 314.229L117.413 315.592L118.776 320.496L123.68 319.134L122.317 314.229Z" stroke="#263238" stroke-linecap="round" stroke-linejoin="round"/>
<path d="M131.221 311.757L126.316 313.12L127.679 318.024L132.583 316.661L131.221 311.757Z" stroke="#263238" stroke-linecap="round" stroke-linejoin="round"/>
<path d="M140.095 309.289L135.191 310.652L136.554 315.556L141.458 314.194L140.095 309.289Z" stroke="#263238" stroke-linecap="round" stroke-linejoin="round"/>
<path d="M148.989 306.819L144.085 308.182L145.448 313.086L150.352 311.723L148.989 306.819Z" stroke="#263238" stroke-linecap="round" stroke-linejoin="round"/>
<path d="M110.34 303.57C110.408 303.814 110.402 304.072 110.322 304.312C110.243 304.553 110.095 304.764 109.896 304.92C109.697 305.076 109.456 305.169 109.203 305.189C108.951 305.208 108.699 305.152 108.478 305.027C108.258 304.903 108.079 304.717 107.965 304.491C107.851 304.265 107.806 304.011 107.836 303.76C107.866 303.509 107.97 303.272 108.134 303.08C108.299 302.888 108.517 302.748 108.76 302.68C108.921 302.634 109.089 302.621 109.255 302.64C109.421 302.66 109.582 302.712 109.728 302.794C109.874 302.876 110.002 302.985 110.105 303.117C110.209 303.248 110.285 303.399 110.33 303.56L110.34 303.57Z" fill="#263238"/>
<path d="M120.26 326.82L180.55 310.07" stroke="#263238" stroke-width="2" stroke-linecap="round" stroke-linejoin="round"/>
<path d="M121.37 330.85L181.67 314.09" stroke="#263238" stroke-width="2" stroke-linecap="round" stroke-linejoin="round"/>
<path d="M122.68 335.54L174.11 321.25" stroke="#263238" stroke-width="2" stroke-linecap="round" stroke-linejoin="round"/>
<path d="M129.028 338.381L124.124 339.744L125.487 344.648L130.391 343.285L129.028 338.381Z" stroke="#263238" stroke-linecap="round" stroke-linejoin="round"/>
<path d="M137.922 335.909L133.018 337.271L134.38 342.176L139.285 340.813L137.922 335.909Z" stroke="#263238" stroke-linecap="round" stroke-linejoin="round"/>
<path d="M146.816 333.438L141.912 334.801L143.274 339.705L148.179 338.343L146.816 333.438Z" stroke="#263238" stroke-linecap="round" stroke-linejoin="round"/>
<path d="M155.7 330.971L150.796 332.334L152.159 337.238L157.063 335.875L155.7 330.971Z" stroke="#263238" stroke-linecap="round" stroke-linejoin="round"/>
<path d="M117.05 327.71C117.144 328.036 117.105 328.386 116.941 328.684C116.777 328.981 116.501 329.201 116.175 329.295C115.849 329.389 115.499 329.35 115.201 329.186C114.904 329.022 114.684 328.746 114.59 328.42C114.497 328.092 114.538 327.741 114.703 327.444C114.867 327.146 115.143 326.925 115.47 326.83C115.794 326.74 116.139 326.781 116.433 326.944C116.727 327.106 116.945 327.378 117.04 327.7L117.05 327.71Z" fill="#263238"/>
<path d="M115.04 267.78L116.03 268.65L117.65 264.95" stroke="#263238" stroke-width="2" stroke-linecap="round" stroke-linejoin="round"/>
<path d="M112.63 293.97L113.62 294.84L115.23 291.14" stroke="#263238" stroke-width="2" stroke-linecap="round" stroke-linejoin="round"/>
<path d="M119.15 317.2L120.14 318.07L121.75 314.37" stroke="#263238" stroke-width="2" stroke-linecap="round" stroke-linejoin="round"/>
<path d="M143.62 336.23L144.61 337.1L146.23 333.4" stroke="#263238" stroke-width="2" stroke-linecap="round" stroke-linejoin="round"/>
<path d="M205.376 187.013L122.16 195.011L134.181 320.085L217.397 312.086L205.376 187.013Z" fill="white" stroke="#263238" stroke-linecap="round" stroke-linejoin="round"/>
<path d="M129.25 202.64L150.91 200.56" stroke="#263238" stroke-width="2" stroke-linecap="round" stroke-linejoin="round"/>
<path d="M129.65 206.8L144.38 205.38" stroke="#263238" stroke-width="2" stroke-linecap="round" stroke-linejoin="round"/>
<path d="M135.87 216.11L198.16 210.12" stroke="#263238" stroke-width="2" stroke-linecap="round" stroke-linejoin="round"/>
<path d="M136.27 220.26L198.56 214.28" stroke="#263238" stroke-width="2" stroke-linecap="round" stroke-linejoin="round"/>
<path d="M136.74 225.11L189.87 220.01" stroke="#263238" stroke-width="2" stroke-linecap="round" stroke-linejoin="round"/>
<path d="M142.507 229.01L137.44 229.497L137.927 234.564L142.994 234.077L142.507 229.01Z" stroke="#263238" stroke-linecap="round" stroke-linejoin="round"/>
<path d="M151.691 228.125L146.624 228.612L147.111 233.679L152.178 233.192L151.691 228.125Z" stroke="#263238" stroke-linecap="round" stroke-linejoin="round"/>
<path d="M160.875 227.251L155.808 227.738L156.295 232.804L161.361 232.317L160.875 227.251Z" stroke="#263238" stroke-linecap="round" stroke-linejoin="round"/>
<path d="M170.057 226.357L164.99 226.844L165.477 231.91L170.544 231.423L170.057 226.357Z" stroke="#263238" stroke-linecap="round" stroke-linejoin="round"/>
<path d="M132.56 216.43C132.585 216.682 132.534 216.935 132.414 217.158C132.295 217.381 132.112 217.564 131.888 217.683C131.665 217.802 131.412 217.852 131.16 217.827C130.908 217.803 130.669 217.703 130.474 217.543C130.278 217.382 130.135 217.167 130.061 216.925C129.988 216.683 129.988 216.424 130.061 216.182C130.135 215.94 130.278 215.725 130.474 215.564C130.669 215.404 130.908 215.305 131.16 215.28C131.326 215.263 131.494 215.28 131.654 215.328C131.814 215.376 131.962 215.456 132.091 215.562C132.221 215.668 132.328 215.798 132.406 215.945C132.485 216.092 132.534 216.254 132.55 216.42L132.56 216.43Z" fill="#263238"/>
<path d="M138.2 240.36L200.49 234.38" stroke="#263238" stroke-width="2" stroke-linecap="round" stroke-linejoin="round"/>
<path d="M138.6 244.52L200.89 238.53" stroke="#263238" stroke-width="2" stroke-linecap="round" stroke-linejoin="round"/>
<path d="M139.07 249.37L192.2 244.26" stroke="#263238" stroke-width="2" stroke-linecap="round" stroke-linejoin="round"/>
<path d="M144.836 253.256L139.77 253.743L140.257 258.81L145.323 258.323L144.836 253.256Z" stroke="#263238" stroke-linecap="round" stroke-linejoin="round"/>
<path d="M154.02 252.381L148.953 252.868L149.44 257.935L154.507 257.448L154.02 252.381Z" stroke="#263238" stroke-linecap="round" stroke-linejoin="round"/>
<path d="M163.204 251.497L158.137 251.984L158.624 257.05L163.691 256.563L163.204 251.497Z" stroke="#263238" stroke-linecap="round" stroke-linejoin="round"/>
<path d="M172.388 250.632L167.322 251.119L167.809 256.186L172.875 255.699L172.388 250.632Z" stroke="#263238" stroke-linecap="round" stroke-linejoin="round"/>
<path d="M134.89 240.68C134.915 240.932 134.864 241.185 134.744 241.408C134.625 241.631 134.442 241.814 134.219 241.933C133.995 242.052 133.742 242.102 133.49 242.077C133.238 242.052 132.999 241.953 132.804 241.793C132.608 241.632 132.465 241.417 132.391 241.175C132.318 240.933 132.318 240.674 132.391 240.432C132.465 240.19 132.608 239.975 132.804 239.814C133 239.654 133.238 239.555 133.49 239.53C133.658 239.513 133.827 239.53 133.988 239.579C134.149 239.628 134.299 239.708 134.429 239.815C134.559 239.921 134.666 240.053 134.746 240.201C134.825 240.35 134.874 240.512 134.89 240.68Z" fill="#263238"/>
<path d="M140.53 264.61L202.82 258.63" stroke="#263238" stroke-width="2" stroke-linecap="round" stroke-linejoin="round"/>
<path d="M140.93 268.77L203.22 262.78" stroke="#263238" stroke-width="2" stroke-linecap="round" stroke-linejoin="round"/>
<path d="M141.4 273.62L194.53 268.51" stroke="#263238" stroke-width="2" stroke-linecap="round" stroke-linejoin="round"/>
<path d="M147.166 277.512L142.099 277.999L142.586 283.066L147.653 282.579L147.166 277.512Z" stroke="#263238" stroke-linecap="round" stroke-linejoin="round"/>
<path d="M156.349 276.628L151.283 277.115L151.77 282.181L156.836 281.694L156.349 276.628Z" stroke="#263238" stroke-linecap="round" stroke-linejoin="round"/>
<path d="M165.533 275.753L160.467 276.24L160.954 281.306L166.02 280.819L165.533 275.753Z" stroke="#263238" stroke-linecap="round" stroke-linejoin="round"/>
<path d="M174.717 274.868L169.65 275.355L170.137 280.422L175.204 279.935L174.717 274.868Z" stroke="#263238" stroke-linecap="round" stroke-linejoin="round"/>
<path d="M137.21 264.93C137.233 265.18 137.181 265.431 137.061 265.652C136.941 265.872 136.758 266.052 136.535 266.169C136.313 266.286 136.061 266.334 135.811 266.308C135.562 266.281 135.325 266.181 135.132 266.02C134.939 265.86 134.798 265.645 134.727 265.404C134.656 265.163 134.658 264.907 134.733 264.667C134.807 264.427 134.952 264.215 135.147 264.057C135.342 263.899 135.58 263.803 135.83 263.78C135.996 263.765 136.164 263.783 136.323 263.832C136.482 263.882 136.63 263.962 136.758 264.069C136.886 264.176 136.992 264.307 137.07 264.455C137.147 264.602 137.195 264.764 137.21 264.93Z" fill="#263238"/>
<path d="M142.93 289.56L205.22 283.57" stroke="#263238" stroke-width="2" stroke-linecap="round" stroke-linejoin="round"/>
<path d="M143.33 293.71L205.62 287.73" stroke="#263238" stroke-width="2" stroke-linecap="round" stroke-linejoin="round"/>
<path d="M143.79 298.56L196.92 293.46" stroke="#263238" stroke-width="2" stroke-linecap="round" stroke-linejoin="round"/>
<path d="M149.562 302.458L144.495 302.945L144.982 308.011L150.049 307.525L149.562 302.458Z" stroke="#263238" stroke-linecap="round" stroke-linejoin="round"/>
<path d="M158.755 301.583L153.689 302.07L154.176 307.136L159.242 306.649L158.755 301.583Z" stroke="#263238" stroke-linecap="round" stroke-linejoin="round"/>
<path d="M167.928 300.69L162.862 301.177L163.349 306.243L168.415 305.756L167.928 300.69Z" stroke="#263238" stroke-linecap="round" stroke-linejoin="round"/>
<path d="M177.112 299.804L172.045 300.291L172.532 305.358L177.599 304.871L177.112 299.804Z" stroke="#263238" stroke-linecap="round" stroke-linejoin="round"/>
<path d="M139.61 289.87C139.637 290.123 139.588 290.377 139.469 290.602C139.351 290.826 139.168 291.011 138.945 291.131C138.721 291.252 138.467 291.303 138.214 291.279C137.962 291.254 137.722 291.155 137.525 290.994C137.329 290.833 137.185 290.618 137.112 290.374C137.038 290.131 137.039 289.872 137.113 289.629C137.188 289.387 137.333 289.171 137.53 289.011C137.727 288.851 137.967 288.753 138.22 288.73C138.386 288.713 138.554 288.73 138.714 288.778C138.874 288.826 139.022 288.906 139.151 289.012C139.281 289.118 139.388 289.248 139.466 289.395C139.545 289.542 139.594 289.704 139.61 289.87Z" fill="#263238"/>
<path d="M139.44 231.35L140.26 232.38L142.5 229.02" stroke="#263238" stroke-width="2" stroke-linecap="round" stroke-linejoin="round"/>
<path d="M160.11 253.53L160.93 254.56L163.16 251.2" stroke="#263238" stroke-width="2" stroke-linecap="round" stroke-linejoin="round"/>
<path d="M153.3 279.17L154.12 280.2L156.36 276.84" stroke="#263238" stroke-width="2" stroke-linecap="round" stroke-linejoin="round"/>
<path d="M173.93 302.16L174.75 303.19L176.99 299.83" stroke="#263238" stroke-width="2" stroke-linecap="round" stroke-linejoin="round"/>
<path d="M307.15 137.71H255.48C253.655 137.71 251.905 138.435 250.615 139.725C249.325 141.015 248.6 142.765 248.6 144.59V189C248.6 190.825 249.325 192.575 250.615 193.865C251.905 195.155 253.655 195.88 255.48 195.88H278.38L291.5 211.69L288.21 195.88H307.15C308.97 195.872 310.712 195.144 311.996 193.854C313.279 192.565 314 190.819 314 189V144.59C314 142.77 313.279 141.025 311.996 139.736C310.712 138.446 308.97 137.718 307.15 137.71Z" fill="white" stroke="#263238" stroke-linecap="round" stroke-linejoin="round"/>
<path d="M285.45 162.07V157.37L281.93 157.07C281.72 156.336 281.428 155.629 281.06 154.96L283.33 152.26L280 148.94L277.3 151.21C276.634 150.836 275.926 150.544 275.19 150.34L274.89 146.82H270.19L269.89 150.34C269.154 150.544 268.446 150.836 267.78 151.21L265.08 148.94L261.75 152.26L264 155C263.627 155.667 263.332 156.375 263.12 157.11L259.6 157.41V162.11L263.12 162.42C263.332 163.155 263.627 163.863 264 164.53L261.72 167.23L265.05 170.55L267.75 168.28C268.416 168.654 269.124 168.946 269.86 169.15L270.16 172.67H274.86L275.16 169.15C275.896 168.946 276.604 168.654 277.27 168.28L279.97 170.55L283.3 167.23L281.03 164.53C281.398 163.861 281.69 163.154 281.9 162.42L285.45 162.07ZM272.54 165.19C271.458 165.192 270.4 164.873 269.499 164.274C268.599 163.674 267.896 162.821 267.48 161.822C267.064 160.824 266.954 159.724 267.163 158.663C267.372 157.601 267.892 156.626 268.655 155.859C269.419 155.093 270.392 154.57 271.453 154.357C272.514 154.144 273.614 154.25 274.614 154.663C275.614 155.075 276.47 155.774 277.073 156.673C277.675 157.571 277.998 158.628 278 159.71C278.003 160.427 277.864 161.138 277.591 161.802C277.318 162.465 276.917 163.068 276.411 163.577C275.905 164.085 275.303 164.488 274.64 164.763C273.978 165.038 273.267 165.18 272.55 165.18L272.54 165.19Z" fill="#493628"/>
<path d="M301 172.56V169.22L298.49 169C298.344 168.477 298.136 167.973 297.87 167.5L299.49 165.58L297.13 163.22L295.2 164.83C294.725 164.568 294.222 164.36 293.7 164.21L293.49 161.71H290.14L289.93 164.21C289.405 164.36 288.899 164.568 288.42 164.83L286.5 163.22L284.14 165.58L285.75 167.5C285.487 167.974 285.283 168.477 285.14 169L282.63 169.22V172.56L285.14 172.78C285.283 173.303 285.487 173.806 285.75 174.28L284.14 176.2L286.5 178.57L288.42 176.95C288.895 177.22 289.402 177.429 289.93 177.57L290.14 180.08H293.49L293.7 177.57C294.225 177.429 294.729 177.22 295.2 176.95L297.13 178.57L299.49 176.2L297.87 174.28C298.14 173.809 298.349 173.304 298.49 172.78L301 172.56ZM291.81 174.78C291.041 174.78 290.289 174.552 289.649 174.124C289.009 173.697 288.511 173.089 288.216 172.379C287.922 171.668 287.845 170.886 287.995 170.131C288.145 169.376 288.515 168.683 289.059 168.139C289.604 167.595 290.297 167.225 291.051 167.075C291.806 166.925 292.588 167.002 293.299 167.296C294.01 167.59 294.617 168.089 295.045 168.729C295.472 169.368 295.7 170.121 295.7 170.89C295.7 171.922 295.29 172.911 294.561 173.641C293.831 174.37 292.842 174.78 291.81 174.78Z" fill="#493628"/>
<path d="M284.64 180.35V178L282.85 177.84C282.748 177.467 282.6 177.107 282.41 176.77L283.56 175.41L281.88 173.72L280.51 174.87C280.172 174.688 279.817 174.541 279.45 174.43L279.29 172.65H276.91L276.76 174.43C276.388 174.537 276.029 174.684 275.69 174.87L274.32 173.72L272.64 175.41L273.79 176.77C273.604 177.109 273.457 177.468 273.35 177.84L271.57 178V180.37L273.35 180.53C273.457 180.902 273.604 181.261 273.79 181.6L272.64 183L274.32 184.69L275.69 183.54C276.031 183.721 276.39 183.869 276.76 183.98L276.91 185.76H279.29L279.45 183.98C279.817 183.869 280.172 183.721 280.51 183.54L281.88 184.69L283.56 183L282.41 181.64C282.6 181.303 282.748 180.943 282.85 180.57L284.64 180.35ZM278.1 181.93C277.552 181.93 277.017 181.767 276.561 181.463C276.106 181.159 275.751 180.726 275.541 180.22C275.331 179.714 275.276 179.157 275.383 178.62C275.49 178.082 275.754 177.589 276.141 177.201C276.529 176.814 277.022 176.55 277.56 176.443C278.097 176.336 278.654 176.391 279.16 176.601C279.666 176.81 280.099 177.165 280.403 177.621C280.708 178.076 280.87 178.612 280.87 179.16C280.867 179.893 280.574 180.595 280.055 181.112C279.536 181.629 278.833 181.92 278.1 181.92V181.93Z" fill="#493628"/>
<path d="M279.93 308.37L320.21 456.95H326.23L285.96 308.37H279.93Z" fill="#757575" stroke="#44372E" stroke-linecap="round" stroke-linejoin="round"/>
<path d="M370.65 414.83H294.3V421.05H370.65V414.83Z" fill="#999999" stroke="#44372E" stroke-linecap="round" stroke-linejoin="round"/>
<path d="M411.38 275L362.05 457H356.05L405.37 275C407.19 268.29 403.02 262.83 396.07 262.83H353.57C346.63 262.83 339.49 268.29 337.67 275L288.33 457H282.33L331.66 275C334.35 265.07 344.87 257 355.15 257H397.66C407.91 257 414.07 265.06 411.38 275Z" fill="#757575" stroke="#44372E" stroke-linecap="round" stroke-linejoin="round"/>
<path d="M412.16 275.05L399.92 320.23C399.33 322.132 398.165 323.804 396.586 325.016C395.006 326.229 393.089 326.922 391.1 327H321.26C320.418 327.066 319.572 326.92 318.801 326.576C318.03 326.232 317.357 325.7 316.844 325.029C316.331 324.357 315.994 323.569 315.864 322.734C315.734 321.899 315.815 321.045 316.1 320.25L328.35 275.07C328.944 273.173 330.111 271.506 331.69 270.297C333.269 269.089 335.183 268.398 337.17 268.32H407C407.666 268.272 408.334 268.356 408.968 268.567C409.601 268.778 410.187 269.112 410.691 269.549C411.195 269.987 411.608 270.519 411.907 271.117C412.205 271.714 412.383 272.364 412.43 273.03C412.475 273.715 412.383 274.401 412.16 275.05Z" fill="#675446"/>
<mask id="mask2_7_3" style="mask-type:luminance" maskUnits="userSpaceOnUse" x="315" y="268" width="98" height="60">
<path d="M412.16 275.05L399.92 320.23C399.33 322.132 398.165 323.804 396.586 325.016C395.006 326.229 393.089 326.922 391.1 327H321.26C320.418 327.066 319.572 326.92 318.801 326.576C318.03 326.232 317.357 325.7 316.844 325.029C316.331 324.357 315.994 323.569 315.864 322.734C315.734 321.899 315.815 321.045 316.1 320.25L328.35 275.07C328.944 273.173 330.111 271.506 331.69 270.297C333.269 269.089 335.183 268.398 337.17 268.32H407C407.666 268.272 408.334 268.356 408.968 268.567C409.601 268.778 410.187 269.112 410.691 269.549C411.195 269.987 411.608 270.519 411.907 271.117C412.205 271.714 412.383 272.364 412.43 273.03C412.475 273.715 412.383 274.401 412.16 275.05Z" fill="white"/>
</mask>
<g mask="url(#mask2_7_3)">
<path opacity="0.2" d="M412.16 275.05L399.92 320.23C399.33 322.132 398.165 323.804 396.586 325.017C395.006 326.229 393.089 326.922 391.1 327H321.26C320.418 327.066 319.572 326.92 318.801 326.576C318.03 326.232 317.357 325.7 316.844 325.029C316.331 324.357 315.994 323.569 315.864 322.734C315.734 321.899 315.815 321.045 316.1 320.25L328.35 275.07C328.944 273.173 330.111 271.506 331.69 270.297C333.269 269.089 335.183 268.398 337.17 268.32H373.28C388.89 284.32 386.9 313.81 385.88 322.71C387.509 322.317 389.009 321.511 390.235 320.369C391.462 319.226 392.372 317.787 392.88 316.19L405.1 271C405.349 270.126 405.401 269.207 405.25 268.31H407C407.839 268.25 408.681 268.399 409.448 268.745C410.216 269.09 410.885 269.621 411.397 270.289C411.908 270.957 412.246 271.742 412.379 272.573C412.512 273.404 412.437 274.255 412.16 275.05Z" fill="#4A392D"/>
</g>
<path d="M412.16 275.05L399.92 320.23C399.33 322.132 398.165 323.804 396.586 325.016C395.006 326.229 393.089 326.922 391.1 327H321.26C320.418 327.066 319.572 326.92 318.801 326.576C318.03 326.232 317.357 325.7 316.844 325.029C316.331 324.357 315.994 323.569 315.864 322.734C315.734 321.899 315.815 321.045 316.1 320.25L328.35 275.07C328.944 273.173 330.111 271.506 331.69 270.297C333.269 269.089 335.183 268.398 337.17 268.32H407C407.666 268.272 408.334 268.356 408.968 268.567C409.601 268.778 410.187 269.112 410.691 269.549C411.195 269.987 411.608 270.519 411.907 271.117C412.205 271.714 412.383 272.364 412.43 273.03C412.475 273.715 412.383 274.401 412.16 275.05Z" stroke="#44372E" stroke-linecap="round" stroke-linejoin="round"/>
<path d="M371.1 372.71L393.94 456.95H399.96L377.13 372.71H371.1Z" fill="#757575" stroke="#44372E" stroke-linecap="round" stroke-linejoin="round"/>
<path d="M377.15 363V371.24H287.23V363C287.23 361.393 287.868 359.851 289.005 358.715C290.141 357.578 291.683 356.94 293.29 356.94H371.08C371.877 356.937 372.667 357.092 373.404 357.396C374.141 357.699 374.81 358.145 375.374 358.708C375.938 359.272 376.386 359.941 376.69 360.677C376.995 361.414 377.151 362.203 377.15 363Z" fill="#675446"/>
<mask id="mask3_7_3" style="mask-type:luminance" maskUnits="userSpaceOnUse" x="287" y="356" width="91" height="16">
<path d="M377.15 363V371.24H287.23V363C287.23 361.393 287.868 359.851 289.005 358.715C290.141 357.578 291.683 356.94 293.29 356.94H371.08C371.877 356.937 372.667 357.092 373.404 357.396C374.141 357.699 374.81 358.145 375.374 358.708C375.938 359.272 376.386 359.941 376.69 360.677C376.995 361.414 377.151 362.203 377.15 363Z" fill="white"/>
</mask>
<g mask="url(#mask3_7_3)">
<path opacity="0.2" d="M376.94 361.45C374.03 364.87 368.81 368.35 359.83 371.28H287.23V363C287.23 361.393 287.868 359.851 289.005 358.715C290.141 357.578 291.683 356.94 293.29 356.94H371.08C372.417 356.941 373.716 357.384 374.776 358.2C375.836 359.015 376.596 360.158 376.94 361.45Z" fill="black" fill-opacity="0.7"/>
</g>
<path d="M377.15 363V371.24H287.23V363C287.23 361.393 287.868 359.851 289.005 358.715C290.141 357.578 291.683 356.94 293.29 356.94H371.08C371.877 356.937 372.667 357.092 373.404 357.396C374.141 357.699 374.81 358.145 375.374 358.708C375.938 359.272 376.386 359.941 376.69 360.677C376.995 361.414 377.151 362.203 377.15 363Z" stroke="#44372E" stroke-linecap="round" stroke-linejoin="round"/>
<path d="M380.2 368.75H284.96C284.016 368.75 283.25 369.516 283.25 370.46V374.77C283.25 375.714 284.016 376.48 284.96 376.48H380.2C381.144 376.48 381.91 375.714 381.91 374.77V370.46C381.91 369.516 381.144 368.75 380.2 368.75Z" fill="#999999" stroke="#44372E" stroke-linecap="round" stroke-linejoin="round"/>
<path d="M284.31 369C280 373.39 300.89 442.37 300.89 442.37C298.61 444.37 295.25 445.29 292.07 445.71C289.147 446.073 286.193 446.117 283.26 445.84C283.26 445.84 253.32 373.22 261.56 355.2C269.8 337.18 320.93 329 320.93 329L323.11 323.6L349.56 319.88L353.93 352.27C353.93 352.27 349.59 352.69 343.06 353.53C325.55 355.75 292.23 361 284.31 369Z" fill="#44372E"/>
<mask id="mask4_7_3" style="mask-type:luminance" maskUnits="userSpaceOnUse" x="260" y="319" width="94" height="128">
<path d="M284.31 369C280 373.39 300.89 442.37 300.89 442.37C298.61 444.37 295.25 445.29 292.07 445.71C289.147 446.073 286.193 446.117 283.26 445.84C283.26 445.84 253.32 373.22 261.56 355.2C269.8 337.18 320.93 329 320.93 329L323.11 323.6L349.56 319.88L353.93 352.27C353.93 352.27 349.59 352.69 343.06 353.53C325.55 355.75 292.23 361 284.31 369Z" fill="white"/>
</mask>
<g mask="url(#mask4_7_3)">
<path opacity="0.3" d="M300.89 442.41C298.61 444.41 295.25 445.33 292.07 445.75C286.26 424.15 271.47 366.51 277.07 359.46C283.98 350.76 318.18 342.85 318.18 342.85C318.32 338.41 330.31 334.41 330.31 334.41L343.05 353.5C325.54 355.75 292.22 361 284.3 369C280 373.43 300.89 442.41 300.89 442.41Z" fill="#44372E"/>
</g>
<path d="M284.31 369C280 373.39 300.89 442.37 300.89 442.37C298.61 444.37 295.25 445.29 292.07 445.71C289.147 446.073 286.193 446.117 283.26 445.84C283.26 445.84 253.32 373.22 261.56 355.2C269.8 337.18 320.93 329 320.93 329L323.11 323.6L349.56 319.88L353.93 352.27C353.93 352.27 349.59 352.69 343.06 353.53C325.55 355.75 292.23 361 284.31 369Z" stroke="#44372E" stroke-linecap="round" stroke-linejoin="round"/>
<path d="M269.51 303.71C265.12 302.96 296.37 275.56 296.37 275.56L311.44 285.7C311.44 285.7 285.8 303.76 281.77 304.25C277.74 304.74 269.51 303.71 269.51 303.71Z" fill="white"/>
<mask id="mask5_7_3" style="mask-type:luminance" maskUnits="userSpaceOnUse" x="269" y="275" width="43" height="30">
<path d="M269.51 303.71C265.12 302.96 296.37 275.56 296.37 275.56L311.44 285.7C311.44 285.7 285.8 303.76 281.77 304.25C277.74 304.74 269.51 303.71 269.51 303.71Z" fill="white"/>
</mask>
<g mask="url(#mask5_7_3)">
<path opacity="0.2" d="M269.51 303.71C265.12 302.96 296.37 275.56 296.37 275.56L311.44 285.7C311.44 285.7 285.8 303.76 281.77 304.25C277.74 304.74 269.51 303.71 269.51 303.71Z" fill="black" fill-opacity="0.7"/>
</g>
<path d="M269.51 303.71C265.12 302.96 296.37 275.56 296.37 275.56L311.44 285.7C311.44 285.7 285.8 303.76 281.77 304.25C277.74 304.74 269.51 303.71 269.51 303.71Z" stroke="#44372E" stroke-linecap="round" stroke-linejoin="round"/>
<path d="M275 292.19C275 292.19 281.55 293.82 283.56 295.19C285.57 296.56 284.99 301.51 284.99 301.51C284.99 301.51 276.26 299.05 275 292.19Z" fill="white" stroke="#44372E" stroke-linecap="round" stroke-linejoin="round"/>
<path d="M270.82 279.64L283 303H284.44L272.87 278.49L270.82 279.64Z" fill="#44372E"/>
<path d="M281.8 296.53C281.8 296.53 274.12 291.07 272.24 291.07C270.36 291.07 264.73 297.72 264.73 301.07C264.73 304.42 277.01 306.25 279.41 303.42C280.61 302.01 278.23 298.61 278.23 298.61C279.66 300.131 281.193 301.551 282.82 302.86C283.82 303.42 285.73 302.69 285.73 302.69C285.73 302.69 283.17 298.59 281.8 296.53Z" fill="white" stroke="#44372E" stroke-linecap="round" stroke-linejoin="round"/>
<path d="M278.23 304.19C276.459 301.942 274.285 300.043 271.82 298.59" stroke="#44372E" stroke-linecap="round" stroke-linejoin="round"/>
<path d="M278.23 298.59C278.23 298.59 275.57 296.27 273.78 295.76" stroke="#44372E" stroke-linecap="round" stroke-linejoin="round"/>
<path d="M269.86 301.54C271.719 302.493 273.513 303.569 275.23 304.76" stroke="#44372E" stroke-linecap="round" stroke-linejoin="round"/>
<path d="M306.16 263.58C302.23 266.32 284.58 284.47 284.58 284.47C284.58 284.47 292.85 293.88 300.1 295.24L319.75 285.7L306.16 263.58Z" fill="#B9AE96" stroke="#44372E" stroke-linecap="round" stroke-linejoin="round"/>
<path opacity="0.4" d="M306.16 263.58C302.23 266.32 284.58 284.47 284.58 284.47C284.58 284.47 292.85 293.88 300.1 295.24L319.75 285.7L306.16 263.58Z" fill="white" stroke="#44372E" stroke-linecap="round" stroke-linejoin="round"/>
<path d="M296.67 435.09L305 457C305 457 306.38 462.63 281.26 460.85L267.42 459.67L296.67 435.09Z" fill="#B9AE96"/>
<mask id="mask6_7_3" style="mask-type:luminance" maskUnits="userSpaceOnUse" x="267" y="435" width="39" height="27">
<path d="M296.67 435.09L305 457C305 457 306.38 462.63 281.26 460.85L267.42 459.67L296.67 435.09Z" fill="white"/>
</mask>
<g mask="url(#mask6_7_3)">
<path opacity="0.3" d="M296.67 435.09L305 457C305 457 306.38 462.63 281.26 460.85L267.42 459.67L296.67 435.09Z" fill="#44372E"/>
</g>
<path d="M296.67 435.09L305 457C305 457 306.38 462.63 281.26 460.85L267.42 459.67L296.67 435.09Z" stroke="#44372E" stroke-linecap="round" stroke-linejoin="round"/>
<path d="M293.51 445.57C293.51 445.57 295.29 454.08 293.51 460.41C293.51 460.41 267 464.56 261.07 462.98C255.14 461.4 251.54 458.44 251.36 456.98C251.36 456.98 251.57 452.92 257.51 451.73C263.45 450.54 275.26 449.73 279.93 443.03C284.6 436.33 293.51 445.57 293.51 445.57Z" fill="#B9AE96" stroke="#44372E" stroke-linecap="round" stroke-linejoin="round"/>
<path d="M328.49 322.72C336.96 310.64 375.9 325.18 375.9 325.18C375.9 325.18 379.61 354.26 364.1 362.02C348.59 369.78 326.23 369.36 320.19 375.65L295.61 448.23C295.61 448.23 286.78 451.92 273.94 446.11C273.94 446.11 289.55 391.3 294.13 371.84C298.66 352.58 327.99 339.51 327.99 339.51C326.478 337.724 325.333 335.658 324.62 333.43" fill="#44372E"/>
<path d="M328.49 322.72C336.96 310.64 375.9 325.18 375.9 325.18C375.9 325.18 379.61 354.26 364.1 362.02C348.59 369.78 326.23 369.36 320.19 375.65L295.61 448.23C295.61 448.23 286.78 451.92 273.94 446.11C273.94 446.11 289.55 391.3 294.13 371.84C298.66 352.58 327.99 339.51 327.99 339.51C326.478 337.724 325.333 335.658 324.62 333.43" stroke="#44372E" stroke-linecap="round" stroke-linejoin="round"/>
<path d="M367.91 350.52C366.667 351.621 365.362 352.65 364 353.6" stroke="white" stroke-linecap="round" stroke-linejoin="round"/>
<path d="M371.1 325.89C374.28 332.79 374.53 341.55 370.1 347.94" stroke="white" stroke-linecap="round" stroke-linejoin="round"/>
<path d="M362.23 327C362.23 327 361.42 332.32 363.79 334.43C366.16 336.54 373.43 337.61 373.43 337.61" stroke="white" stroke-linecap="round" stroke-linejoin="round"/>
<path d="M330.31 327.24C330.31 327.24 330.64 332.54 328.49 332.29C326.34 332.04 326.23 334.41 326.23 334.41" stroke="white" stroke-linecap="round" stroke-linejoin="round"/>
<path d="M306.68 267.66C306.352 266.324 306.178 264.955 306.16 263.58C306.16 263.58 318.16 253.46 333.61 253.52C352.01 253.58 363.26 259.37 367.76 267.41C374.9 280.13 375.9 325.18 375.9 325.18C375.9 325.18 329.73 332.3 323.11 323.57C321.96 322.05 322.84 311.32 322.84 311.32C322.84 311.32 317.67 297.76 316.58 287.24C315.061 285.146 313.649 282.977 312.35 280.74C310.706 277.986 309.281 275.107 308.09 272.13" fill="#B9AE96"/>
<path d="M306.68 267.66C306.352 266.324 306.178 264.955 306.16 263.58C306.16 263.58 318.16 253.46 333.61 253.52C352.01 253.58 363.26 259.37 367.76 267.41C374.9 280.13 375.9 325.18 375.9 325.18C375.9 325.18 329.73 332.3 323.11 323.57C321.96 322.05 322.84 311.32 322.84 311.32C322.84 311.32 317.67 297.76 316.58 287.24C315.061 285.146 313.649 282.977 312.35 280.74C310.706 277.986 309.281 275.107 308.09 272.13" stroke="#44372E" stroke-linecap="round" stroke-linejoin="round"/>
<g opacity="0.6">
<path d="M306.68 267.66C306.352 266.324 306.178 264.955 306.16 263.58C306.16 263.58 318.16 253.46 333.61 253.52C352.01 253.58 363.26 259.37 367.76 267.41C374.9 280.13 375.9 325.18 375.9 325.18C375.9 325.18 329.73 332.3 323.11 323.57C321.96 322.05 322.84 311.32 322.84 311.32C322.84 311.32 317.67 297.76 316.58 287.24C315.061 285.146 313.649 282.977 312.35 280.74C310.706 277.986 309.281 275.107 308.09 272.13" fill="white"/>
<path d="M306.68 267.66C306.352 266.324 306.178 264.955 306.16 263.58C306.16 263.58 318.16 253.46 333.61 253.52C352.01 253.58 363.26 259.37 367.76 267.41C374.9 280.13 375.9 325.18 375.9 325.18C375.9 325.18 329.73 332.3 323.11 323.57C321.96 322.05 322.84 311.32 322.84 311.32C322.84 311.32 317.67 297.76 316.58 287.24C315.061 285.146 313.649 282.977 312.35 280.74C310.706 277.986 309.281 275.107 308.09 272.13" stroke="#44372E" stroke-linecap="round" stroke-linejoin="round"/>
</g>
<path d="M324.36 278.49C324.36 278.49 331.41 305.84 330.36 311.86C330.109 313.937 330.456 316.043 331.36 317.93C330.439 318.899 329.846 320.133 329.667 321.458C329.487 322.783 329.73 324.131 330.36 325.31" stroke="#44372E" stroke-linecap="round" stroke-linejoin="round"/>
<path d="M343.06 301.12C341.801 301.072 340.578 300.685 339.52 300L337.43 290.84C341.577 291.217 345.757 290.923 349.81 289.97L352.05 299.97C350.791 300.321 349.512 300.598 348.22 300.8" stroke="#44372E" stroke-linecap="round" stroke-linejoin="round"/>
<path d="M319.35 282.05C319.35 282.05 313.35 256.49 328.49 253.52C343.63 250.55 346.74 257.62 345.85 262.41C344.66 268.8 332.11 284.47 332.11 284.47L324.36 278.47L319.35 282.05Z" fill="#B9AE96" stroke="#44372E" stroke-linecap="round" stroke-linejoin="round"/>
<path opacity="0.4" d="M319.35 282.05C319.35 282.05 313.35 256.49 328.49 253.52C343.63 250.55 346.74 257.62 345.85 262.41C344.66 268.8 332.11 284.47 332.11 284.47L324.36 278.47L319.35 282.05Z" fill="white" stroke="#44372E" stroke-linecap="round" stroke-linejoin="round"/>
<path d="M299.49 361C299.49 361 309.27 349.71 331.35 341.18C331.35 341.18 325.63 339.43 324.35 337.05" stroke="white" stroke-linecap="round" stroke-linejoin="round"/>
<path d="M287.99 395.55L279.05 428.01" stroke="white" stroke-linecap="round" stroke-linejoin="round"/>
<path d="M357.07 302C357.07 302 361.07 308.75 377.54 308.13C374.475 304.848 370.597 302.433 366.3 301.13C359.57 299.33 357.07 302 357.07 302Z" fill="#B9AE96" stroke="#44372E" stroke-linecap="round" stroke-linejoin="round"/>
<path d="M293.17 304.71C293.17 304.71 296.99 298.79 300.49 297.6C303.99 296.41 314.27 296.31 315.86 296.27C317.45 296.23 345.7 303.41 358.96 307.83L357.8 285.7L375.62 287.11C375.62 287.11 374.9 314.11 372.13 321.26C369.36 328.41 365.39 326.67 358.62 323.75C331.99 312.28 316.39 304.29 314.94 304.75C313.49 305.21 293.17 304.71 293.17 304.71Z" fill="white" stroke="#44372E" stroke-linecap="round" stroke-linejoin="round"/>
<path d="M353.35 272.84C352.884 274.675 352.735 276.575 352.91 278.46C353.7 285.38 357.07 302 357.07 302C357.07 302 373.68 304.37 377.54 308.13C377.54 308.13 380.28 286.13 374.7 274.96C369.12 263.79 363.35 262.56 363.35 262.56C359.7 261.66 356.35 265.06 354.5 269.43" fill="#B9AE96"/>
<path d="M353.35 272.84C352.884 274.675 352.735 276.575 352.91 278.46C353.7 285.38 357.07 302 357.07 302C357.07 302 373.68 304.37 377.54 308.13C377.54 308.13 380.28 286.13 374.7 274.96C369.12 263.79 363.35 262.56 363.35 262.56C359.7 261.66 356.35 265.06 354.5 269.43" stroke="#44372E" stroke-linecap="round" stroke-linejoin="round"/>
<g opacity="0.4">
<path d="M353.35 272.84C352.884 274.675 352.735 276.575 352.91 278.46C353.7 285.38 357.07 302 357.07 302C357.07 302 373.68 304.37 377.54 308.13C377.54 308.13 380.28 286.13 374.7 274.96C369.12 263.79 363.35 262.56 363.35 262.56C359.7 261.66 356.35 265.06 354.5 269.43" fill="white"/>
<path d="M353.35 272.84C352.884 274.675 352.735 276.575 352.91 278.46C353.7 285.38 357.07 302 357.07 302C357.07 302 373.68 304.37 377.54 308.13C377.54 308.13 380.28 286.13 374.7 274.96C369.12 263.79 363.35 262.56 363.35 262.56C359.7 261.66 356.35 265.06 354.5 269.43" stroke="#44372E" stroke-linecap="round" stroke-linejoin="round"/>
</g>
<path d="M304.55 281.4C307.037 283.435 309.937 284.902 313.05 285.7" stroke="#44372E" stroke-linecap="round" stroke-linejoin="round"/>
<path d="M357.07 281.4C357.07 281.4 363.07 292.74 370.65 295.24" stroke="#44372E" stroke-linecap="round" stroke-linejoin="round"/>
<path d="M318.19 368.75C318.19 368.75 319.3 369.59 319.75 372.62" stroke="white" stroke-linecap="round" stroke-linejoin="round"/>
<path d="M314.08 372.62C315.046 372.725 315.98 373.03 316.822 373.515C317.664 374.001 318.395 374.656 318.97 375.44" stroke="white" stroke-linecap="round" stroke-linejoin="round"/>
<path d="M281 361C281 361 284.2 362.62 283.51 367.21" stroke="white" stroke-linecap="round" stroke-linejoin="round"/>
<path d="M277.63 364.9C277.63 364.9 282 367.49 282.31 369.81" stroke="white" stroke-linecap="round" stroke-linejoin="round"/>
<path d="M328.28 336.92C328.28 336.92 338.01 338.28 340.19 336.92" stroke="white" stroke-linecap="round" stroke-linejoin="round"/>
<path d="M324.36 277.39C323.52 275.008 323.18 272.479 323.36 269.96C323.4 269.105 323.49 268.254 323.63 267.41L321.94 264.73L319.77 261.28L322.28 251.28C322.28 251.28 338.28 254.36 339.48 258.82C340.68 263.28 324.36 277.39 324.36 277.39Z" fill="white"/>
<mask id="mask7_7_3" style="mask-type:luminance" maskUnits="userSpaceOnUse" x="319" y="251" width="21" height="27">
<path d="M324.36 277.39C323.52 275.008 323.18 272.479 323.36 269.96C323.4 269.105 323.49 268.254 323.63 267.41L321.94 264.73L319.77 261.28L322.28 251.28C322.28 251.28 338.28 254.36 339.48 258.82C340.68 263.28 324.36 277.39 324.36 277.39Z" fill="white"/>
</mask>
<g mask="url(#mask7_7_3)">
<path opacity="0.2" d="M323.34 270C323.38 269.145 323.47 268.294 323.61 267.45L321.92 264.77C324.966 264.299 327.739 262.743 329.73 260.39C329.814 262.461 329.241 264.505 328.094 266.231C326.946 267.957 325.282 269.276 323.34 270Z" fill="black" fill-opacity="0.7"/>
</g>
<path d="M324.36 277.39C323.52 275.008 323.18 272.479 323.36 269.96C323.4 269.105 323.49 268.254 323.63 267.41L321.94 264.73L319.77 261.28L322.28 251.28C322.28 251.28 338.28 254.36 339.48 258.82C340.68 263.28 324.36 277.39 324.36 277.39Z" stroke="#44372E" stroke-linecap="round" stroke-linejoin="round"/>
<path d="M334.4 252.12C339.4 239.12 336.08 216.99 312.08 221.23C298 223.73 296.3 240.75 301 248.31C305.7 255.87 300.71 256.11 307.78 261.71C310.65 263.98 312.96 267.83 316.38 268.08C320.45 268.36 325.66 264.51 329.55 260.35" fill="white"/>
<path d="M334.4 252.12C339.4 239.12 336.08 216.99 312.08 221.23C298 223.73 296.3 240.75 301 248.31C305.7 255.87 300.71 256.11 307.78 261.71C310.65 263.98 312.96 267.83 316.38 268.08C320.45 268.36 325.66 264.51 329.55 260.35" stroke="#44372E" stroke-linecap="round" stroke-linejoin="round"/>
<path d="M310.75 248.31C310.75 248.31 314.29 245.09 318.5 246.42" stroke="#44372E" stroke-linecap="round" stroke-linejoin="round"/>
<path d="M304.12 248.31C303.645 247.475 302.984 246.76 302.188 246.223C301.391 245.685 300.482 245.338 299.53 245.21" stroke="#44372E" stroke-linecap="round" stroke-linejoin="round"/>
<path d="M306.46 253C306.46 253 305.95 255.59 305.28 258.21C304.61 260.83 309.48 259.4 309.28 259" fill="white"/>
<path d="M306.46 253C306.46 253 305.95 255.59 305.28 258.21C304.61 260.83 309.48 259.4 309.28 259" stroke="#44372E" stroke-linecap="round" stroke-linejoin="round"/>
<path d="M311.79 262.27C313.855 261.679 315.692 260.476 317.06 258.82" stroke="#44372E" stroke-linecap="round" stroke-linejoin="round"/>
<path d="M315.68 251.6C315.751 251.726 315.797 251.865 315.814 252.008C315.831 252.152 315.82 252.298 315.781 252.437C315.742 252.576 315.676 252.707 315.587 252.82C315.497 252.934 315.386 253.029 315.26 253.1C315.004 253.24 314.703 253.273 314.422 253.193C314.141 253.113 313.903 252.925 313.76 252.67C313.668 252.516 313.62 252.339 313.62 252.16C313.549 252.034 313.503 251.895 313.486 251.751C313.469 251.608 313.48 251.462 313.519 251.323C313.558 251.183 313.624 251.053 313.713 250.939C313.803 250.826 313.914 250.731 314.04 250.66C314.296 250.52 314.598 250.486 314.878 250.567C315.159 250.647 315.397 250.835 315.54 251.09C315.632 251.244 315.68 251.42 315.68 251.6Z" fill="#44372E"/>
<path d="M305 251.38C305.2 252.1 305.06 252.78 304.68 252.88C304.3 252.98 303.83 252.48 303.68 251.75C303.53 251.02 303.63 250.35 304.01 250.25C304.39 250.15 304.78 250.65 305 251.38Z" fill="#44372E"/>
<path d="M319.6 234.92C319.6 234.92 315.88 244.65 306.68 244.43C306.68 244.43 309.87 242 310.75 239.68C310.75 239.68 303.67 246.68 296.6 243.12C289.53 239.56 293 223 303.85 216.46C314.7 209.92 325.8 211.67 329.56 217.92C329.56 217.92 337.16 217.22 340.51 228.39C343.51 238.39 338.71 253.55 334.02 253.72C326.75 253.99 325.29 246.1 325.29 246.1C322.288 243.047 320.301 239.143 319.6 234.92Z" fill="#44372E" stroke="#44372E" stroke-linecap="round" stroke-linejoin="round"/>
<path d="M327.57 252.17C327.57 252.17 327.34 242.99 332.57 244.1C337.8 245.21 334.01 255.82 330.08 255.71" fill="white"/>
<path d="M327.57 252.17C327.57 252.17 327.34 242.99 332.57 244.1C337.8 245.21 334.01 255.82 330.08 255.71" stroke="#44372E" stroke-linecap="round" stroke-linejoin="round"/>
<path d="M311.42 303.71H230.79C229.89 303.71 229.16 304.44 229.16 305.34V308.15C229.16 309.05 229.89 309.78 230.79 309.78H311.42C312.32 309.78 313.05 309.05 313.05 308.15V305.34C313.05 304.44 312.32 303.71 311.42 303.71Z" fill="#B9AE96" stroke="#44372E" stroke-linecap="round" stroke-linejoin="round"/>
<path d="M111.79 425.86H77.78L81.34 456.95H108.23L111.79 425.86Z" fill="#493628" stroke="#493628" stroke-linecap="round" stroke-linejoin="round"/>
<path d="M115.82 404.22C115.82 404.22 100.97 405.39 100.35 416.35C100.35 416.35 115.39 423.27 115.82 404.22Z" fill="#2E7439" stroke="#493628" stroke-linecap="round" stroke-linejoin="round"/>
<path d="M86.44 406.94C86.44 406.94 78.14 395.72 64.73 401.47C64.73 401.47 72.92 415 86.44 406.94Z" fill="#2E7439" stroke="#493628" stroke-linecap="round" stroke-linejoin="round"/>
<path d="M65.8701 371.52C65.8701 371.52 63.4801 393.1 83.1301 387.16C83.1301 387.16 76.8901 371.29 65.8701 371.52Z" fill="#2E7439" stroke="#493628" stroke-linecap="round" stroke-linejoin="round"/>
<path d="M89.9999 359.5C89.9999 359.5 74.4599 367.88 85.8899 380.6C85.8799 380.6 96.7699 371.51 89.9999 359.5Z" fill="#2E7439" stroke="#493628" stroke-linecap="round" stroke-linejoin="round"/>
<path d="M109.11 378.79C109.11 378.79 92.21 377.08 92.21 392.72C92.21 392.72 109.11 393.39 109.11 378.79Z" fill="#2E7439" stroke="#493628" stroke-linecap="round" stroke-linejoin="round"/>
<path d="M93.18 438.67C93.18 438.67 100.88 422.51 93.49 406.05C86.1 389.59 83.59 375.72 87.49 365.95" stroke="#493628" stroke-linecap="round" stroke-linejoin="round"/>
<path d="M103.56 383C103.56 383 93.43 387 90 397.45" stroke="#493628" stroke-linecap="round" stroke-linejoin="round"/>
<path d="M71.21 380.15C71.21 380.15 77.06 388.15 86.97 387.26" stroke="#493628" stroke-linecap="round" stroke-linejoin="round"/>
<path d="M71.21 403.77C71.21 403.77 87.41 408.43 93.85 406.91" stroke="#493628" stroke-linecap="round" stroke-linejoin="round"/>
<path d="M111 409.15C111 409.15 103.75 417.15 96.47 416.98" stroke="#493628" stroke-linecap="round" stroke-linejoin="round"/>
<path d="M113.25 425.17H76.3201V429.56H113.25V425.17Z" fill="#493628" stroke="#493628" stroke-linecap="round" stroke-linejoin="round"/>
<path d="M381.24 397C372.607 402.64 365.362 410.161 360.05 419C351.24 433.7 344.26 454.38 355.1 457L365.41 456.61L385.25 449.8L383.17 445.8C383.17 445.8 365.8 455 362.83 455C359.86 455 355.99 455.74 354.36 454.55C352.73 453.36 360.07 426.63 375.78 417.72C391.49 408.81 381.24 397 381.24 397Z" fill="#806E60"/>
<mask id="mask8_7_3" style="mask-type:luminance" maskUnits="userSpaceOnUse" x="349" y="397" width="37" height="60">
<path d="M381.24 397C372.607 402.64 365.362 410.161 360.05 419C351.24 433.7 344.26 454.38 355.1 457L365.41 456.61L385.25 449.8L383.17 445.8C383.17 445.8 365.8 455 362.83 455C359.86 455 355.99 455.74 354.36 454.55C352.73 453.36 360.07 426.63 375.78 417.72C391.49 408.81 381.24 397 381.24 397Z" fill="white"/>
</mask>
<g mask="url(#mask8_7_3)">
<path opacity="0.5" d="M381.24 397C372.607 402.64 365.362 410.161 360.05 419C351.24 433.7 344.26 454.38 355.1 457L365.41 456.61L385.25 449.8L383.17 445.8C383.17 445.8 365.8 455 362.83 455C359.86 455 355.99 455.74 354.36 454.55C352.73 453.36 360.07 426.63 375.78 417.72C391.49 408.81 381.24 397 381.24 397Z" fill="black" fill-opacity="0.7"/>
</g>
<path d="M381.24 397C372.607 402.64 365.362 410.161 360.05 419C351.24 433.7 344.26 454.38 355.1 457L365.41 456.61L385.25 449.8L383.17 445.8C383.17 445.8 365.8 455 362.83 455C359.86 455 355.99 455.74 354.36 454.55C352.73 453.36 360.07 426.63 375.78 417.72C391.49 408.81 381.24 397 381.24 397Z" stroke="#263238" stroke-linecap="round" stroke-linejoin="round"/>
<path d="M392.53 387.36C392.53 387.36 392.53 383.05 399.06 382.46C405.59 381.87 406.52 388.16 406.52 388.16H404.27C404.27 388.16 404.32 384.39 399.52 384.1C394.72 383.81 394.9 388.16 394.9 388.16L392.53 387.36Z" fill="#806E60" stroke="#263238" stroke-linecap="round" stroke-linejoin="round"/>
<path d="M382.87 457C369.06 457 371.68 395.07 373.27 392C374.86 388.93 414.93 387.4 418.88 388.7C422.83 390 438.67 451.7 429.93 456.63L382.87 457Z" fill="#806E60"/>
<mask id="mask9_7_3" style="mask-type:luminance" maskUnits="userSpaceOnUse" x="371" y="388" width="62" height="69">
<path d="M382.87 457C369.06 457 371.68 395.07 373.27 392C374.86 388.93 414.93 387.4 418.88 388.7C422.83 390 438.67 451.7 429.93 456.63L382.87 457Z" fill="white"/>
</mask>
<g mask="url(#mask9_7_3)">
<path opacity="0.2" d="M382.87 457C369.06 457 371.68 395.07 373.27 392C374.86 388.93 414.93 387.4 418.88 388.7C422.83 390 438.67 451.7 429.93 456.63L382.87 457Z" fill="black" fill-opacity="0.7"/>
</g>
<path d="M382.87 457C369.06 457 371.68 395.07 373.27 392C374.86 388.93 414.93 387.4 418.88 388.7C422.83 390 438.67 451.7 429.93 456.63L382.87 457Z" stroke="#263238" stroke-linecap="round" stroke-linejoin="round"/>
<path d="M373.27 391.93C378.27 393 381.15 413.27 387.88 418.43C394.61 423.59 426.34 422.48 429.93 418.43C433.52 414.38 426.5 391.64 421.4 388.16C416.3 384.68 412.67 388.06 398.32 386.47C377.05 384.1 373.27 391.93 373.27 391.93Z" fill="#806E60" stroke="#263238" stroke-linecap="round" stroke-linejoin="round"/>
<path d="M409.69 403.58L415.57 408.38C415.65 408.448 415.716 408.531 415.764 408.625C415.812 408.719 415.841 408.821 415.85 408.926C415.858 409.031 415.845 409.137 415.813 409.237C415.78 409.337 415.728 409.43 415.66 409.51L411.08 414.45C410.934 414.595 410.736 414.677 410.53 414.677C410.324 414.677 410.126 414.595 409.98 414.45L404.13 409C403.987 408.852 403.907 408.655 403.907 408.45C403.907 408.245 403.987 408.047 404.13 407.9L408.66 403.69C408.788 403.549 408.964 403.459 409.154 403.439C409.344 403.419 409.534 403.469 409.69 403.58Z" fill="#806E60"/>
<mask id="mask10_7_3" style="mask-type:luminance" maskUnits="userSpaceOnUse" x="403" y="403" width="13" height="12">
<path d="M409.69 403.58L415.57 408.38C415.65 408.448 415.716 408.531 415.764 408.625C415.812 408.719 415.841 408.821 415.85 408.926C415.858 409.031 415.845 409.137 415.813 409.237C415.78 409.337 415.728 409.43 415.66 409.51L411.08 414.45C410.934 414.595 410.736 414.677 410.53 414.677C410.324 414.677 410.126 414.595 409.98 414.45L404.13 409C403.987 408.852 403.907 408.655 403.907 408.45C403.907 408.245 403.987 408.047 404.13 407.9L408.66 403.69C408.788 403.549 408.964 403.459 409.154 403.439C409.344 403.419 409.534 403.469 409.69 403.58Z" fill="white"/>
</mask>
<g mask="url(#mask10_7_3)">
<path opacity="0.2" d="M409.69 403.58L415.57 408.38C415.65 408.448 415.716 408.531 415.764 408.625C415.812 408.719 415.841 408.821 415.85 408.926C415.858 409.031 415.845 409.137 415.813 409.237C415.78 409.337 415.728 409.43 415.66 409.51L411.08 414.45C410.934 414.595 410.736 414.677 410.53 414.677C410.324 414.677 410.126 414.595 409.98 414.45L404.13 409C403.987 408.852 403.907 408.655 403.907 408.45C403.907 408.245 403.987 408.047 404.13 407.9L408.66 403.69C408.788 403.549 408.964 403.459 409.154 403.439C409.344 403.419 409.534 403.469 409.69 403.58Z" fill="black" fill-opacity="0.7"/>
</g>
<path d="M409.69 403.58L415.57 408.38C415.65 408.448 415.716 408.531 415.764 408.625C415.812 408.719 415.841 408.821 415.85 408.926C415.858 409.031 415.845 409.137 415.813 409.237C415.78 409.337 415.728 409.43 415.66 409.51L411.08 414.45C410.934 414.595 410.736 414.677 410.53 414.677C410.324 414.677 410.126 414.595 409.98 414.45L404.13 409C403.987 408.852 403.907 408.655 403.907 408.45C403.907 408.245 403.987 408.047 404.13 407.9L408.66 403.69C408.788 403.549 408.964 403.459 409.154 403.439C409.344 403.419 409.534 403.469 409.69 403.58Z" stroke="#263238" stroke-linecap="round" stroke-linejoin="round"/>
<path d="M390.3 428.79C390.3 428.79 416.88 430.98 429.93 427.6C431.676 428.974 432.974 430.836 433.66 432.95C434.85 436.51 437.33 448.69 429.93 451.81C422.53 454.93 395.93 454.33 392.38 450.81C388.83 447.29 390.3 428.79 390.3 428.79Z" fill="#806E60"/>
<mask id="mask11_7_3" style="mask-type:luminance" maskUnits="userSpaceOnUse" x="389" y="427" width="47" height="27">
<path d="M390.3 428.79C390.3 428.79 416.88 430.98 429.93 427.6C431.676 428.974 432.974 430.836 433.66 432.95C434.85 436.51 437.33 448.69 429.93 451.81C422.53 454.93 395.93 454.33 392.38 450.81C388.83 447.29 390.3 428.79 390.3 428.79Z" fill="white"/>
</mask>
<g mask="url(#mask11_7_3)">
<path opacity="0.4" d="M390.3 428.79C390.3 428.79 416.88 430.98 429.93 427.6C431.676 428.974 432.974 430.836 433.66 432.95C434.85 436.51 437.33 448.69 429.93 451.81C422.53 454.93 395.93 454.33 392.38 450.81C388.83 447.29 390.3 428.79 390.3 428.79Z" fill="black" fill-opacity="0.7"/>
</g>
<path d="M390.3 428.79C390.3 428.79 416.88 430.98 429.93 427.6C431.676 428.974 432.974 430.836 433.66 432.95C434.85 436.51 437.33 448.69 429.93 451.81C422.53 454.93 395.93 454.33 392.38 450.81C388.83 447.29 390.3 428.79 390.3 428.79Z" stroke="#263238" stroke-linecap="round" stroke-linejoin="round"/>
<path d="M390.3 428.79C390.3 428.79 393.42 437.2 395.05 438.49C396.68 439.78 431.21 439.78 435.05 436.66C438.89 433.54 433.63 427.9 429.94 427.6C429.93 427.6 405.74 430.42 390.3 428.79Z" fill="#806E60" stroke="#263238" stroke-linecap="round" stroke-linejoin="round"/>
<path d="M379.16 427C379.16 427 380.05 444.67 381.83 448.68C380.509 449.37 379.04 449.73 377.55 449.73C376.06 449.73 374.591 449.37 373.27 448.68C368.77 446.3 369.51 431.08 370.4 431.12C371.29 431.16 379.16 427 379.16 427Z" fill="#806E60"/>
<mask id="mask12_7_3" style="mask-type:luminance" maskUnits="userSpaceOnUse" x="369" y="427" width="13" height="23">
<path d="M379.16 427C379.16 427 380.05 444.67 381.83 448.68C380.509 449.37 379.04 449.73 377.55 449.73C376.06 449.73 374.591 449.37 373.27 448.68C368.77 446.3 369.51 431.08 370.4 431.12C371.29 431.16 379.16 427 379.16 427Z" fill="white"/>
</mask>
<g mask="url(#mask12_7_3)">
<path opacity="0.4" d="M379.16 427C379.16 427 380.05 444.67 381.83 448.68C380.509 449.37 379.04 449.73 377.55 449.73C376.06 449.73 374.591 449.37 373.27 448.68C368.77 446.3 369.51 431.08 370.4 431.12C371.29 431.16 379.16 427 379.16 427Z" fill="black" fill-opacity="0.7"/>
</g>
<path d="M379.16 427C379.16 427 380.05 444.67 381.83 448.68C380.509 449.37 379.04 449.73 377.55 449.73C376.06 449.73 374.591 449.37 373.27 448.68C368.77 446.3 369.51 431.08 370.4 431.12C371.29 431.16 379.16 427 379.16 427Z" stroke="#263238" stroke-linecap="round" stroke-linejoin="round"/>
<path d="M379.16 427L372.47 428.34C372.47 428.34 366.09 433.24 368.91 434.87C371.73 436.5 379 432.5 379.16 427Z" fill="#806E60" stroke="#263238" stroke-linecap="round" stroke-linejoin="round"/>
<path d="M215.138 128.842L216.692 132.814L215.678 133.211L212.234 124.406L213.248 124.009L214.513 127.242L214.599 127.209C214.62 126.807 214.746 126.445 214.977 126.124C215.21 125.798 215.586 125.534 216.105 125.331C216.555 125.155 216.984 125.091 217.393 125.139C217.801 125.184 218.17 125.356 218.501 125.652C218.834 125.945 219.111 126.376 219.333 126.943L220.974 131.139L219.96 131.536L218.345 127.409C218.14 126.884 217.845 126.532 217.461 126.352C217.078 126.168 216.648 126.169 216.169 126.356C215.837 126.487 215.566 126.673 215.357 126.917C215.151 127.159 215.025 127.445 214.979 127.774C214.935 128.102 214.988 128.457 215.138 128.842ZM223.119 122.686L223.456 123.546L220.034 124.884L219.697 124.025L223.119 122.686ZM220.076 122.052L221.09 121.655L223.552 127.95C223.665 128.236 223.79 128.435 223.929 128.546C224.07 128.653 224.216 128.705 224.367 128.702C224.52 128.695 224.671 128.662 224.82 128.604C224.931 128.56 225.021 128.519 225.088 128.479C225.154 128.437 225.207 128.403 225.247 128.378L225.809 129.208C225.751 129.261 225.665 129.324 225.552 129.398C225.44 129.475 225.289 129.551 225.1 129.625C224.813 129.737 224.508 129.785 224.185 129.769C223.864 129.753 223.565 129.653 223.285 129.472C223.009 129.289 222.796 129.006 222.645 128.622L220.076 122.052ZM227.229 128.693L224.646 122.089L225.626 121.706L226.03 122.737L226.116 122.704C226.115 122.297 226.23 121.937 226.461 121.622C226.69 121.304 227.02 121.061 227.45 120.893C227.885 120.723 228.287 120.68 228.653 120.764C229.022 120.845 229.357 121.029 229.658 121.318L229.727 121.291C229.763 120.884 229.91 120.514 230.17 120.181C230.429 119.845 230.794 119.585 231.267 119.4C231.858 119.169 232.413 119.165 232.933 119.388C233.452 119.608 233.864 120.106 234.167 120.883L235.896 125.303L234.881 125.699L233.153 121.28C232.962 120.792 232.693 120.496 232.344 120.391C231.996 120.286 231.641 120.305 231.28 120.446C230.816 120.627 230.511 120.909 230.366 121.289C230.219 121.667 230.23 122.069 230.397 122.497L232.078 126.796L231.047 127.199L229.277 122.677C229.131 122.301 228.89 122.046 228.557 121.912C228.223 121.776 227.863 121.782 227.479 121.932C227.216 122.036 226.997 122.202 226.822 122.432C226.651 122.661 226.544 122.928 226.501 123.232C226.46 123.533 226.502 123.845 226.629 124.169L228.243 128.296L227.229 128.693ZM235.322 115.375L238.766 124.18L237.751 124.577L234.307 115.772L235.322 115.375Z" fill="#716C6C"/>
<path d="M242.878 215.148C242.213 215.148 241.641 214.991 241.161 214.677C240.68 214.363 240.311 213.931 240.053 213.38C239.794 212.829 239.665 212.199 239.665 211.491C239.665 210.771 239.797 210.136 240.062 209.585C240.33 209.031 240.702 208.598 241.179 208.288C241.659 207.974 242.219 207.817 242.859 207.817C243.358 207.817 243.807 207.909 244.207 208.094C244.607 208.278 244.935 208.537 245.191 208.869C245.446 209.202 245.605 209.589 245.666 210.033H244.577C244.494 209.71 244.309 209.423 244.023 209.174C243.74 208.922 243.358 208.795 242.878 208.795C242.453 208.795 242.081 208.906 241.761 209.128C241.444 209.346 241.196 209.656 241.017 210.056C240.842 210.453 240.754 210.919 240.754 211.455C240.754 212.002 240.84 212.479 241.013 212.886C241.188 213.292 241.434 213.607 241.751 213.832C242.071 214.057 242.447 214.169 242.878 214.169C243.161 214.169 243.418 214.12 243.649 214.021C243.88 213.923 244.075 213.781 244.235 213.597C244.395 213.412 244.509 213.19 244.577 212.932H245.666C245.605 213.35 245.452 213.727 245.209 214.063C244.969 214.395 244.651 214.66 244.254 214.857C243.86 215.051 243.401 215.148 242.878 215.148ZM252.282 209.497L251.303 209.774C251.241 209.611 251.151 209.453 251.031 209.299C250.914 209.142 250.754 209.012 250.55 208.911C250.347 208.809 250.087 208.759 249.77 208.759C249.336 208.759 248.975 208.859 248.685 209.059C248.399 209.256 248.256 209.506 248.256 209.811C248.256 210.082 248.355 210.296 248.551 210.453C248.748 210.61 249.056 210.741 249.475 210.845L250.527 211.104C251.161 211.258 251.634 211.493 251.945 211.81C252.255 212.124 252.411 212.529 252.411 213.024C252.411 213.43 252.294 213.794 252.06 214.114C251.829 214.434 251.506 214.686 251.091 214.871C250.675 215.055 250.192 215.148 249.641 215.148C248.918 215.148 248.319 214.991 247.845 214.677C247.371 214.363 247.071 213.904 246.945 213.301L247.979 213.043C248.078 213.424 248.264 213.71 248.538 213.901C248.815 214.092 249.176 214.188 249.623 214.188C250.13 214.188 250.533 214.08 250.832 213.864C251.134 213.646 251.284 213.384 251.284 213.08C251.284 212.833 251.198 212.627 251.026 212.461C250.854 212.292 250.589 212.165 250.232 212.082L249.05 211.805C248.401 211.652 247.924 211.413 247.619 211.09C247.317 210.764 247.167 210.356 247.167 209.866C247.167 209.466 247.279 209.112 247.504 208.805C247.731 208.497 248.041 208.255 248.431 208.08C248.825 207.904 249.272 207.817 249.77 207.817C250.472 207.817 251.023 207.971 251.423 208.278C251.826 208.586 252.112 208.992 252.282 209.497ZM259.074 209.497L258.095 209.774C258.033 209.611 257.943 209.453 257.823 209.299C257.706 209.142 257.546 209.012 257.342 208.911C257.139 208.809 256.879 208.759 256.562 208.759C256.128 208.759 255.767 208.859 255.477 209.059C255.191 209.256 255.048 209.506 255.048 209.811C255.048 210.082 255.147 210.296 255.343 210.453C255.54 210.61 255.848 210.741 256.267 210.845L257.319 211.104C257.953 211.258 258.426 211.493 258.737 211.81C259.047 212.124 259.203 212.529 259.203 213.024C259.203 213.43 259.086 213.794 258.852 214.114C258.621 214.434 258.298 214.686 257.883 214.871C257.467 215.055 256.984 215.148 256.433 215.148C255.71 215.148 255.111 214.991 254.637 214.677C254.163 214.363 253.863 213.904 253.737 213.301L254.771 213.043C254.87 213.424 255.056 213.71 255.33 213.901C255.607 214.092 255.968 214.188 256.415 214.188C256.922 214.188 257.325 214.08 257.624 213.864C257.926 213.646 258.076 213.384 258.076 213.08C258.076 212.833 257.99 212.627 257.818 212.461C257.646 212.292 257.381 212.165 257.024 212.082L255.842 211.805C255.193 211.652 254.716 211.413 254.411 211.09C254.109 210.764 253.959 210.356 253.959 209.866C253.959 209.466 254.071 209.112 254.296 208.805C254.523 208.497 254.833 208.255 255.223 208.08C255.617 207.904 256.064 207.817 256.562 207.817C257.264 207.817 257.815 207.971 258.215 208.278C258.618 208.586 258.904 208.992 259.074 209.497Z" fill="#6C6868"/>
<path d="M341.922 172.403L341.503 173.226L338.097 171.491L338.516 170.668L341.922 172.403ZM336.317 177.506L339.98 170.316C340.165 169.954 340.404 169.696 340.697 169.541C340.99 169.386 341.303 169.318 341.635 169.335C341.968 169.353 342.286 169.439 342.587 169.592C342.826 169.714 343.011 169.832 343.142 169.948C343.273 170.063 343.368 170.156 343.425 170.226L342.718 170.923C342.677 170.881 342.619 170.826 342.543 170.757C342.471 170.689 342.365 170.619 342.225 170.548C341.904 170.384 341.631 170.347 341.406 170.436C341.184 170.527 340.993 170.728 340.834 171.041L337.288 178.001L336.317 177.506ZM345.361 178.86L347.264 175.125L348.235 175.62L345.016 181.938L344.045 181.444L344.59 180.374L344.524 180.341C344.212 180.586 343.843 180.741 343.416 180.807C342.99 180.87 342.539 180.78 342.061 180.537C341.667 180.335 341.36 180.07 341.14 179.741C340.923 179.409 340.816 179.023 340.819 178.582C340.824 178.139 340.963 177.649 341.237 177.111L343.282 173.097L344.253 173.591L342.241 177.54C342.006 178.001 341.948 178.434 342.066 178.839C342.187 179.246 342.449 179.553 342.852 179.758C343.093 179.881 343.37 179.944 343.683 179.948C343.998 179.953 344.305 179.872 344.605 179.703C344.908 179.536 345.16 179.255 345.361 178.86ZM349.701 179.538L347.764 183.339L346.794 182.844L350.013 176.526L350.951 177.004L350.448 177.991L350.53 178.033C350.841 177.788 351.198 177.644 351.598 177.603C352.001 177.56 352.44 177.659 352.918 177.902C353.345 178.12 353.675 178.399 353.906 178.738C354.139 179.074 354.255 179.464 354.253 179.909C354.252 180.351 354.115 180.841 353.841 181.378L351.795 185.393L350.825 184.898L352.837 180.949C353.09 180.453 353.158 180.001 353.041 179.592C352.926 179.181 352.643 178.861 352.194 178.632C351.884 178.474 351.572 178.4 351.26 178.41C350.95 178.422 350.66 178.521 350.388 178.707C350.117 178.894 349.888 179.171 349.701 179.538ZM356.069 187.736C355.477 187.434 355.038 187.034 354.752 186.537C354.467 186.039 354.334 185.486 354.354 184.878C354.374 184.27 354.545 183.65 354.866 183.019C355.193 182.378 355.599 181.872 356.085 181.501C356.575 181.129 357.103 180.913 357.67 180.852C358.24 180.79 358.81 180.905 359.381 181.196C359.825 181.422 360.183 181.708 360.456 182.054C360.729 182.4 360.903 182.78 360.98 183.192C361.057 183.604 361.022 184.021 360.875 184.444L359.905 183.95C359.977 183.624 359.943 183.285 359.801 182.933C359.663 182.58 359.381 182.294 358.953 182.076C358.574 181.883 358.192 181.813 357.806 181.865C357.425 181.916 357.064 182.079 356.723 182.354C356.386 182.628 356.097 183.004 355.853 183.481C355.605 183.969 355.465 184.433 355.434 184.874C355.406 185.315 355.482 185.708 355.663 186.052C355.846 186.398 356.129 186.668 356.513 186.864C356.765 186.992 357.017 187.065 357.267 187.082C357.518 187.099 357.756 187.062 357.982 186.97C358.209 186.878 358.411 186.732 358.589 186.533L359.559 187.027C359.314 187.372 359.008 187.639 358.639 187.828C358.274 188.015 357.87 188.106 357.427 188.101C356.988 188.095 356.535 187.973 356.069 187.736ZM366.006 184.675L365.587 185.498L362.313 183.83L362.732 183.007L366.006 184.675ZM364.458 181.979L365.428 182.474L362.36 188.496C362.22 188.77 362.155 188.996 362.165 189.174C362.179 189.35 362.237 189.494 362.339 189.604C362.446 189.714 362.57 189.805 362.713 189.878C362.82 189.932 362.911 189.971 362.985 189.995C363.06 190.017 363.121 190.034 363.166 190.046L362.919 191.019C362.841 191.01 362.736 190.988 362.606 190.953C362.474 190.92 362.317 190.857 362.136 190.765C361.862 190.626 361.624 190.43 361.42 190.178C361.22 189.927 361.095 189.637 361.045 189.308C360.998 188.98 361.068 188.632 361.255 188.265L364.458 181.979ZM364.247 191.737L367.467 185.419L368.437 185.914L365.218 192.232L364.247 191.737ZM368.497 184.618C368.308 184.521 368.177 184.374 368.106 184.175C368.037 183.978 368.049 183.788 368.141 183.607C368.233 183.426 368.379 183.306 368.579 183.245C368.782 183.186 368.978 183.205 369.167 183.301C369.357 183.398 369.486 183.545 369.554 183.742C369.626 183.941 369.615 184.131 369.523 184.312C369.431 184.493 369.283 184.613 369.081 184.672C368.881 184.732 368.686 184.714 368.497 184.618ZM369.496 194.577C368.925 194.287 368.494 193.896 368.202 193.405C367.912 192.916 367.771 192.365 367.779 191.754C367.789 191.145 367.96 190.513 368.293 189.861C368.628 189.203 369.04 188.689 369.529 188.32C370.02 187.952 370.549 187.741 371.115 187.687C371.684 187.635 372.254 187.755 372.824 188.045C373.394 188.336 373.824 188.726 374.114 189.215C374.406 189.706 374.546 190.258 374.535 190.87C374.526 191.484 374.354 192.12 374.019 192.778C373.686 193.431 373.275 193.94 372.785 194.305C372.297 194.671 371.769 194.881 371.2 194.933C370.634 194.986 370.066 194.868 369.496 194.577ZM369.94 193.705C370.373 193.926 370.786 193.996 371.179 193.917C371.572 193.837 371.928 193.651 372.247 193.357C372.566 193.064 372.833 192.706 373.048 192.284C373.263 191.861 373.396 191.433 373.448 191C373.499 190.567 373.442 190.167 373.277 189.799C373.112 189.432 372.813 189.138 372.38 188.917C371.946 188.696 371.533 188.627 371.138 188.71C370.744 188.792 370.387 188.981 370.067 189.278C369.746 189.574 369.479 189.933 369.264 190.355C369.048 190.778 368.916 191.204 368.866 191.634C368.816 192.065 368.874 192.462 369.04 192.827C369.207 193.192 369.507 193.484 369.94 193.705ZM376.815 193.353L374.878 197.154L373.907 196.659L377.127 190.341L378.065 190.819L377.562 191.806L377.644 191.848C377.955 191.603 378.312 191.46 378.712 191.419C379.115 191.375 379.554 191.475 380.031 191.718C380.459 191.936 380.789 192.214 381.02 192.553C381.253 192.889 381.369 193.28 381.367 193.724C381.366 194.166 381.229 194.656 380.955 195.193L378.909 199.208L377.939 198.713L379.951 194.764C380.203 194.268 380.272 193.816 380.155 193.407C380.04 192.996 379.757 192.676 379.307 192.447C378.998 192.289 378.686 192.215 378.374 192.225C378.064 192.237 377.774 192.336 377.502 192.522C377.231 192.709 377.002 192.986 376.815 193.353ZM382.839 196.734C383.368 195.697 383.988 194.813 384.699 194.08C385.415 193.347 386.21 192.742 387.085 192.265L387.941 192.701C387.605 192.872 387.249 193.112 386.874 193.422C386.503 193.73 386.132 194.089 385.761 194.497C385.392 194.903 385.042 195.34 384.711 195.807C384.382 196.275 384.093 196.754 383.843 197.245C383.511 197.898 383.236 198.592 383.02 199.328C382.804 200.064 382.656 200.775 382.576 201.46C382.497 202.145 382.497 202.735 382.575 203.231L381.72 202.795C381.591 201.807 381.612 200.81 381.784 199.802C381.959 198.793 382.311 197.77 382.839 196.734ZM388.764 199.752C388.236 200.789 387.614 201.674 386.898 202.408C386.186 203.14 385.393 203.744 384.518 204.221L383.662 203.785C383.998 203.614 384.352 203.373 384.725 203.062C385.099 202.755 385.47 202.399 385.84 201.993C386.21 201.584 386.56 201.146 386.888 200.677C387.221 200.208 387.511 199.729 387.76 199.241C388.093 198.588 388.367 197.894 388.583 197.158C388.799 196.422 388.947 195.711 389.027 195.026C389.106 194.342 389.107 193.751 389.028 193.255L389.883 193.691C390.012 194.679 389.989 195.677 389.813 196.686C389.642 197.694 389.292 198.716 388.764 199.752Z" fill="#625E5E"/>
<path d="M145.705 156.852L146.715 157.26L143.865 164.314C143.701 164.72 143.489 165.042 143.23 165.283C142.973 165.524 142.672 165.67 142.326 165.719C141.984 165.77 141.601 165.71 141.179 165.54C141.145 165.526 141.111 165.512 141.076 165.498C141.042 165.484 141.008 165.47 140.974 165.457L141.354 164.515C141.388 164.529 141.42 164.541 141.448 164.553C141.477 164.565 141.508 164.577 141.542 164.591C141.851 164.716 142.113 164.715 142.329 164.59C142.545 164.468 142.72 164.24 142.855 163.906L145.705 156.852ZM146.644 155.957C146.447 155.878 146.304 155.742 146.216 155.55C146.13 155.36 146.125 155.17 146.201 154.982C146.278 154.793 146.413 154.661 146.607 154.583C146.803 154.506 147 154.508 147.197 154.587C147.394 154.667 147.535 154.802 147.621 154.993C147.71 155.184 147.716 155.375 147.64 155.563C147.564 155.751 147.427 155.884 147.23 155.96C147.036 156.038 146.841 156.037 146.644 155.957ZM152.627 161.362L151.616 161.252C151.62 161.078 151.595 160.897 151.541 160.709C151.492 160.52 151.392 160.34 151.242 160.17C151.091 160 150.869 159.855 150.575 159.736C150.173 159.574 149.8 159.531 149.457 159.608C149.118 159.684 148.891 159.863 148.777 160.145C148.676 160.396 148.687 160.631 148.811 160.851C148.934 161.07 149.171 161.307 149.52 161.56L150.399 162.194C150.929 162.575 151.279 162.97 151.448 163.38C151.619 163.788 151.611 164.221 151.426 164.681C151.273 165.057 151.029 165.35 150.692 165.559C150.358 165.77 149.964 165.883 149.51 165.898C149.055 165.914 148.573 165.818 148.062 165.612C147.391 165.341 146.895 164.971 146.573 164.503C146.251 164.034 146.145 163.496 146.254 162.89L147.31 163.038C147.258 163.428 147.323 163.763 147.506 164.043C147.691 164.324 147.991 164.548 148.405 164.715C148.875 164.905 149.29 164.956 149.647 164.868C150.009 164.779 150.246 164.592 150.36 164.31C150.453 164.082 150.45 163.858 150.353 163.64C150.256 163.418 150.058 163.202 149.758 162.991L148.766 162.292C148.222 161.906 147.869 161.506 147.707 161.092C147.55 160.677 147.563 160.242 147.746 159.788C147.896 159.417 148.133 159.131 148.456 158.93C148.783 158.73 149.16 158.622 149.588 158.606C150.019 158.591 150.466 158.676 150.928 158.863C151.579 159.126 152.032 159.475 152.287 159.91C152.546 160.347 152.659 160.831 152.627 161.362Z" fill="#797171"/>
<path d="M249.225 67.3489L249.42 66.7655L255.558 66.0455L255.197 67.1269L250.918 67.6764L253.963 70.8266L253.555 72.0503L249.225 67.3489ZM261.64 69.3073C261.33 69.0985 261.083 68.953 260.9 68.8708C260.72 68.779 260.53 68.7 260.331 68.6335C259.932 68.5006 259.567 68.4579 259.235 68.5053C258.903 68.5526 258.6 68.6728 258.324 68.8656C258.062 69.0521 257.833 69.2972 257.636 69.6007C257.444 69.8948 257.285 70.2268 257.162 70.5968C257.051 70.9288 256.974 71.2719 256.929 71.6261C256.895 71.9834 256.909 72.3202 256.972 72.6364C257.035 72.9526 257.149 73.2278 257.313 73.4618C257.478 73.6959 257.712 73.8635 258.015 73.9647C258.224 74.0343 258.45 74.0676 258.694 74.0645C258.946 74.0645 259.184 74.0487 259.405 74.0171C259.63 73.9761 259.871 73.9144 260.131 73.8323L261.64 69.3073ZM259.813 74.8331C259.544 74.9121 259.288 74.969 259.044 75.0037C258.814 75.0321 258.562 75.0432 258.29 75.0368C258.028 75.0336 257.783 74.994 257.555 74.9181C256.663 74.6207 256.066 74.0735 255.762 73.2766C255.471 72.4733 255.528 71.4646 255.933 70.2503C256.174 69.5293 256.489 68.9649 256.878 68.5571C257.276 68.1524 257.698 67.8662 258.144 67.6987C258.593 67.5217 259.038 67.438 259.477 67.4475C259.926 67.4602 260.322 67.5236 260.663 67.6374C260.834 67.6944 261.009 67.7687 261.19 67.8605C261.373 67.9427 261.634 68.093 261.972 68.3112L263.163 64.7396L264.344 64.9912L261.179 74.4823C261.135 74.6151 261.087 74.7574 261.037 74.9092C260.999 75.0546 260.961 75.2001 260.923 75.3455C260.894 75.4942 260.864 75.6475 260.833 75.8056L259.699 75.5541L259.813 74.8331ZM265.203 69.2939L266.384 69.5455L263.95 76.8453L262.811 76.4656L265.203 69.2939ZM265.697 67.1974C265.77 66.9792 265.901 66.8227 266.091 66.7279C266.293 66.6267 266.503 66.6125 266.721 66.6853C266.949 66.7612 267.114 66.9004 267.215 67.1028C267.329 67.2989 267.349 67.506 267.276 67.7242C267.204 67.9424 267.061 68.1005 266.849 68.1985C266.65 68.2901 266.437 68.298 266.209 68.2221C265.991 68.1493 265.829 68.0165 265.725 67.8236C265.633 67.6243 265.624 67.4156 265.697 67.1974ZM267.498 70.0752L268.751 70.4929L268.802 76.1233L268.74 77.3518L268.754 77.3566L269.456 76.3416L272.991 71.9071L274.186 72.3057L269.024 78.5377L267.744 78.1106L267.498 70.0752ZM273.691 77.406L278.017 76.7142L274.925 73.7064L275.286 72.6249L279.763 76.8853L279.568 77.4687L273.283 78.6298L273.691 77.406Z" fill="#988484"/>
</svg>
