<svg width="3200" height="2736" viewBox="0 0 3200 2736" fill="none" xmlns="http://www.w3.org/2000/svg">
<path d="M1908.7 2593.56C1990.15 2565.85 2063.22 2537.55 2151.13 2483.83C2241.8 2428.42 2644.56 2164.72 2696.93 1708.33C2710.66 1583.25 2699.27 1456.42 2663.56 1336.59C2647.37 1284.94 2613.79 1181.21 2529.03 1078.62C2425.29 952.96 2306.9 904.256 2237.49 876.714C2091.44 818.739 1968.95 821.793 1910.61 823.865C1847.66 826.101 1736.54 831.119 1610.24 891.167C1527.84 930.326 1476.62 974.994 1401.14 1041.75C1281.55 1147.61 1265.81 1191.68 1056.61 1410.27C999.178 1470.27 951.965 1517.55 879.893 1564.13C829.923 1596.42 789.527 1614.47 714.998 1647.41C531.811 1728.4 479.653 1744.8 419.71 1790.4C303.131 1879.13 310.682 1975.9 305.67 1996.74C292.637 2050.02 289.62 2105.61 296.799 2160.19C312.086 2269.65 366.265 2341.21 399.895 2384.51C446.058 2443.41 501.996 2492.33 564.79 2528.71C608.381 2553.74 653.533 2575.41 699.912 2593.56L1908.7 2593.56Z" fill="#E5D9CF"/>
<path d="M2318.11 2344.34L2315.66 2339.58C2435.45 2266.36 2830.37 1991.85 2882.91 1533.84C2897.06 1403.96 2885.24 1272.29 2848.25 1147.85C2833.33 1100.23 2798.4 988.717 2708.68 880.093C2598.8 747.05 2473.39 697.274 2406.01 670.533C2251.16 609.078 2121.74 613.658 2066.45 615.624C2008.63 617.665 1888.31 621.912 1754.5 685.49L1752.49 680.497C1887.18 616.499 2008.16 612.229 2066.29 610.175C2121.84 608.198 2251.97 603.589 2407.72 665.412C2475.51 692.315 2601.7 742.389 2712.41 876.447C2802.81 985.899 2837.98 1098.16 2852.99 1146.09C2890.22 1271.31 2902.12 1403.82 2887.88 1534.51C2835.06 1995.06 2438.42 2270.8 2318.11 2344.34ZM2817.62 2427.68H311.636C310.913 2427.68 310.198 2427.53 309.53 2427.23C308.862 2426.93 308.255 2426.49 307.744 2425.94C307.232 2425.38 306.827 2424.72 306.55 2424C306.273 2423.27 306.13 2422.49 306.13 2421.71C306.13 2420.92 306.273 2420.14 306.55 2419.42C306.827 2418.69 307.232 2418.03 307.744 2417.48C308.255 2416.92 308.862 2416.48 309.53 2416.18C310.198 2415.88 310.913 2415.73 311.636 2415.73H2817.62C2819.08 2415.74 2820.47 2416.37 2821.49 2417.49C2822.52 2418.61 2823.1 2420.13 2823.1 2421.71C2823.1 2423.29 2822.52 2424.8 2821.49 2425.92C2820.47 2427.04 2819.08 2427.68 2817.62 2427.68Z" fill="#929190"/>
<path d="M1186.97 2421.71H380.909V1569.71C380.909 1453.4 423.371 1341.84 498.953 1259.6C574.536 1177.35 677.048 1131.14 783.937 1131.14C890.827 1131.14 993.339 1177.35 1068.92 1259.6C1144.5 1341.84 1186.97 1453.4 1186.97 1569.71V2421.71Z" fill="#6D6056"/>
<path d="M798.057 1918.89C964.641 1918.89 1099.68 1771.94 1099.68 1590.67C1099.68 1409.39 964.641 1262.44 798.057 1262.44C631.473 1262.44 496.43 1409.39 496.43 1590.67C496.43 1771.94 631.473 1918.89 798.057 1918.89Z" fill="white"/>
<path d="M884.05 1332.27C863.459 1421.58 835.573 1508.02 808.024 1594.59L803.601 1580.83C877.942 1631.56 952.552 1681.85 1022.67 1740.11C943.059 1698.74 867.922 1649.4 792.529 1600.51L785.005 1595.62L788.093 1586.73C817.867 1501.04 847.318 1415.22 884.05 1332.27Z" fill="#080200"/>
<path d="M2572.35 1535.77C2558.42 1521.23 2543.95 1512.57 2531.85 1514.35C2511.32 1517.36 2512.3 1546.84 2476.2 1584.12C2446.77 1614.51 2389.91 1652.94 2344.35 1636.78C2306.36 1623.3 2311.65 1584.45 2266.91 1549.89C2241.28 1530.91 2211.72 1519.17 2180.89 1515.71C2220.72 1689.98 2294.41 1807.38 2379 1807.38C2460.29 1807.38 2531.56 1698.92 2572.35 1535.77ZM2355.23 2043.56C2319.04 2045.42 2299.67 2087.44 2229.41 2214.7C2194.88 2277.21 2169.23 2321.99 2150.17 2355.21C2149.86 2367.59 2149.44 2379.89 2149.44 2392.47H2608.56C2608.56 2380.05 2608.13 2367.9 2607.84 2355.68C2581.68 2319.58 2542.13 2265.5 2483.46 2180.47C2414.36 2080.31 2390.87 2041.73 2355.23 2043.56Z" fill="#FFBA55"/>
<path d="M2378.99 1836.62C2235.2 1836.62 2122.55 1565.73 2122.55 1219.87V1190.62H2635.44V1219.87C2635.44 1565.73 2522.78 1836.62 2378.99 1836.62ZM2176.58 1249.13C2182.48 1566.81 2284.01 1778.11 2378.99 1778.11C2473.98 1778.11 2575.5 1566.81 2581.41 1249.13H2176.58Z" fill="#6D6056"/>
<path d="M2635.44 2421.71H2122.55V2392.45C2122.55 2046.6 2235.2 1775.71 2378.99 1775.71C2522.78 1775.71 2635.44 2046.6 2635.44 2392.45V2421.71ZM2176.58 2363.2H2581.41C2575.5 2045.51 2473.98 1834.22 2378.99 1834.22C2284.01 1834.22 2182.48 2045.51 2176.58 2363.2Z" fill="#6D6056"/>
<path d="M2792.21 2363.19H2711.56V1249.12H2792.21C2799.34 1249.12 2806.17 1246.04 2811.22 1240.55C2816.26 1235.07 2819.09 1227.62 2819.09 1219.87C2819.09 1212.11 2816.26 1204.67 2811.22 1199.18C2806.17 1193.69 2799.34 1190.61 2792.21 1190.61H1965.79C1958.66 1190.61 1951.82 1193.69 1946.78 1199.18C1941.74 1204.67 1938.91 1212.11 1938.91 1219.87C1938.91 1227.62 1941.74 1235.07 1946.78 1240.55C1951.82 1246.04 1958.66 1249.12 1965.79 1249.12H2046.44V2363.19H1965.79C1958.66 2363.19 1951.82 2366.27 1946.78 2371.76C1941.74 2377.25 1938.91 2384.69 1938.91 2392.44C1938.91 2400.2 1941.74 2407.64 1946.78 2413.13C1951.82 2418.62 1958.66 2421.7 1965.79 2421.7H2792.21C2795.74 2421.7 2799.24 2420.95 2802.51 2419.48C2805.77 2418.02 2808.74 2415.86 2811.24 2413.14C2813.74 2410.43 2815.72 2407.2 2817.08 2403.65C2818.43 2400.1 2819.13 2396.29 2819.13 2392.44C2819.13 2388.6 2818.43 2384.79 2817.08 2381.24C2815.72 2377.69 2813.74 2374.46 2811.24 2371.75C2808.74 2369.03 2805.77 2366.87 2802.51 2365.41C2799.24 2363.94 2795.74 2363.19 2792.21 2363.19ZM2100.21 1249.12H2657.79V2363.19H2100.21L2100.21 1249.12Z" fill="#6D6056"/>
<path d="M2903.85 2416.81H296.146V2427.68H2903.85V2416.81Z" fill="#935B50"/>
<path d="M2555.82 1320.76L2534 1290.28L2236.16 1542.86L2257.98 1573.33L2555.82 1320.76Z" fill="#FBEDDA"/>
<path d="M2276.23 1557.86C2273.36 1555.19 2270.32 1552.53 2266.91 1549.89C2259.84 1544.51 2252.39 1539.76 2244.62 1535.69L2236.16 1542.86L2257.98 1573.34L2276.23 1557.86Z" fill="#FFD69B"/>
<path d="M2283.57 1629.36L2261.75 1598.89L2516.19 1383.12L2541.27 1410.83L2283.57 1629.36Z" fill="#FBEDDA"/>
<path d="M2228.3 2286.55L2206.48 2256.08L2460.91 2040.3L2486 2068.02L2228.3 2286.55Z" fill="#FBEDDA"/>
<path d="M2412.86 2081.06L2206.48 2256.08L2228.3 2286.55L2435.33 2110.99C2427.07 2099.41 2419.68 2089.48 2412.86 2081.06Z" fill="#FFD69B"/>
<path d="M2231.6 2194.8L2209.77 2164.33L2464.21 1948.55L2489.29 1976.27L2231.6 2194.8Z" fill="#FBEDDA"/>
<path d="M2248.02 2180.88L2392.11 2058.68C2379.57 2047.62 2368.2 2042.9 2355.23 2043.56C2354.08 2043.62 2352.94 2043.72 2351.82 2043.87L2302.97 2085.29C2288.69 2106.81 2271.68 2137.78 2248.02 2180.88ZM2290.95 1574.12L2261.75 1598.89L2283.57 1629.36L2311 1606.11C2304.95 1594.99 2298.26 1584.3 2290.95 1574.12Z" fill="#FFD69B"/>
<path d="M1511 1561L1475.85 1502.25C1497.62 1468.77 1505.4 1428.77 1497.65 1390.13C1489.91 1351.49 1467.2 1316.99 1433.99 1293.42C1400.77 1269.85 1359.47 1258.91 1318.18 1262.75C1276.89 1266.6 1238.62 1284.94 1210.87 1314.18C1183.13 1343.43 1167.92 1381.45 1168.25 1420.78C1168.57 1460.12 1184.4 1497.91 1212.63 1526.74C1240.85 1555.57 1279.43 1573.34 1320.77 1576.57C1362.11 1579.8 1403.24 1568.25 1436.06 1544.19L1511 1561Z" fill="#FAFAFA"/>
<path d="M1510.99 1561L1435.89 1544.75H1435.14L1435.62 1544.15L1436.32 1544.86C1425.81 1552.59 1414.36 1559.13 1402.23 1564.32C1387.78 1570.46 1372.47 1574.62 1356.78 1576.66C1348.09 1577.81 1339.32 1578.22 1330.55 1577.89C1326.03 1577.67 1321.43 1577.55 1316.79 1577.18L1302.79 1575.17C1270.42 1569.15 1240.65 1554.19 1217.22 1532.17C1193.8 1510.14 1177.77 1482.04 1171.15 1451.39C1166.37 1428.23 1167.04 1404.35 1173.12 1381.45C1179.33 1357.55 1191.46 1335.39 1208.5 1316.81L1215.27 1309.76C1217.47 1307.38 1220.14 1305.4 1222.54 1303.24C1224.94 1301.08 1227.34 1298.84 1230.09 1297.01L1237.95 1291.38C1240.56 1289.48 1243.31 1287.74 1246.17 1286.2L1254.59 1281.35L1263.4 1277.33C1266.27 1275.91 1269.24 1274.66 1272.28 1273.6C1295.88 1264.75 1321.28 1261.06 1346.6 1262.79C1370.54 1264.33 1393.83 1270.85 1414.82 1281.88C1452.46 1301.81 1480.61 1334.67 1493.46 1373.7C1498.56 1390.31 1500.99 1407.55 1500.65 1424.85C1499.79 1452.45 1491.24 1479.35 1475.88 1502.81V1502.32L1510.6 1561.3L1475.41 1502.51V1502.25V1502.02C1482.2 1491.47 1487.67 1480.21 1491.73 1468.47C1496.53 1454.3 1499.18 1439.55 1499.59 1424.66C1499.87 1407.52 1497.4 1390.44 1492.28 1374C1479.46 1335.4 1451.51 1302.93 1414.19 1283.29C1393.42 1272.48 1370.4 1266.12 1346.75 1264.65C1321.77 1262.88 1296.68 1266.45 1273.34 1275.09C1270.32 1276.16 1267.36 1277.41 1264.5 1278.82L1255.81 1282.84L1247.51 1287.62C1244.68 1289.15 1241.96 1290.86 1239.37 1292.72L1231.51 1298.32C1228.83 1300.11 1226.59 1302.42 1224.07 1304.43C1221.56 1306.44 1219.12 1308.64 1216.92 1310.84L1210.23 1317.81C1193.35 1336.16 1181.31 1358.05 1175.12 1381.68C1169.11 1404.29 1168.42 1427.87 1173.12 1450.76C1177.68 1472.41 1187.06 1492.89 1200.64 1510.82C1225.13 1543.2 1261.67 1565.57 1302.87 1573.42L1316.75 1575.43C1321.35 1575.8 1325.91 1575.95 1330.4 1576.17C1339.08 1576.53 1347.78 1576.14 1356.39 1575.02C1371.96 1573.06 1387.15 1569.02 1401.53 1563.01C1413.61 1557.88 1425.02 1551.44 1435.54 1543.81L1438.6 1541.58L1436.25 1544.49L1435.97 1543.74L1510.99 1561Z" fill="#263238"/>
<path d="M1298.04 1333.01C1297.22 1332.81 1296.37 1332.62 1295.49 1332.45C1294.71 1332.28 1293.8 1332.14 1292.78 1332.04C1291.8 1331.91 1290.76 1331.84 1289.67 1331.84C1287.16 1331.84 1285.36 1332.23 1284.27 1333.01C1283.18 1333.76 1282.64 1334.93 1282.64 1336.53C1282.67 1337.79 1283.13 1338.86 1284.01 1339.74C1284.9 1340.59 1286 1341.39 1287.33 1342.14C1288.65 1342.85 1290.1 1343.57 1291.66 1344.28C1293.26 1344.96 1294.72 1345.76 1296.05 1346.68C1297.37 1347.56 1298.48 1348.62 1299.36 1349.84C1300.28 1351.03 1300.74 1352.49 1300.74 1354.23C1300.74 1356.23 1300.3 1357.85 1299.41 1359.07C1298.56 1360.3 1297.48 1361.25 1296.15 1361.93C1294.82 1362.61 1293.36 1363.07 1291.76 1363.31C1290.2 1363.54 1288.7 1363.66 1287.28 1363.66C1285.92 1363.66 1284.68 1363.58 1283.55 1363.41C1282.43 1363.24 1281.46 1363.05 1280.65 1362.85C1279.69 1362.61 1278.83 1362.34 1278.05 1362.03L1279.07 1357.9C1279.85 1358.24 1280.68 1358.53 1281.56 1358.77C1282.35 1358.97 1283.21 1359.16 1284.17 1359.33C1285.15 1359.5 1286.19 1359.58 1287.28 1359.58C1288.6 1359.58 1289.81 1359.5 1290.9 1359.33C1292.02 1359.16 1292.99 1358.89 1293.8 1358.51C1294.62 1358.14 1295.25 1357.64 1295.69 1357.03C1296.17 1356.42 1296.41 1355.67 1296.41 1354.79C1296.37 1353.46 1295.93 1352.39 1295.08 1351.58C1294.26 1350.73 1293.16 1349.93 1291.76 1349.18C1290.4 1348.4 1288.93 1347.65 1287.33 1346.93C1285.76 1346.22 1284.32 1345.4 1282.99 1344.49C1281.67 1343.57 1280.54 1342.48 1279.63 1341.22C1278.74 1339.96 1278.3 1338.4 1278.3 1336.53C1278.3 1335.44 1278.49 1334.37 1278.86 1333.32C1279.24 1332.26 1279.86 1331.33 1280.75 1330.51C1281.67 1329.7 1282.84 1329.03 1284.27 1328.52C1285.73 1328.01 1287.53 1327.76 1289.67 1327.76C1290.9 1327.76 1292.05 1327.83 1293.14 1327.96C1294.26 1328.06 1295.23 1328.18 1296.05 1328.32C1297 1328.49 1297.9 1328.68 1298.75 1328.88L1298.04 1333.01ZM1309.17 1350.3C1309.17 1353.6 1309.9 1356.06 1311.37 1357.7C1312.86 1359.29 1314.87 1360.09 1317.38 1360.09C1319.87 1360.09 1321.8 1359.29 1323.2 1357.7C1324.59 1356.1 1325.29 1353.7 1325.29 1350.5C1325.29 1347.1 1324.54 1344.57 1323.05 1342.91C1321.58 1341.24 1319.58 1340.41 1317.03 1340.41C1314.48 1340.41 1312.52 1341.24 1311.16 1342.91C1309.84 1344.54 1309.17 1347 1309.17 1350.3ZM1304.84 1350.25C1304.84 1347.67 1305.25 1345.52 1306.06 1343.82C1306.88 1342.09 1307.92 1340.71 1309.17 1339.69C1310.43 1338.64 1311.77 1337.91 1313.2 1337.5C1314.66 1337.06 1316.04 1336.84 1317.33 1336.84C1318.56 1336.84 1319.88 1337.04 1321.31 1337.45C1322.77 1337.82 1324.12 1338.52 1325.34 1339.54C1326.56 1340.53 1327.58 1341.87 1328.4 1343.57C1329.22 1345.23 1329.62 1347.36 1329.62 1349.94C1329.62 1352.63 1329.2 1354.86 1328.35 1356.62C1327.53 1358.39 1326.5 1359.8 1325.24 1360.86C1323.98 1361.88 1322.62 1362.59 1321.16 1363C1319.7 1363.44 1318.34 1363.66 1317.08 1363.66C1315.79 1363.66 1314.43 1363.46 1313 1363.05C1311.57 1362.64 1310.24 1361.95 1309.02 1360.96C1307.83 1359.94 1306.83 1358.56 1306.01 1356.83C1305.23 1355.09 1304.84 1352.9 1304.84 1350.25ZM1335.6 1341.48C1335.6 1340.7 1335.52 1339.47 1335.35 1337.81L1339.12 1337.3L1339.53 1341.02H1339.58C1340.19 1340.24 1340.79 1339.56 1341.37 1338.98C1341.94 1338.4 1342.54 1337.91 1343.15 1337.5C1343.8 1337.06 1344.41 1336.84 1344.99 1336.84C1345.77 1336.8 1346.86 1336.89 1348.25 1337.09L1347.33 1341.02C1346.21 1340.81 1345.43 1340.73 1344.99 1340.76C1344.41 1340.76 1343.8 1341.04 1343.15 1341.58C1342.5 1342.12 1341.94 1342.7 1341.47 1343.31C1340.86 1344.06 1340.26 1344.91 1339.68 1345.86V1363H1335.6V1341.48ZM1352.79 1341.48C1352.79 1340.7 1352.7 1339.47 1352.53 1337.81L1356.3 1337.3L1356.71 1341.02H1356.76C1357.38 1340.24 1357.97 1339.56 1358.55 1338.98C1359.13 1338.4 1359.72 1337.91 1360.33 1337.5C1360.98 1337.06 1361.59 1336.84 1362.17 1336.84C1362.95 1336.8 1364.04 1336.89 1365.43 1337.09L1364.52 1341.02C1363.39 1340.81 1362.61 1340.73 1362.17 1340.76C1361.59 1340.76 1360.98 1341.04 1360.33 1341.58C1359.69 1342.12 1359.13 1342.7 1358.65 1343.31C1358.04 1344.06 1357.44 1344.91 1356.87 1345.86V1363H1352.79V1341.48ZM1366.6 1337.35H1370.94L1375.73 1348.92C1376.21 1350.05 1376.63 1351.17 1377.01 1352.29C1377.41 1353.41 1377.77 1354.41 1378.08 1355.3C1378.45 1356.35 1378.77 1357.37 1379.05 1358.36H1379.1C1379.4 1357.37 1379.74 1356.35 1380.12 1355.3C1380.42 1354.41 1380.78 1353.41 1381.19 1352.29C1381.6 1351.17 1382.02 1350.05 1382.46 1348.92L1386.9 1337.35H1391.18L1379.05 1367.95C1378.57 1369.21 1377.94 1370.29 1377.16 1371.21C1376.41 1372.13 1375.68 1372.89 1374.97 1373.51C1374.12 1374.22 1373.23 1374.83 1372.31 1375.34L1370.33 1371.82C1371.04 1371.48 1371.7 1371.06 1372.31 1370.55C1372.86 1370.11 1373.4 1369.55 1373.95 1368.87C1374.49 1368.22 1374.93 1367.44 1375.27 1366.52L1376.85 1362.34L1366.6 1337.35ZM1256.98 1390.7V1398.35H1264.37V1401.66H1256.98V1415.28C1256.98 1416.4 1256.99 1417.34 1257.03 1418.08C1257.09 1418.83 1257.21 1419.43 1257.38 1419.87C1257.55 1420.31 1257.79 1420.63 1258.1 1420.84C1258.4 1421.01 1258.79 1421.09 1259.27 1421.09C1260.56 1421.06 1262.06 1420.58 1263.76 1419.66L1264.98 1422.78C1263.86 1423.52 1262.81 1424.02 1261.82 1424.26C1260.87 1424.53 1259.92 1424.66 1258.96 1424.66C1256.72 1424.66 1255.14 1424.03 1254.22 1422.78C1253.34 1421.48 1252.9 1419.36 1252.9 1416.4V1401.66H1248.2V1398.35H1252.9V1391.21L1256.98 1390.7ZM1269.59 1398.3L1273.67 1397.84V1424H1269.59V1398.3ZM1268.92 1391C1268.92 1390.22 1269.18 1389.57 1269.69 1389.06C1270.23 1388.52 1270.89 1388.25 1271.68 1388.25C1272.49 1388.25 1273.17 1388.52 1273.72 1389.06C1274.29 1389.57 1274.58 1390.22 1274.58 1391C1274.58 1391.78 1274.29 1392.45 1273.72 1392.99C1273.17 1393.5 1272.49 1393.76 1271.68 1393.76C1270.89 1393.76 1270.23 1393.5 1269.69 1392.99C1269.18 1392.45 1268.92 1391.78 1268.92 1391ZM1281.04 1402.99C1281.04 1401.83 1280.94 1400.44 1280.74 1398.81L1284.56 1398.3L1285.12 1401.51C1286.04 1400.83 1286.94 1400.23 1287.82 1399.72C1288.71 1399.21 1289.66 1398.77 1290.68 1398.4C1291.7 1398.02 1292.74 1397.84 1293.79 1397.84C1295.49 1397.84 1296.83 1398.14 1297.82 1398.75C1298.81 1399.33 1299.54 1400.34 1300.01 1401.76C1301.41 1400.78 1302.85 1399.88 1304.35 1399.06C1305.88 1398.24 1307.46 1397.84 1309.09 1397.84C1310.35 1397.84 1311.42 1398.01 1312.3 1398.35C1313.19 1398.65 1313.9 1399.18 1314.45 1399.93C1314.99 1400.68 1315.38 1401.66 1315.62 1402.89C1315.86 1404.11 1315.98 1405.64 1315.98 1407.48V1424H1311.9V1407.93C1311.9 1406.91 1311.88 1406.01 1311.85 1405.23C1311.81 1404.42 1311.69 1403.74 1311.49 1403.19C1311.28 1402.61 1310.94 1402.17 1310.47 1401.87C1310.03 1401.56 1309.38 1401.41 1308.53 1401.41C1307.75 1401.41 1307 1401.53 1306.29 1401.76C1305.61 1401.97 1304.89 1402.27 1304.14 1402.68C1303.4 1403.09 1302.24 1403.92 1300.68 1405.18V1424H1296.6V1407.93C1296.6 1406.91 1296.58 1406.01 1296.55 1405.23C1296.51 1404.42 1296.39 1403.74 1296.19 1403.19C1295.98 1402.61 1295.64 1402.17 1295.17 1401.87C1294.73 1401.56 1294.08 1401.41 1293.23 1401.41C1292.35 1401.41 1291.43 1401.59 1290.48 1401.97C1289.52 1402.34 1288.62 1402.78 1287.77 1403.29C1286.92 1403.8 1286.04 1404.4 1285.12 1405.08V1424H1281.04V1402.99ZM1342.15 1423.39C1341.37 1423.63 1340.55 1423.83 1339.7 1424C1338.88 1424.17 1337.97 1424.32 1336.95 1424.46C1335.96 1424.6 1334.92 1424.66 1333.83 1424.66C1332.13 1424.66 1330.55 1424.43 1329.09 1423.95C1327.63 1423.47 1326.35 1422.71 1325.27 1421.65C1324.18 1420.6 1323.31 1419.24 1322.67 1417.57C1322.05 1415.87 1321.75 1413.8 1321.75 1411.35C1321.75 1409.14 1322.05 1407.2 1322.67 1405.54C1323.28 1403.84 1324.11 1402.43 1325.16 1401.3C1326.25 1400.15 1327.51 1399.28 1328.94 1398.7C1330.4 1398.13 1331.98 1397.84 1333.68 1397.84C1335.35 1397.84 1336.79 1398.16 1338.02 1398.81C1339.24 1399.45 1340.24 1400.34 1341.03 1401.46C1341.84 1402.55 1342.44 1403.84 1342.81 1405.33C1343.22 1406.8 1343.42 1408.34 1343.42 1409.97L1342.66 1412.22H1326.18C1326.18 1413.27 1326.32 1414.33 1326.59 1415.38C1326.86 1416.43 1327.32 1417.39 1327.97 1418.24C1328.65 1419.09 1329.52 1419.78 1330.57 1420.33C1331.66 1420.84 1333 1421.09 1334.6 1421.09C1335.62 1421.09 1336.55 1421.04 1337.4 1420.94C1338.25 1420.8 1338.99 1420.67 1339.6 1420.53C1340.24 1420.36 1340.84 1420.17 1341.38 1419.97L1342.15 1423.39ZM1339.19 1408.95C1339.19 1408.72 1339.14 1408.19 1339.04 1407.37C1338.93 1406.56 1338.7 1405.71 1338.32 1404.82C1337.95 1403.94 1337.37 1403.16 1336.59 1402.48C1335.81 1401.76 1334.77 1401.41 1333.48 1401.41C1332.05 1401.41 1330.88 1401.71 1329.96 1402.32C1329.04 1402.9 1328.31 1403.6 1327.77 1404.42C1327.22 1405.23 1326.85 1406.06 1326.64 1406.91C1326.44 1407.76 1326.34 1408.44 1326.34 1408.95H1339.19ZM1363.54 1411.3C1363.54 1414.6 1364.27 1417.06 1365.73 1418.7C1367.22 1420.29 1369.23 1421.09 1371.75 1421.09C1374.23 1421.09 1376.17 1420.29 1377.56 1418.7C1378.95 1417.1 1379.65 1414.7 1379.65 1411.5C1379.65 1408.1 1378.9 1405.57 1377.41 1403.91C1375.95 1402.24 1373.94 1401.41 1371.39 1401.41C1368.84 1401.41 1366.88 1402.24 1365.52 1403.91C1364.2 1405.54 1363.54 1408 1363.54 1411.3ZM1359.2 1411.25C1359.2 1408.67 1359.61 1406.52 1360.42 1404.82C1361.24 1403.09 1362.28 1401.71 1363.54 1400.69C1364.79 1399.64 1366.14 1398.91 1367.56 1398.5C1369.03 1398.06 1370.4 1397.84 1371.7 1397.84C1372.92 1397.84 1374.25 1398.04 1375.67 1398.45C1377.14 1398.82 1378.48 1399.52 1379.7 1400.54C1380.93 1401.53 1381.95 1402.87 1382.76 1404.57C1383.58 1406.23 1383.99 1408.36 1383.99 1410.94C1383.99 1413.63 1383.56 1415.86 1382.71 1417.62C1381.9 1419.39 1380.86 1420.8 1379.6 1421.86C1378.34 1422.88 1376.98 1423.59 1375.52 1424C1374.06 1424.44 1372.7 1424.66 1371.44 1424.66C1370.15 1424.66 1368.79 1424.46 1367.36 1424.05C1365.93 1423.64 1364.61 1422.95 1363.38 1421.96C1362.19 1420.94 1361.19 1419.56 1360.37 1417.83C1359.59 1416.09 1359.2 1413.9 1359.2 1411.25ZM1405.26 1421.19H1405.16C1404.86 1421.43 1404.41 1421.76 1403.84 1422.16C1403.26 1422.54 1402.6 1422.91 1401.85 1423.29C1401.1 1423.66 1400.27 1423.98 1399.35 1424.26C1398.46 1424.53 1397.56 1424.66 1396.65 1424.66C1395.39 1424.66 1394.32 1424.49 1393.43 1424.15C1392.55 1423.85 1391.83 1423.32 1391.29 1422.57C1390.75 1421.82 1390.36 1420.84 1390.12 1419.61C1389.88 1418.39 1389.76 1416.86 1389.76 1415.02V1398.35H1393.84V1414.41C1393.84 1415.43 1393.86 1416.35 1393.89 1417.17C1393.93 1417.98 1394.04 1418.68 1394.25 1419.26C1394.45 1419.83 1394.78 1420.29 1395.22 1420.63C1395.69 1420.94 1396.36 1421.09 1397.21 1421.09C1398.09 1421.09 1399.01 1420.91 1399.96 1420.53C1400.91 1420.16 1401.78 1419.73 1402.56 1419.26C1403.48 1418.71 1404.38 1418.1 1405.26 1417.42V1398.35H1409.34V1420.68C1409.38 1421.91 1409.46 1423.01 1409.6 1424L1405.57 1424.41L1405.26 1421.19ZM1422.73 1390.7V1398.35H1430.12V1401.66H1422.73V1415.28C1422.73 1416.4 1422.74 1417.34 1422.78 1418.08C1422.84 1418.83 1422.96 1419.43 1423.13 1419.87C1423.3 1420.31 1423.54 1420.63 1423.85 1420.84C1424.15 1421.01 1424.54 1421.09 1425.02 1421.09C1426.31 1421.06 1427.81 1420.58 1429.51 1419.66L1430.73 1422.78C1429.61 1423.52 1428.56 1424.02 1427.57 1424.26C1426.62 1424.53 1425.67 1424.66 1424.71 1424.66C1422.47 1424.66 1420.89 1424.03 1419.97 1422.78C1419.09 1421.48 1418.65 1419.36 1418.65 1416.4V1401.66H1413.95V1398.35H1418.65V1391.21L1422.73 1390.7ZM1251.31 1487.45C1251.31 1488.71 1251.17 1489.93 1250.9 1491.12C1250.63 1492.31 1250.1 1493.36 1249.32 1494.28C1248.57 1495.23 1247.5 1495.98 1246.1 1496.53C1244.74 1497.1 1242.94 1497.39 1240.7 1497.39C1239.27 1497.36 1238.03 1497.27 1236.97 1497.14C1235.92 1497 1234.92 1496.8 1233.97 1496.53C1233.01 1496.29 1232.15 1496 1231.36 1495.66L1232.44 1492.09C1233.76 1492.67 1235.1 1493.11 1236.46 1493.42C1237.86 1493.72 1239.1 1493.87 1240.19 1493.87C1241.38 1493.87 1242.41 1493.76 1243.3 1493.52C1244.18 1493.28 1244.91 1492.87 1245.49 1492.29C1246.1 1491.75 1246.55 1491.02 1246.82 1490.1C1247.12 1489.18 1247.28 1488.04 1247.28 1486.68V1482.96C1246.56 1483.44 1245.81 1483.88 1245.03 1484.29C1244.28 1484.66 1243.47 1484.98 1242.58 1485.26C1241.73 1485.53 1240.9 1485.66 1240.09 1485.66C1236.92 1485.66 1234.42 1484.56 1232.59 1482.35C1230.75 1480.1 1229.83 1476.77 1229.83 1472.35C1229.83 1469.8 1230.23 1467.68 1231.01 1465.98C1231.82 1464.24 1232.84 1462.85 1234.07 1461.79C1235.29 1460.74 1236.63 1459.99 1238.1 1459.55C1239.56 1459.07 1240.95 1458.84 1242.28 1458.84C1244.01 1458.84 1245.59 1458.99 1247.02 1459.3C1248.48 1459.57 1249.91 1459.79 1251.31 1459.96V1487.45ZM1240.54 1482.09C1241.29 1482.09 1242.06 1481.96 1242.84 1481.68C1243.62 1481.41 1244.37 1481.09 1245.08 1480.72C1245.83 1480.34 1246.56 1479.9 1247.28 1479.39V1463.12C1246.87 1463.02 1246.39 1462.9 1245.85 1462.76C1245.37 1462.7 1244.83 1462.63 1244.22 1462.56C1243.6 1462.46 1242.96 1462.41 1242.28 1462.41C1240.85 1462.41 1239.63 1462.66 1238.61 1463.17C1237.59 1463.68 1236.74 1464.38 1236.06 1465.26C1235.41 1466.15 1234.93 1467.18 1234.63 1468.37C1234.32 1469.56 1234.17 1470.82 1234.17 1472.15C1234.17 1473.34 1234.29 1474.53 1234.53 1475.72C1234.8 1476.91 1235.21 1477.98 1235.75 1478.93C1236.29 1479.88 1236.96 1480.65 1237.74 1481.23C1238.52 1481.8 1239.46 1482.09 1240.54 1482.09ZM1261.56 1472.3C1261.56 1475.6 1262.29 1478.06 1263.75 1479.7C1265.25 1481.29 1267.26 1482.09 1269.77 1482.09C1272.25 1482.09 1274.19 1481.29 1275.59 1479.7C1276.98 1478.1 1277.68 1475.7 1277.68 1472.5C1277.68 1469.1 1276.93 1466.57 1275.43 1464.91C1273.97 1463.24 1271.96 1462.41 1269.41 1462.41C1266.86 1462.41 1264.91 1463.24 1263.55 1464.91C1262.22 1466.54 1261.56 1469 1261.56 1472.3ZM1257.23 1472.25C1257.23 1469.67 1257.63 1467.52 1258.45 1465.82C1259.27 1464.09 1260.3 1462.71 1261.56 1461.69C1262.82 1460.64 1264.16 1459.91 1265.59 1459.5C1267.05 1459.06 1268.43 1458.84 1269.72 1458.84C1270.94 1458.84 1272.27 1459.04 1273.7 1459.45C1275.16 1459.82 1276.5 1460.52 1277.73 1461.54C1278.95 1462.53 1279.97 1463.87 1280.79 1465.57C1281.6 1467.23 1282.01 1469.36 1282.01 1471.94C1282.01 1474.63 1281.59 1476.86 1280.74 1478.62C1279.92 1480.39 1278.88 1481.8 1277.63 1482.86C1276.37 1483.88 1275.01 1484.59 1273.55 1485C1272.08 1485.44 1270.72 1485.66 1269.47 1485.66C1268.17 1485.66 1266.81 1485.46 1265.39 1485.05C1263.96 1484.64 1262.63 1483.95 1261.41 1482.96C1260.22 1481.94 1259.21 1480.56 1258.4 1478.83C1257.62 1477.09 1257.23 1474.9 1257.23 1472.25ZM1290.85 1472.3C1290.85 1475.6 1291.58 1478.06 1293.04 1479.7C1294.53 1481.29 1296.54 1482.09 1299.06 1482.09C1301.54 1482.09 1303.48 1481.29 1304.87 1479.7C1306.26 1478.1 1306.96 1475.7 1306.96 1472.5C1306.96 1469.1 1306.21 1466.57 1304.72 1464.91C1303.26 1463.24 1301.25 1462.41 1298.7 1462.41C1296.15 1462.41 1294.19 1463.24 1292.83 1464.91C1291.51 1466.54 1290.85 1469 1290.85 1472.3ZM1286.51 1472.25C1286.51 1469.67 1286.92 1467.52 1287.73 1465.82C1288.55 1464.09 1289.59 1462.71 1290.85 1461.69C1292.1 1460.64 1293.45 1459.91 1294.87 1459.5C1296.34 1459.06 1297.71 1458.84 1299.01 1458.84C1300.23 1458.84 1301.56 1459.04 1302.98 1459.45C1304.45 1459.82 1305.79 1460.52 1307.01 1461.54C1308.24 1462.53 1309.26 1463.87 1310.07 1465.57C1310.89 1467.23 1311.3 1469.36 1311.3 1471.94C1311.3 1474.63 1310.87 1476.86 1310.02 1478.62C1309.21 1480.39 1308.17 1481.8 1306.91 1482.86C1305.65 1483.88 1304.29 1484.59 1302.83 1485C1301.37 1485.44 1300.01 1485.66 1298.75 1485.66C1297.46 1485.66 1296.1 1485.46 1294.67 1485.05C1293.24 1484.64 1291.92 1483.95 1290.69 1482.96C1289.5 1481.94 1288.5 1480.56 1287.68 1478.83C1286.9 1477.09 1286.51 1474.9 1286.51 1472.25ZM1333.24 1463.17C1332.01 1462.83 1331.06 1462.63 1330.38 1462.56C1329.7 1462.46 1329 1462.41 1328.29 1462.41C1326.86 1462.41 1325.64 1462.66 1324.62 1463.17C1323.6 1463.68 1322.75 1464.4 1322.07 1465.31C1321.42 1466.2 1320.95 1467.23 1320.64 1468.42C1320.33 1469.58 1320.18 1470.82 1320.18 1472.15C1320.18 1473.34 1320.3 1474.53 1320.54 1475.72C1320.81 1476.91 1321.22 1477.98 1321.76 1478.93C1322.31 1479.88 1322.97 1480.65 1323.75 1481.23C1324.53 1481.8 1325.47 1482.09 1326.56 1482.09C1327.3 1482.09 1328.07 1481.96 1328.85 1481.68C1329.67 1481.41 1330.42 1481.11 1331.1 1480.77C1331.78 1480.39 1332.49 1479.93 1333.24 1479.39V1463.17ZM1333.29 1482.96C1332.51 1483.5 1331.74 1483.96 1330.99 1484.34C1330.28 1484.68 1329.48 1484.98 1328.6 1485.26C1327.75 1485.53 1326.91 1485.66 1326.1 1485.66C1322.9 1485.66 1320.39 1484.54 1318.55 1482.3C1316.75 1480.02 1315.85 1476.7 1315.85 1472.35C1315.85 1469.77 1316.25 1467.61 1317.07 1465.87C1317.92 1464.14 1318.97 1462.76 1320.23 1461.74C1321.49 1460.69 1322.83 1459.94 1324.26 1459.5C1325.72 1459.06 1327.07 1458.84 1328.29 1458.84C1328.9 1458.84 1329.55 1458.89 1330.23 1458.99C1330.91 1459.06 1331.91 1459.26 1333.24 1459.6V1446.8L1337.32 1446.34V1480.36C1337.32 1480.83 1337.32 1481.34 1337.32 1481.89C1337.35 1482.4 1337.39 1482.91 1337.42 1483.42C1337.49 1483.93 1337.56 1484.46 1337.62 1485L1333.7 1485.41L1333.29 1482.96ZM1356.37 1446.8L1360.45 1446.34V1485H1356.37V1446.8ZM1383.13 1482.19H1383.02C1382.72 1482.43 1382.28 1482.76 1381.7 1483.16C1381.12 1483.54 1380.46 1483.91 1379.71 1484.29C1378.96 1484.66 1378.13 1484.98 1377.21 1485.26C1376.33 1485.53 1375.43 1485.66 1374.51 1485.66C1373.25 1485.66 1372.18 1485.49 1371.29 1485.15C1370.41 1484.85 1369.7 1484.32 1369.15 1483.57C1368.61 1482.82 1368.22 1481.84 1367.98 1480.61C1367.74 1479.39 1367.62 1477.86 1367.62 1476.02V1459.35H1371.7V1475.41C1371.7 1476.43 1371.72 1477.35 1371.75 1478.17C1371.79 1478.98 1371.91 1479.68 1372.11 1480.26C1372.31 1480.83 1372.64 1481.29 1373.08 1481.63C1373.56 1481.94 1374.22 1482.09 1375.07 1482.09C1375.95 1482.09 1376.87 1481.91 1377.82 1481.53C1378.77 1481.16 1379.64 1480.73 1380.42 1480.26C1381.34 1479.71 1382.24 1479.1 1383.13 1478.42V1459.35H1387.21V1481.68C1387.24 1482.91 1387.33 1484.01 1387.46 1485L1383.43 1485.41L1383.13 1482.19ZM1410.53 1463.07C1409.95 1462.93 1409.16 1462.8 1408.14 1462.66C1407.12 1462.49 1406.08 1462.41 1405.02 1462.41C1403.49 1462.41 1402.24 1462.71 1401.25 1463.32C1400.3 1463.94 1399.55 1464.74 1399.01 1465.72C1398.46 1466.67 1398.09 1467.74 1397.88 1468.93C1397.68 1470.09 1397.58 1471.23 1397.58 1472.35C1397.58 1474.09 1397.8 1475.58 1398.24 1476.84C1398.68 1478.06 1399.26 1479.07 1399.98 1479.85C1400.72 1480.63 1401.57 1481.21 1402.53 1481.58C1403.48 1481.92 1404.48 1482.09 1405.53 1482.09C1406.25 1482.09 1406.93 1482.06 1407.57 1481.99C1408.25 1481.89 1408.87 1481.79 1409.41 1481.68C1409.99 1481.55 1410.53 1481.4 1411.04 1481.23L1411.86 1484.64C1411.14 1484.85 1410.48 1485.02 1409.87 1485.15C1409.26 1485.29 1408.53 1485.41 1407.68 1485.51C1406.86 1485.61 1405.98 1485.66 1405.02 1485.66C1403.15 1485.66 1401.49 1485.43 1400.03 1484.95C1398.56 1484.47 1397.32 1483.71 1396.3 1482.65C1395.32 1481.6 1394.55 1480.22 1394.01 1478.52C1393.5 1476.82 1393.24 1474.75 1393.24 1472.3C1393.24 1469.92 1393.57 1467.88 1394.21 1466.18C1394.89 1464.45 1395.78 1463.05 1396.86 1462C1397.95 1460.91 1399.19 1460.11 1400.59 1459.6C1402.02 1459.09 1403.49 1458.84 1405.02 1458.84C1405.84 1458.84 1406.62 1458.89 1407.37 1458.99C1408.15 1459.06 1408.83 1459.14 1409.41 1459.25C1410.09 1459.38 1410.74 1459.52 1411.35 1459.65L1410.53 1463.07ZM1416.88 1446.8L1420.96 1446.34V1469.34L1432.34 1459.35H1437.95L1426.83 1469.09L1438.35 1485H1433.2L1423.82 1471.69L1420.96 1474.19V1485H1416.88V1446.8ZM1454.14 1447.87L1459.34 1447.31L1458.47 1475.72H1455.16L1454.14 1447.87ZM1453.68 1481.99C1453.68 1481.17 1453.97 1480.48 1454.55 1479.9C1455.12 1479.29 1455.84 1478.98 1456.69 1478.98C1457.57 1478.98 1458.32 1479.29 1458.93 1479.9C1459.54 1480.48 1459.85 1481.17 1459.85 1481.99C1459.85 1482.84 1459.54 1483.55 1458.93 1484.13C1458.32 1484.71 1457.57 1485 1456.69 1485C1455.84 1485 1455.12 1484.71 1454.55 1484.13C1453.97 1483.55 1453.68 1482.84 1453.68 1481.99Z" fill="black"/>
</svg>
