<svg width="3200" height="2736" viewBox="0 0 3200 2736" fill="none" xmlns="http://www.w3.org/2000/svg">
<path d="M1908.7 2593.56C1990.15 2565.85 2063.22 2537.55 2151.13 2483.83C2241.8 2428.42 2644.56 2164.72 2696.93 1708.33C2710.66 1583.25 2699.27 1456.42 2663.56 1336.59C2647.37 1284.94 2613.79 1181.21 2529.03 1078.62C2425.29 952.96 2306.9 904.256 2237.49 876.714C2091.44 818.739 1968.95 821.793 1910.61 823.865C1847.66 826.101 1736.54 831.119 1610.24 891.167C1527.84 930.326 1476.62 974.994 1401.14 1041.75C1281.55 1147.61 1265.81 1191.68 1056.61 1410.27C999.178 1470.27 951.965 1517.55 879.893 1564.13C829.923 1596.42 789.527 1614.47 714.998 1647.41C531.811 1728.4 479.653 1744.8 419.71 1790.4C303.131 1879.13 310.682 1975.9 305.67 1996.74C292.637 2050.02 289.62 2105.61 296.799 2160.19C312.086 2269.65 366.265 2341.21 399.895 2384.51C446.058 2443.41 501.996 2492.33 564.79 2528.71C608.381 2553.74 653.533 2575.41 699.912 2593.56L1908.7 2593.56Z" fill="#E5D9CF"/>
<path d="M2318.11 2344.34L2315.66 2339.58C2435.45 2266.36 2830.37 1991.85 2882.91 1533.84C2897.06 1403.96 2885.24 1272.29 2848.25 1147.85C2833.33 1100.23 2798.4 988.717 2708.68 880.093C2598.8 747.05 2473.39 697.274 2406.01 670.533C2251.16 609.078 2121.74 613.658 2066.45 615.624C2008.63 617.665 1888.31 621.912 1754.5 685.49L1752.49 680.497C1887.18 616.499 2008.16 612.229 2066.29 610.175C2121.84 608.198 2251.97 603.589 2407.72 665.412C2475.51 692.315 2601.7 742.389 2712.41 876.447C2802.81 985.899 2837.98 1098.16 2852.99 1146.09C2890.22 1271.31 2902.12 1403.82 2887.88 1534.51C2835.06 1995.06 2438.42 2270.8 2318.11 2344.34ZM2817.62 2427.68H311.636C310.913 2427.68 310.198 2427.53 309.53 2427.23C308.862 2426.93 308.255 2426.49 307.744 2425.94C307.232 2425.38 306.827 2424.72 306.55 2424C306.273 2423.27 306.13 2422.49 306.13 2421.71C306.13 2420.92 306.273 2420.14 306.55 2419.42C306.827 2418.69 307.232 2418.03 307.744 2417.48C308.255 2416.92 308.862 2416.48 309.53 2416.18C310.198 2415.88 310.913 2415.73 311.636 2415.73H2817.62C2819.08 2415.74 2820.47 2416.37 2821.49 2417.49C2822.52 2418.61 2823.1 2420.13 2823.1 2421.71C2823.1 2423.29 2822.52 2424.8 2821.49 2425.92C2820.47 2427.04 2819.08 2427.68 2817.62 2427.68Z" fill="#929190"/>
<path d="M1186.97 2421.71H380.909V1569.71C380.909 1453.4 423.371 1341.84 498.953 1259.6C574.536 1177.35 677.048 1131.14 783.937 1131.14C890.827 1131.14 993.339 1177.35 1068.92 1259.6C1144.5 1341.84 1186.97 1453.4 1186.97 1569.71V2421.71Z" fill="#6D6056"/>
<path d="M798.057 1918.89C964.641 1918.89 1099.68 1771.94 1099.68 1590.67C1099.68 1409.39 964.641 1262.44 798.057 1262.44C631.473 1262.44 496.43 1409.39 496.43 1590.67C496.43 1771.94 631.473 1918.89 798.057 1918.89Z" fill="white"/>
<path d="M884.05 1332.27C863.459 1421.58 835.573 1508.02 808.024 1594.59L803.601 1580.83C877.942 1631.56 952.552 1681.85 1022.67 1740.11C943.059 1698.74 867.922 1649.4 792.529 1600.51L785.005 1595.62L788.093 1586.73C817.867 1501.04 847.318 1415.22 884.05 1332.27Z" fill="#080200"/>
<path d="M2572.35 1535.77C2558.42 1521.23 2543.95 1512.57 2531.85 1514.35C2511.32 1517.36 2512.3 1546.84 2476.2 1584.12C2446.77 1614.51 2389.91 1652.94 2344.35 1636.78C2306.36 1623.3 2311.65 1584.45 2266.91 1549.89C2241.28 1530.91 2211.72 1519.17 2180.89 1515.71C2220.72 1689.98 2294.41 1807.38 2379 1807.38C2460.29 1807.38 2531.56 1698.92 2572.35 1535.77ZM2355.23 2043.56C2319.04 2045.42 2299.67 2087.44 2229.41 2214.7C2194.88 2277.21 2169.23 2321.99 2150.17 2355.21C2149.86 2367.59 2149.44 2379.89 2149.44 2392.47H2608.56C2608.56 2380.05 2608.13 2367.9 2607.84 2355.68C2581.68 2319.58 2542.13 2265.5 2483.46 2180.47C2414.36 2080.31 2390.87 2041.73 2355.23 2043.56Z" fill="#FFBA55"/>
<path d="M2378.99 1836.62C2235.2 1836.62 2122.55 1565.73 2122.55 1219.87V1190.62H2635.44V1219.87C2635.44 1565.73 2522.78 1836.62 2378.99 1836.62ZM2176.58 1249.13C2182.48 1566.81 2284.01 1778.11 2378.99 1778.11C2473.98 1778.11 2575.5 1566.81 2581.41 1249.13H2176.58Z" fill="#6D6056"/>
<path d="M2635.44 2421.71H2122.55V2392.45C2122.55 2046.6 2235.2 1775.71 2378.99 1775.71C2522.78 1775.71 2635.44 2046.6 2635.44 2392.45V2421.71ZM2176.58 2363.2H2581.41C2575.5 2045.51 2473.98 1834.22 2378.99 1834.22C2284.01 1834.22 2182.48 2045.51 2176.58 2363.2Z" fill="#6D6056"/>
<path d="M2792.21 2363.19H2711.56V1249.12H2792.21C2799.34 1249.12 2806.17 1246.04 2811.22 1240.55C2816.26 1235.07 2819.09 1227.62 2819.09 1219.87C2819.09 1212.11 2816.26 1204.67 2811.22 1199.18C2806.17 1193.69 2799.34 1190.61 2792.21 1190.61H1965.79C1958.66 1190.61 1951.82 1193.69 1946.78 1199.18C1941.74 1204.67 1938.91 1212.11 1938.91 1219.87C1938.91 1227.62 1941.74 1235.07 1946.78 1240.55C1951.82 1246.04 1958.66 1249.12 1965.79 1249.12H2046.44V2363.19H1965.79C1958.66 2363.19 1951.82 2366.27 1946.78 2371.76C1941.74 2377.25 1938.91 2384.69 1938.91 2392.44C1938.91 2400.2 1941.74 2407.64 1946.78 2413.13C1951.82 2418.62 1958.66 2421.7 1965.79 2421.7H2792.21C2795.74 2421.7 2799.24 2420.95 2802.51 2419.48C2805.77 2418.02 2808.74 2415.86 2811.24 2413.14C2813.74 2410.43 2815.72 2407.2 2817.08 2403.65C2818.43 2400.1 2819.13 2396.29 2819.13 2392.44C2819.13 2388.6 2818.43 2384.79 2817.08 2381.24C2815.72 2377.69 2813.74 2374.46 2811.24 2371.75C2808.74 2369.03 2805.77 2366.87 2802.51 2365.41C2799.24 2363.94 2795.74 2363.19 2792.21 2363.19ZM2100.21 1249.12H2657.79V2363.19H2100.21L2100.21 1249.12Z" fill="#6D6056"/>
<path d="M2903.85 2416.81H296.146V2427.68H2903.85V2416.81Z" fill="#935B50"/>
<path d="M2555.82 1320.76L2534 1290.28L2236.16 1542.86L2257.98 1573.33L2555.82 1320.76Z" fill="#FBEDDA"/>
<path d="M2276.23 1557.86C2273.36 1555.19 2270.32 1552.53 2266.91 1549.89C2259.84 1544.51 2252.39 1539.76 2244.62 1535.69L2236.16 1542.86L2257.98 1573.34L2276.23 1557.86Z" fill="#FFD69B"/>
<path d="M2283.57 1629.36L2261.75 1598.89L2516.19 1383.12L2541.27 1410.83L2283.57 1629.36Z" fill="#FBEDDA"/>
<path d="M2228.3 2286.55L2206.48 2256.08L2460.91 2040.3L2486 2068.02L2228.3 2286.55Z" fill="#FBEDDA"/>
<path d="M2412.86 2081.06L2206.48 2256.08L2228.3 2286.55L2435.33 2110.99C2427.07 2099.41 2419.68 2089.48 2412.86 2081.06Z" fill="#FFD69B"/>
<path d="M2231.6 2194.8L2209.77 2164.33L2464.21 1948.55L2489.29 1976.27L2231.6 2194.8Z" fill="#FBEDDA"/>
<path d="M2248.02 2180.88L2392.11 2058.68C2379.57 2047.62 2368.2 2042.9 2355.23 2043.56C2354.08 2043.62 2352.94 2043.72 2351.82 2043.87L2302.97 2085.29C2288.69 2106.81 2271.68 2137.78 2248.02 2180.88ZM2290.95 1574.12L2261.75 1598.89L2283.57 1629.36L2311 1606.11C2304.95 1594.99 2298.26 1584.3 2290.95 1574.12Z" fill="#FFD69B"/>
<path d="M1543 1468L1507.85 1409.25C1529.62 1375.77 1537.4 1335.77 1529.65 1297.13C1521.91 1258.49 1499.2 1223.99 1465.99 1200.42C1432.77 1176.85 1391.47 1165.91 1350.18 1169.75C1308.89 1173.6 1270.62 1191.94 1242.87 1221.18C1215.13 1250.43 1199.92 1288.45 1200.25 1327.78C1200.57 1367.12 1216.4 1404.91 1244.63 1433.74C1272.85 1462.57 1311.43 1480.34 1352.77 1483.57C1394.11 1486.8 1435.24 1475.25 1468.06 1451.19L1543 1468Z" fill="#FAFAFA"/>
<path d="M1542.99 1468L1467.89 1451.75H1467.14L1467.62 1451.15L1468.32 1451.86C1457.81 1459.59 1446.36 1466.13 1434.23 1471.32C1419.78 1477.46 1404.47 1481.62 1388.78 1483.66C1380.09 1484.81 1371.32 1485.22 1362.55 1484.89C1358.03 1484.67 1353.43 1484.55 1348.79 1484.18L1334.79 1482.17C1302.42 1476.15 1272.65 1461.19 1249.22 1439.17C1225.8 1417.14 1209.77 1389.04 1203.15 1358.39C1198.37 1335.23 1199.04 1311.35 1205.12 1288.45C1211.33 1264.55 1223.46 1242.39 1240.5 1223.81L1247.27 1216.76C1249.47 1214.38 1252.14 1212.4 1254.54 1210.24C1256.94 1208.08 1259.34 1205.84 1262.09 1204.01L1269.95 1198.38C1272.56 1196.48 1275.31 1194.74 1278.17 1193.2L1286.59 1188.35L1295.4 1184.33C1298.27 1182.91 1301.24 1181.66 1304.28 1180.6C1327.88 1171.75 1353.28 1168.06 1378.6 1169.79C1402.54 1171.33 1425.83 1177.85 1446.82 1188.88C1484.46 1208.81 1512.61 1241.67 1525.46 1280.7C1530.56 1297.31 1532.99 1314.55 1532.65 1331.85C1531.79 1359.45 1523.24 1386.35 1507.88 1409.81V1409.32L1542.6 1468.3L1507.41 1409.51V1409.25V1409.02C1514.2 1398.47 1519.67 1387.21 1523.73 1375.47C1528.53 1361.3 1531.18 1346.55 1531.59 1331.66C1531.87 1314.52 1529.4 1297.44 1524.28 1281C1511.46 1242.4 1483.51 1209.93 1446.19 1190.29C1425.42 1179.48 1402.4 1173.12 1378.75 1171.65C1353.77 1169.88 1328.68 1173.45 1305.34 1182.09C1302.32 1183.16 1299.36 1184.41 1296.5 1185.82L1287.81 1189.84L1279.51 1194.62C1276.68 1196.15 1273.96 1197.86 1271.37 1199.72L1263.51 1205.32C1260.83 1207.11 1258.59 1209.42 1256.07 1211.43C1253.56 1213.44 1251.12 1215.64 1248.92 1217.84L1242.23 1224.81C1225.35 1243.16 1213.31 1265.05 1207.12 1288.68C1201.11 1311.29 1200.42 1334.87 1205.12 1357.76C1209.68 1379.41 1219.06 1399.89 1232.64 1417.82C1257.13 1450.2 1293.67 1472.57 1334.87 1480.42L1348.75 1482.43C1353.35 1482.8 1357.91 1482.95 1362.4 1483.17C1371.08 1483.53 1379.78 1483.14 1388.39 1482.02C1403.96 1480.06 1419.15 1476.02 1433.53 1470.01C1445.61 1464.88 1457.02 1458.44 1467.54 1450.81L1470.6 1448.58L1468.25 1451.49L1467.97 1450.74L1542.99 1468Z" fill="#263238"/>
<path d="M1330.04 1240.01C1329.22 1239.81 1328.37 1239.62 1327.49 1239.45C1326.71 1239.28 1325.8 1239.14 1324.78 1239.04C1323.8 1238.91 1322.76 1238.84 1321.67 1238.84C1319.16 1238.84 1317.36 1239.23 1316.27 1240.01C1315.18 1240.76 1314.64 1241.93 1314.64 1243.53C1314.67 1244.79 1315.13 1245.86 1316.01 1246.74C1316.9 1247.59 1318 1248.39 1319.33 1249.14C1320.65 1249.85 1322.1 1250.57 1323.66 1251.28C1325.26 1251.96 1326.72 1252.76 1328.05 1253.68C1329.37 1254.56 1330.48 1255.62 1331.36 1256.84C1332.28 1258.03 1332.74 1259.49 1332.74 1261.23C1332.74 1263.23 1332.3 1264.85 1331.41 1266.07C1330.56 1267.3 1329.48 1268.25 1328.15 1268.93C1326.82 1269.61 1325.36 1270.07 1323.76 1270.31C1322.2 1270.54 1320.7 1270.66 1319.28 1270.66C1317.92 1270.66 1316.68 1270.58 1315.55 1270.41C1314.43 1270.24 1313.46 1270.05 1312.65 1269.85C1311.69 1269.61 1310.83 1269.34 1310.05 1269.03L1311.07 1264.9C1311.85 1265.24 1312.68 1265.53 1313.56 1265.77C1314.35 1265.97 1315.21 1266.16 1316.17 1266.33C1317.15 1266.5 1318.19 1266.58 1319.28 1266.58C1320.6 1266.58 1321.81 1266.5 1322.9 1266.33C1324.02 1266.16 1324.99 1265.89 1325.8 1265.51C1326.62 1265.14 1327.25 1264.64 1327.69 1264.03C1328.17 1263.42 1328.41 1262.67 1328.41 1261.79C1328.37 1260.46 1327.93 1259.39 1327.08 1258.58C1326.26 1257.73 1325.16 1256.93 1323.76 1256.18C1322.4 1255.4 1320.93 1254.65 1319.33 1253.93C1317.76 1253.22 1316.32 1252.4 1314.99 1251.49C1313.67 1250.57 1312.54 1249.48 1311.63 1248.22C1310.74 1246.96 1310.3 1245.4 1310.3 1243.53C1310.3 1242.44 1310.49 1241.37 1310.86 1240.32C1311.24 1239.26 1311.86 1238.33 1312.75 1237.51C1313.67 1236.7 1314.84 1236.03 1316.27 1235.52C1317.73 1235.01 1319.53 1234.76 1321.67 1234.76C1322.9 1234.76 1324.05 1234.83 1325.14 1234.96C1326.26 1235.06 1327.23 1235.18 1328.05 1235.32C1329 1235.49 1329.9 1235.68 1330.75 1235.88L1330.04 1240.01ZM1341.17 1257.3C1341.17 1260.6 1341.9 1263.06 1343.37 1264.7C1344.86 1266.29 1346.87 1267.09 1349.38 1267.09C1351.87 1267.09 1353.8 1266.29 1355.2 1264.7C1356.59 1263.1 1357.29 1260.7 1357.29 1257.5C1357.29 1254.1 1356.54 1251.57 1355.05 1249.91C1353.58 1248.24 1351.58 1247.41 1349.03 1247.41C1346.48 1247.41 1344.52 1248.24 1343.16 1249.91C1341.84 1251.54 1341.17 1254 1341.17 1257.3ZM1336.84 1257.25C1336.84 1254.67 1337.25 1252.52 1338.06 1250.82C1338.88 1249.09 1339.92 1247.71 1341.17 1246.69C1342.43 1245.64 1343.77 1244.91 1345.2 1244.5C1346.66 1244.06 1348.04 1243.84 1349.33 1243.84C1350.56 1243.84 1351.88 1244.04 1353.31 1244.45C1354.77 1244.82 1356.12 1245.52 1357.34 1246.54C1358.56 1247.53 1359.58 1248.87 1360.4 1250.57C1361.22 1252.23 1361.62 1254.36 1361.62 1256.94C1361.62 1259.63 1361.2 1261.86 1360.35 1263.62C1359.53 1265.39 1358.5 1266.8 1357.24 1267.86C1355.98 1268.88 1354.62 1269.59 1353.16 1270C1351.7 1270.44 1350.34 1270.66 1349.08 1270.66C1347.79 1270.66 1346.43 1270.46 1345 1270.05C1343.57 1269.64 1342.24 1268.95 1341.02 1267.96C1339.83 1266.94 1338.83 1265.56 1338.01 1263.83C1337.23 1262.09 1336.84 1259.9 1336.84 1257.25ZM1367.6 1248.48C1367.6 1247.7 1367.52 1246.47 1367.35 1244.81L1371.12 1244.3L1371.53 1248.02H1371.58C1372.19 1247.24 1372.79 1246.56 1373.37 1245.98C1373.94 1245.4 1374.54 1244.91 1375.15 1244.5C1375.8 1244.06 1376.41 1243.84 1376.99 1243.84C1377.77 1243.8 1378.86 1243.89 1380.25 1244.09L1379.33 1248.02C1378.21 1247.81 1377.43 1247.73 1376.99 1247.76C1376.41 1247.76 1375.8 1248.04 1375.15 1248.58C1374.5 1249.12 1373.94 1249.7 1373.47 1250.31C1372.86 1251.06 1372.26 1251.91 1371.68 1252.86V1270H1367.6V1248.48ZM1384.79 1248.48C1384.79 1247.7 1384.7 1246.47 1384.53 1244.81L1388.3 1244.3L1388.71 1248.02H1388.76C1389.38 1247.24 1389.97 1246.56 1390.55 1245.98C1391.13 1245.4 1391.72 1244.91 1392.33 1244.5C1392.98 1244.06 1393.59 1243.84 1394.17 1243.84C1394.95 1243.8 1396.04 1243.89 1397.43 1244.09L1396.52 1248.02C1395.39 1247.81 1394.61 1247.73 1394.17 1247.76C1393.59 1247.76 1392.98 1248.04 1392.33 1248.58C1391.69 1249.12 1391.13 1249.7 1390.65 1250.31C1390.04 1251.06 1389.44 1251.91 1388.87 1252.86V1270H1384.79V1248.48ZM1398.6 1244.35H1402.94L1407.73 1255.92C1408.21 1257.05 1408.63 1258.17 1409.01 1259.29C1409.41 1260.41 1409.77 1261.41 1410.08 1262.3C1410.45 1263.35 1410.77 1264.37 1411.05 1265.36H1411.1C1411.4 1264.37 1411.74 1263.35 1412.12 1262.3C1412.42 1261.41 1412.78 1260.41 1413.19 1259.29C1413.6 1258.17 1414.02 1257.05 1414.46 1255.92L1418.9 1244.35H1423.18L1411.05 1274.95C1410.57 1276.21 1409.94 1277.29 1409.16 1278.21C1408.41 1279.13 1407.68 1279.89 1406.97 1280.51C1406.12 1281.22 1405.23 1281.83 1404.31 1282.34L1402.33 1278.82C1403.04 1278.48 1403.7 1278.06 1404.31 1277.55C1404.86 1277.11 1405.4 1276.55 1405.95 1275.87C1406.49 1275.22 1406.93 1274.44 1407.27 1273.52L1408.85 1269.34L1398.6 1244.35ZM1288.98 1297.7V1305.35H1296.37V1308.66H1288.98V1322.28C1288.98 1323.4 1288.99 1324.34 1289.03 1325.08C1289.09 1325.83 1289.21 1326.43 1289.38 1326.87C1289.55 1327.31 1289.79 1327.63 1290.1 1327.84C1290.4 1328.01 1290.79 1328.09 1291.27 1328.09C1292.56 1328.06 1294.06 1327.58 1295.76 1326.66L1296.98 1329.78C1295.86 1330.52 1294.81 1331.02 1293.82 1331.26C1292.87 1331.53 1291.92 1331.66 1290.96 1331.66C1288.72 1331.66 1287.14 1331.03 1286.22 1329.78C1285.34 1328.48 1284.9 1326.36 1284.9 1323.4V1308.66H1280.2V1305.35H1284.9V1298.21L1288.98 1297.7ZM1301.59 1305.3L1305.67 1304.84V1331H1301.59V1305.3ZM1300.92 1298C1300.92 1297.22 1301.18 1296.57 1301.69 1296.06C1302.23 1295.52 1302.89 1295.25 1303.68 1295.25C1304.49 1295.25 1305.17 1295.52 1305.72 1296.06C1306.29 1296.57 1306.58 1297.22 1306.58 1298C1306.58 1298.78 1306.29 1299.45 1305.72 1299.99C1305.17 1300.5 1304.49 1300.76 1303.68 1300.76C1302.89 1300.76 1302.23 1300.5 1301.69 1299.99C1301.18 1299.45 1300.92 1298.78 1300.92 1298ZM1313.04 1309.99C1313.04 1308.83 1312.94 1307.44 1312.74 1305.81L1316.56 1305.3L1317.12 1308.51C1318.04 1307.83 1318.94 1307.23 1319.82 1306.72C1320.71 1306.21 1321.66 1305.77 1322.68 1305.4C1323.7 1305.02 1324.74 1304.84 1325.79 1304.84C1327.49 1304.84 1328.83 1305.14 1329.82 1305.75C1330.81 1306.33 1331.54 1307.34 1332.01 1308.76C1333.41 1307.78 1334.85 1306.88 1336.35 1306.06C1337.88 1305.24 1339.46 1304.84 1341.09 1304.84C1342.35 1304.84 1343.42 1305.01 1344.3 1305.35C1345.19 1305.65 1345.9 1306.18 1346.45 1306.93C1346.99 1307.68 1347.38 1308.66 1347.62 1309.89C1347.86 1311.11 1347.98 1312.64 1347.98 1314.48V1331H1343.9V1314.93C1343.9 1313.91 1343.88 1313.01 1343.85 1312.23C1343.81 1311.42 1343.69 1310.74 1343.49 1310.19C1343.28 1309.61 1342.94 1309.17 1342.47 1308.87C1342.03 1308.56 1341.38 1308.41 1340.53 1308.41C1339.75 1308.41 1339 1308.53 1338.29 1308.76C1337.61 1308.97 1336.89 1309.27 1336.14 1309.68C1335.4 1310.09 1334.24 1310.92 1332.68 1312.18V1331H1328.6V1314.93C1328.6 1313.91 1328.58 1313.01 1328.55 1312.23C1328.51 1311.42 1328.39 1310.74 1328.19 1310.19C1327.98 1309.61 1327.64 1309.17 1327.17 1308.87C1326.73 1308.56 1326.08 1308.41 1325.23 1308.41C1324.35 1308.41 1323.43 1308.59 1322.48 1308.97C1321.52 1309.34 1320.62 1309.78 1319.77 1310.29C1318.92 1310.8 1318.04 1311.4 1317.12 1312.08V1331H1313.04V1309.99ZM1374.15 1330.39C1373.37 1330.63 1372.55 1330.83 1371.7 1331C1370.88 1331.17 1369.97 1331.32 1368.95 1331.46C1367.96 1331.6 1366.92 1331.66 1365.83 1331.66C1364.13 1331.66 1362.55 1331.43 1361.09 1330.95C1359.63 1330.47 1358.35 1329.71 1357.27 1328.65C1356.18 1327.6 1355.31 1326.24 1354.67 1324.57C1354.05 1322.87 1353.75 1320.8 1353.75 1318.35C1353.75 1316.14 1354.05 1314.2 1354.67 1312.54C1355.28 1310.84 1356.11 1309.43 1357.16 1308.3C1358.25 1307.15 1359.51 1306.28 1360.94 1305.7C1362.4 1305.13 1363.98 1304.84 1365.68 1304.84C1367.35 1304.84 1368.79 1305.16 1370.02 1305.81C1371.24 1306.45 1372.24 1307.34 1373.03 1308.46C1373.84 1309.55 1374.44 1310.84 1374.81 1312.33C1375.22 1313.8 1375.42 1315.34 1375.42 1316.97L1374.66 1319.22H1358.18C1358.18 1320.27 1358.32 1321.33 1358.59 1322.38C1358.86 1323.43 1359.32 1324.39 1359.97 1325.24C1360.65 1326.09 1361.52 1326.78 1362.57 1327.33C1363.66 1327.84 1365 1328.09 1366.6 1328.09C1367.62 1328.09 1368.55 1328.04 1369.4 1327.94C1370.25 1327.8 1370.99 1327.67 1371.6 1327.53C1372.24 1327.36 1372.84 1327.17 1373.38 1326.97L1374.15 1330.39ZM1371.19 1315.95C1371.19 1315.72 1371.14 1315.19 1371.04 1314.37C1370.93 1313.56 1370.7 1312.71 1370.32 1311.82C1369.95 1310.94 1369.37 1310.16 1368.59 1309.48C1367.81 1308.76 1366.77 1308.41 1365.48 1308.41C1364.05 1308.41 1362.88 1308.71 1361.96 1309.32C1361.04 1309.9 1360.31 1310.6 1359.77 1311.42C1359.22 1312.23 1358.85 1313.06 1358.64 1313.91C1358.44 1314.76 1358.34 1315.44 1358.34 1315.95H1371.19ZM1395.54 1318.3C1395.54 1321.6 1396.27 1324.06 1397.73 1325.7C1399.22 1327.29 1401.23 1328.09 1403.75 1328.09C1406.23 1328.09 1408.17 1327.29 1409.56 1325.7C1410.95 1324.1 1411.65 1321.7 1411.65 1318.5C1411.65 1315.1 1410.9 1312.57 1409.41 1310.91C1407.95 1309.24 1405.94 1308.41 1403.39 1308.41C1400.84 1308.41 1398.88 1309.24 1397.52 1310.91C1396.2 1312.54 1395.54 1315 1395.54 1318.3ZM1391.2 1318.25C1391.2 1315.67 1391.61 1313.52 1392.42 1311.82C1393.24 1310.09 1394.28 1308.71 1395.54 1307.69C1396.79 1306.64 1398.14 1305.91 1399.56 1305.5C1401.03 1305.06 1402.4 1304.84 1403.7 1304.84C1404.92 1304.84 1406.25 1305.04 1407.67 1305.45C1409.14 1305.82 1410.48 1306.52 1411.7 1307.54C1412.93 1308.53 1413.95 1309.87 1414.76 1311.57C1415.58 1313.23 1415.99 1315.36 1415.99 1317.94C1415.99 1320.63 1415.56 1322.86 1414.71 1324.62C1413.9 1326.39 1412.86 1327.8 1411.6 1328.86C1410.34 1329.88 1408.98 1330.59 1407.52 1331C1406.06 1331.44 1404.7 1331.66 1403.44 1331.66C1402.15 1331.66 1400.79 1331.46 1399.36 1331.05C1397.93 1330.64 1396.61 1329.95 1395.38 1328.96C1394.19 1327.94 1393.19 1326.56 1392.37 1324.83C1391.59 1323.09 1391.2 1320.9 1391.2 1318.25ZM1437.26 1328.19H1437.16C1436.86 1328.43 1436.41 1328.76 1435.84 1329.16C1435.26 1329.54 1434.6 1329.91 1433.85 1330.29C1433.1 1330.66 1432.27 1330.98 1431.35 1331.26C1430.46 1331.53 1429.56 1331.66 1428.65 1331.66C1427.39 1331.66 1426.32 1331.49 1425.43 1331.15C1424.55 1330.85 1423.83 1330.32 1423.29 1329.57C1422.75 1328.82 1422.36 1327.84 1422.12 1326.61C1421.88 1325.39 1421.76 1323.86 1421.76 1322.02V1305.35H1425.84V1321.41C1425.84 1322.43 1425.86 1323.35 1425.89 1324.17C1425.93 1324.98 1426.04 1325.68 1426.25 1326.26C1426.45 1326.83 1426.78 1327.29 1427.22 1327.63C1427.69 1327.94 1428.36 1328.09 1429.21 1328.09C1430.09 1328.09 1431.01 1327.91 1431.96 1327.53C1432.91 1327.16 1433.78 1326.73 1434.56 1326.26C1435.48 1325.71 1436.38 1325.1 1437.26 1324.42V1305.35H1441.34V1327.68C1441.38 1328.91 1441.46 1330.01 1441.6 1331L1437.57 1331.41L1437.26 1328.19ZM1454.73 1297.7V1305.35H1462.12V1308.66H1454.73V1322.28C1454.73 1323.4 1454.74 1324.34 1454.78 1325.08C1454.84 1325.83 1454.96 1326.43 1455.13 1326.87C1455.3 1327.31 1455.54 1327.63 1455.85 1327.84C1456.15 1328.01 1456.54 1328.09 1457.02 1328.09C1458.31 1328.06 1459.81 1327.58 1461.51 1326.66L1462.73 1329.78C1461.61 1330.52 1460.56 1331.02 1459.57 1331.26C1458.62 1331.53 1457.67 1331.66 1456.71 1331.66C1454.47 1331.66 1452.89 1331.03 1451.97 1329.78C1451.09 1328.48 1450.65 1326.36 1450.65 1323.4V1308.66H1445.95V1305.35H1450.65V1298.21L1454.73 1297.7ZM1283.31 1394.45C1283.31 1395.71 1283.17 1396.93 1282.9 1398.12C1282.63 1399.31 1282.1 1400.36 1281.32 1401.28C1280.57 1402.23 1279.5 1402.98 1278.1 1403.53C1276.74 1404.1 1274.94 1404.39 1272.7 1404.39C1271.27 1404.36 1270.03 1404.27 1268.97 1404.14C1267.92 1404 1266.92 1403.8 1265.97 1403.53C1265.01 1403.29 1264.15 1403 1263.36 1402.66L1264.44 1399.09C1265.76 1399.67 1267.1 1400.11 1268.46 1400.42C1269.86 1400.72 1271.1 1400.87 1272.19 1400.87C1273.38 1400.87 1274.41 1400.76 1275.3 1400.52C1276.18 1400.28 1276.91 1399.87 1277.49 1399.29C1278.1 1398.75 1278.55 1398.02 1278.82 1397.1C1279.12 1396.18 1279.28 1395.04 1279.28 1393.68V1389.96C1278.56 1390.44 1277.81 1390.88 1277.03 1391.29C1276.28 1391.66 1275.47 1391.98 1274.58 1392.26C1273.73 1392.53 1272.9 1392.66 1272.09 1392.66C1268.92 1392.66 1266.42 1391.56 1264.59 1389.35C1262.75 1387.1 1261.83 1383.77 1261.83 1379.35C1261.83 1376.8 1262.23 1374.68 1263.01 1372.98C1263.82 1371.24 1264.84 1369.85 1266.07 1368.79C1267.29 1367.74 1268.63 1366.99 1270.1 1366.55C1271.56 1366.07 1272.95 1365.84 1274.28 1365.84C1276.01 1365.84 1277.59 1365.99 1279.02 1366.3C1280.48 1366.57 1281.91 1366.79 1283.31 1366.96V1394.45ZM1272.54 1389.09C1273.29 1389.09 1274.06 1388.96 1274.84 1388.68C1275.62 1388.41 1276.37 1388.09 1277.08 1387.72C1277.83 1387.34 1278.56 1386.9 1279.28 1386.39V1370.12C1278.87 1370.02 1278.39 1369.9 1277.85 1369.76C1277.37 1369.7 1276.83 1369.63 1276.22 1369.56C1275.6 1369.46 1274.96 1369.41 1274.28 1369.41C1272.85 1369.41 1271.63 1369.66 1270.61 1370.17C1269.59 1370.68 1268.74 1371.38 1268.06 1372.26C1267.41 1373.15 1266.93 1374.18 1266.63 1375.37C1266.32 1376.56 1266.17 1377.82 1266.17 1379.15C1266.17 1380.34 1266.29 1381.53 1266.53 1382.72C1266.8 1383.91 1267.21 1384.98 1267.75 1385.93C1268.29 1386.88 1268.96 1387.65 1269.74 1388.23C1270.52 1388.8 1271.46 1389.09 1272.54 1389.09ZM1293.56 1379.3C1293.56 1382.6 1294.29 1385.06 1295.75 1386.7C1297.25 1388.29 1299.26 1389.09 1301.77 1389.09C1304.25 1389.09 1306.19 1388.29 1307.59 1386.7C1308.98 1385.1 1309.68 1382.7 1309.68 1379.5C1309.68 1376.1 1308.93 1373.57 1307.43 1371.91C1305.97 1370.24 1303.96 1369.41 1301.41 1369.41C1298.86 1369.41 1296.91 1370.24 1295.55 1371.91C1294.22 1373.54 1293.56 1376 1293.56 1379.3ZM1289.23 1379.25C1289.23 1376.67 1289.63 1374.52 1290.45 1372.82C1291.27 1371.09 1292.3 1369.71 1293.56 1368.69C1294.82 1367.64 1296.16 1366.91 1297.59 1366.5C1299.05 1366.06 1300.43 1365.84 1301.72 1365.84C1302.94 1365.84 1304.27 1366.04 1305.7 1366.45C1307.16 1366.82 1308.5 1367.52 1309.73 1368.54C1310.95 1369.53 1311.97 1370.87 1312.79 1372.57C1313.6 1374.23 1314.01 1376.36 1314.01 1378.94C1314.01 1381.63 1313.59 1383.86 1312.74 1385.62C1311.92 1387.39 1310.88 1388.8 1309.63 1389.86C1308.37 1390.88 1307.01 1391.59 1305.55 1392C1304.08 1392.44 1302.72 1392.66 1301.47 1392.66C1300.17 1392.66 1298.81 1392.46 1297.39 1392.05C1295.96 1391.64 1294.63 1390.95 1293.41 1389.96C1292.22 1388.94 1291.21 1387.56 1290.4 1385.83C1289.62 1384.09 1289.23 1381.9 1289.23 1379.25ZM1322.85 1379.3C1322.85 1382.6 1323.58 1385.06 1325.04 1386.7C1326.53 1388.29 1328.54 1389.09 1331.06 1389.09C1333.54 1389.09 1335.48 1388.29 1336.87 1386.7C1338.26 1385.1 1338.96 1382.7 1338.96 1379.5C1338.96 1376.1 1338.21 1373.57 1336.72 1371.91C1335.26 1370.24 1333.25 1369.41 1330.7 1369.41C1328.15 1369.41 1326.19 1370.24 1324.83 1371.91C1323.51 1373.54 1322.85 1376 1322.85 1379.3ZM1318.51 1379.25C1318.51 1376.67 1318.92 1374.52 1319.73 1372.82C1320.55 1371.09 1321.59 1369.71 1322.85 1368.69C1324.1 1367.64 1325.45 1366.91 1326.87 1366.5C1328.34 1366.06 1329.71 1365.84 1331.01 1365.84C1332.23 1365.84 1333.56 1366.04 1334.98 1366.45C1336.45 1366.82 1337.79 1367.52 1339.01 1368.54C1340.24 1369.53 1341.26 1370.87 1342.07 1372.57C1342.89 1374.23 1343.3 1376.36 1343.3 1378.94C1343.3 1381.63 1342.87 1383.86 1342.02 1385.62C1341.21 1387.39 1340.17 1388.8 1338.91 1389.86C1337.65 1390.88 1336.29 1391.59 1334.83 1392C1333.37 1392.44 1332.01 1392.66 1330.75 1392.66C1329.46 1392.66 1328.1 1392.46 1326.67 1392.05C1325.24 1391.64 1323.92 1390.95 1322.69 1389.96C1321.5 1388.94 1320.5 1387.56 1319.68 1385.83C1318.9 1384.09 1318.51 1381.9 1318.51 1379.25ZM1365.24 1370.17C1364.01 1369.83 1363.06 1369.63 1362.38 1369.56C1361.7 1369.46 1361 1369.41 1360.29 1369.41C1358.86 1369.41 1357.64 1369.66 1356.62 1370.17C1355.6 1370.68 1354.75 1371.4 1354.07 1372.31C1353.42 1373.2 1352.95 1374.23 1352.64 1375.42C1352.33 1376.58 1352.18 1377.82 1352.18 1379.15C1352.18 1380.34 1352.3 1381.53 1352.54 1382.72C1352.81 1383.91 1353.22 1384.98 1353.76 1385.93C1354.31 1386.88 1354.97 1387.65 1355.75 1388.23C1356.53 1388.8 1357.47 1389.09 1358.56 1389.09C1359.3 1389.09 1360.07 1388.96 1360.85 1388.68C1361.67 1388.41 1362.42 1388.11 1363.1 1387.77C1363.78 1387.39 1364.49 1386.93 1365.24 1386.39V1370.17ZM1365.29 1389.96C1364.51 1390.5 1363.74 1390.96 1362.99 1391.34C1362.28 1391.68 1361.48 1391.98 1360.6 1392.26C1359.75 1392.53 1358.91 1392.66 1358.1 1392.66C1354.9 1392.66 1352.39 1391.54 1350.55 1389.3C1348.75 1387.02 1347.85 1383.7 1347.85 1379.35C1347.85 1376.77 1348.25 1374.61 1349.07 1372.87C1349.92 1371.14 1350.97 1369.76 1352.23 1368.74C1353.49 1367.69 1354.83 1366.94 1356.26 1366.5C1357.72 1366.06 1359.07 1365.84 1360.29 1365.84C1360.9 1365.84 1361.55 1365.89 1362.23 1365.99C1362.91 1366.06 1363.91 1366.26 1365.24 1366.6V1353.8L1369.32 1353.34V1387.36C1369.32 1387.83 1369.32 1388.34 1369.32 1388.89C1369.35 1389.4 1369.39 1389.91 1369.42 1390.42C1369.49 1390.93 1369.56 1391.46 1369.62 1392L1365.7 1392.41L1365.29 1389.96ZM1388.37 1353.8L1392.45 1353.34V1392H1388.37V1353.8ZM1415.13 1389.19H1415.02C1414.72 1389.43 1414.28 1389.76 1413.7 1390.16C1413.12 1390.54 1412.46 1390.91 1411.71 1391.29C1410.96 1391.66 1410.13 1391.98 1409.21 1392.26C1408.33 1392.53 1407.43 1392.66 1406.51 1392.66C1405.25 1392.66 1404.18 1392.49 1403.29 1392.15C1402.41 1391.85 1401.7 1391.32 1401.15 1390.57C1400.61 1389.82 1400.22 1388.84 1399.98 1387.61C1399.74 1386.39 1399.62 1384.86 1399.62 1383.02V1366.35H1403.7V1382.41C1403.7 1383.43 1403.72 1384.35 1403.75 1385.17C1403.79 1385.98 1403.91 1386.68 1404.11 1387.26C1404.31 1387.83 1404.64 1388.29 1405.08 1388.63C1405.56 1388.94 1406.22 1389.09 1407.07 1389.09C1407.95 1389.09 1408.87 1388.91 1409.82 1388.53C1410.77 1388.16 1411.64 1387.73 1412.42 1387.26C1413.34 1386.71 1414.24 1386.1 1415.13 1385.42V1366.35H1419.21V1388.68C1419.24 1389.91 1419.33 1391.01 1419.46 1392L1415.43 1392.41L1415.13 1389.19ZM1442.53 1370.07C1441.95 1369.93 1441.16 1369.8 1440.14 1369.66C1439.12 1369.49 1438.08 1369.41 1437.02 1369.41C1435.49 1369.41 1434.24 1369.71 1433.25 1370.32C1432.3 1370.94 1431.55 1371.74 1431.01 1372.72C1430.46 1373.67 1430.09 1374.74 1429.88 1375.93C1429.68 1377.09 1429.58 1378.23 1429.58 1379.35C1429.58 1381.09 1429.8 1382.58 1430.24 1383.84C1430.68 1385.06 1431.26 1386.07 1431.98 1386.85C1432.72 1387.63 1433.57 1388.21 1434.53 1388.58C1435.48 1388.92 1436.48 1389.09 1437.53 1389.09C1438.25 1389.09 1438.93 1389.06 1439.57 1388.99C1440.25 1388.89 1440.87 1388.79 1441.41 1388.68C1441.99 1388.55 1442.53 1388.4 1443.04 1388.23L1443.86 1391.64C1443.14 1391.85 1442.48 1392.02 1441.87 1392.15C1441.26 1392.29 1440.53 1392.41 1439.68 1392.51C1438.86 1392.61 1437.98 1392.66 1437.02 1392.66C1435.15 1392.66 1433.49 1392.43 1432.03 1391.95C1430.56 1391.47 1429.32 1390.71 1428.3 1389.65C1427.32 1388.6 1426.55 1387.22 1426.01 1385.52C1425.5 1383.82 1425.24 1381.75 1425.24 1379.3C1425.24 1376.92 1425.57 1374.88 1426.21 1373.18C1426.89 1371.45 1427.78 1370.05 1428.86 1369C1429.95 1367.91 1431.19 1367.11 1432.59 1366.6C1434.02 1366.09 1435.49 1365.84 1437.02 1365.84C1437.84 1365.84 1438.62 1365.89 1439.37 1365.99C1440.15 1366.06 1440.83 1366.14 1441.41 1366.25C1442.09 1366.38 1442.74 1366.52 1443.35 1366.65L1442.53 1370.07ZM1448.88 1353.8L1452.96 1353.34V1376.34L1464.34 1366.35H1469.95L1458.83 1376.09L1470.35 1392H1465.2L1455.82 1378.69L1452.96 1381.19V1392H1448.88V1353.8ZM1486.14 1354.87L1491.34 1354.31L1490.47 1382.72H1487.16L1486.14 1354.87ZM1485.68 1388.99C1485.68 1388.17 1485.97 1387.48 1486.55 1386.9C1487.12 1386.29 1487.84 1385.98 1488.69 1385.98C1489.57 1385.98 1490.32 1386.29 1490.93 1386.9C1491.54 1387.48 1491.85 1388.17 1491.85 1388.99C1491.85 1389.84 1491.54 1390.55 1490.93 1391.13C1490.32 1391.71 1489.57 1392 1488.69 1392C1487.84 1392 1487.12 1391.71 1486.55 1391.13C1485.97 1390.55 1485.68 1389.84 1485.68 1388.99Z" fill="black"/>
<path d="M1436.65 2119.26C1436.65 2119.26 1437.7 2160.18 1440.69 2207.54C1442.11 2230.06 1436 2263.47 1436.78 2282.01C1439.75 2352.35 1441.74 2399.91 1443.72 2414.78L1626.69 2416.76L1629.33 2319L1628.01 2339.47L1653.77 2413.78L1842.03 2408.83C1842.03 2408.83 1836.08 2354.33 1832.12 2325.6C1832.27 2320.8 1838.31 2316.11 1838.07 2311.73C1836.93 2291.4 1829.15 2286.96 1825.18 2265.16C1824.4 2260.85 1827.35 2252.53 1827.17 2248.32C1825.2 2203.44 1822.97 2175.34 1819.52 2171.9C1811.68 2164.05 1813.64 2099.31 1813.64 2099.31L1436.65 2119.26Z" fill="#B9AE96"/>
<g style="mix-blend-mode:multiply" opacity="0.21">
<path d="M1665.24 2331.73C1661.03 2333.68 1656.21 2336.82 1656.54 2341.45C1656.83 2345.42 1660.8 2347.93 1664.25 2349.93C1671.47 2354.11 1725.01 2396.39 1724.84 2412.07C1724.81 2411.82 1709.44 2412.32 1709.42 2412.34C1691.92 2399.26 1666.14 2363.33 1658.21 2358.52C1654.92 2356.52 1650.69 2354.9 1647.35 2356.82C1642.37 2359.68 1643.81 2367.2 1646.25 2372.4C1651.16 2382.83 1657.5 2392.59 1665.02 2401.32C1668.59 2405.46 1672.44 2409.32 1673.56 2413.26C1673.69 2413.19 1654.94 2413.94 1654.66 2413.77C1649.13 2397.54 1644.35 2382.95 1638.83 2366.72C1636.07 2358.61 1633.3 2350.5 1630.54 2342.39C1629.28 2338.7 1628.08 2335.68 1628.19 2331.81C1628.31 2327.47 1627.99 2323.06 1627.9 2318.71C1627.88 2317.79 1627.86 2316.84 1628.22 2315.98C1628.87 2314.42 1630.57 2313.6 1632.14 2312.97C1644.16 2308.14 1657.59 2308.62 1670.25 2305.98C1685.59 2302.78 1701.22 2300.97 1716.88 2300.57C1725.43 2300.35 1771.8 2298.7 1772.16 2308.69C1736.12 2317.83 1700.04 2315.65 1665.24 2331.73Z" fill="#B9AE96"/>
</g>
<g style="mix-blend-mode:multiply" opacity="0.21">
<path d="M1481.49 2314.84C1487.67 2341.86 1496.74 2368.97 1514.27 2390.44C1520.7 2398.3 1528.51 2405.97 1530.84 2415.69C1530.69 2415.69 1443.94 2414.57 1443.78 2414.85C1443.31 2409.94 1440.72 2374.73 1440.27 2361.03C1439.19 2320.19 1433.19 2279.69 1439.94 2236.97C1442.9 2209.31 1438.28 2175.95 1434.8 2148.24C1465.71 2158.2 1470.54 2184.16 1470.3 2211.42C1469.99 2246.17 1473.74 2280.96 1481.49 2314.84Z" fill="#B9AE96"/>
</g>
<path d="M1813.27 2301.87C1821.31 2305.5 1829.35 2309.12 1837.39 2312.74C1840.86 2304.11 1835.62 2293.89 1827.79 2288.85C1819.96 2283.82 1810.27 2282.81 1800.97 2282.44C1768.91 2281.14 1736.64 2283.03 1705.17 2289.41C1697.42 2290.98 1665.23 2299.65 1644.74 2308.43C1638.58 2311.07 1628.67 2313.71 1628.67 2313.93C1628.45 2314.15 1626.91 2327.36 1630.86 2331.87C1632.24 2333.53 1634.13 2334.68 1636 2335.76C1644.09 2340.46 1652.49 2344.63 1660.58 2349.35C1690.74 2366.91 1708.41 2381.57 1725.29 2412.12" stroke="#9A967E" stroke-width="2" stroke-miterlimit="10"/>
<path d="M1627.74 2337.22C1637.52 2363.03 1643.99 2388.31 1653.77 2414.11" stroke="#9A967E" stroke-width="2" stroke-miterlimit="10"/>
<path d="M1439.63 2199.91C1455.61 2204.33 1470.5 2207.8 1487.03 2206.42C1507.21 2204.73 1525.57 2194.52 1542.99 2184.19" stroke="#9A967E" stroke-width="2" stroke-miterlimit="10"/>
<path d="M1825.17 2262.23C1807.69 2257.54 1788.79 2258.24 1771.7 2264.23" stroke="#9A967E" stroke-width="2" stroke-miterlimit="10"/>
<path d="M1627.49 2337.43C1639.68 2364.11 1655.18 2389.28 1673.54 2412.18" stroke="#9A967E" stroke-width="2" stroke-miterlimit="10"/>
<path d="M1622.37 2315.8C1673.98 2301.54 1728.58 2298.18 1781.55 2306.03" stroke="#9A967E" stroke-width="2" stroke-miterlimit="10"/>
<path d="M1626.69 2415.44L1628.25 2314.01C1628.25 2314.01 1642.87 2309.84 1644.21 2308.78C1672.25 2286.55 1666.31 2237.72 1669.07 2206C1669.7 2198.77 1670.21 2190.98 1666.44 2184.79C1659.39 2185.39 1634.6 2183.47 1629.69 2188.14C1624.29 2193.28 1626.24 2219.12 1625.61 2226.78C1623.41 2253.76 1621.41 2280.75 1620.08 2307.78C1625.37 2307.97 1630.69 2306.01 1634.6 2302.44" stroke="#9A967E" stroke-width="2" stroke-miterlimit="10"/>
<g style="mix-blend-mode:multiply" opacity="0.21">
<path d="M1436.36 2119.5C1436.36 2119.5 1440.31 2200.82 1440.37 2200.9C1512.87 2250.89 1772.86 2254.66 1822.48 2182.55C1822.56 2179.69 1820.81 2172.69 1818.37 2170.52C1813.19 2159.94 1812.69 2099.36 1812.69 2099.36L1436.36 2119.5Z" fill="#B9AE96"/>
</g>
<path d="M1540.94 1632.24C1541.13 1630.29 1541.23 1628.31 1541.2 1626.25C1541.05 1617.97 1538.17 1609.81 1533.44 1602.91C1524.9 1589.36 1509.99 1580.17 1492.77 1579.69C1492.25 1579.68 1491.73 1579.69 1491.21 1579.69C1489.09 1579.51 1487.07 1579.53 1485.23 1579.82C1461.23 1583.67 1447.28 1586.51 1426.69 1619.14C1418.45 1633.31 1405.37 1680.04 1397.78 1717.77C1390.19 1755.5 1389.13 1793.42 1355.28 1834.34C1321.44 1875.27 1327.08 1983.91 1327.39 1990.57C1329.02 2025.94 1357.31 2062.18 1380.73 2048.32C1411.33 2030.2 1430.37 2008.36 1443.47 1977.5C1459 1934.93 1464.81 1907.89 1478.4 1868.25C1485.35 1843.74 1492.19 1820.69 1500.45 1793.73C1513.69 1749.54 1521.69 1727.63 1530.94 1692.69C1534.62 1678.81 1540.49 1640 1540.94 1632.24Z" fill="#493628"/>
<path d="M1521.13 1729.23C1512.48 1720.55 1481.79 1704.74 1479.22 1689.12C1481.43 1702.54 1476.36 1765.93 1474.43 1781.73C1465.34 1841.88 1446.65 1885.02 1432.39 1906.44C1409.1 1949.28 1376.13 1972.28 1349.78 2006.94C1344.82 2013.45 1340.13 2020.59 1339.02 2028.7C1348.48 2045.51 1367.01 2057.29 1380.9 2048.28C1408.06 2032.99 1434.32 2003.57 1443.62 1977.28C1452.53 1951.28 1462.3 1921.17 1477.77 1868.47C1490.4 1823.76 1507.66 1770.44 1521.13 1729.23Z" fill="#493628"/>
<path d="M1367.22 1776.4C1386.36 1779.25 1401.04 1787.13 1400.02 1794.01C1398.99 1800.88 1382.65 1804.15 1363.51 1801.3C1344.38 1798.45 1329.7 1790.56 1330.72 1783.69C1331.74 1776.82 1348.09 1773.55 1367.22 1776.4Z" fill="#493628"/>
<path d="M1324.91 1925.27L1344.3 1738.73C1344.3 1738.73 1314.93 1684.49 1313.59 1682.71C1312.26 1680.92 1297.04 1663.21 1297.04 1663.21L1294.09 1632.45C1294.09 1632.45 1283.85 1615.08 1283.09 1612.65C1282.34 1610.21 1270.47 1541.59 1270.47 1541.59C1270.47 1541.59 1279.11 1536.81 1285.82 1539.5C1292.15 1542.03 1297.65 1570.39 1297.65 1570.39L1307.58 1574.78L1309.52 1542.92C1309.52 1542.92 1308.72 1539.67 1312.43 1539.56C1317.4 1539.43 1325.64 1543.47 1325.67 1555.22C1325.68 1559.73 1325.25 1568.13 1325.14 1575.25C1324.92 1588.72 1324.91 1600.83 1326.01 1602.01L1337.33 1620.14C1337.33 1620.14 1344.78 1609.62 1346.8 1627.24C1346.86 1628.48 1352.63 1633.83 1352.63 1633.83C1353.14 1630.11 1353.93 1627.11 1352.23 1621.17C1352.23 1621.17 1349.94 1613.25 1347.71 1606.57C1345.48 1599.89 1343.66 1578.34 1350.79 1573C1351.77 1572.26 1357.37 1568.85 1364.13 1579.37C1369.89 1588.33 1370.82 1599.41 1371.52 1606.48C1371.54 1617.93 1367.26 1629.92 1374.79 1643.11C1379.22 1650.84 1396.06 1663.88 1399.24 1671.13C1402.43 1678.37 1405.84 1689.63 1402.64 1709.91C1402.95 1709.89 1397.57 1724.42 1397.61 1736.17C1397.62 1740.03 1395.13 1774.45 1397.63 1805.23C1395.57 1810.6 1400.39 1870.09 1416.71 1937.32C1415.91 1970.33 1409.13 2012.27 1378.65 2023.23C1319.88 2013.27 1324.91 1925.27 1324.91 1925.27Z" fill="#D69280"/>
<path d="M1345.7 1739.98L1314.26 1683.49L1297.04 1663.21C1297.04 1663.21 1292.9 1630.55 1292.13 1608.23C1293.81 1586.69 1292.97 1571.48 1293.77 1571.02C1297.71 1568.76 1308.89 1572.24 1309.75 1580.44C1310 1582.78 1311.5 1599.78 1311.78 1609.4C1313.77 1622.9 1314.27 1639.37 1314.27 1639.37L1320.24 1646.46M1296.79 1569.82C1296.79 1569.82 1295.33 1565.71 1294.22 1560.68C1292.84 1554.41 1291.52 1546.63 1288.47 1542.65C1285.14 1538.3 1277.65 1537.07 1271.11 1541.97L1283.55 1613.45L1293.64 1631.65M1311.3 1608.19L1328.39 1633.63M1381.81 1696.84C1388.06 1703.61 1396.8 1710.73 1398.01 1721.08C1398.86 1728.34 1395.98 1738.74 1390.62 1743.99M1337.33 1620.14L1325.32 1600.81C1325.41 1601.1 1324.86 1589.94 1325.05 1577.32C1325.16 1569.55 1326.21 1560.07 1325.91 1555.82C1325.43 1549.05 1323.56 1538.53 1310.81 1540.17C1309.59 1540.39 1309.34 1543.35 1309.16 1551.19C1309.07 1555.04 1308.43 1558.61 1308.25 1562.37C1307.92 1569.13 1307.57 1574.58 1307.57 1574.58M1337.33 1620.14L1316.56 1650.78L1313.6 1682.7M1337.33 1620.14C1337.33 1620.14 1341.76 1614.32 1344.01 1617.91C1346.5 1621.9 1348.35 1625.51 1344.97 1635.18C1343.42 1639.61 1333.78 1656.42 1333.78 1656.42L1337.46 1685.5L1340.48 1695.23M1368.73 1654.48L1346.85 1628.27" stroke="#BD5F66" stroke-width="1.87" stroke-linecap="round" stroke-linejoin="round"/>
<path d="M1332.48 1781.9C1332.01 1782.34 1331.39 1782.95 1330.81 1787.45C1330.56 1790.31 1331.24 1812.57 1327.99 1814.07C1321.76 1816.95 1316.02 1821.12 1315.26 1830.99C1311.16 1889.19 1298.54 1974.16 1336.07 2027.97C1365.25 2069.83 1387.23 2049.49 1406.49 2023.72C1435.12 1985.4 1428.06 1945.24 1418.21 1903.54C1415.27 1891.13 1414.85 1840.07 1412.38 1831.03C1409.91 1822 1401.79 1820.54 1401.79 1820.54C1400.41 1813.67 1399.81 1800.59 1399 1794.24C1396.43 1795.59 1366.62 1802.77 1337.99 1787.22C1336.05 1786.37 1331.36 1783.56 1332.48 1781.9Z" fill="#493628"/>
<path d="M1332.48 1781.9C1332.01 1782.34 1331.39 1782.95 1330.81 1787.45C1330.56 1790.31 1331.24 1812.57 1327.99 1814.07C1321.76 1816.95 1316.02 1821.12 1315.26 1830.99C1311.16 1889.19 1298.54 1974.16 1336.07 2027.97C1365.25 2069.83 1387.23 2049.49 1406.49 2023.72C1435.12 1985.4 1428.06 1945.24 1418.21 1903.54C1415.27 1891.13 1414.85 1840.07 1412.38 1831.03C1409.91 1822 1401.79 1820.54 1401.79 1820.54C1400.41 1813.67 1399.81 1800.59 1399 1794.24C1396.43 1795.59 1366.62 1802.77 1337.99 1787.22C1336.05 1786.37 1331.36 1783.56 1332.48 1781.9Z" stroke="#493628" stroke-width="2" stroke-linejoin="bevel"/>
<path d="M1887.5 2045.12C1876.37 2046.68 1851.22 2041.47 1845.06 2024.34C1840.29 2010.07 1842.94 1985.59 1841.85 1970.62C1839.21 1934.42 1837.14 1898.04 1835.06 1861.73C1835.06 1861.73 1816.06 1751.52 1797.91 1686.02C1776.89 1610.13 1884.43 1582.32 1910.39 1682.11C1915.36 1701.21 1917.54 1721.31 1921.17 1740.69C1923.24 1751.77 1924.45 1763.36 1926.65 1774.25C1929.04 1786.06 1934.75 1797.62 1937.81 1809.42C1949.26 1853.49 1952.81 1899.96 1945.08 1944.99C1939.44 1977.81 1937.58 2036.08 1887.5 2045.12Z" fill="#493628"/>
<path d="M1866.89 1814.26C1867.11 1852.51 1876.73 1892.93 1890.92 1928.36C1901.05 1953.62 1914.27 1977.53 1928.26 2000.89C1933.39 2003.56 1927.91 2042.4 1881.23 2045.18C1859.22 2040.48 1836.01 2046.71 1841.48 1971.89C1839.25 1945.9 1838.44 1911.39 1835.33 1861.91C1830.11 1828.72 1820.63 1791.16 1819.54 1772.61C1820.88 1755.74 1866.56 1732.15 1867.12 1714.95C1867.02 1718.08 1866.75 1789.93 1866.89 1814.26Z" fill="#493628"/>
<path d="M2020.68 1887C2020.99 1888.44 2021.05 1889.74 2020.67 1890.74C2020.33 1891.63 2019.6 1892.34 2018.83 1892.92C2015.69 1895.32 2011.52 1896.26 2007.57 1895.82C2003.83 1895.41 2000.19 1893.86 1997.36 1891.45C1994.67 1889.17 1991.56 1887.46 1988.86 1885.13C1978.59 1876.3 1971.83 1863.06 1972.83 1849.67C1973 1847.39 1973.56 1843.36 1976.06 1842.32C1977.96 1841.53 1982.02 1842.55 1983.82 1843.18C1992.82 1846.37 1999.66 1853.26 2005.44 1860.46C2009.36 1865.35 2013.22 1870.35 2016 1875.97C2017.17 1878.32 2019.85 1883.14 2020.68 1887Z" fill="#493628"/>
<path d="M2027.93 1750.24L2063.22 1709.75C2063.22 1709.75 2067.79 1703.93 2069.35 1678.71C2070.2 1665.1 2070.98 1648.5 2073.22 1645.31C2078.28 1638.11 2082.16 1636.87 2086.07 1637.17C2089.4 1637.43 2088.13 1648.78 2088.13 1648.78C2088.13 1648.78 2090.28 1639.29 2096.95 1634.54C2103.63 1629.78 2111.73 1631.43 2111.73 1631.43L2109.4 1644.89C2109.4 1644.89 2113.23 1642.01 2120.52 1642.45L2119.97 1670.62L2119.64 1680.54C2119.64 1680.54 2127.56 1674.61 2127.27 1678.3C2127.43 1679.6 2127.71 1709.21 2127.71 1709.21C2127.71 1709.21 2128.72 1739.38 2129.21 1738.01C2129.7 1736.63 2112.54 1769 2112.54 1769C2112.54 1769 2085.35 1802.92 2061.47 1828.85C2055.64 1835.19 2047.8 1836.69 2042.94 1847.23C2041.11 1851.22 2035.8 1857.44 2028.88 1866.26C2007.36 1900.91 2002.21 1915.39 1983.32 1946.28C1976.6 1957.27 1964.86 1979.5 1947.39 1995.87C1915.74 2025.54 1876.76 2054.32 1857.66 2018.68C1853.78 2007.75 1851.97 1992.29 1856.7 1974.73C1863 1951.31 1880.92 1924.17 1921.02 1899.06C1949.14 1873.76 1979.37 1845.5 1989.31 1832.19C1995.18 1824.33 1996.1 1819.3 1995.55 1814.75C1994.67 1807.49 1988.96 1798.42 1990.64 1785.04C1991.47 1778.43 1994.78 1764.78 1999.27 1758.31C2003.76 1751.84 2008.03 1738.15 2006.31 1723.87C2008.22 1712.44 2014.42 1703.79 2019.26 1689.37C2023.75 1682.9 2032.48 1689.75 2032.91 1704.19C2033.34 1718.63 2029.58 1725.67 2027.53 1730.53C2025.48 1735.39 2025.67 1747.88 2027.93 1750.24Z" fill="#D69280"/>
<path d="M2008.36 1824.27C2018.85 1832.56 2033.1 1835.88 2046.18 1833.1M2073.57 1711.79C2073.57 1711.79 2105.02 1717.66 2106.78 1761.36M2023.97 1766.53C2023.97 1766.53 2033.3 1800.09 2028.99 1808.08M2108.88 1724.21L2112.5 1714.12M2126.49 1677.3C2126.49 1677.3 2118.37 1679.16 2115.43 1683.9C2115.43 1683.9 2111.47 1687.45 2112.03 1695.73C2112.59 1704.01 2112.92 1728.56 2112.92 1728.56L2103.65 1746.36M2095.46 1714.86L2102.42 1692.5L2105.17 1668.02C2105.17 1668.02 2104.19 1656.28 2104.91 1651.36C2106.57 1643.26 2118.85 1643.09 2118.85 1643.09L2119.99 1667.1L2119.64 1680.54M2111.73 1631.43C2111.73 1631.43 2099.55 1628.73 2093.56 1637.36C2091.97 1639.65 2088.94 1648.9 2088.28 1659.08C2087.36 1673.24 2085.4 1689.73 2085.4 1689.73L2079.97 1706.63M2017.67 1761.58L2064.44 1708.94C2064.44 1708.94 2068.89 1693.07 2069.08 1685.55C2069.47 1670.57 2071 1645.64 2077.27 1640.65C2082.48 1636.5 2086.07 1637.17 2086.07 1637.17" stroke="#BD5F66" stroke-width="1.98" stroke-linecap="round" stroke-linejoin="round"/>
<path d="M1846.1 1981.24C1843.12 1999.14 1842.48 2017.32 1850.43 2034.37C1859.39 2053.59 1882.62 2046.63 1898.66 2041.46C1919.3 2034.82 1939.33 2011.07 1953.85 1995.62C1973.45 1974.75 1979.97 1954.34 1989.09 1947.25C1998.22 1940.16 2014.5 1926.22 2007.91 1911.15C2006.43 1905.62 2016.1 1898.19 2019.24 1891.16C2006.59 1892.91 1976.73 1874.8 1975.2 1844.13C1970.32 1847.83 1964.23 1859.87 1961.81 1858.17C1957.7 1855.28 1949.88 1862.84 1947.16 1864.49C1934.61 1872.09 1921.53 1885.36 1910.35 1894.66C1903.55 1900.31 1891.85 1909.36 1884.28 1914C1867.94 1924 1853.44 1946.03 1849.36 1964.75C1848.17 1970.2 1847.02 1975.71 1846.1 1981.24Z" fill="#493628"/>
<path d="M1846.1 1981.24C1843.12 1999.14 1842.48 2017.32 1850.43 2034.37C1859.39 2053.59 1882.62 2046.63 1898.66 2041.46C1919.3 2034.82 1939.33 2011.07 1953.85 1995.62C1973.45 1974.75 1979.97 1954.34 1989.09 1947.25C1998.22 1940.16 2014.5 1926.22 2007.91 1911.15C2006.43 1905.62 2016.1 1898.19 2019.24 1891.16C2006.59 1892.91 1976.73 1874.8 1975.2 1844.13C1970.32 1847.83 1964.23 1859.87 1961.81 1858.17C1957.7 1855.28 1949.88 1862.84 1947.16 1864.49C1934.61 1872.09 1921.53 1885.36 1910.35 1894.66C1903.55 1900.31 1891.85 1909.36 1884.28 1914C1867.94 1924 1853.44 1946.03 1849.36 1964.75C1848.17 1970.2 1847.02 1975.71 1846.1 1981.24Z" stroke="#493628" stroke-width="2" stroke-linejoin="bevel"/>
<path d="M1632.44 1473.86L1621.68 1555.69L1620.05 1564.34C1620.05 1564.34 1589.15 1576.23 1589.5 1589.32C1589.86 1602.41 1615.98 1669.27 1691.01 1664.15C1766.05 1659.04 1788.77 1596.3 1761.83 1578.69C1760.33 1576.18 1747.24 1572.27 1747.24 1572.27L1754.47 1543.52C1754.47 1543.52 1793.39 1460.18 1718.71 1444.28C1651.47 1429.96 1635.5 1453.95 1632.44 1473.86Z" fill="#D69280"/>
<path d="M1634.43 1467.57C1631.92 1476.44 1631.61 1486.66 1631.47 1497.92C1631.27 1514.83 1641.55 1530.08 1651.59 1542.84C1665.67 1560.73 1671.78 1578.84 1704.74 1581.11C1718.9 1582.09 1725.81 1576.43 1737.83 1565.21C1764.7 1540.15 1768.29 1504.52 1758.71 1470.79C1753.7 1453.12 1735.99 1443.72 1719.3 1437.85C1699.31 1430.83 1676.6 1432.4 1657.42 1441.41C1643.92 1447.76 1637.51 1456.65 1634.43 1467.57Z" fill="#C58075"/>
<path d="M1821.48 2136.59L1827.37 2174.52C1827.37 2174.52 1812.98 2203.29 1732.55 2205.25C1652.12 2207.21 1602.25 2207.69 1588.38 2204.72C1579.07 2201.62 1690.7 2194.79 1821.48 2136.59Z" fill="#493628"/>
<path d="M1588.38 2202.97L1591.16 2203.35L1594.41 2202.93L1597.68 2203.84L1600.9 2202.76L1604.21 2203.98L1607.4 2202.48L1610.73 2203.95L1613.88 2202.11L1617.27 2203.97L1620.36 2201.65L1623.83 2204.09L1626.84 2201.1L1630.41 2204.22L1633.3 2200.46L1637.01 2204.44L1639.76 2199.74L1643.66 2204.75L1646.21 2198.93L1650.34 2205.07L1652.64 2198.04L1657.04 2205.3L1659.06 2197.05L1663.76 2205.39L1665.47 2195.98L1670.49 2205.35L1671.86 2194.81L1677.23 2205.16L1678.23 2193.54L1683.99 2204.85L1684.58 2192.17L1690.79 2204.48L1690.91 2190.69L1697.63 2204.13L1697.21 2189.11L1704.56 2203.83L1703.48 2187.42L1711.54 2203.51L1709.72 2185.6L1718.73 2203.54C1717.93 2196.9 1716.99 2190.27 1715.92 2183.67L1725.92 2203.25C1724.71 2195.76 1723.58 2189.04 1722.08 2181.6L1733.36 2203.54C1731.7 2195.31 1729.6 2187.76 1727.74 2179.58L1739.38 2202.32L1733.86 2177.37L1746.48 2202.78L1739.98 2175.16L1752.87 2201.54L1746.1 2172.95L1759.27 2200.58L1752.22 2170.75L1766.41 2200.57L1758.34 2168.55L1773.03 2199.66L1764.46 2166.34L1779.59 2198.49L1770.58 2164.12L1786.07 2196.99L1776.69 2161.88L1792.48 2195.1L1782.79 2159.62L1798.87 2192.84L1788.87 2157.31L1805.29 2190.25L1794.92 2154.93C1800.42 2165.74 1806.03 2176.49 1811.76 2187.17L1800.93 2152.45C1806.45 2162.65 1812.14 2172.77 1818.08 2182.74C1814.5 2171.7 1810.8 2160.7 1806.87 2149.78C1812.34 2158.91 1818.06 2167.89 1824.19 2176.6C1820.6 2166.57 1816.82 2156.62 1812.66 2146.82C1816.42 2152.1 1820.33 2158.33 1825.95 2161.86C1824.34 2158.2 1822.73 2154.54 1821.12 2150.88C1820.05 2148.44 1818.8 2145.94 1818.15 2143.34C1819.63 2144.25 1820.84 2143.98 1821.97 2142.77C1821.94 2141.69 1822.26 2139.88 1823.02 2139.04" stroke="#BDB29A" stroke-miterlimit="10"/>
<path d="M1621.49 1560.15C1608.41 1569.09 1618.11 1612.46 1672.39 1620.64C1731.24 1627.18 1749.55 1603.63 1744.97 1586.63L1747.26 1577.48L1766.62 1578.03C1766.62 1578.03 1790.75 1676.87 1670.43 1670.34C1557.56 1664.2 1585.76 1568.31 1615.6 1560.49C1617.57 1559.98 1619.55 1559.84 1621.49 1560.15Z" fill="white"/>
<path d="M1826.05 2136.33C1830.08 2127.59 1822.21 2120.57 1824.64 2110.47C1827.4 2099.02 1833.12 2091.1 1832.72 2078.38C1832.32 2065.97 1829 2053.86 1825.95 2041.82C1821.43 2023.93 1814.89 2001.8 1818.02 1983.19C1820.49 1968.49 1826.06 1954.16 1828.64 1939.04C1834.91 1902.23 1839.83 1865.18 1843.4 1828.01C1846.07 1800.09 1853.63 1763.34 1858.76 1738.34C1863.99 1712.84 1867.7 1623.25 1854.18 1617.37C1825.36 1604.81 1750.04 1568.59 1750.04 1568.59C1750.04 1568.59 1749.28 1570.67 1749.28 1570.83C1752.15 1574.94 1759.91 1584.24 1761.32 1595.79C1763.5 1613.66 1742.14 1648.54 1688.52 1647.23C1644.04 1646.14 1610.92 1615.41 1608.3 1590.56C1604.38 1557.86 1622.69 1552.63 1622.69 1552.63C1622.69 1552.63 1505.64 1576.17 1487.33 1579.44C1422.69 1591.94 1430.19 1676.94 1476.73 1686.47C1474.84 1744.41 1475.97 1816 1470.32 1866.84C1466.4 1902.15 1456.36 1920.26 1453.32 1946.95C1448.68 1987.66 1444.82 2001.22 1422.26 2064C1414.24 2086.31 1412.12 2098.3 1412.12 2113.05C1412.12 2137.9 1442.84 2166.98 1442.86 2167C1470.27 2193.56 1526.59 2199.95 1561.67 2203.13C1643.21 2210.52 1733.51 2184.08 1807.19 2150.86C1812.93 2148.26 1818.79 2145.47 1823.02 2140.79C1824.42 2139.25 1825.39 2137.77 1826.05 2136.33Z" fill="#493628"/>
<path d="M1480.28 1879.66C1478.51 1921.2 1470.18 1954.17 1467.15 1995.61C1464.71 2028.79 1471.62 2069.43 1440.49 2091.96C1435.42 2095.63 1429.57 2098.39 1425.45 2103.1C1419.82 2109.54 1418.3 2118.78 1419.47 2127.26C1420.6 2135.42 1424.36 2142.67 1426.75 2150.37C1414.91 2132.53 1412.18 2121.4 1411.18 2108.18C1413.56 2088.37 1417.88 2083.12 1421.97 2063.4C1438.43 2024.75 1449.97 1982.86 1453.22 1947.28C1458.37 1918.25 1467.15 1897.24 1469.38 1867.95C1479.12 1823.33 1470.95 1701.12 1479.02 1681.15C1487.3 1729.54 1485.04 1776.92 1484.84 1827.47C1485.53 1845.67 1480.45 1875.85 1480.28 1879.66Z" fill="#493628"/>
<path d="M1610.59 1559.82C1610.59 1559.82 1596.97 1571.16 1596.53 1595.13C1596.05 1621.42 1613.42 1657.37 1672.82 1665.54C1774.29 1673.5 1783.12 1601.89 1759.03 1577.48C1755.11 1573.12 1752.66 1570.94 1749.61 1569.74C1749.17 1571.16 1747.21 1577.42 1747.21 1577.42C1747.21 1577.42 1761.65 1591.1 1755.76 1609.85C1749.22 1632.08 1721.99 1647.41 1675 1642.22C1629.66 1637.2 1611.35 1603.63 1613.32 1584.02C1613.97 1564.62 1621.49 1560.04 1621.49 1560.04L1623.02 1552.3C1623.02 1552.3 1617.02 1553.61 1610.59 1559.82Z" fill="#493628"/>
<path d="M1610.59 1559.82C1610.59 1559.82 1596.97 1571.16 1596.53 1595.13C1596.05 1621.42 1613.42 1657.37 1672.82 1665.54C1774.29 1673.5 1783.12 1601.89 1759.03 1577.48C1755.11 1573.12 1752.66 1570.94 1749.61 1569.74C1749.17 1571.16 1747.21 1577.42 1747.21 1577.42C1747.21 1577.42 1761.65 1591.1 1755.76 1609.85C1749.22 1632.08 1721.99 1647.41 1675 1642.22C1629.66 1637.2 1611.35 1603.63 1613.32 1584.02C1613.97 1564.62 1621.49 1560.04 1621.49 1560.04L1623.02 1552.3C1623.02 1552.3 1617.02 1553.61 1610.59 1559.82Z" stroke="#BDB29A" stroke-width="2" stroke-miterlimit="10"/>
<path d="M1622.29 1554.52C1621.89 1554.9 1621.48 1555.27 1621.06 1555.62C1620.32 1556.24 1619 1556.84 1618.17 1556.04C1617.54 1555.44 1618.06 1554.74 1618.76 1554.57C1619.23 1554.46 1620.52 1554.3 1620.9 1554.73C1621.24 1555.13 1619.95 1556.72 1619.74 1556.98C1619.35 1557.45 1618.97 1557.92 1618.58 1558.4C1618.21 1558.86 1617.84 1559.34 1617.52 1559.84C1616.83 1560.91 1617.05 1562.33 1618.09 1563.08C1618.68 1563.5 1619.66 1563.67 1620.03 1562.87C1620.35 1562.15 1620 1561.21 1619.41 1560.74C1618.44 1559.98 1617.12 1560.54 1616.35 1561.31C1615.92 1561.75 1615.53 1562.22 1615.19 1562.73C1614.85 1563.23 1614.46 1563.7 1614.04 1564.13C1613.03 1565.16 1611.39 1565.17 1610.22 1564.41C1609.53 1563.96 1608.71 1562.91 1609.48 1562.15C1610.18 1561.45 1611.43 1561.71 1612.15 1562.22C1613.27 1563.01 1613.6 1564.52 1613.02 1565.73C1612.75 1566.28 1612.47 1566.82 1612.19 1567.36C1611.92 1567.89 1611.64 1568.43 1611.45 1569C1610.91 1570.57 1612.42 1572 1613.69 1572.61C1614.26 1572.88 1616.05 1573.53 1616.3 1572.49C1616.53 1571.51 1615.23 1570.51 1614.51 1570.12C1613.24 1569.44 1611.51 1569.43 1610.56 1570.65C1610.18 1571.14 1609.87 1571.66 1609.63 1572.24C1609.41 1572.79 1609.08 1573.33 1608.71 1573.8C1607.64 1575.19 1605.38 1574.98 1603.94 1574.41C1603.18 1574.11 1601.3 1573.07 1602.02 1571.98C1602.71 1570.95 1604.56 1571.42 1605.46 1571.82C1606.84 1572.45 1608.38 1573.9 1608.02 1575.57C1607.89 1576.17 1607.73 1576.76 1607.57 1577.35C1607.42 1577.93 1607.27 1578.52 1607.23 1579.12C1607.08 1581.02 1609.75 1582.09 1611.2 1582.45C1611.72 1582.57 1614.44 1583.16 1614.46 1582.06C1614.48 1580.94 1612.26 1580.17 1611.47 1579.93C1609.97 1579.47 1607.6 1579.3 1606.69 1580.91C1606.38 1581.46 1606.17 1582.03 1606.07 1582.64C1605.97 1583.24 1605.74 1583.83 1605.45 1584.36C1604.51 1586.09 1601.63 1586.14 1599.97 1585.89C1599.15 1585.77 1596.38 1585.15 1596.87 1583.77C1597.34 1582.43 1599.88 1582.73 1600.89 1582.94C1602.47 1583.27 1605.08 1584.31 1605.17 1586.24C1605.2 1586.86 1605.19 1587.47 1605.18 1588.08C1605.17 1588.68 1605.17 1589.3 1605.28 1589.89C1605.68 1591.92 1609.19 1592.2 1610.76 1592.21C1611.74 1592.22 1612.78 1592.16 1613.71 1591.84C1613.98 1591.75 1614.55 1591.54 1614.48 1591.15C1614.26 1590.03 1611.27 1589.84 1610.47 1589.78C1608.8 1589.67 1605.82 1589.81 1605.17 1591.76C1604.96 1592.36 1604.88 1592.95 1604.93 1593.58C1604.98 1594.19 1604.88 1594.82 1604.69 1595.4C1604.06 1597.41 1600.79 1598.09 1599.02 1598.26C1598.18 1598.33 1594.83 1598.49 1594.95 1596.94C1595.06 1595.41 1598.12 1595.16 1599.17 1595.13C1600.86 1595.07 1604.23 1595.3 1604.88 1597.29C1605.07 1597.88 1605.2 1598.48 1605.35 1599.08C1605.49 1599.66 1605.64 1600.27 1605.91 1600.8C1606.87 1602.75 1610.76 1602.02 1612.34 1601.66C1613.4 1601.41 1614.5 1601.09 1615.45 1600.54C1615.69 1600.4 1616.32 1600.05 1616.16 1599.67C1616.02 1599.32 1615.39 1599.26 1615.08 1599.22C1613.91 1599.07 1612.69 1599.18 1611.54 1599.37C1609.82 1599.67 1606.48 1600.47 1606.22 1602.65C1606.15 1603.28 1606.19 1603.88 1606.39 1604.48C1606.59 1605.06 1606.62 1605.71 1606.56 1606.31C1606.32 1608.51 1603 1609.92 1601.24 1610.5C1600.44 1610.77 1596.91 1611.81 1596.63 1610.26C1596.35 1608.72 1599.65 1607.71 1600.64 1607.44C1602.31 1606.99 1606.01 1606.26 1607.17 1608.12C1607.49 1608.64 1607.76 1609.19 1608.04 1609.74C1608.31 1610.28 1608.6 1610.84 1608.98 1611.3C1610.39 1613.02 1614.26 1611.36 1615.76 1610.66C1616.83 1610.17 1617.93 1609.58 1618.81 1608.78C1619.02 1608.59 1619.55 1608.12 1619.34 1607.78C1619.12 1607.43 1618.4 1607.54 1618.07 1607.58C1616.85 1607.7 1615.65 1608.09 1614.52 1608.55C1612.86 1609.22 1609.51 1610.78 1609.67 1613.04C1609.72 1613.67 1609.88 1614.25 1610.21 1614.81C1610.51 1615.33 1610.67 1615.97 1610.71 1616.57C1610.89 1618.82 1607.72 1620.88 1606.08 1621.8C1605.03 1622.38 1603.84 1622.93 1602.62 1623.02C1602.2 1623.05 1601.54 1623.04 1601.34 1622.57C1601.15 1622.11 1601.53 1621.58 1601.8 1621.24C1602.6 1620.26 1603.77 1619.54 1604.89 1618.98C1606.46 1618.19 1610.12 1616.59 1611.66 1618.22C1612.09 1618.67 1612.46 1619.16 1612.83 1619.65C1613.2 1620.13 1613.58 1620.62 1614.04 1621.01C1615.82 1622.5 1619.31 1620.03 1620.72 1619.07C1621.71 1618.39 1622.8 1617.66 1623.54 1616.71C1623.73 1616.47 1624.18 1615.9 1623.91 1615.59C1623.63 1615.27 1622.92 1615.49 1622.59 1615.59C1621.38 1615.93 1620.23 1616.55 1619.18 1617.22C1617.55 1618.24 1614.59 1620.32 1615.02 1622.61C1615.11 1623.07 1615.2 1623.45 1615.52 1623.81C1615.86 1624.2 1616.06 1624.82 1616.17 1625.31C1616.69 1627.55 1613.8 1630.13 1612.31 1631.31C1611.34 1632.07 1610.23 1632.82 1609.02 1633.11C1608.6 1633.21 1607.92 1633.31 1607.65 1632.87C1607.39 1632.44 1607.68 1631.85 1607.9 1631.47C1608.56 1630.34 1609.62 1629.44 1610.67 1628.69C1612.12 1627.65 1615.56 1625.42 1617.37 1626.8C1617.87 1627.17 1618.31 1627.6 1618.76 1628.02C1619.2 1628.44 1619.66 1628.86 1620.18 1629.17C1620.81 1629.53 1621.65 1629.31 1622.28 1629.08C1623.92 1628.48 1625.37 1627.31 1626.61 1626.1C1627.5 1625.23 1628.38 1624.27 1628.99 1623.18C1629.12 1622.93 1629.51 1622.28 1629.2 1622.02C1628.87 1621.75 1628.19 1622.12 1627.89 1622.27C1626.74 1622.83 1625.69 1623.64 1624.74 1624.49C1623.36 1625.72 1620.52 1628.43 1621.41 1630.58C1621.66 1631.17 1622.01 1631.67 1622.5 1632.08C1622.96 1632.48 1623.32 1633.04 1623.55 1633.59C1624.45 1635.73 1621.99 1638.83 1620.71 1640.27C1619.88 1641.21 1618.9 1642.16 1617.74 1642.68C1617.35 1642.86 1616.7 1643.09 1616.35 1642.71C1616.01 1642.33 1616.21 1641.68 1616.36 1641.27C1616.83 1640.03 1617.73 1638.93 1618.65 1637.99C1619.89 1636.71 1622.94 1633.81 1624.99 1634.84C1625.55 1635.12 1626.06 1635.46 1626.58 1635.8C1627.08 1636.13 1627.61 1636.47 1628.18 1636.67C1628.87 1636.92 1629.66 1636.55 1630.25 1636.21C1631.78 1635.31 1633.03 1633.89 1634.07 1632.47C1634.81 1631.45 1635.53 1630.33 1635.95 1629.14C1636.05 1628.86 1636.33 1628.14 1635.97 1627.93C1635.59 1627.72 1634.98 1628.21 1634.71 1628.41C1633.65 1629.17 1632.74 1630.17 1631.93 1631.19C1630.77 1632.66 1628.39 1635.86 1629.63 1637.86C1629.98 1638.4 1630.4 1638.83 1630.95 1639.16C1631.47 1639.47 1631.92 1639.97 1632.24 1640.48C1633.47 1642.47 1631.49 1645.97 1630.45 1647.61C1629.77 1648.68 1628.95 1649.79 1627.89 1650.51C1627.54 1650.75 1626.92 1651.11 1626.51 1650.79C1626.12 1650.48 1626.23 1649.79 1626.31 1649.37C1626.59 1648.05 1627.31 1646.81 1628.07 1645.71C1629.09 1644.23 1631.65 1640.79 1633.86 1641.48C1634.45 1641.66 1635.02 1641.92 1635.58 1642.17C1636.13 1642.41 1636.71 1642.67 1637.31 1642.78C1638.03 1642.92 1638.76 1642.42 1639.29 1641.99C1640.68 1640.85 1641.71 1639.25 1642.53 1637.67C1643.12 1636.53 1643.68 1635.3 1643.91 1634.04C1643.97 1633.74 1644.13 1632.98 1643.73 1632.82C1643.33 1632.66 1642.79 1633.25 1642.54 1633.49C1641.6 1634.42 1640.85 1635.56 1640.21 1636.71C1639.28 1638.35 1637.39 1641.93 1638.92 1643.73C1639.34 1644.22 1639.82 1644.58 1640.42 1644.82C1640.98 1645.05 1641.49 1645.48 1641.88 1645.95C1643.39 1647.75 1641.89 1651.53 1641.09 1653.3C1640.56 1654.47 1639.9 1655.69 1638.95 1656.58C1638.64 1656.86 1638.08 1657.33 1637.64 1657.07C1637.18 1656.8 1637.22 1656.05 1637.26 1655.61C1637.38 1654.28 1637.9 1652.97 1638.48 1651.79C1639.28 1650.17 1641.33 1646.33 1643.63 1646.7C1644.24 1646.8 1644.84 1646.97 1645.43 1647.14C1646.01 1647.31 1646.62 1647.48 1647.22 1647.51C1647.96 1647.55 1648.62 1646.95 1649.09 1646.46C1650.33 1645.14 1651.15 1643.4 1651.76 1641.72C1652.19 1640.5 1652.58 1639.21 1652.65 1637.91C1652.66 1637.6 1652.72 1636.82 1652.3 1636.72C1651.87 1636.61 1651.41 1637.25 1651.19 1637.53C1650.38 1638.58 1649.78 1639.82 1649.29 1641.05C1648.59 1642.81 1647.19 1646.64 1648.95 1648.24C1649.43 1648.67 1649.95 1648.97 1650.57 1649.13C1651.16 1649.29 1651.72 1649.65 1652.17 1650.06C1653.89 1651.67 1652.85 1655.62 1652.27 1657.48C1651.88 1658.71 1651.37 1660.01 1650.54 1661.01C1650.28 1661.33 1649.79 1661.87 1649.32 1661.67C1648.84 1661.46 1648.79 1660.7 1648.78 1660.27C1648.73 1658.93 1649.09 1657.57 1649.52 1656.32C1650.11 1654.61 1651.66 1650.51 1654 1650.59C1654.62 1650.62 1655.23 1650.71 1655.84 1650.81C1656.43 1650.91 1657.05 1651.01 1657.66 1650.97C1658.39 1650.92 1658.98 1650.25 1659.39 1649.7C1660.47 1648.25 1661.09 1646.43 1661.51 1644.69C1661.81 1643.43 1662.05 1642.09 1661.96 1640.8C1661.94 1640.48 1661.9 1639.7 1661.46 1639.64C1661.02 1639.58 1660.63 1640.27 1660.44 1640.57C1659.75 1641.71 1659.31 1643.02 1658.96 1644.3C1658.47 1646.13 1657.53 1650.11 1659.46 1651.49C1659.98 1651.87 1660.54 1652.11 1661.18 1652.2C1661.78 1652.29 1662.38 1652.59 1662.86 1652.95C1664.75 1654.36 1664.13 1658.39 1663.75 1660.3C1663.5 1661.56 1663.13 1662.9 1662.42 1664C1662.2 1664.33 1661.77 1664.93 1661.28 1664.79C1660.79 1664.64 1660.66 1663.89 1660.6 1663.46C1660.42 1662.14 1660.63 1660.75 1660.92 1659.45C1661.31 1657.7 1662.4 1653.44 1664.74 1653.28C1665.35 1653.23 1665.97 1653.27 1666.59 1653.3C1667.19 1653.34 1667.82 1653.37 1668.42 1653.27C1669.14 1653.15 1669.66 1652.42 1670.01 1651.84C1670.94 1650.29 1671.38 1648.42 1671.62 1646.65C1671.79 1645.38 1671.89 1644.02 1671.66 1642.75C1671.61 1642.43 1671.49 1641.66 1671.04 1641.64C1670.59 1641.62 1670.27 1642.34 1670.12 1642.66C1669.54 1643.86 1669.23 1645.21 1669.02 1646.51C1668.72 1648.39 1668.2 1652.43 1670.26 1653.6C1670.82 1653.92 1671.4 1654.11 1672.04 1654.14C1672.65 1654.17 1673.27 1654.4 1673.79 1654.71C1675.8 1655.92 1675.58 1659.98 1675.38 1661.9C1675.25 1663.18 1675.02 1664.54 1674.42 1665.69C1674.23 1666.05 1673.87 1666.68 1673.37 1666.59C1672.87 1666.49 1672.68 1665.76 1672.58 1665.35C1672.27 1664.05 1672.33 1662.66 1672.5 1661.35C1672.72 1659.57 1673.39 1655.25 1675.69 1654.86C1676.3 1654.76 1676.92 1654.73 1677.54 1654.71C1678.14 1654.69 1678.77 1654.66 1679.35 1654.51C1680.06 1654.32 1680.51 1653.56 1680.81 1652.95C1681.59 1651.34 1681.86 1649.46 1681.93 1647.69C1681.98 1646.41 1681.96 1645.06 1681.61 1643.82C1681.53 1643.51 1681.33 1642.77 1680.89 1642.78C1680.44 1642.8 1680.18 1643.54 1680.05 1643.87C1679.58 1645.11 1679.41 1646.47 1679.32 1647.78C1679.2 1649.66 1679.07 1653.7 1681.22 1654.67C1681.81 1654.94 1682.4 1655.07 1683.04 1655.04C1683.65 1655.01 1684.29 1655.19 1684.84 1655.45C1686.94 1656.46 1687.08 1660.47 1687.06 1662.39C1687.04 1663.66 1686.93 1665.02 1686.44 1666.2C1686.29 1666.57 1685.98 1667.23 1685.48 1667.18C1684.98 1667.14 1684.72 1666.44 1684.58 1666.04C1684.16 1664.79 1684.1 1663.41 1684.15 1662.11C1684.21 1660.32 1684.49 1656.01 1686.74 1655.43C1687.34 1655.27 1687.95 1655.2 1688.57 1655.12C1689.17 1655.05 1689.79 1654.97 1690.36 1654.76C1691.04 1654.52 1691.43 1653.74 1691.68 1653.11C1692.32 1651.46 1692.42 1649.59 1692.34 1647.85C1692.28 1646.59 1692.14 1645.27 1691.69 1644.08C1691.57 1643.77 1691.31 1643.07 1690.87 1643.12C1690.42 1643.17 1690.23 1643.91 1690.13 1644.25C1689.77 1645.5 1689.71 1646.86 1689.74 1648.15C1689.78 1650.03 1690.02 1654 1692.24 1654.76C1692.84 1654.97 1693.44 1655.05 1694.08 1654.97C1694.68 1654.89 1695.34 1655.01 1695.9 1655.22C1698.07 1656.02 1698.56 1659.92 1698.7 1661.82C1698.79 1663.06 1698.8 1664.4 1698.41 1665.6C1698.29 1665.98 1698.04 1666.65 1697.54 1666.65C1697.04 1666.65 1696.72 1665.99 1696.55 1665.61C1696.02 1664.43 1695.85 1663.08 1695.78 1661.8C1695.69 1660.03 1695.62 1655.79 1697.8 1655.03C1698.38 1654.83 1698.99 1654.7 1699.59 1654.57C1700.18 1654.45 1700.79 1654.32 1701.35 1654.07C1703.41 1653.15 1702.97 1648.85 1702.74 1647.15C1702.58 1645.93 1702.33 1644.65 1701.78 1643.53C1701.63 1643.23 1701.32 1642.57 1700.88 1642.66C1700.44 1642.74 1700.31 1643.48 1700.24 1643.82C1699.98 1645.07 1700.04 1646.4 1700.18 1647.66C1700.38 1649.51 1700.96 1653.36 1703.22 1653.91C1703.84 1654.06 1704.45 1654.08 1705.07 1653.95C1705.66 1653.82 1706.33 1653.88 1706.91 1654.03C1709.1 1654.61 1709.95 1658.35 1710.25 1660.2C1710.44 1661.4 1710.55 1662.71 1710.27 1663.91C1710.18 1664.3 1709.98 1664.97 1709.49 1665.02C1709 1665.06 1708.62 1664.46 1708.42 1664.09C1707.8 1663 1707.51 1661.69 1707.34 1660.45C1707.09 1658.71 1706.69 1654.6 1708.78 1653.68C1709.34 1653.43 1709.94 1653.25 1710.53 1653.07C1711.1 1652.9 1711.7 1652.72 1712.23 1652.43C1714.19 1651.36 1713.41 1647.24 1713.04 1645.59C1712.77 1644.42 1712.41 1643.19 1711.77 1642.16C1711.6 1641.88 1711.23 1641.27 1710.81 1641.39C1710.39 1641.51 1710.31 1642.23 1710.27 1642.58C1710.12 1643.81 1710.29 1645.1 1710.53 1646.31C1710.89 1648.11 1711.81 1651.78 1714.08 1652.1C1714.72 1652.19 1715.32 1652.15 1715.93 1651.96C1716.51 1651.78 1717.17 1651.77 1717.77 1651.87C1719.97 1652.21 1721.15 1655.71 1721.62 1657.5C1721.92 1658.65 1722.14 1659.91 1721.97 1661.1C1721.9 1661.5 1721.76 1662.15 1721.28 1662.25C1720.8 1662.34 1720.37 1661.8 1720.13 1661.46C1719.42 1660.47 1719.02 1659.23 1718.74 1658.04C1718.34 1656.34 1717.63 1652.43 1719.59 1651.34C1720.14 1651.05 1720.71 1650.81 1721.28 1650.58C1721.84 1650.35 1722.41 1650.12 1722.92 1649.78C1724.74 1648.56 1723.62 1644.67 1723.09 1643.1C1722.72 1641.99 1722.24 1640.85 1721.53 1639.92C1721.32 1639.66 1720.9 1639.12 1720.51 1639.27C1720.1 1639.42 1720.09 1640.12 1720.08 1640.47C1720.05 1641.67 1720.33 1642.9 1720.68 1644.04C1721.21 1645.77 1722.47 1649.2 1724.72 1649.27C1725.36 1649.28 1725.96 1649.18 1726.54 1648.93C1727.1 1648.69 1727.75 1648.61 1728.36 1648.63C1730.54 1648.72 1732.08 1651.91 1732.73 1653.61C1733.14 1654.68 1733.49 1655.88 1733.42 1657.03C1733.4 1657.44 1733.31 1658.08 1732.84 1658.23C1732.38 1658.38 1731.9 1657.93 1731.62 1657.62C1730.81 1656.74 1730.3 1655.59 1729.91 1654.48C1729.34 1652.85 1728.3 1649.18 1730.12 1647.92C1730.63 1647.57 1731.17 1647.28 1731.71 1646.98C1732.24 1646.69 1732.78 1646.4 1733.25 1646.01C1734.9 1644.62 1733.4 1641.04 1732.69 1639.57C1732.2 1638.56 1731.61 1637.52 1730.81 1636.72C1730.59 1636.49 1730.12 1636.03 1729.75 1636.22C1729.38 1636.41 1729.45 1637.08 1729.47 1637.41C1729.57 1638.57 1729.98 1639.72 1730.44 1640.77C1731.16 1642.4 1732.78 1645.51 1734.98 1645.28C1735.61 1645.21 1736.19 1645.03 1736.74 1644.71C1737.26 1644.4 1737.89 1644.23 1738.49 1644.17C1740.61 1643.93 1742.55 1646.7 1743.42 1648.27C1743.84 1649.03 1745.4 1652.05 1744.06 1652.71C1742.72 1653.36 1741.11 1650.37 1740.7 1649.56C1739.93 1648.03 1738.54 1644.68 1740.14 1643.22C1740.6 1642.8 1741.09 1642.44 1741.59 1642.07C1742.07 1641.71 1742.56 1641.33 1742.96 1640.88C1744.36 1639.3 1742.4 1636.15 1741.48 1634.84C1740.85 1633.96 1740.12 1633.08 1739.24 1632.44C1739 1632.27 1738.48 1631.89 1738.17 1632.12C1737.85 1632.36 1738.01 1632.99 1738.09 1633.29C1738.36 1634.37 1738.91 1635.4 1739.51 1636.34C1740.44 1637.8 1742.46 1640.49 1744.55 1639.88C1745.16 1639.7 1745.69 1639.43 1746.18 1639.01C1746.64 1638.62 1747.22 1638.34 1747.8 1638.15C1749.77 1637.5 1752.16 1639.65 1753.31 1640.98C1753.92 1641.68 1755.87 1644.19 1754.66 1645.12C1753.45 1646.06 1751.4 1643.61 1750.82 1642.85C1749.78 1641.5 1747.97 1638.6 1749.23 1636.89C1749.6 1636.4 1750.01 1635.94 1750.41 1635.47C1750.81 1635.02 1751.21 1634.55 1751.5 1634.02C1752.49 1632.19 1749.92 1629.75 1748.72 1628.75C1747.92 1628.09 1747.04 1627.45 1746.08 1627.05C1745.83 1626.95 1745.26 1626.7 1745.04 1626.97C1744.81 1627.25 1745.13 1627.79 1745.26 1628.04C1745.77 1628.98 1746.5 1629.81 1747.27 1630.55C1748.48 1631.73 1750.97 1633.78 1752.79 1632.67C1753.33 1632.33 1753.77 1631.92 1754.12 1631.4C1754.46 1630.89 1754.93 1630.45 1755.42 1630.1C1757.04 1628.91 1759.87 1629.98 1761.37 1630.86C1762.27 1631.37 1764.63 1633.07 1763.73 1634.4C1762.83 1635.72 1760.32 1634.2 1759.47 1633.59C1758.09 1632.59 1755.75 1630.41 1756.4 1628.45C1756.57 1627.95 1756.74 1627.44 1756.95 1626.94C1757.19 1626.39 1757.43 1625.82 1757.57 1625.24C1758.02 1623.27 1755.21 1621.56 1753.8 1620.88C1753.18 1620.58 1750.36 1619.26 1749.85 1620.34C1749.34 1621.45 1752.07 1622.92 1752.73 1623.26C1754.23 1624.03 1757.05 1625.09 1758.46 1623.59C1758.89 1623.13 1759.22 1622.62 1759.46 1622.04C1759.68 1621.47 1760.04 1620.95 1760.45 1620.5C1761.78 1619.05 1764.6 1619.68 1766.16 1620.3C1766.99 1620.64 1769.55 1621.87 1768.96 1623.17C1768.37 1624.47 1765.7 1623.42 1764.88 1623.04C1763.37 1622.35 1760.78 1620.72 1761.14 1618.73C1761.25 1618.13 1761.42 1617.53 1761.57 1616.94C1761.72 1616.36 1761.87 1615.76 1761.91 1615.16C1762.03 1613.19 1759.09 1612.12 1757.62 1611.76C1757.02 1611.61 1754.13 1610.92 1753.86 1611.95C1753.59 1613 1756.44 1613.92 1757.05 1614.11C1758.62 1614.61 1761.43 1615.11 1762.46 1613.38C1762.79 1612.84 1763 1612.27 1763.1 1611.65C1763.19 1611.05 1763.41 1610.45 1763.69 1609.92C1764.56 1608.24 1767.2 1607.99 1768.84 1608.18C1769.8 1608.29 1772.29 1608.85 1772.07 1610.28C1771.85 1611.72 1769.24 1611.46 1768.31 1611.28C1766.7 1610.97 1764.06 1609.98 1763.92 1608.03C1763.87 1607.41 1763.87 1606.8 1763.86 1606.19C1763.84 1605.59 1763.82 1604.97 1763.69 1604.39C1763.28 1602.54 1760.46 1602.34 1758.99 1602.44C1758.38 1602.48 1755.69 1602.71 1755.7 1603.71C1755.71 1604.72 1758.5 1604.78 1759.09 1604.79C1760.68 1604.81 1763.28 1604.43 1763.69 1602.52C1763.82 1601.91 1763.83 1601.3 1763.74 1600.68C1763.64 1600.09 1763.65 1599.46 1763.73 1598.86C1763.94 1597.1 1766 1595.99 1767.54 1595.66C1768.5 1595.45 1770.7 1595.31 1770.98 1596.65C1771.27 1598.02 1769.04 1598.61 1768.11 1598.74C1766.52 1598.95 1764.03 1598.71 1763.33 1596.99C1763.1 1596.43 1762.91 1595.84 1762.7 1595.27C1762.5 1594.7 1762.28 1594.13 1761.99 1593.61C1761.13 1592.1 1758.8 1592.46 1757.49 1593.01C1756.86 1593.27 1754.88 1594.21 1755.15 1595.18C1755.43 1596.16 1757.71 1595.5 1758.28 1595.31C1759.75 1594.83 1761.65 1593.64 1761.39 1591.84C1761.3 1591.22 1761.11 1590.64 1760.84 1590.09C1760.57 1589.55 1760.38 1588.96 1760.24 1588.37C1759.89 1586.84 1761.02 1585.31 1762.31 1584.61C1763.13 1584.16 1764.81 1583.69 1765.43 1584.71C1766.09 1585.77 1764.57 1586.86 1763.78 1587.23C1762.4 1587.87 1760.35 1588.06 1759.32 1586.7C1758.95 1586.22 1758.61 1585.71 1758.26 1585.21C1757.92 1584.72 1757.57 1584.22 1757.17 1583.78C1756.17 1582.68 1754.44 1582.96 1753.37 1583.77C1752.76 1584.22 1751.72 1585.35 1752.16 1586.2C1752.62 1587.1 1754.16 1586.34 1754.72 1585.97C1755.93 1585.16 1756.81 1583.65 1756.13 1582.22C1755.87 1581.66 1755.54 1581.14 1755.15 1580.67C1754.76 1580.2 1754.43 1579.69 1754.14 1579.16C1753.53 1578.07 1753.63 1576.57 1754.63 1575.74C1755.29 1575.18 1756.46 1574.9 1757.16 1575.55C1757.91 1576.25 1757.26 1577.33 1756.61 1577.83C1755.5 1578.7 1753.94 1578.7 1752.9 1577.73C1752.45 1577.31 1752.02 1576.87 1751.6 1576.44C1751.17 1576.02 1750.74 1575.6 1750.29 1575.21C1749.92 1574.9 1748.4 1573.88 1747.92 1574.42C1747.41 1574.98 1747.13 1576.31 1747.25 1577.03C1747.42 1577.99 1748.54 1577.58 1749.01 1577.12C1749.94 1576.2 1749.77 1574.78 1749 1573.84C1748.64 1573.38 1748.21 1572.98 1747.79 1572.58" stroke="#BDB29A" stroke-miterlimit="10"/>
<path d="M1605.17 1439.95C1607.6 1452.61 1614.3 1462.95 1622.57 1473.64C1623.49 1474.83 1626.08 1477.57 1628.06 1477.7C1629.53 1477.8 1630.58 1477.95 1631.74 1476.69C1631.78 1479.31 1630.34 1493.94 1630.52 1497.83C1630.84 1504.86 1631.07 1510.74 1635.29 1516.42C1645.1 1529.61 1654.75 1540.75 1667 1551.76C1670.16 1554.6 1672.12 1557.17 1677.32 1559.95C1685.44 1564.29 1701.71 1568.59 1710.95 1567.84C1718.06 1567.26 1725.3 1563.24 1731.5 1560.15C1738.92 1556.46 1745.56 1550.81 1752.08 1545.75C1761.19 1538.69 1769.82 1531.53 1774.17 1519.5C1776.57 1512.87 1778.69 1504.58 1780.41 1497.81C1780.2 1498.63 1782.36 1500.34 1784.21 1499.1C1786.99 1497.54 1787.69 1496.12 1789.51 1493.5C1793.6 1487.61 1796.7 1485.86 1800.63 1479.88C1805.55 1472.4 1813.51 1460.76 1807.76 1449.08C1799.49 1440.21 1791.52 1457.51 1789.89 1461.24C1807.57 1420.68 1822.06 1363.12 1785.64 1330.25C1766.25 1312.74 1725.56 1305.21 1699.41 1308.45C1670.97 1311.96 1648.48 1329.65 1636.09 1356.01C1633.53 1361.46 1631.86 1367.31 1630.78 1373.23C1628.12 1387.76 1629.35 1403.2 1632.03 1417.63C1630.82 1411.14 1624.49 1405.1 1617.55 1407.85C1612.18 1409.97 1609.15 1414.53 1607.07 1419.78C1604.59 1426.03 1603.89 1433.34 1605.17 1439.95Z" fill="#D69280"/>
<path d="M1706.99 1391.53C1707.84 1391.57 1708.75 1391.61 1709.48 1391.17C1710 1390.85 1710.36 1390.34 1710.7 1389.83C1712.69 1386.9 1714.51 1383.3 1716.51 1380.36C1711.52 1379.41 1706.55 1381.04 1701.56 1382C1693.21 1383.61 1684.8 1385.23 1676.86 1388.27C1668.79 1391.37 1666.54 1395.27 1660.28 1401.19C1676.37 1393.54 1689.17 1390.68 1706.99 1391.53Z" fill="#7B3D2D"/>
<path d="M1742.06 1400.64C1742.38 1397.3 1748.89 1394.62 1751.15 1394.62C1755.46 1394.63 1764.46 1398.99 1770.62 1402.08C1773.72 1403.63 1776.85 1405.21 1779.52 1407.41C1786.75 1413.36 1786.43 1419.09 1788.23 1428.54C1786.25 1418.13 1767.72 1409.77 1759.28 1406.74C1756.91 1405.89 1743.44 1404.14 1742.51 1402.53C1742.13 1401.87 1742 1401.24 1742.06 1400.64Z" fill="#7B3D2D"/>
<path d="M1720.39 1388.31C1720.42 1391.67 1720.46 1395.02 1720.49 1398.37" stroke="#3D2122" stroke-width="0.99" stroke-miterlimit="10"/>
<path d="M1689.95 1421.11C1689.09 1427.56 1685.76 1432.45 1682.5 1432.01C1679.25 1431.58 1677.3 1426 1678.16 1419.55C1679.01 1413.09 1682.35 1408.21 1685.61 1408.64C1688.86 1409.07 1690.81 1414.66 1689.95 1421.11Z" fill="#340C10"/>
<path d="M1674.64 1430.41C1679.01 1430.91 1685.59 1430.89 1687.77 1431.91" stroke="#3D2122" stroke-width="2" stroke-linecap="round" stroke-linejoin="round"/>
<path d="M1763.07 1435.65C1761.37 1441.65 1757.54 1445.81 1754.52 1444.95C1751.49 1444.1 1750.42 1438.54 1752.12 1432.55C1753.81 1426.55 1757.64 1422.39 1760.67 1423.24C1763.69 1424.1 1764.77 1429.65 1763.07 1435.65Z" fill="#340C10"/>
<path d="M1748.51 1443.64C1752.89 1444.14 1759.46 1444.12 1761.64 1445.14" stroke="#3D2122" stroke-width="2" stroke-linecap="round" stroke-linejoin="round"/>
<path d="M1738.42 1424.51C1732.2 1430.48 1728.9 1443 1730.79 1451.41C1732.41 1460.06 1738.21 1466.25 1731.6 1474.77C1731.21 1475.26 1730.42 1474.69 1730.81 1474.16C1733.88 1470.83 1733.92 1465.73 1732.1 1461.79C1731.22 1459.73 1730.1 1457.7 1729.19 1455.49C1725.98 1448.87 1726.69 1441.14 1728.42 1434.27C1729.71 1429.47 1731.51 1424.87 1734.93 1421.01C1737.31 1418.48 1740.97 1422.12 1738.42 1424.51ZM1697.41 1467.42C1697.41 1467.42 1701.06 1466.63 1704.88 1467.57C1709.34 1468.45 1708.71 1470.92 1708.71 1470.92C1708.71 1470.92 1707.79 1472.76 1703.61 1470.32C1702.3 1469.25 1700.82 1468.63 1697.41 1467.42ZM1728.65 1473.35C1726.05 1473.61 1720.43 1474.38 1719.76 1474.22C1719.09 1474.07 1719.19 1471.07 1723.17 1471.04C1725.58 1471.02 1731.26 1473.1 1728.65 1473.35Z" fill="#340C10"/>
<path d="M1712.49 1424.98C1712.49 1428.94 1711.5 1434.42 1710.39 1438.78" stroke="#3D2122" stroke-width="0.99" stroke-linecap="round" stroke-linejoin="round"/>
<path d="M1609.34 1429.41C1609.85 1423.43 1614.37 1409.06 1621.12 1419.15C1622.6 1421.36 1623.42 1423.93 1624.22 1426.46C1625.05 1429.07 1625.87 1431.67 1626.69 1434.27C1628.8 1440.94 1623.69 1441.1 1623.33 1447.02C1623.18 1449.44 1624.27 1451.94 1626.25 1453.33C1629.21 1455.41 1629.87 1460.14 1625.42 1461.2" stroke="#BD5F66" stroke-width="1.98" stroke-linecap="round" stroke-linejoin="round"/>
<path d="M1804.59 1462.84C1805.17 1461.38 1805.53 1457.57 1804.66 1456.02C1803.69 1454.28 1802.2 1454.3 1800.52 1455.08C1798.44 1456.04 1796.66 1458.13 1795.35 1459.95C1792.96 1463.27 1790.89 1466.82 1789.17 1470.53C1788.51 1471.98 1787.34 1473.8 1787.6 1475.44C1787.89 1477.32 1789.05 1478.34 1788.61 1480.48C1788.18 1482.56 1787.33 1483.73 1785.72 1485C1784.41 1486.04 1782.53 1487.03 1783.59 1488.96" stroke="#BD5F66" stroke-width="1.98" stroke-linecap="round" stroke-linejoin="round"/>
<g opacity="0.56">
<mask id="mask0_3_1183" style="mask-type:luminance" maskUnits="userSpaceOnUse" x="1740" y="1451" width="40" height="39">
<path d="M1779.06 1468.88C1780.09 1479.44 1772.37 1488.83 1761.81 1489.86C1751.25 1490.89 1741.86 1483.17 1740.83 1472.61C1739.8 1462.06 1747.52 1452.66 1758.07 1451.63C1768.63 1450.6 1778.03 1458.32 1779.06 1468.88Z" fill="url(#paint0_radial_3_1183)"/>
</mask>
<g mask="url(#mask0_3_1183)">
<path d="M1779.06 1468.88C1780.09 1479.44 1772.37 1488.83 1761.81 1489.86C1751.25 1490.89 1741.86 1483.17 1740.83 1472.61C1739.8 1462.06 1747.52 1452.66 1758.07 1451.63C1768.63 1450.6 1778.03 1458.32 1779.06 1468.88Z" fill="url(#paint1_radial_3_1183)" fill-opacity="0.56"/>
</g>
</g>
<g opacity="0.56">
<mask id="mask1_3_1183" style="mask-type:luminance" maskUnits="userSpaceOnUse" x="1648" y="1433" width="40" height="40">
<path d="M1687.88 1451.24C1688.94 1462.09 1681.01 1471.74 1670.17 1472.8C1659.32 1473.85 1649.67 1465.92 1648.62 1455.08C1647.56 1444.24 1655.49 1434.59 1666.33 1433.53C1677.17 1432.47 1686.82 1440.4 1687.88 1451.24Z" fill="url(#paint2_radial_3_1183)"/>
</mask>
<g mask="url(#mask1_3_1183)">
<path d="M1687.88 1451.24C1688.94 1462.09 1681.01 1471.74 1670.17 1472.8C1659.32 1473.85 1649.67 1465.92 1648.62 1455.08C1647.56 1444.24 1655.49 1434.59 1666.33 1433.53C1677.17 1432.47 1686.82 1440.4 1687.88 1451.24Z" fill="url(#paint3_radial_3_1183)" fill-opacity="0.56"/>
</g>
</g>
<path d="M1792.95 1455.21C1794.28 1453.1 1795.63 1450.89 1798.05 1448.91C1800.47 1446.78 1802.28 1445.78 1806.75 1448.02C1807.35 1444.04 1807.97 1443.54 1809 1439.71C1809.96 1436.17 1809.64 1432.39 1810.11 1428.71C1811.65 1416.46 1816.16 1404.88 1818.81 1392.87C1821.33 1381.44 1821.76 1370.98 1817.54 1359.83C1813.67 1349.57 1805.72 1340.86 1797.83 1333.43C1794.12 1329.93 1790.05 1326.62 1785.22 1324.99C1783.57 1324.43 1781.83 1324.08 1780.09 1324.16C1774.56 1324.41 1769.96 1329.18 1768.6 1334.54C1765.87 1345.34 1773.97 1351.69 1776.15 1361.19C1776.85 1364.26 1775.81 1367.42 1776.72 1370.46C1778.2 1375.46 1782.82 1378.57 1786.22 1382.19C1800.27 1397.15 1794.66 1424.76 1792.58 1443.27C1791.52 1452.63 1788.51 1460.55 1786.15 1469.98C1786.65 1469.99 1786.84 1469.84 1787.07 1469.4C1789.43 1464.9 1789.96 1459.94 1792.95 1455.21ZM1629.77 1433.45C1630.06 1434.15 1630.45 1434.91 1631.18 1435.09C1637.23 1436.58 1640.01 1408.78 1640.18 1405.12C1640.27 1403.19 1640.27 1401.22 1640.84 1399.37C1641.39 1397.56 1642.46 1395.95 1643.52 1394.38C1649.2 1385.91 1655.4 1377.79 1662.13 1370.13C1672.06 1358.82 1680.52 1348.01 1696.02 1344.53C1705.79 1342.33 1715.94 1342.7 1725.95 1343.09C1729.42 1343.22 1732.96 1343.36 1736.24 1344.51C1741.34 1346.3 1742.87 1351.37 1747.05 1353.56C1751.91 1356.1 1756.7 1353 1761.57 1353.78C1766.09 1354.52 1767.81 1356.75 1771.43 1359.82C1777.78 1365.2 1784.64 1370.62 1793.21 1366.36C1800.86 1362.56 1803.61 1355.07 1800.9 1347.56C1794.45 1329.7 1775.72 1317.24 1760.81 1307.04C1753.44 1302 1745.85 1296.86 1737.14 1294.89C1730.91 1293.49 1724.46 1293.8 1718.18 1294.68C1712.29 1295.5 1706.34 1296.07 1700.47 1297.1C1688.07 1299.27 1675.98 1303.46 1665.15 1309.93C1650.53 1318.67 1638.29 1331.68 1631.54 1347.32C1628.82 1353.62 1624.28 1358.43 1621.37 1364.67C1622.07 1365 1622.9 1365.06 1623.64 1364.83C1623.99 1365.53 1622.77 1368.2 1622.73 1369.06C1622.67 1370.76 1623.33 1373.29 1623.33 1375.25C1623.33 1380.32 1623.07 1385.38 1623.15 1390.44C1623.38 1404.95 1625.74 1419.44 1629.74 1433.37C1629.74 1433.4 1629.76 1433.43 1629.77 1433.45Z" fill="#7B3D2D"/>
<path d="M1713.07 1344.83C1704.5 1350.85 1694.97 1355.5 1684.94 1358.53C1703.18 1366.22 1723.27 1365.37 1741.7 1358.98C1736.73 1360.64 1731.82 1363.25 1726.76 1364.95C1740.19 1365.81 1754.01 1361.82 1765.38 1354.64C1761.57 1359.71 1756.75 1364.02 1751.29 1367.24C1757.52 1366.15 1763.51 1363.7 1768.71 1360.11C1765.68 1363.59 1762.05 1366.55 1758.03 1368.83C1767.26 1365.99 1775.86 1361.1 1783.02 1354.62C1779.81 1357.53 1779.15 1366.05 1780.39 1369.87C1781.26 1372.53 1782.92 1374.86 1784.62 1377.09C1787.93 1381.42 1791.49 1385.56 1795.28 1389.49C1795.91 1387.84 1796.79 1386.3 1797.89 1384.92C1798.84 1388.69 1799.8 1392.46 1800.76 1396.23C1801.08 1394.71 1801.41 1393.19 1801.73 1391.67C1801.9 1398.09 1804.82 1406.96 1810.36 1410.85C1813.6 1413.12 1817.66 1412.88 1821.25 1411.75C1823.21 1411.13 1825.1 1410.11 1826.43 1408.53C1824 1411.41 1819.13 1411.52 1818.11 1407.63C1816.89 1402.92 1818.51 1398.14 1820.34 1393.83C1824.85 1383.23 1828.43 1377.35 1826.44 1365.16C1822.25 1339.5 1801.61 1317 1785.97 1296.67C1778.66 1287.17 1767.69 1281.96 1756.17 1279.54C1743.53 1276.89 1729.32 1275.9 1716.49 1277.17C1710.52 1277.76 1704.83 1280.25 1698.83 1279.5C1700.16 1279.66 1702.67 1281.75 1702.83 1282.97C1695.79 1283.17 1686.49 1285.56 1676.89 1288.98C1667.23 1292.42 1659.1 1297.45 1651.02 1303.55C1643.05 1309.56 1636.34 1316.76 1626.09 1318.74C1627 1320.61 1629.69 1320.47 1631.68 1319.89C1634.33 1319.12 1636.89 1318.07 1639.31 1316.75C1630.67 1321.45 1624.67 1341.62 1612.35 1331.8C1614.2 1335.55 1614.77 1339.85 1617.21 1343.37C1619.28 1346.36 1622.6 1348.69 1626.23 1348.76C1622.16 1348.68 1620.03 1352.53 1614.72 1350.41C1616.59 1355.66 1620.79 1361.24 1626.19 1363.24C1628.66 1364.15 1631.34 1364.31 1633.97 1364.4C1665.83 1365.48 1692.47 1349.31 1721.47 1338.23C1718.8 1340.58 1715.99 1342.79 1713.07 1344.83Z" fill="#7B3D2D"/>
<path d="M1818.83 1410.68C1814.29 1402.46 1818.81 1393.55 1822.16 1385.88C1827.04 1374.21 1826.68 1360.47 1821.06 1349.13C1815.54 1337.5 1807.56 1327.29 1801.2 1316.08C1806.12 1323.14 1811.46 1329.87 1816.21 1337.09C1820.95 1344.33 1825.51 1352.07 1826.89 1360.77C1828.31 1369.43 1827.28 1378.53 1823.59 1386.49C1819.99 1394.11 1815.14 1402.21 1818.83 1410.68ZM1825.96 1408.96C1822.42 1411.99 1816.92 1410.67 1813.75 1407.66C1807.52 1401.05 1808.29 1390.39 1810.02 1382.13C1811.46 1375.71 1813.7 1369.65 1814.71 1363.21C1816.58 1348.24 1811.81 1332.85 1802.98 1320.67C1812.08 1330.89 1817.08 1344.78 1817.07 1358.5C1816.91 1366.77 1813.77 1374.67 1811.86 1382.56C1810.09 1390.28 1808.99 1400.5 1814.44 1406.97C1817.23 1410.02 1822.34 1411.52 1825.96 1408.96ZM1698.25 1278.68C1702.78 1280.17 1707.44 1278.91 1711.93 1277.92C1716.52 1276.92 1721.2 1276.53 1725.88 1276.27C1747.92 1275.51 1776.95 1279.28 1788.4 1300.8C1790.5 1305.02 1791.87 1309.62 1792.02 1314.3C1790.85 1305.02 1785.74 1296.61 1778.55 1291.02C1763.69 1279.85 1744 1277.86 1725.93 1277.82C1721.32 1277.94 1716.67 1278.12 1712.11 1278.88C1707.58 1279.57 1702.64 1280.6 1698.25 1278.68ZM1699.79 1279.48C1705.61 1281.45 1711.24 1280.79 1717.18 1280.3C1728.05 1279.78 1735.36 1289.9 1738.44 1299.13C1734.47 1292.7 1730.04 1285.67 1722.66 1283.09C1719.19 1281.73 1715.34 1282.31 1711.33 1282.34C1707.29 1282.37 1703.25 1281.4 1699.79 1279.48ZM1612.53 1331.17C1612.74 1334.03 1616.18 1334.37 1618.44 1334.04C1626.28 1332.66 1629.84 1324.94 1634.95 1319.53C1654.95 1297.47 1687.8 1280.87 1717.21 1293.19C1707.56 1290.1 1697.28 1289.36 1687.44 1291.16C1672.58 1293.8 1658.98 1301.18 1647.23 1310.48C1643.28 1313.58 1639.56 1316.97 1636.09 1320.59C1632.59 1324.12 1629.8 1328.51 1625.62 1331.66C1622.54 1333.91 1618.42 1335.45 1614.66 1334.1C1613.43 1333.67 1612.49 1332.49 1612.53 1331.17ZM1624.09 1316.51C1625.82 1324 1646.45 1305.95 1650.02 1303.93C1658.53 1297.84 1667.46 1292.11 1677.24 1288.02C1691.75 1281.75 1709.16 1280.44 1723.5 1287.86C1728.18 1290.32 1732.45 1293.56 1735.89 1297.51C1732.12 1293.87 1727.8 1290.86 1723.07 1288.74C1708.8 1282.21 1692.17 1283.72 1678.01 1289.87C1668.43 1293.83 1659.57 1299.4 1650.9 1305.21C1647.17 1307.32 1625.65 1324.46 1624.09 1316.51ZM1781.51 1345.86C1779.68 1351.5 1779.22 1357.48 1777.64 1363.19C1774.25 1375.3 1783.47 1379.12 1793.6 1381.36C1782.16 1381.3 1771.85 1375.72 1775.82 1362.71C1777.64 1357.05 1778.52 1351.09 1781.51 1345.86ZM1787.36 1378.8C1789.73 1383.21 1792.78 1387.23 1796.41 1390.66L1795.37 1391.18C1794.62 1386.47 1795.74 1381.48 1798.42 1377.52L1799.96 1375.25L1800.05 1378.02C1800.15 1381.34 1801.23 1384.62 1803.11 1387.33L1801.46 1387.4L1802.55 1385.52L1804.26 1386.52C1802.21 1390.16 1803.53 1394.6 1804.13 1398.57C1805.92 1410.05 1819.12 1417.22 1827.43 1406.94C1820.9 1417.04 1808.03 1413.32 1803.63 1403.22C1802.78 1401.44 1802.31 1399.42 1802 1397.47C1801.28 1393.61 1800.37 1389.22 1802.55 1385.52L1804.26 1386.52C1803.8 1387.3 1802.82 1388.94 1802.37 1389.71L1801.5 1388.45C1799.4 1385.4 1798.26 1381.73 1798.26 1378.05L1799.89 1378.54C1796.92 1382.62 1796 1387.87 1796.75 1392.81C1792.76 1388.8 1789.45 1384.05 1787.36 1378.8ZM1727.57 1364.73C1748.64 1363.34 1768.46 1354.35 1783.88 1340.01C1770.47 1356.46 1748.81 1366.22 1727.57 1364.73ZM1685.81 1358.38C1714.52 1370.64 1756.55 1362.07 1765.72 1328.85C1767.7 1321.71 1767.66 1314.01 1765.36 1306.93C1767.3 1311.53 1768.14 1316.61 1767.98 1321.66C1765.64 1361.47 1717.15 1374.77 1685.81 1358.38ZM1682.86 1358.87C1696.34 1357.22 1706.78 1347.71 1716.91 1339.5C1726.94 1331.03 1735.94 1320.33 1737.88 1306.93C1737.56 1320.68 1728.32 1332.49 1718.21 1341.02C1707.99 1349.27 1696.67 1358.81 1682.86 1358.87ZM1612.28 1349.15C1619.99 1357.89 1645.19 1334.54 1651.89 1329.17C1655.97 1325.81 1660.17 1322.56 1664.61 1319.63C1677.77 1310.85 1693.71 1304.8 1709.76 1306.62C1715.04 1307.25 1720.24 1308.66 1724.95 1311.05C1715.16 1307.01 1704.29 1306.66 1694.14 1308.76C1683.92 1310.91 1674.38 1315.54 1665.71 1321.3C1652.52 1329.76 1641.51 1341.99 1627.09 1348.74C1622.73 1350.66 1615.96 1353.77 1612.28 1349.15ZM1626.32 1364C1645.33 1359.82 1662.66 1349.21 1675.42 1334.58C1669.88 1348.44 1659.78 1359.58 1646.16 1365.83C1642.21 1367.64 1638.05 1369.02 1633.77 1369.81L1633.34 1367.88C1657.3 1361.56 1681.39 1355.22 1704.14 1345.27C1711.73 1341.99 1719.11 1338.23 1726.26 1334.04C1698.36 1352.33 1665.72 1361.19 1633.84 1369.79L1633.41 1367.86C1649.94 1364.76 1664.64 1353.45 1671.96 1338.31L1673.25 1339.2C1660.63 1352.03 1644.05 1360.91 1626.32 1364Z" fill="#5B2924"/>
<path d="M1726.37 1507.29C1726.65 1508.04 1717.35 1509.62 1707.02 1512.68C1696.7 1515.74 1689.07 1519.11 1688.1 1518.53C1687.12 1517.96 1693.63 1513.56 1704.75 1510.29C1715.86 1507.03 1726.18 1506.59 1726.37 1507.29Z" fill="#263238"/>
<defs>
<radialGradient id="paint0_radial_3_1183" cx="0" cy="0" r="1" gradientUnits="userSpaceOnUse" gradientTransform="translate(1759.86 1468.72) rotate(-5.57907) scale(21.7525)">
<stop stop-color="white"/>
<stop offset="0.56" stop-color="white" stop-opacity="0.5"/>
<stop offset="1" stop-color="white" stop-opacity="0"/>
</radialGradient>
<radialGradient id="paint1_radial_3_1183" cx="0" cy="0" r="1" gradientUnits="userSpaceOnUse" gradientTransform="translate(1759.86 1468.72) rotate(-5.57907) scale(21.7525)">
<stop stop-color="#E65680"/>
<stop offset="0.77" stop-color="#E65680"/>
<stop offset="1" stop-color="#E65680"/>
</radialGradient>
<radialGradient id="paint2_radial_3_1183" cx="0" cy="0" r="1" gradientUnits="userSpaceOnUse" gradientTransform="translate(1668.16 1451.14) rotate(-5.57907) scale(21.7525)">
<stop stop-color="white"/>
<stop offset="0.56" stop-color="white" stop-opacity="0.5"/>
<stop offset="1" stop-color="white" stop-opacity="0"/>
</radialGradient>
<radialGradient id="paint3_radial_3_1183" cx="0" cy="0" r="1" gradientUnits="userSpaceOnUse" gradientTransform="translate(1668.16 1451.14) rotate(-5.57907) scale(21.7525)">
<stop stop-color="#E65680"/>
<stop offset="0.77" stop-color="#E65680"/>
<stop offset="1" stop-color="#E65680"/>
</radialGradient>
</defs>
</svg>
