<svg width="3200" height="2736" viewBox="0 0 3200 2736" fill="none" xmlns="http://www.w3.org/2000/svg">
<path d="M1908.7 2593.56C1990.15 2565.85 2063.22 2537.55 2151.13 2483.83C2241.8 2428.42 2644.56 2164.72 2696.93 1708.33C2710.66 1583.25 2699.27 1456.42 2663.56 1336.59C2647.37 1284.94 2613.79 1181.21 2529.03 1078.62C2425.29 952.96 2306.9 904.256 2237.49 876.714C2091.44 818.739 1968.95 821.793 1910.61 823.865C1847.66 826.101 1736.54 831.119 1610.24 891.167C1527.84 930.326 1476.62 974.994 1401.14 1041.75C1281.55 1147.61 1265.81 1191.68 1056.61 1410.27C999.178 1470.27 951.965 1517.55 879.893 1564.13C829.923 1596.42 789.527 1614.47 714.998 1647.41C531.811 1728.4 479.653 1744.8 419.71 1790.4C303.131 1879.13 310.682 1975.9 305.67 1996.74C292.637 2050.02 289.62 2105.61 296.799 2160.19C312.086 2269.65 366.265 2341.21 399.895 2384.51C446.058 2443.41 501.996 2492.33 564.79 2528.71C608.381 2553.74 653.533 2575.41 699.912 2593.56L1908.7 2593.56Z" fill="#E5D9CF"/>
<path d="M2318.11 2344.34L2315.66 2339.58C2435.45 2266.36 2830.37 1991.85 2882.91 1533.84C2897.06 1403.96 2885.24 1272.29 2848.25 1147.85C2833.33 1100.23 2798.4 988.717 2708.68 880.093C2598.8 747.05 2473.39 697.274 2406.01 670.533C2251.16 609.078 2121.74 613.658 2066.45 615.624C2008.63 617.665 1888.31 621.912 1754.5 685.49L1752.49 680.497C1887.18 616.499 2008.16 612.229 2066.29 610.175C2121.84 608.198 2251.97 603.589 2407.72 665.412C2475.51 692.315 2601.7 742.389 2712.41 876.447C2802.81 985.899 2837.98 1098.16 2852.99 1146.09C2890.22 1271.31 2902.12 1403.82 2887.88 1534.51C2835.06 1995.06 2438.42 2270.8 2318.11 2344.34ZM2817.62 2427.68H311.636C310.913 2427.68 310.198 2427.53 309.53 2427.23C308.862 2426.93 308.255 2426.49 307.744 2425.94C307.232 2425.38 306.827 2424.72 306.55 2424C306.273 2423.27 306.13 2422.49 306.13 2421.71C306.13 2420.92 306.273 2420.14 306.55 2419.42C306.827 2418.69 307.232 2418.03 307.744 2417.48C308.255 2416.92 308.862 2416.48 309.53 2416.18C310.198 2415.88 310.913 2415.73 311.636 2415.73H2817.62C2819.08 2415.74 2820.47 2416.37 2821.49 2417.49C2822.52 2418.61 2823.1 2420.13 2823.1 2421.71C2823.1 2423.29 2822.52 2424.8 2821.49 2425.92C2820.47 2427.04 2819.08 2427.68 2817.62 2427.68Z" fill="#929190"/>
<path d="M1186.97 2421.71H380.909V1569.71C380.909 1453.4 423.371 1341.84 498.953 1259.6C574.536 1177.35 677.048 1131.14 783.937 1131.14C890.827 1131.14 993.339 1177.35 1068.92 1259.6C1144.5 1341.84 1186.97 1453.4 1186.97 1569.71V2421.71Z" fill="#6D6056"/>
<path d="M798.057 1918.89C964.641 1918.89 1099.68 1771.94 1099.68 1590.67C1099.68 1409.39 964.641 1262.44 798.057 1262.44C631.473 1262.44 496.43 1409.39 496.43 1590.67C496.43 1771.94 631.473 1918.89 798.057 1918.89Z" fill="white"/>
<path d="M884.05 1332.27C863.459 1421.58 835.573 1508.02 808.024 1594.59L803.601 1580.83C877.942 1631.56 952.552 1681.85 1022.67 1740.11C943.059 1698.74 867.922 1649.4 792.529 1600.51L785.005 1595.62L788.093 1586.73C817.867 1501.04 847.318 1415.22 884.05 1332.27Z" fill="#080200"/>
<path d="M2572.35 1535.77C2558.42 1521.23 2543.95 1512.57 2531.85 1514.35C2511.32 1517.36 2512.3 1546.84 2476.2 1584.12C2446.77 1614.51 2389.91 1652.94 2344.35 1636.78C2306.36 1623.3 2311.65 1584.45 2266.91 1549.89C2241.28 1530.91 2211.72 1519.17 2180.89 1515.71C2220.72 1689.98 2294.41 1807.38 2379 1807.38C2460.29 1807.38 2531.56 1698.92 2572.35 1535.77ZM2355.23 2043.56C2319.04 2045.42 2299.67 2087.44 2229.41 2214.7C2194.88 2277.21 2169.23 2321.99 2150.17 2355.21C2149.86 2367.59 2149.44 2379.89 2149.44 2392.47H2608.56C2608.56 2380.05 2608.13 2367.9 2607.84 2355.68C2581.68 2319.58 2542.13 2265.5 2483.46 2180.47C2414.36 2080.31 2390.87 2041.73 2355.23 2043.56Z" fill="#FFBA55"/>
<path d="M2378.99 1836.62C2235.2 1836.62 2122.55 1565.73 2122.55 1219.87V1190.62H2635.44V1219.87C2635.44 1565.73 2522.78 1836.62 2378.99 1836.62ZM2176.58 1249.13C2182.48 1566.81 2284.01 1778.11 2378.99 1778.11C2473.98 1778.11 2575.5 1566.81 2581.41 1249.13H2176.58Z" fill="#6D6056"/>
<path d="M2635.44 2421.71H2122.55V2392.45C2122.55 2046.6 2235.2 1775.71 2378.99 1775.71C2522.78 1775.71 2635.44 2046.6 2635.44 2392.45V2421.71ZM2176.58 2363.2H2581.41C2575.5 2045.51 2473.98 1834.22 2378.99 1834.22C2284.01 1834.22 2182.48 2045.51 2176.58 2363.2Z" fill="#6D6056"/>
<path d="M2792.21 2363.19H2711.56V1249.12H2792.21C2799.34 1249.12 2806.17 1246.04 2811.22 1240.55C2816.26 1235.07 2819.09 1227.62 2819.09 1219.87C2819.09 1212.11 2816.26 1204.67 2811.22 1199.18C2806.17 1193.69 2799.34 1190.61 2792.21 1190.61H1965.79C1958.66 1190.61 1951.82 1193.69 1946.78 1199.18C1941.74 1204.67 1938.91 1212.11 1938.91 1219.87C1938.91 1227.62 1941.74 1235.07 1946.78 1240.55C1951.82 1246.04 1958.66 1249.12 1965.79 1249.12H2046.44V2363.19H1965.79C1958.66 2363.19 1951.82 2366.27 1946.78 2371.76C1941.74 2377.25 1938.91 2384.69 1938.91 2392.44C1938.91 2400.2 1941.74 2407.64 1946.78 2413.13C1951.82 2418.62 1958.66 2421.7 1965.79 2421.7H2792.21C2795.74 2421.7 2799.24 2420.95 2802.51 2419.48C2805.77 2418.02 2808.74 2415.86 2811.24 2413.14C2813.74 2410.43 2815.72 2407.2 2817.08 2403.65C2818.43 2400.1 2819.13 2396.29 2819.13 2392.44C2819.13 2388.6 2818.43 2384.79 2817.08 2381.24C2815.72 2377.69 2813.74 2374.46 2811.24 2371.75C2808.74 2369.03 2805.77 2366.87 2802.51 2365.41C2799.24 2363.94 2795.74 2363.19 2792.21 2363.19ZM2100.21 1249.12H2657.79V2363.19H2100.21L2100.21 1249.12Z" fill="#6D6056"/>
<path d="M2903.85 2416.81H296.146V2427.68H2903.85V2416.81Z" fill="#935B50"/>
<path d="M2555.82 1320.76L2534 1290.28L2236.16 1542.86L2257.98 1573.33L2555.82 1320.76Z" fill="#FBEDDA"/>
<path d="M2276.23 1557.86C2273.36 1555.19 2270.32 1552.53 2266.91 1549.89C2259.84 1544.51 2252.39 1539.76 2244.62 1535.69L2236.16 1542.86L2257.98 1573.34L2276.23 1557.86Z" fill="#FFD69B"/>
<path d="M2283.57 1629.36L2261.75 1598.89L2516.19 1383.12L2541.27 1410.83L2283.57 1629.36Z" fill="#FBEDDA"/>
<path d="M2228.3 2286.55L2206.48 2256.08L2460.91 2040.3L2486 2068.02L2228.3 2286.55Z" fill="#FBEDDA"/>
<path d="M2412.86 2081.06L2206.48 2256.08L2228.3 2286.55L2435.33 2110.99C2427.07 2099.41 2419.68 2089.48 2412.86 2081.06Z" fill="#FFD69B"/>
<path d="M2231.6 2194.8L2209.77 2164.33L2464.21 1948.55L2489.29 1976.27L2231.6 2194.8Z" fill="#FBEDDA"/>
<path d="M2248.02 2180.88L2392.11 2058.68C2379.57 2047.62 2368.2 2042.9 2355.23 2043.56C2354.08 2043.62 2352.94 2043.72 2351.82 2043.87L2302.97 2085.29C2288.69 2106.81 2271.68 2137.78 2248.02 2180.88ZM2290.95 1574.12L2261.75 1598.89L2283.57 1629.36L2311 1606.11C2304.95 1594.99 2298.26 1584.3 2290.95 1574.12Z" fill="#FFD69B"/>
<path d="M1599.41 2013.43C1604.14 2009.58 1615.81 2011.46 1623.85 2012.88L1625.5 2032.58L1596.54 2026.97L1599.41 2013.43ZM1830.93 2012.44C1830.93 2012.44 1850.63 2008.36 1855.04 2014.09C1859.44 2019.81 1848.87 2031.26 1848.87 2031.26L1828.95 2033.24L1830.93 2012.44Z" fill="#777963"/>
<path d="M1604.33 1719.26C1589.45 1744.95 1551.91 1887.18 1551.91 1887.18C1551.91 1887.18 1508.67 2007.15 1555.31 2016.83C1572.47 2016.18 1611.36 1972.83 1633.72 1900.58C1647.96 1832.31 1677.06 1795.92 1686.07 1747.87C1697.05 1689.28 1618.46 1690.96 1604.33 1719.26Z" fill="#E3DFD4"/>
<path d="M1630.9 1708.37C1605.54 1725.84 1598.42 1764.37 1594.89 1794.59C1592.2 1817.65 1592.31 1840.89 1592.5 1864.06C1592.68 1885.43 1590.61 1907.37 1592.67 1928.43C1595.67 1959.12 1584.98 1990.98 1564.24 2013.79C1591.89 1996.51 1618.83 1948.45 1633.82 1900.68C1643 1847.71 1674.87 1797.7 1684.53 1754.07C1682.98 1741.82 1680.3 1729.83 1676.1 1719.06C1673.33 1711.95 1669.09 1704.46 1661.79 1702.22C1651.19 1698.97 1639.71 1702.31 1630.9 1708.37Z" fill="#D9D3C5"/>
<path d="M1416.55 1815.89C1413.93 1813.66 1408.47 1804.1 1432.04 1786.61C1449.76 1772.81 1456.77 1772.04 1460.76 1778.28C1464.33 1783.33 1464 1793.14 1444.7 1808.1C1426.92 1821.88 1419.17 1818.11 1416.55 1815.89Z" fill="#CFC6B4"/>
<path d="M1447.01 1858.1L1419.07 1809.66C1419.07 1809.66 1415.09 1802.67 1410.22 1795.93C1403.2 1786.19 1396.92 1784.17 1390.87 1779.66C1382.28 1774.03 1357.52 1747.82 1352.61 1742.83C1347.71 1737.84 1341.14 1728.73 1341.14 1728.73C1341.14 1728.73 1323.81 1714.58 1316.81 1704.75C1309.81 1694.91 1303.29 1684.43 1303.12 1682.37C1302.96 1680.31 1304.73 1676.36 1311.08 1677.94C1317.44 1679.52 1326.19 1694.07 1329.18 1696.95C1332.17 1699.83 1347.26 1712.57 1347.26 1712.57L1348.51 1709.98C1348.51 1709.98 1333.5 1694.17 1330.7 1691.45C1329.23 1690.01 1323.51 1683.27 1317.52 1674.73C1312.79 1667.4 1307.57 1654.57 1306.81 1650.21C1307.06 1643.65 1313.27 1641.4 1316.99 1644.11C1319.22 1645.43 1323.47 1652.96 1327.14 1659.75C1333.36 1668.12 1339.61 1676.87 1340.63 1677.9C1340.65 1677.88 1359.74 1694.24 1359.73 1694.19C1359.72 1693.89 1360.67 1694.15 1360.24 1693.52C1356.29 1689.09 1342.25 1675.22 1342.05 1674.98C1340.46 1672.96 1335.09 1666.05 1329.97 1658.5C1324.16 1649.95 1318.85 1640.3 1318.48 1639.69C1316.15 1635.59 1314.51 1633.62 1315.25 1631.11C1318.6 1625.14 1327.25 1624.08 1332.28 1633.28C1334.59 1636.92 1353.85 1663.53 1355.16 1664.92C1356.48 1666.31 1372.36 1679.81 1371.91 1679.12C1369.63 1676.56 1359.67 1666.91 1357.2 1663.32C1352.62 1656.66 1346.01 1648.61 1344.43 1646.33C1342.6 1642.96 1333.7 1628.17 1333.68 1626.82C1333.62 1622.56 1341.4 1618.37 1348.16 1626.03C1352.37 1630.8 1354.15 1631.41 1358.9 1639.45C1363.12 1645 1366.49 1650.34 1371.06 1655.97C1376.82 1660.37 1387.19 1670.69 1391.25 1673.73C1399.13 1679.63 1407.26 1686.36 1415.59 1691.31C1417.22 1692.28 1418.72 1693.22 1420.06 1694.04C1424.49 1696.77 1424.89 1690.99 1424.06 1688.42C1421.45 1680.39 1416.84 1671.48 1415.6 1668.75C1413.96 1665.15 1407.84 1648.49 1417.15 1640.46C1418.9 1638.69 1423.2 1637.83 1424.86 1640.56C1428.59 1646.68 1426.66 1648.98 1435.46 1660.68C1441.04 1668.1 1439.92 1671.86 1441.36 1675.98C1442.8 1680.1 1444.3 1688.36 1449.94 1696.56C1456.12 1705.55 1459.68 1717.78 1459.8 1726.09C1459.95 1736.44 1453.27 1751.49 1452.4 1754.73C1451.52 1757.96 1450.76 1764.11 1457.84 1776.78C1461.78 1783.83 1524.95 1874.53 1524.95 1874.53L1447.01 1858.1Z" fill="#D69280"/>
<path d="M1423.41 1695.23C1417.52 1694.24 1405.31 1685.55 1390.74 1673.57C1385.33 1669.12 1373.99 1658.48 1371.58 1656.3C1369.16 1654.12 1359.37 1639.51 1358.43 1638.6C1351.09 1625.76 1344.43 1620.64 1339 1621.85C1339 1621.85 1332.42 1622.63 1334.88 1627.7C1337.34 1632.78 1345.73 1647.64 1345.73 1647.64L1358.25 1665.01L1375.52 1681.28M1344.7 1725.33C1344.93 1711.99 1349.52 1704.84 1358.84 1695.1C1367.72 1685.83 1378.87 1677.83 1390.77 1674.09M1407.47 1760.63C1404.66 1749 1407.12 1736.67 1411.44 1725.51C1415.77 1714.35 1420.15 1704.75 1425.1 1693.85" stroke="#C58075" stroke-width="2" stroke-linecap="round" stroke-linejoin="round"/>
<path d="M1415.14 1810.05C1415.1 1808.49 1415.32 1806.85 1416.12 1805.59C1416.1 1805.61 1417.27 1806.92 1417.18 1806.9C1416.75 1807.69 1416.7 1808.63 1416.77 1809.35C1417 1812.58 1419.74 1816.3 1427.38 1814.97C1441.13 1812.08 1468.09 1786.8 1459.55 1776.21C1458.74 1774.93 1457.45 1774.23 1456.76 1774.6C1456.18 1774.21 1455.99 1773.75 1455.95 1773.48C1456.74 1772.59 1459.17 1772.59 1460.3 1774.24C1486.91 1813.18 1505.76 1835.03 1545.79 1884.66C1566.61 1906.2 1579.87 1924.68 1582.53 1957.4C1584.63 1981.17 1576.58 2012.07 1558.52 2016.2C1537.27 2021.22 1494.67 1957.21 1485.54 1939.35C1476.41 1921.49 1428.94 1832.73 1426.99 1829.72C1425.04 1826.7 1416.41 1818.88 1415.14 1810.05Z" fill="#E3DFD4"/>
<path d="M1554.79 2016.42C1532.63 2014.24 1494.16 1956.21 1485.54 1939.35C1476.41 1921.49 1428.94 1832.73 1426.99 1829.72C1425.04 1826.7 1416.41 1818.88 1415.14 1810.05C1415.1 1808.49 1415.32 1806.85 1416.12 1805.59C1416.1 1805.61 1417.27 1806.92 1417.18 1806.9C1416.75 1807.69 1416.7 1808.63 1416.77 1809.35C1417 1812.58 1419.74 1816.3 1427.38 1814.97C1441.13 1812.08 1468.09 1786.8 1459.55 1776.21C1458.74 1774.93 1457.45 1774.23 1456.76 1774.6C1456.18 1774.21 1455.99 1773.75 1455.95 1773.48C1456.74 1772.59 1459.17 1772.59 1460.3 1774.24C1486.91 1813.18 1505.76 1835.03 1545.79 1884.66C1559.51 1898.85 1569.95 1911.72 1576.23 1928.21" stroke="#CEC6B5" stroke-width="2" stroke-miterlimit="1"/>
<path d="M1615.39 1401.48C1615.39 1401.48 1601.01 1360.67 1642.17 1339.3C1683.34 1317.93 1758.14 1326.49 1793.17 1419.98C1804.15 1452.86 1803.29 1485.84 1791.78 1528.45C1780.26 1571.06 1807.64 1613.09 1845.94 1578.37C1845.94 1578.37 1814.82 1640.92 1772.39 1628.07C1769.07 1627.6 1765.72 1616.02 1765.71 1615.97C1770.11 1632.35 1797.95 1643.01 1810.32 1629.48C1809.85 1640.54 1799.73 1654.49 1790.68 1660.77C1766.71 1677.42 1729.99 1675.38 1713.41 1651.28C1714.7 1653.15 1713.78 1660.88 1714.39 1663.56C1715.46 1668.31 1718.73 1672.38 1719.85 1676.86C1721.58 1683.76 1723.66 1680.99 1718.06 1686.38C1714.82 1689.49 1707.25 1690.58 1703.05 1691.72C1679.15 1698.2 1667.98 1695.19 1652.35 1675.52C1646.79 1668.52 1648.53 1667.51 1639.88 1674.32C1634.81 1678.32 1630.72 1684.42 1624.22 1686.31C1618.42 1688 1612.3 1688.49 1606.3 1687.75C1603.42 1687.39 1591.65 1681.82 1590.05 1682.48C1631.57 1665.42 1653.33 1606.88 1646.54 1565.22C1640.35 1565.7 1642.84 1596.01 1626.45 1601.17C1627.49 1593.83 1643.79 1594.1 1636.8 1528.43C1629.81 1462.76 1615.39 1401.48 1615.39 1401.48Z" fill="#6D3429"/>
<path d="M1635.91 1364.9C1648.52 1347.56 1669.5 1337.09 1690.82 1336.18C1723.98 1334.76 1751.05 1357.66 1761.63 1388.1C1764.69 1396.32 1766.28 1405.15 1767.18 1413.82C1771.27 1448.49 1771.59 1483.49 1776.14 1518.09C1780 1541.86 1782.32 1573.98 1804.33 1588.21C1811.51 1592.84 1820.68 1595.13 1828.99 1592.45C1837.47 1589.71 1842.57 1581.79 1848.25 1575.44C1845.44 1578.77 1842.85 1582.29 1839.88 1585.51C1834.68 1591.44 1827.34 1594.82 1819.37 1594.22C1813.84 1593.86 1808.51 1591.93 1803.81 1589.04C1781.38 1574.98 1778.34 1542.3 1774.42 1518.32C1768.99 1479.45 1769.54 1439.92 1763.4 1401.18C1757.68 1371.76 1735.9 1343.97 1705.37 1338.46C1679.73 1333.61 1651.8 1344.11 1635.91 1364.9ZM1646.24 1365.53C1651.99 1354.05 1664.88 1349.63 1676.46 1346.36C1707.05 1335.88 1739.31 1352.26 1757.67 1377.04C1768.86 1391.9 1775.07 1409.91 1778.67 1427.96C1780.99 1440.04 1782.81 1452.21 1783.25 1464.53C1783.8 1482.94 1781.55 1501.29 1783.99 1519.57C1784.82 1525.63 1786.15 1531.62 1788.13 1537.42C1783.71 1525.95 1782.21 1513.56 1781.87 1501.31C1781.57 1482.91 1782.85 1464.61 1779.92 1446.38C1776.71 1422.4 1770.73 1397.9 1756.13 1378.18C1738.35 1353.94 1706.68 1337.5 1676.72 1347.3C1665.14 1350.26 1652.34 1354.33 1646.24 1365.53ZM1687.37 1384.13C1713.87 1384.42 1739.76 1399.97 1752.26 1423.43C1761.85 1441.01 1764.41 1461.43 1764.74 1481.18C1765.19 1507.34 1760.2 1534.01 1767.04 1559.64C1770.46 1572.15 1776.92 1584.09 1786.49 1592.94C1800.99 1606.49 1825.5 1606.32 1840.22 1592.99C1835.42 1597.54 1829.45 1600.78 1823.04 1602.44C1816.63 1604.09 1809.77 1604.3 1803.3 1602.88C1786.54 1599.41 1775.14 1584.45 1768.62 1569.53C1757.07 1541.48 1763.13 1510.56 1762.83 1481.2C1762.63 1461.7 1760.1 1441.62 1750.91 1424.16C1738.81 1400.79 1713.6 1385.28 1687.37 1384.13ZM1689.55 1391.34C1703.36 1395.29 1717.1 1400.84 1728.17 1410.24C1743.16 1423.09 1751.98 1442.14 1754.38 1461.57C1758.76 1495.59 1745.56 1528.76 1746.54 1562.63C1747.37 1572.61 1750.31 1582.47 1754.65 1591.5C1756.12 1594.51 1757.76 1597.44 1759.72 1600.13C1763.67 1605.46 1769.77 1608.9 1775.94 1611.18C1794.55 1617.82 1818.31 1617.39 1832.3 1601.67C1823.42 1612.31 1809.15 1616.8 1795.59 1616.1C1785.41 1615.58 1774.99 1613.39 1766.22 1607.95C1757.21 1602.54 1752.7 1592.23 1749.17 1582.78C1746.9 1576.33 1745.3 1569.63 1744.73 1562.77C1744.04 1549.12 1746.2 1535.56 1748.2 1522.12C1751.91 1498.92 1756.35 1475.1 1750.92 1451.87C1742.91 1418.21 1721.61 1401.2 1689.55 1391.34ZM1695.37 1367.09C1707.81 1362.58 1722.04 1365.73 1732.84 1373.01C1743.85 1380.4 1751.3 1392.08 1755.93 1404.29C1764.76 1429.05 1763.25 1455.82 1764.3 1481.68C1761.65 1456.13 1762.96 1429.39 1754.06 1404.99C1749.7 1393 1742.45 1381.74 1731.97 1374.27C1721.55 1366.86 1707.88 1363.46 1695.37 1367.09Z" fill="#5B2924"/>
<path d="M1738.88 1533.82C1736.97 1547.87 1736.51 1562.13 1738.43 1576.12C1741.9 1600.18 1749.16 1625.6 1768.59 1641.59C1775.32 1647.06 1783.43 1651.28 1792.23 1651.64C1795.24 1651.78 1798.29 1651.47 1801.22 1650.71C1801.17 1650.73 1799.87 1652.05 1799.96 1651.89C1796.54 1652.73 1792.96 1652.98 1789.49 1652.62C1773.97 1650.87 1761.54 1639.44 1753.15 1626.95C1745.17 1614.97 1741.18 1600.87 1738.51 1586.89C1735.09 1569.4 1735.43 1551.26 1738.88 1533.82Z" fill="#5B2924"/>
<path d="M1592.5 1682.13C1601.68 1683.74 1611.28 1681.54 1619.48 1677.11C1627.67 1672.68 1634.57 1666.11 1640.41 1658.85C1644.71 1653.5 1648.58 1647.54 1649.97 1640.81C1650.03 1640.52 1650.05 1640.15 1649.8 1639.99C1649.54 1639.83 1649.23 1640.36 1649.52 1640.39M1590.42 1683.37C1608.64 1678.86 1624.96 1667.09 1635 1651.22" stroke="#5B2924" stroke-miterlimit="10"/>
<path d="M1707.75 1648.35C1738.81 1637.42 1766.48 1635.62 1769.55 1644.34C1772.62 1653.06 1749.93 1668.99 1718.86 1679.92C1687.8 1690.86 1660.14 1692.65 1657.07 1683.93C1654 1675.21 1676.69 1659.28 1707.75 1648.35Z" fill="#CFC6B4"/>
<path d="M1625.01 1708.01C1630.57 1716.21 1647.96 1744.84 1687.28 1749.34C1739.85 1758.02 1843.89 1689.83 1832.35 1681.86C1826.04 1677.5 1777.82 1681.24 1766.84 1661.87C1753.17 1637.75 1740.79 1591.19 1732.87 1549.15C1728.99 1528.52 1648.19 1563.85 1651.62 1602.81C1652.45 1620.04 1664.02 1652.55 1670.92 1678.38C1672.07 1682.68 1674.25 1684.49 1669.33 1688.96C1662.07 1695.56 1623.23 1705.38 1625.01 1708.01Z" fill="#D69280"/>
<path d="M1733.5 1549.84C1733.5 1549.84 1740.35 1570.23 1735.43 1599.53C1730.74 1627.45 1708.03 1672.51 1679.29 1674.23C1675.72 1674.44 1670.77 1672.61 1666.07 1662.69C1659.31 1648.45 1649 1628.15 1645.76 1607.82C1640.61 1567.9 1716.47 1518.61 1733.5 1549.84Z" fill="#C58075"/>
<path d="M1668.37 1669.32C1665.38 1672.14 1658.01 1679.86 1662.64 1683.68C1675.88 1697.21 1729.61 1693.82 1762.74 1643.82C1764.31 1639.93 1761.05 1639.02 1756.67 1639.44C1756.67 1639.43 1755.96 1637.52 1755.96 1637.52C1761.77 1636.91 1767.92 1637.9 1769.67 1644.15C1773.34 1655.13 1785.66 1667.07 1788.46 1670.84C1788.46 1670.84 1791.27 1674.28 1798.2 1674.61C1806.07 1675.98 1879.24 1676.16 1902.24 1693.13C1908.89 1699.4 1918.61 1738.22 1905.17 1770.31C1891.74 1802.4 1866.96 1919.92 1847.51 1967.27C1844.29 1975.1 1832.94 2002.29 1836.24 2016.33C1839.53 2030.38 1844.91 2042.54 1844.91 2042.54C1844.91 2042.54 1709.55 2114.44 1635.98 2076.22C1605.92 2061.89 1609.07 2037.24 1609.07 2037.24L1625.39 1923.94C1625.39 1923.94 1625.78 1915.7 1617.36 1911.99C1605.68 1907.46 1577.4 1890.24 1589.47 1845.19C1605.02 1810.22 1601.22 1806.73 1600.47 1801.74C1599.72 1796.74 1602.65 1763.32 1606.38 1747.13C1609.99 1731.43 1620.99 1706.61 1629.02 1702.25C1636.73 1699.97 1656.18 1694.29 1656.18 1694.29C1656.22 1693.63 1656.12 1686.35 1656.47 1679.09C1656.62 1675.81 1661.59 1670.69 1667.79 1667.56C1667.82 1667.57 1668.37 1669.31 1668.37 1669.32Z" fill="#E3DFD4"/>
<path d="M1837.92 1761.47C1836.25 1772.58 1835.66 1783.84 1836.17 1795.06C1837.5 1823.89 1842.23 1852.55 1846.9 1880.76C1851.91 1911.09 1855.39 1944.22 1844.87 1973.71C1864.5 1923.72 1871.27 1888.77 1887.88 1826.93C1888.2 1822.04 1888.48 1817.01 1888.73 1811.81C1889.97 1786.3 1894 1760.64 1891.47 1735.09C1890.46 1724.92 1889.25 1705.92 1880.63 1698.62C1862.3 1683.09 1849.47 1718.94 1845.52 1730.42C1842.05 1740.51 1839.5 1750.92 1837.92 1761.47Z" fill="#D9D3C5"/>
<path d="M1885.16 1841.94C1876.25 1875.71 1867.76 1909.61 1857.23 1942.93C1851.21 1963.77 1840.08 1983.22 1837.05 2004.87C1836.59 2008.56 1836.45 2012.29 1837.18 2015.93C1839.27 2024.88 1842.26 2033.68 1845.82 2042.13L1846.2 2042.99L1845.38 2043.42C1788.05 2072.12 1686.34 2110.88 1627.38 2072.6C1615.46 2064.89 1606.52 2050.92 1608.06 2036.35L1608.91 2030.43C1609.6 2025.95 1623.29 1930.85 1624.34 1923.79C1624.43 1922.66 1623.82 1920.1 1623.07 1918.67C1621.66 1915.72 1618.95 1913.64 1615.91 1912.54L1614.52 1911.93C1605.31 1907.7 1597.29 1900.78 1592.17 1891.98C1583.79 1877.76 1584.32 1860.31 1588.52 1844.86C1591.91 1837.19 1595.19 1829.44 1597.74 1821.49C1599.51 1815.6 1601.4 1809.59 1599.83 1803.51C1599.29 1801.42 1599.35 1799.14 1599.42 1797.01C1599.56 1792.79 1599.88 1788.6 1600.24 1784.41C1601.61 1771.89 1602.16 1759.13 1606.38 1747.13C1604.75 1764.82 1601.42 1782.37 1601.34 1800.16C1601.5 1803.28 1602.75 1806.36 1602.35 1809.59C1601.03 1821.99 1595.01 1834.68 1590.44 1845.45C1586.41 1860.36 1585.87 1877.28 1593.95 1890.93C1598.85 1899.32 1606.56 1905.97 1615.39 1910.01L1616.73 1910.59C1621.26 1912.19 1625.02 1915.99 1626.07 1920.75C1626.3 1921.83 1626.5 1922.89 1626.44 1924.1C1625.43 1931.58 1611.83 2025.7 1611.16 2030.74L1610.31 2036.66C1609.27 2046.29 1613.47 2055.98 1619.8 2063.13C1623.07 2066.7 1627 2069.73 1631.12 2072.29C1689.36 2106.78 1788.43 2069.57 1844.44 2041.65L1843.99 2042.94C1842.25 2038.88 1840.72 2034.78 1839.32 2030.62C1837.63 2025.39 1835.88 2020.11 1834.95 2014.68C1834.45 2011.35 1834.67 2007.93 1835.06 2004.62C1838.1 1982.75 1849.24 1963.34 1855.33 1942.32C1865.84 1909.06 1874.32 1875.17 1883.23 1841.44L1885.16 1841.94Z" fill="#CEC6B5"/>
<path d="M1677.66 1912.18C1722.45 1904.69 1769.4 1929.18 1812.86 1915.98C1778.53 1924.23 1740.89 1915.29 1708.17 1928.56C1724.19 1925.35 1740.85 1925.37 1756.87 1928.61" stroke="#CEC6B5" stroke-miterlimit="30"/>
<path d="M1662.35 1704.51C1664.89 1712.68 1668.08 1720.66 1671.89 1728.32C1675.05 1734.69 1678.72 1740.95 1683.92 1745.8C1689.54 1751.05 1696.84 1754.46 1704.47 1755.39C1702.12 1755.1 1699.04 1756.32 1696.54 1756.27C1693.65 1756.22 1690.71 1755.8 1687.95 1754.91C1682.91 1753.29 1678.47 1748.77 1674.23 1745.63C1665.47 1739.13 1655.7 1730.88 1652.02 1720.4C1650.49 1716.01 1649.37 1711.45 1647.28 1707.29C1646.44 1705.61 1645.4 1703.96 1643.88 1702.85C1641.23 1700.92 1637.68 1700.97 1634.4 1701.11C1639.54 1700.9 1652.19 1696.64 1655.79 1692.88C1657.34 1691.26 1656.71 1686.39 1656.48 1684.32C1655.83 1678.62 1656.81 1676.46 1658.8 1674.9C1655.83 1682.16 1659.05 1692.88 1661.04 1700.05C1661.46 1701.54 1661.9 1703.03 1662.35 1704.51Z" fill="#D9D3C5"/>
<path d="M1670.22 1741.91C1670.22 1741.91 1665.93 1739.5 1662.73 1732.74C1659.52 1725.97 1656.47 1679.09 1656.47 1679.09C1656.47 1679.09 1655.78 1673.88 1667.79 1667.57M1771.04 1698.66L1787.42 1678.72C1787.42 1678.72 1790.28 1674.23 1788.46 1670.84M1649.32 1727.25C1649.32 1727.25 1680.4 1750.33 1688.61 1753.81C1696.83 1757.29 1703 1757.14 1714.25 1752.39C1736.91 1742.81 1757.15 1724.86 1773.27 1706.68" stroke="#CEC6B5" stroke-width="2" stroke-linecap="round" stroke-linejoin="round"/>
<path d="M1899.22 1691.57C1899.22 1691.57 1842.91 1670.92 1845.48 1755.44C1846.56 1791.11 1850.51 1783.34 1868.33 1851.73C1886.15 1920.13 1887.83 2050.62 1951.55 2057.44C1983.23 2056.23 1985.17 2003.27 1980.35 1980.98C1972.8 1941.1 1943.04 1835 1926.21 1740.45C1919.62 1706.33 1908.63 1695.51 1899.22 1691.57Z" fill="#E3DFD4"/>
<path d="M1896.29 1907.39C1900.58 1915.21 1905.03 1922.98 1910.39 1930.11C1919.08 1941.67 1930.01 1951.36 1939.39 1962.37C1954 1979.48 1964.82 1999.8 1970.86 2021.47C1973.41 2030.61 1974.22 2038.2 1970.66 2046.99C1957.23 2061.9 1944.64 2058.66 1931.24 2050.51C1887.82 2021.88 1878.42 1901.97 1875.63 1885.94C1871.83 1864.16 1867.84 1847.95 1860.77 1824.77C1851.03 1794.3 1845.28 1773.44 1844.37 1747.49C1847.97 1774.77 1851.77 1799.78 1860.37 1826.19C1869.56 1854.38 1882.07 1881.41 1896.29 1907.39Z" fill="#D9D3C5"/>
<path d="M1845.03 1739.83C1846.64 1754.22 1846.86 1768.79 1850.13 1782.9C1851.78 1789.91 1853.98 1796.84 1856.04 1803.8C1862.18 1824.73 1868.41 1845.67 1873.02 1867.01C1883.59 1916.42 1886.64 1968.29 1906.48 2015.2C1914.77 2034.35 1929.38 2054.15 1951.67 2056.27C1966.99 2056.19 1974.46 2038.67 1977.6 2025.46C1980.92 2011.09 1982.05 1995.73 1979.38 1981.19L1981.33 1980.77C1984.14 1995.77 1983.05 2011.17 1979.71 2025.97C1976.41 2040.03 1968.51 2058.55 1951.54 2058.62C1944.09 2057.88 1936.81 2055.24 1930.61 2051.04C1915.19 2040.45 1906.56 2023.03 1900.11 2006.04C1884.01 1961.4 1880.33 1913.66 1870.81 1867.47C1866.27 1846.2 1860.11 1825.28 1854.05 1804.4C1852.02 1797.43 1849.83 1790.49 1848.17 1783.35C1846.54 1776.2 1845.65 1768.92 1845.02 1761.67C1844.42 1754.46 1843.66 1746.94 1845.03 1739.83Z" fill="#CEC6B5"/>
<path d="M1923.31 1758.69C1919.52 1759.61 1914.6 1761.17 1916.43 1764.64C1918.26 1768.11 1932.06 1772.79 1947.86 1771.73C1965.21 1770.57 1974.24 1765.06 1975.81 1762.55C1978.89 1757.62 1971.12 1754.74 1967.57 1754.59C1958.33 1754.18 1937.12 1755.33 1923.31 1758.69Z" fill="#CEC6B5"/>
<path d="M1917.24 1734.24C1916.61 1733.52 1915.98 1732.79 1915.36 1732.06C1911.73 1727.8 1910.89 1723.49 1910.18 1718.05C1908.82 1707.69 1911.38 1690.86 1914.61 1686.16C1917.85 1681.46 1920.45 1677.34 1920.33 1666.44C1920.2 1655.54 1914.27 1627.14 1921.99 1615.06C1928.45 1605.96 1934.55 1611.68 1933.94 1618.61C1933.73 1623.45 1934.84 1632.58 1934.84 1632.58L1927.43 1656.46C1927.43 1656.46 1912.18 1713.9 1915.98 1723.75C1919.78 1733.6 1922.48 1740.99 1929.7 1741.91C1930.21 1741.98 1930.73 1742.04 1931.23 1742.12C1927.73 1741.38 1924.49 1740.65 1921.57 1738.4C1919.98 1737.18 1918.58 1735.74 1917.24 1734.24Z" fill="#C58075"/>
<path d="M1922.38 1779.92L1922.47 1741.19C1922.47 1741.19 1907.71 1719.15 1915.45 1694.67C1923.19 1670.2 1937.25 1626.02 1937.62 1617.57C1938 1609.11 1927.22 1578.97 1929.33 1572.4C1931.43 1565.84 1934.48 1565.37 1934.48 1565.37C1934.48 1565.37 1929.64 1544.88 1938.1 1538.29L1941.69 1534.62C1941.69 1534.62 1940.92 1526.36 1942.59 1523.35C1946.98 1515.48 1952.16 1516.92 1952.16 1516.92L1962.04 1612.99L1966.38 1633.36L1961.31 1729.99C1961.31 1729.99 1963.37 1738.15 1963.34 1747.84C1963.32 1757.52 1969.76 1785.25 1969.76 1785.25L1922.38 1779.92Z" fill="#D69280"/>
<path d="M1933.55 1566.63C1935.37 1564.59 1937.47 1563.92 1939.82 1564.44L1957.83 1617.69M1938.1 1538.29C1938.1 1538.29 1942.43 1533.08 1945.04 1536.9C1946.19 1538.58 1948.6 1549.62 1951.28 1561.04C1954.71 1575.67 1960.19 1596.71 1959.64 1595.14" stroke="#BD5F66" stroke-width="2" stroke-linecap="round" stroke-linejoin="round"/>
<path d="M1916.74 1765.23C1916.74 1765.23 1933.98 1779 1968.94 1766C1981.71 1761.33 1967.41 1755.57 1967.41 1755.57C1967.41 1755.57 1978.62 1756.4 1978.09 1768.27C1969.3 1787.72 1991.78 1952.36 1992.71 1976.2C1992.92 2001.34 1979.9 2063.91 1938.1 2059.75C1912 2051.98 1895 1987.76 1909.33 1932.85C1918.63 1861.92 1919.09 1810.41 1914.52 1770.42C1911.95 1761.38 1919.67 1758.75 1920.9 1760.79C1916.16 1760.8 1916.74 1765.23 1916.74 1765.23Z" fill="#E3DFD4"/>
<path d="M1916.74 1765.23C1916.74 1765.23 1933.98 1779 1968.94 1766C1981.71 1761.33 1967.41 1755.57 1967.41 1755.57C1967.41 1755.57 1978.62 1756.4 1978.09 1768.27C1969.3 1787.72 1991.78 1952.36 1992.71 1976.2C1992.92 2001.34 1979.9 2063.91 1938.1 2059.75C1912 2051.98 1895 1987.76 1909.33 1932.85C1918.63 1861.92 1919.09 1810.41 1914.52 1770.42C1911.95 1761.38 1919.67 1758.75 1920.9 1760.79C1916.16 1760.8 1916.74 1765.23 1916.74 1765.23Z" stroke="#CEC6B5" stroke-width="2" stroke-miterlimit="30"/>
<path d="M1561.1 1483.44C1561.1 1483.44 1551.09 1514.41 1571.36 1572.07C1586.75 1620.03 1594.88 1632.07 1640.69 1664.66C1652.32 1674.54 1674.72 1672.53 1684.69 1662.91C1709.58 1644.39 1735.09 1604.25 1738.22 1581.2C1739.25 1573.06 1737.68 1558.96 1737.68 1558.96C1737.68 1558.96 1742.71 1561.23 1746.95 1554.54C1749.2 1551.76 1755.28 1534.99 1746.76 1507.33C1743.72 1490.25 1729.73 1426.39 1672.62 1415.16C1636.12 1407.99 1580 1424.01 1561.1 1483.44Z" fill="#D69280"/>
<path d="M1666.54 1537.33C1668.48 1543.97 1667.2 1550.18 1663.69 1551.2C1660.17 1552.23 1655.76 1547.68 1653.82 1541.05C1651.88 1534.41 1653.16 1528.2 1656.67 1527.17C1660.19 1526.15 1664.61 1530.69 1666.54 1537.33Z" fill="#340C10"/>
<path d="M1654.99 1529.64C1654.99 1529.64 1651.17 1529.66 1650.18 1523.53" stroke="#340C10" stroke-width="2.285" stroke-linecap="round" stroke-linejoin="round"/>
<path d="M1647.45 1557.2C1647.45 1557.2 1656.97 1545.35 1679.17 1545.21C1680.43 1548.86 1670.95 1561.82 1670.95 1561.82L1647.45 1557.2Z" fill="#D69280"/>
<path d="M1674.45 1544.97C1663.94 1547.5 1659.85 1549.77 1657.33 1550.99C1654.8 1552.21 1653.09 1553.52 1652.64 1553.45C1655.28 1548.17 1663.05 1545.34 1668.52 1544.46C1670.03 1544.21 1674.81 1544.27 1674.45 1544.97Z" fill="#320B0F"/>
<path d="M1598.38 1560.21C1599.95 1565.99 1598.74 1571.34 1595.68 1572.18C1592.62 1573.01 1588.87 1569 1587.3 1563.22C1585.72 1557.45 1586.93 1552.09 1589.99 1551.26C1593.05 1550.42 1596.8 1554.43 1598.38 1560.21Z" fill="#340C10"/>
<path d="M1589.46 1552.94C1589.46 1552.94 1584.34 1554.06 1583.42 1548.25" stroke="#340C10" stroke-width="2.087" stroke-linecap="round" stroke-linejoin="round"/>
<path d="M1583.25 1576.44C1583.25 1576.44 1592.98 1564.84 1610.94 1572.17C1611.4 1573.57 1595.47 1581.91 1595.47 1581.91L1583.25 1576.44Z" fill="#D69280"/>
<path d="M1604.27 1569.8C1604.35 1569.84 1604.43 1569.89 1604.51 1569.93C1603.98 1569.62 1601.69 1570.26 1601.03 1570.33C1599.96 1570.45 1598.94 1570.62 1597.88 1570.81C1595.38 1571.27 1592.91 1571.67 1590.48 1572.47C1589.11 1572.93 1587.73 1573.39 1586.35 1573.85C1589 1570.15 1595.45 1568.8 1599.71 1568.79C1601.28 1568.78 1602.89 1569.06 1604.27 1569.8Z" fill="#320B0F"/>
<path d="M1669.41 1550.9C1680.42 1542.71 1695.1 1542.29 1702.57 1549.64C1710.02 1556.96 1707.93 1569.69 1697.55 1578.39C1686.73 1587.47 1671.06 1588.77 1662.97 1580.92C1654.84 1573.04 1657.92 1559.44 1669.41 1550.9Z" fill="url(#paint0_radial_3_1183)" fill-opacity="0.65"/>
<path d="M1601.04 1585.11C1609.31 1591.93 1610.14 1601.74 1604.41 1606.64C1599.52 1610.82 1590.96 1610.32 1584.36 1605.82C1583.76 1605.41 1583.17 1604.96 1582.62 1604.5C1582.36 1604.3 1576.32 1587.7 1576.21 1587.78C1576.37 1587.26 1576.58 1586.75 1576.83 1586.25C1580.65 1578.67 1592.11 1577.76 1601.04 1585.11Z" fill="url(#paint1_radial_3_1183)" fill-opacity="0.65"/>
<path d="M1741.59 1507.09C1739.85 1503.76 1736.39 1501.02 1732.25 1501.21C1728.59 1501.38 1725.83 1504.96 1725.3 1508.58C1724.69 1512.74 1724.83 1522.4 1727.72 1525.72C1729.81 1528.11 1732.29 1528.8 1733.57 1531.8C1734.98 1535.14 1734.43 1539.88 1733.35 1543.21" stroke="#BD5F66" stroke-width="2.041" stroke-linecap="round" stroke-linejoin="round"/>
<path d="M1744.57 1549.92C1745.08 1551.56 1744.48 1553.52 1743.22 1554.35C1741.92 1555.2 1740.38 1554.57 1739.78 1552.89C1739.16 1551.16 1739.8 1549.04 1741.2 1548.23C1742.55 1547.44 1744.05 1548.22 1744.57 1549.92Z" fill="#340C10"/>
<path d="M1628.48 1514.74C1625.99 1516.11 1628.02 1522.1 1630.19 1521.39C1637.81 1518.9 1644.94 1516.12 1653.01 1515.26C1658.22 1514.71 1663.62 1513.78 1668.84 1513.88C1673.36 1513.97 1682.52 1513.75 1686.34 1516.46C1671.38 1505.82 1644.3 1504.33 1628.48 1514.74Z" fill="#6D3429"/>
<path d="M1571.56 1548.87C1577.27 1541.24 1586.43 1537.75 1594.03 1534.64C1595.47 1533.36 1594.42 1528.6 1591.73 1527.99C1587.48 1527.98 1572.84 1535.86 1569.22 1546.81C1567.63 1551.61 1567 1556.8 1566.99 1556.99C1567.65 1556.72 1568.85 1552.72 1571.56 1548.87Z" fill="#6D3429"/>
<path d="M1626.04 1594.42C1620.3 1592.73 1616.06 1587.58 1617.8 1581.44L1618.27 1579.22C1621.27 1566.93 1621.63 1556.35 1615.45 1545.08C1612.72 1539.94 1608.92 1535.44 1605.16 1530.68C1603.61 1528.65 1606.51 1526.2 1608.25 1528.14C1619.06 1539.82 1626.07 1554.58 1622.58 1570.83C1621.99 1573.86 1621.21 1576.81 1620.44 1579.74C1619.69 1582.55 1618.76 1585.23 1620.06 1587.93C1621.2 1590.41 1623.74 1592.27 1626.38 1593.3C1627.11 1593.52 1626.79 1594.65 1626.04 1594.42Z" fill="#340C10"/>
<path d="M1635.16 1591.47C1636.84 1590.35 1638.51 1589.23 1640.19 1588.1C1641.25 1587.4 1642.65 1586.69 1643.7 1587.4C1644.31 1588.22 1639.42 1589.65 1636.65 1590.77" fill="#340C10"/>
<path d="M1635.16 1591.47C1636.84 1590.35 1638.51 1589.23 1640.19 1588.1C1641.25 1587.4 1642.65 1586.69 1643.7 1587.4C1644.31 1588.22 1639.42 1589.65 1636.65 1590.77" stroke="#340C10" stroke-width="1.02" stroke-miterlimit="10" stroke-linecap="round"/>
<path d="M1682.3 1497.88C1686.9 1498.17 1692.82 1499.43 1695.77 1502.96C1699.16 1507.02 1702.11 1513.17 1705.27 1515.72C1706.43 1516.66 1719.12 1524.76 1718.96 1520.58C1718.76 1515.53 1718.14 1497.58 1731.31 1497.6C1742.1 1497.63 1747.03 1509.58 1749.29 1517.81C1750.71 1522.98 1752.42 1542.41 1746.8 1553.65C1745.58 1556.08 1742.18 1560.13 1738.14 1559.16C1741.57 1566.45 1742.75 1573.6 1751.18 1574.89C1755.42 1575.55 1760.02 1573.1 1761.49 1569.06C1759.21 1571.06 1756.57 1573.19 1753.56 1572.91C1751.63 1572.73 1749.84 1571.47 1749.02 1569.72C1748.2 1567.97 1748.38 1565.79 1749.47 1564.19C1749.11 1565.66 1750.76 1566.82 1752.23 1567.17C1754.37 1567.67 1756.76 1567.43 1758.52 1566.1C1761.18 1564.09 1760.77 1559.95 1760.21 1557.02C1759.46 1558.82 1757.91 1560.28 1756.07 1560.92C1750.87 1562.74 1748.33 1558.47 1748.51 1555.08C1748.76 1550.57 1750.65 1545.9 1752.01 1537.75C1752.76 1530.98 1754.46 1524.91 1754.96 1512.07C1757.97 1435.25 1691.35 1391.64 1627.9 1410.19C1611.38 1415.02 1596.64 1424.02 1577.35 1436.48C1553.82 1455.39 1544.2 1485 1548.14 1516.54C1550.03 1531.68 1565.2 1557.16 1566.77 1557.76C1565.55 1552.03 1563.93 1548.62 1564.1 1541.49C1564.25 1534.98 1569.3 1530.2 1571.26 1529C1566.15 1504.57 1570.16 1480.62 1578.61 1468.71C1573.15 1478.37 1574.38 1503.59 1585.07 1523.32C1585.76 1521.26 1616.52 1507.86 1641.08 1501.6C1641.84 1501.38 1640.39 1499.32 1640.8 1498.64C1641.15 1498.06 1638.48 1481.71 1638.51 1475.7C1639.64 1484.14 1648.78 1496.12 1656.16 1498.8C1654.95 1498.4 1671.09 1497.17 1682.3 1497.88Z" fill="#7B3D2D"/>
<path d="M1682.3 1497.88C1686.9 1498.17 1692.82 1499.43 1695.77 1502.96C1699.16 1507.02 1702.11 1513.17 1705.27 1515.72C1706.43 1516.66 1719.12 1524.76 1718.96 1520.58C1718.76 1515.53 1718.14 1497.58 1731.31 1497.6C1742.1 1497.63 1747.03 1509.58 1749.29 1517.81C1750.71 1522.98 1752.42 1542.41 1746.8 1553.65C1745.58 1556.08 1742.18 1560.13 1738.14 1559.16C1741.57 1566.45 1742.75 1573.6 1751.18 1574.89C1755.42 1575.55 1760.02 1573.1 1761.49 1569.06C1759.21 1571.06 1756.57 1573.19 1753.56 1572.91C1751.63 1572.73 1749.84 1571.47 1749.02 1569.72C1748.2 1567.97 1748.38 1565.79 1749.47 1564.19C1749.11 1565.66 1750.76 1566.82 1752.23 1567.17C1754.37 1567.67 1756.76 1567.43 1758.52 1566.1C1761.18 1564.09 1760.77 1559.95 1760.21 1557.02C1759.46 1558.82 1757.91 1560.28 1756.07 1560.92C1750.87 1562.74 1748.33 1558.47 1748.51 1555.08C1748.76 1550.57 1750.65 1545.9 1752.01 1537.75C1752.76 1530.98 1754.46 1524.91 1754.96 1512.07C1757.97 1435.25 1691.35 1391.64 1627.9 1410.19C1611.38 1415.02 1596.64 1424.02 1577.35 1436.48C1553.82 1455.39 1544.2 1485 1548.14 1516.54C1550.03 1531.68 1565.2 1557.16 1566.77 1557.76C1565.55 1552.03 1563.93 1548.62 1564.1 1541.49C1564.25 1534.98 1569.3 1530.2 1571.26 1529C1566.15 1504.57 1570.16 1480.62 1578.61 1468.71C1573.15 1478.37 1574.38 1503.59 1585.07 1523.32C1585.76 1521.26 1616.52 1507.86 1641.08 1501.6C1641.84 1501.38 1640.39 1499.32 1640.8 1498.64C1641.15 1498.06 1638.48 1481.71 1638.51 1475.7C1639.64 1484.14 1648.78 1496.12 1656.16 1498.8C1654.95 1498.4 1671.09 1497.17 1682.3 1497.88Z" stroke="#5B2924" stroke-width="2" stroke-miterlimit="10"/>
<path d="M1606.92 1420.96C1583.82 1439.9 1569.09 1468.45 1568.63 1498.44C1568.33 1508.36 1569.28 1518.31 1570.72 1528.19C1568.52 1518.45 1567.03 1508.48 1567.07 1498.42C1566.67 1468.08 1582.11 1438.31 1606.92 1420.96ZM1609.27 1418.65C1576.69 1431.69 1554.12 1465.54 1556.13 1500.75C1556.61 1512.31 1559.33 1523.83 1564.33 1534.41C1558.63 1524.19 1555.32 1512.6 1554.57 1500.83C1551.58 1465.18 1575.3 1429.67 1609.27 1418.65ZM1673.91 1407.82C1676.51 1440.6 1678.53 1476.22 1699.86 1502.98C1705.05 1509.5 1711.13 1515.33 1717.91 1520.27C1718.54 1520.46 1718.82 1521.45 1718.93 1521.54C1708.3 1514.99 1699.13 1505.95 1692.37 1495.43C1675.9 1469.5 1674.25 1437.7 1673.91 1407.82ZM1660.28 1404.56C1659.54 1412.97 1660.25 1421.51 1661.28 1429.86C1663.47 1446.5 1668.02 1463.06 1675.55 1478.1C1679.39 1485.59 1683.93 1492.73 1689.25 1499.36C1671.31 1480.9 1662.2 1455.33 1659.73 1430.03C1658.98 1421.59 1658.75 1412.92 1660.28 1404.56ZM1693.14 1412.59C1715.52 1425.78 1731.73 1448.28 1738.04 1473.64C1740.67 1483.49 1742.01 1493.63 1742.31 1503.76C1741.23 1493.69 1739.39 1483.72 1736.54 1474.06C1729.11 1447.63 1712.37 1425.21 1689.12 1411.11C1688.88 1411.17 1693.05 1412.67 1693.14 1412.59ZM1677.97 1408.34C1703.79 1426.06 1718.74 1457.33 1718.68 1488.51C1718.86 1499.52 1717.45 1510.5 1714.9 1521.15C1716.69 1510.34 1717.55 1499.42 1717.12 1488.55C1716.34 1457.21 1701.65 1426.72 1676.57 1407.75C1675.43 1406.89 1676.38 1407.25 1677.97 1408.34ZM1641.31 1432.77C1639.04 1454.88 1643.76 1477.48 1653.61 1497.32C1652.59 1496.9 1650.81 1496.25 1650.11 1495.51C1645.77 1491.65 1642.53 1486.65 1640.23 1481.36C1639.4 1479.44 1638.77 1477.44 1638.29 1475.42C1640.9 1482.62 1645.26 1489.32 1651.11 1494.27C1651.48 1494.56 1651.92 1494.84 1652.19 1494.93L1651.18 1496.09C1648.67 1491.26 1646.54 1486.22 1644.83 1481.05C1639.7 1465.61 1637.96 1448.77 1641.31 1432.77ZM1585.69 1522.31C1574.33 1504.62 1571.93 1481.23 1579.01 1461.41C1584.55 1446.41 1594.64 1433.88 1605.57 1422.52C1609.4 1418.86 1613.76 1415.89 1618.19 1413.12C1611.77 1417.69 1605.96 1422.87 1601.19 1429.14C1596.24 1435.15 1591.52 1441.42 1587.57 1448.13C1582.94 1455.89 1579.42 1464.35 1577.87 1473.27C1575.15 1489.84 1577.56 1507.49 1585.69 1522.31ZM1653.09 1406.12C1640.78 1425.74 1638.67 1450.62 1638.93 1473.5C1639.13 1482.82 1639.75 1492.16 1641.06 1501.44C1638.99 1492.29 1637.83 1482.93 1637.37 1473.55C1636.4 1450.79 1638.72 1425.22 1651.89 1406.16C1651.97 1406.28 1653.09 1406.12 1653.09 1406.12ZM1622.11 1506.98C1616.02 1488.77 1614.49 1469.08 1616.87 1450.04C1618.85 1435.9 1622.51 1421.04 1632.08 1409.97C1632.47 1409.54 1632.87 1409.12 1633.27 1408.71C1633.4 1408.46 1634.77 1408.17 1634.74 1408.38C1634.07 1409.09 1633.43 1409.84 1632.83 1410.61C1624.04 1421.9 1620.77 1436.39 1618.85 1450.3C1616.43 1469.17 1617.58 1488.5 1622.11 1506.98ZM1616.53 1414.74C1580.58 1437.68 1546.24 1482.26 1560.76 1526.79C1561.89 1530.53 1563.89 1533.91 1565.25 1537.54C1565.46 1538.28 1565.66 1539.06 1566.21 1539.63C1565.62 1539.1 1565.36 1538.31 1565.11 1537.59C1564.67 1536.37 1563.59 1534.63 1562.99 1533.45C1561.88 1531.38 1560.93 1529.23 1560.05 1527.05C1543.24 1482.75 1578.84 1435.34 1616.53 1414.74ZM1597.95 1422.33C1593.57 1426.49 1588.6 1430 1584.3 1434.23C1579.94 1438.37 1575.97 1442.9 1572.39 1447.71C1554.36 1471.81 1548.17 1503.89 1555.65 1533.02C1556.74 1537.36 1558.06 1541.77 1559.81 1545.88C1560.5 1547.2 1561.69 1548.2 1562.92 1549.06C1561.64 1548.28 1560.37 1547.36 1559.55 1546.04C1558.19 1543.36 1557.14 1540.42 1556.1 1537.61C1545.38 1507.32 1551.26 1472 1571.15 1446.77C1574.89 1441.97 1579.08 1437.52 1583.64 1433.51C1588.2 1429.47 1593.27 1426.16 1597.95 1422.33ZM1618.42 1413.28C1595.03 1432.2 1586.54 1461.52 1591.08 1490.62C1592.63 1500.01 1595.96 1509.24 1601.68 1517.05C1598.5 1513.41 1595.95 1509.22 1593.91 1504.81C1587.89 1491.41 1587.1 1476.2 1588.94 1461.8C1591.49 1442.49 1602.37 1424.27 1618.42 1413.28Z" fill="#5B2924"/>
<path d="M1743.53 1534.56L1753.38 1538.1L1755.25 1530.13L1744.62 1528.57L1743.53 1534.56ZM1745.07 1523.26L1755.05 1524.85L1755.04 1519.12L1745.09 1518.42L1745.07 1523.26Z" fill="#EEB657"/>
<path d="M1574.97 1389.37C1561.78 1399.52 1565.86 1423.06 1583.26 1425.63C1588.3 1426.37 1593.42 1425.12 1598.25 1423.52C1603.49 1421.78 1609.02 1419.46 1613.71 1416.52C1618.49 1413.53 1623.66 1411.75 1629.14 1410.22C1636.34 1408.2 1644.05 1406.65 1651.67 1406.36C1655.54 1406.22 1659.42 1406.38 1663.26 1406.92C1667.02 1407.44 1670.32 1409.01 1674 1409.63C1678.7 1410.41 1683.75 1410.18 1687.79 1407.4C1690.32 1405.66 1692.2 1403.09 1693.61 1400.35C1698.86 1390.13 1697.75 1380.04 1690.3 1371.28C1682.86 1362.53 1669.49 1359.22 1659.01 1363.93C1648.53 1368.65 1642.13 1381.26 1644.98 1392.4C1636.1 1378.72 1618.47 1381.25 1623.63 1399.44C1607.24 1394.21 1594.33 1374.46 1574.97 1389.37Z" fill="#E65680"/>
<path d="M1968.41 2384.66C1968.41 2384.66 1947.61 2261.8 1907.97 2165.69C1868.34 2060.66 1854.03 2018.27 1854.03 2018.27C1854.03 2018.27 1841.26 2028.84 1798.98 2036.88C1724.89 2050.96 1619.31 2040.51 1599.83 2015.08L1585.96 2067.59C1585.96 2067.59 1519.57 2166.68 1516.6 2420.33C1519.57 2418.35 1685.04 2420.33 1685.04 2420.33C1685.04 2420.33 1710.8 2313.32 1712.78 2269.72C1713.77 2268.73 1726.65 2263.78 1733.59 2263.78C1740.52 2263.78 1757.37 2357.91 1801.96 2420.33C1801.96 2420.33 1974.36 2434.2 1968.41 2384.66Z" fill="#B9AE96"/>
<path d="M1532.72 2232.55C1532.72 2232.55 1548.54 2221.17 1557.46 2208.29C1566.38 2195.41 1592.14 2099.3 1592.14 2099.3L1594.12 2086.42M1829.42 2093.4C1835.35 2117.1 1850.39 2175.45 1856.69 2182.53C1864.62 2191.45 1881.46 2209.28 1891.37 2213.24C1901.28 2217.21 1926.05 2220.18 1926.05 2220.18M1663.92 2108.88L1664.8 2181.54C1664.8 2181.54 1667.88 2224.69 1674.49 2229.98C1681.09 2235.26 1706.19 2234.82 1706.19 2234.82C1706.19 2234.82 1694.3 2202.24 1695.19 2173.61C1696.07 2144.95 1696.51 2111.08 1696.51 2111.08L1663.92 2108.88Z" stroke="#9A967E" stroke-width="2" stroke-miterlimit="10"/>
<path d="M1697.38 2285.86C1684.48 2287.13 1671.36 2286.21 1658.75 2283.16C1670.24 2277 1682.3 2271.92 1694.73 2268C1677.4 2270.48 1659.62 2269.8 1642.52 2266.02C1661.66 2266.12 1680.8 2266.21 1699.94 2266.3C1696.12 2263.93 1692.49 2261.23 1689.11 2258.26C1691.29 2262.4 1696.71 2263.82 1701.34 2263.09C1705.96 2262.37 1710.14 2260.03 1714.53 2258.4C1721.65 2255.76 1729.46 2255.01 1736.95 2256.25C1729.73 2255.62 1722.52 2254.99 1715.3 2254.36C1734.37 2247.64 1753.7 2240.87 1773.85 2239.18C1759.95 2247.77 1745.03 2254.71 1729.5 2259.8C1734.01 2259.71 1739 2259.5 1743.51 2259.41C1738.82 2260.48 1734.13 2261.56 1729.43 2262.63C1725.67 2263.49 1721.91 2264.35 1718.22 2265.5C1716.17 2266.14 1714.15 2266.86 1712.07 2267.4C1708.16 2268.4 1704.08 2268.71 1700.07 2268.32" stroke="#A8A088" stroke-width="2" stroke-miterlimit="10"/>
<path d="M1890.38 2287.56C1890.38 2287.56 1909.1 2413.7 1911.18 2417.35C1913.83 2421.98 1923.07 2422.31 1923.07 2422.31C1923.07 2422.31 1975.59 2422.31 1973.61 2386.64C1971.62 2350.97 1942.89 2256.84 1942.89 2256.84L1890.38 2287.56Z" fill="#BDB29A"/>
<path d="M1890.38 2287.56C1890.38 2287.56 1909.1 2413.7 1911.18 2417.35C1913.83 2421.98 1923.07 2422.31 1923.07 2422.31C1923.07 2422.31 1975.59 2422.31 1973.61 2386.64C1971.62 2350.97 1942.89 2256.84 1942.89 2256.84L1890.38 2287.56Z" stroke="#9A967E" stroke-width="2" stroke-miterlimit="10"/>
<path d="M1873.17 2243.65C1880.77 2242.13 1913.37 2235.28 1929.5 2225.97C1931.52 2224.8 1934.09 2225.69 1934.97 2227.85C1937.42 2233.81 1942.09 2249.37 1944.58 2255.15C1945.88 2258.17 1946.04 2261.56 1944.95 2264.66C1941.4 2274.77 1917.89 2289.42 1886.42 2298.46C1882.86 2299.34 1873.71 2254.71 1871.87 2245.58C1871.7 2244.69 1872.27 2243.82 1873.17 2243.65Z" fill="#BDB29A"/>
<path d="M1873.17 2243.65C1880.77 2242.13 1913.37 2235.28 1929.5 2225.97C1931.52 2224.8 1934.09 2225.69 1934.97 2227.85C1937.42 2233.81 1942.09 2249.37 1944.58 2255.15C1945.88 2258.17 1946.04 2261.56 1944.95 2264.66C1941.4 2274.77 1917.89 2289.42 1886.42 2298.46C1882.86 2299.34 1873.71 2254.71 1871.87 2245.58C1871.7 2244.69 1872.27 2243.82 1873.17 2243.65Z" stroke="#9A967E" stroke-width="2" stroke-miterlimit="10"/>
<path d="M1544.58 2286.57L1531.7 2378.71C1531.7 2378.71 1523.77 2402.82 1516.84 2404.8C1509.9 2406.79 1522.12 2274.02 1522.12 2274.02L1544.58 2286.57Z" fill="#BDB29A"/>
<path d="M1544.58 2286.57L1531.7 2378.71C1531.7 2378.71 1523.77 2402.82 1516.84 2404.8C1509.9 2406.79 1522.12 2274.02 1522.12 2274.02L1544.58 2286.57Z" stroke="#9A967E" stroke-width="2" stroke-miterlimit="10"/>
<path d="M1527.41 2254.86C1523.13 2258.03 1519.91 2261.03 1517.68 2263.87C1514.63 2267.76 1514.02 2273.04 1516.11 2277.53L1525.34 2297.4C1526.06 2298.96 1528.03 2299.43 1529.38 2298.38L1544.58 2286.56C1544.58 2286.56 1526.74 2263.45 1527.41 2254.86Z" fill="#BDB29A"/>
<path d="M1527.41 2254.86C1523.13 2258.03 1519.91 2261.03 1517.68 2263.87C1514.63 2267.76 1514.02 2273.04 1516.11 2277.53L1525.34 2297.4C1526.06 2298.96 1528.03 2299.43 1529.38 2298.38L1544.58 2286.56C1544.58 2286.56 1526.74 2263.45 1527.41 2254.86Z" stroke="#9A967E" stroke-width="2" stroke-miterlimit="10"/>
<path d="M1688.19 2073.98C1694.54 2074.42 1699.44 2078.44 1699.13 2082.97C1698.81 2087.5 1693.41 2090.81 1687.05 2090.37C1680.7 2089.93 1675.8 2085.9 1676.11 2081.38C1676.42 2076.85 1681.83 2073.54 1688.19 2073.98ZM1688.94 2048.37C1694.83 2048.77 1699.38 2052.51 1699.09 2056.7C1698.8 2060.9 1693.78 2063.97 1687.89 2063.57C1681.99 2063.16 1677.45 2059.42 1677.74 2055.23C1678.03 2051.03 1683.05 2047.96 1688.94 2048.37Z" fill="#9A967E"/>
<g style="mix-blend-mode:multiply">
<path d="M1589.59 2053.06C1593.78 2098.21 1752.22 2099.91 1862.29 2041.7C1862.27 2041.92 1874.14 2074.29 1874.19 2074.36C1838.73 2096.04 1751.53 2117.8 1679.65 2110.2C1609.71 2102.81 1588.31 2085.69 1583.89 2070.96C1584.02 2070.92 1586.02 2067.42 1585.85 2067.59C1587.36 2061.36 1589.77 2052.79 1589.59 2053.06Z" fill="#B9AE96" fill-opacity="0.12"/>
</g>
<path d="M1578.49 2078.93C1578.49 2078.93 1669.2 2151.59 1875.3 2078.05" stroke="#9A967E" stroke-width="2" stroke-miterlimit="10"/>
<path d="M1767.19 2119.45C1772.03 2119.89 1805.14 2112.65 1808.8 2110.2C1815.83 2105.48 1799.33 2039.96 1792.29 2035.56C1779.61 2036.88 1769.28 2038.53 1750.67 2041.17C1762.49 2064.45 1765.89 2095.92 1767.19 2119.45Z" fill="#BDB29A"/>
<path d="M1767.19 2119.45C1772.03 2119.89 1805.14 2112.65 1808.8 2110.2C1815.83 2105.48 1799.33 2039.96 1792.29 2035.56C1779.61 2036.88 1769.28 2038.53 1750.67 2041.17C1762.49 2064.45 1765.89 2095.92 1767.19 2119.45Z" stroke="#9A967E" stroke-width="2" stroke-miterlimit="10"/>
<path d="M1837.2 2024.99C1851.52 2041.5 1858.34 2073.87 1862.31 2094.35C1871.79 2091.9 1878.1 2089.92 1883.22 2085.1C1878.78 2062.54 1867.81 2036.66 1855.04 2015.52C1848.2 2019.74 1844.61 2021.88 1837.2 2024.99Z" fill="#BDB29A"/>
<path d="M1837.2 2024.99C1851.52 2041.5 1858.34 2073.87 1862.31 2094.35C1871.79 2091.9 1878.1 2089.92 1883.22 2085.1C1878.78 2062.54 1867.81 2036.66 1855.04 2015.52C1848.2 2019.74 1844.61 2021.88 1837.2 2024.99Z" stroke="#9A967E" stroke-width="2" stroke-miterlimit="10"/>
<path d="M1597.42 2100.95C1597.42 2100.95 1580.89 2093.92 1577.49 2087.76C1574.06 2083.38 1598.1 2014.26 1599.63 2014.64C1602.14 2016.61 1605.71 2019.66 1619.44 2025.65C1610.26 2042.18 1602.75 2072.08 1597.42 2100.95Z" fill="#BDB29A"/>
<path d="M1597.42 2100.95C1597.42 2100.95 1580.89 2093.92 1577.49 2087.76C1574.06 2083.38 1598.1 2014.26 1599.63 2014.64C1602.14 2016.61 1605.71 2019.66 1619.44 2025.65C1610.26 2042.18 1602.75 2072.08 1597.42 2100.95Z" stroke="#9A967E" stroke-width="2" stroke-miterlimit="10"/>
<path d="M1672.37 1619.29C1672.65 1620.04 1663.35 1621.62 1653.02 1624.68C1642.7 1627.74 1635.07 1631.11 1634.1 1630.53C1633.12 1629.96 1639.63 1625.56 1650.75 1622.29C1661.86 1619.03 1672.18 1618.59 1672.37 1619.29Z" fill="#263238"/>
<path d="M1544 1601L1508.85 1542.25C1530.62 1508.77 1538.4 1468.77 1530.65 1430.13C1522.91 1391.49 1500.2 1356.99 1466.99 1333.42C1433.77 1309.85 1392.47 1298.91 1351.18 1302.75C1309.89 1306.6 1271.62 1324.94 1243.87 1354.18C1216.13 1383.43 1200.92 1421.45 1201.25 1460.78C1201.57 1500.12 1217.4 1537.91 1245.63 1566.74C1273.85 1595.57 1312.43 1613.34 1353.77 1616.57C1395.11 1619.8 1436.24 1608.25 1469.06 1584.19L1544 1601Z" fill="#FAFAFA"/>
<path d="M1543.99 1601L1468.89 1584.75H1468.14L1468.62 1584.15L1469.32 1584.86C1458.81 1592.59 1447.36 1599.13 1435.23 1604.32C1420.78 1610.46 1405.47 1614.62 1389.78 1616.66C1381.09 1617.81 1372.32 1618.22 1363.55 1617.89C1359.03 1617.67 1354.43 1617.55 1349.79 1617.18L1335.79 1615.17C1303.42 1609.15 1273.65 1594.19 1250.22 1572.17C1226.8 1550.14 1210.77 1522.04 1204.15 1491.39C1199.37 1468.23 1200.04 1444.35 1206.12 1421.45C1212.33 1397.55 1224.46 1375.39 1241.5 1356.81L1248.27 1349.76C1250.47 1347.38 1253.14 1345.4 1255.54 1343.24C1257.94 1341.08 1260.34 1338.84 1263.09 1337.01L1270.95 1331.38C1273.56 1329.48 1276.31 1327.74 1279.17 1326.2L1287.59 1321.35L1296.4 1317.33C1299.27 1315.91 1302.24 1314.66 1305.28 1313.6C1328.88 1304.75 1354.28 1301.06 1379.6 1302.79C1403.54 1304.33 1426.83 1310.85 1447.82 1321.88C1485.46 1341.81 1513.61 1374.67 1526.46 1413.7C1531.56 1430.31 1533.99 1447.55 1533.65 1464.85C1532.79 1492.45 1524.24 1519.35 1508.88 1542.81V1542.32L1543.6 1601.3L1508.41 1542.51V1542.25V1542.02C1515.2 1531.47 1520.67 1520.21 1524.73 1508.47C1529.53 1494.3 1532.18 1479.55 1532.59 1464.66C1532.87 1447.52 1530.4 1430.44 1525.28 1414C1512.46 1375.4 1484.51 1342.93 1447.19 1323.29C1426.42 1312.48 1403.4 1306.12 1379.75 1304.65C1354.77 1302.88 1329.68 1306.45 1306.34 1315.09C1303.32 1316.16 1300.36 1317.41 1297.5 1318.82L1288.81 1322.84L1280.51 1327.62C1277.68 1329.15 1274.96 1330.86 1272.37 1332.72L1264.51 1338.32C1261.83 1340.11 1259.59 1342.42 1257.07 1344.43C1254.56 1346.44 1252.12 1348.64 1249.92 1350.84L1243.23 1357.81C1226.35 1376.16 1214.31 1398.05 1208.12 1421.68C1202.11 1444.29 1201.42 1467.87 1206.12 1490.76C1210.68 1512.41 1220.06 1532.89 1233.64 1550.82C1258.13 1583.2 1294.67 1605.57 1335.87 1613.42L1349.75 1615.43C1354.35 1615.8 1358.91 1615.95 1363.4 1616.17C1372.08 1616.53 1380.78 1616.14 1389.39 1615.02C1404.96 1613.06 1420.15 1609.02 1434.53 1603.01C1446.61 1597.88 1458.02 1591.44 1468.54 1583.81L1471.6 1581.58L1469.25 1584.49L1468.97 1583.74L1543.99 1601Z" fill="#263238"/>
<path d="M1331.04 1373.01C1330.22 1372.81 1329.37 1372.62 1328.49 1372.45C1327.71 1372.28 1326.8 1372.14 1325.78 1372.04C1324.8 1371.91 1323.76 1371.84 1322.67 1371.84C1320.16 1371.84 1318.36 1372.23 1317.27 1373.01C1316.18 1373.76 1315.64 1374.93 1315.64 1376.53C1315.67 1377.79 1316.13 1378.86 1317.01 1379.74C1317.9 1380.59 1319 1381.39 1320.33 1382.14C1321.65 1382.85 1323.1 1383.57 1324.66 1384.28C1326.26 1384.96 1327.72 1385.76 1329.05 1386.68C1330.37 1387.56 1331.48 1388.62 1332.36 1389.84C1333.28 1391.03 1333.74 1392.49 1333.74 1394.23C1333.74 1396.23 1333.3 1397.85 1332.41 1399.07C1331.56 1400.3 1330.48 1401.25 1329.15 1401.93C1327.82 1402.61 1326.36 1403.07 1324.76 1403.31C1323.2 1403.54 1321.7 1403.66 1320.28 1403.66C1318.92 1403.66 1317.68 1403.58 1316.55 1403.41C1315.43 1403.24 1314.46 1403.05 1313.65 1402.85C1312.69 1402.61 1311.83 1402.34 1311.05 1402.03L1312.07 1397.9C1312.85 1398.24 1313.68 1398.53 1314.56 1398.77C1315.35 1398.97 1316.21 1399.16 1317.17 1399.33C1318.15 1399.5 1319.19 1399.58 1320.28 1399.58C1321.6 1399.58 1322.81 1399.5 1323.9 1399.33C1325.02 1399.16 1325.99 1398.89 1326.8 1398.51C1327.62 1398.14 1328.25 1397.64 1328.69 1397.03C1329.17 1396.42 1329.41 1395.67 1329.41 1394.79C1329.37 1393.46 1328.93 1392.39 1328.08 1391.58C1327.26 1390.73 1326.16 1389.93 1324.76 1389.18C1323.4 1388.4 1321.93 1387.65 1320.33 1386.93C1318.76 1386.22 1317.32 1385.4 1315.99 1384.49C1314.67 1383.57 1313.54 1382.48 1312.63 1381.22C1311.74 1379.96 1311.3 1378.4 1311.3 1376.53C1311.3 1375.44 1311.49 1374.37 1311.86 1373.32C1312.24 1372.26 1312.86 1371.33 1313.75 1370.51C1314.67 1369.7 1315.84 1369.03 1317.27 1368.52C1318.73 1368.01 1320.53 1367.76 1322.67 1367.76C1323.9 1367.76 1325.05 1367.83 1326.14 1367.96C1327.26 1368.06 1328.23 1368.18 1329.05 1368.32C1330 1368.49 1330.9 1368.68 1331.75 1368.88L1331.04 1373.01ZM1342.17 1390.3C1342.17 1393.6 1342.9 1396.06 1344.37 1397.7C1345.86 1399.29 1347.87 1400.09 1350.38 1400.09C1352.87 1400.09 1354.8 1399.29 1356.2 1397.7C1357.59 1396.1 1358.29 1393.7 1358.29 1390.5C1358.29 1387.1 1357.54 1384.57 1356.05 1382.91C1354.58 1381.24 1352.58 1380.41 1350.03 1380.41C1347.48 1380.41 1345.52 1381.24 1344.16 1382.91C1342.84 1384.54 1342.17 1387 1342.17 1390.3ZM1337.84 1390.25C1337.84 1387.67 1338.25 1385.52 1339.06 1383.82C1339.88 1382.09 1340.92 1380.71 1342.17 1379.69C1343.43 1378.64 1344.77 1377.91 1346.2 1377.5C1347.66 1377.06 1349.04 1376.84 1350.33 1376.84C1351.56 1376.84 1352.88 1377.04 1354.31 1377.45C1355.77 1377.82 1357.12 1378.52 1358.34 1379.54C1359.56 1380.53 1360.58 1381.87 1361.4 1383.57C1362.22 1385.23 1362.62 1387.36 1362.62 1389.94C1362.62 1392.63 1362.2 1394.86 1361.35 1396.62C1360.53 1398.39 1359.5 1399.8 1358.24 1400.86C1356.98 1401.88 1355.62 1402.59 1354.16 1403C1352.7 1403.44 1351.34 1403.66 1350.08 1403.66C1348.79 1403.66 1347.43 1403.46 1346 1403.05C1344.57 1402.64 1343.24 1401.95 1342.02 1400.96C1340.83 1399.94 1339.83 1398.56 1339.01 1396.83C1338.23 1395.09 1337.84 1392.9 1337.84 1390.25ZM1368.6 1381.48C1368.6 1380.7 1368.52 1379.47 1368.35 1377.81L1372.12 1377.3L1372.53 1381.02H1372.58C1373.19 1380.24 1373.79 1379.56 1374.37 1378.98C1374.94 1378.4 1375.54 1377.91 1376.15 1377.5C1376.8 1377.06 1377.41 1376.84 1377.99 1376.84C1378.77 1376.8 1379.86 1376.89 1381.25 1377.09L1380.33 1381.02C1379.21 1380.81 1378.43 1380.73 1377.99 1380.76C1377.41 1380.76 1376.8 1381.04 1376.15 1381.58C1375.5 1382.12 1374.94 1382.7 1374.47 1383.31C1373.86 1384.06 1373.26 1384.91 1372.68 1385.86V1403H1368.6V1381.48ZM1385.79 1381.48C1385.79 1380.7 1385.7 1379.47 1385.53 1377.81L1389.3 1377.3L1389.71 1381.02H1389.76C1390.38 1380.24 1390.97 1379.56 1391.55 1378.98C1392.13 1378.4 1392.72 1377.91 1393.33 1377.5C1393.98 1377.06 1394.59 1376.84 1395.17 1376.84C1395.95 1376.8 1397.04 1376.89 1398.43 1377.09L1397.52 1381.02C1396.39 1380.81 1395.61 1380.73 1395.17 1380.76C1394.59 1380.76 1393.98 1381.04 1393.33 1381.58C1392.69 1382.12 1392.13 1382.7 1391.65 1383.31C1391.04 1384.06 1390.44 1384.91 1389.87 1385.86V1403H1385.79V1381.48ZM1399.6 1377.35H1403.94L1408.73 1388.92C1409.21 1390.05 1409.63 1391.17 1410.01 1392.29C1410.41 1393.41 1410.77 1394.41 1411.08 1395.3C1411.45 1396.35 1411.77 1397.37 1412.05 1398.36H1412.1C1412.4 1397.37 1412.74 1396.35 1413.12 1395.3C1413.42 1394.41 1413.78 1393.41 1414.19 1392.29C1414.6 1391.17 1415.02 1390.05 1415.46 1388.92L1419.9 1377.35H1424.18L1412.05 1407.95C1411.57 1409.21 1410.94 1410.29 1410.16 1411.21C1409.41 1412.13 1408.68 1412.89 1407.97 1413.51C1407.12 1414.22 1406.23 1414.83 1405.31 1415.34L1403.33 1411.82C1404.04 1411.48 1404.7 1411.06 1405.31 1410.55C1405.86 1410.11 1406.4 1409.55 1406.95 1408.87C1407.49 1408.22 1407.93 1407.44 1408.27 1406.52L1409.85 1402.34L1399.6 1377.35ZM1289.98 1430.7V1438.35H1297.37V1441.66H1289.98V1455.28C1289.98 1456.4 1289.99 1457.34 1290.03 1458.08C1290.09 1458.83 1290.21 1459.43 1290.38 1459.87C1290.55 1460.31 1290.79 1460.63 1291.1 1460.84C1291.4 1461.01 1291.79 1461.09 1292.27 1461.09C1293.56 1461.06 1295.06 1460.58 1296.76 1459.66L1297.98 1462.78C1296.86 1463.52 1295.81 1464.02 1294.82 1464.26C1293.87 1464.53 1292.92 1464.66 1291.96 1464.66C1289.72 1464.66 1288.14 1464.03 1287.22 1462.78C1286.34 1461.48 1285.9 1459.36 1285.9 1456.4V1441.66H1281.2V1438.35H1285.9V1431.21L1289.98 1430.7ZM1302.59 1438.3L1306.67 1437.84V1464H1302.59V1438.3ZM1301.92 1431C1301.92 1430.22 1302.18 1429.57 1302.69 1429.06C1303.23 1428.52 1303.89 1428.25 1304.68 1428.25C1305.49 1428.25 1306.17 1428.52 1306.72 1429.06C1307.29 1429.57 1307.58 1430.22 1307.58 1431C1307.58 1431.78 1307.29 1432.45 1306.72 1432.99C1306.17 1433.5 1305.49 1433.76 1304.68 1433.76C1303.89 1433.76 1303.23 1433.5 1302.69 1432.99C1302.18 1432.45 1301.92 1431.78 1301.92 1431ZM1314.04 1442.99C1314.04 1441.83 1313.94 1440.44 1313.74 1438.81L1317.56 1438.3L1318.12 1441.51C1319.04 1440.83 1319.94 1440.23 1320.82 1439.72C1321.71 1439.21 1322.66 1438.77 1323.68 1438.4C1324.7 1438.02 1325.74 1437.84 1326.79 1437.84C1328.49 1437.84 1329.83 1438.14 1330.82 1438.75C1331.81 1439.33 1332.54 1440.34 1333.01 1441.76C1334.41 1440.78 1335.85 1439.88 1337.35 1439.06C1338.88 1438.24 1340.46 1437.84 1342.09 1437.84C1343.35 1437.84 1344.42 1438.01 1345.3 1438.35C1346.19 1438.65 1346.9 1439.18 1347.45 1439.93C1347.99 1440.68 1348.38 1441.66 1348.62 1442.89C1348.86 1444.11 1348.98 1445.64 1348.98 1447.48V1464H1344.9V1447.93C1344.9 1446.91 1344.88 1446.01 1344.85 1445.23C1344.81 1444.42 1344.69 1443.74 1344.49 1443.19C1344.28 1442.61 1343.94 1442.17 1343.47 1441.87C1343.03 1441.56 1342.38 1441.41 1341.53 1441.41C1340.75 1441.41 1340 1441.53 1339.29 1441.76C1338.61 1441.97 1337.89 1442.27 1337.14 1442.68C1336.4 1443.09 1335.24 1443.92 1333.68 1445.18V1464H1329.6V1447.93C1329.6 1446.91 1329.58 1446.01 1329.55 1445.23C1329.51 1444.42 1329.39 1443.74 1329.19 1443.19C1328.98 1442.61 1328.64 1442.17 1328.17 1441.87C1327.73 1441.56 1327.08 1441.41 1326.23 1441.41C1325.35 1441.41 1324.43 1441.59 1323.48 1441.97C1322.52 1442.34 1321.62 1442.78 1320.77 1443.29C1319.92 1443.8 1319.04 1444.4 1318.12 1445.08V1464H1314.04V1442.99ZM1375.15 1463.39C1374.37 1463.63 1373.55 1463.83 1372.7 1464C1371.88 1464.17 1370.97 1464.32 1369.95 1464.46C1368.96 1464.6 1367.92 1464.66 1366.83 1464.66C1365.13 1464.66 1363.55 1464.43 1362.09 1463.95C1360.63 1463.47 1359.35 1462.71 1358.27 1461.65C1357.18 1460.6 1356.31 1459.24 1355.67 1457.57C1355.05 1455.87 1354.75 1453.8 1354.75 1451.35C1354.75 1449.14 1355.05 1447.2 1355.67 1445.54C1356.28 1443.84 1357.11 1442.43 1358.16 1441.3C1359.25 1440.15 1360.51 1439.28 1361.94 1438.7C1363.4 1438.13 1364.98 1437.84 1366.68 1437.84C1368.35 1437.84 1369.79 1438.16 1371.02 1438.81C1372.24 1439.45 1373.24 1440.34 1374.03 1441.46C1374.84 1442.55 1375.44 1443.84 1375.81 1445.33C1376.22 1446.8 1376.42 1448.34 1376.42 1449.97L1375.66 1452.22H1359.18C1359.18 1453.27 1359.32 1454.33 1359.59 1455.38C1359.86 1456.43 1360.32 1457.39 1360.97 1458.24C1361.65 1459.09 1362.52 1459.78 1363.57 1460.33C1364.66 1460.84 1366 1461.09 1367.6 1461.09C1368.62 1461.09 1369.55 1461.04 1370.4 1460.94C1371.25 1460.8 1371.99 1460.67 1372.6 1460.53C1373.24 1460.36 1373.84 1460.17 1374.38 1459.97L1375.15 1463.39ZM1372.19 1448.95C1372.19 1448.72 1372.14 1448.19 1372.04 1447.37C1371.93 1446.56 1371.7 1445.71 1371.32 1444.82C1370.95 1443.94 1370.37 1443.16 1369.59 1442.48C1368.81 1441.76 1367.77 1441.41 1366.48 1441.41C1365.05 1441.41 1363.88 1441.71 1362.96 1442.32C1362.04 1442.9 1361.31 1443.6 1360.77 1444.42C1360.22 1445.23 1359.85 1446.06 1359.64 1446.91C1359.44 1447.76 1359.34 1448.44 1359.34 1448.95H1372.19ZM1396.54 1451.3C1396.54 1454.6 1397.27 1457.06 1398.73 1458.7C1400.22 1460.29 1402.23 1461.09 1404.75 1461.09C1407.23 1461.09 1409.17 1460.29 1410.56 1458.7C1411.95 1457.1 1412.65 1454.7 1412.65 1451.5C1412.65 1448.1 1411.9 1445.57 1410.41 1443.91C1408.95 1442.24 1406.94 1441.41 1404.39 1441.41C1401.84 1441.41 1399.88 1442.24 1398.52 1443.91C1397.2 1445.54 1396.54 1448 1396.54 1451.3ZM1392.2 1451.25C1392.2 1448.67 1392.61 1446.52 1393.42 1444.82C1394.24 1443.09 1395.28 1441.71 1396.54 1440.69C1397.79 1439.64 1399.14 1438.91 1400.56 1438.5C1402.03 1438.06 1403.4 1437.84 1404.7 1437.84C1405.92 1437.84 1407.25 1438.04 1408.67 1438.45C1410.14 1438.82 1411.48 1439.52 1412.7 1440.54C1413.93 1441.53 1414.95 1442.87 1415.76 1444.57C1416.58 1446.23 1416.99 1448.36 1416.99 1450.94C1416.99 1453.63 1416.56 1455.86 1415.71 1457.62C1414.9 1459.39 1413.86 1460.8 1412.6 1461.86C1411.34 1462.88 1409.98 1463.59 1408.52 1464C1407.06 1464.44 1405.7 1464.66 1404.44 1464.66C1403.15 1464.66 1401.79 1464.46 1400.36 1464.05C1398.93 1463.64 1397.61 1462.95 1396.38 1461.96C1395.19 1460.94 1394.19 1459.56 1393.37 1457.83C1392.59 1456.09 1392.2 1453.9 1392.2 1451.25ZM1438.26 1461.19H1438.16C1437.86 1461.43 1437.41 1461.76 1436.84 1462.16C1436.26 1462.54 1435.6 1462.91 1434.85 1463.29C1434.1 1463.66 1433.27 1463.98 1432.35 1464.26C1431.46 1464.53 1430.56 1464.66 1429.65 1464.66C1428.39 1464.66 1427.32 1464.49 1426.43 1464.15C1425.55 1463.85 1424.83 1463.32 1424.29 1462.57C1423.75 1461.82 1423.36 1460.84 1423.12 1459.61C1422.88 1458.39 1422.76 1456.86 1422.76 1455.02V1438.35H1426.84V1454.41C1426.84 1455.43 1426.86 1456.35 1426.89 1457.17C1426.93 1457.98 1427.04 1458.68 1427.25 1459.26C1427.45 1459.83 1427.78 1460.29 1428.22 1460.63C1428.69 1460.94 1429.36 1461.09 1430.21 1461.09C1431.09 1461.09 1432.01 1460.91 1432.96 1460.53C1433.91 1460.16 1434.78 1459.73 1435.56 1459.26C1436.48 1458.71 1437.38 1458.1 1438.26 1457.42V1438.35H1442.34V1460.68C1442.38 1461.91 1442.46 1463.01 1442.6 1464L1438.57 1464.41L1438.26 1461.19ZM1455.73 1430.7V1438.35H1463.12V1441.66H1455.73V1455.28C1455.73 1456.4 1455.74 1457.34 1455.78 1458.08C1455.84 1458.83 1455.96 1459.43 1456.13 1459.87C1456.3 1460.31 1456.54 1460.63 1456.85 1460.84C1457.15 1461.01 1457.54 1461.09 1458.02 1461.09C1459.31 1461.06 1460.81 1460.58 1462.51 1459.66L1463.73 1462.78C1462.61 1463.52 1461.56 1464.02 1460.57 1464.26C1459.62 1464.53 1458.67 1464.66 1457.71 1464.66C1455.47 1464.66 1453.89 1464.03 1452.97 1462.78C1452.09 1461.48 1451.65 1459.36 1451.65 1456.4V1441.66H1446.95V1438.35H1451.65V1431.21L1455.73 1430.7ZM1284.31 1527.45C1284.31 1528.71 1284.17 1529.93 1283.9 1531.12C1283.63 1532.31 1283.1 1533.36 1282.32 1534.28C1281.57 1535.23 1280.5 1535.98 1279.1 1536.53C1277.74 1537.1 1275.94 1537.39 1273.7 1537.39C1272.27 1537.36 1271.03 1537.27 1269.97 1537.14C1268.92 1537 1267.92 1536.8 1266.97 1536.53C1266.01 1536.29 1265.15 1536 1264.36 1535.66L1265.44 1532.09C1266.76 1532.67 1268.1 1533.11 1269.46 1533.42C1270.86 1533.72 1272.1 1533.87 1273.19 1533.87C1274.38 1533.87 1275.41 1533.76 1276.3 1533.52C1277.18 1533.28 1277.91 1532.87 1278.49 1532.29C1279.1 1531.75 1279.55 1531.02 1279.82 1530.1C1280.12 1529.18 1280.28 1528.04 1280.28 1526.68V1522.96C1279.56 1523.44 1278.81 1523.88 1278.03 1524.29C1277.28 1524.66 1276.47 1524.98 1275.58 1525.26C1274.73 1525.53 1273.9 1525.66 1273.09 1525.66C1269.92 1525.66 1267.42 1524.56 1265.59 1522.35C1263.75 1520.1 1262.83 1516.77 1262.83 1512.35C1262.83 1509.8 1263.23 1507.68 1264.01 1505.98C1264.82 1504.24 1265.84 1502.85 1267.07 1501.79C1268.29 1500.74 1269.63 1499.99 1271.1 1499.55C1272.56 1499.07 1273.95 1498.84 1275.28 1498.84C1277.01 1498.84 1278.59 1498.99 1280.02 1499.3C1281.48 1499.57 1282.91 1499.79 1284.31 1499.96V1527.45ZM1273.54 1522.09C1274.29 1522.09 1275.06 1521.96 1275.84 1521.68C1276.62 1521.41 1277.37 1521.09 1278.08 1520.72C1278.83 1520.34 1279.56 1519.9 1280.28 1519.39V1503.12C1279.87 1503.02 1279.39 1502.9 1278.85 1502.76C1278.37 1502.7 1277.83 1502.63 1277.22 1502.56C1276.6 1502.46 1275.96 1502.41 1275.28 1502.41C1273.85 1502.41 1272.63 1502.66 1271.61 1503.17C1270.59 1503.68 1269.74 1504.38 1269.06 1505.26C1268.41 1506.15 1267.93 1507.18 1267.63 1508.37C1267.32 1509.56 1267.17 1510.82 1267.17 1512.15C1267.17 1513.34 1267.29 1514.53 1267.53 1515.72C1267.8 1516.91 1268.21 1517.98 1268.75 1518.93C1269.29 1519.88 1269.96 1520.65 1270.74 1521.23C1271.52 1521.8 1272.46 1522.09 1273.54 1522.09ZM1294.56 1512.3C1294.56 1515.6 1295.29 1518.06 1296.75 1519.7C1298.25 1521.29 1300.26 1522.09 1302.77 1522.09C1305.25 1522.09 1307.19 1521.29 1308.59 1519.7C1309.98 1518.1 1310.68 1515.7 1310.68 1512.5C1310.68 1509.1 1309.93 1506.57 1308.43 1504.91C1306.97 1503.24 1304.96 1502.41 1302.41 1502.41C1299.86 1502.41 1297.91 1503.24 1296.55 1504.91C1295.22 1506.54 1294.56 1509 1294.56 1512.3ZM1290.23 1512.25C1290.23 1509.67 1290.63 1507.52 1291.45 1505.82C1292.27 1504.09 1293.3 1502.71 1294.56 1501.69C1295.82 1500.64 1297.16 1499.91 1298.59 1499.5C1300.05 1499.06 1301.43 1498.84 1302.72 1498.84C1303.94 1498.84 1305.27 1499.04 1306.7 1499.45C1308.16 1499.82 1309.5 1500.52 1310.73 1501.54C1311.95 1502.53 1312.97 1503.87 1313.79 1505.57C1314.6 1507.23 1315.01 1509.36 1315.01 1511.94C1315.01 1514.63 1314.59 1516.86 1313.74 1518.62C1312.92 1520.39 1311.88 1521.8 1310.63 1522.86C1309.37 1523.88 1308.01 1524.59 1306.55 1525C1305.08 1525.44 1303.72 1525.66 1302.47 1525.66C1301.17 1525.66 1299.81 1525.46 1298.39 1525.05C1296.96 1524.64 1295.63 1523.95 1294.41 1522.96C1293.22 1521.94 1292.21 1520.56 1291.4 1518.83C1290.62 1517.09 1290.23 1514.9 1290.23 1512.25ZM1323.85 1512.3C1323.85 1515.6 1324.58 1518.06 1326.04 1519.7C1327.53 1521.29 1329.54 1522.09 1332.06 1522.09C1334.54 1522.09 1336.48 1521.29 1337.87 1519.7C1339.26 1518.1 1339.96 1515.7 1339.96 1512.5C1339.96 1509.1 1339.21 1506.57 1337.72 1504.91C1336.26 1503.24 1334.25 1502.41 1331.7 1502.41C1329.15 1502.41 1327.19 1503.24 1325.83 1504.91C1324.51 1506.54 1323.85 1509 1323.85 1512.3ZM1319.51 1512.25C1319.51 1509.67 1319.92 1507.52 1320.73 1505.82C1321.55 1504.09 1322.59 1502.71 1323.85 1501.69C1325.1 1500.64 1326.45 1499.91 1327.87 1499.5C1329.34 1499.06 1330.71 1498.84 1332.01 1498.84C1333.23 1498.84 1334.56 1499.04 1335.98 1499.45C1337.45 1499.82 1338.79 1500.52 1340.01 1501.54C1341.24 1502.53 1342.26 1503.87 1343.07 1505.57C1343.89 1507.23 1344.3 1509.36 1344.3 1511.94C1344.3 1514.63 1343.87 1516.86 1343.02 1518.62C1342.21 1520.39 1341.17 1521.8 1339.91 1522.86C1338.65 1523.88 1337.29 1524.59 1335.83 1525C1334.37 1525.44 1333.01 1525.66 1331.75 1525.66C1330.46 1525.66 1329.1 1525.46 1327.67 1525.05C1326.24 1524.64 1324.92 1523.95 1323.69 1522.96C1322.5 1521.94 1321.5 1520.56 1320.68 1518.83C1319.9 1517.09 1319.51 1514.9 1319.51 1512.25ZM1366.24 1503.17C1365.01 1502.83 1364.06 1502.63 1363.38 1502.56C1362.7 1502.46 1362 1502.41 1361.29 1502.41C1359.86 1502.41 1358.64 1502.66 1357.62 1503.17C1356.6 1503.68 1355.75 1504.4 1355.07 1505.31C1354.42 1506.2 1353.95 1507.23 1353.64 1508.42C1353.33 1509.58 1353.18 1510.82 1353.18 1512.15C1353.18 1513.34 1353.3 1514.53 1353.54 1515.72C1353.81 1516.91 1354.22 1517.98 1354.76 1518.93C1355.31 1519.88 1355.97 1520.65 1356.75 1521.23C1357.53 1521.8 1358.47 1522.09 1359.56 1522.09C1360.3 1522.09 1361.07 1521.96 1361.85 1521.68C1362.67 1521.41 1363.42 1521.11 1364.1 1520.77C1364.78 1520.39 1365.49 1519.93 1366.24 1519.39V1503.17ZM1366.29 1522.96C1365.51 1523.5 1364.74 1523.96 1363.99 1524.34C1363.28 1524.68 1362.48 1524.98 1361.6 1525.26C1360.75 1525.53 1359.91 1525.66 1359.1 1525.66C1355.9 1525.66 1353.39 1524.54 1351.55 1522.3C1349.75 1520.02 1348.85 1516.7 1348.85 1512.35C1348.85 1509.77 1349.25 1507.61 1350.07 1505.87C1350.92 1504.14 1351.97 1502.76 1353.23 1501.74C1354.49 1500.69 1355.83 1499.94 1357.26 1499.5C1358.72 1499.06 1360.07 1498.84 1361.29 1498.84C1361.9 1498.84 1362.55 1498.89 1363.23 1498.99C1363.91 1499.06 1364.91 1499.26 1366.24 1499.6V1486.8L1370.32 1486.34V1520.36C1370.32 1520.83 1370.32 1521.34 1370.32 1521.89C1370.35 1522.4 1370.39 1522.91 1370.42 1523.42C1370.49 1523.93 1370.56 1524.46 1370.62 1525L1366.7 1525.41L1366.29 1522.96ZM1389.37 1486.8L1393.45 1486.34V1525H1389.37V1486.8ZM1416.13 1522.19H1416.02C1415.72 1522.43 1415.28 1522.76 1414.7 1523.16C1414.12 1523.54 1413.46 1523.91 1412.71 1524.29C1411.96 1524.66 1411.13 1524.98 1410.21 1525.26C1409.33 1525.53 1408.43 1525.66 1407.51 1525.66C1406.25 1525.66 1405.18 1525.49 1404.29 1525.15C1403.41 1524.85 1402.7 1524.32 1402.15 1523.57C1401.61 1522.82 1401.22 1521.84 1400.98 1520.61C1400.74 1519.39 1400.62 1517.86 1400.62 1516.02V1499.35H1404.7V1515.41C1404.7 1516.43 1404.72 1517.35 1404.75 1518.17C1404.79 1518.98 1404.91 1519.68 1405.11 1520.26C1405.31 1520.83 1405.64 1521.29 1406.08 1521.63C1406.56 1521.94 1407.22 1522.09 1408.07 1522.09C1408.95 1522.09 1409.87 1521.91 1410.82 1521.53C1411.77 1521.16 1412.64 1520.73 1413.42 1520.26C1414.34 1519.71 1415.24 1519.1 1416.13 1518.42V1499.35H1420.21V1521.68C1420.24 1522.91 1420.33 1524.01 1420.46 1525L1416.43 1525.41L1416.13 1522.19ZM1443.53 1503.07C1442.95 1502.93 1442.16 1502.8 1441.14 1502.66C1440.12 1502.49 1439.08 1502.41 1438.02 1502.41C1436.49 1502.41 1435.24 1502.71 1434.25 1503.32C1433.3 1503.94 1432.55 1504.74 1432.01 1505.72C1431.46 1506.67 1431.09 1507.74 1430.88 1508.93C1430.68 1510.09 1430.58 1511.23 1430.58 1512.35C1430.58 1514.09 1430.8 1515.58 1431.24 1516.84C1431.68 1518.06 1432.26 1519.07 1432.98 1519.85C1433.72 1520.63 1434.57 1521.21 1435.53 1521.58C1436.48 1521.92 1437.48 1522.09 1438.53 1522.09C1439.25 1522.09 1439.93 1522.06 1440.57 1521.99C1441.25 1521.89 1441.87 1521.79 1442.41 1521.68C1442.99 1521.55 1443.53 1521.4 1444.04 1521.23L1444.86 1524.64C1444.14 1524.85 1443.48 1525.02 1442.87 1525.15C1442.26 1525.29 1441.53 1525.41 1440.68 1525.51C1439.86 1525.61 1438.98 1525.66 1438.02 1525.66C1436.15 1525.66 1434.49 1525.43 1433.03 1524.95C1431.56 1524.47 1430.32 1523.71 1429.3 1522.65C1428.32 1521.6 1427.55 1520.22 1427.01 1518.52C1426.5 1516.82 1426.24 1514.75 1426.24 1512.3C1426.24 1509.92 1426.57 1507.88 1427.21 1506.18C1427.89 1504.45 1428.78 1503.05 1429.86 1502C1430.95 1500.91 1432.19 1500.11 1433.59 1499.6C1435.02 1499.09 1436.49 1498.84 1438.02 1498.84C1438.84 1498.84 1439.62 1498.89 1440.37 1498.99C1441.15 1499.06 1441.83 1499.14 1442.41 1499.25C1443.09 1499.38 1443.74 1499.52 1444.35 1499.65L1443.53 1503.07ZM1449.88 1486.8L1453.96 1486.34V1509.34L1465.34 1499.35H1470.95L1459.83 1509.09L1471.35 1525H1466.2L1456.82 1511.69L1453.96 1514.19V1525H1449.88V1486.8ZM1487.14 1487.87L1492.34 1487.31L1491.47 1515.72H1488.16L1487.14 1487.87ZM1486.68 1521.99C1486.68 1521.17 1486.97 1520.48 1487.55 1519.9C1488.12 1519.29 1488.84 1518.98 1489.69 1518.98C1490.57 1518.98 1491.32 1519.29 1491.93 1519.9C1492.54 1520.48 1492.85 1521.17 1492.85 1521.99C1492.85 1522.84 1492.54 1523.55 1491.93 1524.13C1491.32 1524.71 1490.57 1525 1489.69 1525C1488.84 1525 1488.12 1524.71 1487.55 1524.13C1486.97 1523.55 1486.68 1522.84 1486.68 1521.99Z" fill="black"/>
<defs>
<radialGradient id="paint0_radial_3_1183" cx="0" cy="0" r="1" gradientUnits="userSpaceOnUse" gradientTransform="translate(1682.58 1562.98) rotate(-2.2693) scale(25.6866 25.6866)">
<stop stop-color="#E65680"/>
<stop offset="0.46" stop-color="#DE7480"/>
<stop offset="1" stop-color="#D69280"/>
</radialGradient>
<radialGradient id="paint1_radial_3_1183" cx="0" cy="0" r="1" gradientUnits="userSpaceOnUse" gradientTransform="translate(1591.93 1593.65) rotate(-2.2693) scale(18.3467)">
<stop stop-color="#E65680"/>
<stop offset="0.46" stop-color="#DE7480"/>
<stop offset="1" stop-color="#D69280"/>
</radialGradient>
</defs>
</svg>
