<svg width="2479" height="962" viewBox="0 0 2479 962" fill="none" xmlns="http://www.w3.org/2000/svg">
<path d="M2178.25 472.467L2177.07 460.768L2123.25 447.53C2120.19 436.067 2116.05 424.977 2110.9 414.436L2140.24 364.264L2134.18 355.163C2123.86 341.013 2112.08 328.194 2099.07 316.955L2090.53 309.658L2044.01 342.289C2034.32 336.688 2024.13 332.186 2013.6 328.853L2001.43 270.292L1991.27 269.002C1975.1 266.801 1958.73 266.801 1942.55 269.002L1931.8 270.292L1919.64 328.853C1909.1 332.186 1898.91 336.688 1889.23 342.289L1843.12 310.37L1834.76 316.955C1821.75 328.194 1809.97 341.013 1799.64 355.163L1792.94 364.463L1822.45 415.081C1817.29 425.632 1813.12 436.718 1809.99 448.175L1756.17 461.413L1754.92 472.996C1752.96 490.642 1752.96 508.482 1754.92 526.129L1756.17 537.696L1809.99 550.95C1813.12 562.405 1817.3 573.491 1822.45 584.045L1793.59 633.686L1800.24 642.92C1810.37 657 1821.96 669.774 1834.76 680.995L1843.3 688.292L1889.99 656.174C1899.67 661.758 1909.87 666.244 1920.4 669.561L1932.52 728.188L1943.33 729.479C1959.48 731.613 1975.82 731.613 1991.97 729.479L2002.79 728.188L2014.97 669.561C2025.5 666.236 2035.69 661.75 2045.38 656.174L2092.06 688.292L2100.56 680.995C2113.07 669.693 2124.35 656.874 2134.18 642.787L2140.89 633.488L2111.37 582.688C2116.51 572.144 2120.63 561.054 2123.68 549.593L2177.55 536.405L2178.74 524.64C2180.7 507.06 2180.7 489.286 2178.74 471.706L2178.25 472.467ZM1966.91 598.259C1948.87 598.259 1931.23 592.436 1916.23 581.527C1901.22 570.618 1889.53 555.112 1882.62 536.97C1875.72 518.828 1873.91 498.866 1877.43 479.606C1880.95 460.347 1889.64 442.657 1902.4 428.772C1915.16 414.887 1931.42 405.431 1949.11 401.6C1966.81 397.769 1985.16 399.735 2001.83 407.25C2018.5 414.764 2032.75 427.49 2042.78 443.817C2052.8 460.144 2058.15 479.339 2058.15 498.976C2058.14 525.304 2048.53 550.552 2031.42 569.169C2014.31 587.786 1991.11 598.249 1966.91 598.259ZM548.775 627.391L547.244 612.285L477.757 595.193C473.804 580.392 468.461 566.073 461.815 552.462L499.689 487.68L491.875 475.929C478.54 457.659 463.329 441.106 446.539 426.595L435.505 417.174L375.443 459.307C362.934 452.074 349.776 446.261 336.175 441.958L320.467 366.344L307.351 364.678C286.463 361.836 265.331 361.836 244.443 364.678L230.561 366.344L214.853 441.958C201.252 446.26 188.093 452.074 175.585 459.306L116.053 418.092L105.255 426.595C88.4644 441.106 73.2538 457.658 59.9191 475.929L51.2601 487.937L89.3706 553.295C82.7064 566.918 77.3126 581.233 73.27 596.026L3.78342 613.119L2.17401 628.074C-0.358786 650.86 -0.358786 673.894 2.17401 696.68L3.78342 711.615L73.27 728.729C77.3194 743.519 82.713 757.834 89.3706 771.461L52.1043 835.558L60.6849 847.48C73.7735 865.66 88.727 882.154 105.255 896.642L116.289 906.065L176.566 864.594C189.077 871.804 202.236 877.596 215.835 881.879L231.484 957.578L245.444 959.244C266.304 962 287.394 962 308.254 959.244L322.214 957.578L337.942 881.879C351.537 877.585 364.695 871.793 377.21 864.594L437.488 906.065L448.463 896.642C464.612 882.049 479.177 865.497 491.875 847.309L500.534 835.302L462.423 769.709C469.049 756.094 474.372 741.776 478.307 726.977L547.872 709.948L549.403 694.757C551.936 672.058 551.936 649.108 549.403 626.409L548.775 627.391ZM275.896 789.814C252.596 789.814 229.82 782.296 210.447 768.209C191.074 754.123 175.974 734.102 167.058 710.677C158.141 687.253 155.808 661.477 160.354 636.61C164.899 611.743 176.119 588.9 192.595 570.972C209.07 553.044 230.061 540.834 252.914 535.888C275.766 530.942 299.453 533.48 320.979 543.183C342.505 552.886 360.904 569.317 373.849 590.398C386.793 611.48 393.703 636.265 393.703 661.619C393.691 695.615 381.276 728.214 359.185 752.253C337.095 776.291 307.137 789.802 275.896 789.814ZM982.808 484.847L981.672 473.649L930.159 460.977C927.228 450.005 923.268 439.389 918.34 429.299L946.418 381.274L940.625 372.562C930.739 359.018 919.463 346.747 907.016 335.989L898.836 329.004L854.309 360.239C845.036 354.878 835.282 350.568 825.198 347.378L813.554 291.323L803.83 290.087C788.345 287.981 772.679 287.981 757.194 290.087L746.902 291.323L735.258 347.378C725.175 350.568 715.42 354.878 706.147 360.239L662.013 329.686L654.008 335.989C641.561 346.747 630.284 359.018 620.399 372.563L613.979 381.465L642.232 429.917C637.292 440.016 633.293 450.628 630.296 461.594L578.783 474.266L577.59 485.353C575.712 502.245 575.712 519.322 577.59 536.213L578.783 547.286L630.296 559.972C633.298 570.937 637.297 581.549 642.232 591.651L614.605 639.169L620.966 648.008C630.67 661.485 641.755 673.713 654.008 684.454L662.188 691.439L706.874 660.695C716.149 666.04 725.904 670.334 735.986 673.509L747.587 729.628L757.936 730.863C773.4 732.906 789.035 732.906 804.5 730.863L814.849 729.628L826.508 673.509C836.587 670.326 846.341 666.032 855.619 660.695L900.306 691.439L908.442 684.454C920.413 673.635 931.211 661.365 940.625 647.881L947.044 638.979L918.791 590.353C923.703 580.26 927.649 569.645 930.567 558.674L982.138 546.05L983.273 534.788C985.151 517.96 985.151 500.946 983.273 484.118L982.808 484.847ZM780.512 605.258C763.239 605.258 746.353 599.684 731.991 589.241C717.629 578.799 706.435 563.956 699.825 546.591C693.215 529.225 691.485 510.117 694.855 491.681C698.225 473.246 706.543 456.313 718.757 443.022C730.971 429.731 746.532 420.679 763.474 417.012C780.415 413.345 797.975 415.227 813.933 422.42C829.891 429.613 843.531 441.794 853.128 457.423C862.724 473.052 867.846 491.426 867.846 510.222C867.838 535.424 858.634 559.591 842.257 577.412C825.881 595.233 803.672 605.248 780.512 605.258ZM2476.98 743.806L2476.08 734.986L2435.51 725.006C2433.2 716.364 2430.08 708.003 2426.2 700.056L2448.32 662.23L2443.75 655.369C2435.97 644.701 2427.08 635.036 2417.28 626.563L2410.84 621.062L2375.77 645.663C2368.47 641.44 2360.78 638.046 2352.84 635.533L2343.67 591.383L2336.01 590.41C2323.81 588.751 2311.48 588.751 2299.28 590.41L2291.17 591.383L2282 635.533C2274.06 638.045 2266.38 641.44 2259.07 645.663L2224.31 621.598L2218.01 626.563C2208.2 635.036 2199.32 644.701 2191.54 655.369L2186.48 662.38L2208.73 700.542C2204.84 708.497 2201.69 716.855 2199.33 725.492L2158.76 735.473L2157.82 744.205C2156.34 757.51 2156.34 770.959 2157.82 784.263L2158.76 792.984L2199.33 802.976C2201.7 811.613 2204.85 819.971 2208.73 827.927L2186.97 865.353L2191.98 872.315C2199.63 882.93 2208.36 892.561 2218.01 901.02L2224.45 906.522L2259.65 882.307C2266.95 886.517 2274.63 889.899 2282.58 892.4L2291.71 936.6L2299.86 937.573C2312.04 939.182 2324.36 939.182 2336.54 937.573L2344.69 936.6L2353.87 892.4C2361.81 889.893 2369.49 886.511 2376.8 882.307L2412 906.522L2418.4 901.02C2427.83 892.499 2436.34 882.835 2443.75 872.215L2448.81 865.204L2426.56 826.905C2430.43 818.955 2433.53 810.595 2435.83 801.954L2476.45 792.011L2477.34 783.141C2478.82 769.887 2478.82 756.487 2477.34 743.233L2476.98 743.806ZM2317.64 838.644C2304.04 838.644 2290.74 834.254 2279.43 826.029C2268.12 817.804 2259.3 806.114 2254.09 792.436C2248.89 778.759 2247.53 763.709 2250.18 749.189C2252.83 734.669 2259.39 721.332 2269.01 710.863C2278.62 700.395 2290.88 693.266 2304.22 690.378C2317.57 687.49 2331.4 688.972 2343.97 694.638C2356.54 700.303 2367.28 709.897 2374.84 722.206C2382.4 734.516 2386.43 748.987 2386.43 763.792C2386.42 783.642 2379.17 802.676 2366.28 816.712C2353.38 830.748 2335.89 838.636 2317.64 838.644ZM633.083 132.1L632.321 124.584L597.747 116.079C595.779 108.715 593.121 101.59 589.814 94.8172L608.659 62.5834L604.771 56.7364C598.136 47.6454 590.567 39.4094 582.213 32.189L576.723 27.5009L546.837 48.4653C540.613 44.8667 534.066 41.974 527.298 39.833L519.482 2.20953L512.956 1.38026C502.563 -0.0336546 492.048 -0.0336546 481.655 1.38026L474.747 2.20953L466.932 39.833C460.164 41.974 453.616 44.8666 447.392 48.4653L417.771 27.958L412.398 32.189C404.043 39.4092 396.475 47.6452 389.84 56.7364L385.531 62.7113L404.494 95.2318C401.178 102.01 398.494 109.133 396.483 116.494L361.908 124.999L361.107 132.44C359.847 143.778 359.847 155.239 361.107 166.577L361.908 174.008L396.483 182.524C398.498 189.883 401.181 197.006 404.494 203.786L385.951 235.679L390.221 241.612C396.733 250.658 404.174 258.865 412.398 266.074L417.888 270.762L447.881 250.127C454.106 253.715 460.653 256.597 467.42 258.728L475.207 296.394L482.153 297.223C492.532 298.595 503.026 298.595 513.406 297.223L520.352 296.394L528.177 258.728C534.942 256.591 541.489 253.709 547.716 250.127L577.709 270.762L583.17 266.074C591.205 258.812 598.453 250.577 604.771 241.526L609.08 235.552L590.117 202.914C593.414 196.14 596.062 189.015 598.02 181.652L632.634 173.179L633.396 165.62C634.656 154.325 634.656 142.906 633.396 131.612L633.083 132.1ZM497.305 212.918C485.712 212.918 474.379 209.177 464.739 202.168C455.099 195.159 447.586 185.197 443.15 173.542C438.713 161.886 437.552 149.061 439.814 136.687C442.076 124.314 447.658 112.948 455.856 104.028C464.054 95.1068 474.499 89.0317 485.87 86.5705C497.24 84.1093 509.026 85.3725 519.737 90.2004C530.448 95.0282 539.603 103.204 546.044 113.694C552.485 124.183 555.923 136.516 555.923 149.132C555.917 166.047 549.74 182.268 538.748 194.229C527.756 206.19 512.85 212.912 497.305 212.918Z" fill="#C0D6F2"/>
</svg>
